<?xml version="1.0" encoding="utf-8"?>
<!-- Generator: Adobe Illustrator 19.0.0, SVG Export Plug-In . SVG Version: 6.00 Build 0)  -->
<!DOCTYPE svg PUBLIC "-//W3C//DTD SVG 1.1//EN" "http://www.w3.org/Graphics/SVG/1.1/DTD/svg11.dtd">
<svg version="1.1" id="Layer_1" xmlns="http://www.w3.org/2000/svg" xmlns:xlink="http://www.w3.org/1999/xlink" x="0px" y="0px"
	 viewBox="0 0 120 122.47792" style="enable-background:new 0 0 120 122.47792;" xml:space="preserve">
<style type="text/css">
	.st0{fill:rgb(255, 255, 255);}
</style>
<g>
	<path class="st0" d="M102.34005,17.74016c-0.31775-0.31773-0.43874-0.83528-0.76231-1.14471
		c-0.32468-0.31081-0.67739-0.59441-1.00735-0.8969c-0.33134-0.3033-0.72263-0.54085-1.05952-0.83584
		c-0.33801-0.2961-0.60191-0.68045-0.94547-0.96795c-0.34411-0.28833-0.72456-0.53559-1.07451-0.81531
		c-0.35021-0.28083-0.78367-0.45595-1.13944-0.7279c-0.35659-0.27278-0.75953-0.48037-1.1214-0.74483
		c-0.36298-0.26446-0.74538-0.49563-1.11337-0.75149c-0.36825-0.2564-0.63632-0.65796-1.00983-0.90578
		c-0.37409-0.24782-0.84612-0.34189-1.2252-0.5811c-0.37963-0.23948-0.76231-0.4676-1.14639-0.6982
		c-0.3849-0.23089-0.72568-0.53198-1.11501-0.75371c-0.38991-0.22229-0.7909-0.42099-1.18524-0.63411
		c-0.39488-0.21311-0.70209-0.59385-1.10142-0.79783c-0.39961-0.20396-0.83363-0.34243-1.2374-0.53752
		c-0.40405-0.19482-0.84307-0.31553-1.25127-0.50119c-0.40822-0.18565-0.76453-0.49173-1.17663-0.66795
		c-0.41266-0.17649-0.92188-0.11767-1.33814-0.28472c-0.41626-0.16679-0.74483-0.55891-1.16498-0.71624
		c-0.41959-0.15735-0.91549-0.10518-1.33896-0.25308C79.403,3.37613,79.0156,3.12471,78.5888,2.98625
		c-0.42652-0.13792-0.83862-0.32441-1.26848-0.45317c-0.42958-0.12822-0.84557-0.31248-1.27848-0.43125
		c-0.43207-0.1185-0.93575,0.03496-1.37088-0.07381c-0.43457-0.10906-0.80977-0.4665-1.24739-0.56557
		c-0.43707-0.09907-0.87498-0.20896-1.31455-0.29804c-0.43929-0.08908-0.91965,0.03247-1.36145-0.0469
		c-0.44124-0.0791-0.83918-0.42209-1.28291-0.49146c-0.44262-0.06911-0.88885-0.14541-1.33369-0.20508
		c-0.44402-0.05911-0.91633,0.09158-1.36311,0.04217c-0.44485-0.04939-0.88831-0.12293-1.33565-0.16262
		c-0.44595-0.0394-0.90384,0.07798-1.35201,0.04858c-0.44679-0.02942-0.89441,0.00749-1.34314-0.01194
		c-0.44734-0.0197-0.88774-0.18814-1.33702-0.19787C60.95214,0.1293,60.50452,0,60.05524,0
		c-0.44929,0-0.89385,0.26861-1.34147,0.27834c-0.44928,0.00971-0.90606-0.26169-1.3534-0.24199
		c-0.44872,0.0197-0.90495-0.0469-1.35201-0.01748c-0.4479,0.02969-0.88552,0.22061-1.33176,0.26001
		c-0.44734,0.03941-0.88136,0.20342-1.32676,0.25254c-0.44623,0.04968-0.92299-0.14626-1.367-0.08686
		C51.538,0.50395,51.0937,0.59053,50.65081,0.65962c-0.44345,0.06938-0.89218,0.12793-1.33315,0.20703
		c-0.44179,0.07908-0.86748,0.25586-1.3065,0.34494c-0.44013,0.08908-0.84723,0.3294-1.28431,0.42847
		c-0.43763,0.09907-0.84639,0.30608-1.28125,0.41487C45.0102,2.16372,44.58118,2.27971,44.1491,2.3982
		c-0.43263,0.11877-0.93659-0.01553-1.36617,0.11294c-0.42985,0.12849-0.80505,0.43152-1.23157,0.56944
		c-0.4268,0.13821-0.84445,0.29583-1.26793,0.44346c-0.42347,0.14792-0.90633,0.13098-1.32592,0.28833
		c-0.42015,0.15735-0.81504,0.38184-1.2313,0.54863c-0.41626,0.16706-0.76675,0.48814-1.17885,0.66463
		c-0.41237,0.17622-0.86054,0.26529-1.26876,0.45095c-0.40821,0.18565-0.92049,0.15318-1.32426,0.34798
		c-0.40377,0.19509-0.75454,0.5034-1.15387,0.70764c-0.39933,0.20398-0.81254,0.38547-1.20744,0.59887
		c-0.39433,0.21286-0.76702,0.46926-1.15692,0.69128c-0.38935,0.22173-0.65492,0.65325-1.03982,0.88413
		c-0.38407,0.23034-0.78395,0.42959-1.16331,0.6688c-0.37907,0.23921-0.82919,0.36575-1.20327,0.61384
		c-0.37353,0.24754-0.67601,0.59775-1.04454,0.8539c-0.3677,0.25613-0.84556,0.35742-1.20827,0.62188
		c-0.36186,0.26419-0.57416,0.72707-0.93076,0.99986c-0.35576,0.27195-0.74372,0.49895-1.09421,0.7795
		c-0.34966,0.28001-0.80783,0.42737-1.15193,0.7157c-0.34328,0.28777-0.5614,0.72151-0.89912,1.01733
		c-0.3369,0.295-0.7884,0.46177-1.11974,0.76536c-0.33023,0.30249-0.74871,0.51535-1.07312,0.82615
		c-0.32358,0.30969-0.63189,0.64104-0.94963,0.95877c-0.31775,0.31775-0.39489,0.86972-0.70459,1.19329
		c-0.31054,0.32439-0.8142,0.4662-1.11669,0.79644c-0.30331,0.33134-0.39073,0.85361-0.68599,1.1905
		c-0.29583,0.33801-0.60496,0.65853-0.89274,1.00208c-0.28833,0.3441-0.71042,0.5761-0.99042,0.92576
		c-0.28056,0.35049-0.62078,0.65547-0.89273,1.01151c-0.27279,0.3566-0.55085,0.71208-0.81476,1.07395
		c-0.26474,0.36242-0.37685,0.83391-0.63271,1.20161c-0.25642,0.36853-0.59304,0.68155-0.84057,1.05508
		c-0.24809,0.37408-0.56445,0.7057-0.80366,1.08449c-0.23948,0.37963-0.53198,0.73039-0.76258,1.11447
		c-0.23089,0.3849-0.45539,0.77785-0.6774,1.16747c-0.222,0.3899-0.25058,0.88885-0.46371,1.28319
		c-0.21285,0.3949-0.35382,0.82559-0.55779,1.22492c-0.20396,0.39934-0.33134,0.83308-0.52615,1.23685
		c-0.19509,0.40406-0.38907,0.80367-0.57472,1.21187c-0.18565,0.40822-0.47508,0.76758-0.6513,1.17997
		c-0.17622,0.41237-0.44512,0.78617-0.61218,1.20243c-0.16679,0.41626-0.20258,0.88248-0.35993,1.30262
		c-0.15735,0.41987-0.58249,0.74427-0.73012,1.16775c-0.14791,0.42319-0.19148,0.88497-0.32967,1.31178
		c-0.1382,0.42653-0.25642,0.86137-0.38463,1.29123c-0.12848,0.4293-0.33883,0.83835-0.45761,1.27126
		c-0.1185,0.43208-0.08437,0.90661-0.19315,1.34202c-0.10878,0.43458-0.32302,0.84612-0.42181,1.28375
		c-0.09907,0.43735-0.22811,0.87137-0.31719,1.31122c-0.0888,0.43902,0.03164,0.91966-0.04773,1.36172
		c-0.07909,0.44096-0.1862,0.87692-0.25558,1.32066c-0.06911,0.44235-0.15429,0.88303-0.21369,1.32787
		c-0.0591,0.44429-0.19731,0.87998-0.24698,1.3262c-0.04912,0.44512-0.04718,0.89746-0.08659,1.3448
		c-0.03941,0.44623,0.08714,0.90467,0.05772,1.35284c-0.02941,0.44706-0.27973,0.88192-0.29943,1.33092
		c-0.0197,0.44734,0.02858,0.89913,0.01887,1.34841C0.0802,59.12641,0,59.57569,0,60.02497
		c0,0.44762,0.12543,0.89441,0.13543,1.34036c0.00971,0.44734,0.03469,0.89357,0.05411,1.33924
		c0.01971,0.44707-0.01859,0.89718,0.01055,1.3423c0.02941,0.44651,0.17094,0.88358,0.20979,1.32815
		c0.03941,0.44567,0.09657,0.88747,0.14542,1.33092c0.04939,0.44485-0.03108,0.9044,0.02774,1.34702
		c0.05911,0.44317,0.13764,0.88469,0.20647,1.32592c0.06855,0.44208,0.20979,0.87166,0.28861,1.31123
		c0.07853,0.44012,0.15124,0.88052,0.23948,1.31844c0.08852,0.43819,0.35577,0.83556,0.45401,1.27126
		c0.09824,0.43625,0.18038,0.87165,0.28833,1.30511c0.10822,0.43375-0.12904,0.95795-0.01138,1.38892
		c0.11795,0.43097,0.32995,0.83862,0.45761,1.26682c0.12765,0.42847,0.42209,0.80533,0.55917,1.23046
		c0.13709,0.42543,0.2567,0.85528,0.4035,1.27682c0.1468,0.42236,0.30914,0.83752,0.46538,1.25627
		c0.15651,0.41821,0.35993,0.8167,0.52587,1.23158c0.16568,0.41515,0.13376,0.91161,0.30887,1.32288
		c0.17511,0.41098,0.37242,0.81504,0.55668,1.22214c0.18426,0.4071,0.35271,0.8242,0.54613,1.22686
		c0.1937,0.40266,0.45012,0.77646,0.65297,1.17467c0.2023,0.39823,0.59081,0.69822,0.80255,1.092
		c0.21146,0.3935,0.32136,0.84056,0.54197,1.22962c0.22034,0.38824,0.34134,0.83558,0.57055,1.21937
		c0.22895,0.38351,0.65297,0.64715,0.89079,1.02566c0.23727,0.37824,0.44096,0.77536,0.68711,1.14861
		c0.24615,0.3727,0.37269,0.82614,0.62744,1.19383c0.2542,0.36687,0.45318,0.77618,0.71597,1.13778
		c0.26252,0.36131,0.50922,0.739,0.78007,1.09504c0.27001,0.35493,0.71181,0.57915,0.99042,0.92882
		c0.27806,0.34911,0.46371,0.77452,0.7501,1.11835c0.28583,0.34271,0.66574,0.60635,0.95961,0.9438
		c0.29305,0.33633,0.66325,0.60219,0.96462,0.93269c0.30054,0.32996,0.60302,0.65492,0.91161,0.97905
		c0.30748,0.32329,0.51894,0.75787,0.83446,1.07534c0.37879-0.42293,0.71819-0.88636,1.0154-1.36034
		c-0.31247-0.31663-0.56972-0.68239-0.87497-1.00624c-0.30498-0.32384-0.73123-0.5367-1.029-0.86749
		c-0.29777-0.33022-0.42181-0.81364-0.71209-1.15082c-0.28999-0.33717-0.62578-0.63355-0.90827-0.97738
		c-0.28222-0.34383-0.6341-0.6316-0.90884-0.98182c-0.27445-0.34966-0.45428-0.77203-0.72096-1.12806
		c-0.2664-0.35605-0.74067-0.56223-0.99903-0.92465c-0.25808-0.36215-0.34439-0.84668-0.59442-1.21494
		c-0.24975-0.36769-0.507-0.73067-0.74871-1.10447c-0.24143-0.37325-0.32884-0.84168-0.56195-1.22076
		c-0.23283-0.37852-0.71292-0.60857-0.93742-0.99292c-0.22423-0.38407-0.37685-0.81087-0.59248-1.20021
		c-0.21535-0.38935-0.4837-0.7515-0.69044-1.14583c-0.20618-0.39406-0.21507-0.88802-0.41265-1.28735
		c-0.19731-0.39822-0.42181-0.78118-0.61024-1.18467c-0.18787-0.40322-0.41709-0.7859-0.59608-1.19384
		c-0.17872-0.4071-0.31358-0.83169-0.48314-1.24379c-0.16928-0.41071-0.42569-0.78701-0.58582-1.20243
		c-0.15956-0.41487-0.41348-0.79728-0.56389-1.21631c-0.15014-0.41821-0.02387-0.93243-0.16457-1.3548
		c-0.14041-0.42181-0.3663-0.81365-0.49729-1.23934c-0.13043-0.42487-0.42597-0.80227-0.54697-1.23103
		c-0.12071-0.42763,0.06411-0.93742-0.04689-1.36865c-0.11073-0.42986-0.34633-0.82726-0.44762-1.26099
		c-0.10074-0.43291-0.43847-0.81532-0.52948-1.25128c-0.09075-0.43485-0.09824-0.88996-0.17928-1.32841
		c-0.08075-0.43653-0.02608-0.89857-0.09685-1.3387c-0.07076-0.43846-0.19814-0.86942-0.25891-1.31094
		c-0.0605-0.43985-0.01415-0.89384-0.06494-1.33647c-0.05023-0.44124-0.27779-0.86527-0.3183-1.30927
		c-0.04024-0.44235-0.15484-0.88331-0.18537-1.32815c-0.03025-0.44291,0.15152-0.90079,0.13126-1.34646
		c-0.01998-0.44346-0.2492-0.88275-0.25919-1.32898c-0.00999-0.44373,0.3602-0.8933,0.3602-1.33953
		c0-0.44345-0.07548-0.88386-0.06577-1.32481c0.00999-0.44345,0.06244-0.88192,0.08242-1.32287
		c0.01971-0.44291,0.0494-0.88108,0.07937-1.32149c0.02997-0.44234-0.00722-0.88691,0.03274-1.32648
		c0.03996-0.44151-0.07021-0.89746-0.02053-1.3362c0.05023-0.4404,0.0555-0.88829,0.11544-1.32565
		c0.05994-0.43901,0.19676-0.86832,0.2664-1.30428c0.07022-0.43763,0.34938-0.8378,0.42903-1.27209
		c0.0802-0.43569-0.15318-0.9327-0.06355-1.36506c0.08991-0.43374,0.24643-0.85611,0.34605-1.28651
		c0.09991-0.43152,0.27668-0.84556,0.3863-1.27348c0.10961-0.42931,0.24032-0.85334,0.35965-1.27875
		c0.11961-0.42653,0.15512-0.87887,0.28416-1.30124c0.12932-0.42374,0.38157-0.8092,0.52033-1.22879
		c0.13903-0.42043,0.38657-0.80172,0.53476-1.21798c0.14875-0.41737,0.06161-0.9216,0.21951-1.33426
		c0.15817-0.41376,0.41043-0.792,0.57777-1.20104c0.16762-0.40988,0.50672-0.74594,0.68349-1.1511
		c0.17677-0.40572,0.14708-0.90385,0.33301-1.30484c0.1862-0.40183,0.33412-0.82447,0.52893-1.22131
		c0.19536-0.39739,0.54141-0.71958,0.74566-1.11198c0.20425-0.39267,0.54142-0.71152,0.75454-1.09921
		c0.21313-0.38795,0.31664-0.83502,0.53809-1.21742c0.222-0.38296,0.34217-0.82724,0.57249-1.20466
		c0.23089-0.37768,0.5564-0.69682,0.79533-1.06895c0.23893-0.37242,0.56029-0.68905,0.80755-1.05564
		c0.24726-0.36686,0.29277-0.87359,0.54808-1.23462c0.25586-0.36131,0.59331-0.66546,0.85694-1.02039
		c0.26391-0.35549,0.65242-0.61496,0.92382-0.96406c0.27196-0.3491,0.51228-0.72069,0.79173-1.06341
		c0.27946-0.343,0.64104-0.61441,0.92798-0.95074c0.28722-0.33662,0.58055-0.66297,0.87526-0.99292
		c0.29471-0.32995,0.46149-0.77397,0.76369-1.09727c0.30193-0.32302,0.64853-0.60302,0.95795-0.91911
		c0.30914-0.31635,0.54003-0.71125,0.85638-1.02039c0.31636-0.30942,0.62412-0.62993,0.94713-0.93213
		c0.3233-0.30193,0.61995-0.6366,0.94991-0.93132c0.32968-0.29472,0.62467-0.63521,0.96101-0.92244
		c0.33634-0.28694,0.71014-0.53559,1.05286-0.81531c0.343-0.27917,0.70542-0.53919,1.05452-0.81087
		c0.3491-0.27168,0.76509-0.45761,1.12057-0.72151c0.35494-0.26363,0.78118-0.42764,1.14222-0.6835
		c0.36104-0.2553,0.64271-0.62466,1.00957-0.8722c0.36659-0.24726,0.73595-0.49229,1.10865-0.7315
		c0.37186-0.23865,0.87304-0.26863,1.25072-0.49924c0.37741-0.23034,0.68155-0.57888,1.06424-0.80088
		c0.38268-0.22173,0.83113-0.32163,1.21909-0.53476c0.3874-0.21286,0.62772-0.70015,1.02039-0.9044
		c0.39212-0.20423,0.92437-0.13069,1.32149-0.32607c0.39683-0.19509,0.76842-0.43569,1.16997-0.62188
		c0.401-0.18594,0.78951-0.39461,1.1955-0.57166c0.40488-0.17651,0.83752-0.2825,1.2474-0.45012
		c0.40905-0.16734,0.72651-0.56557,1.13999-0.72402c0.41265-0.15791,0.82642-0.32163,1.24351-0.47038
		c0.41626-0.14819,0.86443-0.20979,1.28486-0.34883c0.41959-0.13875,0.8994-0.08381,1.32287-0.21313
		c0.42237-0.12903,0.80144-0.40154,1.22797-0.52115c0.42514-0.11933,0.86527-0.18093,1.29429-0.29082
		c0.42791-0.10933,0.80005-0.45512,1.23158-0.55501c0.43041-0.09963,0.8944-0.05994,1.32814-0.14985
		c0.43263-0.08965,0.88692-0.06883,1.3226-0.14875c0.4343-0.07993,0.87831-0.09436,1.31594-0.16457
		c0.43625-0.06994,0.87637-0.09129,1.31566-0.15124c0.43736-0.05994,0.87304-0.10574,1.31344-0.15569
		c0.43847-0.04995,0.86998-0.14541,1.31122-0.18537c0.43958-0.03997,0.88164-0.01777,1.32399-0.04773
		c0.4404-0.02969,0.87637-0.08603,1.31899-0.10574c0.44123-0.01997,0.8808,0.00556,1.32426-0.00444
		c0.44124-0.00999,0.87914-0.28333,1.32288-0.28333c0.44373,0,0.88829-0.02996,1.32953-0.02026
		c0.44345,0.00999,0.87664,0.27029,1.3176,0.29028c0.4429,0.01997,0.88359,0.0147,1.32399,0.04468
		c0.44206,0.02996,0.87941,0.07798,1.31898,0.11765c0.44152,0.03997,0.89358-0.04439,1.33231,0.00556
		c0.4404,0.04995,0.87664,0.12544,1.31427,0.18538c0.43901,0.05994,0.8772,0.11765,1.31316,0.18758
		c0.43764,0.06994,0.90163-0.00888,1.33565,0.07077c0.43596,0.0802,0.81198,0.46233,1.24461,0.55224
		c0.43375,0.08992,0.91716-0.053,1.3473,0.04663c0.4318,0.0999,0.88053,0.13931,1.30844,0.24892
		c0.42902,0.10989,0.81642,0.38018,1.24184,0.49924c0.42625,0.11961,0.8625,0.20564,1.28513,0.33496
		c0.42348,0.12932,0.85944,0.22227,1.27903,0.36103c0.42043,0.13904,0.81559,0.35327,1.23185,0.50146
		c0.4171,0.14875,0.85001,0.2553,1.26266,0.41292c0.41376,0.15818,0.85888,0.24199,1.2682,0.40933
		c0.40961,0.16761,0.75593,0.48813,1.16109,0.66463c0.40572,0.17705,0.84196,0.28638,1.24323,0.47231
		c0.40156,0.18621,0.8045,0.37214,1.20133,0.56723c0.39711,0.19536,0.71541,0.54585,1.10753,0.74983
		c0.39267,0.20452,0.84084,0.3022,1.22824,0.51533c0.38795,0.21313,0.82169,0.34771,1.20438,0.56944
		c0.38268,0.22171,0.61441,0.69653,0.99209,0.92686c0.37769,0.23061,0.74705,0.46677,1.11919,0.70542
		c0.3727,0.23921,0.80949,0.3752,1.17607,0.62246c0.36714,0.24753,0.77647,0.43235,1.13722,0.68794
		c0.36131,0.25557,0.74706,0.47925,1.10226,0.74289c0.35521,0.26362,0.73844,0.49422,1.08755,0.7659s0.73928,0.49785,1.08172,0.7773
		c0.343,0.27945,0.6058,0.65964,0.94241,0.94658c0.33633,0.28721,0.60747,0.6502,0.93714,0.9449
		c0.33023,0.29445,0.60246,0.64993,0.92548,0.95185c0.3233,0.30193,0.74899,0.49646,1.06507,0.80561
		c0.31635,0.30942,0.73761,0.51727,1.04703,0.83363c0.30915,0.31636,0.56195,0.69155,0.86415,1.01457
		c0.30193,0.3233,0.60358,0.65047,0.89802,0.98043c0.29472,0.32995,0.46982,0.76564,0.75676,1.10226
		c0.28722,0.33661,0.50812,0.72623,0.78784,1.06923c0.27946,0.34299,0.51894,0.71346,0.79062,1.06257
		c0.27168,0.34911,0.79812,0.50479,1.06202,0.85999c0.26363,0.35521,0.30247,0.87415,0.55807,1.23519
		c0.25558,0.36104,0.7118,0.58415,0.95879,0.95102c0.24782,0.3663,0.37046,0.81698,0.60967,1.18967
		c0.23867,0.37186,0.41126,0.78479,0.64189,1.16248c0.23004,0.37713,0.42901,0.77147,0.65102,1.15443
		c0.22146,0.3824,0.69654,0.62356,0.90939,1.01152c0.21284,0.3874,0.32108,0.83446,0.5256,1.22713
		c0.20369,0.39212,0.50201,0.74039,0.69737,1.1375c0.19509,0.39655,0.11877,0.92437,0.30499,1.32592
		c0.18592,0.401,0.57832,0.7093,0.75536,1.1153c0.17651,0.40516,0.30166,0.83474,0.46899,1.24461
		c0.16762,0.40904,0.10545,0.908,0.26364,1.32177c0.15791,0.41265,0.37547,0.80061,0.52393,1.2177
		c0.14819,0.41626,0.29555,0.83086,0.43457,1.25128c0.13876,0.41959,0.22202,0.85417,0.35161,1.27792
		c0.12905,0.42237,0.3308,0.8217,0.45039,1.24822c0.11932,0.42514,0.31748,0.82919,0.42737,1.25821
		c0.1096,0.42791,0.28777,0.84113,0.38767,1.27265c0.09962,0.43014,0.24282,0.85444,0.33273,1.28819
		c0.08965,0.43236-0.12404,0.92465-0.04413,1.36062c0.07966,0.4343,0.24755,0.85167,0.31748,1.2893
		c0.06992,0.43597,0.03662,0.88553,0.09685,1.32454c0.05965,0.43735,0.10351,0.87358,0.15346,1.31399
		c0.04968,0.43846,0.31968,0.85416,0.35937,1.29568c0.03997,0.43956-0.00637,0.88747,0.02332,1.32981
		c0.02996,0.44013-0.05328,0.88608-0.0333,1.32898c0.01997,0.44095,0.21867,0.87581,0.22894,1.31926
		c0.00999,0.44124-0.21228,0.88469-0.21228,1.32842c0,0.4454,0.09768,0.88747,0.08768,1.33037
		c-0.00999,0.44484,0.18453,0.89663,0.16457,1.33926c-0.01999,0.44484-0.26363,0.8758-0.29388,1.31788
		c-0.03025,0.44401-0.09325,0.88247-0.13348,1.3237c-0.04023,0.4429,0.08548,0.90134,0.03524,1.34175
		c-0.05051,0.44179-0.35493,0.84972-0.41543,1.28873c-0.0605,0.44069-0.11932,0.87637-0.18953,1.31427
		c-0.07077,0.4393-0.11655,0.87776-0.19704,1.31372c-0.08047,0.43735,0.08631,0.92188-0.00415,1.35563
		c-0.09075,0.43568-0.33718,0.8364-0.43736,1.26848c-0.101,0.43319-0.23975,0.85445-0.34994,1.28374
		c-0.11099,0.43069,0.0236,0.9277-0.09685,1.35452c-0.12045,0.42791-0.58248,0.75482-0.71263,1.17884
		c-0.13071,0.42487-0.18261,0.8711-0.32246,1.29179c-0.14043,0.42209-0.25225,0.85112-0.40182,1.26849
		c-0.14986,0.41875-0.23145,0.86165-0.39074,1.27569c-0.15928,0.41487-0.49063,0.75899-0.65935,1.16943
		c-0.16873,0.41098-0.03776,0.94907-0.21564,1.35533c-0.17844,0.4071-0.36185,0.8156-0.54919,1.2177
		c-0.18731,0.40295-0.54945,0.72347-0.74593,1.12113c-0.19675,0.3985-0.51394,0.73289-0.71958,1.12613
		c-0.20562,0.39378-0.11765,0.94546-0.33216,1.33424c-0.21479,0.38879-0.52032,0.72957-0.74371,1.11281
		c-0.22368,0.38407-0.39435,0.80227-0.62634,1.18051c-0.23255,0.37907-0.51949,0.72623-0.76009,1.09921
		c-0.24087,0.37325-0.5564,0.69876-0.80505,1.0659c-0.24947,0.36769-0.57915,0.67795-0.83669,1.03981
		c-0.25752,0.36188-0.51477,0.72152-0.78007,1.07729c-0.26585,0.35576-0.40321,0.81005-0.67656,1.1597
		c-0.27363,0.34966-0.74316,0.54197-1.02427,0.88525c-0.2814,0.34328-0.56668,0.67906-0.85555,1.01596
		c-0.28916,0.33688-0.38326,0.84445-0.68018,1.17468c-0.29665,0.33024-0.69682,0.56695-1.00097,0.89024
		c-0.30413,0.32358-0.68433,0.57111-0.99568,0.88775c-0.31136,0.31664-0.46455,0.72069-0.78285,1.03011
		c0.348,0.43735,0.62828,0.88274,0.97572,1.32176c0.24726-0.23921,0.36992-0.61051,0.61468-0.85445
		c0.31775-0.31746,0.62495-0.63854,0.93436-0.96211c0.31081-0.3244,0.82974-0.45206,1.13223-0.78257
		c0.30303-0.33106,0.59858-0.67184,0.89356-1.00846c0.2961-0.33772,0.50701-0.74899,0.79505-1.09226
		c0.28833-0.34411,0.62329-0.6502,0.90302-0.99986c0.28083-0.35021,0.51699-0.73622,0.78896-1.092
		c0.27278-0.35659,0.48869-0.75454,0.75259-1.11641c0.26474-0.36269,0.71458-0.59414,0.97044-0.96211
		c0.25697-0.36825,0.4959-0.7526,0.74345-1.12612c0.2478-0.37436,0.26695-0.89635,0.50616-1.2757
		c0.23949-0.37963,0.40017-0.80311,0.63078-1.18773c0.23061-0.38491,0.57666-0.69876,0.79839-1.08838
		c0.222-0.3899,0.4637-0.76731,0.67683-1.16193c0.21313-0.3949,0.406-0.79922,0.60969-1.19855
		c0.20452-0.39933,0.62439-0.69376,0.81892-1.09753c0.19536-0.40405,0.15789-0.91827,0.34354-1.32648
		c0.18565-0.4085,0.56279-0.73345,0.73901-1.14583c0.17649-0.4121,0.16845-0.90246,0.3355-1.31872
		c0.16679-0.41626,0.23228-0.86999,0.38962-1.28986c0.15735-0.41986,0.5145-0.76702,0.66215-1.1905
		c0.1479-0.42347,0.33411-0.8364,0.47231-1.26321c0.13819-0.42625,0.09075-0.91133,0.21924-1.34148
		c0.12847-0.42958,0.19536-0.87442,0.31413-1.30733c0.1185-0.43236,0.26337-0.85528,0.37243-1.29041
		c0.1085-0.43485,0.22422-0.86638,0.32329-1.30429c0.0988-0.43707,0.44734-0.82197,0.53642-1.26182
		c0.08907-0.43902,0.12405-0.89274,0.20342-1.33453c0.07908-0.44124-0.03776-0.91633,0.03162-1.3595
		c0.06937-0.4429,0.37935-0.85278,0.43875-1.29763c0.0591-0.444-0.02249-0.90855,0.02692-1.35451
		c0.04912-0.4454,0.05855-0.89579,0.09768-1.34286c0.03968-0.44595,0.15152-0.88885,0.18121-1.33675
		c0.0294-0.44706-0.15264-0.90578-0.13293-1.35452c0.01943-0.44761,0.10684-0.89134,0.11682-1.34091
		c0.00972-0.44761-0.05661-0.89523-0.05661-1.34452c0-0.44928,0.12654-0.89829,0.11684-1.3459
		c-0.00972-0.44901-0.09324-0.89468-0.11295-1.34202c-0.0197-0.44873,0.10269-0.90523,0.07298-1.35229
		c-0.0294-0.44789-0.07104-0.89662-0.11016-1.34285c-0.03969-0.44734-0.1876-0.88414-0.23699-1.32926
		c-0.04939-0.4465-0.25642-0.87082-0.31554-1.31483c-0.05909-0.44511,0.07272-0.91605,0.0039-1.35867
		c-0.06937-0.44345-0.17373-0.88136-0.25281-1.32204c-0.07938-0.44207,0.00388-0.91633-0.0852-1.35562
		c-0.08908-0.43985-0.15485-0.88858-0.25391-1.32593c-0.0988-0.43763-0.29362-0.85583-0.40239-1.29069
		c-0.10879-0.43541-0.44068-0.81198-0.55889-1.24433c-0.11878-0.43264-0.21203-0.87027-0.34052-1.29957
		c-0.12847-0.43013-0.14597-0.89357-0.28416-1.3201c-0.13847-0.4268-0.15706-0.89607-0.30469-1.31955
		c-0.14792-0.42347-0.38213-0.81865-0.53948-1.23851c-0.15762-0.42014-0.45012-0.78784-0.61691-1.2041
		c-0.16706-0.41626-0.15372-0.908-0.33024-1.32065c-0.17593-0.41209-0.47009-0.7748-0.65574-1.18301
		s-0.50616-0.75204-0.70098-1.15582c-0.1948-0.40377-0.33801-0.83113-0.54197-1.23074
		c-0.20396-0.39905-0.23117-0.89246-0.4443-1.28708c-0.21313-0.39433-0.55306-0.72068-0.77506-1.11058
		c-0.22173-0.38935-0.3233-0.85139-0.55418-1.2363c-0.23061-0.38434-0.55253-0.71541-0.79201-1.09476
		c-0.23921-0.37907-0.39434-0.81532-0.64243-1.1894c-0.24753-0.37353-0.5528-0.71153-0.80922-1.08006
		c-0.25613-0.3677-0.74871-0.56584-1.01345-0.92826c-0.2639-0.36214-0.44178-0.78507-0.71429-1.14194
		c-0.27224-0.35577-0.62107-0.64853-0.90163-0.99903c-0.27972-0.34966-0.54391-0.70792-0.83252-1.0523
		c-0.28777-0.34328-0.41321-0.82503-0.70902-1.16303c-0.29528-0.33689-0.77287-0.50895-1.07617-0.84002
		c-0.30276-0.33023-0.53865-0.71985-0.84917-1.04453C103.00967,18.33764,102.65778,18.05791,102.34005,17.74016"/>
	<path class="st0" d="M33.89594,61.69237c-0.20424-0.4454-0.43597-0.86832-0.69571-1.27071
		c-0.2592-0.40072-0.51895-0.76258-0.77842-1.08366c-0.14819-0.18621-0.32468-0.35854-0.52837-0.51949
		c-0.20396-0.16096-0.41459-0.31219-0.6305-0.45456c-0.21673-0.14236-0.42958-0.28139-0.63993-0.4171
		c-0.21035-0.1357-0.40183-0.27806-0.57472-0.4268l-0.25975-0.12932l-0.70459-0.09268
		c-0.14819-0.02525-0.26613-0.05856-0.35243-0.10241c-0.08658-0.04301-0.1665-0.08381-0.24088-0.12016
		c-0.07409-0.03664-0.15485-0.07077-0.24115-0.10185c-0.08658-0.0308-0.20397-0.04718-0.35243-0.04718
		c-0.29638,0-0.62106,0.01304-0.97322,0.03746c-0.35244,0.02525-0.70431,0.05856-1.05675,0.1024
		c-0.35244,0.04329-0.69571,0.10184-1.02927,0.17567c-0.33384,0.0741-0.63716,0.16678-0.90856,0.27806
		c-0.17316,0.08714-0.33106,0.19509-0.47287,0.32441c-0.14181,0.13015-0.2875,0.25697-0.43569,0.38046
		c-0.14847,0.12349-0.30609,0.22922-0.47315,0.31552c-0.16678,0.08603-0.36798,0.13015-0.60246,0.13015
		c-0.08658,0-0.16068-0.03746-0.22228-0.11155c-0.06244-0.07465-0.11156-0.16096-0.14846-0.26003
		c-0.03691-0.09852-0.06494-0.19759-0.08325-0.29694c-0.01887-0.09824-0.02803-0.17871-0.02803-0.2406
		c0-0.24698,0.01859-0.5317,0.0555-0.85278c0.02497-0.17316,0.04357-0.31552,0.05578-0.4268
		c0.01221-0.11128,0.01831-0.23504,0.01831-0.37075v-2.92936l0.18565-1.70555c0-0.21146,0.00944-0.39267,0.02775-0.54808
		c0.01859-0.1543,0.03691-0.30554,0.05578-0.45373c0.01859-0.14874,0.03691-0.30303,0.0555-0.46315
		c0.01887-0.16124,0.02775-0.36437,0.02775-0.61246c0-0.28445,0.05272-0.5811,0.15762-0.89024
		c0.1049-0.30886,0.1579-0.64215,0.1579-1.00152c0-0.12265-0.053-0.26835-0.1579-0.43569
		c-0.1049-0.16595-0.23172-0.32357-0.37991-0.47232c-0.14846-0.14902-0.29971-0.27501-0.45456-0.3799
		c-0.15457-0.10545-0.28083-0.15762-0.38018-0.15762l-2.09518,0.25863l-0.797,0.61302
		c-0.25975,0.09907-0.48258,0.20063-0.66796,0.30553c-0.18538,0.1049-0.36131,0.22617-0.52838,0.36104
		c-0.16678,0.13653-0.33384,0.30081-0.50034,0.49202c-0.16706,0.19176-0.36187,0.42347-0.58416,0.69487l0.03691,0.42625
		c0.32163,0.12432,0.59969,0.22256,0.83446,0.29749c0.23449,0.07382,0.43874,0.21618,0.6119,0.42597
		c0.13626,0.11128,0.27806,0.2481,0.42625,0.40821c0.14846,0.16095,0.27195,0.33967,0.3713,0.53809
		c0.111,0.18538,0.15401,0.39517,0.12959,0.63022c-0.0247,0.23477-0.00638,0.45123,0.05578,0.64936l0.07381,0.83419
		l-0.12959,2.72539l0.22228,1.27959l-0.25974,2.0763c0.11156,0.19842,0.17649,0.37741,0.19481,0.53754
		c0.01859,0.16095,0.02803,0.34632,0.02803,0.55695c0,0.39573-0.03691,0.77869-0.11128,1.14943
		c-0.07409,0.37075-0.11156,0.73595-0.11156,1.09449l0.09324,0.4812v0.51949c0,0.396-0.01582,0.82837-0.04635,1.29846
		c-0.0308,0.46982-0.0469,0.94547-0.0469,1.42749c0,0.06189,0.02165,0.11406,0.06521,0.15791
		c0.04357,0.04301,0.09296,0.09186,0.14819,0.14791c0.05578,0.05606,0.1049,0.11461,0.14847,0.17649
		c0.04357,0.06161,0.06493,0.1357,0.06493,0.22173c0,0.42042-0.04329,0.85944-0.12987,1.31733
		c-0.08658,0.45677-0.18537,0.88358-0.29693,1.27958l0.09324,0.57388v2.67072c0,0.24726,0.08325,0.46011,0.25003,0.6391
		c0.16706,0.17955,0.33079,0.30081,0.49146,0.3627l1.00125-0.16761c0.17316,0.03746,0.38046,0.06827,0.62134,0.09268
		c0.24088,0.02525,0.47565,0.04967,0.70459,0.07493c0.22839,0.02442,0.44512,0.04301,0.64881,0.05523
		c0.20397,0.0122,0.35521,0.02441,0.45456,0.03663l1.57596,0.18537l4.65406-0.38879l0.25975-0.22339
		c0.17316-0.13599,0.31775-0.23421,0.43568-0.2961c0.11739-0.06161,0.22839-0.11461,0.33384-0.15762
		c0.1049-0.04301,0.21895-0.09268,0.34272-0.14875c0.12377-0.05521,0.28445-0.13819,0.48231-0.24976
		c0.51922-0.34632,0.96433-0.66158,1.33508-0.94546c0.37075-0.28445,0.69238-0.58693,0.96434-0.90884
		c0.2714-0.32135,0.50672-0.68627,0.70431-1.09448c0.19786-0.4071,0.38296-0.91466,0.5564-1.52018
		c0.19759-0.59358,0.31802-1.18717,0.36159-1.78048c0.04329-0.59276,0.11406-1.18634,0.21341-1.77966
		c0-0.45705-0.06216-0.92354-0.18592-1.40002C34.26364,62.59815,34.09991,62.13721,33.89594,61.69237 M30.67881,66.96804
		c0.03691,0.11712,0.05522,0.24949,0.05522,0.39851c-0.0247,0.12349-0.05522,0.26252-0.09213,0.41682
		c-0.03719,0.1554-0.07159,0.30665-0.10212,0.45456c-0.03081,0.14874-0.05578,0.27805-0.07437,0.38934
		c-0.01831,0.11156-0.02775,0.17899-0.02775,0.20425l-0.51894,0.61217c-0.18593,0.24725-0.32191,0.55363-0.40821,0.91716
		c-0.08658,0.36492-0.18537,0.67073-0.29665,0.91772c-0.12377,0.22284-0.29027,0.396-0.50062,0.51949
		c-0.21035,0.12376-0.43568,0.21645-0.67656,0.27805c-0.24171,0.06188-0.48869,0.09935-0.74205,0.11156
		c-0.25309,0.01221-0.49146,0.01859-0.71375,0.01859h-1.65033c-0.07409-0.07409-0.16706-0.15124-0.27806-0.23171
		c-0.11101-0.08048-0.22561-0.16095-0.34328-0.24143c-0.11739-0.08047-0.22867-0.16012-0.33357-0.24142
		c-0.10489-0.07965-0.18815-0.16346-0.25059-0.24976c-0.13597-0.16013-0.24698-0.29332-0.33356-0.39906
		c-0.08658-0.10406-0.16678-0.19675-0.24115-0.27723c-0.07409-0.08047-0.16068-0.16428-0.25974-0.25114
		c-0.09879-0.08631-0.22229-0.18538-0.37075-0.29694c-0.06189-0.02442-0.1296-0.13237-0.20369-0.32441
		c-0.07437-0.19175-0.15152-0.42348-0.23172-0.69515c-0.08076-0.2714-0.15763-0.56805-0.23199-0.89024
		c-0.0741-0.32108-0.13903-0.62994-0.19481-0.92661c-0.0555-0.29692-0.10184-0.56277-0.13903-0.79755
		c-0.03691-0.23421-0.0555-0.40183-0.0555-0.50007l0.12959-1.79852l-0.12959-1.55764c0-0.02525-0.01221-0.06494-0.03719-0.12099
		c-0.0247-0.0555-0.03691-0.11406-0.03691-0.17566c0-0.2481,0.06799-0.42043,0.20369-0.5195v-1.53905
		c0-0.09935,0.03413-0.1887,0.1024-0.26918c0.06743-0.08048,0.14791-0.14458,0.24115-0.19426
		c0.09269-0.04967,0.17872-0.0863,0.25919-0.11155c0.08047-0.02497,0.13265-0.03719,0.1579-0.03719
		c0.14819-0.04884,0.2714-0.12294,0.37047-0.22201c0.09879-0.09935,0.23477-0.14874,0.40821-0.14874h0.92687l1.6692-0.33329
		c0.25919,0,0.49757,0.06744,0.71375,0.20313c0.2159,0.13654,0.4293,0.28139,0.63993,0.43569
		c0.20952,0.1554,0.41376,0.29998,0.61162,0.43597c0.19759,0.13654,0.40766,0.20396,0.6305,0.20396l1.59483,1.57652
		c0.08603,0.08603,0.16956,0.23172,0.25003,0.43569c0.08048,0.20396,0.15485,0.44234,0.22256,0.71375
		c0.06771,0.27168,0.12654,0.55612,0.17622,0.85278c0.04911,0.29693,0.09546,0.58471,0.13903,0.86277
		c0.04329,0.27806,0.07437,0.52504,0.09269,0.74149c0.01859,0.21618,0.02747,0.37381,0.02747,0.47232l-0.20369,0.79756
		C30.62303,66.72411,30.6419,66.85011,30.67881,66.96804"/>
	<path class="st0" d="M96.13572,34.55423c-1.11391,0.57555-1.03094,1.83016-1.55044,2.71457
		c-1.81129,3.07894-4.92769,4.96348-7.56261,7.17494c-0.40322-2.21312,0.93493-2.6846,1.16358-4.26584
		c-2.92686,1.0154-1.37587,6.50976-4.46037,7.36808c-0.55029-1.45691-1.18606-2.89328-1.35672-4.6535
		c-0.39767-4.10405,1.45829-8.54139,1.1633-11.44078c-1.21714,2.31219-2.46176,5.19021-2.71457,8.7262
		c-0.2431,3.39752,0.75038,6.44454,0.5811,9.3073c-0.10156,1.71444-1.91785,6.56331-4.46009,6.01052
		c-0.85028-0.1837-2.43234-2.66906-2.52032-3.87732c-0.18538-2.56,2.46843-5.78934,2.71458-9.88951
		c0.16595-2.75592,0.27001-4.70623,0.1937-6.98123c-1.97002,3.5593-1.44331,10.58216-3.6839,13.76767
		c-1.5976,2.27056-3.72665,0.11683-6.39902-1.35701c-3.0659-1.69196-4.55695-3.52433-6.20506-6.01052
		c0.4504,5.96168,8.34157,7.84872,11.6342,11.82761c1.89509,2.28943,3.03593,6.35934,0.38795,8.33825
		c-0.59692-0.51783-0.69127-2.07575-1.74551-1.55126c1.69084,3.04147-0.90911,5.39196-3.53988,6.64074
		c-0.21229,0.00805-0.42459,0.00888-0.63744,0c-0.4959-0.02358-0.99597,0.00306-1.49992,0.07965
		c-0.22867,0.04551-0.43845,0.07214-0.62939,0.08047c-0.19092,0.00722-0.38546,0.01055-0.58388,0.01055h-0.43484
		c-0.1529,0-0.29749-0.01471-0.43486-0.04551c-0.30581,0.13737-0.55362,0.27473-0.744,0.41209
		c-0.19092,0.13737-0.2861,0.32857-0.2861,0.57249c0,0.22923,0.11794,0.41626,0.35437,0.56084
		c0.23671,0.14485,0.50728,0.25613,0.8131,0.33162c0.3047,0.07659,0.60246,0.13432,0.89273,0.17178
		c0.29027,0.03801,0.49674,0.06577,0.61857,0.08047c-0.01554,0.07632-0.02359,0.1715-0.02359,0.28611v0.35521
		c0,0.39684,0.00805,0.62606,0.02359,0.68628l0.32024,0.54946c0,0.16844-0.04218,0.31303-0.12598,0.43513
		c-0.08353,0.12267-0.17954,0.2406-0.28611,0.35521c-0.10656,0.11378-0.20979,0.22839-0.30886,0.343
		c-0.10018,0.11461-0.16429,0.24809-0.19426,0.40099v0.70876c0,0.03108-0.04634,0.11156-0.13763,0.2406
		c-0.09187,0.13015-0.14542,0.21062-0.16096,0.24087c-0.02997,0.03082-0.06493,0.07632-0.10239,0.13737
		c-0.03886,0.06078-0.05772,0.10656-0.05772,0.13737c-0.04551,0.35104-0.13654,0.70957-0.27473,1.07561
		c-0.13737,0.36659-0.24393,0.72513-0.32025,1.07645c-0.13736,0.35105-0.27501,0.66325-0.41237,0.93826
		c-0.13736,0.27473-0.2714,0.54613-0.40072,0.81282c-0.12932,0.26669-0.24393,0.54974-0.34299,0.84722
		c-0.09935,0.29749-0.17983,0.64465-0.24088,1.04149c-0.07631,0.07632-0.14874,0.17149-0.21701,0.2861
		c-0.06827,0.11462-0.14875,0.22534-0.2406,0.3319c-0.09102,0.10712-0.19009,0.19509-0.29665,0.26336
		c-0.1074,0.0691-0.22201,0.10323-0.34412,0.10323c-0.27473,0-0.51199-0.10323-0.70958-0.30886
		c-0.1987-0.20675-0.37047-0.47009-0.51561-0.79034c-0.14486-0.32024-0.27057-0.67573-0.37741-1.06423
		c-0.10655-0.38934-0.19841-0.7748-0.27501-1.15609c-0.07631-0.3813-0.14874-0.73263-0.21729-1.0537
		c-0.06882-0.3194-0.14125-0.56417-0.21756-0.73261c-0.01499-0.10629-0.06494-0.26669-0.14875-0.48036
		c-0.08381-0.21397-0.12571-0.37408-0.12571-0.48065l-0.22867-0.82419c-0.09212-0.32053-0.18703-0.65298-0.28666-0.99597
		c-0.09963-0.34299-0.1912-0.68295-0.27445-1.01872c-0.08408-0.33579-0.14875-0.65215-0.19482-0.94963
		c-0.04578-0.29832-0.06854-0.55363-0.06854-0.76731c0-0.33522,0.06049-0.59192,0.18288-0.76675
		c0.12238-0.17567,0.27834-0.31303,0.46954-0.41238c0.19065-0.0999,0.39267-0.16817,0.60691-0.20564
		c0.21341-0.03801,0.41543-0.09185,0.60635-0.16012c0.19065-0.0691,0.34689-0.16428,0.46927-0.28694
		c0.12237-0.1221,0.18343-0.31219,0.18343-0.57166c0-0.35105-0.11489-0.57639-0.34355-0.67628
		c-0.22895-0.09852-0.49591-0.14791-0.80117-0.14791c-0.12237,0-0.24032,0.00722-0.35493,0.02276
		c-0.11433,0.01443-0.21756,0.04551-0.30914,0.09102c-0.19814,0.15291-0.43486,0.22922-0.70959,0.22922
		c-0.90079,0-1.78936-0.06826-2.66711-0.20563c-0.80006-0.12516-1.59566-0.2789-2.38851-0.45538
		c-2.67766-1.07895-4.96098-2.70736-4.3452-6.37961c-0.94436,0.02526-0.78146,1.15776-1.35728,1.55126
		c-6.47202-10.23667,13.08333-11.59034,12.21584-19.97244c-1.22685,2.39516-2.77922,4.18702-4.65379,5.42915
		c-1.67975,1.11308-4.71983,2.65212-6.98096,3.49047c-1.75967-2.26667-2.50394-6.09931-2.32662-9.50183
		c0.09574-1.84375,1.1758-4.14956-0.38795-5.42914c-0.54141,4.63908-1.26487,9.11943,0,13.18546
		c0.38046,1.22269,1.25849,2.29248,1.16359,3.10308c-0.17122,1.45774-2.0061,2.55362-3.29651,3.10168
		c-3.31509-1.95614-2.62826-6.78864-2.71457-9.88867c1.48854-3.43803,1.03122-11.56732-2.3269-13.18602
		c1.56847,3.98361,2.78589,11.91364-0.38823,15.31866c-2.449-1.36423-1.00319-6.62271-3.8776-7.56262
		c0.66185,1.3423,1.27736,2.73011,1.16302,4.8486c-1.67475-1.55765-3.89508-2.47869-5.62311-3.87872
		c-1.98223-1.60565-2.94795-3.77797-4.65407-5.62367c1.00985,5.59037,5.85567,7.40749,9.11416,10.66514
		c3.01594,3.01622,4.58691,7.11305,7.17438,10.47143c0.75371,0.97821,1.86512,1.60816,2.52087,2.71486
		c2.26363,3.82182,3.86456,8.05019,8.33825,9.88923c0.62799,0.9463,1.09172,2.05688,2.0122,2.71152
		c0.07187,0.14458,0.14569,0.28944,0.22228,0.43319c0.14514,0.27556,0.27834,0.56499,0.40072,0.87081
		c0.01499,0.03081,0.03414,0.1024,0.05744,0.21701c0.02276,0.11462,0.04912,0.23755,0.07992,0.36659
		c0.03053,0.12932,0.05745,0.25947,0.0802,0.38879c0.02303,0.13015,0.03442,0.21784,0.03442,0.26335
		c0.1221,0.27473,0.22478,0.46178,0.30914,0.56112c0.08353,0.09907,0.15651,0.18759,0.21729,0.26335
		c0.06078,0.07632,0.1221,0.17567,0.18288,0.29749c0.06104,0.1221,0.12987,0.35215,0.20618,0.6871
		c0.01499,0.07631,0.03775,0.19425,0.0691,0.35438c0.03025,0.16012,0.04551,0.25613,0.04551,0.28611
		c0.1679,0.27473,0.3394,0.50728,0.51506,0.69848c0.17538,0.19093,0.26336,0.44624,0.26336,0.76675l-0.16013,0.43485
		c0,0.21368,0.03746,0.44318,0.11434,0.68683c0.07631,0.24393,0.16373,0.48869,0.26336,0.73262
		c0.09935,0.24476,0.19786,0.48869,0.29749,0.73344c0.09935,0.24393,0.16401,0.46566,0.19481,0.66325
		c0.07631,0.32052,0.1371,0.62606,0.18288,0.9155c0.04607,0.29027,0.09935,0.57333,0.16012,0.84722
		c0.06105,0.27474,0.13377,0.54642,0.21812,0.8131c0.08353,0.26669,0.19426,0.5453,0.33162,0.83474
		c0.03052,0.01637,0.08381,0.12293,0.16012,0.32135c0.07631,0.19814,0.11461,0.32829,0.11461,0.3885
		c0.09158,0.22923,0.19065,0.54641,0.29749,0.95047c0.10656,0.40488,0.24032,0.80144,0.401,1.19022
		c0.16012,0.39017,0.35077,0.72512,0.57195,1.00819c0.22117,0.28194,0.49229,0.42263,0.81281,0.42263
		c0.25948,0,0.45816-0.12931,0.59526-0.3885c0.13736-0.2603,0.24781-0.55779,0.33189-0.89273
		c0.08409-0.33662,0.14902-0.66436,0.19481-0.9846c0.04551-0.32108,0.09935-0.54225,0.16012-0.66408
		c0.01471-0.07659,0.07993-0.22117,0.19454-0.43513c0.11461-0.21368,0.23255-0.44235,0.35521-0.68683
		c0.13654-0.24393,0.25197-0.45373,0.34299-0.62939c0.09103-0.17567,0.14486-0.29444,0.16012-0.35521
		c0.13765-0.44234,0.24809-0.89275,0.3319-1.35063c0.08381-0.4576,0.22506-0.89246,0.42348-1.30483
		c0.01554-0.01443,0.04218-0.08769,0.08048-0.21784c0.03746-0.12932,0.07964-0.26974,0.12598-0.42348
		c0.04551-0.15208,0.09103-0.29749,0.13737-0.43513c0.04551-0.13737,0.07576-0.22839,0.09102-0.2739
		c0.10656-0.27473,0.20674-0.51533,0.29776-0.72095c0.09186-0.20676,0.19093-0.401,0.29749-0.58472
		c0.10656-0.18288,0.22921-0.36908,0.36658-0.56001c0.13737-0.19121,0.30581-0.41626,0.50423-0.67573l-0.02359-0.27473
		c0-0.35132,0.06827-0.72457,0.20647-1.12112c0.13737-0.39767,0.29027-0.73345,0.4576-1.00819
		c0.06105-0.16762,0.15291-0.3774,0.27501-0.62938c0.12183-0.25198,0.25114-0.50729,0.38935-0.76648
		c0.12182-0.2295,0.22422-0.43902,0.30886-0.62938c0.0838-0.19093,0.14069-0.32441,0.17149-0.40072
		c0.06106-0.13737,0.11073-0.30082,0.14875-0.49285c0.03829-0.19093,0.07243-0.38935,0.10268-0.59498
		c0.03163-0.20564,0.0616-0.40822,0.09185-0.60664c0.0308-0.19841,0.07632-0.36658,0.13737-0.50394
		c0.06077-0.18288,0.19508-0.34633,0.40072-0.49202c0.20647-0.14542,0.44234-0.28278,0.70904-0.4121
		c0.21284-0.10239,0.43402-0.20896,0.66019-0.31635c0.50729-0.11711,0.94546-0.28694,1.14471-0.64937
		c0.02192-0.0172,0.04218-0.03497,0.0641-0.05218c3.79935-2.50478,6.44066-6.16675,8.28302-10.62767
		c2.96655-1.98528,4.25917-5.23016,6.39903-7.75603C88.60557,45.06231,94.62913,41.37868,96.13572,34.55423"/>
	<path class="st0" d="M102.29991,73.75414c0.27251,0,0.53503-0.01221,0.78867-0.03662
		c0.25282-0.02498,0.47565-0.08048,0.66741-0.16734c0.19119-0.08631,0.34633-0.2098,0.46343-0.37076
		c0.11711-0.16095,0.17566-0.3763,0.17566-0.64881c0-0.18537-0.03081-0.34966-0.09185-0.49174
		c-0.06189-0.14153-0.19204-0.2123-0.39017-0.2123c-0.1604,0-0.35549,0.01776-0.58388,0.05522
		c-0.22839,0.03664-0.47231,0.05522-0.73179,0.05522c-0.38351,0-0.69264-0.08935-0.92825-0.2689
		c-0.23421-0.17899-0.41626-0.40822-0.54641-0.68627c-0.12932-0.27807-0.21618-0.59276-0.25947-0.94547
		c-0.04301-0.35215-0.06493-0.69515-0.06493-1.02843V67.6354l0.38934-2.50311l-0.22256-3.56013l0.22256-1.96585l-0.22256-1.27958
		l0.12988-1.57569c0-0.24726,0.053-0.47898,0.1579-0.69516c0.1049-0.21701,0.15679-0.45456,0.15679-0.71458
		c0-0.222-0.03663-0.46343-0.11128-0.7229c-0.07326-0.2592-0.11072-0.53087-0.11072-0.81532l0.48147-1.70583v-1.66976
		c0-0.46926,0.05939-0.94157,0.17705-1.41806c0.11712-0.4762,0.17567-0.98515,0.17567-1.52989
		c0-0.17233-0.03664-0.35216-0.11127-0.53754c-0.0741-0.18538-0.17567-0.35188-0.30499-0.5009
		c-0.13071-0.14875-0.28195-0.2714-0.45512-0.37075c-0.17316-0.09824-0.36436-0.14875-0.57499-0.14875h-2.15124
		c-0.12265,0.03747-0.29915,0.08131-0.52754,0.13016c-0.22922,0.04967-0.47564,0.11128-0.74232,0.18538
		c-0.26502,0.07492-0.52837,0.15762-0.78783,0.25031c-0.2592,0.09269-0.48203,0.20175-0.6674,0.32441
		c-0.08631,0.04968-0.16679,0.12378-0.24144,0.22284c-0.0741,0.09935-0.11128,0.20396-0.11128,0.31469
		c0,0.09907,0.03081,0.19509,0.09325,0.28777c0.06189,0.09269,0.11794,0.18204,0.16678,0.26918
		c0.14791,0.09907,0.26919,0.18537,0.36104,0.25919c0.09352,0.07493,0.17316,0.14236,0.24143,0.20425
		c0.06827,0.06243,0.1332,0.12348,0.19508,0.18537c0.06188,0.06244,0.1357,0.12432,0.22202,0.18621
		c0.14874,0.12349,0.30331,0.23088,0.46426,0.32357c0.16013,0.09269,0.30249,0.18538,0.42598,0.27779
		c0.12349,0.09269,0.22589,0.19842,0.30553,0.31553c0.08048,0.11795,0.12044,0.26918,0.12044,0.45456
		c0,0.14875-0.0147,0.28056-0.04552,0.39906c-0.0308,0.11711-0.04634,0.24393-0.04634,0.37991
		c0,0.22173,0.01554,0.4479,0.04634,0.67712c0.03082,0.22839,0.04552,0.4293,0.04552,0.60163
		c0,0.68044-0.04552,1.37227-0.13904,2.07714c-0.09185,0.70486-0.23726,1.3781-0.43568,2.02108
		c-0.03664,0.08714-0.13903,0.16679-0.30498,0.24171c-0.16734,0.07299-0.35605,0.1382-0.56584,0.19426
		c-0.21062,0.05606-0.4146,0.09823-0.61217,0.12931c-0.19759,0.03081-0.34634,0.04718-0.44485,0.04718
		c-0.11128,0-0.23172-0.04412-0.36159-0.13015c-0.13015-0.0863-0.27557-0.13015-0.43597-0.13015
		c-0.3713,0-0.73817,0.05356-1.1031,0.15762c-0.36519,0.10572-0.72595,0.2073-1.08449,0.30581
		c-0.59442,0.13654-1.12862,0.26918-1.60427,0.39906c-0.4762,0.12931-0.91466,0.29693-1.31621,0.5009
		c-0.40239,0.20341-0.77869,0.46677-1.13084,0.78784c-0.35299,0.32108-0.7082,0.7415-1.06673,1.26099l-0.48203,0.57472
		c-0.12349,0.09934-0.2381,0.16677-0.34299,0.20424c-0.10573,0.03635-0.18871,0.12987-0.2506,0.27806
		c-0.0616,0.12349-0.10795,0.28111-0.13903,0.47232c-0.0308,0.19259-0.05521,0.39267-0.07381,0.6033
		c-0.01887,0.20952-0.03996,0.41376-0.06521,0.61135c-0.02442,0.19759-0.05523,0.35938-0.09269,0.48203l-0.22256,0.59359
		l-0.03663,0.27806l0.03663,0.70486c0,0.14791-0.01554,0.28111-0.04634,0.39822c-0.03108,0.11794-0.10184,0.24393-0.21313,0.38046
		c0,0.48148,0.00639,0.86832,0.0186,1.15942c0.0122,0.28944,0.02774,0.51228,0.04634,0.66656
		c0.01804,0.15457,0.03413,0.2628,0.04634,0.32525c0.01221,0.06188,0.01804,0.10406,0.01804,0.12931l0.72346,1.37227
		c0.06188,0.2098,0.12044,0.42376,0.17651,0.63993c0.05521,0.21619,0.13902,0.41071,0.25031,0.58388
		c0.48231,0.6674,1.05702,1.24213,1.72443,1.72415c0.6674,0.4823,1.48299,0.79117,2.44733,0.9277
		c0.26002,0.1479,0.54058,0.26502,0.84389,0.35216c0.30304,0.08603,0.565,0.12932,0.78757,0.12932h0.22283
		c0.34634,0,0.68628-0.03996,1.01956-0.12045c0.33412-0.07964,0.66102-0.17649,0.98293-0.28694
		c0.32191-0.11156,0.64299-0.22839,0.96434-0.35299c0.32108-0.12348,0.64881-0.23476,0.98293-0.33328h0.48203
		c0.16096,0.48203,0.38296,0.86499,0.6674,1.14888c0.28389,0.28528,0.70486,0.42681,1.26099,0.42681
		c0.16096,0,0.32774-0.04552,0.5009-0.13904c0.17317-0.09269,0.3455-0.13903,0.51867-0.13903l1.09421-0.16679L102.29991,73.75414z
		 M97.98857,69.01682c-0.05523,0.11712-0.11712,0.22923-0.18539,0.33329c-0.06743,0.10573-0.1357,0.19842-0.20313,0.27806
		c-0.06827,0.08131-0.11461,0.13348-0.13902,0.15846c-0.06189,0.14819-0.09352,0.28389-0.09352,0.40737
		c0,0.04968,0.00638,0.09019,0.01942,0.12045c0.01221,0.03163,0.01777,0.07714,0.01777,0.13902v0.14875
		c0,0.03663-0.01193,0.08602-0.03719,0.14874c-0.03664,0.17316-0.18454,0.32108-0.44402,0.44485
		c-0.26003,0.12349-0.54807,0.22506-0.86249,0.30553c-0.31552,0.08048-0.62134,0.13903-0.918,0.1765
		c-0.29749,0.03663-0.49423,0.05523-0.59357,0.05523c-0.45762,0-0.87138-0.09908-1.24213-0.29666
		c-0.37158-0.19759-0.74232-0.38963-1.11224-0.575c-0.61857-0.2714-1.13834-0.6144-1.55765-1.02927
		c-0.42042-0.41376-0.76093-0.89024-1.02039-1.4275c-0.25947-0.53753-0.44485-1.12778-0.55612-1.77077
		c-0.11128-0.64215-0.16651-1.33481-0.16651-2.07631c0-0.30914,0.04301-0.68295,0.12988-1.12196
		c0.0863-0.43818,0.20646-0.89273,0.36103-1.36255c0.15458-0.4701,0.34966-0.93354,0.58443-1.39114
		c0.23505-0.45705,0.5034-0.86832,0.80672-1.23324c0.30248-0.36437,0.63328-0.65797,0.99181-0.88053
		c0.35854-0.22284,0.74788-0.33412,1.16747-0.33412h1.89176h0.28722c0.10545,0,0.21368-0.01221,0.32496-0.03663
		c0.12377,0.02442,0.29999,0.11461,0.52782,0.26891c0.22923,0.15457,0.45761,0.33106,0.68683,0.52782
		c0.22867,0.19841,0.42931,0.39267,0.60246,0.58442c0.17317,0.19203,0.27168,0.34328,0.29694,0.45456l0.29665,1.37144
		l0.12933,0.35299v3.98611c-0.06106,0.07492-0.1049,0.17066-0.12933,0.28777c-0.02525,0.11794-0.03746,0.23172-0.03746,0.34327
		l0.03746,0.64854c0,0.30915,0.03663,0.60025,0.11128,0.87165c0.0741,0.27168,0.11073,0.53753,0.11073,0.79756
		C98.07237,68.7915,98.04462,68.89972,97.98857,69.01682"/>
	<path class="st0" d="M28.74966,106.5144c-0.06078-0.63688-0.61745-0.35854-1.12585-0.74705
		c-0.50839-0.38906-0.51366-0.38213-1.02234-0.77119c-0.50839-0.38879-0.51394-0.38157-1.02233-0.77036
		c-0.5095-0.38934-0.43347-0.48897-0.94269-0.87859c-0.5095-0.38934-0.45178-0.91633-1.08394-0.80838
		c-0.67989,0.116-0.80144,0.49646-0.75287,1.1844c0.04246,0.60719,0.36659,0.43763,0.85,0.80754
		c0.48314,0.36964,0.90883,0.07604,0.97988,0.68045c0.07326,0.62328-0.37685,0.47148-0.75787,0.96989
		c-0.3813,0.49868-0.3455,0.52615-0.72679,1.02455c-0.38185,0.49951-0.35132,0.52282-0.73317,1.02234
		c-0.38213,0.49951-0.87998,0.34355-0.73512,0.95545c0.17705,0.74788,0.38934,1.02067,1.15748,0.99597
		c0.62716-0.02026,0.32302-0.58887,0.70431-1.08755s0.42237-0.46732,0.80366-0.96545
		c0.38213-0.49951,0.38768-0.49563,0.76953-0.99458c0.38185-0.49951,0.14597-0.9388,0.76758-1.03233
		c0.60191-0.09019,0.53587,0.35021,1.01928,0.71986c0.48342,0.36991,0.31941,0.70486,0.92021,0.80283
		C28.57705,107.74653,28.81515,107.20123,28.74966,106.5144"/>
	<path class="st0" d="M26.98483,113.15025c0.18094,0.84778,0.72235,0.79145,1.58373,0.88969
		c0.48564,0.05522,0.32025-0.67462,0.80755-0.63466c0.77313,0.063,0.70126,0.3294,1.38309,0.69959
		c0.68155,0.36992,0.81115,0.20674,1.28514,0.82114c0.29887,0.3874-0.35716,0.60968-0.04774,0.98931
		c0.53836,0.66019,0.77952,1.08061,1.57486,0.7748c0.66213-0.25475,0.02997-0.72762,0.06605-1.4361
		c0.03635-0.7082,0.03385-0.70847,0.07021-1.41667c0.03635-0.70875-0.02387-0.71208,0.01249-1.42111
		c0.03635-0.7093,0.08436-0.70708,0.12072-1.4164c0.03635-0.7093,0.48425-0.82086,0.17649-1.46107
		c-0.25198-0.52421-0.53725-0.60663-1.11446-0.5367c-0.70903,0.08603-0.52865,0.51033-1.11336,0.92104
		c-0.58471,0.41043-0.65603,0.30886-1.24101,0.71957c-0.58526,0.41071-0.51061,0.51727-1.09587,0.92799
		c-0.58554,0.41154-0.53254,0.55807-1.20271,0.8092C27.46824,112.67294,26.83525,112.45038,26.98483,113.15025 M32.16283,113.42442
		c-0.92161,0.13155-1.15832-0.01054-1.55654-0.85194c-0.24088-0.50839,0.37824-0.30693,0.82309-0.65103
		c0.44484-0.34411,0.41126-0.99597,0.9055-0.72735c0.49868,0.27057-0.27168,0.62466-0.16401,1.18163
		C32.28798,112.98264,32.7245,113.34423,32.16283,113.42442"/>
	<path class="st0" d="M44.31052,113.63065c-0.71875-0.2714-0.73706,0.27834-1.42334,0.62356
		c-0.68627,0.34522-0.62439,1.09365-1.35312,0.85083c-0.73373-0.24393-0.25475-0.79866-0.60413-1.48882
		c-0.3491-0.69016-0.04412-1.06563-0.78618-1.28458c-0.79506-0.23449-1.2621-0.13264-1.55293,0.64381
		c-0.27084,0.72235,0.44956,0.71181,0.79617,1.40113c0.34689,0.68906,0.8783,0.64132,0.63133,1.37228
		c-0.24921,0.73761-0.67129,0.32384-1.36811,0.67046c-0.69711,0.34689-1.09033,0.00444-1.31566,0.74954
		c-0.23949,0.79367-0.07798,1.11835,0.69709,1.41279c0.72457,0.27473,0.64825-0.34023,1.34535-0.67905
		c0.69682-0.33912,0.70987-0.93631,1.44359-0.68655c0.72707,0.24781,0.39017,0.71902,0.72596,1.40973
		c0.33606,0.69072-0.15901,1.26155,0.57694,1.48189c0.79422,0.23755,1.16608-0.04079,1.45996-0.81615
		c0.27446-0.7229-0.23421-0.70708-0.57416-1.40196c-0.33994-0.6946-0.89745-0.59636-0.64992-1.32898
		c0.24809-0.73428,0.62078-0.34133,1.31316-0.68961c0.69238-0.34855,0.87193-0.13598,1.3373-0.75593
		C45.54348,114.40378,45.08615,113.92342,44.31052,113.63065"/>
	<path class="st0" d="M47.95008,121.25369c0.49147,0.59137,0.84833,0.69932,1.5188,0.32246
		c0.55778-0.3133,0.16566-0.6502,0.28166-1.2793c0.116-0.62966,0.04607-0.64271,0.16179-1.27209
		c0.11628-0.63021,0.10185-0.63299,0.21785-1.26293c0.116-0.63021,0.15679-0.62272,0.27279-1.25349
		c0.116-0.63022,0.57777-0.73983,0.1679-1.23268c-0.49147-0.59109-0.77592-0.64021-1.44582-0.26308
		c-0.55778,0.31386-0.1973,0.57138-0.3133,1.20105c-0.11572,0.6291-0.05217,0.64104-0.16817,1.27042
		c-0.116,0.63023-0.20952,0.61274-0.32552,1.24296c-0.11628,0.63022,0.03386,0.65686-0.21785,1.24656
		C47.83047,120.60433,47.5402,120.76112,47.95008,121.25369"/>
	<path class="st0" d="M57.63031,116.03163c-0.7576-0.0358-0.75898-0.00582-1.51685-0.04162
		c-0.75787-0.0358-0.91105-0.61552-1.51353-0.1543c-0.50811,0.38906-0.04967,0.64021-0.07992,1.2793
		c-0.02997,0.6391-0.0591,0.63771-0.08935,1.27708c-0.02997,0.63993,0.02525,0.64243-0.005,1.28208
		c-0.03025,0.64021-0.11156,0.63632-0.1418,1.27681c-0.03025,0.64021-0.43985,0.83308,0.02969,1.26904
		c0.55584,0.51644,0.74482,0.03719,1.50297,0.07299c0.75788,0.0358,0.76009-0.01305,1.51824,0.02303
		c0.43458,0.02054,0.83474-0.02636,1.21964-0.16539c0.39906-0.1443,0.82087-0.27695,1.12918-0.5589
		c0.30804-0.28194,0.4712-0.69377,0.65103-1.07811c0.17344-0.37075,0.25475-0.76231,0.27501-1.19689
		c0.02082-0.43902,0.05439-0.86415-0.07381-1.25183c-0.13459-0.4071-0.37158-0.76591-0.65408-1.077
		c-0.27695-0.30526-0.59719-0.60275-1.00013-0.77674C58.51806,116.05383,58.08431,116.053,57.63031,116.03163 M59.19657,119.25015
		c-0.02165,0.45678-0.19759,0.89857-0.4701,1.1783c-0.29749,0.30526-0.75871,0.42265-1.17525,0.41821
		c-0.82198-0.03247-0.97099,0.3996-1.6309-0.09158c-0.44485-0.33134,0.06354-0.53448,0.0899-1.08838
		c0.02609-0.55473-0.02913-0.55751-0.00305-1.11224c0.02636-0.55474-0.32358-0.69793,0.106-1.04981
		c0.63632-0.52171,1.18246-0.02081,1.59594-0.00139c0.42126,0.01942,0.81642,0.24004,1.08228,0.57167
		C59.03478,118.37768,59.21793,118.79394,59.19657,119.25015"/>
	<path class="st0" d="M66.24221,120.82822c-0.50256-0.27223-0.46649-0.77924-0.0827-1.20271
		c0.43541-0.4798,0.63161-0.13432,1.27541-0.20646c0.64382-0.07243,0.85195,0.39045,1.24213-0.12682
		c0.41237-0.54697,0.48092-0.94907-0.04218-1.39087c-0.49507-0.4182-0.69959,0.16484-1.34341,0.23699
		c-0.64354,0.07188-0.79477,0.5428-1.32509,0.17123c-0.46816-0.32829-0.47093-0.7515-0.04191-1.12862
		c0.61662-0.54086,0.76093-0.18204,1.57569-0.27362c0.81531-0.0913,1.03593,0.41321,1.60093-0.18121
		c0.47509-0.50007,0.35161-0.83391-0.15678-1.30012c-0.44347-0.40655-0.56501,0.00111-1.16276,0.06799
		c-0.59858,0.06744-0.6033,0.02581-1.20161,0.09297c-0.59885,0.06715-0.59997,0.05855-1.1991,0.12571
		c-0.59886,0.06743-0.76675-0.22506-1.12862,0.25697c-0.38407,0.51173-0.05412,0.59776,0.01749,1.23352
		c0.07103,0.63605,0.17566,0.62439,0.24697,1.26044c0.07159,0.63605,0.0963,0.63354,0.1679,1.26987
		c0.07159,0.63716,0.00416,0.64465,0.07575,1.28153c0.0716,0.63687-0.37962,0.90218,0.10851,1.3176
		c0.45817,0.3899,0.63466-0.12071,1.23241-0.18787c0.59859-0.06715,0.59498-0.10073,1.19328-0.16788
		c0.59885-0.06744,0.60607-0.00555,1.20493-0.07271c0.59887-0.06715,0.90717,0.38046,1.25239-0.11322
		c0.3924-0.56168,0.31193-0.94824-0.25919-1.32593c-0.68461-0.45206-0.79562-0.12959-1.5768,0.12127
		C67.07417,120.85709,66.96346,121.21896,66.24221,120.82822"/>
	<path class="st0" d="M78.41457,115.68356c-0.11933-0.42847-0.24088-0.83419-0.50951-1.135
		c-0.28916-0.32385-0.66795-0.52615-1.06341-0.65242c-0.39211-0.12516-0.80727-0.15374-1.23573-0.03469
		c-0.31553,0.08825-0.92299,0.23477-1.5052,0.39711c-0.76703,0.21368-1.2782-0.32135-1.48216,0.42986
		c-0.16706,0.61745,0.10822,0.62578,0.27972,1.24212s0.13071,0.62772,0.30248,1.24406
		c0.1715,0.6169,0.33328,0.57194,0.50507,1.18884c0.17178,0.61773,0.11655,0.63299,0.28833,1.25044
		c0.17205,0.61717-0.2875,1.04482,0.29915,1.30261c0.71735,0.31525,1.13889,0.19176,1.51768-0.49424
		c0.38601-0.69876-0.66602-0.77119-0.39878-1.52295c0.18787-0.52949,0.57278-0.57306,1.09866-0.37464
		c0.89468,0.33745,0.46399,1.20466,1.3978,1.41306c0.94158,0.21008,1.26793,0.14181,1.8382-0.63688
		c0.35299-0.48203-0.48619-0.26696-0.9549-0.63743c-0.4687-0.37048-0.51284-0.33967-0.8328-0.84418
		c0.29111-0.27917,0.46317-0.58887,0.56445-0.97765C78.61604,116.48555,78.53335,116.10953,78.41457,115.68356 M76.29831,117.26479
		c-0.62662,0.17483-0.75899,0.67157-1.26516,0.2628c-0.7093-0.57278-0.83807-0.89912-0.52393-1.75523
		c0.22534-0.61523,0.65325-0.17899,1.28486-0.35465c0.50312-0.13986,1.02039,0.16956,1.16026,0.67296
		C77.09669,116.60266,76.80087,117.12492,76.29831,117.26479"/>
	<path class="st0" d="M86.24004,109.5236c-0.3863,0.55668,0.10018,0.71458,0.08825,1.39226
		c-0.01221,0.67767-0.14903,0.67517-0.16096,1.35312c-0.01221,0.67767,0.68655,1.10863,0.07965,1.41057
		c-0.60024,0.29859-0.52032-0.51256-1.05342-0.91911c-0.53391-0.4071-0.57888-0.34799-1.11279-0.7551
		c-0.53421-0.40682-0.47427-0.48397-1.0043-0.89606c-0.01193-0.00916-0.09851-0.04523-0.11211-0.03913
		c-0.70181,0.32468-1.10753,0.0247-1.42776,0.72845c-0.26502,0.58249,0.3441,0.6169,0.62383,1.19245
		c0.27972,0.57555,0.25891,0.58553,0.53864,1.16136c0.28,0.57583,0.24586,0.5922,0.52587,1.16858
		c0.28028,0.57638,0.30248,0.56584,0.58248,1.14222c0.28001,0.57638,0.00333,0.8944,0.62606,1.0462
		c0.75204,0.18343,1.21742,0.17094,1.45358-0.56639c0.2467-0.77147-0.35216-0.79589-0.70626-1.52435
		c-0.35464-0.72874-1.00901-0.6355-0.78146-1.41335c0.1665-0.56889,0.48647,0.32496,0.94353,0.70293
		c0.45789,0.37824,0.42374,0.41959,0.88136,0.79811c0.45816,0.37824,0.33356,0.61551,0.90161,0.78895
		c0.3208,0.09824,0.57166,0.02776,0.69266-0.285c0.21701-0.55945-0.13264-0.63077-0.14513-1.23074
		c-0.01248-0.60025,0.00111-0.60052-0.01138-1.20078c-0.01249-0.60024-0.59498-1.32954-0.0358-1.11058
		c0.76147,0.29832,0.47204,0.60663,0.82946,1.34174c0.35743,0.73567-0.15429,1.28764,0.60969,1.57874
		c0.71847,0.27362,1.06563-0.053,1.38198-0.75343c0.26336-0.58305-0.30859-0.53559-0.58831-1.11115
		c-0.28001-0.57555-0.18371-0.62216-0.46371-1.19772c-0.28001-0.57638-0.39572-0.51977-0.67545-1.09615
		c-0.28028-0.57638-0.27306-0.57971-0.55334-1.15665c-0.28001-0.57638,0.02997-0.81365-0.48592-1.19383
		C87.02677,108.3972,86.67822,108.89227,86.24004,109.5236"/>
	<path class="st0" d="M96.17556,102.95232c-0.9266-0.23504-1.13278,0.31081-1.62452,1.13057
		c-0.37298,0.62189,0.1085,0.77008,0.10378,1.4952c-0.005,0.72513,0.54947,1.0401-0.03469,1.46968
		c-0.58554,0.43069-0.73678-0.14069-1.4325-0.35077c-0.69514-0.21007-0.64687-0.63327-1.35284-0.46178
		c-0.92853,0.2259-1.5951,0.12627-1.64505,1.08089c-0.04025,0.76259,0.84223,0.17178,1.57013,0.40238
		c0.72845,0.23089,0.70959,0.29138,1.43804,0.52227c0.72845,0.23061,0.85361-0.00861,1.48355,0.42403
		c0.55667,0.38185,0.45206,0.5256,0.85222,1.06924c0.39989,0.54363,0.04496,1.14416,0.71958,1.13112
		c0.95573-0.01888,1.31288-0.18565,1.61508-1.09254c0.21341-0.64021-0.43207-0.60025-0.83196-1.14388
		c-0.40017-0.54364-0.73095-0.38407-0.93076-1.02872c-0.22561-0.72845,0.10046-0.79006,0.09574-1.55265
		c-0.00472-0.76342-0.26447-0.7995-0.07826-1.53989C96.3404,103.64359,96.91539,103.14019,96.17556,102.95232"/>
</g>
</svg>
