<svg id="Layer_1" data-name="Layer 1" xmlns="http://www.w3.org/2000/svg" viewBox="0 0 428.894 144"><defs><style>.cls-1{fill:#fff;}.cls-2{fill:#ee352a;}</style></defs><title>Artboard 1</title><rect class="cls-1" width="428.894" height="144"/><path class="cls-2" d="M74.5494,100.7676c-2.9276,0-4.7693,2.2317-4.7693,5.24,0,2.9883,1.8417,5.24,4.7693,5.24,2.8858,0,4.7692-2.2517,4.7692-5.24C79.3186,102.9993,77.4352,100.7676,74.5494,100.7676Z"/><path class="cls-2" d="M179.7154,103.3676a2.3614,2.3614,0,0,0-2.5383-2.395h-3.4384v4.79h3.4384A2.3614,2.3614,0,0,0,179.7154,103.3676Z"/><path class="cls-2" d="M276.4014,100.7676c-2.9267,0-4.7684,2.2317-4.7684,5.24,0,2.9883,1.8417,5.24,4.7684,5.24,2.8867,0,4.77-2.2517,4.77-5.24C281.1714,102.9993,279.2881,100.7676,276.4014,100.7676Z"/><path class="cls-2" d="M242.876,100.9726h-3.4383v4.79h3.4383a2.398,2.398,0,1,0,0-4.79Z"/><path class="cls-2" d="M314.27,103.3676a2.3615,2.3615,0,0,0-2.5385-2.395h-3.4383v4.79h3.4383A2.3615,2.3615,0,0,0,314.27,103.3676Z"/><path class="cls-2" d="M396.84,99.1125a.9787.9787,0,1,0,.9786.9787A.98.98,0,0,0,396.84,99.1125Zm.3053,1.5579-.2761-.4464h-.2171v.4464h-.1737V99.512h.488a.3452.3452,0,0,1,.3716.356.3233.3233,0,0,1-.2883.3388l.297.4637Z"/><path class="cls-2" d="M397.159,99.8679a.2.2,0,0,0-.2153-.2032h-.2918v.4064h.2918A.2.2,0,0,0,397.159,99.8679Z"/><polygon class="cls-2" points="124.755 49.986 138.21 49.986 131.483 33.709 124.755 49.986"/><path class="cls-2" d="M141.8484,100.7676c-2.9275,0-4.7692,2.2317-4.7692,5.24,0,2.9883,1.8417,5.24,4.7692,5.24,2.8859,0,4.7684-2.2517,4.7684-5.24C146.6167,102.9993,144.7343,100.7676,141.8484,100.7676Z"/><path class="cls-2" d="M0,0V144H428.894V0ZM44.7266,112.8243H42.679V101.9759l-4.4209,10.8485h-.86l-4.4209-10.8485v10.8485H30.9306V99.1708h2.9267l3.9708,9.8051,3.9709-9.8051h2.9275Zm29.8228.245a7.0642,7.0642,0,1,1,6.8776-7.0617A6.7141,6.7141,0,0,1,74.5494,113.0694Zm38.91-12.0968h-4.2159v11.8518h-2.0475V100.9726H102.96V99.1708h10.5Zm4.9715-35.6879-.9009,2.2537-5.5486,13.424H109.206l8.2212-19.7269h2.6779Zm23.4171,47.7847a7.0642,7.0642,0,1,1,6.8767-7.0617A6.7141,6.7141,0,0,1,141.8484,113.0694Zm9.1353-32.107-5.5517-13.424-.8978-2.2537L142.86,61.2355h2.6779l8.2212,19.7269Zm28.5684,31.862-3.255-5.26h-2.5584v5.26H171.692V99.1708h5.7517a4.0685,4.0685,0,0,1,4.38,4.1967,3.8088,3.8088,0,0,1-3.3984,3.9917l3.5,5.4651Zm29.82.245a6.9909,6.9909,0,0,1-5.3834-2.1684l1.1667-1.5766a5.7578,5.7578,0,0,0,4.2984,1.9233c2.2117,0,2.9884-1.125,2.9884-2.1083,0-1.4317-1.555-1.8417-3.2951-2.2917-2.19-.5733-4.7283-1.2083-4.7283-3.9917,0-2.2517,1.985-3.8884,4.8317-3.8884a6.6916,6.6916,0,0,1,4.9734,1.9033l-1.1866,1.515a5.3231,5.3231,0,0,0-3.9517-1.5967c-1.515,0-2.5583.7766-2.5583,1.9233,0,1.2284,1.4733,1.6167,3.1734,2.0467,2.23.5934,4.83,1.29,4.83,4.1967C214.5307,111.0843,213.0574,113.0694,209.3724,113.0694ZM215.9846,81.86c-10.1262,0-17.1771-3.1453-22.2-7.9457l6.825-9.68a22.5952,22.5952,0,0,0,15.9769,6.6021c4.4248,0,7.1243-1.7223,7.1243-4.1225,0-2.6262-3.75-3.4506-8.55-4.4279-1.543-.3084-3.2014-.638-4.878-1.05h26.0726a15.1343,15.1343,0,0,1,.4835,3.9026C236.8382,75.1848,229.4118,81.86,215.9846,81.86Zm27.1581,25.7041h-3.705v5.26H237.391V99.1708h5.7517a4.2,4.2,0,1,1,0,8.3934Zm33.2586,5.5051a7.0642,7.0642,0,1,1,6.8784-7.0617A6.7134,6.7134,0,0,1,276.4014,113.0694Zm37.7055-.245-3.2551-5.26h-2.5583v5.26h-2.0468V99.1708h5.7518a4.0685,4.0685,0,0,1,4.38,4.1967,3.8088,3.8088,0,0,1-3.3984,3.9917l3.5,5.4651ZM298.987,81.86c-10.126,0-17.177-3.1453-22.2-7.9457l6.825-9.68a22.5951,22.5951,0,0,0,15.977,6.6021c4.4249,0,7.1243-1.7223,7.1243-4.1225,0-2.6262-3.75-3.4506-8.55-4.4279-1.5431-.3084-3.2014-.638-4.8781-1.05h26.0728a15.1315,15.1315,0,0,1,.4835,3.9026C319.8408,75.1848,312.4141,81.86,298.987,81.86Zm49.7918,19.1124H344.562v11.8518h-2.0466V100.9726H338.277V99.1708h10.5018Zm27.0752,12.0968a6.9908,6.9908,0,0,1-5.3833-2.1684l1.1667-1.5766a5.7575,5.7575,0,0,0,4.2983,1.9233c2.2117,0,2.9884-1.125,2.9884-2.1083,0-1.4317-1.5549-1.8417-3.295-2.2917-2.19-.5733-4.7283-1.2083-4.7283-3.9917,0-2.2517,1.9851-3.8884,4.8317-3.8884a6.6916,6.6916,0,0,1,4.9733,1.9033l-1.1866,1.515a5.3232,5.3232,0,0,0-3.9518-1.5967c-1.515,0-2.5583.7766-2.5583,1.9233,0,1.2284,1.4733,1.6167,3.1733,2.0467,2.23.5934,4.83,1.29,4.83,4.1967C381.0125,111.0843,379.5391,113.0694,375.854,113.0694ZM396.84,101.2148a1.1236,1.1236,0,1,1,1.1236-1.1236A1.1249,1.1249,0,0,1,396.84,101.2148Zm1.1236-68.0306h-16.951V80.9624h-2.4V52.1255H43.8295V80.9624H30.9306V30.9306h36.678V42.1865H43.8295v7.7991h78.286l7.9412-19.0551h2.8521L140.85,49.9856h54.9631a16.1992,16.1992,0,0,1-.4531-3.9026c0-8.3977,7.1242-15.8976,19.95-15.8976,8.0251,0,15.0028,2.4,20.3285,6.9747l-7.051,9.2222A23.5542,23.5542,0,0,0,213.96,41.2094c-3.75,0-5.399,1.5024-5.399,3.5972,0,2.4,3.8232,3.2308,8.6237,4.3546,1.197.25,2.4611.5168,3.7463.8245h57.8845a16.1893,16.1893,0,0,1-.4533-3.9026c0-8.3977,7.1243-15.8976,19.95-15.8976,8.025,0,15.0028,2.4,20.3283,6.9747L311.59,46.3823a23.5549,23.5549,0,0,0-14.6273-5.1729c-3.75,0-5.3989,1.5024-5.3989,3.5972,0,2.4,3.8232,3.2308,8.6235,4.3546,1.1972.25,2.4613.5168,3.7464.8245h74.6787V33.1842H361.7343V30.9306h36.2291Z"/></svg>