<svg id="Layer_1" data-name="Layer 1" xmlns="http://www.w3.org/2000/svg" viewBox="0 0 218.5753 102.1335"><defs><style>.cls-1{fill:#ef4136;}.cls-2{fill:#f1f2f2;}</style></defs><title>adviser-labs</title><polygon class="cls-1" points="0 0 0 102.134 21.223 102.134 21.223 50.058 41.157 69.991 41.157 84.012 55.178 84.012 73.299 102.134 102.134 102.134 0 0"/><path class="cls-2" d="M113.9688,102.133l-.8867-2.6855h-4.2236l-.9126,2.6855h-2.7642l3.729-11.3682h4.0933l3.7285,11.3682Zm-2.9985-8.97-1.3037,3.833h2.5815Z"/><path class="cls-2" d="M125.3629,90.7384a1.3509,1.3509,0,0,1,.938.3525,1.1269,1.1269,0,0,1,.3916.873v8.97a1.0886,1.0886,0,0,1-.3916.86,1.3857,1.3857,0,0,1-.938.3389H117.671V90.7384Zm-1.356,2.4512h-3.6763v6.5449h3.6763Z"/><path class="cls-2" d="M138.9737,90.7384l-3.39,11.3945h-4.12l-3.416-11.3945h2.7383l2.7373,8.918,2.7119-8.918Z"/><path class="cls-2" d="M143.588,102.133h-2.6855V90.7384h2.6855Z"/><path class="cls-2" d="M152.8966,102.133h-6.7012V99.7082H151.54V97.57h-3.9893a1.4012,1.4012,0,0,1-.9512-.3525,1.1108,1.1108,0,0,1-.4043-.873v-4.459a1.0877,1.0877,0,0,1,.4043-.8477,1.4,1.4,0,0,1,.9512-.3516h6.6748v2.4248h-5.3184v2.0078h3.9893a1.3566,1.3566,0,0,1,.9385.3516,1.128,1.128,0,0,1,.3906.874v4.5625a1.1294,1.1294,0,0,1-.3906.874A1.3566,1.3566,0,0,1,152.8966,102.133Z"/><path class="cls-2" d="M158.9981,93.19v2.0859h3.2588V97.674h-3.2588v2.0605h5.918v2.3984h-8.5518V90.7384h8.5518V93.19Z"/><path class="cls-2" d="M174.2247,102.133l-2.6074-3.9111h-1.9287v3.9111H167.003V90.7384h7.7432a1.3862,1.3862,0,0,1,.9648.3525,1.0994,1.0994,0,0,1,.3916.8467v5.0586a1.13,1.13,0,0,1-.3916.874,1.39,1.39,0,0,1-.9648.3516l2.6074,3.9111Zm-4.5361-6.3359h3.7285V93.1632h-3.7285Z"/><path class="cls-2" d="M181.0821,99.7082h5.0059v2.4248H178.37V90.7384h2.7119Z"/><path class="cls-2" d="M195.84,102.133l-.8867-2.6855H190.73l-.9131,2.6855h-2.7637l3.7285-11.3682h4.0938l3.7285,11.3682Zm-2.999-8.97-1.3037,3.833h2.582Z"/><path class="cls-2" d="M207.2081,90.7384a1.3667,1.3667,0,0,1,.9258.3525,1.1108,1.1108,0,0,1,.4043.873v8.97a1.0736,1.0736,0,0,1-.4043.86,1.402,1.402,0,0,1-.9258.3389H199.49V90.7384ZM202.1495,93.19v2.0342h3.7285V93.19Zm3.7285,6.5449V97.674h-3.7285v2.0605Z"/><path class="cls-2" d="M217.2462,102.133H210.545V99.7082H215.89V97.57H211.9a1.4012,1.4012,0,0,1-.9512-.3525,1.1108,1.1108,0,0,1-.4043-.873v-4.459a1.0877,1.0877,0,0,1,.4043-.8477,1.4,1.4,0,0,1,.9512-.3516h6.6748v2.4248h-5.3184v2.0078h3.9893a1.3566,1.3566,0,0,1,.9385.3516,1.128,1.128,0,0,1,.3906.874v4.5625a1.1294,1.1294,0,0,1-.3906.874A1.3566,1.3566,0,0,1,217.2462,102.133Z"/></svg>