<?xml version="1.0" encoding="utf-8"?>
<!-- Generator: Adobe Illustrator 19.2.1, SVG Export Plug-In . SVG Version: 6.00 Build 0)  -->
<svg version="1.1" id="Layer_1" xmlns="http://www.w3.org/2000/svg" xmlns:xlink="http://www.w3.org/1999/xlink" x="0px" y="0px"
	 viewBox="0 0 256.2 211.3" style="enable-background:new 0 0 256.2 211.3;" xml:space="preserve">
<style type="text/css">
	.st0{fill:#231F20;}
	.st1{fill:#BE1E2D;}
	.st2{fill:#262262;}
</style>
<title>afge</title>
<g>
	<path class="st0" d="M79.8,157.7c-1.2-3.2-2.3-9.2,0.5-14.3c2.3-4.2,7.1-7.3,12.1-10.4c-1.7-4.5-3.1-9.1-4.2-13.8
		c-3.9,9.2-5.2,18.3-8.7,17.6c-3.1-0.1-0.2-13.5-2.6-17.4c-1-1.6-4-1.3-6.8,0c-2-0.3-6.6,2.3-4.4,5c-0.9-1.1,2.2-3,4.1-2.3
		c-0.3,1.1-0.1,2.3,0.5,3.3c0.9,1.6,3.7,1.3,4.6,1.8c0.9,0.5,0.1,7.4-1.1,9.2c-2.3-0.8-8-9.2-9.4-10.6c-1.5-1.5-5.5,0.4-4.8,5.1
		c-1.3,1.2-6,4.3-2,8.7c-1.6-1.7,1.3-5.9,2.8-5.9c1.1,1.7,3.3,3.5,4,2.9s6.4-4.6,6,2.9c-2.6,0.6-12.4-0.2-12.9,1.6
		c-0.3,1.7-0.3,3.4,0,5.1c-2.3,0.9-2.3,8.2,1.7,9c-0.9-2.1-0.9-4.6-0.1-6.7c2.4,1.8,4.8,0.9,5.4-0.2c-0.8-1.9,2.8-9.1,8.3-0.2
		c1.2,1.9,1.1,4.8-2.6,7.4c-2,1.4,0.9,4.3,0.9,4.3c0.7,1.6-4.2,4-5.5,3.3c2.5,1.6,5.9,0.9,7.5-1.6c0,0,0,0,0,0
		C75.9,161.6,79.6,160.3,79.8,157.7z"/>
	<path class="st0" d="M115.3,169.3c-1-1-2-2-2.9-3l-0.1-0.1c-0.5-0.5-0.9-1-1.3-1.5l-0.1-0.2c-0.4-0.5-0.9-1-1.3-1.6l0,0
		c-0.9-1.1-1.8-2.2-2.6-3.3l-0.1-0.1c-0.4-0.5-0.8-1.1-1.2-1.6c-1.2-1.7-2.4-3.4-3.5-5.2c-1.8-2.8-3.4-5.7-4.9-8.7
		c-8.1,13.7-18.6,29.3-20.4,37.1c6.7-4.8,27.5-24.1,27.5-24.1c1.6,9.8-8.1,27.5-8.7,36.2c5.8-3.1,14-16.1,20.9-22.6
		c-0.3-0.3-0.6-0.6-0.9-0.9L115.3,169.3z"/>
	<path class="st0" d="M92.9,19c-2-4.4,9.9-11.7,17.1,2.5c-4.7,0.3-9.4,0.3-14.1,0c-0.2,2,8.8,2.4,12.9,4c0.8,1.8,0.5,7.7-2.6,13.8
		h15v1.5h1.5v2.6c7.2-6.6,18.4-7.7,24.7-7.7c0.4,0,0.8,0,1.2,0c-3.6-7.5-10.2-19-11.9-21.1l4.3,0.7C130.6,2,103.1-2.8,102.9,5.1
		c-9.9-1.5-17-0.4-16.2,6.4C86.9,15.1,89.5,18.1,92.9,19z"/>
	<rect x="56.1" y="68" class="st0" width="3.1" height="8.9"/>
	<path class="st0" d="M84,88c0,0,1.5,11.3-8.3,24.9c3.1,0.3,6.9-1.9,10.4-5.6c-1.1-7.8-1.5-15.7-1-23.6v-0.3l0-0.1
		c0-0.1,0-0.6,0-0.6l0-0.4l0-0.3c0-0.3,0-0.4,0-0.4l0.1-1.1l-0.1,0l0.3-2.9c0.4-3.9,1-7.9,1.8-11.7l0.4-2.2l2.2-0.6
		c0.9-0.2,1.7-0.4,2.6-0.6c0-0.9,0-1.7,0-1.7l0-2.3l2.7-1.2v-1.8l-5.7-2.2v-1.3c-9.7-3.5-18.1-13.2-9-35.4C86.4,1.7,70.2-4.8,60.5,4
		c-15.6,14.1-34.4,49.1-52,58.5c14.2,0.6,33.4-16.7,33.4-16.7c0.8,10.8-30.3,43-38.8,48.6c15.3-1.2,33.1-15.3,33.1-15.3
		c-4.8,12.5-18.3,34.8-36.2,49c19.3-4.4,44.4-30.9,44.4-30.9c-5.4,17.3-17.5,30.9-17.5,30.9C36.2,131,63.1,94,63.1,94
		c0.8,8.4-7.8,25.7-13.1,32.5C69.2,117.5,84,88,84,88z M66,63.8h11.6V68h-7.3v6H76v4.2h-5.8v10.3H66V63.8z M59.2,88.4v-7.3h-3.1v7.3
		h-4.2V66.4c0-1.4,1.2-2.6,2.6-2.6c0,0,0,0,0,0h6.3c1.4,0,2.6,1.2,2.6,2.6v1v0v21.1H59.2z"/>
	<path class="st0" d="M135.7,174.1c-0.5,0.5-1,0.9-1.6,1.4l-0.3,0.2c-0.5,0.4-1.1,0.9-1.6,1.3l-0.3,0.2c-0.6,0.5-1.2,0.9-1.7,1.3
		l-2.2,1.6l-2.2-1.6c-0.5-0.4-1.1-0.8-1.7-1.3l-0.3-0.2c-0.5-0.4-1.1-0.9-1.6-1.3l-0.2-0.2c1.4,12.2,4,33.5,5.9,35.7
		c4.4-8.4,7.4-28.5,8.6-38.1c-0.3,0.2-0.5,0.5-0.8,0.7L135.7,174.1z"/>
	<path class="st0" d="M198.5,148.7c0.3-1.7,0.3-3.4,0-5.1c-0.5-1.8-10.3-1-12.9-1.6c-0.4-7.5,5.4-3.5,6-2.9c0.7,0.5,2.9-1.2,4-2.9
		c1.5,0,4.4,4.2,2.8,5.9c4-4.4-0.7-7.5-2-8.7c0.7-4.7-3.4-6.6-4.8-5.1c-1.3,1.3-7.1,9.8-9.4,10.6c-1.2-1.9-2-8.7-1.1-9.2
		s3.7-0.2,4.6-1.8c0.6-1,0.7-2.2,0.5-3.3c1.9-0.7,5,1.3,4.1,2.3c2.3-2.7-2.4-5.3-4.4-5c-2.8-1.3-5.9-1.6-6.8,0
		c-2.4,3.9,0.4,17.3-2.6,17.4c-3.5,0.7-4.8-8.9-9-18.4c-1.2,4.8-2.7,9.6-4.5,14.2c5.2,3.2,10.4,6.4,12.8,10.8
		c2.9,5.1,1.7,11.1,0.5,14.3c0.3,2.5,3.9,3.9,6.6,3.9c1.6,2.5,5,3.2,7.5,1.6c0,0,0,0,0,0c-1.3,0.7-6.2-1.7-5.5-3.3
		c0,0,2.9-2.9,0.9-4.3c-3.8-2.6-3.8-5.5-2.6-7.4c5.6-8.9,9.1-1.7,8.3,0.2c0.6,1.1,3,2,5.4,0.2c0.8,2.2,0.8,4.6-0.1,6.7
		C200.8,156.9,200.8,149.6,198.5,148.7z"/>
	<path class="st0" d="M179.4,183.3c-1.9-7.9-12.8-24.2-21.1-38.1c-2.3,4.4-4.9,8.6-7.8,12.6c-0.4,0.6-0.8,1.1-1.2,1.7l-0.1,0.1
		c-0.8,1.1-1.7,2.2-2.6,3.3l0,0c-0.4,0.5-0.9,1-1.3,1.6l-0.1,0.1c-0.4,0.5-0.9,1-1.4,1.5l-0.1,0.1c-0.9,1-1.9,2.1-2.9,3.1l-0.2,0.2
		c-0.3,0.3-0.7,0.7-1.1,1c4.8,5,15.9,16.2,22.1,20.3c-0.6-8.7-11.4-21.8-9.8-31.6C152,159.1,172.7,178.4,179.4,183.3z"/>
	<path class="st0" d="M256.2,130.5c-17.9-14.3-31.3-36.6-36.2-49c0,0,17.9,14.1,33.2,15.3c-8.4-5.6-39.6-37.8-38.8-48.6
		c0,0,19.2,17.3,33.3,16.7c-17.7-9.4-36.4-44.3-52-58.5C186-2.5,169.8,4,175.8,18.8c10.9,26.5-3.3,35.3-14.7,37V59
		c2.5,1.5,4.8,3.2,6.9,5.3l0.8,0.8l0.2,1.1c0.7,3.7,1.3,7.5,1.7,11.3l0.3,2.9l-0.1,0l0.1,1.1l0,0.3l0.1,0.9l0,0.3l0,0.6
		c0.5,8.6,0,17.2-1.3,25.7c3.6,3.9,7.5,6.2,10.7,5.9c-9.8-13.7-8.3-24.9-8.3-24.9s14.7,29.6,34,38.6c-5.4-6.8-13.9-24.1-13.1-32.5
		c0,0,26.9,37,36.2,34.2c0,0-12.1-13.7-17.5-30.9C211.8,99.5,236.9,126.1,256.2,130.5z M190.2,71.4l-4.3,1V68h-3.1v16.2h3.1v-4.5
		h-2.3l0.8-4.3h3.1l0,0c1.4,0,2.6,1.2,2.6,2.6v7.8c0,1.4-1.2,2.6-2.6,2.6h-6.3c-1.4,0-2.6-1.2-2.6-2.6V66.4c0-1.4,1.2-2.6,2.6-2.6
		c0,0,0,0,0,0h6.3c1.4,0,2.6,1.2,2.6,2.6V71.4z M204.3,68H197v6h5.8v4.2H197v6h7.3v4.3h-11.6V63.8h11.6V68z"/>
	<path class="st1" d="M116.3,129.6c-0.2-2-0.4-4-0.6-5.9c-0.2-2-0.3-4-0.4-5.9c-0.1-1.4-0.1-2.8-0.2-4.2h-4.7
		c0.2,1.5,0.4,3.1,0.6,4.6c0.3,2,0.5,4,0.9,6c0.3,2,0.6,4,1,6c0.3,2,0.7,4,1.1,6c0.4,2,0.8,4,1.2,5.9c0.2,1,0.5,2,0.7,3
		c0.9-0.3,1.8-0.5,2.8-0.8c-0.2-0.9-0.4-1.9-0.5-2.8C117.3,137.5,116.7,133.6,116.3,129.6z"/>
	<path class="st1" d="M125.5,134.8c0-2-0.1-3.9-0.1-5.9c0-2-0.1-3.9-0.1-5.9c0-2,0-3.9,0-5.9c0-1.2,0-2.4,0-3.6h-4.6l0.2,3.7
		l0.4,5.9l0.4,5.9c0.1,2,0.3,3.9,0.5,5.9l0.5,5.9l0.2,2.7c1-0.1,1.9-0.2,2.9-0.2c0-0.9-0.1-1.7-0.1-2.6
		C125.6,138.7,125.5,136.7,125.5,134.8z"/>
	<path class="st1" d="M109.4,137c-0.5-2-1-4-1.5-6c-0.4-2-0.8-4-1.2-6c-0.3-2-0.7-4.1-0.9-6.1c-0.2-1.8-0.4-3.6-0.6-5.3h-4.8
		c0.3,2,0.7,4,1.1,6c0.4,2.1,0.9,4.1,1.4,6.2c0.5,2,1,4.1,1.6,6.1c0.6,2,1.2,4,1.8,6c0.3,1,0.7,2,1,3c0.4,1,0.7,2,1.1,3
		c0.5,1.2,0.9,2.5,1.4,3.7c0.8-0.5,1.7-0.9,2.6-1.3c-0.4-1.1-0.8-2.3-1.2-3.4C110.5,141,109.9,139,109.4,137z"/>
	<path class="st1" d="M143.4,161.2c-0.8,1-1.6,1.9-2.5,2.8C141.7,163.1,142.6,162.2,143.4,161.2z"/>
	<path class="st1" d="M133.9,134.9c0.2-2,0.3-3.9,0.5-5.9l0.4-5.9l0.4-5.9l0.2-3.7h-4.6c0,1.2,0,2.4,0,3.6c0,2,0,3.9,0,5.9
		c0,2,0,3.9-0.1,5.9c0,2-0.1,3.9-0.1,5.9c-0.1,2-0.1,3.9-0.2,5.9c0,0.9-0.1,1.7-0.1,2.6c1,0.1,1.9,0.1,2.9,0.2l0.2-2.7L133.9,134.9z
		"/>
	<path class="st1" d="M88.8,82c0.6,0.2,1.1,0.3,1.7,0.5C89.9,82.3,89.3,82.1,88.8,82z"/>
	<path class="st1" d="M142.3,136.1c0.4-2,0.8-4,1.1-6c0.3-2,0.7-4,1-6c0.3-2,0.6-4,0.9-6c0.2-1.5,0.4-3.1,0.6-4.6h-4.7
		c-0.1,1.4-0.1,2.8-0.2,4.2c-0.1,2-0.3,4-0.4,5.9c-0.2,2-0.4,4-0.6,5.9c-0.5,3.9-1,7.9-1.8,11.8c-0.2,0.9-0.4,1.9-0.5,2.8
		c1,0.2,1.9,0.5,2.8,0.8c0.2-1,0.5-2,0.7-3C141.5,140.1,141.9,138.1,142.3,136.1z"/>
	<path class="st1" d="M165.7,82.4c0.6-0.1,1.1-0.3,1.7-0.5C166.8,82.1,166.2,82.3,165.7,82.4z"/>
	<path class="st1" d="M146.1,157.8c-0.8,1-1.6,2-2.4,3C144.5,159.8,145.3,158.8,146.1,157.8z"/>
	<path class="st1" d="M91.2,82.6c0.3,0.1,0.7,0.2,1,0.2C91.9,82.8,91.6,82.7,91.2,82.6z"/>
	<path class="st1" d="M165.8,111.5c-0.1,0.6-0.2,1.2-0.3,1.8C165.6,112.7,165.7,112.1,165.8,111.5z"/>
	<path class="st1" d="M148.9,140.9c0.3-1,0.7-2,1-3c0.7-2,1.3-4,1.8-6c0.6-2,1.1-4.1,1.6-6.1c0.5-2,0.9-4.1,1.4-6.2
		c0.4-2,0.8-4,1.1-6h-4.8c-0.2,1.8-0.4,3.6-0.6,5.3c-0.3,2-0.6,4.1-0.9,6.1s-0.7,4-1.2,6c-0.4,2-0.9,4-1.5,6c-0.5,2-1.1,4-1.8,5.9
		c-0.4,1.1-0.8,2.3-1.2,3.4c0.9,0.4,1.8,0.8,2.6,1.3c0.5-1.2,1-2.4,1.4-3.7C148.2,142.9,148.5,141.9,148.9,140.9z"/>
	<path class="st1" d="M148.6,154.4c-0.8,1.1-1.5,2.1-2.3,3.2C147,156.5,147.8,155.5,148.6,154.4z"/>
	<path class="st1" d="M150.9,150.9c-0.7,1.1-1.4,2.2-2.2,3.3C149.5,153.1,150.2,152,150.9,150.9z"/>
	<path class="st1" d="M101.5,83.8c-0.3,0-0.7,0-1,0c0.3,0,0.5,0,0.8,0C101.3,83.8,101.4,83.8,101.5,83.8z"/>
	<path class="st1" d="M90.7,113.3c-0.1-0.6-0.2-1.2-0.3-1.7C90.4,112.1,90.6,112.7,90.7,113.3z"/>
	<path class="st1" d="M167.7,92.9c0.2-6.8-0.3-11-0.3-11C167.7,85.6,167.8,89.3,167.7,92.9z"/>
	<path class="st1" d="M93,83c0.4,0.1,0.7,0.1,1.1,0.2C93.7,83.1,93.4,83.1,93,83z"/>
	<path class="st1" d="M161.3,114.2c-0.4,2.1-0.8,4.2-1.2,6.3c-0.5,2.1-1,4.2-1.6,6.2c-0.6,2.1-1.3,4.1-2,6.1c-0.7,2-1.5,4-2.4,6
		c-0.9,2-1.8,3.9-2.8,5.8c-0.8,1.5-1.6,3-2.5,4.4c0.7,0.5,1.5,1,2.1,1.6c7.9-12.6,12.2-25.8,14.4-37.1h-4
		C161.4,113.8,161.4,114,161.3,114.2z"/>
	<path class="st1" d="M88.8,82c0,0-0.5,4.2-0.3,11C88.4,89.3,88.5,85.6,88.8,82z"/>
	<path class="st1" d="M118.3,167.3c-0.9-0.9-1.8-1.8-2.6-2.7C116.6,165.4,117.4,166.4,118.3,167.3z"/>
	<path class="st1" d="M155.7,83.8c-0.3,0-0.7,0-1,0c0.1,0,0.2,0,0.2,0C155.2,83.8,155.4,83.8,155.7,83.8z"/>
	<path class="st1" d="M137.5,167.6c-0.8,0.8-1.6,1.5-2.4,2.3C135.9,169.1,136.7,168.4,137.5,167.6z"/>
	<path class="st1" d="M140.4,164.5c-0.9,0.9-1.7,1.8-2.6,2.7C138.7,166.4,139.6,165.4,140.4,164.5z"/>
	<path class="st1" d="M109.9,157.6c-0.8-1-1.6-2.1-2.3-3.2C108.3,155.5,109.1,156.5,109.9,157.6z"/>
	<path class="st1" d="M107.4,154.2c-0.8-1.1-1.5-2.2-2.2-3.3C105.9,152,106.7,153.1,107.4,154.2z"/>
	<path class="st1" d="M112.5,160.8c-0.8-1-1.6-2-2.4-3C110.8,158.8,111.6,159.8,112.5,160.8z"/>
	<path class="st1" d="M115.3,164c-0.8-0.9-1.7-1.9-2.5-2.8C113.6,162.2,114.4,163.1,115.3,164z"/>
	<path class="st1" d="M163.9,82.8c0.3-0.1,0.7-0.1,1-0.2C164.6,82.7,164.3,82.8,163.9,82.8z"/>
	<path class="st1" d="M121.1,169.9c-0.8-0.7-1.6-1.5-2.4-2.3C119.5,168.4,120.3,169.1,121.1,169.9z"/>
	<path class="st1" d="M104.8,144.7c-1-1.9-1.9-3.9-2.8-5.8c-0.9-2-1.6-4-2.4-6c-0.7-2-1.4-4.1-2-6.1c-0.6-2.1-1.1-4.1-1.6-6.2
		c-0.5-2.1-0.9-4.2-1.2-6.3c0-0.2-0.1-0.4-0.1-0.6h-4c2.2,11.4,6.5,24.5,14.4,37.1c0.7-0.6,1.4-1.1,2.1-1.6
		C106.4,147.7,105.6,146.2,104.8,144.7z"/>
	<polygon class="st1" points="128.1,76.1 128.1,76.1 128.1,76.1 	"/>
	<path class="st1" d="M98.4,83.7c0.5,0,1.1,0.1,1.6,0.1C99.5,83.8,98.9,83.7,98.4,83.7z"/>
	<path class="st1" d="M124.4,172.8c-0.9-0.7-1.8-1.5-2.6-2.3C122.6,171.3,123.5,172,124.4,172.8z"/>
	<path class="st1" d="M120.1,80c0.1,0,0.1,0,0.2-0.1C120.2,80,120.2,80,120.1,80z"/>
	<path class="st1" d="M134.4,170.5c-0.9,0.8-1.7,1.5-2.6,2.3C132.7,172,133.6,171.3,134.4,170.5z"/>
	<path class="st1" d="M116.8,81.2C116.8,81.2,116.9,81.2,116.8,81.2C116.9,81.2,116.8,81.2,116.8,81.2z"/>
	<path class="st1" d="M118.3,80.7c0.1,0,0.2-0.1,0.3-0.1C118.5,80.6,118.4,80.7,118.3,80.7z"/>
	<path class="st1" d="M135.8,79.9c0.1,0,0.2,0.1,0.3,0.1C136,80,135.9,80,135.8,79.9z"/>
	<path class="st1" d="M137.5,80.6c0.1,0.1,0.3,0.1,0.4,0.2C137.8,80.7,137.6,80.6,137.5,80.6z"/>
	<path class="st1" d="M94.7,83.3c1.2,0.2,2.4,0.3,3.5,0.4C97.1,83.6,95.9,83.5,94.7,83.3z"/>
	<path class="st1" d="M156.2,83.8c0.5,0,1.1,0,1.6-0.1C157.2,83.7,156.7,83.8,156.2,83.8z"/>
	<path class="st1" d="M157.9,83.7c1.2-0.1,2.4-0.2,3.5-0.4C160.2,83.5,159,83.6,157.9,83.7z"/>
	<path class="st1" d="M125.2,173.5c0.9,0.8,1.9,1.5,2.9,2.3c1-0.7,1.9-1.5,2.9-2.3c-0.9,0.8-1.9,1.5-2.9,2.3
		C127.1,175,126.1,174.2,125.2,173.5z"/>
	<path class="st1" d="M162.1,83.2c0.4-0.1,0.7-0.1,1.1-0.2C162.8,83.1,162.4,83.1,162.1,83.2z"/>
	<path class="st1" d="M139.2,81.2c0.1,0,0.1,0,0.2,0.1C139.3,81.2,139.3,81.2,139.2,81.2z"/>
	<path class="st2" d="M100.4,113.6h4.8h5.1h4.7h5.7h4.6h5.5h4.6h5.6h4.7h5.1h4.8h5.7h4h0c0-0.1,0-0.1,0-0.2c0.1-0.6,0.2-1.2,0.3-1.8
		c1.1-6.1,1.8-12.4,1.9-18.6c0.1-3.7,0-7.3-0.3-11c-0.6,0.2-1.1,0.3-1.7,0.5c-0.3,0.1-0.5,0.1-0.8,0.2c-0.3,0.1-0.7,0.2-1,0.2
		c-0.3,0.1-0.5,0.1-0.8,0.2c-0.4,0.1-0.7,0.1-1.1,0.2c-0.2,0-0.4,0.1-0.7,0.1c-1.2,0.2-2.4,0.3-3.5,0.4c0,0-0.1,0-0.1,0
		c-0.5,0-1.1,0.1-1.6,0.1c-0.2,0-0.3,0-0.5,0c-0.3,0-0.5,0-0.8,0c-0.1,0-0.2,0-0.2,0c-5.2-0.1-10.4-1-15.3-2.5c-0.1,0-0.1,0-0.2-0.1
		c-0.4-0.1-0.8-0.3-1.3-0.4c-0.1-0.1-0.3-0.1-0.4-0.2c-0.5-0.2-0.9-0.3-1.4-0.5c-0.1,0-0.2-0.1-0.3-0.1c-2.7-1.1-5.2-2.3-7.7-3.8
		c0,0,0,0,0,0c0,0,0,0,0,0h0c-2.5,1.5-5.1,2.8-7.8,3.9c-0.1,0-0.1,0-0.2,0.1c-0.5,0.2-1,0.4-1.5,0.6c-0.1,0-0.2,0.1-0.3,0.1
		c-0.5,0.2-0.9,0.3-1.4,0.5c0,0-0.1,0-0.1,0c-4.9,1.6-10.1,2.5-15.3,2.6c-0.1,0-0.2,0-0.2,0c-0.3,0-0.5,0-0.8,0c-0.2,0-0.3,0-0.5,0
		c-0.5,0-1.1,0-1.6-0.1c0,0-0.1,0-0.1,0c-1.2-0.1-2.4-0.2-3.5-0.4c-0.2,0-0.4-0.1-0.7-0.1c-0.4-0.1-0.7-0.1-1.1-0.2
		c-0.3-0.1-0.5-0.1-0.8-0.2c-0.3-0.1-0.7-0.1-1-0.2c-0.3-0.1-0.5-0.1-0.8-0.2c-0.6-0.1-1.1-0.3-1.7-0.5c0,0,0,0,0,0c0,0,0,0,0,0
		c-0.3,3.7-0.4,7.3-0.3,11c0.1,6.2,0.8,12.5,1.9,18.6c0.1,0.6,0.2,1.2,0.3,1.7c0,0.1,0,0.2,0,0.3h0h4H100.4z M91.4,85.6
		c3.2,0.7,6.5,1.1,9.9,1.1c9.4-0.1,18.6-2.6,26.8-7.2h0c8.2,4.6,17.4,7.1,26.8,7.2c3.3,0,6.6-0.4,9.9-1.1c0.3,8.4-0.3,16.8-1.7,25.1
		h-70C91.6,102.4,91.1,94,91.4,85.6z"/>
	<path class="st2" d="M140.9,164c0.8-0.9,1.7-1.9,2.5-2.8c0.1-0.1,0.2-0.3,0.3-0.4c0.8-1,1.6-2,2.4-3c0-0.1,0.1-0.1,0.1-0.2
		c0.8-1,1.6-2.1,2.3-3.2c0-0.1,0.1-0.1,0.1-0.2c0.8-1.1,1.5-2.2,2.2-3.3c0-0.1,0.1-0.1,0.1-0.2c0,0,0,0,0,0
		c-0.7-0.6-1.4-1.1-2.1-1.6c-0.8-0.5-1.6-1.1-2.5-1.5c-0.8-0.5-1.7-0.9-2.6-1.3c-1.1-0.5-2.3-0.9-3.4-1.3c-0.9-0.3-1.8-0.5-2.8-0.8
		c-1.4-0.3-2.9-0.6-4.4-0.8c-1-0.1-1.9-0.2-2.9-0.2c-0.7,0-1.5-0.1-2.2-0.1c-0.8,0-1.5,0-2.2,0.1c-1,0.1-1.9,0.1-2.9,0.2
		c-1.5,0.2-3,0.4-4.4,0.8c-0.9,0.2-1.9,0.5-2.8,0.8c-1.2,0.4-2.3,0.8-3.4,1.3c-0.9,0.4-1.8,0.8-2.6,1.3c-0.9,0.5-1.7,1-2.5,1.5
		c-0.7,0.5-1.5,1-2.1,1.6c0,0,0,0,0,0c0,0.1,0.1,0.1,0.1,0.2c0.7,1.1,1.4,2.2,2.2,3.3c0,0.1,0.1,0.1,0.1,0.2
		c0.8,1.1,1.5,2.1,2.3,3.2c0,0.1,0.1,0.1,0.1,0.2c0.8,1,1.6,2,2.4,3c0.1,0.1,0.2,0.3,0.3,0.4c0.8,1,1.6,1.9,2.5,2.8
		c0.1,0.2,0.3,0.3,0.4,0.5c0.9,0.9,1.7,1.8,2.6,2.7c0.1,0.1,0.2,0.2,0.4,0.4c0.8,0.8,1.6,1.5,2.4,2.3c0.2,0.2,0.4,0.4,0.7,0.6
		c0.9,0.8,1.7,1.5,2.6,2.3c0.3,0.2,0.6,0.5,0.8,0.7c0.9,0.8,1.9,1.5,2.9,2.3c1-0.7,1.9-1.5,2.9-2.3c0.3-0.2,0.6-0.5,0.8-0.7
		c0.9-0.7,1.8-1.5,2.6-2.3c0.2-0.2,0.4-0.4,0.7-0.6c0.8-0.7,1.6-1.5,2.4-2.3c0.1-0.1,0.2-0.2,0.4-0.4c0.9-0.9,1.8-1.8,2.6-2.7
		C140.6,164.4,140.7,164.2,140.9,164z M128.1,172.1c-4.3-3.5-8.4-7.3-12-11.5c0.3,0,0.4,0,0.4-0.4c0,0,0-0.1,0-0.1
		c0-0.3,0.1-0.3,0.4-0.2c0.2,0.1,0.3,0.2,0.4,0.3c0.4,0.4,1,0.6,1.5,0.7c0.9,0.2,1.9,0.6,2.7,1c0.5,0.2,1.1,0.4,1.6,0.3
		c0.9,0,1.7-0.1,2.6-0.1c0.7-0.1,1.4-0.3,2-0.6c0.4-0.2,0.8-0.4,1.2-0.5c0.6-0.3,1.3-0.4,1.9-0.3c0.5,0,0.9-0.1,1.3-0.4
		c0.5-0.4,1.1-0.5,1.7-0.4c0.8,0.2,1.7,0,2.5-0.4c0.2-0.1,0.5-0.2,0.7-0.3c0.5-0.2,1.1-0.3,1.6-0.2c0.2,0,0.4,0.2,0.5,0.4
		c0,0.1,0.1,0.3,0.1,0.4c0,0.4,0.3,0.7,0.6,0.9C136.3,164.9,132.4,168.7,128.1,172.1z M128.1,146c6.8-0.1,13.4,1.8,19.1,5.4
		c-0.2,0.3-0.4,0.6-0.6,0.9c-0.6,0-1.2,0-1.7,0v0c-1,0-1.9,0-2.9,0c-0.6,0-0.7,0.1-0.8,0.7c-0.1,0.4-0.1,0.8-0.1,1.2
		c0,1.6,0.1,3.3,0.1,4.9c0,0.2,0,0.4,0,0.6c-0.2,0.3-0.5,0.6-0.7,0.8c-0.1,0-0.1-0.1-0.2-0.5c0-0.3,0-0.6,0-0.9c0-1.6,0-3.1,0-4.7
		c0-0.4,0-0.9-0.2-1.3c-0.1-0.3-0.3-0.5-0.6-0.5c-1-0.2-2-0.6-2.9-1c-1.1-0.5-2.2-1.1-3.3-1.6c-0.5-0.2-0.9-0.4-1.5-0.5
		c-0.2,0-0.3,0-0.5-0.1c-0.6-0.2-1.3-0.2-1.8,0.2c-0.4,0.3-0.8,0.5-1.3,0.7c-0.5,0.3-1.1,0.3-1.6,0.1c-0.3-0.1-0.5-0.2-0.8-0.3
		c-0.8-0.2-1.7-0.2-2.5,0.1c-1.1,0.3-2.2,0.7-3.2,1.2c-0.3,0.1-0.6,0.3-0.9,0.4c-0.7,0.4-1.5,0.6-2.4,0.6c-0.1,0-0.3,0-0.4,0
		c-0.2,0-0.4,0.2-0.5,0.4c-0.2,0.4-0.2,0.7-0.3,1.1c0,0.9,0,1.7,0.1,2.6c0.1,0.9,0,1.8-0.1,2.7c0,0.1-0.1,0.2-0.1,0.4
		c-0.1,0-0.1,0-0.2,0c-0.1-0.3-0.2-0.6-0.3-0.9c-0.1-0.9-0.2-1.8-0.1-2.7c0.1-1.1,0.1-2.3,0.1-3.4c0-0.4-0.1-0.5-0.5-0.5
		c-0.9,0-1.7,0-2.6,0c-0.8,0-1.5,0-2.3,0c-0.2-0.3-0.4-0.6-0.6-0.9C114.7,147.8,121.3,145.9,128.1,146z M141.7,156.5
		c0-0.9,0-1.8,0-2.7c0-0.7,0-0.7,0.7-0.7c1.2,0,2.4,0,3.6,0c-1.4,2-2.9,3.9-4.4,5.8C141.6,158.1,141.6,157.3,141.7,156.5
		L141.7,156.5L141.7,156.5z M138.9,157.7c-0.6,0-1.2,0-1.7-0.2c-0.1,0-0.3,0-0.3,0.1c-0.1,0.1-0.1,0.2-0.2,0.3
		c-0.6,1-1.8,1.4-2.9,0.9c-0.7-0.3-1.3-0.9-1.6-1.6c0-0.1,0-0.2,0.1-0.2c0,0,0.1,0,0.1,0c0.6,0.1,1.2,0.1,1.8,0
		c0.3-0.1,0.6-0.2,0.8-0.5c0.1-0.1,0.1-0.2,0.2-0.3c-0.1,0-0.2,0-0.4,0c-0.5,0-1,0.1-1.5,0.1c-0.3,0-0.6-0.1-0.9-0.1
		c-0.2,0-0.4-0.1-0.5-0.3c0.1-0.1,0.3-0.3,0.5-0.4c0.2-0.1,0.5-0.2,0.7-0.3c0.3-0.1,0.5-0.2,0.8-0.3c0.1,0,0.2-0.2,0.2-0.3
		c0,0,0,0,0,0c0-0.2-0.1-0.3-0.3-0.3c-0.1,0-0.3,0-0.4,0.1c-0.6,0.1-1.1,0.3-1.7,0.4c-0.8,0.2-1.6,0-2.2-0.6
		c-0.1-0.1-0.3-0.2-0.4-0.3c-0.5,0-0.9-0.1-1.4-0.1c-0.2,0-0.4,0.1-0.5,0.3c-0.1,0.1-0.2,0.2-0.3,0.4c-0.1,0.2-0.3,0.3-0.5,0.5
		c-0.8,0.4-1.7,0.6-2.6,0.4c-0.1,0-0.1,0-0.1,0c-0.4-0.1-0.7-0.3-0.9-0.7c0.2-0.3,0.6-0.6,1-0.6c0.1,0,0.2,0.1,0.2,0.1
		c0,0,0,0.1,0,0.1c0.1,0.6,0.1,0.6,0.6,0.3c0.2-0.1,0.4-0.2,0.6-0.3c0.1,0,0.2-0.2,0.2-0.3c0,0,0,0,0-0.1c0,0,0,0,0-0.1
		c-0.2-0.3-0.3-0.6-0.3-1c0.3-0.1,0.6-0.3,0.9-0.4c1.1-0.5,2.1-1,3.1-1.7c0.3-0.2,0.5-0.4,0.8-0.5c0.6-0.3,1.3-0.3,1.8,0
		c0.3,0.1,0.5,0.3,0.7,0.4c0.6,0.3,1.2,0.6,1.8,0.9c0.7,0.3,1.4,0.7,2.2,1c0.6,0.3,1.2,0.5,1.8,0.8c0.7,0.1,1.2,0.8,1.2,1.5
		c0,0.1,0,0.1,0,0.2c0,0.1,0,0.3,0,0.4l0,0c0,0.6-0.1,1.3-0.2,1.9C139.3,157.5,139.1,157.6,138.9,157.7
		C138.9,157.7,138.9,157.7,138.9,157.7z M129.2,158c-0.2-0.2-0.4-0.4-0.7-0.4c-0.2,0-0.3,0.1-0.3,0.3c0,0.1,0,0.1,0,0.2
		c0.1,0.2,0.2,0.3,0.4,0.5c0.3,0.3,0.5,0.6,0.6,1c0.1,0.2,0,0.4-0.2,0.5c0,0,0,0,0,0c-0.4,0.3-0.8,0.3-1.2,0.1
		c-0.1-0.1-0.2-0.1-0.4-0.1c-0.4-0.1-0.5-0.1-0.6,0.4c0,0.1,0,0.2-0.1,0.3c-0.1,0.3-0.4,0.5-0.7,0.5c-0.3,0-0.7-0.1-1-0.2
		c-0.3-0.1-0.7-0.2-1-0.2c-0.2,0-0.3,0-0.4,0.2c0,0.1-0.2,0.2-0.3,0.2c-0.4,0-0.8,0-1.2-0.2c-0.5-0.2-0.9-0.4-1.4-0.5
		c-0.6-0.2-1.2-0.4-1.7-0.6c-0.4-0.1-0.8-0.3-1.2-0.5c-0.7-0.3-1.1-0.9-1.3-1.7c-0.1-0.6-0.2-1.2-0.1-1.8c0-0.6,0.1-1.2,0.1-1.8
		c0-0.2,0-0.3,0.1-0.5c0-0.2,0.2-0.4,0.4-0.4c1.2-0.3,2.3-0.8,3.4-1.3c0.7-0.3,1.5-0.6,2.3-0.9c0.6-0.2,1.2-0.3,1.9-0.3
		c0.3,0,0.7,0,1,0.1c0.1,0,0.1,0.1,0.1,0.1c0,0,0,0.1,0,0.1c-0.1,0.2-0.3,0.4-0.5,0.6c-0.4,0.3-0.9,0.7-1.4,1
		c-0.4,0.3-0.9,0.5-1.3,0.8c-0.3,0.2-0.5,0.4-0.7,0.6c-0.2,0.3-0.2,0.7,0,1c0.2,0.2,0.4,0.4,0.7,0.6c1.2,0.7,2.6,0.8,3.9,0.4
		c0.5-0.1,0.9-0.4,1.3-0.7c0.1-0.1,0.2-0.2,0.3-0.3c0.2-0.2,0.5-0.3,0.7-0.1c0,0,0,0,0.1,0.1c0.2,0.1,0.3,0.2,0.4,0.3
		c0.6,0.6,1.3,1.2,1.9,1.9c0.4,0.4,0.7,0.8,0.8,1.3c0.2,0.3,0.1,0.7-0.2,0.9c-0.2,0.1-0.4,0.1-0.6,0.1l0,0c-0.5-0.1-0.9-0.3-1.2-0.8
		C129.6,158.6,129.4,158.3,129.2,158z M113.8,153.4c0.3,0,0.3,0.1,0.4,0.4c0,0.1,0,0.3,0,0.4v0c0,0.6-0.1,1.1-0.1,1.7h0
		c0,0.7,0,1.5,0,2.2c0,0,0,0,0,0.1c-1.2-1.5-2.4-3.1-3.6-4.7c0,0,0.1,0,0.1,0c0.4,0,0.8,0,1.2,0
		C112.4,153.4,113.1,153.4,113.8,153.4z"/>
	<path class="st2" d="M123.5,47.8c-0.1,0.1-0.2,0.2-0.3,0.3v-0.9l-4.1,0v-2.7h-1.5v-1.5h-1.5v-0.6h-0.8v0.6H114v1.5h-8.4v-1.5h-1.5
		v-0.6h-0.8v0.6h-1.5v1.5h-1.8l-1.5,0.5v2.3l-4.1,0L93,47.6v3l5.7,2.2v6.6L96,60.7c0,0,0,2.7,0,4.5c0,0,0,0,0,0.1
		c-1.9,0.4-3.7,0.8-5.2,1.2c-0.8,4.1-1.3,7.9-1.7,11.4c3.9,1.2,8,1.8,12.2,1.7c9.5-0.1,18.7-2.8,26.8-7.7c8.1,4.9,17.4,7.5,26.8,7.7
		c4.1,0,8.2-0.6,12.2-1.7c-0.4-3.4-0.9-7.1-1.6-11c-2.3-2.3-5-4.3-7.9-5.7V50.5c0,0,0-1.3,0-3.1c0.1-4.7-2.8-7.8-7.4-8.1
		C145.7,39.1,130.6,39.1,123.5,47.8z M150.8,40.4c-1,0.2-1.6,1.1-1.5,2.1v17.8l0,0c-6.2-6-21,1.9-21,1.9c-3.9,1.5-8,2.6-12.1,3.3
		c-2.6,0.3-16.2,1.6-19.5,1.9l0,0v-6.2l24.5-10.7c1.1-0.5,2.1-1.2,3-2C124.1,48.5,131.1,38.8,150.8,40.4z"/>
	<path class="st1" d="M129.7,48.2c-0.8,0.3-1.6,0.7-2.4,1c-0.5,0.2-0.8,0.6-0.9,1.2v2.1c0,0.2,0.1,0.4,0.3,0.4
		c-0.2,0.2-0.3,0.5-0.3,0.7V56c0,0.4,0.4,0.6,0.9,0.4c0.8-0.3,1.6-0.5,2.4-0.8c0.5-0.1,0.9-0.6,1-1.1v-2.5c0-0.2-0.2-0.4-0.4-0.5
		c0.2-0.2,0.3-0.5,0.4-0.7v0v-2.2C130.7,48.2,130.2,48,129.7,48.2z M129,54.6c-0.4,0.1-0.8,0.3-1.2,0.4v-1.8
		c0.4-0.1,0.8-0.3,1.2-0.4V54.6z M129,51.5c-0.4,0.1-0.8,0.3-1.2,0.5v-1.7c0.4-0.2,0.8-0.3,1.2-0.5V51.5z"/>
	<path class="st1" d="M137,46.6c0-0.5-0.6-0.7-1.3-0.5c-0.9,0.3-1.9,0.6-2.9,0.9c-0.6,0.2-1,0.6-1.1,1.2v1.6
		c0.6-0.1,1.2-0.2,1.8-0.3v-1.4c0.5-0.1,0.9-0.3,1.4-0.4v1.9c-0.4,0.1-0.9,0.2-1.3,0.4c0,0.5,0,0.9,0,1.4c0.4-0.1,0.9-0.2,1.3-0.3v2
		c-0.5,0.1-0.9,0.2-1.4,0.3v-1.4c-0.6,0.3-1.2,0.5-1.8,0.8v1.6c0,0.4,0.5,0.7,1.1,0.5c1-0.2,1.9-0.4,2.9-0.6c0.6,0,1.1-0.5,1.3-1.1
		c0-0.9,0-1.8,0-2.7c0-0.3-0.2-0.5-0.5-0.6c0.3-0.2,0.4-0.5,0.5-0.8C137,48.2,137,47.4,137,46.6z"/>
	<path class="st1" d="M143.2,44.6C143.2,44.6,143.2,44.6,143.2,44.6c-1.1,0.1-2.3,0.3-3.5,0.5c-0.7,0.1-1.2,0.5-1.4,1.2V53
		c0.2,0.6,0.8,0.9,1.3,0.8c0,0,0,0,0,0c1.2-0.1,2.4-0.1,3.5-0.1c0.7,0.1,1.3-0.3,1.5-0.9c0-2.4,0-4.8,0-7.2
		C144.5,44.8,143.8,44.4,143.2,44.6z M142.2,47.4v4.7c-0.6,0-1.1,0-1.7,0.1v-5.7c0.6-0.1,1.1-0.2,1.7-0.2V47.4z"/>
	<polygon class="st1" points="94.3,93.3 98.2,96.2 96.7,100.9 100.8,98.1 104.8,100.9 103.3,96.2 107.2,93.3 102.3,93.3 100.8,88.6 
		99.2,93.3 	"/>
	<polygon class="st1" points="107.9,100.5 111.9,103.4 110.4,108.1 114.4,105.2 118.4,108.1 116.9,103.4 120.9,100.5 116,100.4 
		114.4,95.7 112.9,100.4 	"/>
	<polygon class="st1" points="124.1,100.9 128.1,98.1 132.1,100.9 130.6,96.2 134.6,93.3 129.6,93.3 128.1,88.6 126.5,93.3 
		121.6,93.3 125.6,96.2 	"/>
	<polygon class="st1" points="139.2,103.4 137.7,108.1 141.7,105.2 145.7,108.1 144.3,103.4 148.2,100.5 143.3,100.4 141.7,95.7 
		140.2,100.4 135.2,100.5 	"/>
	<polygon class="st1" points="148.9,93.3 152.9,96.2 151.4,100.9 155.4,98.1 159.4,100.9 157.9,96.2 161.9,93.3 157,93.3 
		155.4,88.6 153.8,93.3 	"/>
</g>
</svg>
