<?xml version="1.0" encoding="utf-8"?>
<!-- Generator: Adobe Illustrator 19.2.1, SVG Export Plug-In . SVG Version: 6.00 Build 0)  -->
<svg version="1.1" id="Layer_1" xmlns="http://www.w3.org/2000/svg" xmlns:xlink="http://www.w3.org/1999/xlink" x="0px" y="0px"
	 viewBox="0 0 368.5 196.7" style="enable-background:new 0 0 368.5 196.7;" xml:space="preserve">
<style type="text/css">
	.st0{fill:#A19B84;}
	.st1{fill:#423828;}
</style>
<title>aggam-logo-color</title>
<path class="st0" d="M202.3,58.7C202.3,58.7,202.3,58.7,202.3,58.7L202.3,58.7L202.3,58.7z"/>
<path class="st0" d="M367,130.8c-8.2-0.7-15.8-3.5-23.7-5.6c-2.5-0.7-4.8-2.2-7.2-3.3c-4.8-2.2-9.5-4.9-14.5-6.3
	c-3.4-1-6.6-2.9-9.1-5.4c-1.7-1.6-3.5-2.9-5.2-4.4c-0.7,0.8-1.3,1-2,0c-6-1.8-9.3-6.6-12.1-11.7c-3.3-6.1-6.4-12.3-11.8-17
	c0-0.1,0-0.2,0-0.3l4.9,1.8c0.2-0.7,2.6-1,0.3-2.3c-3.7-2.1-8.1-3-11-6.4c-0.3-0.2-0.6-0.3-0.9-0.3c-2.8-1.1-5.4-2.4-8-3.9
	c-1.5-1-3.6-1-5,0.2c-1.2,0.8-2.3,1.8-3.3,2.9c-6.2,7.1-12.2,14.4-19.5,20.4c-1.4,1.2-1.3,2.2-1.5,3.4c-0.6-0.4-1.3-0.9-1.8-1.4
	c-6-7.3-11.1-15.3-15.3-23.8c-0.6-1-1.1-2-1.5-3.1c-0.3-2.3,1.2,0.4,1.6-0.5c-2.9-6.6-5.9-13.3-8.8-19.9c-0.3-0.6-0.6-1.2-1.1-1.6
	c-0.4-0.3-0.9-0.4-1.3-0.2c-0.4,0.3-0.6,0.8-0.6,1.2c0.4,1.3,0.9,2.5,1.4,3.7c0.8,1.9,1.5,3.8,2.3,5.7c-0.2,0-0.5-0.1-0.7-0.3
	c-4.6-6.6-8.7-13.4-11.2-21c-3.2-9.6-5.9-19.4-8.8-29.1c-0.2-0.7-0.5-1.5-0.8-2.2c-0.6,0.6-1.1,1.2-1.5,1.8
	c-4.6,9-9.1,18.1-13.6,27.2c-0.5,1-0.8,2.2-1.3,3.2c-1,2.3-1.7,4.7-3.1,6.7c-5.8,8.3-11.9,16.5-17.7,24.8c-9.1,13-21.1,23-32.5,33.7
	c-1.1,1-1.7,0.5-2.3-0.5c-1-1.6-1.9-3.1-2.9-4.6c-2.5-3.7-5-7.5-7.5-11.2c-0.6-0.8-1.1-1.5-2.4-0.9c-2.6,1.1-4.6,4.1-8,2.6
	c-0.3,0.1-0.6,0.3-0.7,0.6c-2.6,4.5-7.3,6.3-11.6,8.1C69,98.2,53.2,106.9,36.4,113c-6.7,2.4-13.2,5.2-20.2,6.7
	c-5,1.1-10,2.4-14.9,3.7c-0.4,0.2-0.9,0.5-1.2,0.8c0.4,0.2,0.8,0.4,1.2,0.5c1.8-0.2,3.6-0.5,5.4-0.7c0.3,0,0.7,0.1,1,0.2
	c-0.2,0.2-0.4,0.4-0.7,0.5c-0.4,0.3-0.8,0.6-1.3,0.8c-0.6,0.3-1.2,0.5-1.8,0.8c0.6,0.2,1.2,0.3,1.9,0.5c0.7,0.1,1.4,0.2,0.4,1
	c-1.2,0.9-2.4,1.9-3.5,2.8c0.7-0.1,1.4-0.2,2.1-0.4c6.7-2.3,13.6-4.2,20.6-5.8c8.7-1.8,17.3-4.4,25.9-6.8c3.8-1.2,7.5-2.6,11.2-4.3
	c2.5-1,5.1-1.6,7.7-1.6c4.7-0.1,9.3-0.6,13.9-0.7c1.8,0.1,3.6-0.9,4.5-2.5c3.1-4.8,6.3-9.4,9.5-14.1c1.6-2.3,1.7-2.2,3.8-0.7
	c4.5,3.4,7.9,8.2,9.5,13.7c0.7,1.7,1.5,3.3,2.4,4.9c1.5-0.9,3-1.9,4.4-3c1.3-1.3,3.2-1.9,5-1.5c6,1.3,12,2.4,18,3.7
	c1.8,0.4,3.1,0.2,4.4-1.3c2.1-2.6,4.5-4.9,6.7-7.4c0.9-1.2,2.3-1.9,3.8-2c9.6-1,19.2-2.1,28.7-3.1c3.3-0.4,3.4-0.5,3.5-3.5
	c0.3-7.1,0.6-14.3,1-21.4c0.1-1.3,0.2-2.8,0.9-3.7c1.3-1.5,2.1-3.4,2.2-5.4c0.3-4.3,0.6-8.6,1-12.9c0.1-0.8,0.2-1.6,0.3-2.5
	c0.6,0.7,1.3,1.3,2,1.8c2.2,1.2,3,3.3,4,5.4c0.7,1.2,1.6,2.3,2.6,3.3c-0.3-1.2-0.6-2.5-0.9-3.7c0.6,0.3,1.1,0.7,1.5,1.3
	c6.9,11.3,14.4,22.2,22.6,32.6c1.6,2.4,3.1,4.9,4.4,7.4c-3.2-3.1-6.3-6.1-9.5-9.2c-0.9-0.9-1.9-1.8-2.8-2.7c0.4,1.2,0.8,2.5,1.3,3.6
	c0.8,1.6,1.8,3.2,2.9,4.6c7.5,8.6,15.1,17.2,22.7,25.8c1.3,1.5,2.6,1.6,4.4,0.8c4.4-2,8.9-3.7,13.1-5.9c2.3-1.2,4.3-3,6.4-4.5
	c-0.2-0.4-0.5-0.8-0.8-1.1c-0.3-0.1-0.6-0.1-1-0.1c3.3-1.5,6.6-3.1,10-4.4c1.8-0.7,2.6-1.3,1.8-3.5c-1.5-4-2.7-8.2-3.7-12.4
	c-0.4-1.7-2-3.5-0.7-5.4c1.5,1.2,3.1,2.4,4.6,3.7c0.5,0.6,1,1.3,1.3,2.1c5.8,9.7,13.7,18.1,23.1,24.5c13.4,9.4,28.4,14.9,44.2,18.6
	c6.6,1.6,13.2,0.8,19.8,0.9c0.5,0,1-0.1,1.4-0.3C368,131.1,367.5,130.9,367,130.8z"/>
<path class="st0" d="M61.8,116.1h0.3c3.4,0.5,5.4,1,5.9,1.6v0.1c0,0.1,0.1,0.3,0.2,0.4c-0.5,0.9-0.7,1.5-0.8,1.6
	c-0.7,2.1-1.4,3.8-1.9,5c-0.3,0.6-0.6,1.4-1.1,2.4c-0.6,2-1.7,5.3-3.3,10c0,0,0.1,0,0.1,0.1c0,0,0,0,0,0c0,0.7-1.5,4.7-4.5,12.1
	c-1.1,4.5-2.5,8.9-4.1,13.3c0.1,0.5,0.1,1,0.1,1.6c0,1.8-0.1,3.6-0.4,5.3c-2.2,2.5-3.8,3.8-4.9,3.8c-0.2,0-1-0.1-2.4-0.3
	c-0.6,0.3-1.2,0.5-1.8,0.5H42c-0.1-0.1-0.1-0.1-0.1-0.2c0-0.9,0.9-4.2,2.6-9.8c0.8-3.4,2.7-9.9,5.8-19.6v-0.4c0-0.5,0.1-1,0.2-1.4
	h-0.1c-1.4,0.9-6.6,8.5-15.6,22.7c-1,2.5-1.9,3.8-2.6,3.8c-1.4,0.3-3.4,0.8-6.2,1.3c-1.1-0.2-2-0.8-2.7-1.6l0.1-0.2
	c0.2-0.5,1.1-2.2,2.7-5.1c0.5-1.2,0.7-2.6,0.7-3.9c0-0.9-0.1-1.8-0.2-2.7c0.6-3,0.9-6,0.9-9.1c-0.2-2.6-0.2-5.3-0.2-7.9h-0.2
	c-1.9,3-3.6,6.2-5.1,9.5c-0.9,2.4-1.5,3.9-1.8,4.5c-2.7,5.2-4.2,8.3-4.6,9.3l-1.6,4.5c-0.9,1.7-1.5,3-2,4l-0.7,1.6
	c-0.4,1.3-1.6,2.2-3,2.1c-1.9,0.7-3.8,1.2-5.7,1.6c-0.2,0-0.3-0.2-0.3-0.5c0.1-0.6,0.2-1.3,0.5-1.9c1-1.9,2-4.1,3-6.6l0.8-1.9
	c5.7-13.2,8.8-20.5,9.5-22l2-4.8c6-13.3,9.7-19.9,11.1-19.9c2.1-1.2,3.6-1.8,4.4-1.8c3.8,0,5.7,0.7,5.7,2c0,0.3-0.1,0.6-0.2,0.9v0.2
	c-0.4,2.3-1,4.5-1.8,6.7v0.2c-0.3,4-0.9,8-1.7,12v0.9c0,1.6-0.2,4.1-0.5,7.6l0.2,2.9c2.7-3.2,8.1-11.4,16.3-24.4
	c4.6-6.5,7.3-9.8,8.3-9.8C60.5,116.2,61.2,116.1,61.8,116.1z"/>
<path class="st0" d="M91,140.7h0.5c1.4,0.6,2.8,1.3,4,2.1c1.1,0.1,1.7,0.4,1.7,0.7v0.1l-0.3,1l-1.2,2.4c-0.1,0.4-0.2,0.8-0.4,1.2
	c-0.7,0.9-1.5,1.7-2.3,2.4c-0.1,0.4-0.2,0.7-0.3,1c-1,1.3-1.7,2.2-2.1,2.7c-0.7,2-1.2,4.1-1.5,6.2c0,0.4,0.1,0.5,0.2,0.5
	c0,0.3,0.7,1.2,2.1,2.7h0.1c0.4,0,1.8-1.6,4.3-4.9c2.3-4.9,3.9-7.7,4.8-8.4c0.2-0.1,0.3-0.3,0.3-0.5c0.9-1.9,1.4-3.9,1.6-6l0.4-1
	c0.5-1.1,1.6-1.7,3.2-1.7h0.5l4.8,2.3c0,0.1,0.1,0.1,0.1,0.2c0,0.8-0.8,3.1-2.5,6.9c-0.3,0.9-0.7,1.7-1.2,2.5
	c-0.6,2-1.1,3.5-1.5,4.5l-0.7,1.6c-2.1,4.9-3.5,7.4-4.3,7.4c-0.6,0.1-1.1,0.5-1.4,1c-0.5,1.6-1.2,3.2-1.9,4.8l-0.3,0.1h-0.2
	c-0.5,0-0.8-0.9-0.8-2.6v-0.5c-0.3-0.5-0.9-0.8-1.4-0.8h-2.2c-1.7,0.1-3.4,0.4-5,1h-0.1c-1.6-0.5-3.2-1.1-4.7-1.9
	c-2,0-3.1-0.8-3.4-2.3c-0.5-0.7-0.8-1.5-0.8-2.3c0-0.4,0.1-0.9,0.3-1.3l0.2-0.5c1.6-2.7,2.6-4.7,3.2-5.9l0.8-1.9
	c0.4-0.6,0.8-1.2,1.2-1.9l1.3-3.1c0.3-0.8,1.1-2.8,2.3-6.1C89.7,141.3,90.6,140.7,91,140.7z"/>
<path class="st0" d="M159.1,114.7h0.3c0.3-0.1,0.6-0.1,0.9-0.1c1,0,1.5,0.6,1.5,1.9c0,2.5-1.9,7.3-5.7,14.4l-1.9,4l9.5,1.7
	c5.3,0.3,9.4,1.3,12.6,2.8c-1.5,0-3,0-4.5,0.2c-0.4,0-0.8-0.1-1.2-0.1c-10.7-0.4-16.8-0.5-18.2-0.5c-0.7,0-3,5.6-6.7,16.8
	c-0.3,0.3-0.6,0.7-0.7,1.1l-0.1,0.3c-0.2,0.9-0.4,1.9-0.3,2.8c-1.7,2.6-3.1,5.3-4.1,8.2c-0.9,1.8-1.5,2.9-1.6,3.2l-0.1-0.1h-0.3
	l-0.9,1c0,0.5,0,1.1-0.2,1.6c-0.1,0.1-0.3,0.2-0.5,0.3c0,0.7-0.1,1.5-0.3,2.2l-0.2,0.7c-0.1,0.3-0.4,0.5-0.7,0.5
	c-0.6,1.7-1.6,4.1-2.7,7.1c-0.1,0.2-0.4,1.3-0.9,3.2c-1.2,3.1-2.2,5.7-3,7.8c-0.3,0.7-0.5,1.1-0.5,1.2c-0.5-0.4-0.9-1-0.8-1.7
	c0-0.5,0.1-1.1,0.3-1.6c0.2-0.8,0.3-1.5,0.3-2.3c0-0.5,0-1-0.1-1.6l0.6-1.9l2.4-6.7c0.3-0.7,0.7-2.3,1.3-4.6l0.3-0.8
	c0.1-0.4,0.5-1.3,1.2-2.7v-1.9l2.1-5.7c1-2.9,1.7-5.9,2.1-9c0.8-2.6,2.1-7.5,3.7-14.9c0.2-0.7,0.3-1.5,0.4-2.2c0-0.2,0-0.3-0.1-0.3
	c-12-0.1-18.3-0.1-18.9-0.1h-0.3c-1.4-0.4-2.6-1.3-3.4-2.5c-2.4-3.3-3.6-5.5-3.6-6.5c0-0.3,0.2-0.5,0.5-0.6c0,0,0.1,0,0.1,0
	c0.2,0,0.4,0,0.5,0.1l23.3,2.5c0.5,0.3,1.2,0.5,1.8,0.5c1.2,0,2.1-1,2.8-2.9c2.2-5,3.5-7.5,4-7.5c1.1-2.4,1.9-3.6,2.3-3.6
	c1.8-2,4.4-3.2,7.1-3.3C158.5,114.7,158.8,114.7,159.1,114.7z"/>
<path class="st0" d="M165.2,144.5l3,0.7c0.8-0.1,1.6-0.4,2.3-0.7c1.8,0.6,3.5,1.5,5,2.6c1.9,0,3,0.5,3.1,1.6
	c-0.6,0.8-1.2,1.6-1.7,2.5l-0.1,0.2l0.1,0.6l-0.1,0.2c-0.3,0.6-0.7,1.2-1.1,1.8c0.3,0.5,0.4,1,0.4,1.6c0,0.8-0.2,1.6-0.4,2.4
	c-0.7,2.7-1.6,5.3-2.7,7.9l-0.5,1.2c-1,0.9-2.3,1.4-3.7,1.4c-0.7-0.2-1.4-0.7-1.9-1.3c-1.2,0-1.8-0.7-1.8-2.1v-0.5
	c-0.1-0.3-0.3-0.5-0.5-0.7c-4.7,2.1-7.8,3.2-9.3,3.2h-0.2c-1.2,0-2.4-0.1-3.6-0.3c-0.6,0.2-1.2,0.3-1.9,0.3
	c-2.9-1.4-4.3-2.8-4.3-4.1c0-0.3,0-0.6,0.1-0.8l0.3-0.7c2.6-5.2,4.9-8.8,6.9-10.8c0.9-1.3,2.1-2.3,3.5-3
	C159.8,145.6,162.9,144.5,165.2,144.5z M170,150.8c0,0-3.6-0.7-4,0s-3.2,1.6-4,1.7s-2.9,1.8-2.9,1.8c-2.8,1-0.7,5.4-0.7,6.5
	c0,0.8,4.1,0.3,4.3,0.3c0.2,0.2,0.5,0.4,0.8,0.3h0.3c0.4,0,0.8-0.2,0.9-0.6c0.3-0.8,0.4-1.7,0.4-2.6
	C165.2,156.8,170.5,153,170,150.8L170,150.8z"/>
<path class="st0" d="M187.9,137.9h0.8c1.2,0.7,2.3,1.5,3.2,2.5c1.1,1.1,1.9,1.6,2.4,1.6c0.3,0,0.6,0.2,0.6,0.5c0,0.1,0,0.1,0,0.2
	c-0.1,0.6-0.2,1.1-0.5,1.6c-2.1,4-3.3,6-3.6,6c-1.1,0.6-2.3,2.4-3.6,5.3c-1.5,1.5-2.6,3.2-3.4,5.1c-0.7,0.4-2.4,3.7-5.1,9.9
	c-0.5,0.4-0.8,0.9-1,1.4c-0.1,0.3-0.2,0.8-0.4,1.5c-0.6,0.7-1.5,1.2-2.5,1.4c-0.8,0-1.2-0.6-1.2-1.9c0-1,0.2-2.1,0.5-3.1
	c1.9-6.1,4.8-14.1,8.7-23.9v-0.1c0.6-2.1,1.3-4.2,2.2-6.2C186.5,138.7,187.4,137.9,187.9,137.9z M199.4,121.9c0,0,0,0.1,0,0.2
	c0.1,0.5,0.2,1,0.4,1.4c-0.2,0.8-1,3.5-2.4,8.2c-0.6,0.3-1.2,0.6-1.9,0.7c-0.2-0.1-0.5-0.1-0.7-0.1h-0.3l-2.3,0.6h-0.1
	c-0.3-0.4-0.6-0.8-0.7-1.2c-0.5-0.4-0.9-1-1.1-1.6c0.9-1.5,1.9-2.9,3-4.2c0.9-0.8,1.7-1.7,2.5-2.6
	C196.9,122.7,198.2,122.3,199.4,121.9L199.4,121.9z"/>
<path class="st0" d="M212,173.2h-2.3c-2.3,0-1.4-1.1-2.3-1.7c-1.3,0.5-1.8-2-1.8-2.2c0.5-1.3,2.2-5,5.1-11.1
	c0.2-0.2,0.4-0.4,0.5-0.7c-0.1-0.2-0.2-0.4-0.4-0.4c-0.4,0-2-2.1-4.2,0.2c-3.6,2.4-6.6,8.3-6.9,9.3c-1.1,1.7-1.6,2.4-2.6,2.4
	c-0.7,0.5-1.7,1.4-2.7,1.4c-3.9-0.8-3.6,0.1-4.9-1c0.1-0.2,0.2-0.5,0.4-0.7c-0.1-0.3-0.2-0.6-0.3-1c0.1-1.1,0.3-2.2,0.5-3.4l3.9-8.7
	l0.6-2.4c0.7-1.8,0.2-3.3,0.8-6c0.5-1,0.8-2.1,1.1-2.8c0.2-1,0.3-1.9,0.3-2.9l1.8-1.3c0.5-1,0.6-0.1,1.3-1.3c2.1,1.9,2,2.6,2,3.1
	v0.1c-0.1,0.4-0.1,0.7-0.1,1.1c0,1-0.9,2.7-0.4,4.3c0.9,3.2,0.2,2-0.7,7.6l-0.3,1.4c0.8,0,1.4-1.5,3.1-4.1c2.7-3.4,6.5-5.8,10.7-6.9
	c0.9-0.9,1.9-1.7,3.1-2.3l2.7-1.1c0.5,0,0.9-0.5,2.4-0.7c1.2,0,0.3,0.8,0.3,1.9c-0.1,0.8-0.3,1.6-0.6,2.3l-1.2,3.5
	c-1.3,3.8-0.5,4.9-2.8,10.4l-0.6,1.9c-1.2,3.5-3.1,4.9-3.1,6.9l-0.7,2.5C212.9,172.4,213.3,173.2,212,173.2z"/>
<path class="st0" d="M278.3,115.7L278.3,115.7c0.4,0,0.6,0.2,0.6,0.5c0,0,0,0.1,0,0.1c-0.1,1.1-0.4,2.1-0.9,3l-1,2.3
	c-2,4.3-3.2,6.6-3.8,6.9h-0.4c-0.6-0.4-1.3-0.7-2.1-0.9c-5.9,0-10.3,1.1-13.3,3.2l-0.5,0.7l-0.4,0.9c-0.4,1.7-0.7,3.4-0.8,5.1
	c0,0.9,0.2,1.3,0.6,1.3c1.6,2,2.8,3,3.6,3h0.1c0.3,0,1.6-0.8,3.8-2.5h0.5c0.3,0,0.5,0.8,0.7,2.3c1.1,0.5,2.2,0.9,3.3,1.2
	c0.4,0.8,0.6,1.7,0.5,2.6c-0.1,1.7-0.5,3.4-1.2,5c-2.4,5.6-7,10.5-14,14.7c-7,2.3-11.9,3.4-15,3.4h-2.8l-0.1-0.2
	c0.2-0.5,1.3-1.3,3.3-2.5c2.5-2.4,6.7-5.3,12.8-8.7c3.2-2.4,6.1-5.1,8.8-8.1h0.1l0.1-0.2c-0.2-0.4-1.1-0.8-2.7-1.2
	c-1.5-2.1-3.7-3.8-6.1-4.8c-1.4-1.6-2.3-3.7-2.4-5.8c0-0.4,0-0.7,0.1-1.1l0.7-1.4c0.8-2.5,1.4-5,1.8-7.6c0.5-1.3,3.5-3.8,9-7.4
	c4.3-1.6,7.4-2.5,9.1-2.5h1.8c0.4,0,0.9-0.1,1.3-0.3c0,0.1,0.1,0.2,0.2,0.3C275.3,117,276.9,116.5,278.3,115.7z"/>
<path class="st0" d="M283,126h0.1c2.7,1.2,4.3,1.8,4.9,1.8h0.2c0.6,0,1.1-0.1,1.6-0.2c0.1,0.1,0.2,0.3,0.3,0.5c0,0.1,0,0.1-0.1,0.2
	l-0.4,0.8l-1,2.2c0,0.6,1.8,1.4,5.4,2.5c0.3-0.3,0.6-0.4,1-0.5h0.5c0.3,0,0.8,0.9,1.4,2.7c0.7,0.2,1.1,0.4,1.1,0.8v0.1
	c-0.4,0.8-1.9,1.9-4.6,3.5h-0.3l-0.5-0.4c-0.4,0.2-0.9,0.4-1.4,0.4c-0.6,0-1.2-0.4-1.5-0.9c-1.7,1.3-3.4,2.4-5.3,3.4
	c-1.7,1.8-3.3,3.7-4.7,5.7c-2.3,5.2-4.7,10.2-7.3,15.2l-0.2,0.4l-1,2.7c-1.3,1.6-2.3,3.4-3,5.3c-0.5,0.8-0.8,1.6-1.1,2.4
	c-0.3,0.8-0.5,1.6-0.6,2.4c-0.6,0.5-2.3,1.1-5.1,1.6c-0.1,0.2-0.4,0.4-0.6,0.4c0.1-0.9,0.3-1.8,0.7-2.6l0.1-0.2
	c0.5-0.9,0.9-1.7,1.2-2.5c-0.7,0-1-0.3-1-0.8c0-0.3,0.1-0.7,0.3-1l0.1-0.3c2.2-4.7,3.3-7.3,3.4-7.7l1.4-4.2c2.3-5,3.9-8.4,4.6-10.2
	c2-4.8,3-7.6,3-8.2c0-0.1,0-0.1-0.1-0.1c-0.4-0.2-0.8-0.4-1.3-0.4c-0.6,0.6-1.2,1.1-1.9,1.5c-2-1.7-3.4-2.6-4.2-2.6
	c-0.7-0.3-1.1-0.9-1-1.6c0-0.6,0.2-1.2,0.4-1.7l0.7-1.5c1.9-3.2,3.4-4.9,4.5-4.9h0.3c2.1,0,4.3,0.2,6.4,0.5
	C280.8,127.5,282.2,126,283,126z"/>
<path class="st0" d="M294.1,142.7c2.8,0.5,5.6,1.1,8.3,2c0.1,0,0.2,0.2,0.2,0.6c-0.2,2-0.5,4-1,5.9c-2.7,7.6-4.3,11.5-4.7,11.5
	c-0.9,1.3-1.7,2.6-2.3,4c-1.7,1.9-4.1,3-6.7,3c-1.3-0.1-2-0.5-2-1v-0.2c1-0.3,1.6-0.7,1.6-1h-0.9c-0.3,0-0.7,0-1,0.1
	c-3.3,0-5.2-1.1-5.8-3.2c-0.6-0.4-0.9-1-0.8-1.7v-0.2c0-0.5-0.1-0.9-0.1-1.4c0-0.9,0.1-1.7,0.3-2.5l0.8-2.6c0.7-2.3,1.4-3.7,2-4.2
	C287,145.7,291,142.7,294.1,142.7z M289.1,154.5l-0.5,1.7c-0.1,0.9-0.1,1.7-0.1,2.6c0,2,0.2,3.9,0.8,5.8l0.4,1.3h0.1
	c1.4-2.3,2.4-4.7,3.2-7.3l0.7-2c0.4-1.5,0.6-3,0.7-4.6c0-0.5-0.1-0.8-0.3-0.8c-0.7-0.6-1.6-1-2.5-1.1
	C290.4,151.4,289.5,152.9,289.1,154.5L289.1,154.5z"/>
<path class="st0" d="M311.5,139h2.3c2.3,0,4,0.3,4.9,1c-0.5,1.8-0.8,2.8-0.8,3c-0.5,1.3-2.2,5-5.1,11.1c-0.2,0.2-0.4,0.4-0.5,0.7
	c0.1,0.2,0.2,0.4,0.4,0.4c0.4,0,1.6-1.1,3.8-3.4c4-4.2,6.2-6.8,6.6-7.8c1.1-1.7,2.2-2.6,3.2-2.6c0.8-0.5,1.7-0.8,2.7-0.8
	c3.9,0.8,5.9,1.7,5.9,2.7c0,0.1,0,0.2-0.1,0.3c0,0.3,0.1,0.6,0.1,0.9c0,0.9-0.1,1.9-0.3,2.8l-5.1,10.9v0.3c-0.8,2.2-1.4,4.4-1.9,6.7
	c-0.5,1-0.8,1.9-1.1,2.6c-0.3,1.3-0.5,2.6-0.5,4l-0.1,0.5c-0.5,1-0.8,1.5-1,1.5c-2.1-1.9-3.2-3.1-3.2-3.6V170
	c0.1-0.4,0.1-0.7,0.1-1.1c-0.1-1.3-0.3-2.6-0.8-3.8c0.5-2.8,1.7-7.6,3.6-14.3l-0.3-1c-0.8,0-2,1.3-3.6,3.8
	c-1.9,2.2-5.4,7.1-10.7,14.9c-0.6,0.7-1.2,1.3-2,1.8h-3.7c-1,0.1-2,0.2-3,0.4c-1.2,0-1.8-0.5-1.8-1.6c0-0.5,0.1-1.1,0.3-1.6l0.4-1.1
	c1.3-3.8,3.1-8.3,5.4-13.8l0.6-1.9c1-2.6,1.6-5.4,1.9-8.2l0.5-1.2C308.9,140,310.1,139.1,311.5,139z"/>
<path class="st0" d="M354,143.2h1.2c0.7,0,1.9,0.7,3.4,2.1c2.7,1.3,4.1,3.8,4.4,7.5c0,0.6,0.1,1.2,0.1,1.7c0,0.7,0,1.5-0.3,2.2
	c-0.7,1.4-2.1,2.3-3.7,2.3h-0.9c-0.5,0-1.3,0.6-2.6,1.8l-0.6,0.1c-0.4-0.4-0.9-0.6-1.4-0.6l-5.4,1c-0.4,0-0.8-0.1-1.2-0.3
	c-2,0.5-3,0.9-3.2,1.2c0,0.1-0.1,0.1-0.1,0.2c0,0.6,1.6,1.1,4.7,1.3c0.7,0.1,1.5,0.2,2.3,0.1c0.5,0,1.6,0,3.2-0.1v0.3l-0.3,0.5
	c-0.2,0.5-1.8,1.2-4.9,2.2c-1.8,0.4-3.7,0.7-5.6,0.8c-4.6,0-7.5-0.4-8.7-1.3c-2.6-0.9-3.9-1.6-3.9-2v-0.1c0.1-2.9,0.7-5.8,1.6-8.6
	c2.2-4.1,3.5-6.2,3.9-6.2c3.1-2.8,5.4-4.2,7-4.2C348.4,143.9,352.1,143.2,354,143.2z M345.4,154c0,0.2-0.1,0.3-0.1,0.5
	c0,0.2,0,0.3,0.1,0.3c1.2-0.1,2-0.2,2.2-0.2c0.3,0,1.4,0,3.2,0.1c1.4,0,2.1-0.2,2.3-0.5c0.2-0.4,0.4-0.7,0.5-1.1
	c0.4-0.8,0.6-1.7,0.7-2.6c0.1-0.7-0.3-1.3-1-1.6h-0.8c-2.2,0-4.3,1.4-6.6,4.2C345.9,153.4,345.7,153.7,345.4,154L345.4,154z"/>
<path class="st0" d="M82,142.7l-0.1-0.4l-0.4-0.2c-2.3-1.1-4.4-2.2-6.1-3.2l-0.5-0.3l-0.5,0.3c-0.8,0.5-1.3,0.7-1.5,0.9
	c-2.8,0.1-5.9,2-9.4,5.8c-2.1,1.7-3.7,3.9-4.7,6.3l-0.2,0.3c-0.7,1.6-1,3.3-1.1,5.1c0.1,2.7,0.9,5.3,2.3,7.6l0.1,0.2l0.2,0.1
	c0.3,0.1,0.5,0.3,0.7,0.4c-0.2,0.1-0.4,0.2-0.5,0.4l-0.1,0.1c-1.1,1.3-1.9,2.1-2.3,2.5l-0.1,0.1l-0.2,0.5c-0.2,0.5-0.3,1-0.3,1.5
	c0.1,1.4,1,2.7,2.3,3.2l0.2,0.1h0.6c0.3,0,0.7-0.1,1-0.3c0,0,0.1,0,0.1,0h0.8c0.1,0,0.3,0,0.4,0.1l0.3,0.1l0.3-0.1
	c1.5-0.5,2.9-1.1,4.2-1.9l0.1-0.1c5.7-4.2,10.3-10.3,13.6-18.1c0.6-1.5,1.1-3.1,1.6-4.7c0.1-0.7,0.2-1.4,0.2-2.1
	C82.9,145.7,82.6,144.1,82,142.7z M63.6,167.2c0.5,0,1-0.4,1.1-0.9c0.2-0.5,0.3-0.9,0.3-1.4v-1.2h-0.3c0.1-1.1,0.3-2.2,0.6-3.2
	c0.8-5.4,1.4-7.4,1.7-8.1c0.3-0.6,0.6-1.2,1-1.8c2.7-3.1,3.6-3.6,3.8-3.6h0.6c0.8,0,1.5,0,2.3,0.1l0.1,0c0.3,0.5,0.4,1.1,0.3,1.7
	c0,0.2,0,0.4,0,0.6c-0.6,2.2-1,3.8-1.2,4.8c-0.1,0.2-0.4,0.8-1.1,2.3c-1.1,2.4-2.5,4.7-4,6.9c-3.8,4.6-5.3,4.9-5.6,4.9
	c-0.3-0.3-0.5-0.6-0.5-1l0.1,0.1L63.6,167.2L63.6,167.2z"/>
<path class="st0" d="M121.7,140c1.5,0.7,1.8,1.9,1,3.7l-0.1,0.1c-1.4,2.4-2.2,3.9-2.5,4.5l-0.1,0.3c-1.5,3.4-2.4,5.6-2.9,6.5
	c-0.3,0.6-0.8,1.6-1.5,2.9c0.1,0,0.1,0.2-0.1,0.5h0.1c1.5-1.2,3-2.5,4.4-3.9c1.1-1.2,2.3-2.4,3.5-3.5c1.4-1.4,2.8-2.7,4.2-4
	c1.4-0.4,2.8-1,4.1-1.7l0.3-0.3c1-0.9,2.3-1.3,3.6-1.2c0.9,0,1.8,0.2,2.6,0.5c0.5,0.9,0.3,2.2-0.6,3.9c-0.2,0.4-0.5,1-0.9,1.7
	l-2.8,6.3c-0.5,1-1.1,1.9-1.7,2.8l-0.7,1.6c-1.4,2.6-2.9,5-4.3,7.3c-0.3,0.6-0.8,1.6-1.5,3c-0.2,0.5-0.5,0.9-0.9,1.3
	c-0.1,0.1-0.3,0.3-0.5,0.4h-0.4c-0.7-0.7-1.6-1.3-2.6-1.7c-0.9,0-0.7-1.3,0.6-3.8c1.9-3.7,3.1-6.1,3.6-7c0.2-0.4,0.3-0.8,0.4-1.2
	h-0.2l-0.6,0.1c-3.2,2-6.2,4.1-9.1,6.4c-1.6,1.4-3.4,2.9-5.3,4.4c-0.3,0.3-0.6,0.6-0.8,0.9c-1.1,1-1.8,1.6-2.2,1.6
	c-0.4-0.1-0.8-0.3-1.1-0.6c-1-0.3-1.9-1-2.6-1.8c0.9-1.9,1.6-3.3,2.1-4.2l0.3-0.7c0.5-0.7,1.3-2,2.6-4.2c0.8-1.7,1.5-3.5,2.1-5.4
	l2.6-7.4c1-2,1.8-4,2.5-6.1l0.2-0.3c0-0.1,0.1-0.1,0.1-0.2c0.5-0.5,2.2-1.1,4.9-1.7L121.7,140L121.7,140z"/>
<path class="st1" d="M65.8,114.1h0.3c3.4,0.5,5.4,1,5.9,1.6v0.1c0,0.1,0.1,0.3,0.2,0.4c-0.5,0.9-0.7,1.5-0.8,1.6
	c-0.7,2.1-1.4,3.8-1.9,5c-0.3,0.6-0.6,1.4-1.1,2.4c-0.6,2-1.7,5.3-3.3,10c0,0,0.1,0,0.1,0.1c0,0,0,0,0,0c0,0.7-1.5,4.7-4.5,12.1
	c-1.1,4.5-2.5,8.9-4.1,13.3c0.1,0.5,0.1,1,0.1,1.6c0,1.8-0.1,3.6-0.4,5.3c-2.2,2.5-3.8,3.8-4.9,3.8c-0.2,0-1-0.1-2.4-0.3
	c-0.6,0.3-1.2,0.5-1.8,0.5H46c-0.1-0.1-0.1-0.1-0.1-0.2c0-0.9,0.9-4.2,2.6-9.8c0.8-3.4,2.7-9.9,5.8-19.6v-0.4c0-0.5,0.1-1,0.2-1.4
	h-0.1c-1.4,0.9-6.6,8.5-15.6,22.7c-1,2.5-1.9,3.8-2.6,3.8c-1.4,0.3-3.4,0.8-6.2,1.3c-1.1-0.2-2-0.8-2.7-1.6l0.1-0.2
	c0.2-0.5,1.1-2.2,2.7-5.1c0.5-1.2,0.7-2.6,0.7-3.9c0-0.9-0.1-1.8-0.2-2.7c0.6-3,0.9-6,0.9-9.1c-0.2-2.6-0.2-5.3-0.2-7.9h-0.2
	c-1.9,3-3.6,6.2-5.1,9.5c-0.9,2.4-1.5,3.9-1.8,4.5c-2.7,5.2-4.2,8.3-4.6,9.3l-1.6,4.5c-0.9,1.7-1.5,3-2,4l-0.7,1.6
	c-0.4,1.3-1.6,2.2-3,2.1c-1.9,0.7-3.8,1.2-5.7,1.6c-0.2,0-0.3-0.2-0.3-0.5c0.1-0.6,0.2-1.3,0.5-1.9c1-1.9,2-4.1,3-6.6l0.8-1.9
	c5.7-13.2,8.8-20.5,9.5-22l2-4.8c6-13.3,9.7-19.9,11.1-19.9c2.1-1.2,3.6-1.8,4.4-1.8c3.8,0,5.7,0.7,5.7,2c0,0.3-0.1,0.6-0.2,0.9v0.2
	c-0.4,2.3-1,4.5-1.8,6.7v0.2c-0.3,4-0.9,8-1.7,12v0.9c0,1.6-0.2,4.1-0.5,7.6l0.2,2.9c2.7-3.2,8.1-11.4,16.3-24.4
	c4.6-6.5,7.3-9.8,8.3-9.8C64.5,114.2,65.2,114.1,65.8,114.1z"/>
<path class="st1" d="M95,138.7h0.5c1.4,0.6,2.8,1.3,4.1,2.1c1.1,0.1,1.7,0.4,1.7,0.7v0.1l-0.3,1l-1.2,2.4c-0.1,0.4-0.2,0.8-0.4,1.2
	c-0.7,0.9-1.5,1.7-2.3,2.4c-0.1,0.4-0.2,0.7-0.3,1c-1,1.3-1.7,2.2-2.1,2.7c-0.7,2-1.2,4.1-1.5,6.2c0,0.4,0.1,0.5,0.2,0.5
	c0,0.3,0.7,1.2,2.1,2.7h0.1c0.4,0,1.8-1.6,4.3-4.9c2.3-4.9,3.9-7.7,4.8-8.4c0.2-0.1,0.3-0.3,0.3-0.5c0.9-1.9,1.4-3.9,1.6-6l0.4-1
	c0.5-1.1,1.6-1.7,3.2-1.7h0.5l4.8,2.3c0,0.1,0.1,0.1,0.1,0.2c0,0.8-0.8,3.1-2.5,6.9c-0.3,0.9-0.7,1.7-1.2,2.5
	c-0.6,2-1.1,3.5-1.5,4.5l-0.7,1.6c-2.1,4.9-3.5,7.4-4.3,7.4c-0.6,0.1-1.1,0.5-1.4,1c-0.5,1.6-1.2,3.2-1.9,4.8l-0.3,0.1h-0.2
	c-0.5,0-0.8-0.9-0.8-2.6v-0.5c-0.3-0.5-0.9-0.8-1.4-0.8h-2.2c-1.7,0.1-3.4,0.4-5,1h-0.1c-1.6-0.5-3.2-1.1-4.7-1.9
	c-2,0-3.1-0.8-3.4-2.3c-0.5-0.7-0.8-1.5-0.8-2.3c0-0.4,0.1-0.9,0.3-1.3l0.2-0.5c1.6-2.7,2.6-4.7,3.2-5.9l0.8-1.9
	c0.4-0.6,0.8-1.2,1.2-1.9l1.3-3.1c0.3-0.8,1.1-2.8,2.3-6.1C93.7,139.3,94.6,138.7,95,138.7z"/>
<path class="st1" d="M163.1,112.7h0.3c0.3-0.1,0.6-0.1,0.9-0.1c1,0,1.5,0.6,1.5,1.9c0,2.5-1.9,7.3-5.7,14.4l-1.9,4l9.5,1.7
	c5.3,0.3,9.4,1.3,12.6,2.8c-1.5,0-3,0-4.5,0.2c-0.4,0-0.8-0.1-1.2-0.1c-10.7-0.4-16.8-0.5-18.2-0.5c-0.7,0-3,5.6-6.7,16.8
	c-0.3,0.3-0.6,0.7-0.7,1.1l-0.1,0.3c-0.2,0.9-0.4,1.9-0.3,2.8c-1.7,2.6-3.1,5.3-4.1,8.2c-0.9,1.8-1.5,2.9-1.6,3.2l-0.1-0.1h-0.3
	l-0.9,1c0,0.5,0,1.1-0.2,1.6c-0.1,0.1-0.3,0.2-0.5,0.3c0,0.7-0.1,1.5-0.3,2.2l-0.2,0.7c-0.1,0.3-0.4,0.5-0.7,0.5
	c-0.6,1.7-1.6,4.1-2.7,7.1c-0.1,0.2-0.4,1.3-0.9,3.2c-1.2,3.1-2.2,5.7-3,7.8c-0.3,0.7-0.5,1.1-0.5,1.2c-0.5-0.4-0.9-1-0.8-1.7
	c0-0.5,0.1-1.1,0.3-1.6c0.2-0.8,0.3-1.5,0.3-2.3c0-0.5,0-1-0.1-1.6l0.6-1.9l2.4-6.7c0.3-0.7,0.7-2.3,1.3-4.6l0.3-0.8
	c0.1-0.4,0.5-1.3,1.2-2.7v-1.9l2.1-5.7c1-2.9,1.7-5.9,2.1-9c0.8-2.6,2.1-7.5,3.7-14.9c0.2-0.7,0.3-1.5,0.4-2.2c0-0.2,0-0.3-0.1-0.3
	c-12-0.1-18.3-0.1-18.9-0.1h-0.3c-1.4-0.4-2.6-1.3-3.4-2.5c-2.4-3.3-3.6-5.5-3.6-6.5c0-0.3,0.2-0.5,0.5-0.6c0,0,0.1,0,0.1,0
	c0.2,0,0.4,0,0.5,0.1l23.3,2.5c0.5,0.3,1.2,0.5,1.8,0.5c1.2,0,2.1-1,2.8-2.9c2.2-5,3.5-7.5,4-7.5c1.1-2.4,1.9-3.6,2.3-3.6
	c1.8-2,4.4-3.2,7.1-3.3C162.5,112.7,162.8,112.7,163.1,112.7z"/>
<path class="st1" d="M169.2,142.5l3,0.7c0.8-0.1,1.6-0.4,2.3-0.7c1.8,0.6,3.5,1.5,5,2.6c1.9,0,3,0.5,3.1,1.6
	c-0.6,0.8-1.2,1.6-1.7,2.5l-0.1,0.2l0.1,0.6l-0.1,0.2c-0.3,0.6-0.7,1.2-1.1,1.8c0.3,0.5,0.4,1,0.4,1.6c0,0.8-0.2,1.6-0.4,2.4
	c-0.7,2.7-1.6,5.3-2.7,7.9l-0.5,1.2c-1,0.9-2.3,1.4-3.7,1.4c-0.7-0.2-1.4-0.7-1.9-1.3c-1.2,0-1.8-0.7-1.8-2.1v-0.5
	c-0.1-0.3-0.3-0.5-0.5-0.7c-4.7,2.1-7.8,3.2-9.3,3.2h-0.2c-1.2,0-2.4-0.1-3.6-0.3c-0.6,0.2-1.2,0.3-1.9,0.3
	c-2.9-1.4-4.3-2.8-4.3-4.1c0-0.3,0-0.6,0.1-0.8l0.3-0.7c2.6-5.2,4.9-8.8,6.9-10.8c0.9-1.3,2.1-2.3,3.5-3
	C163.8,143.6,166.9,142.5,169.2,142.5z M174,148.8c0,0-3.6-0.7-4,0s-3.2,1.6-4,1.7s-2.9,1.8-2.9,1.8c-2.8,1-0.7,5.4-0.7,6.5
	c0,0.8,4.1,0.3,4.3,0.3c0.2,0.2,0.5,0.4,0.8,0.3h0.3c0.4,0,0.8-0.2,0.9-0.6c0.3-0.8,0.4-1.7,0.4-2.6
	C169.2,154.8,174.5,151,174,148.8z"/>
<path class="st1" d="M191.9,135.9h0.8c1.2,0.7,2.3,1.5,3.2,2.5c1.1,1.1,1.9,1.6,2.4,1.6c0.3,0,0.6,0.2,0.6,0.5c0,0.1,0,0.1,0,0.2
	c-0.1,0.6-0.2,1.1-0.5,1.6c-2.1,4-3.3,6-3.6,6c-1.1,0.6-2.3,2.4-3.6,5.3c-1.5,1.5-2.6,3.2-3.4,5.1c-0.7,0.4-2.4,3.7-5.1,9.9
	c-0.5,0.4-0.8,0.9-1,1.4c-0.1,0.3-0.2,0.8-0.4,1.5c-0.6,0.7-1.5,1.2-2.5,1.4c-0.8,0-1.2-0.6-1.2-1.9c0-1,0.2-2.1,0.5-3.1
	c1.9-6.1,4.8-14.1,8.7-23.9v-0.1c0.6-2.1,1.3-4.2,2.2-6.2C190.5,136.7,191.4,135.9,191.9,135.9z M203.4,119.9c0,0,0,0.1,0,0.2
	c0.1,0.5,0.2,1,0.4,1.4c-0.2,0.8-1,3.5-2.4,8.2c-0.6,0.3-1.2,0.6-1.9,0.7c-0.2-0.1-0.5-0.1-0.7-0.1h-0.3l-2.3,0.6h-0.1
	c-0.3-0.4-0.6-0.8-0.7-1.2c-0.5-0.4-0.9-1-1.1-1.6c0.9-1.5,1.9-2.9,3-4.2c0.9-0.8,1.7-1.7,2.5-2.6
	C200.9,120.7,202.2,120.3,203.4,119.9L203.4,119.9z"/>
<path class="st1" d="M216,171.2h-2.3c-2.3,0-1.4-1.1-2.3-1.7c-1.3,0.5-1.8-2-1.8-2.2c0.5-1.3,2.2-5,5.1-11.1
	c0.2-0.2,0.4-0.4,0.5-0.7c-0.1-0.2-0.2-0.4-0.4-0.4c-0.4,0-2-2.1-4.2,0.2c-3.6,2.4-6.6,8.3-6.9,9.3c-1.1,1.7-1.6,2.4-2.6,2.4
	c-0.7,0.5-1.7,1.4-2.7,1.4c-3.9-0.8-3.6,0.1-4.9-1c0.1-0.2,0.2-0.5,0.4-0.7c-0.1-0.3-0.2-0.6-0.3-1c0.1-1.1,0.3-2.2,0.5-3.4l3.9-8.7
	l0.6-2.4c0.7-1.8,0.2-3.3,0.8-6c0.5-1,0.8-2.1,1.1-2.8c0.2-1,0.3-1.9,0.3-2.9l1.8-1.3c0.5-1,0.6-0.1,1.3-1.3c2.1,1.9,2,2.6,2,3.1
	v0.1c-0.1,0.4-0.1,0.7-0.1,1.1c0,1-0.9,2.7-0.4,4.3c0.9,3.2,0.2,2-0.7,7.6l-0.3,1.4c0.8,0,1.4-1.5,3.1-4.1c2.7-3.4,6.5-5.8,10.7-6.9
	c0.9-0.9,1.9-1.7,3.1-2.3l2.7-1.1c0.5,0,0.9-0.5,2.4-0.7c1.2,0,0.3,0.8,0.3,1.9c-0.1,0.8-0.3,1.6-0.6,2.3l-1.2,3.5
	c-1.3,3.8-0.5,4.9-2.8,10.4l-0.6,1.9c-1.2,3.5-3.1,4.9-3.1,6.9l-0.7,2.5C216.9,170.4,217.3,171.2,216,171.2z"/>
<path class="st1" d="M282.3,113.7L282.3,113.7c0.4,0,0.6,0.2,0.6,0.5c0,0,0,0.1,0,0.1c-0.1,1.1-0.4,2.1-0.9,3l-1,2.3
	c-2,4.3-3.2,6.6-3.8,6.9h-0.4c-0.6-0.4-1.3-0.7-2.1-0.9c-5.9,0-10.3,1.1-13.3,3.2l-0.5,0.7l-0.4,0.9c-0.4,1.7-0.7,3.4-0.8,5.1
	c0,0.9,0.2,1.3,0.5,1.3c1.6,2,2.8,3,3.6,3h0.1c0.3,0,1.6-0.8,3.8-2.5h0.5c0.3,0,0.5,0.8,0.7,2.3c1.1,0.5,2.2,0.9,3.3,1.2
	c0.4,0.8,0.6,1.7,0.5,2.6c-0.1,1.7-0.5,3.4-1.2,5c-2.4,5.6-7,10.5-14,14.7c-7,2.3-11.9,3.4-15,3.4h-2.8l-0.1-0.2
	c0.2-0.5,1.3-1.3,3.3-2.5c2.5-2.4,6.7-5.3,12.8-8.7c3.2-2.4,6.1-5.1,8.8-8.1h0.1l0.1-0.2c-0.2-0.4-1.1-0.8-2.7-1.2
	c-1.5-2.1-3.7-3.8-6.1-4.8c-1.4-1.6-2.3-3.7-2.4-5.8c0-0.4,0-0.7,0.1-1.1l0.7-1.4c0.8-2.5,1.4-5,1.8-7.6c0.5-1.3,3.5-3.8,9-7.4
	c4.3-1.6,7.4-2.5,9.1-2.5h1.8c0.4,0,0.9-0.1,1.3-0.3c0,0.1,0.1,0.2,0.2,0.3C279.3,115,280.9,114.5,282.3,113.7z"/>
<path class="st1" d="M287,124h0.1c2.7,1.2,4.3,1.8,4.9,1.8h0.2c0.6,0,1.1-0.1,1.6-0.2c0.1,0.1,0.2,0.3,0.3,0.5c0,0.1,0,0.1-0.1,0.2
	l-0.4,0.8l-1,2.2c0,0.6,1.8,1.4,5.4,2.5c0.3-0.3,0.6-0.4,1-0.5h0.5c0.3,0,0.8,0.9,1.4,2.7c0.7,0.2,1.1,0.4,1.1,0.8v0.1
	c-0.4,0.8-1.9,1.9-4.6,3.5h-0.3l-0.5-0.4c-0.4,0.2-0.9,0.4-1.4,0.4c-0.6,0-1.2-0.4-1.5-0.9c-1.7,1.3-3.4,2.4-5.3,3.4
	c-1.7,1.8-3.3,3.7-4.7,5.7c-2.3,5.2-4.7,10.2-7.3,15.2l-0.2,0.4l-1,2.7c-1.3,1.6-2.3,3.4-3,5.3c-0.5,0.8-0.8,1.6-1.1,2.4
	c-0.3,0.8-0.5,1.6-0.6,2.4c-0.6,0.5-2.3,1.1-5.1,1.6c-0.1,0.2-0.4,0.4-0.6,0.4c0.1-0.9,0.3-1.8,0.7-2.6l0.1-0.2
	c0.5-0.9,0.9-1.7,1.2-2.5c-0.7,0-1-0.3-1-0.8c0-0.3,0.1-0.7,0.3-1l0.1-0.3c2.2-4.7,3.3-7.3,3.4-7.7l1.4-4.2c2.3-5,3.9-8.4,4.6-10.2
	c2-4.8,3-7.6,3-8.2c0-0.1,0-0.1-0.1-0.1c-0.4-0.2-0.8-0.4-1.3-0.4c-0.6,0.6-1.2,1.1-1.9,1.5c-2-1.7-3.4-2.6-4.2-2.6
	c-0.7-0.3-1.1-0.9-1-1.6c0-0.6,0.2-1.2,0.4-1.7l0.7-1.5c1.9-3.2,3.4-4.9,4.5-4.9h0.3c2.1,0,4.3,0.2,6.4,0.5
	C284.8,125.5,286.2,124,287,124z"/>
<path class="st1" d="M298.1,140.7c2.8,0.5,5.6,1.1,8.3,2c0.1,0,0.2,0.2,0.2,0.6c-0.2,2-0.5,4-1,5.9c-2.7,7.6-4.3,11.5-4.7,11.5
	c-0.9,1.3-1.7,2.6-2.3,4c-1.7,1.9-4.1,3-6.7,3c-1.3-0.1-2-0.5-2-1v-0.2c1-0.3,1.6-0.7,1.6-1h-0.9c-0.3,0-0.7,0-1,0.1
	c-3.3,0-5.2-1.1-5.8-3.2c-0.6-0.4-0.9-1-0.8-1.7v-0.2c0-0.5-0.1-0.9-0.1-1.4c0-0.9,0.1-1.7,0.3-2.5l0.8-2.6c0.7-2.3,1.4-3.7,2-4.2
	C291,143.7,295,140.7,298.1,140.7z M293.1,152.5l-0.5,1.7c-0.1,0.9-0.1,1.7-0.1,2.6c0,2,0.2,3.9,0.8,5.8l0.4,1.3h0.1
	c1.4-2.3,2.4-4.7,3.2-7.3l0.7-2c0.4-1.5,0.6-3,0.7-4.6c0-0.5-0.1-0.8-0.3-0.8c-0.7-0.6-1.6-1-2.5-1.1
	C294.4,149.4,293.6,150.9,293.1,152.5L293.1,152.5z"/>
<path class="st1" d="M315.5,137h2.3c2.3,0,4,0.3,4.9,1c-0.5,1.8-0.8,2.8-0.8,3c-0.5,1.3-2.2,5-5.1,11.1c-0.2,0.2-0.4,0.4-0.5,0.7
	c0.1,0.2,0.2,0.4,0.4,0.4c0.4,0,1.6-1.1,3.8-3.4c4-4.2,6.2-6.8,6.6-7.8c1.1-1.7,2.2-2.6,3.2-2.6c0.8-0.5,1.7-0.8,2.7-0.8
	c3.9,0.8,5.9,1.7,5.9,2.7c0,0.1,0,0.2-0.1,0.3c0,0.3,0.1,0.6,0.1,0.9c0,0.9-0.1,1.9-0.3,2.8l-5.1,10.9v0.3c-0.8,2.2-1.4,4.4-1.9,6.7
	c-0.5,1-0.8,1.9-1.1,2.6c-0.3,1.3-0.5,2.6-0.5,4l-0.1,0.5c-0.5,1-0.8,1.5-1,1.5c-2.1-1.9-3.2-3.1-3.2-3.6V168
	c0.1-0.4,0.1-0.7,0.1-1.1c-0.1-1.3-0.3-2.6-0.8-3.8c0.5-2.8,1.7-7.6,3.6-14.3l-0.3-1c-0.8,0-2,1.3-3.6,3.8
	c-1.9,2.2-5.4,7.1-10.7,14.9c-0.6,0.7-1.2,1.3-2,1.8h-3.7c-1,0.1-2,0.2-3,0.4c-1.2,0-1.8-0.5-1.8-1.6c0-0.5,0.1-1.1,0.3-1.6l0.4-1.1
	c1.3-3.8,3.1-8.3,5.4-13.8l0.6-1.9c1-2.6,1.6-5.4,1.9-8.2l0.5-1.2C312.9,138,314.1,137.1,315.5,137z"/>
<path class="st1" d="M358,141.2h1.2c0.7,0,1.9,0.7,3.4,2.1c2.7,1.3,4.1,3.8,4.4,7.5c0,0.6,0.1,1.2,0.1,1.7c0,0.7,0,1.5-0.3,2.2
	c-0.7,1.4-2.1,2.3-3.7,2.3h-0.9c-0.5,0-1.3,0.6-2.6,1.8l-0.6,0.1c-0.4-0.4-0.9-0.6-1.4-0.6l-5.4,1c-0.4,0-0.8-0.1-1.2-0.3
	c-2,0.5-3,0.9-3.2,1.2c0,0.1-0.1,0.1-0.1,0.2c0,0.6,1.6,1.1,4.7,1.3c0.7,0.1,1.5,0.2,2.3,0.1c0.5,0,1.6,0,3.2-0.1v0.3l-0.3,0.5
	c-0.2,0.5-1.8,1.2-4.9,2.2c-1.8,0.4-3.7,0.7-5.6,0.8c-4.6,0-7.5-0.4-8.7-1.3c-2.6-0.9-3.9-1.6-3.9-2v-0.1c0.1-2.9,0.7-5.8,1.6-8.6
	c2.2-4.1,3.5-6.2,3.9-6.2c3.1-2.8,5.4-4.2,7-4.2C352.4,141.9,356.1,141.2,358,141.2z M349.4,152c0,0.2-0.1,0.3-0.1,0.5
	c0,0.2,0,0.3,0.1,0.3c1.2-0.1,2-0.2,2.2-0.2c0.3,0,1.4,0,3.2,0.1c1.4,0,2.1-0.2,2.3-0.5c0.2-0.4,0.4-0.7,0.5-1.1
	c0.4-0.8,0.6-1.7,0.7-2.6c0.1-0.7-0.3-1.3-1-1.6h-0.8c-2.2,0-4.3,1.4-6.6,4.2C349.9,151.4,349.7,151.7,349.4,152z"/>
<path class="st1" d="M86,140.7l-0.1-0.4l-0.4-0.2c-2.3-1.1-4.4-2.2-6.1-3.2l-0.5-0.3l-0.5,0.3c-0.8,0.5-1.3,0.7-1.5,0.9
	c-2.8,0.1-5.9,2-9.4,5.8c-2.1,1.7-3.7,3.9-4.7,6.3l-0.2,0.3c-0.7,1.6-1,3.3-1.1,5.1c0.1,2.7,0.9,5.3,2.3,7.6l0.1,0.2l0.2,0.1
	c0.3,0.1,0.5,0.3,0.7,0.4c-0.2,0.1-0.4,0.2-0.5,0.4l-0.1,0.1c-1.1,1.3-1.9,2.1-2.3,2.5l-0.1,0.1l-0.2,0.5c-0.2,0.5-0.3,1-0.3,1.5
	c0.1,1.4,1,2.7,2.3,3.2l0.2,0.1h0.6c0.3,0,0.7-0.1,1-0.3c0,0,0.1,0,0.1,0h0.8c0.1,0,0.3,0,0.4,0.1l0.3,0.1l0.3-0.1
	c1.5-0.5,2.9-1.1,4.2-1.9l0.1-0.1c5.7-4.2,10.3-10.3,13.6-18.1c0.6-1.5,1.1-3.1,1.6-4.7c0.1-0.7,0.2-1.4,0.2-2.1
	C86.9,143.6,86.6,142.1,86,140.7z M67.6,165.2c0.5,0,1-0.4,1.1-0.9c0.2-0.5,0.3-0.9,0.3-1.4v-1.2h-0.3c0.1-1.1,0.3-2.2,0.6-3.2
	c0.8-5.4,1.4-7.4,1.7-8.1c0.3-0.6,0.6-1.2,1-1.8c2.7-3.1,3.6-3.6,3.8-3.6h0.6c0.8,0,1.5,0,2.3,0.1l0.1,0c0.3,0.5,0.4,1.1,0.3,1.7
	c0,0.2,0,0.4,0,0.6c-0.6,2.2-1,3.8-1.2,4.8c-0.1,0.2-0.4,0.8-1.1,2.3c-1.1,2.4-2.5,4.7-4,6.9c-3.8,4.6-5.3,4.9-5.6,4.9
	c-0.3-0.3-0.5-0.6-0.5-1l0.1,0.1L67.6,165.2L67.6,165.2z"/>
<path class="st1" d="M125.7,138c1.5,0.7,1.8,1.9,1,3.7l-0.1,0.1c-1.4,2.4-2.2,3.9-2.5,4.5l-0.1,0.3c-1.5,3.4-2.4,5.6-2.9,6.5
	c-0.3,0.6-0.8,1.6-1.5,2.9c0.1,0,0.1,0.2-0.1,0.5h0.1c1.5-1.2,3-2.5,4.4-3.9c1.1-1.2,2.3-2.4,3.5-3.5c1.4-1.4,2.8-2.7,4.2-4
	c1.4-0.4,2.8-1,4.1-1.7l0.3-0.3c1-0.9,2.3-1.3,3.6-1.2c0.9,0,1.8,0.2,2.6,0.5c0.5,0.9,0.3,2.2-0.6,3.9c-0.2,0.4-0.5,1-0.9,1.7
	l-2.8,6.3c-0.5,1-1.1,1.9-1.7,2.8l-0.7,1.6c-1.4,2.6-2.9,5-4.3,7.3c-0.3,0.6-0.8,1.6-1.5,3c-0.2,0.5-0.5,0.9-0.9,1.3
	c-0.1,0.1-0.3,0.3-0.5,0.4h-0.4c-0.7-0.7-1.6-1.3-2.6-1.7c-0.9,0-0.7-1.3,0.6-3.8c1.9-3.7,3.1-6.1,3.6-7c0.2-0.4,0.3-0.8,0.4-1.2
	h-0.2l-0.6,0.1c-3.2,2-6.2,4.1-9.1,6.4c-1.6,1.4-3.4,2.9-5.3,4.4c-0.3,0.3-0.6,0.6-0.8,0.9c-1.1,1-1.8,1.6-2.2,1.6
	c-0.4-0.1-0.8-0.3-1.1-0.6c-1-0.3-1.9-1-2.6-1.8c0.9-1.9,1.6-3.3,2.1-4.2l0.3-0.7c0.5-0.7,1.3-2,2.6-4.2c0.8-1.7,1.5-3.5,2.1-5.4
	l2.6-7.4c1-2,1.8-4,2.5-6.1l0.2-0.3c0-0.1,0.1-0.1,0.1-0.2c0.5-0.5,2.2-1.1,4.9-1.7L125.7,138L125.7,138z"/>
<path class="st1" d="M363.9,116.9C363.8,116.8,363.8,116.8,363.9,116.9c0.2-0.1,0.4-0.3,0.6-0.5c0.2-0.2,0.4-0.6,0.4-0.9
	c0-0.3-0.1-0.5-0.2-0.8c-0.1-0.2-0.3-0.4-0.6-0.5c-0.3-0.1-0.6-0.1-1-0.1h-2.2v4.8h0.9v-2h0.6c0.1,0,0.2,0,0.3,0
	c0.1,0,0.2,0.1,0.2,0.1c0.1,0.1,0.2,0.2,0.3,0.3c0.1,0.1,0.3,0.4,0.4,0.6l0.6,1h1.1l-0.9-1.4C364.3,117.3,364.1,117,363.9,116.9z
	 M364,115.5c0,0.1,0,0.2-0.1,0.3c-0.1,0.1-0.2,0.2-0.3,0.2c-0.2,0.1-0.4,0.1-0.6,0.1h-1.2v-1.3h1.3c0.2,0,0.5,0,0.7,0.2
	C363.9,115.1,364,115.3,364,115.5z"/>
<path class="st1" d="M362.8,112c-2.5,0-4.5,2-4.5,4.5c0,2.5,2,4.5,4.5,4.5s4.5-2,4.5-4.5c0,0,0,0,0,0
	C367.3,114.1,365.3,112,362.8,112z M366.6,116.6c0,2.1-1.7,3.7-3.7,3.7c-2.1,0-3.7-1.7-3.7-3.7c0-2.1,1.7-3.7,3.7-3.7
	C364.9,112.8,366.6,114.5,366.6,116.6z"/>
</svg>
