<svg id="Layer_1" data-name="Layer 1" xmlns="http://www.w3.org/2000/svg" viewBox="0 0 124.3825 66.3798"><defs><style>.cls-1{fill:#fff;}</style></defs><title>aggam-logo</title><path class="cls-1" d="M68.2819,19.8047l-0.01-.0116,0.0043,0.0176Z"/><path class="cls-1" d="M123.864,44.1495a46.3562,46.3562,0,0,1-7.9875-1.8821,16.6778,16.6778,0,0,1-2.4136-1.1258,37.6578,37.6578,0,0,0-4.9-2.1342,7.3115,7.3115,0,0,1-3.08-1.838c-0.5582-.528-1.1776-0.9912-1.77-1.4833-0.2266.2826-.4522,0.3506-0.6762-0.009-2.04-.6067-3.1465-2.22-4.0912-3.94-1.1293-2.0559-2.17-4.1572-3.9871-5.7291a0.1538,0.1538,0,0,1,.0095-0.109l1.6482,0.6187c0.0544-.2445.8843-0.3491,0.0931-0.7894-1.2473-.6941-2.7274-1.0041-3.7-2.1706a0.9713,0.9713,0,0,0-.3119-0.11,26.4385,26.4385,0,0,1-2.714-1.3018,1.4328,1.4328,0,0,0-1.6911.06,5.35,5.35,0,0,0-1.1081.9957,56.5574,56.5574,0,0,1-6.5887,6.8729,1.4955,1.4955,0,0,0-.5215,1.164,3.1964,3.1964,0,0,1-.6044-0.4663,41.5851,41.5851,0,0,1-5.1645-8.0485,3.8483,3.8483,0,0,1-.4975-1.0559c-0.1122-.7693.4212,0.1375,0.5388-0.17q-1.4844-3.3618-2.9736-6.7214a1.6033,1.6033,0,0,0-.3812-0.5428,0.48,0.48,0,0,0-.4384-0.0788,0.4891,0.4891,0,0,0-.1963.4212c0.1253,0.423.3146,0.827,0.4789,1.2386q0.3845,0.9632.7679,1.9268a0.3973,0.3973,0,0,1-.2307-0.0886,27.8839,27.8839,0,0,1-3.7714-7.0995C66.5276,7.3128,65.6244,4.0152,64.644.743,64.5684,0.4911,64.4653.2475,64.3751,0A3.5939,3.5939,0,0,0,63.87.6154q-2.3155,4.58-4.6018,9.1744c-0.1735.3483-.2734,0.7324-0.4294,1.09A12.9263,12.9263,0,0,1,57.8,13.1444c-1.9562,2.8119-4.0133,5.5535-5.9757,8.3612-3.0585,4.3757-7.1325,7.7589-10.9776,11.3688-0.3572.3353-.5624,0.1842-0.7706-0.1566q-0.4829-.79-0.9932-1.5633-1.251-1.8971-2.5167-3.7845a0.5813,0.5813,0,0,0-.814-0.3191c-0.873.3669-1.543,1.3871-2.7076,0.8939a0.4126,0.4126,0,0,0-.251.2c-0.883,1.5223-2.4712,2.1217-3.9319,2.72-5.5887,2.29-10.8915,5.2178-16.5845,7.2843A54.2364,54.2364,0,0,1,5.4532,40.412C3.762,40.7834,2.0885,41.2359.41,41.6651a1.5805,1.5805,0,0,0-.41.2613,1.0551,1.0551,0,0,0,.4127.1554c0.61-.0643,1.2156-0.169,1.8245-0.2458a1.0712,1.0712,0,0,1,.3234.0621c-0.0759.0583-.1493,0.12-0.2283,0.174a4.1121,4.1121,0,0,1-.4232.2724c-0.1947.1-.4,0.1783-0.6015,0.266,0.21,0.0514.4185,0.11,0.63,0.1525,0.2349,0.0473.4764,0.0653,0.1225,0.3366-0.4044.31-.7948,0.6381-1.19,0.96a4.2985,4.2985,0,0,0,.702-0.1258A69.87,69.87,0,0,1,8.51,41.9654c2.95-.6159,5.8529-1.4743,8.7523-2.31a35.3623,35.3623,0,0,0,3.7691-1.4355,7.037,7.037,0,0,1,2.61-.5332c1.57-.0349,3.1377-0.193,4.7081-0.2339a1.6479,1.6479,0,0,0,1.5056-.8465c1.0319-1.6058,2.1253-3.1724,3.208-4.7451,0.5233-.76.58-0.7467,1.2891-0.22a9.1433,9.1433,0,0,1,3.2219,4.61,14.0992,14.0992,0,0,0,.7964,1.6556,15.7022,15.7022,0,0,0,1.4893-1.0218,1.7924,1.7924,0,0,1,1.6768-.5109c2.0208,0.4391,4.055.8164,6.0794,1.24a1.3438,1.3438,0,0,0,1.4944-.4426c0.7172-.8624,1.5338-1.6417,2.2637-2.4944a1.8145,1.8145,0,0,1,1.2864-.6757c3.2353-.3382,6.4675-0.7067,9.7011-1.0622,1.0989-.1208,1.1442-0.1533,1.1933-1.1922,0.1141-2.4123.2081-4.8256,0.34-7.237a2.1373,2.1373,0,0,1,.3156-1.2394,2.86,2.86,0,0,0,.7291-1.8241c0.1087-1.4512.2119-2.9028,0.3211-4.354,0.0209-.2775.059-0.5538,0.0891-0.8306a3.912,3.912,0,0,0,.6847.5934,3.4861,3.4861,0,0,1,1.361,1.8341,6.2214,6.2214,0,0,0,.8775,1.1044L67.97,18.5419a1.7355,1.7355,0,0,1,.5184.4278,115.966,115.966,0,0,0,7.6259,11.0037,21.3086,21.3086,0,0,1,1.49,2.5091Q76,30.928,74.3963,29.3737c-0.3131-.3032-0.6292-0.6033-0.9439-0.9048a9.0226,9.0226,0,0,0,.4486,1.2246,8.1809,8.1809,0,0,0,.99,1.555c2.5385,2.9143,5.1106,5.7995,7.6583,8.7059a1.0979,1.0979,0,0,0,1.4825.2731c1.47-.6821,2.9924-1.2557,4.438-1.9836a17.1975,17.1975,0,0,0,2.1756-1.535,1.0859,1.0859,0,0,0-.2833-0.3685,0.6677,0.6677,0,0,0-.3222-0.0324c1.12-.5014,2.2291-1.03,3.3682-1.4827C94.0243,34.58,94.2808,34.38,94,33.6336a33.93,33.93,0,0,1-1.2539-4.17c-0.1381-.5861-0.6633-1.1661-0.2365-1.8367,0.5192,0.4105,1.0567.8007,1.5488,1.2415a2.8255,2.8255,0,0,1,.4459.7072,26.31,26.31,0,0,0,7.7866,8.258,42.5749,42.5749,0,0,0,14.9065,6.2787c2.2252,0.5294,4.4624.2678,6.6969,0.3009a2.2732,2.2732,0,0,0,.4883-0.1A2.466,2.466,0,0,0,123.864,44.1495Z"/><path class="cls-1" d="M20.8614,39.1848h0.1055a3.9288,3.9288,0,0,1,1.9782.5539v0.0263a0.1778,0.1778,0,0,0,.0527.1319q-0.2376.4748-.2638,0.5539-0.37,1.0552-.6329,1.6879-0.1323.3164-.3693,0.8178-0.29,1.0026-1.1077,3.3758a0.0237,0.0237,0,0,1,.0263.0266,32.5132,32.5132,0,0,1-1.53,4.0881,44.0014,44.0014,0,0,1-1.3715,4.4836c0.0173,0.176.0265,0.352,0.0265,0.5277a13.08,13.08,0,0,1-.1319,1.7935,3.0772,3.0772,0,0,1-1.6616,1.2659q-0.1058,0-.8178-0.1055a2.0472,2.0472,0,0,1-.6065.1846H14.1621a0.1061,0.1061,0,0,1-.0263-0.0792,22.39,22.39,0,0,1,.87-3.3232q0.3957-1.7141,1.9517-6.62V48.4426a1.4924,1.4924,0,0,1,.0792-0.4747H17.0106q-0.7121.4487-5.2749,7.6751-0.528,1.266-.87,1.2659-0.6862.1582-2.0836,0.4485a1.488,1.488,0,0,1-.8968-0.5539l0.0263-.0792q0.1053-.237.8968-1.7143a3.4542,3.4542,0,0,0,.2374-1.3188,5.4663,5.4663,0,0,0-.079-0.8966,19.2577,19.2577,0,0,0,.3164-3.06A25.7416,25.7416,0,0,1,9.23,47.0709H9.1773A23.0878,23.0878,0,0,0,7.463,50.2886q-0.4748,1.2137-.6067,1.5034Q5.5112,54.43,5.3,54.9306L4.7462,56.46q-0.4487.8444-.6594,1.3454l-0.2374.5273a1.0191,1.0191,0,0,1-1.0022.7123,14.3865,14.3865,0,0,1-1.9252.5273c-0.07,0-.1056-0.0525-0.1056-0.158a2.2735,2.2735,0,0,1,.1584-0.6331q0.5013-.9756,1.0285-2.242l0.2638-.6327q2.8744-6.6725,3.1913-7.4116l0.6858-1.6089q3.0593-6.7254,3.7452-6.7254a3.9736,3.9736,0,0,1,1.477-.6067q1.925,0,1.9254.6857a0.93,0.93,0,0,1-.0527.29v0.0529a13.6085,13.6085,0,0,1-.6067,2.2683V42.93a31.648,31.648,0,0,1-.58,4.0351v0.3167q0,0.7909-.1846,2.5584l0.079,0.9758q1.3451-1.6353,5.486-8.229,2.3207-3.2966,2.7957-3.2969A2.617,2.617,0,0,1,20.8614,39.1848Z"/><path class="cls-1" d="M30.717,47.5009h0.1852a7.9289,7.9289,0,0,1,1.3667.7182q0.5787,0.0692.5791,0.2314v0.0465l-0.0926.3243-0.417.8108a3.2575,3.2575,0,0,1-.1389.417,5.0665,5.0665,0,0,1-.7876.8105c-0.0311.1239-.062,0.2317-0.0928,0.3243q-0.51.6724-.7181,0.9035a10.0539,10.0539,0,0,0-.51,2.0848c0,0.1239.0231,0.1852,0.07,0.1852a3.3869,3.3869,0,0,0,.6948.9269h0.0232a6.9069,6.9069,0,0,0,1.4361-1.6447,9.8118,9.8118,0,0,1,1.6215-2.8261,0.2968,0.2968,0,0,0,.1159-0.1852,6.0512,6.0512,0,0,0,.5328-2.0386l0.1389-.3243a1.0617,1.0617,0,0,1,1.0887-.5791h0.1854L37.62,48.45a0.0967,0.0967,0,0,1,.0231.07,9.7611,9.7611,0,0,1-.8339,2.34,7.7827,7.7827,0,0,1-.3937.8573q-0.3013.9962-.51,1.5056l-0.2317.5557Q34.6084,56.28,34.2148,56.28a0.7127,0.7127,0,0,0-.4633.324q-0.2781.8341-.6254,1.6217l-0.0926.0465h-0.07q-0.2551,0-.2548-0.88V57.23a0.7,0.7,0,0,0-.4865-0.2779H31.4814a5.632,5.632,0,0,0-1.6909.3243H29.7442a9.9835,9.9835,0,0,1-1.5752-.6256,1.01,1.01,0,0,1-1.1582-.7874,1.3594,1.3594,0,0,1-.278-0.7878,1.1848,1.1848,0,0,1,.0926-0.44l0.07-.1852q0.7874-1.3666,1.0656-1.9921l0.2779-.6487a5.3843,5.3843,0,0,0,.3939-0.6256l0.44-1.0422q0.1619-.3936.7645-2.0617A2.1868,2.1868,0,0,1,30.717,47.5009Z"/><path class="cls-1" d="M53.6863,38.7216h0.0926a1.1026,1.1026,0,0,1,.3013-0.0463,0.5082,0.5082,0,0,1,.51.6254q0,1.2509-1.9226,4.8645l-0.6487,1.3666,3.22,0.5791a11.1127,11.1127,0,0,1,4.2391.95,9.63,9.63,0,0,0-1.5056.07,2.78,2.78,0,0,1-.417-0.0465q-5.42-.1849-6.1384-0.1852-0.3708,0-2.2469,5.6752a0.8943,0.8943,0,0,0-.2317.37l-0.0463.116a3.5534,3.5534,0,0,0-.1159.95,13.7271,13.7271,0,0,0-1.39,2.78q-0.4638.9265-.556,1.0653l-0.0463-.0461H46.6907l-0.3011.3243a1.4651,1.4651,0,0,1-.07.5326,0.3547,0.3547,0,0,1-.1622.0926,2.4653,2.4653,0,0,1-.0926.7413l-0.07.2317a0.2686,0.2686,0,0,1-.2315.1622q-0.3248.8805-.9267,2.386-0.0467.1162-.3011,1.0653Q43.911,64.92,43.5172,65.9628q-0.1619.37-.1854,0.417a0.6837,0.6837,0,0,1-.278-0.5791A1.511,1.511,0,0,1,43.17,65.268a2.2219,2.2219,0,0,0,.0926-0.7878q0-.2319-0.0231-0.5326l0.2085-.6487,0.8107-2.2469q0.1392-.37.44-1.5521l0.0926-.2548q0.0695-.1849.3939-0.9035V57.6933L45.88,55.77a18.0753,18.0753,0,0,0,.7182-3.0344q0.4168-1.2968,1.2509-5.0265a3.8984,3.8984,0,0,0,.1389-0.7413c0-.0771-0.0155-0.116-0.0463-0.116q-6.0921-.046-6.37-0.0461H41.4556a2.1756,2.1756,0,0,1-1.1582-.8573A5.8979,5.8979,0,0,1,39.07,43.7713a0.1748,0.1748,0,0,1,.2085-0.1852,1.0183,1.0183,0,0,1,.1852.0231l7.876,0.8573a1.2263,1.2263,0,0,0,.6022.1852,1.1486,1.1486,0,0,0,.95-0.973q1.1119-2.5477,1.3435-2.548a2.3281,2.3281,0,0,1,.7876-1.2278,3.3952,3.3952,0,0,1,2.3859-1.1118A0.3075,0.3075,0,0,1,53.6863,38.7216Z"/><path class="cls-1" d="M55.7422,48.7748l1.0191,0.2317a3.3368,3.3368,0,0,0,.7876-0.2317,7.01,7.01,0,0,1,1.6911.88q0.973,0,1.0424.556a10.0649,10.0649,0,0,0-.5791.8339l-0.0231.0692,0.0231,0.2086-0.0231.07a3.1518,3.1518,0,0,1-.3706.6022,0.8772,0.8772,0,0,1,.1389.5326,3.0625,3.0625,0,0,1-.1389.8108,19.4169,19.4169,0,0,1-.9035,2.6639l-0.1622.3939a1.9086,1.9086,0,0,1-1.2509.4865,1.16,1.16,0,0,1-.6254-0.44,0.5766,0.5766,0,0,1-.6022-0.6948V55.5621A0.4492,0.4492,0,0,0,55.58,55.33a10.1929,10.1929,0,0,1-3.15,1.0656H52.36a7.2487,7.2487,0,0,1-1.2278-.1157,3.2018,3.2018,0,0,1-.6254.1157q-1.4593-.7179-1.4593-1.39a0.8665,0.8665,0,0,1,.0463-0.2779l0.0926-.2317a15.397,15.397,0,0,1,2.3165-3.66,2.6977,2.6977,0,0,1,1.1813-.9961A6.8005,6.8005,0,0,1,55.7422,48.7748Zm1.6226,2.1374a2.5214,2.5214,0,0,0-1.336,0,2.8988,2.8988,0,0,1-1.3637.5625,3.3913,3.3913,0,0,0-.9708.6188c-0.9282.3516-.225,1.8248-0.225,2.18,0,0.2627,1.37.1075,1.4621,0.1075a0.3076,0.3076,0,0,0,.255.1157H55.302a0.3124,0.3124,0,0,0,.3013-0.2083,2.3923,2.3923,0,0,0,.1389-0.88C55.7422,52.9292,57.55,51.6383,57.3648,50.9122Z"/><path class="cls-1" d="M63.4249,46.56h0.278a5.4715,5.4715,0,0,1,1.0887.8339,1.4715,1.4715,0,0,0,.8107.556,0.1952,0.1952,0,0,1,.2085.2317,1.5721,1.5721,0,0,1-.1622.556,9.1651,9.1651,0,0,1-1.2046,2.0383A3.77,3.77,0,0,0,63.24,52.56a5.6861,5.6861,0,0,0-1.1582,1.7374q-0.3708.1859-1.7374,3.3356a0.9447,0.9447,0,0,0-.3243.4865c-0.0311.0926-.0775,0.263-0.1389,0.51a1.4981,1.4981,0,0,1-.8339.4865q-0.417,0-.417-0.6253a4.5263,4.5263,0,0,1,.1622-1.0425q0.9728-3.1039,2.9417-8.0612V49.3635a16.219,16.219,0,0,1,.7413-2.0848A2.1044,2.1044,0,0,1,63.4249,46.56Zm3.888-5.4072a0.0806,0.0806,0,0,0-.0141.0561,1.7742,1.7742,0,0,0,.1263.4773q-0.1125.4074-.8,2.7655a1.9626,1.9626,0,0,1-.6457.2387,0.8612,0.8612,0,0,0-.2387-0.0421H65.6283l-0.7722.2105H64.828a1.2845,1.2845,0,0,1-.2527-0.4071,1.4055,1.4055,0,0,1-.379-0.5474,11.0141,11.0141,0,0,1,1.0249-1.4039,6.2939,6.2939,0,0,0,.8283-0.8844A7.8623,7.8623,0,0,1,67.3129,41.1533Z"/><path class="cls-1" d="M71.5547,58.45H70.7671c-0.7876,0-.4649-0.3639-0.7739-0.58-0.443.1688-.608-0.6787-0.5928-0.74q0.2554-.6719,1.7374-3.7526A0.4521,0.4521,0,0,0,71.3,53.1454a0.1979,0.1979,0,0,0-.1389-0.1388,0.9523,0.9523,0,0,0-1.4065.0536,8.1862,8.1862,0,0,0-2.3415,3.1328,1.1748,1.1748,0,0,1-.886.8227,1.8225,1.8225,0,0,1-.9215.4746c-1.328-.2627-1.2024.0211-1.6454-0.3375a0.8,0.8,0,0,1,.1266-0.232,2.0186,2.0186,0,0,1-.0844-0.3237,9.6739,9.6739,0,0,1,.1688-1.1319l1.329-2.922,0.2109-.8118c0.2317-.6177.0526-1.13,0.2531-2.0251,0.1546-.34.266-0.7027,0.3586-0.9493a3.6729,3.6729,0,0,0,.1055-0.9915l0.5907-.4219a3.1522,3.1522,0,0,1,.443-0.4219,1.31,1.31,0,0,1,.6877,1.035V47.98a1.36,1.36,0,0,0-.0463.3708,3.749,3.749,0,0,0-.1351,1.44c0.2953,1.0847.0548,0.6651-.2324,2.5645l-0.1077.4735c0.2629,0,.4892-0.5048,1.03-1.3694a6.86,6.86,0,0,1,3.6139-2.3226,4.1245,4.1245,0,0,1,1.0336-.7805l0.9071-.3586c0.17,0,.3075-0.1569.8173-0.25,0.4016,0,.1109.2736,0.1109,0.6292a4.3716,4.3716,0,0,1-.19.7805L74.55,50.3391a24.3627,24.3627,0,0,1-.9565,3.5014l-0.2085.6483c-0.4013,1.1892-1.0413,1.6692-1.057,2.3334l-0.225.8438C71.8558,58.1756,72.0028,58.45,71.5547,58.45Z"/><path class="cls-1" d="M93.923,39.0459h0.0231a0.1872,0.1872,0,0,1,.1852.2315,2.9706,2.9706,0,0,1-.3009,1.0193l-0.3243.7876a8.3407,8.3407,0,0,1-1.2743,2.3165H92.093A1.822,1.822,0,0,0,91.3979,43.1a7.72,7.72,0,0,0-4.4939,1.0887l-0.1622.2317-0.1388.3013a8.8294,8.8294,0,0,0-.2782,1.737q0,0.4405.1856,0.44a2.1572,2.1572,0,0,0,1.2275,1.0191h0.0465a5.4371,5.4371,0,0,0,1.2739-.857h0.1852a1.0055,1.0055,0,0,1,.2317.7644,5.27,5.27,0,0,0,1.1121.3939,2.0455,2.0455,0,0,1,.1852.88,4.2881,4.2881,0,0,1-.417,1.6912,10.9325,10.9325,0,0,1-4.7256,4.957,18.84,18.84,0,0,1-5.05,1.1582h-0.95l-0.0465-.07a3.4183,3.4183,0,0,1,1.1121-.857,22.7014,22.7014,0,0,1,4.3317-2.9417,22.5,22.5,0,0,0,2.9648-2.7334h0.0465l0.0231-.07a1.4547,1.4547,0,0,0-.9035-0.3939,4.7845,4.7845,0,0,0-2.0614-1.6213,3.2709,3.2709,0,0,1-.8108-1.9691,1.5188,1.5188,0,0,1,.0461-0.37l0.2317-.4634a16.1286,16.1286,0,0,0,.6022-2.5482q0.2546-.6482,3.0347-2.5017a10.5607,10.5607,0,0,1,3.0578-.8339h0.6022a1.4842,1.4842,0,0,0,.44-0.0926,0.1588,0.1588,0,0,0,.07.0926A3.6429,3.6429,0,0,0,93.923,39.0459Z"/><path class="cls-1" d="M95.5077,42.5294h0.0461a6.3881,6.3881,0,0,0,1.6678.6022h0.07a2.9786,2.9786,0,0,0,.556-0.07,0.2556,0.2556,0,0,1,.0926.1622,0.0946,0.0946,0,0,1-.0231.07l-0.1391.2782-0.3474.741q0.0227,0.3016,1.8069.8342a0.6219,0.6219,0,0,1,.3474-0.1622H99.77a1.7864,1.7864,0,0,1,.4865.9031,0.3852,0.3852,0,0,1,.37.2548v0.0465a4.6986,4.6986,0,0,1-1.5518,1.1813h-0.116l-0.1852-.1388a1.4014,1.4014,0,0,1-.4634.1388,0.6493,0.6493,0,0,1-.51-0.3009,12.25,12.25,0,0,1-1.7835,1.1348,15.2675,15.2675,0,0,0-1.5752,1.9226q-1.1584,2.6179-2.4556,5.1425l-0.0692.1391-0.3243.9035a7.2148,7.2148,0,0,0-1.0195,1.7835,3.654,3.654,0,0,0-.37.8108,6.8791,6.8791,0,0,0-.2086.8108,4.2945,4.2945,0,0,1-1.737.5326,0.3147,0.3147,0,0,1-.2086.1391,3.081,3.081,0,0,1,.2317-0.88l0.0231-.07q0.2546-.4628.417-0.8339-0.3476,0-.3474-0.2548a0.7454,0.7454,0,0,1,.0926-0.3243l0.0231-.0926q1.0887-2.3855,1.1582-2.5943l0.4865-1.413q1.1816-2.5245,1.5521-3.4282a15.59,15.59,0,0,0,1.0191-2.78c0-.0307-0.0079-0.0461-0.0231-0.0461a1.2287,1.2287,0,0,0-.44-0.1391,4.4223,4.4223,0,0,1-.6253.51,2.9491,2.9491,0,0,0-1.413-.88,0.5668,0.5668,0,0,1-.3474-0.556,1.6308,1.6308,0,0,1,.1388-0.5791l0.2317-.51q0.973-1.6444,1.529-1.6447h0.1157a18.4828,18.4828,0,0,1,2.1543.1622A3.7137,3.7137,0,0,1,95.5077,42.5294Z"/><path class="cls-1" d="M99.2564,48.15a22.3409,22.3409,0,0,1,2.803.6717c0.0461,0,.07.07,0.07,0.2083a11.8966,11.8966,0,0,1-.3477,1.9921A19.5343,19.5343,0,0,1,100.206,54.89a7.8543,7.8543,0,0,0-.7874,1.3666,2.865,2.865,0,0,1-2.2469.9961q-0.6724-.0692-0.6717-0.3243V56.8594a0.7819,0.7819,0,0,0,.556-0.3477H96.7547a1.2644,1.2644,0,0,0-.3474.0465q-1.6454,0-1.9691-1.0656a0.6132,0.6132,0,0,1-.2779-0.5791v-0.07c-0.0152-.1543-0.0234-0.3085-0.0234-0.4631a3.1942,3.1942,0,0,1,.116-0.8573l0.2779-.88a3.31,3.31,0,0,1,.6717-1.413Q97.681,48.15,99.2564,48.15Zm-1.6909,4.0074-0.1622.5791a8.7409,8.7409,0,0,0-.0465.88,6.2432,6.2432,0,0,0,.2779,1.9687l0.1391,0.44H97.82A11.0827,11.0827,0,0,0,98.909,53.57l0.2317-.6717a9.0648,9.0648,0,0,0,.2314-1.5521q0-.2779-0.0926-0.2779a1.4671,1.4671,0,0,0-.8339-0.3708A3.3376,3.3376,0,0,0,97.5655,52.1569Z"/><path class="cls-1" d="M105.14,46.9217h0.7878a3.0238,3.0238,0,0,1,1.6447.3243q-0.2551.9033-.2782,0.9961-0.2551.6719-1.7374,3.7526a0.4531,0.4531,0,0,0-.1622.2317,0.1982,0.1982,0,0,0,.1391.1388,4.9307,4.9307,0,0,0,1.2739-1.1579,14.047,14.047,0,0,0,2.2239-2.6408,1.4932,1.4932,0,0,1,1.0887-.88,1.5563,1.5563,0,0,1,.9035-0.2548q1.992,0.394,1.9921.9035a0.2079,0.2079,0,0,1-.0231.0926,1.8705,1.8705,0,0,1,.0231.3013,5.9259,5.9259,0,0,1-.0926.95l-1.7143,3.683v0.0929a17.4114,17.4114,0,0,0-.6483,2.27q-0.2319.51-.3708,0.88a6.1166,6.1166,0,0,0-.1852,1.3438l-0.0465.1852a0.8725,0.8725,0,0,1-.3474.51,3.4354,3.4354,0,0,1-1.0656-1.2278V57.392a1.3466,1.3466,0,0,0,.0465-0.3708,4.4117,4.4117,0,0,0-.2548-1.297q0.2546-1.4363,1.2044-4.8413l-0.1157-.3243a2.4762,2.4762,0,0,0-1.2047,1.297q-0.95,1.0892-3.6135,5.0268a2.7209,2.7209,0,0,1-.6717.6022h-1.2509a7.2022,7.2022,0,0,0-1.0191.1391,0.504,0.504,0,0,1-.6025-0.533,1.8374,1.8374,0,0,1,.0929-0.5326l0.1388-.3708q0.6482-1.899,1.8069-4.656l0.2083-.6483a10.1542,10.1542,0,0,0,.6256-2.78l0.1622-.417A1.1446,1.1446,0,0,1,105.14,46.9217Z"/><path class="cls-1" d="M119.4788,48.3348h0.3936a2.2641,2.2641,0,0,1,1.1582.7182,2.7963,2.7963,0,0,1,1.4826,2.5479q0.0227,0.3248.0231,0.5791a2.04,2.04,0,0,1-.0926.7413,1.3755,1.3755,0,0,1-1.2509.7644h-0.3009a1.99,1.99,0,0,0-.88.6025l-0.2083.0231a0.7209,0.7209,0,0,0-.4865-0.2086l-1.83.3477a0.9686,0.9686,0,0,1-.3939-0.0929,2.2578,2.2578,0,0,0-1.0656.417,0.0953,0.0953,0,0,0-.0231.07q0,0.3248,1.5983.44a3.11,3.11,0,0,0,.7644.0461q0.2546,0,1.0887-.0461v0.0926l-0.0926.1622a4.0666,4.0666,0,0,1-1.6678.7413,9.75,9.75,0,0,1-1.9.2548,6.0774,6.0774,0,0,1-2.9417-.44,2.4548,2.4548,0,0,1-1.32-.6717V55.4a10.66,10.66,0,0,1,.556-2.8956,6.9185,6.9185,0,0,1,1.32-2.0848,4.5,4.5,0,0,1,2.3626-1.413A19.2719,19.2719,0,0,1,119.4788,48.3348Zm-2.8956,3.6369a0.678,0.678,0,0,0-.0231.1622c0,0.0616.0152,0.0926,0.0461,0.0926q0.6254-.07.7413-0.07,0.1617,0,1.0887.0231a1.116,1.116,0,0,0,.7644-0.1622,3.9661,3.9661,0,0,0,.1852-0.37,2.328,2.328,0,0,0,.2317-0.88,0.5011,0.5011,0,0,0-.3243-0.5326h-0.2779a3.0569,3.0569,0,0,0-2.2239,1.413A0.7878,0.7878,0,0,1,116.5832,51.9716Z"/><path class="cls-1" d="M27.6877,48.1568l-0.0494-.1236-0.12-.0567c-0.7859-.3692-1.4824-0.7291-2.07-1.0706l-0.1691-.0982-0.1694.0982c-0.2774.1605-.4287,0.25-0.515,0.3039-0.9517.0442-1.988,0.6849-3.1631,1.9546a5.5415,5.5415,0,0,0-1.5864,2.1322l-0.0532.1078a4.4128,4.4128,0,0,0-.3586,1.706,4.8092,4.8092,0,0,0,.7881,2.5492l0.045,0.0725L20.34,55.7743c0.087,0.05.1651,0.0962,0.2353,0.14a1.4861,1.4861,0,0,0-.18.13l-0.0414.0405c-0.368.4249-.6251,0.7106-0.7642,0.85l-0.0443.0442-0.0812.1833a1.2,1.2,0,0,0-.1177.5027,1.2579,1.2579,0,0,0,.7652,1.0894l0.0768,0.0432h0.2182a0.6837,0.6837,0,0,0,.3222-0.0887,0.3891,0.3891,0,0,0,.0394.002h0.26a0.4077,0.4077,0,0,1,.1243.026l0.0954,0.032,0.0972-.0254a7.8744,7.8744,0,0,0,1.4134-.6338l0.0445-.0277a14.2218,14.2218,0,0,0,4.5984-6.1238,14.71,14.71,0,0,0,.5366-1.5765,3.8983,3.8983,0,0,0,.0633-0.6968A4.1183,4.1183,0,0,0,27.6877,48.1568ZM21.4615,56.426a0.4094,0.4094,0,0,0,.3861-0.3,1.21,1.21,0,0,0,.0959-0.4862V55.23H21.8464a7.4673,7.4673,0,0,1,.2088-1.0851,14.6245,14.6245,0,0,1,.57-2.7394,3.2012,3.2012,0,0,1,.3314-0.6005,5.3926,5.3926,0,0,1,1.2894-1.2317h0.2078a5.4982,5.4982,0,0,1,.7719.0392l0.0494,0a0.8886,0.8886,0,0,1,.0989.5633c0,0.0676-.0035.1388-0.01,0.2129-0.2055.74-.34,1.2673-0.41,1.61-0.0356.0827-.13,0.2861-0.3665,0.7693A17.2952,17.2952,0,0,1,23.24,55.0924c-1.2746,1.537-1.7721,1.6563-1.8943,1.6563a0.4249,0.4249,0,0,1-.1521-0.3451l0.0214,0.0224h0.2464Z"/><path class="cls-1" d="M41.068,47.2588a0.7921,0.7921,0,0,1,.3244,1.2338l-0.0261.043q-0.6942,1.22-.8572,1.5352l-0.05.1q-0.735,1.7217-.9707,2.195-0.1486.3013-.5178,0.9758,0.0516,0-.0355.172H38.97a15.7484,15.7484,0,0,0,1.4841-1.32q0.5726-.6027,1.1649-1.1909,0.7075-.7025,1.4242-1.3629a6.2218,6.2218,0,0,0,1.3872-.5738l0.0867-.0861a1.6821,1.6821,0,0,1,1.2309-.4017,2.0948,2.0948,0,0,1,.8771.1721,1.4948,1.4948,0,0,1-.1929,1.32q-0.0992.2012-.32,0.5738l-0.95,2.1234a7.9544,7.9544,0,0,1-.5893.9613l-0.2245.5307q-0.7294,1.3058-1.4519,2.4676-0.163.3158-.4921,1.0187a1.5131,1.5131,0,0,1-.2957.43,0.9287,0.9287,0,0,1-.1644.1291H41.8066a2.7408,2.7408,0,0,0-.8657-0.56q-0.4649,0,.1982-1.2912,0.9773-1.8937,1.213-2.3672a3.8345,3.8345,0,0,0,.1463-0.4018H42.4469l-0.2156.0431a32.9824,32.9824,0,0,0-3.0769,2.1663q-0.8229.7317-1.7781,1.4921Q37.22,57.56,37.09,57.689a1.5551,1.5551,0,0,1-.7585.5309,0.6438,0.6438,0,0,1-.3686-0.2153,1.8624,1.8624,0,0,1-.8767-0.6169q0.4542-.9467.6928-1.406l0.1106-.23q0.246-.33.8649-1.4058a15.05,15.05,0,0,0,.7185-1.8078l0.8925-2.5105a17.4361,17.4361,0,0,0,.858-2.0661l0.0523-.0861a0.1781,0.1781,0,0,1,.0406-0.0574,4.1566,4.1566,0,0,1,1.6655-.5595h0.086Z"/><path class="cls-1" d="M122.8142,39.4421a0.3617,0.3617,0,0,0-.0333-0.0265,0.5077,0.5077,0,0,0,.2419-0.134,0.4329,0.4329,0,0,0,.1183-0.307,0.484,0.484,0,0,0-.0705-0.2556,0.3884,0.3884,0,0,0-.1932-0.165,0.9444,0.9444,0,0,0-.33-0.0445h-0.7294v1.634h0.29V39.4555h0.1956a0.603,0.603,0,0,1,.104.0059,0.275,0.275,0,0,1,.0811.0361,0.4238,0.4238,0,0,1,.0936.0939c0.0376,0.0478.0865,0.1187,0.1455,0.21l0.2175,0.342h0.3583l-0.3113-.487A1.1193,1.1193,0,0,0,122.8142,39.4421Zm0.0311-.4675a0.2074,0.2074,0,0,1-.0344.116,0.1905,0.1905,0,0,1-.1.0763,0.6245,0.6245,0,0,1-.2053.0265h-0.3987V38.7651h0.4483a0.3359,0.3359,0,0,1,.2241.06A0.1884,0.1884,0,0,1,122.8453,38.9746Z"/><path class="cls-1" d="M122.4588,37.8129a1.5278,1.5278,0,1,0,1.5277,1.5277A1.5295,1.5295,0,0,0,122.4588,37.8129Zm1.2629,1.5277a1.263,1.263,0,1,1-1.2629-1.2631A1.2644,1.2644,0,0,1,123.7217,39.3406Z"/></svg>