<?xml version="1.0" encoding="utf-8"?>
<!-- Generator: Adobe Illustrator 19.2.1, SVG Export Plug-In . SVG Version: 6.00 Build 0)  -->
<svg version="1.1" id="Layer_1" xmlns="http://www.w3.org/2000/svg" xmlns:xlink="http://www.w3.org/1999/xlink" x="0px" y="0px"
	 viewBox="0 0 709.7 159.6" style="enable-background:new 0 0 709.7 159.6;" xml:space="preserve">
<style type="text/css">
	.st0{fill:#EF4136;}
	.st1{fill:#F7941E;}
	.st2{fill:#F15A29;}
	.st3{fill:url(#SVGID_1_);}
	.st4{fill:url(#SVGID_2_);}
	.st5{fill:url(#SVGID_3_);}
	.st6{fill:url(#SVGID_4_);}
	.st7{fill:url(#SVGID_5_);}
	.st8{fill:url(#SVGID_6_);}
	.st9{fill:url(#SVGID_7_);}
	.st10{fill:none;stroke:#FFFFFF;stroke-width:0;stroke-linecap:round;stroke-linejoin:round;}
</style>
<g>
	<path class="st0" d="M709.7,42.1L709.7,42.1L667.6,0l0,0v117.6h-26.2h0l-14-18.4l-42-55.3v73.7h-26.2h0V42.1h-4.2L512.9,0l0,0
		l-40.7,71.2v46.4h-26.2h0V71.2l-16.6-29.1h-58.4L328.8,0v94.2h42.1h8.1h0v23.4h-76.4V42.1h-7.9h0L252.6,0l0,0l-6.5,7.2L205.9,52
		l0,0c4,5.6,11.5,16.1,22.4,31.4c10.9,15.3,19,26.7,24.4,34.2h-29H222l-34.5-46.4l-11.8,13.1l0,0v33.3h-26.2V42.1h-38.9l-32-32.2
		l0,0c0,0,0,0,0,0c0.2,0.2,0.5,0.5,0.7,0.7c5.1,5.6,7.9,12.9,7.9,20.5c0,9.2-3,16-8.9,20.5c-1.3,1.1-2.7,2.1-4.2,2.9
		c-0.8,0.4-2.2,1-4.2,1.9c0,0,0,0,0,0c0,0,0,0,0,0c6.8,1.5,12.2,4.4,16.4,8.8c0.3,0.3,0.7,0.7,1,1c0.5,0.5,0.9,1.1,1.3,1.7
		c3.4,4.7,5.2,10.3,5.2,16.9c0.1,8-3,15.8-8.4,21.7c-6.5,7.3-17.8,10.9-34,10.9H0l42.1,42l0,0h51.5h98.1h0l0,0h26.2l0,0h46.3l0,0
		h30.6l0,0h0h50v0h0l0,0H421l0,0H488l0,0h26.2l0,0h0h87l0,0h26.2l0,0h56l0,0h26.2l0,0V42.1z"/>
	<polygon class="st0" points="175.8,0 175.8,48.3 198.9,23.1 	"/>
	<polygon class="st0" points="465.8,32.1 433.6,0 459,43.7 	"/>
	<polygon class="st0" points="641.4,62.6 641.4,42.1 625.7,42.1 625.7,42.1 583.7,0 641.4,75.7 	"/>
	<path class="st0" d="M26.2,68.3v27.1h0h13.5h4.5c7.5,0,13.1-0.9,16.9-2.8c3.8-1.9,5.6-5.5,5.6-10.9c0-0.5,0-0.9-0.1-1.3
		c-0.3-4.7-2.3-7.8-5.9-9.4c-4-1.7-10.3-2.6-19.1-2.6H26.2z"/>
	<path class="st0" d="M38.7,47.6c7.3,0,12.7-0.8,16.2-2.4c3.5-1.6,5.3-5,5.3-10.2c0-5.2-1.6-8.7-4.9-10.3c-3.3-1.7-8.7-2.5-16.5-2.5
		H26.2v25.4l0,0H38.7z"/>
</g>
<title>bklyn</title>
<g>
	<polygon class="st1" points="641.4,42.1 625.7,42.1 641.4,62.6 	"/>
	<polygon class="st1" points="709.7,159.6 709.7,159.6 709.7,42.1 709.7,42.1 	"/>
	<polygon class="st1" points="641.4,117.6 641.4,117.6 627.4,99.2 627.4,159.6 627.4,159.6 683.4,159.6 641.6,117.8 	"/>
	<path class="st1" d="M302.6,117.6V42.1h-7.9l-46.8,52c4,5.6,11.5,16.1,22.4,31.4c10.9,15.3,19,26.7,24.4,34.2h50v0L302.6,117.6z"/>
	<polygon class="st1" points="559.1,117.6 559.1,42.1 554.9,42.1 554.9,42.1 514.2,113.2 514.2,159.6 601.2,159.6 559.1,117.6 	"/>
	<polygon class="st1" points="445.9,117.6 445.9,71.2 429.3,42.1 370.9,42.1 370.9,42.1 370.9,42.1 370.9,94.2 379,94.2 379,94.2 
		421,136.3 421,136.3 421,159.6 421,159.6 488,159.6 445.9,117.6 	"/>
	<polygon class="st1" points="217.8,126.3 217.8,126.3 217.8,126.3 217.8,159.6 217.8,159.6 264.1,159.6 223.9,119.5 	"/>
	<path class="st1" d="M149.5,117.6V42.1h-38.9l8,8.1c1,0.8,1.9,1.6,2.8,2.5c5.1,5.6,7.9,12.9,7.9,20.5c0,0,0,0,0,0s0,0,0,0
		c0,0,0,0,0,0.1c0,9.2-3,16-8.9,20.5c-1.1,0.9-2.2,1.6-3.3,2.4l0,0c0,0-0.1,0-0.1,0.1l8.5,8.6c0.5,0.4,0.9,0.7,1.3,1.1
		c0.9,0.8,1.8,1.6,2.5,2.6c0,0,0,0,0,0c4.3,5,6.5,11.2,6.5,18.6c0.1,8-3,15.8-8.4,21.7c-6.5,7.3-17.8,10.9-34,10.9h98.1v0
		L149.5,117.6z"/>
	<path class="st2" d="M126.9,105.8l2.5,2.6C128.6,107.5,127.8,106.6,126.9,105.8z"/>
	<path class="st2" d="M120.4,93.7c-1.1,0.9-2.2,1.6-3.3,2.4l0,0C118.3,95.3,119.4,94.6,120.4,93.7c5.9-4.5,8.9-11.3,8.9-20.5
		C129.3,82.4,126.4,89.2,120.4,93.7z"/>
	<path class="st2" d="M247.9,94l46.8-52h0l0,0L247.9,94L205.9,52l0,0c4,5.6,11.5,16.1,22.4,31.4c10.9,15.3,19,26.7,24.4,34.2h-29
		l0,0h29l42.1,42h0c-5.4-7.5-13.5-18.9-24.4-34.2C259.4,110.1,252,99.6,247.9,94z"/>
	<polygon class="st2" points="191.6,159.6 191.6,159.6 191.6,159.6 	"/>
	<rect x="344.7" y="159.6" class="st2" width="0" height="0"/>
	<polygon class="st2" points="472.2,71.2 512.9,0 512.9,0 472.2,71.2 472.2,117.6 472.2,117.6 514.2,159.6 514.2,159.6 514.2,113.2 
			"/>
	<polygon class="st2" points="0,117.6 42.1,159.6 42.1,159.6 42.1,159.6 	"/>
	<path class="st2" d="M78.7,9.9l40,40.3c1,0.7,1.9,1.6,2.7,2.5c5.1,5.6,7.9,12.9,7.9,20.5c0,0,0,0,0,0c0-7.6-2.8-14.9-7.9-20.5
		c-0.8-0.9-1.7-1.7-2.8-2.5l-8-8.1L78.7,9.9L78.7,9.9C78.7,9.9,78.7,9.9,78.7,9.9L78.7,9.9z"/>
	<polygon class="st2" points="70,56.5 70,56.5 70,56.5 	"/>
	<polygon class="st2" points="175.8,117.6 217.8,159.6 217.8,126.3 217.8,126.3 175.8,84.3 175.8,84.3 	"/>
	<polygon class="st2" points="175.8,48.3 198.9,23.1 175.8,0 	"/>
	<polygon class="st2" points="252.6,0 252.6,0 246.2,7.2 	"/>
	<polygon class="st2" points="379,117.6 421,159.6 421,136.3 421,136.3 379,94.2 379,94.2 379,94.2 	"/>
	<polygon class="st2" points="328.8,94.2 370.9,94.2 370.9,42.1 370.9,42.1 370.9,42.1 328.8,0 	"/>
	<polygon class="st2" points="459,43.7 465.8,32.1 433.6,0 	"/>
	<polygon class="st2" points="641.4,75.7 641.4,62.6 625.7,42.1 625.7,42.1 583.7,0 	"/>
	<polygon class="st2" points="585.4,43.9 585.4,117.6 585.4,117.6 627.4,159.6 627.4,99.2 	"/>
	<polygon class="st2" points="667.6,117.6 641.4,117.6 641.6,117.8 667.6,117.6 709.7,159.6 709.7,42.1 709.7,42.1 709.7,42.1 
		667.6,0 667.6,0 	"/>
	<path class="st0" d="M66.7,80.3c-0.3-4.7-2.3-7.8-5.9-9.4c-4-1.7-10.3-2.6-19.1-2.6H26.2v27.1h0h13.5L66.7,80.3z"/>
	<path class="st0" d="M38.7,47.6c7.3,0,12.7-0.8,16.2-2.4c3.5-1.6,5.3-5,5.3-10.2c0-5.2-1.6-8.7-4.9-10.3c-3.3-1.7-8.7-2.5-16.5-2.5
		H26.2v25.4l0,0H38.7z"/>
	<polygon class="st0" points="205.9,52 247.9,94 294.7,42.1 294.7,42.1 252.6,0 246.2,7.2 	"/>
	<polygon class="st0" points="379,117.6 302.6,117.6 344.7,159.6 344.7,159.6 344.7,159.6 421,159.6 421,159.6 421,159.6 	"/>
	<polygon class="st0" points="472.2,117.6 472.2,117.6 472.2,117.6 472.2,117.6 445.9,117.6 488,159.6 488,159.6 514.2,159.6 
		514.2,159.6 	"/>
	<polygon class="st0" points="472.2,71.2 514.2,113.2 554.9,42.1 554.9,42.1 512.9,0 	"/>
	<polygon class="st0" points="709.7,159.6 667.6,117.6 641.6,117.8 683.4,159.6 683.4,159.6 709.7,159.6 709.7,159.6 	"/>
	<polygon class="st0" points="175.8,117.6 149.5,117.6 191.6,159.6 191.6,159.6 191.6,159.6 217.8,159.6 217.8,159.6 217.8,159.6 	
		"/>
	<polygon class="st0" points="252.6,117.6 223.7,117.6 223.7,117.6 222,117.6 187.6,71.2 175.8,84.3 217.8,126.3 217.8,126.3 
		223.9,119.5 264.1,159.6 264.1,159.6 294.7,159.6 294.7,159.6 	"/>
	<polygon class="st0" points="585.4,117.6 585.4,117.6 559.1,117.6 601.2,159.6 601.2,159.6 627.4,159.6 627.4,159.6 627.4,159.6 	
		"/>
	<path class="st1" d="M129.3,73.2C129.3,73.2,129.3,73.2,129.3,73.2C129.3,73.2,129.3,73.2,129.3,73.2
		C129.3,73.2,129.3,73.2,129.3,73.2z"/>
	
		<linearGradient id="SVGID_1_" gradientUnits="userSpaceOnUse" x1="107.9977" y1="71.4463" x2="136.1277" y2="99.5763" gradientTransform="matrix(1 0 0 -1 0 166)">
		<stop  offset="0.303" style="stop-color:#EF4136"/>
		<stop  offset="1" style="stop-color:#F15A29"/>
	</linearGradient>
	<path class="st3" d="M129.3,73.2C129.3,73.2,129.3,73.2,129.3,73.2C129.3,73.2,129.3,73.2,129.3,73.2
		C129.3,73.2,129.3,73.2,129.3,73.2z"/>
	<path class="st2" d="M118.7,50.2l-40-40.3l0,0c0.2,0.2,0.5,0.5,0.7,0.7c5.1,5.6,7.9,12.9,7.9,20.5c0,9.2-3,16-8.9,20.5
		c-1.3,1.1-2.7,2.1-4.2,2.9c-0.8,0.4-2.2,1-4.2,1.9l0,0c6.8,1.5,12.2,4.4,16.4,8.8l0,0l3.1,3.1l27.6,27.7c1.2-0.7,2.3-1.5,3.3-2.4
		c5.9-4.5,8.9-11.3,8.9-20.5c0,0,0,0,0-0.1c0-7.6-2.8-14.9-7.9-20.5C120.6,51.7,119.7,50.9,118.7,50.2z"/>
	
		<linearGradient id="SVGID_2_" gradientUnits="userSpaceOnUse" x1="82.476" y1="96.971" x2="110.606" y2="125.101" gradientTransform="matrix(1 0 0 -1 0 166)">
		<stop  offset="0.303" style="stop-color:#EF4136"/>
		<stop  offset="1" style="stop-color:#F15A29"/>
	</linearGradient>
	<path class="st4" d="M118.7,50.2l-40-40.3l0,0c0.2,0.2,0.5,0.5,0.7,0.7c5.1,5.6,7.9,12.9,7.9,20.5c0,9.2-3,16-8.9,20.5
		c-1.3,1.1-2.7,2.1-4.2,2.9c-0.8,0.4-2.2,1-4.2,1.9l0,0c6.8,1.5,12.2,4.4,16.4,8.8l0,0l3.1,3.1l27.6,27.7c1.2-0.7,2.3-1.5,3.3-2.4
		c5.9-4.5,8.9-11.3,8.9-20.5c0,0,0,0,0-0.1c0-7.6-2.8-14.9-7.9-20.5C120.6,51.7,119.7,50.9,118.7,50.2z"/>
	<path class="st2" d="M112,98.6c5.3,1.1,9.8,3.2,13.5,6.1l-8.5-8.6c-0.3,0.2-0.5,0.4-0.8,0.5C115.4,97,114,97.7,112,98.6z"/>
	<path class="st2" d="M86.4,65.3c0.3,0.3,0.7,0.7,1,1c0.5,0.5,0.9,1.1,1.3,1.7l0.3-0.2l0.5,0.5L86.4,65.3L86.4,65.3z"/>
	<path class="st1" d="M117,96.1C117.1,96.1,117.1,96.1,117,96.1L117,96.1C117.1,96.1,117.1,96.1,117,96.1L117,96.1z"/>
	
		<linearGradient id="SVGID_3_" gradientUnits="userSpaceOnUse" x1="47.7923" y1="0.6247" x2="119.5058" y2="72.3382" gradientTransform="matrix(1 0 0 -1 0 166)">
		<stop  offset="0.6182" style="stop-color:#EF4136"/>
		<stop  offset="1" style="stop-color:#F15A29"/>
	</linearGradient>
	<path class="st5" d="M117,96.1C117.1,96.1,117.1,96.1,117,96.1L117,96.1C117.1,96.1,117.1,96.1,117,96.1L117,96.1z"/>
	<path class="st2" d="M127.5,148.7c5.5-5.9,8.5-13.7,8.4-21.7c0-7.4-2.2-13.6-6.5-18.6c0,0,0,0,0,0l-2.5-2.6
		c-0.4-0.4-0.9-0.8-1.3-1.1c-3.7-2.9-8.2-5-13.5-6.1c2-0.9,3.4-1.5,4.2-1.9c0.3-0.2,0.5-0.3,0.8-0.5l0,0c0,0,0.1,0,0.1-0.1l0,0
		c0,0-0.1,0-0.1,0.1L89.5,68.4L89,67.9L88.7,68c3.4,4.7,5.2,10.3,5.2,16.9c0.1,8-3,15.8-8.4,21.7c-6.5,7.3-17.8,10.9-34,10.9H0
		l42.1,42h0h51.5C109.7,159.6,121,156,127.5,148.7z"/>
	
		<linearGradient id="SVGID_4_" gradientUnits="userSpaceOnUse" x1="39.6681" y1="8.7489" x2="111.3816" y2="80.4624" gradientTransform="matrix(1 0 0 -1 0 166)">
		<stop  offset="0.6182" style="stop-color:#EF4136"/>
		<stop  offset="1" style="stop-color:#F15A29"/>
	</linearGradient>
	<path class="st6" d="M127.5,148.7c5.5-5.9,8.5-13.7,8.4-21.7c0-7.4-2.2-13.6-6.5-18.6c0,0,0,0,0,0l-2.5-2.6
		c-0.4-0.4-0.9-0.8-1.3-1.1c-3.7-2.9-8.2-5-13.5-6.1c2-0.9,3.4-1.5,4.2-1.9c0.3-0.2,0.5-0.3,0.8-0.5l0,0c0,0,0.1,0,0.1-0.1l0,0
		c0,0-0.1,0-0.1,0.1L89.5,68.4L89,67.9L88.7,68c3.4,4.7,5.2,10.3,5.2,16.9c0.1,8-3,15.8-8.4,21.7c-6.5,7.3-17.8,10.9-34,10.9H0
		l42.1,42h0h51.5C109.7,159.6,121,156,127.5,148.7z"/>
	<path class="st0" d="M39.8,95.4h4.5c7.5,0,13.1-0.9,16.9-2.8c3.8-1.9,5.6-5.5,5.6-10.9c0-0.5,0-0.9-0.1-1.3L39.8,95.4z"/>
	
		<linearGradient id="SVGID_5_" gradientUnits="userSpaceOnUse" x1="13.6151" y1="34.8019" x2="85.3286" y2="106.5154" gradientTransform="matrix(1 0 0 -1 0 166)">
		<stop  offset="0.6182" style="stop-color:#EF4136"/>
		<stop  offset="1" style="stop-color:#F15A29"/>
	</linearGradient>
	<path class="st7" d="M39.8,95.4h4.5c7.5,0,13.1-0.9,16.9-2.8c3.8-1.9,5.6-5.5,5.6-10.9c0-0.5,0-0.9-0.1-1.3L39.8,95.4z"/>
	<path class="st2" d="M89.5,68.4L117,96.1c0,0,0.1,0,0.1-0.1L89.5,68.4z"/>
	
		<linearGradient id="SVGID_6_" gradientUnits="userSpaceOnUse" x1="99.4853" y1="79.9587" x2="127.6153" y2="108.0887" gradientTransform="matrix(1 0 0 -1 0 166)">
		<stop  offset="0.303" style="stop-color:#EF4136"/>
		<stop  offset="1" style="stop-color:#F15A29"/>
	</linearGradient>
	<path class="st8" d="M89.5,68.4L117,96.1c0,0,0.1,0,0.1-0.1L89.5,68.4z"/>
	
		<linearGradient id="SVGID_7_" gradientUnits="userSpaceOnUse" x1="33.9718" y1="14.4452" x2="105.6853" y2="86.1587" gradientTransform="matrix(1 0 0 -1 0 166)">
		<stop  offset="0.6182" style="stop-color:#EF4136"/>
		<stop  offset="1" style="stop-color:#F15A29"/>
	</linearGradient>
	<path class="st9" d="M89.5,68.4L117,96.1c0,0,0.1,0,0.1-0.1L89.5,68.4z"/>
	<line class="st10" x1="149.5" y1="0" x2="149.5" y2="0"/>
	<line class="st10" x1="472.2" y1="117.6" x2="472.2" y2="117.6"/>
</g>
</svg>
