<svg id="Layer_1" data-name="Layer 1" xmlns="http://www.w3.org/2000/svg" viewBox="0 0 726.0819 464.8371"><defs><style>.cls-1{fill:#be1e2d;}.cls-2{fill:#414042;}</style></defs><title>blackgate</title><path class="cls-1" d="M9.3019,303.165a5.5142,5.5142,0,0,0-1.0505.15l-2.07-.93-0.9-.72-1.08-.51c-0.78-.54-0.93-1.3494-1.59-2.04-0.12-.36-0.78-2.2808-0.96-2.6412-0.03-.21-0.78-1.65-0.87-1.86a7.9728,7.9728,0,0,1-.21-1.1409,11.8694,11.8694,0,0,1-.51-3.06l0.09-1.26a6.2466,6.2466,0,0,0-.09-1.35,4.0979,4.0979,0,0,1-.06-0.87,7.4508,7.4508,0,0,1,.06-1.11,7.4868,7.4868,0,0,0,.57-0.78c0.06-.03.3-0.78,0.36-0.87,0-.12.45-0.4806,0.66-0.9006,0.12-.24.9-1.95,0.96-2.1606,0.03-.06.18-0.33,0.18-0.33a1.0223,1.0223,0,0,1,.18-0.18c0.03-.1807.45-0.7507,0.45-0.9006a4.4732,4.4732,0,0,0,2.61-1.29,13.85,13.85,0,0,0,1.02-1.2908,2.077,2.077,0,0,0,.36-0.33,4.6556,4.6556,0,0,1,1.26.21c0.6305,0,1.14-.7795,2.19-0.7795a1.593,1.593,0,0,1,.57.06c0.09,0,.81.15,0.87,0.15a7.241,7.241,0,0,0,1.14-.3594,6.168,6.168,0,0,1,1.98-.2105c0.21,0,.84.06,0.87,0.06,0,0,.33.1509,0.36,0.1509h1.05a1.1293,1.1293,0,0,1,.36.21h0.78a12.4213,12.4213,0,0,1,1.41-.21,6.1965,6.1965,0,0,0,1.08.5094,0.4694,0.4694,0,0,0,.21.2105,2.32,2.32,0,0,0,.3.54,1.2013,1.2013,0,0,1,.96.75,1.8209,1.8209,0,0,1-.18.84,4.49,4.49,0,0,0-.24,1.2908,4.8756,4.8756,0,0,1,.57.75,3.3182,3.3182,0,0,1,.21,1.23c0,0.6305-.27,2.49-1.1106,2.49-1.29,0-3.3006-4.47-4.5005-5.4006a5.3015,5.3015,0,0,0-1.62-.2105c-0.99-.03-1.8-0.87-2.79-0.87l-0.6906.57c-0.78.6305-2.22,0.6305-3,1.0505-0.99.66-1.71,1.65-2.82,2.1606v1.98a4.6408,4.6408,0,0,0-.96,2.0107c-0.06.12-.39,0.84-0.39,0.9a5.0933,5.0933,0,0,0,.21.7209l-0.36,2.43a3.73,3.73,0,0,0,.36,1.35c0.33,1.35.39,2.61,1.26,3.75,0.06,0.1509,1.2,1.2,1.29,1.35,0.06,0.0606.12,1.08,0.15,1.23a8.9126,8.9126,0,0,0,.75.7507,6.5038,6.5038,0,0,1,1.02.5094c0.84,0.5709,1.41,1.65,2.49,1.77h1.14l0.75,0.42h0.51l2.0708-.42,1.14,0.24a11.9647,11.9647,0,0,0,1.83-.6,3.1182,3.1182,0,0,0,.57-1.411c0-.15.15-1.14,0.15-1.26,0.2105-.93.6305-1.8,0.93-2.7306,0.3-1.14.06-1.3494,1.2-1.77a5.5861,5.5861,0,0,1,.99-0.3594h0.03a2.1429,2.1429,0,0,1,1.56,1.23v2.7a2.5993,2.5993,0,0,1,.15,1.261c0,2.01-3.0905,3.6908-4.65,4.35a3.4008,3.4008,0,0,1-.72.15,19.9319,19.9319,0,0,1-2.4,1.3206c-0.15,0-1.5.15-1.92,0.15-0.21,0-1.71.03-2.28,0.03-0.42,0-1.5-.03-1.56-0.03a6.49,6.49,0,0,1-2.19-.72Z"/><path class="cls-1" d="M45.7544,295.6633c0-.27-0.24-2.28-0.36-2.91v-0.3594l0.36-1.08V287.262a1.1,1.1,0,0,1-.15-0.57v-0.69a25.7064,25.7064,0,0,0-1.29-5.1305,8.778,8.778,0,0,1-1.4705-1.261c-0.57-1.14-2.22-1.14-2.22-1.86,0-.84.87-0.93,1.65-0.93h0.93c0.06,0,.48-0.15.57-0.15a17.846,17.846,0,0,1,1.83-.18s0.66-.0308.87-0.0308c0.27,0,.9.0308,0.96,0.0308l2.3707,0.18c0.27,0,2.49-.33,2.76-0.36h0.06a1.551,1.551,0,0,1,1.59,1.53c0,1.3206-2.28,1.4706-3.3308,2.1011-0.24.3-.93,1.08-0.93,1.14a10.3387,10.3387,0,0,0-.15,1.08l-0.21.72v5.6717l0.21,0.72v2.76c0.06,0.72.36,1.29,0.36,1.95l-0.21,2.0405a2.8587,2.8587,0,0,0,.21.36c0.15,0.21,1.05,1.08,1.26,1.29,0.03,0,.36.18,0.42,0.2105,0.15,0.1192,1.5907,1.14,1.8007,1.26,1.41,0.93,2.49.72,4.2007,0.93a15.7713,15.7713,0,0,0,1.62.3594l1.14-.21,1.44,0.21a6.38,6.38,0,0,0,2.4-1.65,1.2131,1.2131,0,0,0,.42-0.99,7.6246,7.6246,0,0,1,.15-1.0505c0.51-.7795.3-1.59,0.87-2.34v-2.64c0-1.08.57-2.0107,0.57-3.1506a7.1452,7.1452,0,0,0-.09-1.3206c0-1.8-.15-2.7-0.21-5.3411a2.8372,2.8372,0,0,0-.84-1.59,8.6986,8.6986,0,0,0-1.08-.6007c-0.99-.45-3.8407-0.6593-3.8407-2.07,0-1.56,1.62-1.59,2.9108-1.59h1.29l0.93,0.21h4.4107a6.9976,6.9976,0,0,0,.75.1807c0.36,0.06,2.28.33,2.7008,0.33a0.6712,0.6712,0,0,1,.39.78V277.69c0,0.78-.57.84-1.14,1.35-0.24.27-1.71,1.68-1.9506,2.0405a3.9211,3.9211,0,0,0-1.32,1.95l-0.57,5.1613a1.4516,1.4516,0,0,0-.21.78l0.06,0.87c-0.06.15-.15,1.4706-0.21,1.65-0.15,3.2708.27,5.1613-1.8,7.8611l-0.75.7209a16.4522,16.4522,0,0,1-1.59,1.65,2.6162,2.6162,0,0,0-.99.15,12.7264,12.7264,0,0,1-1.08,1.11,7.7868,7.7868,0,0,1-1.11.57,6.7381,6.7381,0,0,1-1.08.15c-0.15.06-1.4706,0.51-1.65,0.57,0,0-.78.0606-1.05,0.0606a18.5117,18.5117,0,0,1-3.1208-.6305h-1.14a7.7711,7.7711,0,0,1-2.37-.72c-0.48-.2105-1.7406-0.84-1.83-0.9006a9.7075,9.7075,0,0,1-.87-1.29,7.9083,7.9083,0,0,1-1.68-2.19Z"/><path class="cls-1" d="M88.7788,299.4444c0-.72.09-1.65,0.84-1.65h0.24a2.49,2.49,0,0,1,1.47,1.44l0.15,0.7209a2.698,2.698,0,0,0,.42.3892l0.3,0.1807c0.06,0.06.33,0.69,0.42,0.75,0.06,0.0308.27,0.3,0.36,0.36a2.226,2.226,0,0,1,.63-0.0606,2.1821,2.1821,0,0,1,1.35.421,6.6974,6.6974,0,0,0,1.35.15,7.8362,7.8362,0,0,0,1.41-.15c0.81-.1509,2.5206-3.0007,2.5206-3.6908v-0.36c0-.36-0.15-1.5-0.15-1.62a1.5443,1.5443,0,0,1-.36-0.57c-0.3-.51-0.3-1.29-0.93-1.5907-0.06-.06-0.51-0.18-0.51-0.21a3.2384,3.2384,0,0,1-.57-0.54c-0.18-.15-0.9-0.6-1.11-0.72-0.09-.09-0.99-0.51-1.08-0.57a5.0334,5.0334,0,0,1-.72-0.5709c-1.6806-1.14-2.34-.87-3.4808-2.7-0.27-.4508-1.05-1.7108-1.11-1.8608a3.5966,3.5966,0,0,1-.18-0.72v-3.6312c0-.06.39-1.6195,0.57-2.19,0.24-1.14.72-.87,1.44-1.44,0.21-.2105,1.65-1.68,1.83-1.8906a3.7915,3.7915,0,0,1,1.08-.3594,11.7459,11.7459,0,0,1,3.5408-.51h0.87c0.48,0,2.5807.09,3.0608,0.15,0.72,0.27,2.22,1.56,2.22,2.61a3.77,3.77,0,0,0-.15.72v1.4408c-0.06.15-.3,1.1995-0.42,1.47-0.03.2105-.24,0.2105-0.45,0.2105h-0.6305a3.2583,3.2583,0,0,1-.72-1.1707c-0.12-.0894-0.72-0.72-0.9-0.9294a1.0531,1.0531,0,0,1-.39-0.15c-0.48-.24-0.39-0.93-0.9-1.2908-0.3-.12-1.86-0.63-2.22-0.72H96.97c-0.24.21-1.29,1.23-1.44,1.44a4.698,4.698,0,0,0-.57,2.61c0,1.3812.78,2.1606,1.65,3.2708,0.72,0.96,1.77.51,2.55,1.08,0.09,0.09.99,0.8708,1.08,0.93,0.18,0.12.96,0.6305,1.14,0.72a4.299,4.299,0,0,0,.75.36,8.0346,8.0346,0,0,0,.51.96l1.44,1.44,0.57,0.36a2.6667,2.6667,0,0,1,.57,2.07v1.92a2.4026,2.4026,0,0,0-.18,1.11v0.93a4.1383,4.1383,0,0,1-.21.72,4.0708,4.0708,0,0,1-.54.72,3.465,3.465,0,0,1-.21.7209l-0.15.57c-0.24.33-1.56,1.74-1.8,1.98a5.3606,5.3606,0,0,1-.57.42c-0.12,0-1.14.12-1.32,0.15-0.99.2105-1.86,1.0505-2.91,1.11-0.03,0-.96.0308-1.38,0.0308l-1.35-.0308c-0.15-.06-0.78-0.33-0.9-0.3892-0.96-.36-2.0107-0.1807-2.9406-0.7209a3.9925,3.9925,0,0,1-1.98-3.06v-0.57Z"/><path class="cls-1" d="M134.1713,303.9157c-0.42,0-.84-0.2105-1.32-0.2105a15.9147,15.9147,0,0,1-2.4307.36h-0.63a0.6816,0.6816,0,0,1-.15-0.51,2.0112,2.0112,0,0,1,.33-1.11,9.332,9.332,0,0,1,.78-0.72c0.93-.81,1.74-0.1509,2.8507-1.4408,0.03-.06.21-0.33,0.21-0.36v-2.7a7.1258,7.1258,0,0,1-.54-2.61v-0.3l0.33-1.1409c0-.06-0.33-0.7795-0.33-0.9v-0.57l0.21-1.5907c0-.36-0.21-0.57-0.21-0.9006l0.54-1.08a2.0225,2.0225,0,0,0-.48-0.72v-3.2708l-0.27-.57V280.3c0-.7795-1.9506-0.48-2.7008-0.69a4.0723,4.0723,0,0,0-1.23-.42c-0.93,0-1.14.96-2.0405,1.11-0.15.0606-1.5,0.15-1.59,0.2105a2.9364,2.9364,0,0,0-.57.15,8.1365,8.1365,0,0,0-.72.72,4.9824,4.9824,0,0,0-.18.7209l-0.39.42s-0.48.1192-.54,0.15c-0.2105.18-1.14,1.05-1.35,1.26a1.36,1.36,0,0,1-.81-0.51v-1.32c0-1.35.03-4.921,2.1606-4.921l1.98,0.27c0.27,0,.87-0.0606.93-0.0606a5.3473,5.3473,0,0,1,1.62-.15,25.5373,25.5373,0,0,1,3-.36c0.57,0,1.0505.2105,1.65,0.2105l1.83-.2105h0.42a0.7284,0.7284,0,0,1,.72.36h2.19a3.8455,3.8455,0,0,0,.72-0.21h0.36c0.51,0.0894,2.0708.21,2.19,0.21l0.36,0.15s0.21,0.0606.24,0.0606a3.9071,3.9071,0,0,0,1.53-.78c0.3-.0606,1.08-0.36,1.14-0.36h2.7a1.2724,1.2724,0,0,0,.57.1807h1.29a9.034,9.034,0,0,1,.84.9,3.442,3.442,0,0,1,.93,2.5509,2.6881,2.6881,0,0,1-.21.57v2.91c0,0.15-.21.15-0.33,0.15a0.8631,0.8631,0,0,1-.57-0.15l-1.44-.9c-0.21-.2105-1.77-1.5-2.01-1.65a1.694,1.694,0,0,0-.54-0.36l-0.72-.57a7.3772,7.3772,0,0,0-1.2605-.54h-2.8805a2.8922,2.8922,0,0,1-.36.21c-0.39.2105-1.6806,0.93-1.83,1.0505a0.28,0.28,0,0,0-.21.3v0.42a1.8913,1.8913,0,0,0,.21.36c0.3,1.4706.51,2.76,0.72,4.2012a30.2688,30.2688,0,0,1,.51,4.32v2.91c0.06,0.2105.21,1.9809,0.21,2.22l-0.21,2.5509c0,0.6305.06,2.34,0.75,2.7008a16.5535,16.5535,0,0,1,2.1606.72,1.26,1.26,0,0,1,1.14,1.35c0,1.2-1.23,1.56-2.28,1.56h-0.45l-0.57-.3594h-1.41c-0.27-.0606-1.83-0.51-2.0107-0.5709h-0.69C135.1915,303.3447,134.9512,303.9157,134.1713,303.9157Z"/><path class="cls-1" d="M168.0734,297.2242a7.0009,7.0009,0,0,0-.15-0.99,4.1231,4.1231,0,0,0-.57-0.51,4.5519,4.5519,0,0,1-.36-1.1409,9.2866,9.2866,0,0,0-.39-1.11,3.0226,3.0226,0,0,0-.36-0.57l-0.15-.3c0-.12.15-0.69,0.15-0.72,0-.2105.06-0.9006,0.06-1.5609,0-.69-0.06-1.32-0.06-1.56l0.2105-.57c0-.12.12-1.14,0.15-1.3206a6.3484,6.3484,0,0,1,.75-0.9294,3.2429,3.2429,0,0,1-.18-0.51,0.3094,0.3094,0,0,1-.03-0.09l0.03-.12a6.33,6.33,0,0,1,1.32-1.8,8.5476,8.5476,0,0,0,1.23-1.11c0.36-.45.57-1.08,0.93-1.5907a0.4023,0.4023,0,0,1,.18-0.21,28.7111,28.7111,0,0,1,2.7306-1.9809,10.01,10.01,0,0,1,1.11-.57l0.72-.57c0.21-.06,1.65-0.15,1.86-0.15a4.4516,4.4516,0,0,1,.87-0.36,8.9474,8.9474,0,0,1,2.34-.42,15.26,15.26,0,0,1,2.97.7209c2.19,0.5094,4.3511.72,6.2412,2.07a8.8881,8.8881,0,0,0,.93.9,4.9679,4.9679,0,0,0,.72.15,5.5125,5.5125,0,0,1,.51,1.2908,7.5163,7.5163,0,0,0,.57.72l0.15,0.93a4.4118,4.4118,0,0,0,.75.75v1.65c0.03,0.57.78,1.65,0.93,2.4009a12.9048,12.9048,0,0,1,.21,2.8507v1.14c0,0.09-.15.81-0.21,1.08-0.12.48-.36,1.62-0.36,1.65a20.2257,20.2257,0,0,1-1.32,1.83c-0.03.09-.6,1.14-0.72,1.2908-0.51.72-1.23,1.29-1.8007,1.98a3.9228,3.9228,0,0,1-.75.93,9.0733,9.0733,0,0,0-1.5,1.08,1.5773,1.5773,0,0,1-.3.54c-0.12.0894-.99,0.15-1.14,0.21a35.7146,35.7146,0,0,0-3.2708,1.5h-1.77a15.2512,15.2512,0,0,1-5.1911-.93l-0.36-.21a2.0348,2.0348,0,0,0-.36-0.36,8.4929,8.4929,0,0,0-.93-0.21c-2.91-.6305-4.3208-3.241-6.3911-5.1018v-0.0894Zm6.9615,1.77a0.3585,0.3585,0,0,0-.06.2393c0,0.6305.99,0.93,1.35,1.2,0.8405,0.6305,1.62,1.65,2.7907,1.65a8.8684,8.8684,0,0,0,1.26.12,5.2367,5.2367,0,0,0,1.02-.12l0.57-.21,0.84-.0308,0.84,0.0308a1.278,1.278,0,0,0,.36-0.1807,8.2793,8.2793,0,0,0,.87-0.54c0.18-.0894.99-0.99,1.11-1.0793l0.57-.36a7.6455,7.6455,0,0,0,1.95-2.9709,5.26,5.26,0,0,0,.21-1.23,31.7736,31.7736,0,0,0,.18-3.33,17.9076,17.9076,0,0,0-.18-2.5509,1.5093,1.5093,0,0,1-.15-0.84v-0.72a1.1638,1.1638,0,0,0-.06-0.45,3.7971,3.7971,0,0,0-.72-1.26c-0.3-.7209-0.45-1.2908-0.72-2.0107a2.3477,2.3477,0,0,0-.15-0.36l-0.57-.96c0-.03-0.12-0.6-0.15-0.72-0.84-1.14-2.19-1.5907-3.48-2.1606a3.9368,3.9368,0,0,0-.57-0.18h-1.26l-0.93-.2105h-1.83l-1.08.54a5.0818,5.0818,0,0,0-1.08.42c-0.69.4508-1.29,0.96-2.0405,1.4408a1.2792,1.2792,0,0,0-.21.15,4.633,4.633,0,0,1-.15.93l-0.36.3594a16.0418,16.0418,0,0,0-.72,1.4706v0.8708c-0.06.18-.36,1.05-0.36,1.14v0.27l0.36,1.77c0,0.42-.36.66-0.36,1.14,0,1.29.57,2.07,0.72,3.21l0.36,3.2708,0.36,0.57a1.5475,1.5475,0,0,1,.15.36Z"/><path class="cls-1" d="M237.5329,303.7647a8.5126,8.5126,0,0,1-1.23-.06,5.1511,5.1511,0,0,1-1.14-1.14,1.0647,1.0647,0,0,1-.3-0.57c0-1.7108,3.7211-.78,4.291-2.9113v-3.1506a4.8347,4.8347,0,0,0,.33-0.84v-0.63c-0.06-.15-0.6-1.0505-0.6-1.1409-0.03-.21-0.24-1.65-0.3-2.01v-2.3106c0-.09-0.27-1.08-0.27-1.1707-0.15-.54-0.51-2.91-0.57-3.45a0.9294,0.9294,0,0,0-.3-0.03c-0.87,0-1.44,1.44-1.71,2.07-0.21.45-1.62,4.1108-1.77,4.6212-0.3.84-1.08,1.14-1.44,2.01a3.3366,3.3366,0,0,0-.27.84c-0.06.2105-.27,1.5609-0.3,1.77,0,0.15-.54,1.0207-0.57,1.1409v1.44c-0.12,1.0505-.78,5.1911-2.2808,5.1911h-0.33a6.9689,6.9689,0,0,1-2.2808-2.91,3.8419,3.8419,0,0,1-.3-1.14c-0.12-.2105-0.27-1.5311-0.33-1.7108a3.92,3.92,0,0,0-.24-0.87,2.5734,2.5734,0,0,1-.57-0.57c-0.12-.2105-0.27-1.5609-0.33-1.77,0-.0606-0.45-1.08-0.57-1.411a2.2555,2.2555,0,0,1-.24-0.6,6.2319,6.2319,0,0,1-.9-1.14,17.2631,17.2631,0,0,1-.57-2.0405,2.0893,2.0893,0,0,1-.3-0.57,3.944,3.944,0,0,1-.57-0.8708,5.7707,5.7707,0,0,1-.57-1.14,2.7831,2.7831,0,0,0-1.14-.57l-0.33.3c-0.09.36-.51,2.37-0.57,2.8507a41.7879,41.7879,0,0,0-.57,6.3906c0,0.15-.36,1.2908-0.36,1.411v2.64c0.21,0.21,1.26,1.2,1.5,1.41,0.93,0.66,2.61-.39,2.61,1.92v0.09a5.0741,5.0741,0,0,1-.57.57,0.6085,0.6085,0,0,1-.18.06,0.6032,0.6032,0,0,0-.18-0.06c-0.06,0-.99-0.27-1.17-0.27s-2.31.27-2.58,0.27c-0.09.06-1.65,0.06-2.34,0.06-0.57,0-2.13,0-2.2808-.06-0.87,0-2.58.06-2.58-1.26,0-2.1011,3.27-1.8,4.2905-3.06a10.3043,10.3043,0,0,0,.9-1.7108c0.09-.03.24-0.24,0.36-0.3a1.341,1.341,0,0,1-.69-1.14,3.1635,3.1635,0,0,1,.12-0.3009c0.03-.54.72-4.6807,0.78-5.1911,0.09-.3892.24-3.69,0.36-4.05,0.15-1.53.87-2.8805,0.87-4.4712a2.6059,2.6059,0,0,0-1.23-2.4605c-0.39-.03-2.19-0.2393-2.61-0.3-0.72-.15-1.44-0.3-1.44-1.14,0-1.2,1.59-1.77,2.58-1.77,0.15,0,.84.33,0.9,0.33a7.0278,7.0278,0,0,0,.93-0.33h0.93a23.25,23.25,0,0,1,4.2612.33c1.8,0.24,2.58,4.921,3.1506,6.332,0.06,0.15.78,1.56,0.9,1.74,0.03,0.12.24,1.26,0.24,1.4706,0.06,0.09.54,1.23,0.63,1.41a16.7661,16.7661,0,0,0,.57,2.0107,6.063,6.063,0,0,0,.27,1.4706c0.78,1.74,2.22,2.64,2.58,4.62a1.2563,1.2563,0,0,1,.15.0308c0.4205,0,.48-0.6305.48-0.8708,0-.51-0.42-0.84-0.42-1.41,0-1.23,1.83-1.98,2.13-3.2708,0.06-.21.27-1.77,0.27-1.98a5.5118,5.5118,0,0,1,.3-0.6007,20.84,20.84,0,0,0,2.04-3.45c0.57-1.5,1.02-3.51,1.44-4.921,0.57-2.22.3-2.76,2.8507-2.91,0.33,0,2.34-.24,2.6407-0.24,0.99-.06,2.61-0.33,3.6-0.33h0.15a2.8219,2.8219,0,0,0,.57.33c0.09,0,1.35.24,1.4408,0.24a0.7643,0.7643,0,0,1,.33.72V277.48c0,1.14-.84,1.11-1.77,1.41-0.06,0-.51.27-0.57,0.27-0.21.03-.72,0.03-1.2,0.03a10.4588,10.4588,0,0,1-1.14-.03l-0.48.45,0.42,6.8116v6.6309a11.5986,11.5986,0,0,1,1.5306,5.1911,0.843,0.843,0,0,0,.3.27c1.2,0.66,5.4612,1.77,5.4612,3.4813a2.5117,2.5117,0,0,1-2.2505,2.01h-0.36c-0.27,0-2.58-.24-2.85-0.3H242.934c-0.21,0-1.35-.27-1.44-0.27h-0.27C239.9934,303.4351,238.8535,303.7647,237.5329,303.7647Z"/><path class="cls-1" d="M476.1928,304.2155l-0.54-.2105-1.86-.3594a23.4843,23.4843,0,0,1-2.55-.8708,9.035,9.035,0,0,1-1.59-.57,1.5354,1.5354,0,0,0-.2105-0.15l-1.29-1.68a9.2923,9.2923,0,0,0-.75-1.1409,1.3681,1.3681,0,0,1-.15-0.3c-0.36-.93-0.87-1.71-1.29-2.61a1.9065,1.9065,0,0,1-.15-0.51,35.5887,35.5887,0,0,1-.4205-4.77,13.57,13.57,0,0,1,.78-4.3511,3.2694,3.2694,0,0,1,.15-0.78c0.06-.12.69-0.96,0.78-1.05a1.7116,1.7116,0,0,1,.15-0.42,8.9179,8.9179,0,0,1,2.55-3.8407l0.72-.51,0.93-.93,0.36-.54a2.8635,2.8635,0,0,1,1.47-.57c0.06,0,.27-0.15.36-0.15l0.57-.42c0.15,0,1.65-.09,1.83-0.15,0.03,0,.87-0.36,1.29-0.57a0.5692,0.5692,0,0,0,.3-0.1509,5.0124,5.0124,0,0,0,1.11.0606,5.8074,5.8074,0,0,0,1.14-.0606c0.09,0,.81-0.3594.87-0.3594l2.2207-.36h0.39l1.23,0.36a5.3327,5.3327,0,0,1,.72.3594h1.83a1.7867,1.7867,0,0,1,.42.1509c1.56,0.99,2.7,1.71,2.7,3.78v0.4806l-0.18.5094c-0.03.15-.09,1.5-0.18,1.6811a13.1326,13.1326,0,0,1-1.11,1.0793,0.75,0.75,0,0,1-.51.2105,1.1077,1.1077,0,0,1-.72-0.36c-1.56-1.92-2.55-3.9906-4.9508-4.77-0.21-.0606-1.17-0.3307-1.44-0.36h-0.4205c-0.51.03-2.91,0.39-3.42,0.51a7.12,7.12,0,0,0-1.5.7795c-0.18.09-1.3206,1.2908-1.4706,1.4408,0,0-.3.12-0.36,0.15-2.5807,1.56-4.2007,5.1613-4.2007,8.4311,0,1.3812,0,3.2112,1.08,4.2012l0.75,2.7306c0.18,0.75,1.08.96,1.65,1.26a26.1581,26.1581,0,0,1,1.4408,2.22c0.36,0.4806.93,0.3307,1.47,0.5709a4.1075,4.1075,0,0,1,.72.5392,4.4677,4.4677,0,0,0,2.7008.7209h0.63c0.09,0,.78-0.36.93-0.36a2.8056,2.8056,0,0,1,.72-0.15c1.77-.57,1.05-1.56,1.98-2.9709l0.21-4.2c0.03-1.08-4.0507-.6305-4.0507-2.61,0-.24.06-0.3009,0.42-0.51a7.3773,7.3773,0,0,1,1.23-.51h0.06c0.66,0,1.29.36,1.92,0.36a0.9224,0.9224,0,0,0,.21-0.0606c2.01-.15,4.1406-0.3594,6.2114-0.3594l0.9,0.06c0.09,0,.21.15,0.42,1.2,0,0.81-2.2505,1.38-2.2505,3.0007,0,0.48.36,0.78,0.36,1.14,0,0.51-.36.72-0.36,1.35l0.57,2.4c0,0.8708-.3,1.08-0.93,1.8608a0.4649,0.4649,0,0,1-.21.15,3.6759,3.6759,0,0,1-.87.2105c-0.69.21-1.05,0.7795-2.0405,1.08-0.09.06-1.29,0.15-1.44,0.21-0.78.15-1.71,0.93-2.43,0.93-0.12,0-.48-0.03-0.48-0.03l-0.72-.39h-1.08a2.213,2.213,0,0,1-.6-0.15h-2.7306Z"/><path class="cls-1" d="M511.6851,295.6633c0-.27-0.24-2.28-0.36-2.91v-0.3594l0.36-1.08V287.262a1.1,1.1,0,0,1-.15-0.57v-0.69a25.7069,25.7069,0,0,0-1.29-5.1305,8.7579,8.7579,0,0,1-1.4706-1.261c-0.57-1.14-2.22-1.14-2.22-1.86,0-.84.87-0.93,1.65-0.93h0.93c0.06,0,.48-0.15.57-0.15a17.846,17.846,0,0,1,1.83-.18s0.66-.0308.87-0.0308c0.27,0,.9.0308,0.96,0.0308l2.3707,0.18c0.27,0,2.49-.33,2.76-0.36h0.06a1.551,1.551,0,0,1,1.59,1.53c0,1.3206-2.28,1.4706-3.3308,2.1011-0.24.3-.93,1.08-0.93,1.14a10.3387,10.3387,0,0,0-.15,1.08l-0.21.72v5.6717l0.21,0.72v2.76c0.06,0.72.36,1.29,0.36,1.95l-0.21,2.0405a2.9215,2.9215,0,0,0,.21.36c0.15,0.21,1.05,1.08,1.26,1.29,0.03,0,.36.18,0.42,0.2105,0.15,0.1192,1.5907,1.14,1.8007,1.26,1.41,0.93,2.49.72,4.2007,0.93a15.7713,15.7713,0,0,0,1.62.3594l1.14-.21,1.44,0.21a6.38,6.38,0,0,0,2.4-1.65,1.2131,1.2131,0,0,0,.42-0.99,7.6806,7.6806,0,0,1,.15-1.0505c0.51-.7795.3-1.59,0.87-2.34v-2.64c0-1.08.57-2.0107,0.57-3.1506a7.1066,7.1066,0,0,0-.09-1.3206c0-1.8-.15-2.7-0.21-5.3411a2.8372,2.8372,0,0,0-.84-1.59,8.6986,8.6986,0,0,0-1.08-.6007c-0.99-.45-3.8407-0.6593-3.8407-2.07,0-1.56,1.62-1.59,2.9108-1.59h1.29l0.93,0.21h4.4107a6.9976,6.9976,0,0,0,.75.1807c0.36,0.06,2.28.33,2.7008,0.33a0.6712,0.6712,0,0,1,.39.78V277.69c0,0.78-.57.84-1.14,1.35-0.24.27-1.71,1.68-1.9506,2.0405a3.9211,3.9211,0,0,0-1.32,1.95l-0.57,5.1613a1.4516,1.4516,0,0,0-.21.78l0.06,0.87c-0.06.15-.15,1.4706-0.21,1.65-0.15,3.2708.27,5.1613-1.8,7.8611l-0.75.7209a16.4522,16.4522,0,0,1-1.59,1.65,2.6162,2.6162,0,0,0-.99.15,12.7264,12.7264,0,0,1-1.08,1.11,7.7868,7.7868,0,0,1-1.11.57,6.7381,6.7381,0,0,1-1.08.15c-0.15.06-1.4706,0.51-1.65,0.57,0,0-.78.0606-1.0505,0.0606a18.5157,18.5157,0,0,1-3.12-.6305h-1.14a7.7711,7.7711,0,0,1-2.37-.72c-0.48-.2105-1.7406-0.84-1.83-0.9006a9.7075,9.7075,0,0,1-.87-1.29,7.9083,7.9083,0,0,1-1.68-2.19Z"/><path class="cls-1" d="M558.13,301.2149a0.6275,0.6275,0,0,0,.15-0.2105c0.21-.3.99-1.6195,1.08-1.83a2.0293,2.0293,0,0,0,.21-1.29c0-.8708-0.36-1.0207-0.36-1.77l0.57-3.0007c0-.15-0.06-0.4508-0.21-1.41v-1.4408a4.2573,4.2573,0,0,1-.36-1.14,10.1657,10.1657,0,0,0,.36-3.0007v-0.99l-0.21-.93a17.6524,17.6524,0,0,1,0-2.91,2.7716,2.7716,0,0,0-.87-1.11c-1.56-1.1409-3.9008.42-3.9008-2.2212,0-.7795.87-0.99,1.5-1.05h1.71a53.5629,53.5629,0,0,0,5.4011-.2105,1.9548,1.9548,0,0,1,1.14-.21h1.98c0.15,0,.99.21,1.08,0.21,0.57,0,1.32.0606,1.32,0.39a3.2136,3.2136,0,0,1,.09.57,5.1811,5.1811,0,0,1-.09.72c-0.12.42-1.41,0.7209-1.68,0.8708l-1.08.93a2.447,2.447,0,0,0-1.11.57c-0.03.06-.3,0.57-0.36,0.75-0.03.09-.15,0.51-0.15,0.51v2.76a8.2681,8.2681,0,0,1,.15.93c-0.03.15-.36,1.29-0.36,1.44v2.5509l-0.21,3.4207,0.57,2.64v0.9006c0,0.0894-.15.6593-0.15,0.87s0.69,1.35.72,1.5c0.21,0.69.12,2.19,1.26,2.19,0.42,0,.72-0.2105,1.08-0.2105,0.57,0,2.0405.3009,2.0405,1.1409,0,1.26-1.35,1.65-2.34,1.65l-3.2708-.1807h-0.84c-0.06,0-.63.1807-0.72,0.1807h-3.06l-1.29.18h-0.93c-0.84,0-2.4,0-2.4-1.14C554.5893,301.2149,557.02,301.9347,558.13,301.2149Z"/><path class="cls-1" d="M597.4915,303.9157c-0.42,0-.84-0.2105-1.32-0.2105a15.9147,15.9147,0,0,1-2.4307.36h-0.63a0.6817,0.6817,0,0,1-.15-0.51,2.0112,2.0112,0,0,1,.33-1.11,9.4112,9.4112,0,0,1,.78-0.72c0.93-.81,1.7406-0.1509,2.8507-1.4408,0.03-.06.21-0.33,0.21-0.36v-2.7a7.1258,7.1258,0,0,1-.54-2.61v-0.3l0.33-1.1409c0-.06-0.33-0.7795-0.33-0.9v-0.57l0.21-1.5907c0-.36-0.21-0.57-0.21-0.9006l0.54-1.08a2.0225,2.0225,0,0,0-.48-0.72v-3.2708l-0.27-.57V280.3c0-.7795-1.9506-0.48-2.7008-0.69a4.0712,4.0712,0,0,0-1.23-.42c-0.93,0-1.14.96-2.04,1.11-0.15.0606-1.5,0.15-1.59,0.2105a2.9364,2.9364,0,0,0-.57.15,8.1365,8.1365,0,0,0-.72.72,4.9824,4.9824,0,0,0-.18.7209l-0.39.42s-0.48.1192-.54,0.15c-0.21.18-1.14,1.05-1.35,1.26a1.36,1.36,0,0,1-.81-0.51v-1.32c0-1.35.03-4.921,2.1606-4.921l1.98,0.27c0.27,0,.87-0.0606.93-0.0606a5.3473,5.3473,0,0,1,1.62-.15,25.5373,25.5373,0,0,1,3-.36c0.57,0,1.0505.2105,1.65,0.2105l1.83-.2105h0.42a0.7284,0.7284,0,0,1,.72.36h2.19a3.8455,3.8455,0,0,0,.72-0.21h0.36c0.51,0.0894,2.0708.21,2.1909,0.21l0.3594,0.15s0.2105,0.0606.24,0.0606a3.9,3.9,0,0,0,1.53-.78c0.3-.0606,1.08-0.36,1.1409-0.36h2.7a1.27,1.27,0,0,0,.57.1807h1.2908a8.9752,8.9752,0,0,1,.84.9,3.44,3.44,0,0,1,.93,2.5509,2.6648,2.6648,0,0,1-.2105.57v2.91c0,0.15-.21.15-0.33,0.15a0.8625,0.8625,0,0,1-.57-0.15l-1.4408-.9c-0.21-.2105-1.77-1.5-2.0107-1.65a1.6885,1.6885,0,0,0-.54-0.36l-0.72-.57a7.3922,7.3922,0,0,0-1.26-.54h-2.8805a2.869,2.869,0,0,1-.36.21c-0.3892.2105-1.68,0.93-1.83,1.0505a0.28,0.28,0,0,0-.21.3v0.42a1.8913,1.8913,0,0,0,.21.36c0.3,1.4706.51,2.76,0.72,4.2012a30.1988,30.1988,0,0,1,.51,4.32v2.91c0.06,0.2105.2105,1.9809,0.2105,2.22l-0.2105,2.5509c0,0.6305.06,2.34,0.7507,2.7008a16.5392,16.5392,0,0,1,2.16.72,1.2608,1.2608,0,0,1,1.1409,1.35c0,1.2-1.23,1.56-2.2808,1.56h-0.45l-0.57-.3594h-1.411c-0.27-.0606-1.83-0.51-2.01-0.5709h-0.69C598.5118,303.3447,598.2715,303.9157,597.4915,303.9157Z"/><path class="cls-1" d="M644.1163,299.7741a8.68,8.68,0,0,1-.36-1.05,1.783,1.783,0,0,1-.06-0.6305,1.8633,1.8633,0,0,1,.06-0.63,1.5464,1.5464,0,0,1-.57-1.4408v-0.6305a1.8433,1.8433,0,0,0-.15-0.3594,8.3261,8.3261,0,0,0-.7507-0.66c-0.3-.27-0.87-0.27-1.23-0.54a3.6618,3.6618,0,0,1-.57-0.03,3.1491,3.1491,0,0,0-.84.39l-0.3.18-1.4706-.18h-0.72a4.0647,4.0647,0,0,0-2.94,1.74,3.5771,3.5771,0,0,0-.1807.7209,2.3841,2.3841,0,0,0-.3.81l-0.06.75-0.2105.78,0.27,1.38a1.1986,1.1986,0,0,0,.3.3594,1.34,1.34,0,0,1,.3307.39,2.3041,2.3041,0,0,0,.72.1807c0.51,0,1.77.1192,1.77,1.05a1.3061,1.3061,0,0,1-.93,1.14c-0.36.0606-2.0405,0.421-2.4605,0.51l-0.72-.3-4.3511.3c-1.0505-.15-1.4706-0.21-1.92-1.23,0-1.41,1.9809-1.77,2.79-2.28a0.69,0.69,0,0,1,.2105-0.2105,4.2408,4.2408,0,0,0,1.0505-1.41,5.9191,5.9191,0,0,0,.3594-1.0207,33.51,33.51,0,0,1,1.5609-2.97,4.38,4.38,0,0,0,.3594-1.0505l0.51-2.13a6.78,6.78,0,0,0,.36-0.8708l0.54-1.77a12.5619,12.5619,0,0,1,1.02-2.13l0.15-.8708c0.06-.15.18-0.69,0.2105-0.72l0.33-1.0505c0.03-.3.2105-1.29,0.2105-1.56V280.45a2.2724,2.2724,0,0,1,.72-1.26l1.02-.3594a2.1841,2.1841,0,0,0,.54-0.51l1.0207-.4806,0.7795-.75a1.787,1.787,0,0,1,1.411,1.23c0.0894,0.36.63,2.0405,0.6593,2.34v0.87a1.4033,1.4033,0,0,1,.2105.36,11.7829,11.7829,0,0,1,1.26,3.2708c0.0606,0.78.09,0.78,0.15,0.78a1.0286,1.0286,0,0,1,.69.84l0.36,0.99c0.03,0.21.57,1.23,0.66,1.5,0.06,0.06.3594,0.48,0.3594,0.48,0.0606,0.15.54,1.5907,0.54,1.7406a8.7337,8.7337,0,0,0,.8708,2.34c0,0.12.48,0.6305,0.5094,0.75l0.1807,0.81a14.0918,14.0918,0,0,1,.3892,1.5c0,0.2105.4806,1.6811,0.4806,1.831a1.7444,1.7444,0,0,0,.78,1.1995,12.2061,12.2061,0,0,0,1.29.6007c0.99,0.6,1.65.39,1.65,1.68,0,1.23-3.0007,1.65-3.8407,1.65-1.02,0-1.8-.42-2.94-0.42l-2.34.27c-0.78,0-2.7008-.15-2.7008-1.26,0-1.5,3.2708-.8708,3.2708-2.5211v-0.15Zm-4.1108-7.3806,0.69,0.15c0.0894-.0606,1.29-0.27,1.29-0.27l-0.57-2.2808c-0.06-.36-0.15-1.14-0.15-1.35a5.4959,5.4959,0,0,0-.84-2.4307,5.1553,5.1553,0,0,0-.99-0.99,0.398,0.398,0,0,0-.3009-0.0894c-0.3594,0-.72.42-1.14,0.42-0.69,0-1.65,2.79-1.71,3.51v2.2808a7.3189,7.3189,0,0,0,.3594.69,0.379,0.379,0,0,0,.3.21c0.1509,0,1.35-.21,1.4706-0.21C638.5051,292.0629,639.6152,292.2734,640.0055,292.3935Z"/><path class="cls-1" d="M667.8447,301.7252a3.26,3.26,0,0,1,2.5509-.991,2.7778,2.7778,0,0,1,.72.0606,2.9334,2.9334,0,0,0,.93-1.2908,6.0511,6.0511,0,0,1-.09-1.05,6.8624,6.8624,0,0,1,.09-1.08,15.3665,15.3665,0,0,0,.54-1.77v-0.27l-0.36-.72v-0.8708a29.7031,29.7031,0,0,1-.39-3.33l0.39-2.19-0.06-1.14a1.4982,1.4982,0,0,1,.06-0.51,13.7339,13.7339,0,0,0,.15-1.92,14.4931,14.4931,0,0,0-.15-1.92,5.5,5.5,0,0,0-.18-1.41,4.6694,4.6694,0,0,0-1.2908-1.5609c-0.9294-.8093-2.4-0.0894-3.06-1.29a0.936,0.936,0,0,1-.06-0.21c0-.7209.99-0.81,1.5-0.8708h1.26a16.4675,16.4675,0,0,1,1.83-.42,0.5951,0.5951,0,0,1,.36.0606,5.3239,5.3239,0,0,0,.72.3594h1.23l1.98,0.15a1.3963,1.3963,0,0,0,.51.0606c0.6305,0,.96-0.2105,1.62-0.2105a16.3841,16.3841,0,0,1,4.4713.51c1.92,0.57,3.48.51,4.7105,2.19a4.3534,4.3534,0,0,1,1.11,3.48,2.8831,2.8831,0,0,1-.78,2.1606c-0.21.27-1.53,1.56-1.77,1.83a1.2781,1.2781,0,0,0-.72.2105c-0.18.06-1.35,0.63-1.4706,0.66-0.42.18-1.14,0.06-1.14,0.63a4.3073,4.3073,0,0,0,1.4706,3.0007,4.866,4.866,0,0,0,.57.39l0.18,0.21c0.0606,0.0308.4806,0.66,0.6007,0.7209,0.03,0.03.75,0.7795,0.87,0.93,0.09,0.15.93,1.92,1.08,2.13a16.3141,16.3141,0,0,0,1.26,1.65,11.3386,11.3386,0,0,0,1.4408,1.26l1.47,1.08,1.8608,0.2105c0.36,0.06,1.56.72,1.56,1.35,0,0.3-.9294,1.71-1.47,1.71h-2.4913a4.574,4.574,0,0,0-2.01-.57h-2.19a4.4215,4.4215,0,0,1-2.7306-3.2112,2.8932,2.8932,0,0,0-.54-0.9294l-0.2105-.9006a0.9231,0.9231,0,0,0-.15-0.36c-0.45-.72-1.86-2.79-1.98-2.91l-2.1606-2.37a3.1013,3.1013,0,0,0-2.0405-.96,0.2966,0.2966,0,0,0-.3594.2105c0,0.1192.06,0.3594,0.06,0.63s-0.06.57-.06,0.6305l-0.15.7795v2.1309a8.8352,8.8352,0,0,1-.2105.87,4.9648,4.9648,0,0,0,.57,2.0405l-0.21.93c0,1.44,2.55.09,2.55,2.13,0,1.2-1.5,1.08-2.34,1.1409h-3.48c-0.42.06-2.4307,0.24-2.91,0.3594a1.3131,1.3131,0,0,1-.93.36,2.5683,2.5683,0,0,1-1.41-.57,2.3226,2.3226,0,0,1-.5709-0.15,3.6845,3.6845,0,0,1-.5094-0.57A3.8452,3.8452,0,0,1,667.8447,301.7252Zm8.5215-15.9934a4.0894,4.0894,0,0,1,.15.75c0.2105,0.7209.0606,1.8608,0.78,2.3106a3.0016,3.0016,0,0,0,2.19.7507c0.09,0,.45-0.15.51-0.15l1.65-1.11c0.48-.3009,1.53-0.5709,1.62-1.23,0-.1807.15-1.411,0.21-1.8906v-0.2105a6.3727,6.3727,0,0,0-2.0405-4.86,2.3292,2.3292,0,0,0-1.53-.9006h-0.42l-1.83.1807a3,3,0,0,0-1.1409,2.85v2.2212a10.3939,10.3939,0,0,1-.15,1.11v0.18Z"/><path class="cls-1" d="M709.6387,299.4444c0-.72.09-1.65,0.84-1.65h0.24a2.491,2.491,0,0,1,1.4706,1.44l0.15,0.7209a2.6537,2.6537,0,0,0,.42.3892l0.3,0.1807c0.06,0.06.33,0.69,0.42,0.75,0.06,0.0308.27,0.3,0.36,0.36a2.2225,2.2225,0,0,1,.63-0.0606,2.1841,2.1841,0,0,1,1.35.421,6.6894,6.6894,0,0,0,1.35.15,7.8315,7.8315,0,0,0,1.41-.15c0.81-.1509,2.5211-3.0007,2.5211-3.6908v-0.36c0-.36-0.1509-1.5-0.1509-1.62a1.55,1.55,0,0,1-.3594-0.57c-0.3-.51-0.3-1.29-0.93-1.5907-0.06-.06-0.51-0.18-0.51-0.21a3.2359,3.2359,0,0,1-.57-0.54c-0.18-.15-0.9-0.6-1.11-0.72-0.09-.09-0.99-0.51-1.08-0.57a5.0057,5.0057,0,0,1-.72-0.5709c-1.68-1.14-2.34-.87-3.48-2.7-0.27-.4508-1.0505-1.7108-1.1111-1.8608a3.5991,3.5991,0,0,1-.18-0.72v-3.6312c0-.06.39-1.6195,0.57-2.19,0.24-1.14.7209-.87,1.4408-1.44,0.21-.2105,1.65-1.68,1.83-1.8906a3.7915,3.7915,0,0,1,1.08-.3594,11.7481,11.7481,0,0,1,3.5408-.51h0.87c0.4806,0,2.5807.09,3.0613,0.15,0.72,0.27,2.22,1.56,2.22,2.61a3.6949,3.6949,0,0,0-.15.72v1.4408c-0.0606.15-.3009,1.1995-0.42,1.47-0.0308.2105-.24,0.2105-0.4508,0.2105h-0.63a3.2686,3.2686,0,0,1-.7209-1.1707c-0.1192-.0894-0.72-0.72-0.9-0.9294a1.0564,1.0564,0,0,1-.39-0.15c-0.48-.24-0.39-0.93-0.9006-1.2908-0.3-.12-1.86-0.63-2.22-0.72h-0.9c-0.24.21-1.2908,1.23-1.4408,1.44a4.6938,4.6938,0,0,0-.57,2.61c0,1.3812.78,2.1606,1.65,3.2708,0.72,0.96,1.77.51,2.5509,1.08,0.0894,0.09.99,0.8708,1.08,0.93,0.18,0.12.96,0.6305,1.14,0.72a4.2774,4.2774,0,0,0,.75.36,8.1224,8.1224,0,0,0,.51.96l1.4408,1.44,0.57,0.36a2.6665,2.6665,0,0,1,.57,2.07v1.92a2.4085,2.4085,0,0,0-.18,1.11v0.93a4.137,4.137,0,0,1-.2105.72,4.0468,4.0468,0,0,1-.54.72,3.4974,3.4974,0,0,1-.21.7209l-0.1509.57c-0.2393.33-1.56,1.74-1.8,1.98a5.3588,5.3588,0,0,1-.57.42c-0.12,0-1.14.12-1.32,0.15-0.991.2105-1.8608,1.0505-2.9113,1.11-0.03,0-.96.0308-1.38,0.0308l-1.35-.0308c-0.15-.06-0.7795-0.33-0.9-0.3892-0.96-.36-2.0107-0.1807-2.9411-0.7209a3.9932,3.9932,0,0,1-1.98-3.06v-0.57Z"/><path class="cls-2" d="M513.493,334.8473c-0.5306,2.1826-1.1332,4.3481-1.8315,6.4926-5.3928,16.56-11.8232,33.1077-21.873,46.9037-10.1455,13.9276-23.8342,25.2894-37.7616,35.4351-13.796,10.05-28.7214,19.7969-45.2819,25.19-15.9962,5.2091-33.7216,6.3009-51.4333,6.3009s-34.0822-5.2542-50.0787-10.4635c-16.56-5.3928-34.5661-8.6093-48.362-18.6591-13.9276-10.1457-24.2857-25.0451-34.4314-38.9726-10.05-13.7962-17.0009-29.5276-22.3937-46.0882q-1.83-5.6191-3.3813-11.3639a57.2323,57.2323,0,0,0-10.6847,1.4529c0.991,4.5212,2.1759,8.968,3.5917,13.316,5.6856,17.4592,15.8966,32.7688,26.492,47.3136a172.5919,172.5919,0,0,0,38.099,38.08c14.545,10.5955,31.2233,16.5906,48.6827,22.2761,16.8646,5.4919,33.7933,12.7766,52.4664,12.7766a174.1175,174.1175,0,0,0,53.7366-8.8775c17.4591-5.6856,35.5458-11.9029,50.09-22.4983,14.6833-10.6964,23.8524-27.7083,34.5486-42.3918,10.5953-14.5449,19.5545-29.9114,25.24-47.3708,0.68-2.09,1.3791-4.191,2.081-6.3043C518.4569,336.6351,515.92,335.8412,513.493,334.8473Z"/><path class="cls-2" d="M254.0233,154.0576c-14.2241,10.3384-28.49,20.47-38.8464,34.6869-10.5955,14.5449-19.99,30.4777-25.676,47.9371-1.0811,3.32-1.9932,6.7107-2.8193,10.1353,2.926,2.7581,5.6869,5.712,9.0831,7.8949,1.2264-4.947,2.6461-9.8217,4.2108-14.6266,5.3929-16.56,11.5273-32.9145,21.5773-46.7105a167.933,167.933,0,0,1,35.02-35.4137Q255.314,156,254.0233,154.0576Z"/><path class="cls-2" d="M520.0357,237.0346c-5.6854-17.4592-15.6-32.5756-26.1954-47.12-9.9651-13.68-20.6932-26.6116-33.9819-36.97-0.1812,4.6225-.4807,9.2383-0.8667,13.8472,11.3663,7.5942,22.98,15.0086,30.95,25.9485,10.05,13.7961,17.4362,30.094,22.8289,46.6546a76.4491,76.4491,0,0,1,2.5185,10.21c2.5779-.6284,5.1681-1.1883,7.7969-1.7974,0.1142-.0265.2237-0.0634,0.3371-0.0915C522.3236,244.1107,521.18,240.5472,520.0357,237.0346Z"/><path class="cls-2" d="M350.0181,222.8909c-3.2962-72.44-7.4541-163.8359-8.5492-167.7406q-5.4442,5.4447-8.7111,5.4447c0.6057,1.8847,4.2285,85.87,7.2864,154.861Z"/><path class="cls-2" d="M406.2206,208.5871l-6.6174-76.0914-6.5985,3.3463s1.3421,41.365,3.2519,71.0209Z"/><path class="cls-2" d="M445.7637,317.79q-1.3059-16.2387-1.3043-23.1174-12.8536,4.6525-14.7262,4.9565c0.16-.072-1.0448-0.3382-3.649-0.8073a66.1654,66.1654,0,0,0-13.8707-.3556,70.1723,70.1723,0,0,0-7.5873,10.67,65.36,65.36,0,0,0,9.3,2.5744c-0.1556-.1323,4.2439-0.6725,13.2245-1.6267q5.4514,3.0842,6.6386,13.0408a66.5433,66.5433,0,0,0-13.2777,9.4846q-3.795,3.3225-10.67,9.9584-27.98-18.9668-27.978-41.2561,0-2.6062.3556-7.7055,0.3561-5.0961.3556-7.469a41.3089,41.3089,0,0,0-.7112-4.5049v-6.6386q0-36.5106,26.2927-36.5139,5.0178,0,12.9073,10.4323l11.4733,15.4119,8.1281-7.5873a48.075,48.075,0,0,0-4.7348-12.4876c-2.2446-25.5-4.7922-72.4739-4.6388-75.8212q0.3616-9.4343-.5443-12.8853-8.7113,4.3556-8.7112,11.9775a38.9435,38.9435,0,0,0,.4539,4.9,39.4638,39.4638,0,0,1,.4539,4.9c0,1.2494,1.0828,27.1417,2.1567,49.2856-1.4643-2.2-3.1465-4.7146-5.063-7.5688q-5.1478,3.9182-12.1468,8.7627l-9.0239,6.1209q-9.3684,6.2414-21.2065,13.7166l-0.0085-.1073-6.0706,3.8942-4.27,21.9453q-4.1788,27.373-4.178,35.2925,0,11.8589,14.4628,30.3491,15.1711,19.6831,27.741,19.6794,8.0584,0,28.9266-26.7919,0.4725,15.4156-2.6081,22.7618,3.3177,4.0347,6.4017,2.845,9.0082-7.1134,9.01-19.9168Q447.0675,334.0313,445.7637,317.79Z"/><path class="cls-2" d="M368.284,228.0563l8.02-4.748c-1.4548-31.0649-3.1671-77.7053-3.1671-77.7053l-2.2019-53.4775-8.1685,1.86,2.5342,51.9663Z"/><path class="cls-2" d="M353.4136,296.0278l-10.3118-13.4859q-7.1051-8.8147-7.1117-12.2907,0-4.0292,1.4225-17.0718,1.423-13.0366,1.4225-17.5457-5.457-1.894-12.0922-8.7724a67.93,67.93,0,0,0-7.9583-7.3958c-3.8053,4.2063-7.2844,8.159-10.0076,11.29l0,0.0805q-2.7545,3.3588-5.667,6.5116l-0.155.1833-0.0079-.0025q-3.4086,3.6944-7.0281,7.1157-4.99-18.1111-6.0842-25.5468C287.959,138.5644,285.5586,6.78,285.6418,0q-1.0892,0-5.7169,2.541-4.6276,2.5432-5.8979,2.541c0.3647,4.305,3.3615,155.0072,4.9029,220.9592a320.7539,320.7539,0,0,1-27.1111,23.3446,48.0506,48.0506,0,0,0,8.0611,4.98,56.9871,56.9871,0,0,0,9.4841-6.7578q6.1629-5.0961,9.2472-6.52,2.6062,24.4245,2.6081,84.8834-18.0219,6.64-28.571,17.9-10.5524,11.2645-10.551,25.0147,0,5.2124,1.1856,7.35a35.9538,35.9538,0,0,0,3.7936,3.7936q4.74-4.7455,7.35-15.6484,3.0787-12.5642,4.9792-15.8858,4.501-7.1134,15.1745-7.1134a39.7882,39.7882,0,0,0,5.0436-.1447c0.4526,0.6107.9055,1.2882,1.3581,2.042q-3.5567,7.112-2.8455,20.1533a22.5457,22.5457,0,0,0,6.0461-1.5407,22.3521,22.3521,0,0,1,6.0461-1.5417q0-10.1907,5.69-15.8858,32.2425,13.0422,36.7513,13.0408a16.8886,16.8886,0,0,0,8.0611-1.7781q3.3177-1.779,4.268-1.7781,3.0787-14.6993,6.4017-29.6378,3.79-18.4943,3.7936-23.4731A10.7392,10.7392,0,0,0,353.4136,296.0278Zm-52.7518-42.1372,11.3809-15.6484q0,1.901,4.7418,5.9274,9.0082,8.0639,9.4841,8.5359-1.6613,1.6613-2.845,8.7724-1.6613,10.1977-1.8968,11.1444a236.4121,236.4121,0,0,1-23.71,11.1435q0-.9449-2.0151-6.0456a25.1638,25.1638,0,0,1-2.0155-9.1289Q293.7857,263.6116,300.6618,253.8906Zm36.74,72.91a74.3747,74.3747,0,0,0-1.9042,14.1077q-3.1009-.7122-17.8791-6.4022a139.4,139.4,0,0,0-23.5955-6.6386v-23.71q13.8264-13.7474,25.7408-13.752,5.9572,0,12.7517,8.18,6.7906,8.18,6.7943,15.2928Q339.3094,317.674,337.4015,326.8Z"/><path class="cls-2" d="M307.1252,137.4434l2.47,49.5456s-0.1516,5.1013-.3248,12.0388l9.19,1.3642-0.2318-13.6337-1.9017-49.5617-0.3859-49.6L313.48,37.116a1.3527,1.3527,0,0,0-1.8412-1.1949l-6.2277,2.4211,0.1488,49.53Z"/></svg>