<?xml version="1.0" encoding="utf-8"?>
<!-- Generator: Adobe Illustrator 19.0.0, SVG Export Plug-In . SVG Version: 6.00 Build 0)  -->
<!DOCTYPE svg PUBLIC "-//W3C//DTD SVG 1.1//EN" "http://www.w3.org/Graphics/SVG/1.1/DTD/svg11.dtd">
<svg version="1.1" id="Layer_1" xmlns="http://www.w3.org/2000/svg" xmlns:xlink="http://www.w3.org/1999/xlink" x="0px" y="0px"
	 viewBox="0 0 124.40924 122.96449" style="enable-background:new 0 0 124.40924 122.96449;" xml:space="preserve">
<style type="text/css">
	.st0{fill:rgb(255, 255, 255);}
</style>
<g>
	<path class="st0" d="M90.06284,28.59577c2.90107-0.6566,5.25626-0.21944,7.93966,0.54775
		c1.04018,0.32831,2.68171,1.64324,1.80563,3.1759c-0.71018,1.3685-2.08036,1.14906-3.39358,1.58794
		c-2.08036,0.6566-4.27135-0.87606-5.96814-0.27475c-4.38029,1.53438-5.58457,6.51593-4.27135,10.73201
		c1.36849,4.49082,6.35172,6.84595,10.732,5.36686c1.64143-0.54774,3.88778-3.01173,5.36679-1.91624
		c1.75216,1.4238,2.79234,3.28474,0.92966,4.59968c-3.94135,2.90115-8.86932,2.79229-13.68844,1.31321
		c-2.08047-0.65661-4.32493-1.47736-6.07709-2.90115c-3.0117-2.51928-3.66831-6.35178-3.1759-10.0754
		C81.08289,35.16698,83.98406,30.01957,90.06284,28.59577"/>
	<path class="st0" d="M105.99288,42.50401c-1.91626-4.16079,0.05527-10.732,4.16072-13.52429
		c1.15081-0.82248,2.51929,0.21944,2.73876,1.0955c0.87608,3.28473-2.6835,6.07703-1.64321,9.41706
		c0.60303,1.91624,3.88778,3.28474,5.25626,2.19098c3.88778-3.06703,0.27473-12.15751,6.35171-12.97828
		c3.88778,2.73874-0.82071,7.72027-0.27294,11.60805c0.54767,2.19098-0.54777,3.61478-1.37028,5.25801
		c-0.82071,2.18926-1.64153,4.4338-0.82071,6.89779c0.27473,0.82248-1.36848,1.37022-1.97152,1.97153
		c-1.09376,0.82075-2.1893,0.27473-3.01002-0.87605c-1.09554-1.91624,0.27294-4.1055-0.27473-6.35176
		c0-0.82076-1.09555-0.27302-1.97163-0.27302C109.88066,46.93953,106.8136,45.02329,105.99288,42.50401"/>
	<path class="st0" d="M116.20348,64.49226c0-1.22854-0.27483-2.12877-0.36986-3.31585
		c-0.00686-0.09157-0.08289-0.16241-0.17623-0.16761c-0.74984-0.0311-1.29941-0.34385-2.04408-0.36113
		c-0.10198-0.00173-0.1814,0.0864-0.17623,0.18834c0.06043,1.18708-0.04324,2.45881-0.04324,3.65624
		c0,3.29339,0.20386,6.55395-0.34729,9.6918c-0.56676,3.22427-1.80046,6.24638-2.89938,9.25638
		c-1.11801,3.06013-2.41911,5.99755-4.033,8.7812c-1.62761,2.80784-3.6044,5.33749-5.68128,7.80839
		c-2.08215,2.47781-4.47015,4.57894-6.94789,6.66107c-2.47268,2.07693-5.01613,3.95689-7.82397,5.58457
		c-2.78538,1.61387-5.47573,3.44026-8.53584,4.5582c-3.01001,1.09722-6.15649,1.91797-9.38081,2.48473
		c-3.13783,0.55293-6.37248,1.23372-9.66587,1.23372s-6.52108-0.72226-9.65891-1.27346
		c-3.22432-0.56847-6.19805-1.84541-9.20627-2.94434c-3.0619-1.11623-6.37597-1.68299-9.15965-3.29512
		c-2.80953-1.62769-5.5137-3.5543-7.98459-5.63123c-2.47785-2.08213-4.86932-4.39233-6.95137-6.87015
		c-2.07698-2.4709-3.4731-5.493-5.10081-8.30257c-1.61379-2.78365-3.35562-5.56557-4.47352-8.62569
		c-1.09892-3.00827-1.73138-6.22562-2.29814-9.4499c-0.55115-3.13786-0.55463-6.37423-0.55463-9.66762
		c0-3.29338-0.2471-6.57293,0.30415-9.71081c0.56676-3.22427,1.98702-6.20145,3.08595-9.21145
		c1.11632-3.06012,2.69215-5.82304,4.30594-8.60669c1.62771-2.80957,2.87006-5.8645,4.94705-8.33713
		c2.08205-2.47781,4.48734-4.69298,6.96687-6.7751c1.33917-1.12658,2.77325-2.12531,4.25237-3.06702
		c0.0985-0.06394,0.13826-0.18661,0.09502-0.29722c-0.07087-0.18142-0.13995-0.36458-0.20734-0.54772
		c-0.21599-0.59613-0.42164-1.24755-0.66009-1.8938c-0.05178-0.1434-0.22116-0.20563-0.35415-0.12959
		c-0.61864,0.35248-1.22337,0.73262-1.80046,1.15424c-2.44674,1.78493-4.96086,3.64413-7.14321,5.82648
		s-4.09512,4.65842-5.88008,7.10513c-1.8108,2.48128-2.86996,5.42561-4.25405,8.13496
		c-1.39095,2.72145-3.29339,5.2632-4.23507,8.17126c-0.9383,2.89423-1.39274,5.9889-1.86616,9.02311
		c-0.46825,2.99272-0.12782,6.0753-0.12782,9.16133c0,3.08604,0.32483,6.06494,0.79139,9.05767
		c0.47342,3.03419,0.76714,6.07012,1.70365,8.96435c0.94168,2.90807,1.87998,5.84896,3.27093,8.57041
		c1.38409,2.70934,3.00305,5.34785,4.81396,7.82912c1.78496,2.44498,3.64754,4.94525,5.82988,7.12759
		s4.52193,4.26273,6.96867,6.04766c2.48133,1.81084,5.18023,3.40397,7.88967,4.78801c2.72136,1.39096,5.76597,2.11841,8.674,3.06013
		c2.89421,0.93652,5.81438,1.95598,8.84864,2.42943c2.99092,0.46825,6.08215,0.59785,9.1682,0.59785
		c3.08606,0,6.05979-0.8726,9.05082-1.34086c3.03586-0.47345,6.22389-0.27647,9.1181-1.21299
		c2.90804-0.9417,5.44631-2.83376,8.16778-4.22472c2.70934-1.38404,5.6623-2.42425,8.14184-4.23335
		c2.44674-1.78492,4.23686-4.38024,6.4192-6.56257c2.18234-2.18234,4.06749-4.48911,5.85245-6.9358
		c1.81079-2.48128,3.98965-4.69472,5.37375-7.40408c1.39095-2.72317,2.96329-5.44462,3.90508-8.35268
		c0.93651-2.89424,1.50844-5.98199,1.98186-9.0162C116.55593,70.69025,116.20348,67.5783,116.20348,64.49226"/>
	<path class="st0" d="M85.9212,12.74087c-2.81997-1.52228-6.00284-2.29809-9.03352-3.32965
		c-3.01698-1.0281-6.06147-2.0493-9.23569-2.56939c-0.42849-0.06913-0.86047-0.12616-1.29244-0.17625
		c-0.17106-0.02075-0.33168,0.0864-0.38188,0.25227c-0.22285,0.71016-0.48555,1.4117-0.71535,2.12186
		c-0.07076,0.21773,0.083,0.44236,0.31111,0.46483c0.35931,0.03628,0.71873,0.07947,1.07815,0.13476
		c2.87176,0.44753,5.83515,0.55639,8.54618,1.42725c2.75606,0.8847,5.26671,2.44845,7.8188,3.73573
		c2.5175,1.26827,4.75869,3.17762,7.03078,4.82084c0.10378,0.07258,0.23508,0.09159,0.35256,0.04493
		c0.85878-0.34212,1.94906-0.94687,2.90118-1.28037c0.2781-0.09676,0.33347-0.46654,0.10019-0.64622
		C91.02708,15.92195,88.50778,14.13704,85.9212,12.74087"/>
	<path class="st0" d="M90.178,83.23846c-1.69331-1.04884-3.67001-0.84496-4.93313,0.3836
		c-2.24625,2.18925-4.39748,1.58794-6.76818,0.60131c-0.83115-0.34559-1.75216-0.46827-2.58848-0.80348
		c-2.49156-0.99872-4.96076-2.05274-7.63731-3.16725c0.53048-0.63759,0.78275-0.96243,1.05748-1.26828
		c3.61485-4.0191,7.22262-8.04511,10.87374-12.02966c0.29202-0.31792,0.88641-0.37323,1.35287-0.51318
		c1.28559-0.38532,2.75258-0.40434,3.4075-1.94044c1.13004-2.65061-0.0173-5.7591-2.60229-7.02393
		c-0.35942-0.17451-0.81554-0.42334-0.94685-0.74991c-0.53564-1.34085-1.65186-1.55339-2.85625-1.59141
		c-3.16377-0.1054-5.55177,2.65406-5.01781,5.94399c0.19521,1.20781-0.12782,1.92488-0.98144,2.75946
		c-3.1431,3.07393-6.31026,6.14269-9.20458,9.44472c-1.47564,1.68816-2.69721,3.20698-5.22168,2.65578
		c-0.57541-0.12614-1.24931,0.29375-1.8765,0.29202c-1.72622-0.00864-3.53184,0.19871-5.16124-0.22981
		c-4.15734-1.0955-8.24213-2.4709-12.33725-3.79102c-0.55463-0.1797-1.14733-0.58922-1.47732-1.06265
		c-1.39095-1.99745-3.32103-2.21344-5.48607-1.87997c-1.94916,0.30066-2.43809,1.77628-2.90466,3.37115
		c-0.24879,0.85704-0.65144,1.71407-1.16811,2.44153c-1.35984,1.9197-1.29245,5.1716,0.24372,6.8615
		c1.40645,1.54819,3.61305,1.55856,5.95601,0.02072c0.4441-0.29029,0.88293-0.59266,1.31322-0.90541
		c1.55515-1.13005,3.27441-1.5724,5.13192-1.04193c4.23507,1.20609,8.45116,2.47608,12.75014,3.74264
		c-0.16589,0.40778-0.18319,0.52355-0.24879,0.59785c-3.46276,4.0381-6.9462,8.06066-10.38819,12.11777
		c-0.80342,0.9469-1.59829,1.45145-2.96509,1.38061c-1.21472-0.06221-2.54861,0.29028-3.67179,0.80519
		c-1.85225,0.84667-2.54514,2.77674-1.84887,4.53229c0.48217,1.213,1.34433,2.33785,0.56855,3.75993
		c-0.09682,0.17624,0.15725,0.59266,0.32135,0.85184c1.18361,1.86787,4.30594,2.79229,7.08446,2.11841
		c2.73697-0.66524,4.55473-2.50718,4.60651-5.01091c0.02594-1.26656,0.54609-2.07349,1.37545-2.88388
		c1.59143-1.5603,3.57498-2.9357,4.58752-4.82083c1.95433-3.63897,5.17854-6.1427,7.53194-9.39807
		c1.39095-1.92488,3.16209-1.99918,5.22863-0.91751c2.10979,1.10413,4.27831,2.12704,6.49693,2.99099
		c2.52446,0.98145,5.13192,1.75037,7.70648,2.60223c1.06264,0.3525,1.74857,0.91579,2.08553,2.11668
		c0.58237,2.07175,2.58848,3.07912,4.96772,2.75773c2.42596-0.32485,4.30425-1.92833,4.25068-4.01046
		c-0.03976-1.49117,0.08985-2.69379,1.2665-3.75301c0.3957-0.35593,0.50464-1.16632,0.5271-1.77801
		C92.6472,85.86141,91.8403,84.26828,90.178,83.23846 M89.59922,87.53229c-0.15725,1.10587-0.77072,1.50846-1.84023,1.56894
		c-0.44758,0.02592-0.87439,0.40778-1.31153,0.62895c0.28338,0.35077,0.49768,0.87433,0.86395,1.01947
		c1.1197,0.44579,1.42722,1.18188,1.10757,2.27737c-0.41468,1.41342-1.72959,2.3966-3.0947,2.27047
		c-1.16801-0.10712-1.78486-0.6998-1.86607-1.9508c-0.09333-1.42899-0.807-2.27737-2.32408-2.76464
		c-5.15945-1.65706-10.26374-3.49037-15.37141-5.30121c-0.88989-0.3162-1.77452-0.75165-2.53648-1.30457
		c-1.50506-1.08858-1.91805-1.08685-3.12233,0.37323c-2.23244,2.70763-4.38715,5.48263-6.71471,8.10387
		c-3.06528,3.45406-6.28084,6.7751-9.38419,10.19462c-0.2626,0.29028-0.33864,0.93479-0.2298,1.34085
		c0.41468,1.53265-0.17802,2.6195-1.39612,3.4178c-1.31322,0.86048-2.74741,1.24754-4.20744,0.38878
		c-1.2027-0.70845-1.12666-1.60178,0.04662-2.40524c0.29371-0.20045,0.60989-0.6808,0.56328-0.97454
		c-0.04841-0.30584-0.49937-0.71881-0.82419-0.77237c-0.86227-0.14169-1.77452-0.37669-1.58279-1.35468
		c0.15039-0.76891,0.75859-1.84366,1.39274-2.03893c1.26998-0.3905,2.69552-0.273,4.15207-0.36977
		c4.02784-4.31285,8.21798-8.77602,12.37701-13.27029c0.86047-0.93134,1.70375-1.91279,2.35857-2.98927
		c0.58236-0.95552,0.45623-1.75555-0.94168-2.07002c-6.48997-1.45662-12.96792-2.97027-19.43722-4.51674
		c-1.14554-0.273-1.63625-0.08813-1.78833,1.18015c-0.22632,1.9007-2.62128,3.27438-4.34918,2.44498
		c-0.62888-0.30238-1.25269-1.20953-1.32873-1.90069c-0.07773-0.69289,0.40086-1.98882,0.86226-2.10286
		c1.67253-0.41124,1.58099-1.61732,1.66916-2.80439c0.07941-1.06611-0.34908-2.48472,1.2665-2.63678
		c1.34433-0.12614,2.64712,0.22118,3.06707,1.88687c0.07425,0.30067,0.53048,0.62032,0.8726,0.72227
		c2.94948,0.8674,5.94399,1.59313,8.86404,2.54692c3.60451,1.1767,7.15533,2.48819,11.05693,1.7521
		c0.2954-0.05529,0.63752,0.02419,0.9382,0.11231c1.96815,0.57539,3.76513,0.10368,5.21482-1.20261
		c1.56897-1.41515,2.98587-3.01174,4.37165-4.61349c1.17665-1.35641,2.14427-2.89425,3.33832-4.23164
		c0.72052-0.80692,1.74689-1.33221,2.54693-2.08039c1.11274-1.04366,2.18919-2.13568,3.17063-3.3003
		c0.20049-0.24018-0.06043-0.89678-0.15893-1.35122c-0.0985-0.45962-0.37155-0.90715-0.36976-1.35986
		c0-1.3564,1.36669-2.66442,2.60388-2.47608c1.94568,0.29374,0.96245,1.7279,0.97974,3.12923
		c0.73434-0.13995,1.37893-0.2972,2.03206-0.3784c0.6428-0.08122,1.80215-0.26091,1.85921-0.09504
		c0.27473,0.79829,0.46825,1.75382,0.26777,2.54693c-0.13816,0.5391-1.10061,1.36677-1.47733,1.26481
		c-2.16673-0.5823-3.22252,0.71709-4.28696,2.16162c-1.4151,1.91623-2.7318,3.92061-4.30931,5.69344
		c-1.87134,2.0994-3.98112,3.98627-5.97511,5.97854c-0.78275,0.78275-1.52921,1.60177-2.61263,2.74218
		c2.14606,1.02465,3.98628,2.06139,5.93882,2.79575c2.33611,0.87949,4.78632,1.44453,7.15006,2.25664
		c1.3996,0.47863,2.74213,1.13523,4.07961,1.77802c1.07129,0.51318,1.87819,0.76201,2.59702-0.62723
		c0.40086-0.77411,1.2838-1.45145,2.10799-1.82121C88.39484,84.18362,89.89462,85.46226,89.59922,87.53229"/>
	<path class="st0" d="M41.57705,64.4133c-0.10546,0.49937-0.16758,0.80519-0.23328,1.11103
		c-0.44062,2.07003,0.21251,3.06531,2.30162,3.26746c0.75332,0.07257,1.54988-0.09849,2.3032-0.26264
		c2.78021-0.60303,5.45675-1.44279,8.43734-0.77927c3.65977,0.81384,7.11905,0.11057,10.08235-2.49337
		c1.01772-0.89332,2.31544-1.50328,3.55083-2.10631c3.34697-1.63114,4.04333-4.54611,1.86964-7.50947
		c-0.49937-0.68079-0.95212-1.89378-0.68087-2.55383c1.42037-3.45753,1.51371-7.04985,1.44632-10.66808
		c-0.12444-6.67834-3.83768-12.31649-9.29781-15.13642c0.0483-0.25228,0.0829-0.48207,0.10019-0.66869
		c0.01033-0.14169,0.02932-0.28166,0.06391-0.41816c0.05526-0.21944,0.07256-0.44579,0.09682-0.66871
		c0.0328-0.30927,0.03796-0.61857,0.02763-0.9296c-0.00865-0.28338-0.0173-0.56502,0.05874-0.84149
		c0.07604-0.81557,0.11232-1.63114-0.01213-2.44497c-0.03459-0.22638-0.03976-0.44753,0.00348-0.67388
		c0.03111-0.16589,0.05358-0.3335,0.05695-0.50282c0.01392-0.59268,0.04155-1.18364,0.18498-1.76247
		c0.01033-0.34212,0.10704-0.66697,0.20207-0.96762c0.197-0.43888,0.4769-0.78794,0.80352-1.10586
		c0.1642-0.15724,0.32483-0.31449,0.48555-0.47173c0.16241-0.16067,0.34044-0.29891,0.53913-0.40606
		c0.2471-0.1313,0.4769-0.3093,0.76893-0.33347c0.15028-0.07949,0.29888-0.15725,0.44748-0.235
		c0.06053-0.03283,0.08469-0.08121,0.05874-0.1365c-0.02246-0.04838-0.0656-0.08295-0.12444-0.09676
		c-0.10884-0.02766-0.21936-0.04838-0.30753-0.06913c-0.19521-0.15376-0.37323-0.292-0.5425-0.42678
		c-0.39232-0.10367-0.76893-0.22464-1.16811-0.24191c-0.16937-0.00865-0.33179-0.05184-0.4942-0.10367
		c-0.35942-0.11577-0.72052-0.10541-1.08342-0.00865c-0.1641,0.04319-0.32999,0.08121-0.49757,0.10196
		c-0.28338,0.03454-0.54946,0.12785-0.81038,0.23326c-0.28854,0.11403-0.55642,0.27302-0.77926,0.49591
		c-0.24025,0.23845-0.4769,0.48036-0.72063,0.71535c-0.05874,0.05874-0.12782,0.10884-0.19869,0.15205
		c-0.04662,0.02763-0.10715,0.01036-0.15028-0.03457c-0.15904-0.16241-0.23328-0.38531-0.38536-0.55291
		c-0.15208-0.16589-0.28855-0.3456-0.42681-0.51321c-0.16241-0.12959-0.31618-0.25053-0.46994-0.37495
		c-0.2644-0.21253-0.55294-0.3905-0.84149-0.56676c-0.13826-0.08466-0.36806,0.05012-0.37323,0.22118
		c-0.00517,0.16932-0.01561,0.33867-0.00169,0.50627c0.01898,0.25227,0.05874,0.50453,0.08986,0.75683
		c-0.05537,0.27473-0.11411,0.5512-0.22295,0.81212c-0.17623,0.41468-0.28686,0.8553-0.4924,1.25791
		c-0.03976,0.07601-0.06918,0.15724-0.11928,0.22464c-0.23328,0.3162-0.47174,0.63067-0.71535,0.9417
		c-0.05178,0.06394-0.12962,0.10712-0.19521,0.15896c-0.05705,0.04319-0.10715,0.04664-0.13478,0.00174
		c-0.01381-0.02075-0.02425-0.05358-0.0173-0.07604c0.1158-0.37669,0.23666-0.75163,0.31966-1.13868
		c0.05705-0.27476,0.17274-0.53739,0.23149-0.81212c0.0657-0.30239,0.08986-0.61168,0.14343-0.91753
		c0.0329-0.19698,0.04493-0.39222,0.00865-0.58748c-0.03976-0.2229-0.07604-0.44408-0.07425-0.67217
		c0.00169-0.3093,0.00337-0.62031,0.00169-0.9296c-0.00517-0.36633-0.01213-0.73262-0.02415-1.10066
		c-0.00517-0.1106-0.02246-0.22464-0.05537-0.33176c-0.05874-0.19007-0.08637-0.38359-0.08289-0.58231
		c0.00348-0.28164,0.00686-0.56502-0.04493-0.83975c-0.15725-0.42681-0.3283-0.84497-0.37492-1.29938
		c-0.01044-0.08295-0.03976-0.16415-0.06739-0.24364c-0.10546-0.29203-0.21778-0.58057-0.31628-0.87431
		c-0.10704-0.32314-0.23845-0.63241-0.43714-0.91062c-0.1814-0.25227-0.32831-0.527-0.45444-0.81038
		c-0.17106-0.38879-0.39907-0.74473-0.60303-1.1145c-0.21767-0.39741-0.47511-0.76545-0.7413-1.13003
		c-0.18488-0.25055-0.39738-0.47519-0.59259-0.71535c-0.39749-0.4821-0.85878-0.89161-1.38409-1.23199
		c-0.30584-0.19872-0.61169-0.40089-0.8899-0.6428c-0.23149-0.20389-0.4924-0.37669-0.74636-0.55466
		c-0.16252-0.11403-0.33358-0.2177-0.5271-0.26608c-0.2781-0.06568-0.52003-0.20908-0.78443-0.34215
		c-0.15208-0.03109-0.31797-0.0622-0.47173-0.09331c-0.0656,0.01384-0.12097,0.02592-0.17623,0.03802
		c-0.16937,0.03628-0.33516,0.02766-0.49937-0.03109c-0.10535-0.03802-0.2143-0.06913-0.32483-0.09159
		c-0.08469-0.01556-0.16937,0.01556-0.23497,0.07084c-0.0985,0.08466-0.1486,0.27818-0.10367,0.38705
		c0.0328,0.07775,0.05526,0.16415,0.10535,0.22983c0.15377,0.20389,0.29034,0.41468,0.36975,0.66004
		c0.02426,0.07775,0.08817,0.14343,0.13995,0.20908c0.10546,0.13133,0.24889,0.2298,0.32662,0.38014
		c0.08986,0.27128,0.17971,0.5391,0.28169,0.85014c0,0.03802-0.01044,0.12268,0.00338,0.20563
		c0.01561,0.08466,0.07256,0.15031,0.16072,0.17623c0.05358,0.01556,0.11063,0.02075,0.16589,0.03283
		c0.08469,0.01901,0.1641,0.06568,0.20038,0.13998c0.10715,0.2298,0.22812,0.45789,0.29551,0.6998
		c0.114,0.40777,0.27473,0.80001,0.39053,1.19571c0.06223,0.40086,0.05526,0.79656,0.14343,1.18535
		c0.05695,0.24707,0.04661,0.50799-0.01044,0.75509c-0.06908,0.30584-0.08289,0.61514-0.0984,0.92443
		c-0.01392,0.28164-0.01909,0.56328-0.02246,0.84494c-0.00179,0.25572-0.02774,0.50453-0.09165,0.75335
		c-0.06739,0.27302-0.12782,0.54775-0.22116,0.81386c-0.05705,0.1607-0.11749,0.32137-0.14511,0.48726
		c-0.04493,0.27992-0.14512,0.54255-0.21947,0.81383c-0.07425,0.27302-0.15028,0.54429-0.2143,0.77584
		c-0.09154,0.15896-0.17791,0.27473-0.22801,0.40432c-0.07256,0.1849-0.14691,0.36461-0.26608,0.52528
		c-0.04841,0.06739-0.083,0.14688-0.1158,0.22464c-0.15377,0.36287-0.30584,0.72746-0.4769,1.13868
		c-0.05874,0.22118-0.13647,0.49246-0.20734,0.76548c-0.07087,0.27128-0.15556,0.5391-0.16241,0.82593
		c-0.00179,0.13824-0.04324,0.27818-0.08121,0.41297c-0.0484,0.16415-0.07087,0.33176-0.07952,0.50111
		c-0.0155,0.30927-0.02415,0.61857-0.03976,0.9296c-0.01213,0.25227-0.03111,0.50453-0.05009,0.78275
		c0.02763,0.14169,0.06908,0.30756,0.08817,0.47345c0.02246,0.19869,0.08458,0.38531,0.13647,0.57538
		c0.02932,0.10712,0.03976,0.22118,0.05178,0.3335c0.01392,0.14166,0.03976,0.27818,0.08648,0.41297
		c0.09502,0.26608,0.13478,0.54601,0.18656,0.82248c0.01899,0.10886,0.02246,0.22461-0.04662,0.32485
		c-0.02594-0.00694-0.05705-0.00694-0.07952-0.02246c-0.15028-0.09159-0.20386-0.26611-0.32651-0.38188
		c-0.35942-0.33347-0.62033-0.72746-0.74309-1.20781c-0.17443-0.32483-0.27294-0.67733-0.38874-1.02636
		c-0.07256-0.21773-0.05874-0.44753-0.13309-0.66178c-0.08986-0.26956-0.1486-0.54258-0.15376-0.82767
		c-0.00169-0.11232-0.03111-0.2229-0.05695-0.33176c-0.1003-0.3905-0.07435-0.78446-0.05189-1.17842
		c0.12444-0.29548,0.03628-0.61342,0.10535-0.91753c0.04155-0.19007,0.03807-0.39224,0.04324-0.58922
		c0.00348-0.28338,0.01034-0.56676-0.04324-0.84494c-0.05347-0.27473-0.12782-0.54601-0.19004-0.80175
		c-0.06391-0.08292-0.1157-0.1486-0.16758-0.21599c-0.15893-0.21079-0.37323-0.34558-0.62033-0.41987
		c-0.2972-0.08811-0.59608-0.1728-0.89854-0.23671c-0.19173-0.04147-0.39222-0.04321-0.59091-0.06222
		c-0.34212-0.12613-0.68593-0.25053-0.99694-0.36458c-0.18319-0.14514-0.35942-0.24016-0.49072-0.3905
		c-0.08986-0.17626-0.17971-0.35077-0.26788-0.52528c-0.03628-0.07601-0.07952-0.15031-0.10367-0.23154
		c-0.10715-0.35074-0.22115-0.69806-0.30415-1.05574c-0.09154-0.38359-0.16062-0.77238-0.18308-1.16634
		c-0.02763-0.47862-0.02426-0.95897-0.03807-1.43762c-0.00517-0.17277,0.02594-0.33693,0.07087-0.50108
		c0.00686-0.02075-0.00517-0.05877-0.02246-0.0743c-0.03628-0.02937-0.08637-0.0121-0.14174,0.02246
		c-0.15028,0.09157-0.25227,0.2298-0.33168,0.37666c-0.32145,0.59441-0.67391,1.17499-0.81902,1.84887
		c-0.02246,0.10886-0.08121,0.20908-0.11749,0.29374c-0.03976,0.47516-0.02594,0.92098,0.11401,1.35986
		c0.04324,0.13304,0.05357,0.27647,0.07256,0.37669c0.11232,0.27128,0.2298,0.49937,0.30236,0.74127
		c0.08469,0.27128,0.25406,0.50453,0.34212,0.77064c0.06401,0.19007,0.16241,0.35768,0.26091,0.52874
		c0.16769,0.29374,0.33347,0.58922,0.48386,0.89158c0.1641,0.32831,0.29719,0.67043,0.46825,0.99357
		c0.17275,0.32828,0.28159,0.67214,0.38009,1.02636c0.06054,0.21944,0.08986,0.44234,0.15556,0.65833
		c0.07087,0.24191,0.17275,0.4769,0.24014,0.72226c0.07604,0.26956,0.13657,0.54603,0.19015,0.82248
		c0.02763,0.13824,0.04313,0.28166,0.03628,0.4199c-0.02246,0.48036-0.00696,0.95897,0.00517,1.43762
		c0.00348,0.11403-0.00865,0.22635-0.01382,0.33867c-0.00865,0.17106-0.04155,0.33521-0.09681,0.49589
		c-0.1641,0.4821-0.36806,0.94518-0.55463,1.41689c-0.02077,0.05183-0.05009,0.10196-0.08637,0.14514
		c-0.05358,0.0622-0.11232,0.12613-0.17802,0.17626c-0.14859,0.10884-0.31786,0.12268-0.48038,0.05009
		c-0.23666-0.10367-0.43883-0.25572-0.58226-0.47516c-0.04662-0.06913-0.10715-0.13478-0.13995-0.21082
		c-0.12613-0.28164-0.3128-0.53391-0.42849-0.82074c-0.06054-0.05183-0.10715-0.11577-0.12793-0.19181
		c-0.03796-0.13478-0.06739-0.27299-0.09671-0.39567c-0.02943-0.03285-0.04493-0.06048-0.06739-0.07258
		c-0.04672-0.02766-0.09682-0.05703-0.1486-0.06739c-0.05358-0.01036-0.11232,0.01036-0.16758,0.00345
		c-0.05537-0.00862-0.10715-0.03802-0.16252-0.04664c-0.05347-0.00865-0.11052-0.00691-0.1641,0
		c-0.02594,0.00345-0.05189,0.02246-0.07435,0.04147c-0.06739,0.05355-0.11569,0.12268-0.11917,0.21079
		c-0.01033,0.22635-0.01033,0.45098-0.02415,0.67733c-0.0173,0.27993-0.02774,0.5633-0.14174,0.82939
		c-0.06739,0.41471-0.23497,0.81212-0.23149,1.24238c0.00169,0.11058-0.04672,0.21944-0.06919,0.33002
		c-0.02763,0.13824-0.05526,0.27647-0.07772,0.41471c-0.02246,0.13995-0.01898,0.28509-0.05706,0.41816
		c-0.07941,0.27473-0.09671,0.55466-0.10884,0.83629c-0.00865,0.16932-0.02077,0.33867-0.07425,0.50108
		c-0.08986,0.2713-0.10367,0.55294-0.08986,0.83632c0.02067,0.39568,0.0155,0.78964,0.00338,1.1836
		c-0.00338,0.16415-0.00338,0.32658-0.00169,0.49073c-0.81038,0.67906-1.55336,1.45835-2.23244,2.31711
		c-5.50168,6.9479-7.41794,14.40553-3.2761,22.83251C32.55217,58.46931,36.06852,62.34845,41.57705,64.4133 M48.80832,65.53297
		c-0.73096-0.04491-1.46699-0.06047-2.18403-0.18314c-0.06918-0.01211-0.02077-0.6998-0.02774-1.07304
		c0.75343,0.10886,1.50854,0.21771,2.26186,0.32658C48.84111,64.91267,48.82561,65.22195,48.80832,65.53297 M52.16393,65.89929
		c-0.63932-0.45963-1.10241-0.79483-1.56728-1.13004c0.67222-0.2782,1.32704-0.6739,2.0251-0.77411
		c0.28169-0.04146,0.65661,0.56157,0.9884,0.87087C53.1885,65.16838,52.76517,65.46905,52.16393,65.89929 M56.56827,65.2496
		c-1.91446,0.61685-1.45834-1.26138-2.24108-2.13741c1.22853-0.53912,2.33442-1.3495,3.12929-0.05185
		C57.92473,63.82408,57.65686,64.89711,56.56827,65.2496 M59.36926,64.56362c-0.25743-1.04192-0.51497-2.07695-0.78443-3.16552
		c0.971-0.4648,1.94041-0.85358,2.70069,0.17106C61.80218,62.26378,60.62374,64.05216,59.36926,64.56362 M63.19998,62.74932
		c-0.18308-1.06784-1.30795-1.98362,0.10884-2.59703c0.58405-0.25399,1.97163-0.09504,2.04239,0.1486
		C65.80048,61.8629,64.47692,62.13592,63.19998,62.74932 M67.80143,60.52379c-0.19005-0.06566-0.3802-0.1296-0.57024-0.19352
		c-0.31797-0.58404-0.63415-1.16807-1.11105-2.04412c0.67739-0.29892,1.32187-0.63932,2.00611-0.83802
		c0.14343-0.03975,0.67043,0.51491,0.62382,0.67733C68.50465,58.94621,68.12974,59.72723,67.80143,60.52379 M32.65247,33.97456
		c3.14648-5.004,7.78242-7.2278,13.69181-6.64032c0.54092,0.05356,1.23033,0.27818,1.53955,0.6687
		c1.0869,1.37541,2.43988,1.24235,3.55093,0.43543c3.37112-2.44498,6.44336-1.24927,9.51549,0.50455
		c5.51381,3.15342,8.09522,7.95008,7.84812,14.30358c0.15903,0.02592,0.31797,0.05356,0.4769,0.07948
		c-0.8224,3.1707-1.65186,6.33967-2.46223,9.51384c-0.15546,0.60649-0.50105,1.33221-0.30933,1.82639
		c0.53396,1.36505-0.19869,2.05447-1.18361,2.52274c-2.24794,1.06956-4.53395,2.07002-6.83894,3.01173
		c-2.5038,1.02292-5.04903,1.95254-7.57687,2.91671c-0.24541,0.09158-0.50801,0.20388-0.76028,0.19698
		c-1.63288-0.05183-3.39537,0.23845-4.86753-0.28338c-3.15693-1.11968-6.46751-1.93871-9.0853-4.34394
		C29.1742,52.23676,27.59827,42.01449,32.65247,33.97456"/>
	<path class="st0" d="M44.69157,57.23161c1.42723-0.67388,2.85266-1.01773,3.76154-1.8955
		c0.57541-0.55467,0.61864-1.95772,0.41995-2.87696c-0.08817-0.41298-1.41341-0.89851-2.07182-0.77584
		c-1.20776,0.22464-2.51402,0.66179-3.43672,1.4238c-0.59618,0.49245-0.88989,1.78319-0.73265,2.60394
		C42.73904,56.27609,43.84998,56.64931,44.69157,57.23161"/>
	<path class="st0" d="M60.57364,52.89544c0.35246-0.03801,0.67211-0.05874,0.98312-0.11058
		c0.89158-0.15033,2.38282-1.85403,2.19616-2.70245c-0.28169-1.27692-1.32524-1.70889-2.52277-1.73654
		c-0.45961-0.01037-0.95381,0.09849-1.38399,0.26955c-1.25279,0.49937-2.42775,1.37715-2.21862,2.75428
		C57.85386,52.8488,59.40205,52.7624,60.57364,52.89544"/>
	<path class="st0" d="M65.44392,51.28676c-0.70154,1.11278-1.35995,2.15815-2.22906,3.53703
		C65.37653,54.42118,66.29057,52.7503,65.44392,51.28676"/>
	<path class="st0" d="M54.72868,58.86326c-0.54092-1.05401-0.92101-1.79182-1.29941-2.53137
		c-0.31101,0.28165-0.85014,0.53219-0.8899,0.8484C52.4046,58.24469,52.98686,58.81143,54.72868,58.86326"/>
	<path class="st0" d="M38.90367,58.33333c-1.03849-0.81383-1.83168-1.43588-2.81132-2.2048
		C36.07853,58.3869,36.84398,59.02103,38.90367,58.33333"/>
	<path class="st0" d="M39.078,44.81024c0.08975-0.13823,0.1796-0.27473,0.26945-0.41297
		c-0.41468-0.69116-0.82936-1.38231-1.24404-2.07348l-0.59618-0.09504c0,0.60649-0.20386,1.33221,0.06054,1.78492
		C37.80971,44.43184,38.55438,44.55625,39.078,44.81024"/>
	<path class="st0" d="M56.44614,58.09833c-0.23328-1.00563-0.39918-1.71925-0.56338-2.43115
		c-0.24362,0.07257-0.48724,0.14687-0.73086,0.21944C54.98601,56.70911,54.65422,57.58687,56.44614,58.09833"/>
</g>
</svg>
