<?xml version="1.0" encoding="utf-8"?>
<!-- Generator: Adobe Illustrator 19.2.1, SVG Export Plug-In . SVG Version: 6.00 Build 0)  -->
<svg version="1.1" id="Layer_2" xmlns="http://www.w3.org/2000/svg" xmlns:xlink="http://www.w3.org/1999/xlink" x="0px" y="0px"
	 viewBox="0 0 576.5 204.4" style="enable-background:new 0 0 576.5 204.4;" xml:space="preserve">
<style type="text/css">
	.st0{clip-path:url(#SVGID_2_);}
	.st1{opacity:0.5;}
	.st2{fill:#1B75BB;}
	.st3{fill:#1F85C7;}
	.st4{fill:#1F96D3;}
	.st5{fill:#26A9E0;}
	.st6{fill:#262261;}
	.st7{fill:#2B4D81;}
	.st8{fill:#2F76A8;}
	.st9{fill:#4D81C2;}
	.st10{fill:#5D5CA8;}
	.st11{fill:#652D90;}
	.st12{fill:#7BB9E1;}
	.st13{fill:#B2CEE4;}
	.st14{fill:#E6E7E8;}
	.st15{fill:#58595B;}
	.st16{fill:#A6A8AB;}
	.st17{fill:url(#SVGID_3_);}
</style>
<title>currents-alaska</title>
<g>
	<g>
		<defs>
			<circle id="SVGID_1_" cx="102.2" cy="102.2" r="101.8"/>
		</defs>
		<clipPath id="SVGID_2_">
			<use xlink:href="#SVGID_1_"  style="overflow:visible;"/>
		</clipPath>
		<g class="st0">
			<g class="st1">
				<circle class="st2" cx="1.2" cy="-49.3" r="202.1"/>
				<circle class="st3" cx="1.2" cy="-49.3" r="151.6"/>
				<circle class="st4" cx="1.2" cy="-49.3" r="101.1"/>
				<circle class="st5" cx="1.2" cy="-49.3" r="50.5"/>
			</g>
			<g class="st1">
				<circle class="st6" cx="253.8" cy="-49.3" r="202.1"/>
				<circle class="st7" cx="253.8" cy="-49.3" r="151.6"/>
				<circle class="st8" cx="253.8" cy="-49.3" r="101.1"/>
				<circle class="st5" cx="253.8" cy="-49.3" r="50.5"/>
			</g>
			<g class="st1">
				<circle class="st5" cx="1.2" cy="203.3" r="202.1"/>
				<circle class="st9" cx="1.2" cy="203.3" r="151.6"/>
				<circle class="st10" cx="1.2" cy="203.3" r="101.1"/>
				<circle class="st11" cx="1.2" cy="203.3" r="50.5"/>
			</g>
			<g class="st1">
				<circle class="st5" cx="253.8" cy="203.3" r="202.1"/>
				<circle class="st12" cx="253.8" cy="203.3" r="151.6"/>
				<circle class="st13" cx="253.8" cy="203.3" r="101.1"/>
				<circle class="st14" cx="253.8" cy="203.3" r="50.5"/>
			</g>
		</g>
	</g>
</g>
<path class="st15" d="M275.2,55.9c5.1,0,14.2,2.1,14.2,8.8v4.6h-8.6v-2.1c0-2.1-3.2-3.1-5.6-3.1c-6.7,0-11.6,5.1-11.6,12.2
	c0,8,5.9,12,12.2,12c6.7,0,11.6-5.3,11.6-5.3l4.1,6.7c-4.3,4.5-10.2,7.1-16.5,7.1c-12.9,0-21.1-9.1-21.1-20.5
	C253.8,65.3,261.8,55.9,275.2,55.9z"/>
<path class="st15" d="M298.8,66.8c0.1-0.8-0.5-1.6-1.3-1.7c-0.1,0-0.3,0-0.4,0H294v-8.3h9.3c3.6,0,5.1,1.6,5.1,5.1v18
	c0,4.8,1.2,8,6.1,8c7,0,11-6.2,11-13.2V56.8h9.7V86c-0.1,0.8,0.5,1.6,1.4,1.7c0.1,0,0.2,0,0.3,0h3.1v8.2h-9c-3.4,0-5.1-1.6-5.1-4.4
	v-1.1c0-0.9,0.1-1.8,0.1-1.8h-0.2c-2.6,5.1-7.8,8.2-13.5,8.1c-8.4,0-13.5-4.2-13.5-14.9V66.8L298.8,66.8z"/>
<path class="st15" d="M347.8,66.8c0.1-0.8-0.5-1.6-1.3-1.7c-0.1,0-0.3,0-0.4,0H343v-8.3h8.9c3.5,0,5.2,1.5,5.2,4.8v2.3
	c0,0.8,0,1.6-0.2,2.5h0.2c1.8-5.6,6.4-10,12.4-10c0.6,0,1.2,0.1,1.8,0.2V66c-0.8-0.1-1.6-0.2-2.4-0.2c-5,0-9.4,3.4-10.6,8.2
	c-0.6,2.1-0.9,4.2-0.8,6.4v15.5h-9.6L347.8,66.8L347.8,66.8z"/>
<path class="st15" d="M379.8,66.8c0.1-0.8-0.5-1.6-1.3-1.7c-0.1,0-0.3,0-0.4,0H375v-8.3h8.9c3.5,0,5.2,1.5,5.2,4.8v2.3
	c0,0.8,0,1.6-0.2,2.5h0.2c1.8-5.6,6.4-10,12.4-10c0.6,0,1.2,0.1,1.8,0.2V66c-0.8-0.1-1.6-0.2-2.4-0.2c-5,0-9.4,3.4-10.6,8.2
	c-0.6,2.1-0.9,4.2-0.8,6.4v15.5h-9.7V66.8z"/>
<path class="st15" d="M425.9,55.9c11.2,0,17.3,8.2,17.3,18.5c0,1.2-0.2,3.6-0.2,3.6h-27c0.8,6.9,5.8,10.5,11.7,10.5
	c6.3,0,11-4.4,11-4.4l4.1,6.7c-4.3,3.8-9.9,5.9-15.7,5.9c-12.9,0-21-9.3-21-20.5C406,64.3,414.1,55.9,425.9,55.9z M433.2,71.3
	c-0.1-4.7-3.4-7.9-7.4-7.9c-5,0-8.5,3-9.6,7.9H433.2L433.2,71.3z"/>
<path class="st15" d="M452.6,66.8c0.1-0.8-0.5-1.6-1.3-1.7c-0.1,0-0.3,0-0.4,0h-3.1v-8.3h9c3.4,0,5.1,1.6,5.1,4.4v1.1
	c0,0.6-0.1,1.1-0.1,1.7h0.1c2.7-5.1,8-8.3,13.8-8.1c8.7,0,13.6,4.5,13.6,14.9V86c-0.1,0.8,0.5,1.6,1.4,1.7c0.1,0,0.2,0,0.3,0h3.1
	v8.2h-9.3c-3.7,0-5.2-1.5-5.2-5.2v-18c0-4.7-1.2-8-6.1-8c-4.9-0.1-9.2,3.2-10.5,8c-0.5,1.7-0.8,3.4-0.8,5.2v17.9h-9.7L452.6,66.8
	L452.6,66.8z"/>
<path class="st15" d="M502,64.5h-5.1v-7.7h5.3V46.1h9.5v10.6h8.9v7.7h-8.9v15.8c0,6.4,5.1,7.4,7.7,7.4c0.6,0,1.2,0,1.8-0.1V96
	c-1,0.2-2,0.2-3,0.2c-5.4,0-16.2-1.6-16.2-14.7L502,64.5L502,64.5z"/>
<path class="st15" d="M530.3,83.5c0,0,5,5.7,11.6,5.7c3,0,5.3-1.2,5.3-3.8c0-5.5-20.6-5.4-20.6-18.1c0-7.8,7-11.4,15.2-11.4
	c5.3,0,13.7,1.8,13.7,8.1v4.1H547v-1.9c0-1.8-2.8-2.8-4.9-2.8c-3.4,0-5.8,1.2-5.8,3.5c0,6.1,20.8,4.9,20.8,17.9c0,7.4-6.5,12-15,12
	c-6.2,0.1-12.1-2.4-16.2-7L530.3,83.5z"/>
<path class="st16" d="M286,157.5c-0.5-1.4-1-2.9-1.5-4.5c-0.5-1.5-1.1-3-1.6-4.6h-16.3c-0.5,1.5-1.1,3-1.6,4.6c-0.5,1.5-1,3-1.5,4.4
	h-9.7c1.6-4.5,3-8.6,4.5-12.4c1.4-3.8,2.8-7.4,4.1-10.8c1.3-3.4,2.7-6.6,4-9.6s2.7-6,4.1-8.9h8.9c1.4,2.9,2.7,5.8,4,8.9
	c1.3,3,2.7,6.2,4,9.6s2.7,6.9,4.1,10.8c1.4,3.8,2.9,7.9,4.5,12.4h-10V157.5z M274.7,125.3c-0.2,0.6-0.5,1.4-0.9,2.5
	c-0.4,1-0.9,2.2-1.4,3.6c-0.5,1.4-1.1,2.9-1.7,4.5s-1.3,3.4-1.9,5.2h11.9c-0.6-1.8-1.3-3.5-1.9-5.2c-0.6-1.6-1.2-3.1-1.7-4.5
	s-1-2.6-1.4-3.6C275.3,126.7,274.9,125.9,274.7,125.3z"/>
<path class="st16" d="M341.1,149.4v8h-27.8v-41.6h9.4v33.6H341.1L341.1,149.4z"/>
<path class="st16" d="M389,157.5c-0.5-1.4-1-2.9-1.5-4.5c-0.5-1.5-1.1-3-1.6-4.6h-16.3c-0.5,1.5-1.1,3-1.6,4.6c-0.5,1.5-1,3-1.5,4.4
	h-9.7c1.6-4.5,3-8.6,4.5-12.4c1.4-3.8,2.8-7.4,4.1-10.8c1.3-3.4,2.7-6.6,4-9.6s2.7-6,4.1-8.9h8.9c1.4,2.9,2.7,5.8,4,8.9
	c1.3,3,2.7,6.2,4,9.6s2.7,6.9,4.1,10.8c1.4,3.8,2.9,7.9,4.5,12.4h-10V157.5z M377.7,125.3c-0.2,0.6-0.5,1.4-0.9,2.5
	c-0.4,1-0.9,2.2-1.4,3.6c-0.5,1.4-1.1,2.9-1.7,4.5s-1.3,3.4-1.9,5.2h11.9c-0.6-1.8-1.3-3.5-1.9-5.2c-0.6-1.6-1.2-3.1-1.7-4.5
	s-1-2.6-1.4-3.6C378.3,126.7,377.9,125.9,377.7,125.3z"/>
<path class="st16" d="M428.8,150.3c1.1,0,2.2-0.1,3.3-0.3c0.7-0.2,1.4-0.5,2.1-0.9c0.5-0.3,0.9-0.8,1.1-1.4c0.2-0.6,0.3-1.1,0.3-1.7
	c0-1.4-0.7-2.7-1.9-3.4c-2.1-1.3-4.3-2.2-6.6-2.9c-1.4-0.5-2.7-1-4.1-1.7c-1.3-0.6-2.6-1.4-3.7-2.3c-1.1-1-2-2.1-2.6-3.4
	c-0.7-1.5-1.1-3.2-1-4.9c0-1.8,0.3-3.6,1.1-5.2c0.7-1.5,1.8-2.9,3.1-3.9c1.4-1.1,3.1-2,4.8-2.5c2.1-0.6,4.2-0.9,6.4-0.9
	c4.3-0.1,8.5,0.9,12.3,2.9l-2.7,7.4c-1.2-0.6-2.5-1.2-3.9-1.6c-1.7-0.5-3.4-0.7-5.1-0.7c-1.7-0.1-3.3,0.2-4.8,0.9
	c-1,0.6-1.5,1.7-1.5,2.9c0,0.7,0.2,1.4,0.5,1.9c0.4,0.6,0.9,1,1.5,1.4c0.7,0.5,1.5,0.8,2.3,1.1c0.9,0.3,1.8,0.7,2.9,1.1
	c2.2,0.8,4,1.6,5.6,2.4c1.5,0.7,2.8,1.6,4,2.7c1.1,1,1.9,2.3,2.4,3.7c0.6,1.6,0.8,3.4,0.8,5.1c0.2,3.5-1.3,6.9-4.1,9
	c-2.7,2.1-6.8,3.2-12.3,3.2c-1.7,0-3.3-0.1-5-0.3c-1.3-0.2-2.6-0.5-3.9-0.8c-1.7-0.5-3.4-1.2-5-2l2.6-7.4c1.5,0.8,3,1.4,4.6,1.8
	C424.3,150.1,426.6,150.4,428.8,150.3z"/>
<path class="st16" d="M489,157.5c-0.8-1.4-1.8-2.8-3-4.4c-1.1-1.6-2.4-3.2-3.7-4.8c-1.3-1.6-2.7-3.1-4.1-4.6
	c-1.4-1.4-2.8-2.7-4.3-3.9v17.6h-9.4v-41.6h9.4v15.6c2.4-2.5,4.9-5.2,7.3-7.9c2.5-2.8,4.8-5.3,6.9-7.7h11.1
	c-2.8,3.4-5.7,6.6-8.5,9.7c-2.9,3.1-5.9,6.2-9.1,9.4c3.5,3,6.7,6.3,9.6,9.9c3.2,4,6.2,8.2,8.9,12.6L489,157.5L489,157.5z"/>
<path class="st16" d="M547,157.5c-0.5-1.4-1-2.9-1.5-4.5c-0.5-1.5-1.1-3-1.6-4.6h-16.3c-0.5,1.5-1.1,3-1.6,4.6c-0.5,1.5-1,3-1.5,4.4
	h-9.7c1.6-4.5,3-8.6,4.5-12.4c1.4-3.8,2.8-7.4,4.1-10.8c1.3-3.4,2.7-6.6,4-9.6s2.7-6,4.1-8.9h8.9c1.4,2.9,2.7,5.8,4,8.9
	c1.3,3,2.7,6.2,4,9.6s2.7,6.9,4.1,10.8c1.4,3.8,2.9,7.9,4.5,12.4h-10V157.5z M535.7,125.3c-0.2,0.6-0.5,1.4-0.9,2.5
	c-0.4,1-0.9,2.2-1.4,3.6c-0.5,1.4-1.1,2.9-1.7,4.5c-0.6,1.6-1.3,3.4-1.9,5.2h11.9c-0.6-1.8-1.3-3.5-1.9-5.2
	c-0.6-1.6-1.2-3.1-1.7-4.5s-1-2.6-1.4-3.6C536.3,126.7,536,125.9,535.7,125.3z"/>
<path class="st15" d="M570.2,60.1c0.3,0,0.6,0,0.9,0.2c0.2,0.1,0.5,0.2,0.7,0.4s0.3,0.4,0.4,0.6c0.1,0.2,0.1,0.5,0.1,0.8
	c0,0.4-0.1,0.8-0.3,1.1s-0.5,0.6-0.9,0.7l0,0c0.2,0,0.3,0.1,0.5,0.2c0.1,0.1,0.2,0.2,0.3,0.4c0.1,0.2,0.1,0.3,0.2,0.5
	c0,0.2,0.1,0.4,0.1,0.5s0,0.2,0,0.4c0,0.2,0,0.3,0,0.5s0,0.3,0.1,0.5c0,0.1,0.1,0.3,0.2,0.4h-1.6c-0.1-0.3-0.1-0.5-0.2-0.8
	c0-0.3-0.1-0.6-0.1-0.9s-0.1-0.6-0.3-0.8c-0.2-0.2-0.5-0.3-0.9-0.3h-1.6v2.8h-1.6v-7.2C566.2,60.1,570.2,60.1,570.2,60.1z
	 M569.6,63.3c0.3,0,0.6-0.1,0.8-0.2c0.2-0.2,0.3-0.5,0.3-0.8s-0.1-0.6-0.3-0.8s-0.5-0.3-0.8-0.2h-1.7v2H569.6z"/>
<path class="st15" d="M569.1,71c-4.1,0-7.4-3.3-7.4-7.4s3.3-7.4,7.4-7.4c4.1,0,7.4,3.3,7.4,7.4l0,0C576.5,67.7,573.2,71,569.1,71z
	 M569.1,57.9c-3.2,0-5.7,2.6-5.7,5.7c0,3.2,2.6,5.7,5.7,5.7c3.2,0,5.7-2.6,5.7-5.7l0,0C574.8,60.5,572.2,57.9,569.1,57.9L569.1,57.9
	z"/>
<linearGradient id="SVGID_3_" gradientUnits="userSpaceOnUse" x1="29.9337" y1="1026.8467" x2="174.4663" y2="1171.3793" gradientTransform="matrix(1 0 0 1 0 -996.913)">
	<stop  offset="0" style="stop-color:#FFFFFF"/>
	<stop  offset="6.290000e-002" style="stop-color:#FFFFFF;stop-opacity:0.8552"/>
	<stop  offset="0.1601" style="stop-color:#FFFFFF;stop-opacity:0.6568"/>
	<stop  offset="0.2621" style="stop-color:#FFFFFF;stop-opacity:0.4808"/>
	<stop  offset="0.3668" style="stop-color:#FFFFFF;stop-opacity:0.3325"/>
	<stop  offset="0.475" style="stop-color:#FFFFFF;stop-opacity:0.2117"/>
	<stop  offset="0.5878" style="stop-color:#FFFFFF;stop-opacity:0.1182"/>
	<stop  offset="0.7072" style="stop-color:#FFFFFF;stop-opacity:5.190000e-002"/>
	<stop  offset="0.8376" style="stop-color:#FFFFFF;stop-opacity:1.250000e-002"/>
	<stop  offset="1" style="stop-color:#FFFFFF;stop-opacity:0"/>
</linearGradient>
<circle class="st17" cx="102.2" cy="102.2" r="102.2"/>
</svg>
