<svg id="Layer_1" data-name="Layer 1" xmlns="http://www.w3.org/2000/svg" viewBox="0 0 399.4395 95.8884"><defs><style>.cls-1{fill:#bbaa6f;}.cls-2{fill:#2e496a;}</style></defs><title>dbeacom-color</title><path class="cls-1" d="M40.4371.0093H0V2.648H.7834c5.25,0,7.12,8.5916,7.12,16.632V76.7516c0,3.8389-.5134,16.3643-7.12,16.3643H0v2.7725H35.8523V48.733H46.0211c9.945,0,22.322,0,22.322,21.7875,0,16.9366-7.0946,21.0972-16.2454,22.12v2.7039c11.2269-1.1005,20.5519-3.87,27.8141-8.2775,12.9065-7.8325,19.4506-20.8585,19.4506-38.7161C99.3623,8.3961,67.3186.0093,40.4371.0093Zm5.584,45.9547H35.8523V2.9226h5.8945c10.0475,0,20.3189,2.4934,20.3189,20.9866C62.0657,44.3044,54.7994,45.964,46.0211,45.964Z"/><path class="cls-2" d="M151.5493,49.3821l-7.3937,1.2208c-1.9.3395-1.9-1.2208-1.9-1.2208V45.6508c-2.103,3.46-6.6476,5.02-9.9714,5.02-9.0891,0-14.3126-7.19-14.3126-16.687,0-10.5141,6.8509-15.8728,15.9409-15.8728a14.3078,14.3078,0,0,1,8.343,2.51V6.5123c0-2.3744-.678-3.2566-3.459-3.7994V1.8316L148.0894,0V44.7695c0,3.3238.7461,3.73,3.46,3.73ZM142.256,28.8285c0-6.5795-4.07-9.8352-8.2078-9.8352-4.4765,0-9.021,3.1876-9.021,14.0412,0,10.7846,3.459,15.6686,9.3605,15.6686A7.6608,7.6608,0,0,0,142.256,40.7Z"/><path class="cls-2" d="M156.1583,46.3969a4.0245,4.0245,0,0,1,4.0027-4.07,4.0684,4.0684,0,0,1,4.0018,4.07A4.01,4.01,0,0,1,160.161,50.4,3.9667,3.9667,0,0,1,156.1583,46.3969Z"/><path class="cls-2" d="M186.2729,50.6709a13.5894,13.5894,0,0,1-9.4957-3.3919c-1.8316,1.8988-4.884,3.5271-4.884,2.4416V6.5123c0-2.3063-.6108-3.2566-3.46-3.7994V1.8316L177.7946,0V23.5379c2.0349-3.6632,6.6476-5.4268,10.1066-5.4268,9.0215,0,14.2441,7.2584,14.2441,16.5509C202.1453,45.108,195.2944,50.6709,186.2729,50.6709Zm-.678-30.3216c-4.9521,0-7.8,3.5952-7.8,8.8187V39.4107c0,7.0542,3.73,10.378,8.275,10.378s8.9534-3.3919,8.9534-14.1765C195.023,24.962,191.4964,20.3493,185.5949,20.3493Z"/><path class="cls-2" d="M234.2268,42.0556c-.7461,3.1886-4.4774,8.6153-12.481,8.6153-8.4792,0-14.5168-7.0551-14.5168-16.009,0-10.0385,6.3762-16.5509,14.7882-16.5509,7.8683,0,13.2942,5.0193,13.2942,15.67H213.6051c.2714,9.1572,4.3413,12.82,9.7,13.3623,4.0708.4075,8.8867-2.1021,10.1075-5.4259Zm-4.7488-9.1572c0-9.9033-4.4084-13.9051-7.665-13.9051-3.8666,0-8.2078,5.3587-8.2078,13.9051Z"/><path class="cls-2" d="M269.4278,45.7188l.8142.3395a6.3317,6.3317,0,0,1-6.24,4.6126,5.7026,5.7026,0,0,1-5.7663-5.6982c-.9494,3.2557-4.884,5.6982-9.6319,5.6982,0,0-7.7331,0-7.7331-6.987,0-6.7828,5.7663-8.2759,17.365-11.26V28.4891c0-6.9861-3.5271-10.9207-8.9539-8.4111-2.6449,1.2889-3.0524,2.5777-2.6449,2.6458a3.0927,3.0927,0,0,1,2.1021,1.2208,3.1536,3.1536,0,0,1-.678,4.4093,3.0039,3.0039,0,0,1-4.3413-.6108,3.1518,3.1518,0,0,1-.3395-3.3238c.4747-1.0175,1.6283-3.0524,5.2916-5.0193a13.5992,13.5992,0,0,1,6.24-1.2889c7.3937,0,9.4286,5.4949,9.4286,13.5665V43.2092s-.0681,4.2732,3.0524,4.2732A2.2107,2.2107,0,0,0,269.4278,45.7188Zm-22.52-3.459a5.1745,5.1745,0,0,0,5.3587,5.3587,6.36,6.36,0,0,0,5.97-4.206V33.3059C250.3673,35.2047,246.9074,38.189,246.9074,42.26Z"/><path class="cls-2" d="M301.3731,41.7171c-.7461,3.3909-4.206,8.9539-12.5491,8.9539-7.597,0-14.7873-6.241-14.7873-16.2123A16.0357,16.0357,0,0,1,290.52,18.1111c6.6476,0,8.6825,3.0524,9.2934,4.1379a3.4038,3.4038,0,0,1,.0681,3.3238,3.2836,3.2836,0,0,1-4.3413,1.1527,3.0812,3.0812,0,0,1-1.1536-4.2732,2.7285,2.7285,0,0,1,1.9-1.4241c.6108-.1362-1.2208-2.0349-5.7663-2.0349-2.7129,0-10.1747,2.0349-10.1747,14.7192,0,9.022,5.0873,12.7524,9.9042,13.2271,4.9512.4075,9.1572-2.781,10.378-5.562Z"/><path class="cls-2" d="M321.99,50.6709c-10.3108,0-15.67-7.3937-15.67-16.28,0-8.9539,5.3587-16.2795,15.67-16.2795,10.378,0,15.6015,7.3256,15.6015,16.2795C337.5916,43.2773,332.3682,50.6709,321.99,50.6709Zm0-31.6776c-5.2235,0-8.7506,3.12-8.7506,15.3972s3.5271,15.3982,8.7506,15.3982c5.1554,0,8.6144-3.12,8.6144-15.3982S327.1456,18.9933,321.99,18.9933Z"/><path class="cls-2" d="M389.8863,50.06H378.4909v-.8142c2.5777-.7461,2.7129-2.0349,2.7129-5.494V29.168c0-4.884-1.8316-7.665-6.1729-7.665-3.3909,0-6.24,3.459-6.24,5.9686v16.28c0,3.73.3385,4.884,2.781,5.494V50.06H360.1755v-.8142c2.5777-.7461,2.7139-2.0349,2.7139-5.494V29.168c0-4.884-1.8316-7.665-6.1729-7.665-3.3919,0-5.9015,3.5271-6.3762,5.8334V43.8191c0,3.7313.3395,4.7488,2.781,5.3587V50.06H341.7259v-.8822c2.5777-.7461,2.6449-1.8988,2.6449-5.3587V25.1653c0-2.3735-.5428-3.5271-3.3909-4.2732v-.8142l9.3605-1.9669v6.987c1.4922-3.8666,5.2906-6.987,9.5638-6.987,4.7488,0,7.8012,2.1711,8.6825,7.2584a10.5079,10.5079,0,0,1,9.6328-7.2584c5.562,0,8.8858,2.6458,8.8858,10.8536V43.752c0,3.73.4066,4.884,2.781,5.494Z"/><path class="cls-2" d="M148.7895,89.687a5.53,5.53,0,0,1-5.8077,5.9806c-1.04.0432-4.03-.0432-5.8067-1.8206-.4333-.39-2.0368-2.5565-2.6007-3.3367-1.6467,4.9843-10.8343,7.758-14.7781,1.8638-4.1168-6.1545,2.08-10.6613,5.4176-12.6549l1.2567-.78-1.9071-2.86c-4.3339-5.9374-1.6035-12.4387,4.724-12.9152,3.12-.2171,5.6338,1.2134,6.5878,3.9871.563,1.69,1.5161,5.5041-3.4673,9.1011l5.3734,8.0606c1.6909-3.2934,3.6844-4.3339,5.2879-4.7672a3.9081,3.9081,0,0,1,3.4231.5639,3.1962,3.1962,0,0,1-4.16,4.8537,2.7084,2.7084,0,0,1-1.0837-2.1232c-.0432-1.04-2.1665-.1306-3.12,1.95.65,1.04,2.8169,4.2465,3.25,4.7672a4.5585,4.5585,0,0,0,3.7709,2.2962c1.517,0,2.8169-.52,3.034-2.1665ZM126.8606,79.459l-1.2567.8234c-1.95,1.517-2.7737,5.3311.3459,9.3182,1.9945,2.5565,6.3716,4.0735,8.2345.39Zm4.1168-14.7781c-2.0368.3036-4.1168,3.3367-1.7764,6.7607l2.86,4.2907c4.55-3.0772,3.6835-6.8481,2.99-8.321C134.2275,65.6772,132.7115,64.4205,130.9774,64.6809Z"/><path class="cls-2" d="M166.2952,95.8884c-8.2078,0-11.8711-2.7139-11.8711-2.7139V83.9493h.8822c.4747,4.4774,2.17,11.0569,10.9888,11.0569,7.19,0,6.3081-7.19,1.1527-10.5822l-6.8509-4.137c-6.5114-4.3413-8.0045-8.4111-5.2906-13.0918,0,0,2.0349-3.8666,8.9539-3.8666,7.8,0,11.056,2.1711,11.056,2.1711v8.275h-.8132c-.4756-4.0018-2.3744-9.5638-10.2427-9.5638-6.4443,0-6.919,6.3762-1.0175,10.1066l6.8509,4.2732c6.1048,3.7985,8.0717,9.2934,4.8159,13.9741C174.91,92.5646,172.6033,95.8884,166.2952,95.8884Z"/><path class="cls-2" d="M197.8335,95.8884c-10.31,0-15.6691-7.3937-15.6691-16.28,0-8.9539,5.3587-16.2795,15.6691-16.2795,10.378,0,15.6015,7.3256,15.6015,16.2795C213.4349,88.4948,208.2115,95.8884,197.8335,95.8884Zm0-31.6776c-5.223,0-8.75,3.12-8.75,15.3972s3.5271,15.3982,8.75,15.3982c5.1554,0,8.6144-3.12,8.6144-15.3982S202.9889,64.2108,197.8335,64.2108Z"/><path class="cls-2" d="M248.7721,95.2776H237.3758v-.8142c2.5777-.7461,2.7139-2.0349,2.7139-5.494V74.3855c0-4.6126-2.4425-7.665-6.919-7.665-3.528,0-6.3762,3.3919-6.919,5.8334V89.0366c0,3.7313.3385,4.7488,2.781,5.3587v.8822H217.6364v-.8822c2.5777-.7461,2.6458-1.8988,2.6458-5.3587V70.1123c0-2.3744-.5428-3.2566-3.3919-4.0027v-.8142l9.3614-1.9669v7.1223a11.7861,11.7861,0,0,1,10.378-7.1223c5.4949,0,9.3605,2.6458,9.3605,10.8536V88.9695c0,3.73.4075,4.884,2.7819,5.494Z"/><path class="cls-2" d="M265.6588,95.8884c-8.2078,0-11.8711-2.7139-11.8711-2.7139V83.9493h.8822c.4747,4.4774,2.17,11.0569,10.9888,11.0569,7.19,0,6.3081-7.19,1.1527-10.5822l-6.8509-4.137c-6.5114-4.3413-8.0045-8.4111-5.2906-13.0918,0,0,2.0349-3.8666,8.9539-3.8666,7.8,0,11.056,2.1711,11.056,2.1711v8.275h-.8132c-.4756-4.0018-2.3744-9.5638-10.2427-9.5638-6.4443,0-6.919,6.3762-1.0175,10.1066l6.8509,4.2732c6.1048,3.7985,8.0717,9.2934,4.8159,13.9741C274.2732,92.5646,271.9669,95.8884,265.6588,95.8884Z"/><path class="cls-1" d="M92.3628,92.1885H95.367v.4431H94.1148v3.2568h-.5V92.6316H92.3628Z"/><path class="cls-1" d="M98.8779,95.8884V93.7036c0-.1083.01-.5774.01-.9227h-.01l-1.0408,3.1075h-.4947l-1.041-3.102h-.01c0,.34.01.809.01.9172v2.1848H95.817v-3.7h.7162l1.0565,3.128h.01l1.0511-3.128h.7112v3.7Z"/><path class="cls-2" d="M394.6059,23.95h-.5252V20.0616h1.7979c.6392,0,1.2782.2223,1.2782,1.0451a.9587.9587,0,0,1-.5415.9318c.222.0922.4441.19.4657.7311l.0324.7038c.0055.2165.0326.2981.1951.39V23.95h-.6445a4.7659,4.7659,0,0,1-.0922-.975c0-.3193-.0648-.6932-.6932-.6932h-1.2727Zm0-2.1176h1.2187c.3845,0,.7907-.0975.7907-.6716,0-.6011-.4388-.65-.6987-.65h-1.3106Z"/><path class="cls-2" d="M395.5448,25.9006a3.8948,3.8948,0,1,1,3.8948-3.8948A3.8992,3.8992,0,0,1,395.5448,25.9006Zm0-7.3379a3.4432,3.4432,0,1,0,3.4432,3.4432A3.4471,3.4471,0,0,0,395.5448,18.5627Z"/></svg>