<svg id="ARTWORK" xmlns="http://www.w3.org/2000/svg" viewBox="0 0 1201.8203 740.8979"><defs><style>.cls-1{fill:#8dc63f;}.cls-2{fill:#231f20;}</style></defs><title>direffect</title><path class="cls-1" d="M459.2434,413.8436c-11.0227,0-12.9278-6.48-13.0829-10.3406l-6.6952-171.4387c-0.2265-5.6809,3.1609-8.0045,5.2019-8.8829,2.45-1.0555,5.32-1.1708,8.3586-1.2915l0.4955,4.2-0.1688-4.2123c1.0815-.0439,2.1247-0.0837,3.1033-0.0837,7.2044,0,10.98,3.0772,11.2231,9.1451l6.6938,171.4387c0.1976,4.9575-2.0135,10.9692-13.67,11.4358C460.2069,413.8326,459.721,413.8436,459.2434,413.8436Z"/><path class="cls-2" d="M456.4579,226.0094c3.9515,0,6.8317.7182,7.0071,5.0989l6.694,171.4342c0.2186,5.4636-4.1625,6.8389-9.6262,7.0575-0.4365.0175-.8671,0.027-1.2893,0.027-4.8628,0-8.6688-1.2659-8.87-6.2929L443.68,231.9c-0.2186-5.4636,4.2128-5.5847,9.6764-5.8033,1.0827-.0433,2.1253-0.0872,3.1021-0.0872m0-8.4328c-1.0348,0-2.1356.0416-3.278,0.0875l-0.1616.0064-0.1639.0066c-3.2889.1312-6.69,0.267-9.8586,1.6327-5.16,2.224-7.9824,6.9358-7.7426,12.9272l6.6938,171.426c0.1353,3.3834,1.7816,14.3967,17.2962,14.3967,0.5327,0,1.0759-.0118,1.6265-0.0338,4.6524-.1861,8.1338-1.0641,10.9561-2.7633a14.0755,14.0755,0,0,0,6.759-13.0573l-6.6938-171.426c-0.159-3.9754-1.9807-13.2027-15.433-13.2027h0Z"/><path class="cls-2" d="M462.3779,227.727a26.2027,26.2027,0,0,0-15.3364,5.1327s10.4755-4.1482,16.3671-2.3829l3.4834-1.5946Z"/><path class="cls-2" d="M443.2379,237.3169a26.2027,26.2027,0,0,1,15.6416-4.11s-11.0359,2.27-14.997,6.9749l-3.7876.5748Z"/><path class="cls-2" d="M462.6823,235.3339a26.2027,26.2027,0,0,0-15.3364,5.1327s10.4755-4.1482,16.3671-2.3829l3.4834-1.5946Z"/><path class="cls-2" d="M468.9221,394.6369a26.2027,26.2027,0,0,0-15.3364,5.1327s10.4755-4.1482,16.3671-2.3829l3.4834-1.5946Z"/><path class="cls-2" d="M449.782,404.2268a26.2027,26.2027,0,0,1,15.6416-4.11s-11.0359,2.27-14.997,6.9749l-3.7876.5748Z"/><path class="cls-2" d="M469.2264,402.2438a26.2027,26.2027,0,0,0-15.3364,5.1327s10.4755-4.1482,16.3671-2.3829l3.4834-1.5946Z"/><path class="cls-2" d="M470.1108,401.3068s-14.9826,5.6082-19.2677-40.828c0,0,3.0469,47.9763-.4695,42.8552l0.2831,9.6954,7.4255,1.3988,14.2719-4.8013Z"/><path class="cls-2" d="M443.1455,446.8525a2.0327,2.0327,0,0,1-.1807,1.3787,4.9809,4.9809,0,0,1-1.2638.823c-0.2957.3737-.5929,0.7462-1.1857,1.4937-0.1438,1.7129-1.4062,2.5357-2.67,3.3587a22.4475,22.4475,0,0,1-3.7885,2.47c-0.6325.4122-.9284,0.7846-0.4408,2.0868,0.1533,1.3391.1533,1.3391-.7737,2.1235-0.5941.7477-.8516,1.4555-1.4445,2.2016l0.0766,0.67a3.4074,3.4074,0,0,0,2.4975,1.0721c0.67-.0766,1.4157.5163,2.0866,0.4395,0.3341-.0382.7079,0.2588,1.0434,0.22a2.97,2.97,0,0,1,3.1381,3.7121c0.0384,0.3354-.2957.3737-0.5929,0.7462-0.2573.7091-.5545,1.0816,0.1534,1.34a3.3883,3.3883,0,0,1,.45.9666l-0.89,1.12a1.2376,1.2376,0,0,1-.45-0.9666c-0.9652.45-1.224,1.1583-.4779,1.7512,0.4121,0.6311.45,0.9666-.5163,1.4157,0.7463,0.5943.7846,0.9284,0.1918,1.6759a6.41,6.41,0,0,0-1.9239,3.9516c-0.2573.7091-.8886,1.12-1.1473,1.8291-0.8517,1.4541-1.7033,2.91-2.8507,4.7373a5.002,5.002,0,0,1-1.2638.823l-0.3725-.2972a1.18,1.18,0,0,1,.2575-0.7078l-0.0766-.67-0.67.0766c-0.5929.7462-.8133,1.79-1.4062,2.5357s-1.1488,1.8279-1.7415,2.5755c-2.1908,1.6074-2.5919,4.0294-3.7791,5.5219a1.7833,1.7833,0,0,0-.5545,1.0816c-0.3354.0384-.2972,0.3725-0.2588,0.7079-1.6361.5271-1.7033,2.91-2.9657,3.7324a7.67,7.67,0,0,0-1.302.4889c-0.6311.4121-1.3007,0.4887-1.5213,1.5307a1.75,1.75,0,0,1-.5161,1.4171,41.8635,41.8635,0,0,1-2.555,4.3637c0.0384,0.3354-.6311.4121-0.6311,0.4121-0.0766-.67.5545-1.0816,0.8133-1.79-0.3354.0384-.4121-0.6311-0.4121-0.6311a2.302,2.302,0,0,1-1.5595,1.1966c-0.7079-.2588-1.0434-0.22-1.5979.8612-0.2575.7078-.5929,0.7462-1.3008,0.4874l-1.005.115c-0.6325.4122-1.187,1.4939-2.1154,2.2784a18.6705,18.6705,0,0,1-1.7019,2.9094,29.38,29.38,0,0,1-2.1428,4.9962c-0.2588.7079-.9284,0.7846-1.8567,1.5691a2.6047,2.6047,0,0,0-.9666.45c1.9607-3.6173,3.2136-7.4935,4.84-11.0726-0.3341.0382-.3341,0.0382-0.3725-0.2972a1.0457,1.0457,0,0,1-.6325.4122c-0.2958.3723-.5545,1.0816-0.8517,1.4541-0.2957.3737-.5545,1.0816-1.2623,0.8242a2.147,2.147,0,0,1-.23-2.01c0.2971-.3738.5545-1.0816,0.8516-1.4555,0.2575-.7078.1424-1.7128,0.7751-2.1236a0.33,0.33,0,0,0,.2957-0.3737,1.0413,1.0413,0,0,0-.7079-0.2588c-1.6745.1917-2.1906,1.6087-3.0424,3.0628a4.0636,4.0636,0,0,1-1.4829,1.8662,0.9476,0.9476,0,0,0-.5559,1.0818l0.0768,0.6709a1.3443,1.3443,0,0,0-.5163,1.4157c-0.2957.3737-.2575,0.7078-0.5929,0.7462a20.154,20.154,0,0,1-1.0324,2.8328,1.1788,1.1788,0,0,0-.6325.4122c-1.3391.1533-1.3007,0.4887-1.5979,0.8612q-0.3882,1.0619-.7749,2.125c-1.4541-.8517-2.0852-0.44-2.6029.9762a4.17,4.17,0,0,0-.4779,1.7512c0.0384,0.3354-.2971.3738-0.5927,0.7475l-0.0384-.3354-0.1534-1.34c-0.2587.7093-.9282,0.7859-1.2254,1.1584a10.2318,10.2318,0,0,1-1.4061,2.5371c-0.2958.3723-.6313,0.4107-0.7079-0.2588a2.0245,2.0245,0,0,1-.4887-1.3007c-0.048-3.3888-.0575-6.4408,1.2719-9.6474a37.6866,37.6866,0,0,0,2.726-8.7957c0.7737-2.1235,1.51-4.5839,2.2852-6.7089a8.4381,8.4381,0,0,1,1.0721-2.4975c0.4779-1.7512.9558-3.5023,1.4719-4.9194a16.3886,16.3886,0,0,0,.9187-3.8379c-1.5211,1.5321-4.1622,2.1742-5.2344,4.6717a2.0649,2.0649,0,0,0-2.8328-1.0324,3.2588,3.2588,0,0,1-2.6029.9762,0.6731,0.6731,0,0,1-.7079-0.2588,4.89,4.89,0,0,0,.5163-1.4157l-1.6745.1917c-0.3341.0382-.2575,0.7078-0.2191,1.0432,0.1149,1.0036-.0672,2.3825.0861,3.7215-0.2971.3738-.5545,1.0816-1.302,0.4889a0.55,0.55,0,0,0-.5929.7462c-0.3354.0384-.2971,0.3738-0.2587,0.7093-0.2958.3723-.6313,0.4107-0.7079-0.2588a2.0327,2.0327,0,0,1-.4875-1.3022,2.8414,2.8414,0,0,0-2.192,1.6089c-0.4779,1.7512-1.33,3.2053-1.8457,4.6223l-0.2971.3738c0.0382,0.3341.1533,1.3391-.5545,1.0816a1.179,1.179,0,0,1-1.1584-1.2254c-0.115-1.005.22-1.0434,0.8516-1.4555,0.2972-.3725.2972-0.3725,0.5929-0.7462,0.2972-.3725.5545-1.0816,0.8517-1.4541l-0.0766-.67a39.85,39.85,0,0,1-3.4928,2.0962,1.24,1.24,0,0,0-.4491-0.9667l-0.2972.3725a7.637,7.637,0,0,1-.182,1.3788c-0.2575.7078-.5163,1.4157-1.1858,1.4923a1.4143,1.4143,0,0,0-1.8949,1.235,1.2728,1.2728,0,0,1-.5927.7475l-0.115-1.005,0.2971-.3738-0.0766-.67c-0.3354.0384-.6709,0.0768-0.6327,0.4109-0.8132,1.7909-3.119,2.3933-4.343,3.5515a14.3189,14.3189,0,0,1-2.1538,1.943,3.3883,3.3883,0,0,0-.22,1.0434,1.5072,1.5072,0,0,1-1.1474,1.8278l-0.3354.0384c-1.1857,1.4937-1.1857,1.4937-2.3441.2683a0.6317,0.6317,0,0,1-.115-1.005c-0.0382-.3341.2972-0.3725,0.2588-0.7079a1.8539,1.8539,0,0,0-2.23,1.2734c-0.2957.3737-.6311,0.4121-0.5929,0.7462a3.4034,3.4034,0,0,0-.22,1.0434,1.1346,1.1346,0,0,1-.927.7844,4.9228,4.9228,0,0,1-1.2638.823l-0.23-2.0086a7.67,7.67,0,0,1,.182-1.3788c0.2575-.7078-0.0766-0.67-0.7475-0.5927a1.779,1.779,0,0,1-.9284.7846,11.4719,11.4719,0,0,0-1.7786,2.24,2.5632,2.5632,0,0,0-1.2638.823,1,1,0,0,1-1.3391.1533c-0.4121-.6311-0.7091-0.2573-1.005.115-0.2971.3738-.9666,0.45-0.9284,0.7846a5.7239,5.7239,0,0,0-.7749,2.125,0.675,0.675,0,0,1-.2573.7091c-0.0384-.3354-0.0384-0.3354-0.3738-0.2971-0.0384-.3354-0.3738-0.2971-0.7079-0.2588L339,521.2085c-1.005.115-1.6361,0.5271-1.5211,1.5321l0.0766,0.67a1.4771,1.4771,0,0,0,.9666-0.45,0.6722,0.6722,0,0,0,.2575-0.7078c1.0434,0.22,1.57,1.8566,1.35,2.9a6.671,6.671,0,0,0-.2478,3.7611c-0.2206,1.042-.0288,2.7179-0.545,4.1336-0.8516,1.4555-.66,3.13-1.1378,4.8811a2.6047,2.6047,0,0,1-.22,1.0434,1.786,1.786,0,0,0-.5545,1.0816c-0.3341.0382-.2958,0.3723-0.6313,0.4107-0.6311.4121-.6311,0.4121-0.22,1.0434l0.0384,0.3354a0.3293,0.3293,0,0,0-.2958.3723c-1.302.4889-1.5609,1.1968-1.3692,2.8713a3.5476,3.5476,0,0,1-.4779,1.7512,1.1472,1.1472,0,0,0,.823,1.2638c-0.5161,1.4171-.6585,3.13-1.1762,4.5457a4.8131,4.8131,0,0,0-.5161,1.4171,4.4857,4.4857,0,0,0-.6983,2.7945c-0.2192,1.0419-.4779,1.7512-1.5213,1.5307,0.0384,0.3354.3738,0.2971,0.7462,0.5929-0.2573.7091-.1423,1.7141-0.4011,2.4221,0.0382,0.3341-.2972.3725-0.5929,0.7462l-0.115-1.005-0.1533-1.3391-0.3354.0384a7.64,7.64,0,0,1-.1808,1.3773,4.6952,4.6952,0,0,1-.8516,1.4555,16.8759,16.8759,0,0,0-2.0387,2.948c0.0766,0.67-.5163,1.4157-0.3629,2.7561-0.2972.3725,0.1149,1.0036,0.1917,1.6745l0.23,2.01c0.0382,0.3341-.2972.3725-0.2588,0.7079-0.3341.0382-.2958,0.3723-0.2575,0.7078l0.0384,0.3354c0.9282-.7859,1.9332-0.901,2.5261-1.6471a14.248,14.248,0,0,0,3.8653-1.799,1.7822,1.7822,0,0,0,.9282-0.7859c0.3354-.0384.6327-0.4109,0.9667-0.4491l0.3354-.0384c2.8986-1.35,5.0523-3.2929,7.6168-4.6045a43.7263,43.7263,0,0,0,5.3864-3.3311,40.1271,40.1271,0,0,0,6.3928-3.4463,45.055,45.055,0,0,0,3.7885-2.47c1.5993-.8614,3.1587-2.058,5.0523-3.2929a22.9419,22.9419,0,0,0,2.5645-1.3117c1.2638-.823,2.8233-2.02,4.0871-2.8426,1.5979-.8612,3.1956-1.7238,5.129-2.6233-0.0382-.3341-0.0382-0.3341.2958-0.3723,1.5977-.8626,2.8231-2.021,4.421-2.8822,0.9666-.45,2.3057-0.6037,2.937-1.0145,0.3354-.0384.6325-0.4122,0.9666-0.45,0.5943-.7463.89-1.12,1.6759-0.1918a1.2349,1.2349,0,0,0,1.042.2206c0.3354-.0384.2971-0.3738,0.6325-0.4122a18.9688,18.9688,0,0,1,3.8653-1.799c0.9666-.45,1.9716-0.5655,2.9383-1.0146,1.6361-.5271,2.229-1.2733,3.3873-0.0492-0.0382-.3341.2972-0.3725,0.5929-0.7462,0.0766,0.67.45,0.9666-.2191,1.0432l-0.3354.0384a11.7534,11.7534,0,0,1-3.8173,5.1878c0.8228,1.2624.23,2.0086-1.0721,2.4975a0.6741,0.6741,0,0,0-.6313.4107c-0.8516,1.4555-2.5261,1.6471-3.7885,2.47-1.2254,1.1584-2.4495,2.3167-3.3778,3.1012a20.5825,20.5825,0,0,1,1.5691,1.8567l0.0384,0.3354c0.4121,0.6311,1.0816.5545,0.8242,1.2623-0.6325.4122-.8516,1.4555-1.5993,0.8614l-0.67.0766c-0.2971.3738-.89,1.12-1.1857,1.4937A15.6211,15.6211,0,0,0,382.09,559.71c1.0434,0.22,1.9717-.5641,2.9383-1.0146,0.3341-.0382.6311-0.4121,0.9666-0.45l0.7079,0.2588a0.7972,0.7972,0,0,1-.5545,1.0816,3.5616,3.5616,0,0,0-1.5979.8612c-1.5595,1.1966-2.4878,1.9812-3.7517,2.8042a1.7525,1.7525,0,0,0-.5161,1.4171,1.8161,1.8161,0,0,1-1.5211,1.5321,2.53,2.53,0,0,0-1.6363.5257c-0.8516,1.4555-2,3.2834-2.8521,4.7375-0.2957.3737-.8886,1.12-1.1857,1.4937a1.631,1.631,0,0,1-1.3022.4875c-1.6745.1917-2.8986,1.35-2.7451,2.69s-0.1438,1.7129-.7749,2.125a2.5708,2.5708,0,0,0-1.5979.8612c-0.3354.0384-.5943,0.7463-0.8517,1.4541a1.2764,1.2764,0,0,0-.7462-0.5929c-0.4121-.6311-0.7859-0.9282-1.3788-0.182a0.33,0.33,0,0,1-.2957.3737c-1.0434-.22-1.302.4889-1.1872,1.4925a1.8144,1.8144,0,0,1-1.5211,1.5321,3.5316,3.5316,0,0,0-1.2254,1.1584c-0.2575.7078-.85,1.4539-1.5979,0.8612a1.239,1.239,0,0,0-.9666.45,9.09,9.09,0,0,1-2.0374,2.9478c0.0382,0.3341-.2972.3725-0.67,0.0766a1.8539,1.8539,0,0,0-.8133,1.79c0.0766,0.67-.22,1.0434-1.5595,1.1966l-0.1917-1.6745a1.7512,1.7512,0,0,0-.8243-1.2636c-0.3341.0382-.6311,0.4121-0.9652,0.45a5.9126,5.9126,0,0,0-1.1488,1.8279,0.95,0.95,0,0,1-.9666.45c-1.005.115-1.3008,0.4874-1.1474,1.8278,0.0766,0.67.1149,1.0036-.89,1.1186a0.6712,0.6712,0,0,0-.6311.4121q-0.4456.5608-.89,1.12a0.4662,0.4662,0,0,1-.67.0766,1.9347,1.9347,0,0,0-2.2688.938,2.6334,2.6334,0,0,1-1.1857,1.4937,1.2314,1.2314,0,0,0-.4792,1.7513l0.115,1.005a2.62,2.62,0,0,1-.4491-0.9667c-0.4121-.6311-0.7462-0.5929-1.0434-0.22a7.0465,7.0465,0,0,0-1.8566,1.57c-0.2972.3725-.22,1.0434-0.5163,1.4157a1.1788,1.1788,0,0,0-.2587.7093c-0.6313.4107-.5929,0.7462-0.2192,1.0419a4.81,4.81,0,0,1,.9,1.9333,0.337,0.337,0,1,1-.67.0766,1.1408,1.1408,0,0,0-.8626-1.5977,1.6231,1.6231,0,0,0-1.3775-.1822,4.2715,4.2715,0,0,1-1.9716.5655,0.8945,0.8945,0,0,0-.89,1.12c0.0382,0.3341.0766,0.67,0.4121,0.6311s0.3725,0.2972.7079,0.2588c-0.2972.3725-.2588,0.7079-0.5929,0.7462a8.9247,8.9247,0,0,0-1.4445,2.2016s-0.2972.3725-.3354,0.0384c-0.7079-.2588-0.9667.4491-1.5979,0.8612l-1.6745.1917-0.0766-.67q-0.1725-1.5075-1.12-.89c-0.9666.45-1.224,1.1583-.8133,1.79a3.7418,3.7418,0,0,1-.9174,3.8378l-0.1917-1.6745a1.1783,1.1783,0,0,0-1.1584-1.2254l-0.6709.0768c0.115,1.005-.8886,1.12-1.5211,1.5321a0.674,0.674,0,0,1,.2587-0.7093c0.2972-.3725-0.0766-0.67-0.4121-0.6311a1.3973,1.3973,0,0,0-1.5979.8612,5.4434,5.4434,0,0,0,1.6089,2.192,15.8125,15.8125,0,0,0-2.7849,2.3551c-1.5979.8612-3.9037,1.4636-5.5028,2.3263a5.4306,5.4306,0,0,0-2.1908,1.6074c-0.3341.0382-.5927,0.7475-1.224,1.1583a1.2376,1.2376,0,0,1-.22,1.0434,1.1389,1.1389,0,0,1-.5545,1.0816c-0.3354.0384-.4121-0.6311-0.7859-0.9282l-0.0384-.3354c1.005-.115.8517-1.4541,1.5226-1.5309a5.6875,5.6875,0,0,0-1.7525-.4777c-0.3725-.2972-0.3341.0382-0.67,0.0766s-0.2958.3723-.6313,0.4107a1.1381,1.1381,0,0,0-.8133,1.79,1.4818,1.4818,0,0,1-.1424,1.7128,2.8593,2.8593,0,0,0-.89,1.12,32.7215,32.7215,0,0,1-1.2542,3.8763,1.0459,1.0459,0,0,0-.2575.7078,14.0833,14.0833,0,0,1,2.0868.4408l0.0766,0.67c-0.6709.0768-1.9716,0.5655-2.6411,0.6421a1.98,1.98,0,0,0-2.1538,1.943,4.78,4.78,0,0,1-.44,2.0852c0.0768,0.6709-.22,1.0434-0.1436,1.7143-0.2958.3723-.2191,1.0432-0.5163,1.4157,0.0384,0.3354-.2588.7079-0.22,1.0434a1.2409,1.2409,0,0,1-.2191,1.0432l0.0766,0.67c1.12,0.89.1917,1.6745-.0288,2.7179l0.0766,0.67a0.66,0.66,0,0,1-.5927.7475c-0.2972.3725-.3354,0.0384-0.67,0.0766-0.0768-.6709-0.4122-0.6325-0.4122-0.6325-0.3341.0382-.2573,0.7091-0.2191,1.0432a7.0465,7.0465,0,0,0-1.11,2.1634l-1.005.115-0.115-1.005c0.1822-1.3775.66-3.1286,0.8421-4.5074a0.3376,0.3376,0,1,0-.6709.0768,7.3073,7.3073,0,0,1-.8133,1.79,37.9965,37.9965,0,0,0-1.1762,4.5457c-0.2191,1.0432-1.0706,2.4987-.2478,3.7611,0.4121,0.6311.115,1.005-1.2624,0.8228-0.2587.7093-.1436,1.7143-1.187,1.4939-0.4121-.6311-0.4121-0.6311.8516-1.4555-0.3354.0384-.7078-0.2575-1.0432-0.2191-0.6313.4107-.9667,0.4491-1.5979,0.8612l-0.67.0766-0.0384-.3354a10.4188,10.4188,0,0,1-.0492-3.3873l-0.0766-.67c0.2971-.3738.5943-0.7463,0.5943-0.7463a0.7247,0.7247,0,0,1,.7462.5929l0.1917,1.6745c-0.2971.3738,0.115,1.005,0.7462,0.5929a7.9329,7.9329,0,0,0,1.4829-1.8662,10.6551,10.6551,0,0,0,1.3584-5.9232l0.67-.0766c0.2971-.3738.5927-0.7475,0.22-1.0434-0.0384-.3354-0.0768-0.6709.2573-0.7091,0.5559-1.0818.4026-2.4208,0.6217-3.4641-0.0382-.3341-0.115-1.005.22-1.0434a4.779,4.779,0,0,0,.4395-2.0866,1.2349,1.2349,0,0,1,.2206-1.042,1.9025,1.9025,0,0,0,.4395-2.0866l-0.0384-.3354a2.4021,2.4021,0,0,0,.7749-2.125c-0.0766-.67.8517-1.4541,0.7751-2.1236l-0.0384-.3354c0.2191-1.0432.7749-2.125,0.994-3.1682a3.55,3.55,0,0,0,.4792-1.7513l-0.0766-.67-0.6709.0768a11.9569,11.9569,0,0,0-.994,3.1682,18.0312,18.0312,0,0,0-1.4734,4.9182,3.6792,3.6792,0,0,0-.1423,1.7141,0.33,0.33,0,0,0-.2972.3725c-0.2587.7093-.8516,1.4555-1.11,2.1634-0.2957.3737-.2575,0.7078-0.5545,1.0816-0.5929.7462-.4779,1.7512-0.7367,2.4591-0.104,2.0482-.2478,3.7611-1.8073,4.9578a1.0094,1.0094,0,0,1-1.302.4889,0.7972,0.7972,0,0,0-.5545,1.0816c0.3354-.0384.6311-0.4121,0.9666-0.45a1.0233,1.0233,0,0,1,.1533,1.3391,9.137,9.137,0,0,1-1.1488,1.8279,4.7541,4.7541,0,0,0-2.114,2.2783,9.5672,9.5672,0,0,0-.8407,4.5073c0.115,1.005.1534,1.34,1.12,0.89l0.67-.0766,0.3725,0.2972a1.0433,1.0433,0,0,1-.2575.7078c0.0384,0.3354-.2588.7079-0.22,1.0434-0.2957.3737-.9284,0.7846-1.224,1.1583,0.0382,0.3341-.6327.4109-0.9284,0.7846a8.6652,8.6652,0,0,0-.4792,1.7513,1.1788,1.1788,0,0,0,.4122.6325,1.481,1.481,0,0,1-.1438,1.7129,3.4107,3.4107,0,0,0-1.0708,2.4973,1.1784,1.1784,0,0,0-.2588.7079l-0.3341.0382-0.0766-.67q0.3862-1.0617.7749-2.125a1.5884,1.5884,0,0,0-.5653-1.97c-0.1822,1.3775-.4012,2.4207-0.6217,3.4641q-0.3862,1.0617-.7749,2.125l0.1533,1.3391c0.2971-.3738.6325-0.4122,0.5943-0.7463l0.3341-.0382c0.45,0.9666.1533,1.3391-.8517,1.4541-0.3341.0382-.2957,0.3737-0.6311,0.4121q-0.8894,1.1193-1.78,2.24a1.0773,1.0773,0,0,0,.115,1.005l0.0766,0.67a1.1744,1.1744,0,0,0-.2575.7078c-0.3738-.2971-0.3738-0.2971-0.7475-0.5927a1.2422,1.2422,0,0,1-.2191,1.0432c0.67-.0766,1.0816.5545,1.4157,0.5163,1.4171,0.5161,1.4171.5161,0.8612,1.5979l1.34-.1534a12.8587,12.8587,0,0,0,2.67-3.36A11.4137,11.4137,0,0,1,285.52,673.58l0.6709-.0768c0.104-2.0482,1.6635-3.2449,2.1044-5.3316,0.2958-.3723.2575-0.7078-0.45-0.9666a1.1744,1.1744,0,0,1-.7078-0.2575,1.7078,1.7078,0,0,1,.1424-1.7128,1.7822,1.7822,0,0,0,.9282-0.7859l0.2972-.3725,0.4107,0.6313c-0.927.7844,0.5271,1.6361,0.2683,2.3441a1.0735,1.0735,0,0,0,1.005-.115,8.8279,8.8279,0,0,0,2.8233-2.02c1.2624-.8228,2.4878-1.9812,3.7517-2.8042a15.9292,15.9292,0,0,1,3.75-2.8054l0.2972-.3725c1.6745-.1917,1.8552-1.57,3.119-2.3933a8.7268,8.7268,0,0,1,1.5979-.8612,1.2376,1.2376,0,0,0,.9666-0.45,25.0972,25.0972,0,0,0,3.75-2.804c1.8949-1.235,3.4544-2.4317,5.3494-3.6667a30.8058,30.8058,0,0,1,4.0473-3.1779A33.5092,33.5092,0,0,1,325.92,641.13c2.229-1.2733,4.7553-2.919,6.9843-4.1923a7.9449,7.9449,0,0,1,3.1587-2.058,26.7779,26.7779,0,0,0,2.86-1.6854,53.5035,53.5035,0,0,1,5.722-3.3681,91.7144,91.7144,0,0,0,7.9523-4.6429c1.9332-.901,4.4978-2.2113,6.431-3.1122,1.5979-.8612,2.8986-1.35,4.8319-2.2495s3.4544-2.4317,5.4262-2.9958c2.2674-.9378,3.8652-1.8,5.8751-2.03,1.3391-.1533,1.9333-0.9,2.9383-1.0146a25.6763,25.6763,0,0,1,3.53-1.762c2.3072-.6025,3.9051-1.4637,5.5412-1.9908a1.2376,1.2376,0,0,1,.9666-0.45c2.5646-1.31,4.8319-2.2495,7.1007-3.1875,1.6361-.5271,2.9752-0.68,4.2774-1.1679,1.97-.5653,4.6127-1.2076,6.9185-1.81,3.9419-1.1295,7.6647-1.2171,11.6846-1.6772a1.8047,1.8047,0,0,1,1.3391-.1533l0.0384,0.3354a22.9419,22.9419,0,0,0-2.5645,1.3117l0.0382,0.3341c1.34-.1534,1.8279,1.1488,2.5755,1.7415,0.3341-.0382.4491,0.9667,0.4875,1.3022a1.2349,1.2349,0,0,1,.45.9652c0.4122,0.6325.45,0.9666-.182,1.3788a33.4708,33.4708,0,0,0-5.9519,1.36,9.8339,9.8339,0,0,0-2.9382,1.016,5.4392,5.4392,0,0,0-2.8987,1.3485,2.1193,2.1193,0,0,1-2.01.23,1.6017,1.6017,0,0,0-1.5977.8626,1.2764,1.2764,0,0,1-.5929.7462c-1.4171-.5161-1.9717.5641-2.9,1.35l-0.67.0766c-0.6313.4107-1.5979,0.8612-2.23,1.2734,0.3354-.0384,1.0432.2191,1.3787,0.1807,0.0384,0.3354-.22,1.0434-0.182,1.3788s-0.6313.4107-.9667,0.4491a7.9166,7.9166,0,0,1-2.6027.9776c-1.2624.8228-2.5646,1.31-3.8269,2.1345-0.3354.0384-.67,0.0766-0.7079-0.2588l-0.0384-.3354a1.6293,1.6293,0,0,1,.1808-1.3773l-0.67.0766a8.9313,8.9313,0,0,0-1.4445,2.2016c-0.2588.7079-.1822,1.3775-1.1872,1.4925-0.3723-.2958-0.67.0766-0.9666,0.45a19.4725,19.4725,0,0,0-2.1908,1.6074l0.0384,0.3354a1.0459,1.0459,0,0,0-.2575.7078,2.5344,2.5344,0,0,1-1.7141-.1423,1.7822,1.7822,0,0,0,.9282-0.7859l-1.005.115c-0.5927.7475-.9282,0.7859-1.6745,0.1917-0.0382-.3341-0.0382-0.3341-0.3723-0.2958-0.2588.7079,0.1917,1.6745-1.1488,1.8279,0.3737,0.2957.7078,0.2575,1.0816,0.5545a7.3864,7.3864,0,0,0-1.5595,1.1966l-1.005.115a1.2376,1.2376,0,0,1,.22-1.0434c-1.34.1534-1.9716,0.5655-3.015,0.3451-1.005.115-.89,1.12-1.4829,1.8662l0.67-.0766,0.67-.0766,0.0768,0.6709c-1.6363.5257-2.5262,1.6458-3.7887,2.4686a11.21,11.21,0,0,0-1.8949,1.235c-0.6311.4121-1.3007,0.4887-1.9333,0.9a3.0347,3.0347,0,0,0-1.6361.5271,0.33,0.33,0,0,0-.2957.3737,1.779,1.779,0,0,0-.9284.7846c-0.67.0766-.9666,0.45-0.5929,0.7462-1.7141-.1423-2.6042.9764-4.202,1.8389l0.0382,0.3341,0.6709-.0768a34.7812,34.7812,0,0,1,3.1958-1.7224,0.3307,0.3307,0,0,1,.2971-0.3738l1.3391-.1533,0.3354-.0384a0.6712,0.6712,0,0,1-.2588.7079c-1.8949,1.235-3.4544,2.4317-5.0523,3.2929q-0.9467.6181-1.8949,1.235a1.98,1.98,0,0,0-1.5977.8626c-0.2972.3725-.9667,0.4491-1.2624,0.8228l-0.6709.0768a1.1455,1.1455,0,0,1-1.2624.8228,0.6712,0.6712,0,0,0-.6311.4121c-0.2972.3725-.5176,1.4159-1.1488,1.8279-1.5979.8612-2.8986,1.35-4.1624,2.1729a1.1784,1.1784,0,0,1-.6311.4121c-0.7093-.2587-1.005.115-1.2638,0.823a11.2822,11.2822,0,0,1-1.8936,1.2349,19.1851,19.1851,0,0,0-2.1922,1.6075,1.2376,1.2376,0,0,0-.9666.45,21.496,21.496,0,0,0-4.3828,3.2162,5.24,5.24,0,0,0-1.7019,2.9094,0.6333,0.6333,0,0,1-1.005.115c-0.7463-.5943-1.0434-0.22-2.01.23a7.9548,7.9548,0,0,0-2.3346,3.32,5.9414,5.9414,0,0,1-2.7083,3.0246c-1.5977.8626-2.4863,1.9824-3.75,2.8054,0,0-.2972.3725-0.5929,0.7462a5.7009,5.7009,0,0,1-1.8949,1.235c-1.3008.4874-1.8567,1.5691-2.7849,2.3551a0.6722,0.6722,0,0,0-.2575.7078,1.786,1.786,0,0,0-.9284.7846l-0.3354.0384a6.3915,6.3915,0,0,1-2.8986,1.35c-0.89,1.12-2.23,1.2734-2.7467,2.6891-0.9282.7859-1.4445,2.2016-2.3344,3.3216-0.5929.7462-1.1488,1.8279-2.5262,1.6458l-0.3354.0384c-0.8886,1.12-2.5645,1.3117-3.0422,3.0642a7.3883,7.3883,0,0,1-1.56,1.1953q-0.9467.6181-1.8949,1.235l0.0384,0.3354c-2.3441.2683-2.3728,2.9862-4.64,3.924-0.4779,1.7512-1.0338,2.8329-1.55,4.25a1.173,1.173,0,0,0-.2588.7079c-0.3725-.2972-0.4107-0.6313-0.7462-0.5929a1.1366,1.1366,0,0,0-.7846-0.9284s-0.2972.3725-.5929,0.7462l-0.2971.3738c1.0432,0.2191.7846,0.9284,0.8612,1.5979a1.173,1.173,0,0,1,.4121.6311,5.2432,5.2432,0,0,0-1.7033,2.91c-0.2957.3737-.9666,0.45-0.9284,0.7846q-0.4435.5605-.89,1.12a1.79,1.79,0,0,0-.5545,1.0816c-0.2575.7078,0.1533,1.3391-.1424,1.7128a4.12,4.12,0,0,1,.23,2.01,0.3307,0.3307,0,0,1-.2971.3738c-0.6313.4107-.5547,1.08-0.8517,1.4541,0.0384,0.3354-.2191,1.0432-0.1808,1.3773a1.7907,1.7907,0,0,1-.9282.7859,2.6322,2.6322,0,0,1-1.4555-.8516,1.239,1.239,0,0,1-.22,1.0434,2.9115,2.9115,0,0,0-.7736,2.1248,10.12,10.12,0,0,1-.9571,3.5025c0.0766,0.67-.5929.7462-1.2624,0.8228l0.2957-.3737-0.0766-.67-0.3341.0382a5.73,5.73,0,0,0-2.307.6039l-0.0768-.6709c0.2206-1.042.44-2.0852,0.6217-3.4641a2.8731,2.8731,0,0,1,1.5595-1.1966c0.3354-.0384.6327-0.4109,0.9667-0.4491a4.7756,4.7756,0,0,1,2.4111-2.6521,2.5678,2.5678,0,0,0,.4779-1.7512,9.319,9.319,0,0,0-.0095-3.052c-0.0384-.3354-0.0768-0.6709-0.3738-0.2971-0.3341.0382-.67,0.0766-0.6311,0.4121a5.7622,5.7622,0,0,0-1.8457,4.6223,2.5442,2.5442,0,0,1-.1822,1.3775c-1.0816-.5545-0.5257-1.6363-1.2733-2.229a1.79,1.79,0,0,0-.5545,1.0816,1.8554,1.8554,0,0,1-1.5595,1.1966c-0.3354.0384-.7079-0.2588-0.45-0.9666a1.2376,1.2376,0,0,0,.22-1.0434,1.7545,1.7545,0,0,0,.5161-1.4171c0.6313-.4107.5929-0.7462,0.1438-1.7129a4.9583,4.9583,0,0,1-.5175,1.4172c-0.2958.3723-.2191,1.0432-0.5163,1.4157a2.7752,2.7752,0,0,0-1.4829,1.8662l-0.2957.3737c-0.2588.7079-.5559,1.0818-0.1438,1.7129,0.7846,0.9284.1534,1.34-.1054,2.0484a2.2772,2.2772,0,0,0-1.109,2.1632,3.5661,3.5661,0,0,1-2.1155,2.2771c-0.67.0766-.6311,0.4121-0.5545,1.0816a15.4684,15.4684,0,0,0-.3629,2.7561,0.66,0.66,0,0,1-.7462-0.5929,1.2322,1.2322,0,0,0-1.5993.8614,16.6324,16.6324,0,0,1-5.7219,3.37,2.5514,2.5514,0,0,0-1.1857,1.4937,1.8485,1.8485,0,0,1-1.8567,1.5691,9.9578,9.9578,0,0,0-4.2774,1.1679c-0.89,1.12-1.9716.5655-2.9766,0.6805a25.6867,25.6867,0,0,1-3.5311,1.7621c-0.2958.3723-.9667,0.4491-1.2624,0.8228a1.173,1.173,0,0,0-.6311.4121,1.8541,1.8541,0,0,1-1.56,1.1953,3.9959,3.9959,0,0,0-3.312.7189l-0.3341.0382c-2.3454.2684-5.359,0.6134-7.8577-.4573a7.2951,7.2951,0,0,1-3.32-2.3359,22.7136,22.7136,0,0,0-4.25-1.5485c-4.4691-.5066-8.307-1.4254-12.8143-2.2661a1.8554,1.8554,0,0,1-1.1966-1.5595,5.5254,5.5254,0,0,1-.2684-2.3454,7.9686,7.9686,0,0,0,1.8663,1.4842,11.21,11.21,0,0,1,1.6265-3.58,0.33,0.33,0,0,1,.2972-0.3725q0.4435-.5605.89-1.12a1.2713,1.2713,0,0,1,.5929-0.7462c1.005-.115.9282-0.7859,1.5211-1.5321a0.7236,0.7236,0,0,1,.5929-0.7462,21.4479,21.4479,0,0,1,2.2686-.9393,7.3883,7.3883,0,0,0,1.56-1.1953c0.3341-.0382.6311-0.4121,0.9652-0.45a26.1866,26.1866,0,0,1,5.2824-1.2829c2.6809-.3068,4.8715-1.9156,7.436-3.2272a67.2713,67.2713,0,0,0,6.65-4.1541,11.9554,11.9554,0,0,0,3.6366-3.8091,20.5688,20.5688,0,0,0,3.0808-2.7274l0.2957-.3737a6.6635,6.6635,0,0,1,3.4544-2.4317,6.7832,6.7832,0,0,0,2.5262-1.6458c1.5211-1.5321,2.7465-2.6905,4.6032-4.26a5.6589,5.6589,0,0,0,1.4719-4.9194c0.22-1.0434.0672-2.3825,0.2876-3.4258-0.1917-1.6745-.0494-3.3886-0.2027-4.7277a4.2687,4.2687,0,0,0,.1054-2.0484,31.5135,31.5135,0,0,0,.7257-5.5123,35.5077,35.5077,0,0,0,.9475-6.5558,60.512,60.512,0,0,1,1.1653-7.5975c0.4395-2.0866,1.2528-3.8762,1.6553-6.2984,0.44-2.0852.8791-4.1718,1.6158-6.6309,0.4395-2.0866,1.2144-4.2116,1.6157-6.6323,0.22-1.0434.8132-1.7909,0.3258-3.0917a1.18,1.18,0,0,0,.2575-0.7078c0.5175-1.4172,1.3294-3.2066,1.8471-4.6225a5.7193,5.7193,0,0,0,.7736-2.1248c0.2971-.3738-0.0766-0.67.22-1.0434,0.89-1.12.4012-2.4207,0.5833-3.8q0.3882-1.0619-1.12-.89c-0.3737-.2957-1.3773-0.1808-1.7512-0.4779-0.7079-.2588-1.0816-0.5545-1.79-0.8133-0.0384-.3354-0.7462-0.5929-0.7846-0.9284-0.5271-1.6361-1.4555-.8516-2.46-0.7365-1.6361.5271-2.7561-.3629-3.8762-1.2528a17.6765,17.6765,0,0,0-3.7708-3.3012c-0.7078-.2575-1.4157-0.5163-1.4923-1.1858a3.3883,3.3883,0,0,0-.45-0.9666l-2.24-1.78c-2.2-1.4446-1.9812-2.4878-1.58-4.9085a1.2376,1.2376,0,0,0,.22-1.0434,1.5921,1.5921,0,0,1,1.4829-1.8662,6.9156,6.9156,0,0,0,3.6845-.4217,9.3231,9.3231,0,0,1,3.0534-.01c2.3441-.2683,4.3923-0.1643,6.0286-0.69,1.9716-.5655,3.98-0.7954,5.6177-1.3227l2.6781-.3065a18.2482,18.2482,0,0,0,4.8717-1.9142,2.9585,2.9585,0,0,0,1.7415-2.5755c0.2575-.7078.1808-1.3773,0.44-2.0852a11.238,11.238,0,0,0,1.6265-3.58,34.7137,34.7137,0,0,1,.9558-3.5023c0.7749-2.125,1.4732-4.92,2.2483-7.0432a86.0822,86.0822,0,0,0,3.2422-10.2128c0.9558-3.5023,1.9513-6.6693,3.2423-10.2114,1.0338-2.8329,1.7307-5.6273,2.7644-8.46,0.6983-2.7945,1.99-6.3352,2.6878-9.13a47.8778,47.8778,0,0,0,1.99-6.3352c0.4779-1.7512.9558-3.5023,1.3966-5.5891a6.909,6.909,0,0,0,1.3294-3.2066,35.1846,35.1846,0,0,0,1.2146-4.21,8.553,8.553,0,0,1,.4779-1.7512,1.7545,1.7545,0,0,1,.5161-1.4171c-0.0384-.3354.22-1.0434-0.1533-1.3391a0.7649,0.7649,0,0,0-1.3775-.1822,12.6226,12.6226,0,0,0-3.3106.7188l-1.005.115c-0.6327.4109-1.5993,0.8614-2.2306,1.2721s-1.3007.4887-1.9318,0.9008c-1.34.1534-2.3838-.067-3.015,0.3451l-1.34.1534a1.2381,1.2381,0,0,1-.9654.449,1.0773,1.0773,0,0,0-1.005.115,6.9638,6.9638,0,0,1-2.0866-.4395,14.6356,14.6356,0,0,1-2.2783-2.114c-0.0384-.3354-0.3725-0.2972-0.7079-0.2588-0.6311.4121-1.2254,1.1584-1.8566,1.57a7.4124,7.4124,0,0,1-2.7179-.0288,11.9569,11.9569,0,0,0-3.1682-.994c-0.3725-.2972-1.08-0.556-1.4541-0.8517-0.7079-.2588-1.0818-0.5559-0.823-1.2638a14.6159,14.6159,0,0,1-.5271-1.6361,3.4034,3.4034,0,0,1-1.0434-.22c-0.449-.9654-0.449-0.9654.1438-1.7129,1.005-.115,1.3008-0.4874,1.224-1.1583a2.7752,2.7752,0,0,1,1.4829-1.8662,7.9289,7.9289,0,0,0,2.6042-.9764l-0.0384-.3354c2.3058-.6024,4.2008-1.8374,5.9519-1.36,2.0852,0.44,4.0186-.46,6.0669-0.3546l0.3354-.0384a17.0539,17.0539,0,0,1,4.2774-1.1679l0.2957-.3737a55.4877,55.4877,0,0,0,7.6278-1.5514c2.01-.23,3.98-0.7954,6.3256-1.0638,1.005-.115,1.3007-0.4887,1.4829-1.8662a5.0446,5.0446,0,0,0,.7367-2.4591c0.5161-1.4171.6968-2.7957,1.176-4.5471a7.0348,7.0348,0,0,0,1.1092-2.1619,4.7942,4.7942,0,0,0,.4408-2.0868,1.0459,1.0459,0,0,0,.2575-0.7078,23.9518,23.9518,0,0,1,2.8123-5.0728c0.5559-1.0818,2.6029-.9762,3.12-2.3934l1.0036-.1149c1.0816,0.5545,2.0484.1054,2.9767-.6792,1.5211-1.5321,2.5261-1.6471,3.7227-.0876l0.3354-.0384c0.3341-.0382.67-0.0766,0.7079,0.2588l-0.67.0766,0.0382,0.3341c-0.2587.7093-.182,1.3788,0.938,2.2688a18.79,18.79,0,0,1,1.9812,2.4878,0.6712,0.6712,0,0,1,.4121.6311,11.9569,11.9569,0,0,0,1.0529,3.2724l0.0384,0.3354c0.0766,0.67.1533,1.3391,0.8228,1.2624,0.7079,0.2588,1.4939,1.187,2.4222.4025a14.0459,14.0459,0,0,1,3.1956-1.7238q2.9576-.8462,4.9085-1.58c0.9667-.4491,1.9333-0.9,3.234-1.3883a25.4993,25.4993,0,0,0,3.5312-1.7608,7.67,7.67,0,0,1,1.302-.4889c2.2674-.9378,3.8653-1.799,5.7987-2.6986,2.2673-.9392,4.239-1.5033,5.8367-2.3659a4.8042,4.8042,0,0,1,1.9333-.9c3.9419-1.1295,6.8035-2.815,10.3731-4.24,1.6361-.5271,2.4877-1.9826,4.0856-2.8438a40.9945,40.9945,0,0,1,4.4978-2.2113,31.9157,31.9157,0,0,0,2.9-1.35c1.2624-.8228,2.86-1.684,4.124-2.5083a19.83,19.83,0,0,0,2.5262-1.6458c1.5979-.8612,3.5311-1.7621,5.463-2.6616,0.6313-.4107.9284-0.7846,1.5595-1.1966,1.5993-.8614,3.2354-1.3885,5.1674-2.2879,1.2638-.823,2.8617-1.6842,4.124-2.5083,1.5993-.8614,3.57-1.4253,4.8333-2.25,1.5979-.8612,2.9-1.35,4.8319-2.2495a23.19,23.19,0,0,0,2.5645-1.3117,4.779,4.779,0,0,0,1.9333-.9,39.5915,39.5915,0,0,0,6.43-3.1107,18.2935,18.2935,0,0,0,4.8715-1.9156,7.6148,7.6148,0,0,0,1.3007-.4887,8.5515,8.5515,0,0,0,2.2688-.938l1.005-.115ZM275.7386,721.5263c0.0382,0.3341.3737,0.2957,0.7859,0.9282a1.7822,1.7822,0,0,0-.5559,1.0818A1.0961,1.0961,0,0,1,275.7386,721.5263Zm14.0835-19.2576,0.6709-.0768a0.9042,0.9042,0,0,0,.1808-1.3773A1.1777,1.1777,0,0,0,289.8221,702.2687Zm-1.5962-43.59a1.2312,1.2312,0,0,1-.4779,1.7512C287.2606,659.1281,287.5947,659.09,288.226,658.6792Zm1.0255,5.99a4.6423,4.6423,0,0,1,.8517-1.4541,1.2882,1.2882,0,0,1-.8133,1.79Zm2.544-7.4169-0.0384-.3354a6.6593,6.6593,0,0,0,.2492-3.7613c-0.0382-.3341.927-0.7844,1.2242-1.1569a1.0433,1.0433,0,0,1,.7078.2575l0.0766,0.67c-0.2191,1.0432-.7365,2.46-0.9556,3.5037a1.779,1.779,0,0,0-.5545,1.0816c-0.2972.3725-.2588,0.7079-0.556,1.08a1.18,1.18,0,0,0-.2573.7091c-0.3354.0384-1.005,0.115-1.0434-.22l-0.0384-.3354C291.2026,657.9986,291.5,657.6261,291.7955,657.2525Zm-0.75-24.3456a0.33,0.33,0,0,0-.2972.3725,23.36,23.36,0,0,0-.9556,3.5037c-0.3354.0384-.2972,0.3725-0.2588,0.7079l0.3354-.0384a9.6878,9.6878,0,0,0,1.5883-3.9145C291.419,633.2025,291.3807,632.8684,291.0453,632.9068Zm3.37,5.7219a10.39,10.39,0,0,1-.3629,2.7561A1.8217,1.8217,0,0,0,294.4148,638.6287Zm7.77,53.063a2.8478,2.8478,0,0,1-.89,1.12,2.5929,2.5929,0,0,1-.7846-0.9284c0.2972-.3725.6313-0.4107,0.9284-0.7846A1.2764,1.2764,0,0,1,302.1846,691.6918Zm-0.4682,4.8045a0.33,0.33,0,0,1-.2957.3737l-0.3738-.2971a8.7638,8.7638,0,0,1,.4779-1.7512C301.5631,695.1572,302.0136,696.1238,301.7164,696.4963Zm2.6139,2.077c0.0766,0.67-.1822,1.3775-0.1056,2.047l0.0384,0.3354c-0.3354.0384-.3354,0.0384-0.3738-0.2971a1.6278,1.6278,0,0,1-.4874-1.3008A0.8459,0.8459,0,0,1,304.33,698.5732ZM297.63,631.1351l-0.3354.0384c0.0384,0.3354-.22,1.0434-0.1822,1.3775l0.3354-.0384A7.6148,7.6148,0,0,0,297.63,631.1351Zm2.7274,3.0808c0.0768,0.6709.4889,1.302,0.5655,1.9716a4.8131,4.8131,0,0,0-1.2638.823C299.21,636.0436,300.1366,635.2592,300.3571,634.2158Zm8.5832,51.2735a0.6722,0.6722,0,0,0,.6313-0.4107l0.115,1.005a7.7009,7.7009,0,0,1-3.0808,2.7274l-0.3354.0384c0.89-1.12.6983-2.7945,2.3728-2.9862A0.3307,0.3307,0,0,1,308.94,685.4893Zm-7.2248-57.1966-0.0768-.6709c-1.005.115-1.34,0.1534-1.7128-.1424l0.0382,0.3341A4.1361,4.1361,0,0,0,301.7154,628.2927Zm3.8011-43.8688c0.0766,0.67-.1822,1.3775-0.0672,2.3825-0.2957.3737-.2575,0.7078-0.9652,0.45-0.3738-.2971-0.0384-0.3354-0.0768-0.6709l-0.1533-1.3391c-0.2971.3738-.9666,0.45-1.2638,0.823-0.3354.0384-.2971,0.3738-0.2588,0.7079a4.81,4.81,0,0,0-.4395,2.0866,1.2376,1.2376,0,0,1-.22,1.0434l0.3354-.0384c0.9284-.7846,2.5645-1.3117,3.4928-2.0962S306.56,584.6429,305.5165,584.4239Zm1.8073-4.9578a28.2486,28.2486,0,0,0-.8791,4.1718C307.45,583.5229,308.148,580.7284,307.3239,579.4661Zm1.8266-10.7277-1.005.115a1.0918,1.0918,0,0,0,.8612,1.5979C308.8916,569.4464,308.8533,569.1109,309.15,568.7384Zm3.616-9.9157a0.6712,0.6712,0,0,1-.7079-0.2588,21.5371,21.5371,0,0,1-.4025,2.4222l0.3737,0.2957A16.4,16.4,0,0,1,312.7665,558.8227Zm0.66-3.13-0.6709.0768c-0.6311.4121-.4777,1.7525-0.0656,2.3837,0.2575-.7078.5545-1.0816,0.8133-1.79A0.4689,0.4689,0,0,0,313.4264,555.6927Zm8.7078,55.3318-0.67.0766c-0.2971.3738-.5943,0.7463-0.5943,0.7463l0.0384,0.3354c0.3354-.0384,1.005-0.115.9666-0.45C322.2108,611.6941,322.1726,611.36,322.1342,611.0246Zm2.5593-36.9395c-0.0384-.3354-0.7093-0.2587-1.0434-0.22a4.5255,4.5255,0,0,0-1.7417,2.5741l0.3725,0.2972c0.3354-.0384,2.6042-0.9764,2.8615-1.6855C325.0658,574.381,325.0276,574.0469,324.6935,574.0851Zm3.086,32.9a1.8058,1.8058,0,0,0-1.4829,1.8662,5.1045,5.1045,0,0,0,1.4939,1.187c0.2957-.3737.8516-1.4555,1.1473-1.8291A1.1768,1.1768,0,0,0,327.7794,606.9855Zm10.67-4.6142a4.5089,4.5089,0,0,1,.1436-1.7143,7.0321,7.0321,0,0,1,.3068,2.6809C338.1908,603.0793,338.1908,603.0793,338.45,602.3714Zm-2.7642-47.8683a10.914,10.914,0,0,0,1.5595-1.1966,2.5219,2.5219,0,0,1-.1438,1.7129,4.6256,4.6256,0,0,1-1.3678,2.8712c0.0384,0.3354-.9666.45-1.005,0.115a0.6459,0.6459,0,0,1-.4491-0.9667c0.2958-.3723.9284-0.7846,1.224-1.1583A2.5442,2.5442,0,0,1,335.6854,554.5031Zm-0.779-21.6277c-0.9666.45-1.2254,1.1584-.8133,1.79L334.1315,535c0.3354-.0384.67-0.0766,0.6311-0.4121A14.6158,14.6158,0,0,0,334.9064,532.8754Zm2.7779,18.3445c0.7859,0.9282.8626,1.5977-.104,2.0482C337.4653,552.263,337.761,551.8894,337.6844,551.22Zm1.5883-3.9145a4.2742,4.2742,0,0,0-.1054,2.0484c0.0384,0.3354-.4779,1.7512-1.1474,1.8278l-0.3737-.2957-0.0384-.3354c0.9284-.7846.5176-1.4159,0.4026-2.4208a0.33,0.33,0,0,0,.2957-0.3737c0.2588-.7079.89-1.12,1.1488-1.8279l0.3341-.0382C339.4931,546.2619,339.57,546.9328,339.2726,547.3053Zm-3.19-18.9756-0.3341.0382c0.0382,0.3341-.2588.7079-0.22,1.0434l0.3354-.0384A1.2422,1.2422,0,0,0,336.0826,528.33Zm15.8494,64.3547a4.2815,4.2815,0,0,0,.564,1.97l-0.3341.0382C351.75,594.0618,351.3378,593.4307,351.932,592.6844Zm15.0033,45.1095,1.3391-.1533c-0.3341.0382,0.0384,0.3354-.2957,0.3737,0.0382,0.3341-.6327.4109-1.005,0.115Zm-7.304-126.0723a1.1784,1.1784,0,0,0,.7079.2588,1.786,1.786,0,0,1-.9284.7846l-0.3725-.2972C359.3343,512.0953,359.2959,511.76,359.6314,511.7215Zm8.5836-5.0537a8.0671,8.0671,0,0,1-.3246,3.09C367.1044,508.83,367.325,507.7878,368.2149,506.6678Zm12.23-5.8108c0.0382,0.3341.3723,0.2958,0.4107,0.6313a1.7875,1.7875,0,0,1-.5545,1.0816l-0.3354.0384-0.1534-1.34A1.18,1.18,0,0,1,380.4446,500.857Zm15.0919,117.0358c0.0384,0.3354.0384,0.3354,0.3725,0.2972l2.3454-.2684-0.0384-.3354Zm-2.0123-67.9734c-0.5929.7462-1.2242,1.1569-1.8169,1.9044l-1.005.115C391.2568,550.8572,392.8162,549.6606,393.5242,549.9194Zm-6.22-57.313c-0.0384-.3354-0.7079-0.2588-0.7079-0.2588-0.6311.4121-.9666,0.45-1.5979,0.8612a0.33,0.33,0,0,0,.3725.2972,2.8079,2.8079,0,0,0,1.6745-.1917C387.3809,493.2759,387.6779,492.902,387.3042,492.6064Zm45.9049-11.0231c-0.2971.3738-1.302,0.4889-1.2638,0.823a4.29,4.29,0,0,0-.104,2.0482C433.1037,483.6316,433.6212,482.2144,433.2091,481.5832Z"/><path class="cls-2" d="M607.1507,491.5353c-0.5545,1.0816-.7736,2.1248.011,3.0532a37.8386,37.8386,0,0,1-6.7556,6.2024,4.7893,4.7893,0,0,0-1.2624.8228,1.2541,1.2541,0,0,0,.23,2.01c0.7078,0.2575,2.0468.1042,1.8662,1.4829a3.2835,3.2835,0,0,1-1.8183,1.9046c-2.5645,1.3117-4.7553,2.919-7.358,3.8966-0.2972.3725-.9284,0.7846-1.2256,1.157-2.0756,2.6137-4.9755,3.9638-7.4634,5.945a5.4227,5.4227,0,0,0-2.1908,1.6074,4.059,4.059,0,0,0-1.4827,1.8675,8.4592,8.4592,0,0,0-1.6089-2.192l-0.89,1.12c-1.0708,2.4973-2.5153,4.699-5.8273,5.4179a1.5419,1.5419,0,0,0-1.1474,1.8278,2.5331,2.5331,0,0,1-1.4062,2.5357c-2.4878,1.9812-4.6032,4.26-7.5018,5.61-1.302.4889-1.8183,1.9046-2.7467,2.6891-0.2971.3738-.89,1.12-1.1857,1.4937-1.2638.823-2.5645,1.3117-3.4544,2.4317-0.5176,1.4159-1.8183,1.9046-2.3728,2.9862s-1.5213,1.5307-2.45,2.3153a8.593,8.593,0,0,1-.4792,1.7513,14.1776,14.1776,0,0,0-1.6813,9.016,1.6231,1.6231,0,0,1-.1822,1.3775c-0.9954,3.1684-1.99,6.3352-3.0231,9.17,0.0382,0.3341-.2575.7078-0.2192,1.0419,0.5641,1.9717-.2094,4.0966-0.3532,5.8095,0.7846,0.9284,1.235,1.8949,2.2783,2.114a3.0991,3.0991,0,0,0,3.3874-.0479c1.224-1.1583,2.8219-2.0194,4.0473-3.1779a20.5946,20.5946,0,0,1,4.4212-2.8808c2.5645-1.3117,5.4247-2.997,8.3246-4.3471,0.2972-.3725.6313-0.4107,0.9284-0.7846a5.4121,5.4121,0,0,1,3.4928-2.0962,0.6712,0.6712,0,0,1,.6311-0.4121c4.3062-3.8858,10.2965-4.91,15.4637-7.1991,1.5979-.8612,3.9433-1.13,5.9135-1.695,0.3354-.0384.7079,0.2588,1.0434,0.22a1.2367,1.2367,0,0,1,1.235,1.8949,8.4381,8.4381,0,0,1-1.0721,2.4975,4.8755,4.8755,0,0,0-1.9606,3.6187c-2.6413.6408-3.7887,2.4686-5.2332,4.67a8.9563,8.9563,0,0,1,2.2,1.4446c-1.8552,1.57-4.0857,2.8424-6.2764,4.4511,2.047,0.1056,3.3106-.7188,4.6128-1.2063a5.697,5.697,0,0,1,1.7512.4779,25.1077,25.1077,0,0,1-3.7517,2.8042,5.2748,5.2748,0,0,1,1.2829,5.2824c-1.5211,1.5321-2.7069,3.0244-5.0139,3.6283a2.8663,2.8663,0,0,0-1.5595,1.1966c-3.0041,3.3969-6.4968,5.4945-9.9514,7.9248a131.8587,131.8587,0,0,0-10.9946,7.7058,23.19,23.19,0,0,1-2.5645,1.3117c-2.1906,1.6087-4.8319,2.2495-5.9039,4.7483-0.3341.0382-.6313,0.4107-0.9654,0.449-1.0816-.5545-2.01.23-2.6029,0.9762-1.2254,1.1584-2.077,2.6139-3.416,2.7671-2.6411.6421-4.5745,1.5417-5.6452,4.039-0.2588.7079-.9284,0.7846-1.2254,1.1584-3.1574,2.0578-5.9807,4.0774-9.1763,5.8012a2.8556,2.8556,0,0,1-1.9333.9c-1.6745.1917-2.5645,1.3117-3.4162,2.7658-1.109,2.1632-1.5115,4.5854-2.9561,6.7857a25.9159,25.9159,0,0,0-2.659,6.4119c-1.0322,2.8341-1.6923,5.9628-2.6877,9.1311a1.5072,1.5072,0,0,1-1.5213,1.5307c-0.7462-.5929-0.4887-1.3007-0.23-2.0086a20.5422,20.5422,0,0,1,1.8087-4.9579c0.5929-.7462.1424-1.7128,0.0656-2.3837l-0.0382-.3341a2.5561,2.5561,0,0,0,1.2636-.8243,234.1856,234.1856,0,0,1-.7475-0.5927,4.9228,4.9228,0,0,1-.5161,1.4171l0.0382,0.3341a14.3255,14.3255,0,0,0-2.6973,6.0778,6.8664,6.8664,0,0,1-1.7417,2.5741,2.5964,2.5964,0,0,1,.0494,3.3886,19.7831,19.7831,0,0,0-1.0338,2.8329c-0.5163,1.4157-1.0721,2.4975-2.3728,2.9862a4.2869,4.2869,0,0,0-1.9991,3.2819,63.9213,63.9213,0,0,1-2.21,7.3786,15.49,15.49,0,0,1-1.7307,5.6273c-2.5371-1.4061-2.9478-2.0374-3.2161-4.3814-0.0768-.6709.1807-1.3787,0.104-2.0482l-0.3725-.2972-0.6709.0768a3.5671,3.5671,0,0,0-.4779,1.7512,3.66,3.66,0,0,1-.994,3.1682c-0.89,1.12-1.4842,1.8663-1.2926,3.5409a1.5189,1.5189,0,0,1-.8886,1.12c-2.6029.9762-4.0487,3.178-5.4548,5.7151l-0.2958.3723a34.94,34.94,0,0,1-3.197,1.7239l-1.0036.1149c-2.7179-.0288-2.7179-0.0288-4.91,1.5788-1.0816-.5545-1.1966-1.5595-1.3115-2.5631a80.1546,80.1546,0,0,1-.9214-19.915c1.0324-2.8328.6873-5.8477,1.3856-8.6423a41.8742,41.8742,0,0,0,.7271-5.5124c0.1807-1.3787.4012-2.4207,1.3678-2.8712a3.1948,3.1948,0,0,0,1.2528-3.8762,11.21,11.21,0,0,0-.7749,2.125c-0.7462-.5929-1.12-0.89-0.823-1.2638a39.3968,39.3968,0,0,1,.9079-6.89,0.9322,0.9322,0,0,1,1.4555.8516c0.0766,0.67-.1822,1.3775-0.1054,2.0484,1.9511-6.6707,3.9789-12.6718,5.93-19.3425a3.3747,3.3747,0,0,1-1.5321-1.5211,3.5659,3.5659,0,0,1,.3916-5.474,11.2562,11.2562,0,0,1,1.8949-1.235,9.9409,9.9409,0,0,0,4.1911-4.8908c0.2575-.7078.8133-1.79,0.0658-2.3823a2.0112,2.0112,0,0,1-.2684-2.3454c1.0338-2.8329,1.435-5.2536,3.2149-7.4936a4.798,4.798,0,0,0,.4395-2.0866,14.6062,14.6062,0,0,1,1.2146-4.21,12.4845,12.4845,0,0,0,.8037-4.8429,56.1134,56.1134,0,0,1,1.9129-7.0048c-0.0384-.3354-0.4122-0.6325-0.45-0.9666-1.0818-.5559-1.1966-1.5595-1.0146-2.9383a12.4786,12.4786,0,0,0,1.2528-3.8762c-3.119,2.3933-6.316,4.1172-9.1,6.4707a10.1223,10.1223,0,0,1-2.5261,1.6471c-2.229,1.2733-4.8717,1.9142-5.9423,4.4129-0.2972.3725-.5929,0.7462-0.9667,0.4491a2.7977,2.7977,0,0,0-2.5645,1.3117c-1.2624.8228-2.114,2.2783-3.4544,2.4317-2.6411.6421-4.5349,1.8757-5.6068,4.3745-0.2972.3725-.9667,0.4491-1.2638,0.823-3.1574,2.0578-5.9793,4.0773-9.1381,6.1353a3.6407,3.6407,0,0,1-1.97.5653,4.9873,4.9873,0,0,0-3.3778,3.1012c-3.9611,6.9007-5.3467,15.543-7.1829,23.2173-2.0949,8.3836-5.6727,18.6334-6.0917,26.8252-0.1533-1.3391-.9762-2.6029-1.0912-3.6079-4.0869,2.8439-4.5444,10.7-4.0076,15.39-7.4744,2.8918-11.1768,9.0832-11.97,16.9793a8.5669,8.5669,0,0,1-3.5119-4.0091c-4.4308-.1726-15.9128,18.109-20.7364,11.5354-2.058-3.1587,2.6288-15.5718,3.25-19.0358A628.8751,628.8751,0,0,1,416.4042,597.86a7.3257,7.3257,0,0,0-1.1966-1.5595,3.7592,3.7592,0,0,1,.0562-5.4356c0.5927-.7475,1.5977-0.8626,2.229-1.2733a9.9475,9.9475,0,0,0,4.1911-4.8908c0.2587-.7093.8133-1.79,0.0288-2.7179-0.7463-.5943-0.4889-1.302-0.2684-2.3454,1.0708-2.4973,1.435-5.2536,3.2136-7.4935a3.55,3.55,0,0,0,.4792-1.7513,9.9189,9.9189,0,0,1,1.1762-4.5457,9.5672,9.5672,0,0,0,.8407-4.5073,60.8365,60.8365,0,0,1,1.8745-7.34,1.18,1.18,0,0,1-.4109-0.6327,2.6834,2.6834,0,0,1-1.0158-2.9368q1.493-4.7526,2.9849-9.5036a36.7186,36.7186,0,0,1-3.9145-1.5883l-3.7324-2.9657c2.1906-1.6087,4.9085-1.58,6.7269-3.4845-1.12-.89-2.5755-1.7415-4.2116-1.2144a2.1326,2.1326,0,0,1-2.8329-1.0338c-0.7846-.9284-1.2349-1.8936-2.6123-2.0758a1.7833,1.7833,0,0,1-.7846-0.9284,16.4791,16.4791,0,0,1-1.7621-3.5311,1.2363,1.2363,0,0,0,.22-1.0434c0.4012-2.4207,1.9607-3.6173,4.0091-3.5119,3.4257,0.2862,5.9518-1.3609,8.5164-2.6712,3.1586-2.0594,6.2777-4.4513,9.4351-6.5091a4.7914,4.7914,0,0,0,2.7081-3.026,21.083,21.083,0,0,0,2.5824-7.0814,1.8012,1.8012,0,0,1,.8517-1.4541c1.224-1.1583,3.1572-2.0592,4.9852-.91a6.5616,6.5616,0,0,0,2.7179.0288l1.005-.115c1.0432,0.2191,2.4589.7353,3.4257,0.2862a56.1315,56.1315,0,0,0,6.3928-3.4463c3.1956-1.7238,6.6885-3.82,9.8458-5.8778,4.4212-2.8808,8.8422-5.763,13.3-8.31q4.2925-2.5262,8.5836-5.0537c3.197-1.7239,5.9807-4.0774,9.1381-6.1353,1.2254-1.1584,2.1154-2.2784,3.4544-2.4317a1.7864,1.7864,0,0,0,.5559-1.0818l25.4546-2.9134a8.8953,8.8953,0,0,0-1.4445,2.2016,1.5026,1.5026,0,0,0,.1917,1.6745c0.0766,0.67.7462,0.5929,1.3775,0.1822a4.6758,4.6758,0,0,0,1.2254-1.1584,1.1272,1.1272,0,0,1,1.7128.1424c0.0384,0.3354.45,0.9666,0.115,1.005a3.102,3.102,0,0,0,.0479,3.3874,36.0923,36.0923,0,0,1-6.7925,5.8682,5.002,5.002,0,0,1-1.2638.823,1.2649,1.2649,0,0,0,.23,2.01c0.7078,0.2575,2.0866.4395,1.9044,1.8169-0.2191,1.0432-1.224,1.1583-1.8566,1.57-2.5631,1.3115-4.7169,3.2545-7.32,4.2307a2.56,2.56,0,0,0-1.2624.8228c-2.077,2.6139-4.9373,4.2979-7.4634,5.945a14.3189,14.3189,0,0,0-2.1538,1.943,7.0651,7.0651,0,0,0-1.8566,1.57,16.5037,16.5037,0,0,1-1.2721-2.2306c2.0578,3.1574-14.5052,15.5731-16.774,16.5111-1.2624.8228-1.8183,1.9046-2.7453,2.689-0.5941.7477-.8516,1.4555-1.1486,1.8293-1.2624.8228-2.9,1.3487-3.4546,2.43s-1.8169,1.9044-2.3728,2.9862-1.5595,1.1966-2.4878,1.9812c-0.2573.7091-.1807,1.3787-0.4395,2.0866a13.5491,13.5491,0,0,0-1.6828,9.0147,2.0263,2.0263,0,0,1-.182,1.3788c-1.0324,2.8328-2.0279,6-3.0219,9.168,0.0384,0.3354-.2588.7079-0.22,1.0434,0.5655,1.9716-.2478,3.7611-0.3532,5.8095a6.879,6.879,0,0,0,2.2783,2.114c1.0434,0.22,2.4207.4012,3.349-.3833,1.2254-1.1584,2.8615-1.6855,4.0473-3.1779,1.2254-1.1584,2.8617-1.6842,4.4594-2.5467a0.33,0.33,0,0,1,.2972-0.3725c2.2578-3.9912,9.4351-6.5091,15.2336-9.2091,1.5979-.8612,3.5311-1.7621,5.129-2.6233,16.4961-10.0319,31.9119-20.6185,48.0738-30.6121,2.86-1.6854,5.7219-3.37,8.6218-4.72,3.1574-2.0578,5.9807-4.0774,9.1-6.4707s5.8751-2.03,9.0709-3.7528c2.8617-1.6842,4.8989-4.6333,8.2111-5.3509,2.3441-.2683,6.4406-0.0589,8.6027,1.0517,5.0344,2.4769.23,2.0086,2.3261,5.5014,0.0768,0.6709.7477,0.5941,1.3788,0.182a1.7516,1.7516,0,0,0,1.2624-.8228,1.5024,1.5024,0,0,1,1.6745-.1917C607.0357,490.53,607.4479,491.1628,607.1507,491.5353Z"/><path class="cls-2" d="M717.6867,470.0617c-0.5163,1.4157-1.4062,2.5357-1.9223,3.9528A72.2888,72.2888,0,0,0,704.1,481.7969a0.8674,0.8674,0,0,0,1.12.8886l2.68-.3067,0.3725,0.2972,0.0766,0.67a1.7483,1.7483,0,0,1-1.2623.8242,28.5272,28.5272,0,0,1-5.5028,2.3263c-2.229,1.2733-4.1624,2.1729-5.9423,4.4129q0.6181,0.9467,1.2349,1.8936a35.3176,35.3176,0,0,0-5.54,1.992c-1.2638.823-2.8233,2.02-4.3828,3.2162a4.81,4.81,0,0,1-.4395,2.0866,3.3747,3.3747,0,0,1-1.1488,1.8279c-1.9333.9-3.0808,2.7274-4.23,4.5553a2.5441,2.5441,0,0,1-2.1906,1.6087,5.5774,5.5774,0,0,0-3.9707,3.8474,5.3118,5.3118,0,0,1-2.0771,2.6125,8.61,8.61,0,0,0-4.124,2.5083l-0.67.0766c-2.3823-.0658-3.5695,1.4267-5.129,2.6233a9.4161,9.4161,0,0,1-5.7985,2.7c-3.015.3451-4.4978,2.2113-5.1961,5.0058-0.7367,2.4591-2.22,4.3253-3.9995,6.5653l3.015-.3451c0.0384,0.3354.4121,0.6311,0.45,0.9666-0.8133,1.79-2,3.282-1.0625,5.5508a4.9971,4.9971,0,0,0-2.047-.1056c-0.9282.7859,0.4491,0.9667,0.5257,1.6363l0.0768,0.6709a6.55,6.55,0,0,0-2.477,5.033,5.9366,5.9366,0,0,1,1.8279,1.1488l0.0766,0.67a11.2479,11.2479,0,0,1-3.119,2.3933,3.24,3.24,0,0,0-2.3346,3.32c0.115,1.005-.7749,2.125-0.9954,3.1684,0.7462,0.5929,1.0434.22,1.6745-.1917,0.5943-.7463.8133-1.79,1.4062-2.5357a7.0651,7.0651,0,0,0,1.11-2.1634c1.12,0.89.5641,1.9717,0.9762,2.6029l0.3738,0.2971c2.86-1.6854,5.76-3.0354,8.9559-4.7578,4.1624-2.1729,8.66-4.3855,12.8224-6.5584,2.2688-.938,4.2008-1.8374,6.1341-2.737a10.0269,10.0269,0,0,1,4.3156-.8338c1.005-.115,1.9716-0.5655,2.6411-0.6421a5.9366,5.9366,0,0,1,1.8279,1.1488,29.2323,29.2323,0,0,0-4.9757,3.9624,2.5632,2.5632,0,0,0-.5161,1.4171c0.0766,0.67,1.12.89,1.79,0.8133,0.9666-.45,1.9716-0.5655,3.2723-1.0542a19.409,19.409,0,0,0,1.6089,2.192,13.6664,13.6664,0,0,1-.8517,1.4541,12.95,12.95,0,0,0-3.7791,5.5219c-0.2971.3738-1.2254,1.1584-1.5211,1.5321-0.9284.7846-1.5595,1.1966-2.4878,1.9812a4.9886,4.9886,0,0,0,.6037,2.3057l-0.5941.7477a26.8377,26.8377,0,0,1-5.0523,3.2929,7.7576,7.7576,0,0,0-3.9323,4.1828c-1.1092,2.1619-3.0041,3.3969-4.8991,4.6319a80.8827,80.8827,0,0,1-7.2814,4.5662c-0.6325.4122-1.2254,1.1584-1.8567,1.5691-1.5595,1.1966-2.7849,2.3551-4.8318,2.2509-1.34.1534-2.5645,1.3117-3.79,2.4687-1.4829,1.8662-3.416,2.7671-5.6835,3.705-1.9333.9-3.8283,2.1346-5.76,3.0341a4.7942,4.7942,0,0,1-1.9332.901c-1.9717.5641-2.4878,1.9812-3.2628,4.1062,0.7078,0.2575,1.3773.1808,2.0866,0.4395-1.4062,2.5357-2.5166,4.6991-2.544,7.4169,0.7462,0.5929,1.3773.1808,2.0086-.23,2.23-1.2734,4.124-2.5083,6.3544-3.7817a7.4052,7.4052,0,0,1,1.5595-1.1966c3.3108-.7174,5.4646-2.66,8.3631-4.01,3.8283-2.1346,6.9089-4.8634,10.44-6.6241,2.2674-.9378,4.1624-2.1729,6.43-3.1121a39.4328,39.4328,0,0,0,9.5119-5.8382c2.8615-1.6855,5.7219-3.37,8.6218-4.72a4.779,4.779,0,0,1,1.9333-.9,37.5792,37.5792,0,0,1,7.9509-4.6428c2.2686-.9393,4.124-2.5083,6.3544-3.7817,3.1956-1.7238,6.43-3.1107,9.6254-4.8344,1.3022-.4875,2.5658-1.3118,3.8667-1.7992,0.9666-.45,1.6745-0.1917,2.1632,1.109-0.8133,1.79-2.7083,3.0246-4.2678,4.2212-3.119,2.3933-5.9423,4.4129-8.3151,7.3991a7.3559,7.3559,0,0,1-1.5595,1.1966,1.4117,1.4117,0,0,0-.8517,1.4541c0.45,0.9666,1.1966,1.5595,2.1634,1.11a17.0665,17.0665,0,0,0,2.9368-1.0158,25.3769,25.3769,0,0,0-1.4445,2.2016,42.0532,42.0532,0,0,0-6.3148,4.1157c-0.9666.45-1.5211,1.5321-2.4495,2.3167,0.4491,0.9667,1.8279,1.1488.9762,2.6029a8.1388,8.1388,0,0,1-3.6351,3.81,20.2077,20.2077,0,0,0-4.0091,3.5119c0.115,1.005.823,1.2638,1.4541,0.8517a11.21,11.21,0,0,1,1.8949-1.235c-0.4025,2.4222-.4025,2.4222-1.6649,3.245a3.6139,3.6139,0,0,0-1.9333.9c-0.8133,1.79-2.7835,2.3549-4.009,3.5133s-3.1958,1.7224-5.1674,2.2879a36.8767,36.8767,0,0,0-3.4546,2.43,28.201,28.201,0,0,0-3.7117,3.1408l-0.6709.0768c-1.1858,1.4923-3.6831.4216-4.4582,2.5452a30.9123,30.9123,0,0,1-4.421,2.8822c-1.2638.823-2.1908,1.6074-3.5312,1.7608a1.6231,1.6231,0,0,0-1.3007.4887c-2.45,2.3153-5.685,3.7038-7.799,5.982-0.2588.7079-1.2624,0.8228-1.9333,0.9-0.2191,1.0432-.1424,1.7128-1.0706,2.4987a138.6958,138.6958,0,0,1-17.7215,11.19,17.7549,17.7549,0,0,1-3.9051,1.4637c-2.2673.9392-4.87,1.9154-7.473,2.8916a0.7249,0.7249,0,0,0-.5927.7475,8.6994,8.6994,0,0,1-2.1812,4.6607c-0.6327.4109-.8517,1.4541-1.4446,2.2a40.3617,40.3617,0,0,1-2.0675,5.6659,5.0612,5.0612,0,0,1-1.1857,1.4937c-1.4541-.8517-0.2683-2.3441-1.0146-2.9383a1.509,1.509,0,0,0-1.1488,1.8279,18.98,18.98,0,0,0-.879,4.1732,12.5165,12.5165,0,0,1-.8037,4.8429,1.4068,1.4068,0,0,1-.9-1.9333,35.3612,35.3612,0,0,1,.6873-5.8477,6.8592,6.8592,0,0,1-.5257-1.6363c-1.6649,3.245-.9077,6.8911-2.9465,9.8391q-1.0619-.3882-2.1236-0.7751s-0.2972.3725-.5943,0.7463q-0.2136,2.5691-.4286,5.1384c-1.005.115-1.6375,0.5273-2.6425,0.6423a14.5278,14.5278,0,0,1-1.0708,2.4973,4.63,4.63,0,0,1-3.0424,3.0628l-4.02.46a3.2128,3.2128,0,0,1-2.9862-2.3728,43.0786,43.0786,0,0,1-1.1007-6.66c-0.0492-3.3873.1986-7.1484-.5572-10.7947,0,0-.3354.0384-0.0384-0.3354,1.0708-2.4973-.6134-5.359.419-8.1918-0.0863-3.7229,1.5788-6.9665.8216-10.6126,0.9954-3.1684-.6518-5.6945-1.9634-8.2589a1.24,1.24,0,0,1-.4491-0.9667,5.7018,5.7018,0,0,1,3.0808-2.7274,3.0417,3.0417,0,0,0,1.78-2.24c0.545-4.1336,1.0886-8.2684,1.969-12.44,0.4011-2.4221,1.5116-4.5841,1.5773-6.9677a28.54,28.54,0,0,1,1.0229-5.8848c-1.5307-1.5213-3.063-3.0437-4.9674-4.8607a7.4052,7.4052,0,0,0,1.5595-1.1966c1.8949-1.235,3.4928-2.0962,5.3878-3.3313a6.2513,6.2513,0,0,0,2.0374-2.9478c0.6215-3.4654,1.9511-6.6707,2.9082-10.1731a17.148,17.148,0,0,0,1.6923-5.9628,2.5807,2.5807,0,0,1,.4779-1.7512,2.4,2.4,0,0,0,.7749-2.125,8.0573,8.0573,0,0,1,1.8471-4.6225c0.89-1.12,1.7786-2.24,1.2528-3.8762a3.553,3.553,0,0,1,.4779-1.7512c0.5161-1.4171,1.3678-2.8712,1.8855-4.287a2.0327,2.0327,0,0,0,.1807-1.3787c0.22-1.0434.1054-2.0484,0.4012-2.4207,2.1154-2.2784,1.3966-5.5891,2.4686-8.0879a75.775,75.775,0,0,0,2.84-7.7905,4.9462,4.9462,0,0,1,.5176-1.4159,61.5526,61.5526,0,0,0,3.6146-9.9155c0.2972-.3725.2206-1.042,0.5176-1.4159a8.83,8.83,0,0,0,1.0228-5.8861l-0.1917-1.6745c1.224-1.1583,2.0374-2.9478,3.5586-4.4785a7.3374,7.3374,0,0,0,.8133-1.79,36.5856,36.5856,0,0,1,1.9511-6.6707c0.5545-1.0816.4011-2.4221,0.6217-3.4641a4.6222,4.6222,0,0,1,3.2244-4.4417l0.67-.0766a6.4723,6.4723,0,0,1,6.0669-.3546c2.4987,1.0706,4.9194,1.4719,7.4182,2.5439,2.1236,0.7751,4.0952.21,6.22,0.9845a2.9556,2.9556,0,0,0,2.3057-.6037c4.1624-2.1729,8.2877-4.6813,12.45-6.8542,4.4582-2.5452,8.9176-5.0919,13.4155-7.3032a56.1134,56.1134,0,0,0,6.3914-3.4461,63.1622,63.1622,0,0,1,7.1005-3.1888q2.3968-1.2918,4.795-2.5837a38.9081,38.9081,0,0,1,10.6686-4.6154c2.9383-1.0146,5.8753-2.0291,8.9286-2.0387a5.7482,5.7482,0,0,1,2.3823.0658,4.6271,4.6271,0,0,1,1.1584,1.2254c-0.9667.4491-1.8937,1.2335-2.86,1.684s-1.9716.5655-2.5645,1.3117a1.1378,1.1378,0,0,0-.5559,1.0818,1.7864,1.7864,0,0,0,.7859.9282c1.0036-.1149,1.7128.1424,2.7177,0.0274C715.8206,468.5788,716.5667,469.1718,717.6867,470.0617ZM615.5446,564.8872a1.7833,1.7833,0,0,1-.7846-0.9284,1.2583,1.2583,0,0,0-.8516,1.4555c0.0766,0.67.45,0.9666,1.0816,0.5545A0.7972,0.7972,0,0,0,615.5446,564.8872Zm11.6037,30.2291c-1.9716.5655-3.234,1.3883-3.3778,3.1012s0.3451,3.015-.5066,4.4691c-0.85,1.4553.0492,3.3873-.8023,4.8427-0.3354.0384,0.115,1.005,0.45,0.9666s1.0036-.1149.9652-0.45a60.2909,60.2909,0,0,0,3.1287-11.2165C627.3017,596.4567,627.2633,596.1212,627.1483,595.1162Zm-1.5168-31.0437a10.1223,10.1223,0,0,0-1.0338,2.8329,1.6278,1.6278,0,0,0-.1808,1.3773c1.224-1.1583,1.4445-2.2016,2.0374-2.9478C626.7131,564.6271,626.6365,563.9575,625.6315,564.0725Zm12.3063-5.1413c-1.1872,1.4925-1.3692,2.8713-1.9237,3.9529,1.4171,0.5161,2.0482.104,1.9716-.5655A10.3784,10.3784,0,0,0,637.9378,558.9313Z"/><path class="cls-2" d="M827.7354,482.9157c1.2733,2.229,4.1444,3.5969,4.1923,6.9843a11.2068,11.2068,0,0,0-1.6251,3.58c0.115,1.005-.4779,1.7512-1.0338,2.8329,0.0382,0.3341-.5929.7462-0.5545,1.0816-0.8421,4.5074-4.554,7.6469-5.73,12.1926-0.2588.7079-1.1872,1.4925-1.7417,2.5741a1.113,1.113,0,0,1-.1917-1.6745q1.6082-3.7462,3.2149-7.4936c-0.0384-.3354.2957-0.3737,0.2575-0.7078a1.24,1.24,0,0,0-.4491-0.9667l-1.005.115a1.7822,1.7822,0,0,0-.5559,1.0818c-0.5545,1.0816-.7736,2.1248-2.0758,2.6123a4.2985,4.2985,0,0,0-1.109,2.1632,26.8062,26.8062,0,0,1-4.0379,6.23c0.0384,0.3354-.2971.3738-0.6311,0.4121a0.9691,0.9691,0,0,1,.1424-1.7128c2.0771-2.6125,2.6973-6.0778,4.0665-8.9491l-0.1917-1.6745a4.686,4.686,0,0,0-3.6079,1.0912,16.9416,16.9416,0,0,0-2.0386,2.9493c-1.33,3.2053-4.487,5.2631-6.19,8.1727-3.0136.3449-5.2152-1.1-7.34-1.8745a3.601,3.601,0,0,1,.5833-3.8c1.56-1.1953,2.0374-2.9478,2.8507-4.7373-0.3723-.2958-0.7846-0.9284-1.1583-1.224a1.1281,1.1281,0,0,1,.1438-1.7129c0.2971-.3738.9282-0.7859,1.2254-1.1584,1.6361-.5271,2.229-1.2733,2.41-2.652a16.3887,16.3887,0,0,0,.9187-3.8379c-1.8278-1.1474-3.6173-1.9607-6.1818-.6491a73.1012,73.1012,0,0,1-7.77,3.2641,3.6144,3.6144,0,0,0-1.9332.901c-1.1488,1.8279-3.0808,2.7274-4.2679,4.22a49.4751,49.4751,0,0,1-3.9706,3.8488,25.8025,25.8025,0,0,0-2.67,3.3587,7.2814,7.2814,0,0,1-2.114,2.2783c0.0384,0.3354.7846,0.9284,0.1534,1.34a6.848,6.848,0,0,0-2.1142,2.2769,11.43,11.43,0,0,1-1.78,2.24c-2.114,2.2783-4.2678,4.2212-6.3818,6.4995a8.92,8.92,0,0,0-1.4446,2.2,82.0756,82.0756,0,0,0-8.745,12.539c-0.8517,1.4541-1.3678,2.8712-2.22,4.3253-0.5545,1.0816-1.109,2.1632-1.9606,3.6187l0.1149,1.0036a1.2314,1.2314,0,0,0,1.7513.4792,10.2675,10.2675,0,0,0,2.1524-1.9428c0.8516-1.4555,2.0386-2.9493,1.8087-4.9579a3.4364,3.4364,0,0,1,1.3678-2.8712c0.115,1.005-.4408,2.0868.0095,3.052a3.8288,3.8288,0,0,1-.6983,2.7945,30.5056,30.5056,0,0,1-3.0711,5.7807c-0.9666.45-1.97,0.5653-2.9368,1.0158,0.7174,3.3108-1.0625,5.5508-2.8028,8.1248a6.2167,6.2167,0,0,0-1.2144,4.2116,3.5741,3.5741,0,0,1-1.1105,2.162c-0.5545,1.0816-.5161,1.4171.6039,2.307s1.1583,1.224.9378,2.2674a10.2259,10.2259,0,0,0-1.4062,2.5357c-0.6311.4121-1.6361,0.5271-2.2673,0.9392a1.7822,1.7822,0,0,0-.5559,1.0818,22.2644,22.2644,0,0,1-1.1667,7.5977c1.2254-1.1584,1.2254-1.1584,1.4842-1.8663s0.1424-1.7128,1.1474-1.8278c0.0766,0.67.4889,1.302,0.1917,1.6745a26.4926,26.4926,0,0,0-1.1378,4.8811c-0.4779,1.7512-.5833,3.8-2.1428,4.9962-0.3629,2.7561-1.1379,4.88-.8313,7.5593a26.0972,26.0972,0,0,1-.0944,5.1016l0.3833,3.349a39.7456,39.7456,0,0,0,2.1059,6.5462,20.6673,20.6673,0,0,0,5.9066,7.1279,12.31,12.31,0,0,0,11.3588,1.4145,42.6567,42.6567,0,0,0,12.602-5.515q0.949-.6163,1.8951-1.2337c4.4977-2.2126,8.545-5.39,12.5924-8.5683,2.1538-1.943,4.2679-4.22,6.8324-5.5315a11.8161,11.8161,0,0,0,2.4877-1.9826c5.2729-4.3349,10.88-8.7094,15.74-13.6768a7.3073,7.3073,0,0,1,1.5595-1.1966,16.6359,16.6359,0,0,1-3.0985,8.4985c-2.1154,2.2784-4.2678,4.2212-5.674,6.7569a4.3108,4.3108,0,0,1-1.8566,1.57,6.0359,6.0359,0,0,0-1.4062,2.5357,6.2458,6.2458,0,0,1-2.0387,2.948c-2.4112,2.6507-4.8607,4.9674-7.2719,7.6181-1.8552,1.57-1.8169,1.9044-.9174,3.8378-0.8516,1.4555-2.8233,2.02-3.3394,3.4367a8.4318,8.4318,0,0,0,2.4973,1.0708c-0.5927.7475-1.1857,1.4937-1.4827,1.8675a1.5863,1.5863,0,0,1-1.97.564,0.33,0.33,0,0,1-.3737-0.2957c-0.7846-.9284-1.79-0.8133-2.0484-0.1054a8.4659,8.4659,0,0,1-1.0708,2.4973c-0.9284.7846-1.9716,0.5655-2.4878,1.9812-0.5175,1.4172-1.5225,1.5323-2.9,1.35-0.67.0766-1.3007,0.4887-2.3057,0.6037l-0.2588.7079a1.1389,1.1389,0,0,0,.7846.9284c0.6709-.0768,1.6361-0.5271,2.9766-0.6805a29.5806,29.5806,0,0,1-14.3819,7.755c-0.2972.3725-.9667,0.4491-1.2638,0.823,0.182-1.3788,1.8949-1.235,2.1154-2.2784-2.46-.7365-6.479-0.2766-14.7,2.0223,0.5271,1.6361,2.3823.0658,2.8712,1.3678a4.4549,4.4549,0,0,1-3.9419,1.1295,8.7978,8.7978,0,0,0-3.8-.5833c-4.02.46-7.5606-.8311-10.8439-2.83a7.3114,7.3114,0,0,0-2.8712-1.3678,2.0291,2.0291,0,0,0-1.3008.4874c-0.6311.4121-.22,1.0434,0.1534,1.34a20.8447,20.8447,0,0,0,5.79,6.1231c-0.2573.7091-.5927,0.7475-0.9666,0.45a67.3821,67.3821,0,0,1-5.3015-4.8224c-1.12-.89-0.9393-2.2686-1.0926-3.6077-2.2387-1.78-5.0714-2.8125-6.7186-5.3385-0.0384-.3354-0.3725-0.2972-0.4107-0.6313-2.8727-1.369-4.5184-3.8953-6.4613-6.0477-1.5321-1.5211-2.0962-3.4928-2.6617-5.4644-0.4121-.6311-0.4887-1.3007-0.8994-1.932a41.9161,41.9161,0,0,1-3.8118-15.5129c-0.1355-7.11-.5667-13.8467-1.0364-20.92a36.6633,36.6633,0,0,1,1.4912-10.6893c0.545-4.1336,1.7978-8.01,1.6718-12.0679a19.8625,19.8625,0,0,1,2.3537-9.0915c2.0648-5.6655,4.5048-11.0342,6.9063-16.7383,0.5161-1.4171,1.4061-2.5371,1.9223-3.9528,2.6973-6.0778,5.4343-11.82,9.96-16.7493,1.8183-1.9046,3.3012-3.7708,4.784-5.6369,1.1857-1.4937,2.4111-2.6521,3.5982-4.1446a6.06,6.06,0,0,0,2.1524-1.9428c5.3384-6.72,11.7586-12.884,17.883-18.6743,3.6735-3.4749,7.31-7.2841,11.3575-10.4619,3.75-2.804,7.54-5.2741,11.3287-7.744a1.4846,1.4846,0,0,1,1.6376-.5259,38.1123,38.1123,0,0,1,6.1434.3136c2.047,0.1056,4.0954.211,6.479,0.2766q2.0662,0.2733,4.1336.545a37.1061,37.1061,0,0,0,6.1053-.0191,25.2165,25.2165,0,0,1,5.5123.7257c1.0434,0.22,2.46.7365,3.8378,0.9174a7.9985,7.9985,0,0,1,5.37,2.44c0.0766,0.67.7846,0.9284,1.4925,1.1872,2.5357,1.4062,2.9478,2.0374,4.3361,5.2714-0.4779,1.7512-1.3294,3.2066-1.8073,4.9578C829.0265,479.3736,828.5487,481.1261,827.7354,482.9157Zm-81.2871,164.375a21.0924,21.0924,0,0,1,3.4641.6217C748.9842,648.6982,749.0225,649.0323,746.4484,647.2906Zm11.6943,1.3761c0.0384,0.3354.0768,0.6709-.2587,0.7093a13.2239,13.2239,0,0,1-6.182-.65C754.6787,648.0464,756.0178,647.8932,758.1426,648.6668ZM747.5838,574.206l0.0384,0.3354Zm12.577,65.4076a45.6089,45.6089,0,0,1,6.6215-1.4362q-2.0662-.2733-4.1336-0.545c-1.34.1534-2.7179-.0288-3.9049,1.4651A4.8312,4.8312,0,0,0,760.1609,639.6136Zm-6.7127-82.3664c0.3341-.0382.2957-0.3737,0.5929-0.7462-1.0434-.22-1.3022.4875-1.5213,1.5307C753.1511,557.621,753.4866,557.5826,753.4482,557.2472Zm0.9174-3.8378a2.6826,2.6826,0,0,0-.3245,3.0916,35.2621,35.2621,0,0,1,2.2578-3.9912c-0.0384-.3354.5545-1.0816-0.1534-1.34Q755.2563,552.2907,754.3655,553.4094Zm6.2368-16.6617-0.3341.0382Zm0,0q0.8891-1.1213,1.78-2.24a1.2376,1.2376,0,0,0,.22-1.0434A2.9543,2.9543,0,0,0,760.6023,536.7478Zm2-3.2834,0.3341-.0382Zm0.3341-.0382c1.0434,0.22,1.6363-.5257,1.8183-1.9046A5.3259,5.3259,0,0,0,762.9368,533.4261Zm12.0182,99.065a1.2713,1.2713,0,0,0,.7462.5929l0.5929-.7462-0.7462-.5929A0.7236,0.7236,0,0,0,774.955,632.4911Zm10.5742,0.4862c0.3354-.0384.67-0.0766,0.6313-0.4107l-0.0384-.3354a1.239,1.239,0,0,0-.9666.45A0.33,0.33,0,0,1,785.5293,632.9773Zm2.2277-13.15a1.0477,1.0477,0,0,1,.4109.6327c0.3354-.0384.6709-0.0768,0.6325-0.4122,0.3341-.0382-0.0384-0.3354-0.4121-0.6311A1.18,1.18,0,0,1,787.757,619.8276Zm2.94,10.8618c-0.2971.3738-.9666,0.45-0.9284,0.7846a2.5632,2.5632,0,0,0,.823,1.2638c1.3788,0.182,3.13.66,4.8427,0.8023q-0.6181-.9467-1.2349-1.8936a4.7818,4.7818,0,0,0-2.0868-.4408A2.5548,2.5548,0,0,0,790.6966,630.6894Zm-0.5846-8.0769c-0.2971.3738-.6325,0.4122-0.5943,0.7463-0.0382-.3341.2972-0.3725,0.6327-0.4109Zm0,0,0.0384,0.3354Zm7.9127-4.9769,0.3354-.0384c0.9282-.7859.5161-1.4171,0.104-2.0482a5.0941,5.0941,0,0,0-1.1858,1.4923c-0.5927.7475-1.9716,0.5655-1.8183,1.9046C796.9155,619.7975,797.0579,618.0847,798.0247,617.6356Zm0.7749-2.125-0.3354.0384Zm0,0c0.7079,0.2588,1.4171.5161,1.6361-.5271A2.5238,2.5238,0,0,0,798.8,615.5106Zm2.2674-.9378a0.6741,0.6741,0,0,0-.6313.4107l0.3354-.0384A0.3293,0.3293,0,0,1,801.067,614.5728Zm-0.6313.4107,0.3354-.0384Z"/><path class="cls-2" d="M976.4109,400.3979a7.7955,7.7955,0,0,1-1.8088,4.9566c-2.1536,1.9443-4.0062,3.513-5.8245,5.4176a21.3552,21.3552,0,0,1-2.2688.938c-1.3007.4887-1.9716,0.5655-3.2723,1.0542,0.23,2.0086,2.125.7749,2.5753,1.74L965.85,414.84c-0.5943.7463-1.2268,1.1586-1.5213,1.5307,0.1534,1.34.4861,1.3024,1.157,1.2256,1.3775,0.1822,2.64-.642,3.4257.2862-1.7415,2.5755-1.7415,2.5755-8.0275,3.9732,0.115,1.005,2.01-.23,2.1632,1.109a7.5262,7.5262,0,0,1-4.24,1.5035c-2.7548-.363-4.2759,1.1691-4.6019,4.2595-2.01.23-3.3106,0.7188-5.3206,0.9488-2.0484-.1054-4.3158.8324-6.6228,1.4363a45.7822,45.7822,0,0,1-8.89,2.3755c-2.0086.23-4.4965,2.2111-6.88,2.1441-1.2624.8228-2.8986,1.35-3.4162,2.7658-2.114,2.2783-4.2006,1.8388-6.5063,2.4425-0.3354.0384-.7463-0.5943-1.79-0.8133-1.2254,1.1584-.44,2.0852-0.2862,3.4257a7.0215,7.0215,0,0,0-1.8567,1.5691,5.7331,5.7331,0,0,1-2.307.6039c-2.0086.23-3.7229,0.0863-5.5781,1.6566a10.3828,10.3828,0,0,1-3.312.7189c-0.9654.449-1.3008,0.4874-2.2674,0.9378a6.57,6.57,0,0,0-1.99,6.3352c1.1679,4.2774.6612,8.7465,0.8255,13.1387-0.182,1.3788-.3245,3.0916-0.5066,4.4691-1.4348,5.255-2.2372,10.0977-3.3751,14.9775a4.5078,4.5078,0,0,0-.1438,1.7129c0.3068,2.6809-.4682,4.8045-0.8311,7.5606a21.7984,21.7984,0,0,0-1.2049,7.2636c0.2684,2.3454-.879,4.1732-1.6157,6.6323a11.3186,11.3186,0,0,0,.1739,7.4456c-0.7749,2.125-2.2592,3.9913-1.617,6.6324,0.8612,1.5979.0095,3.052-.545,4.1336-0.6983,2.7945-2.1044,5.3316-3.1368,8.1644a1.239,1.239,0,0,1-.22,1.0434c0.4121,0.6311,1.1583,1.224,1.57,1.8552a14.7061,14.7061,0,0,0-1.072,2.4988c-1.8183,1.9046-2.22,4.3253-2.6974,6.0764-0.3629,2.7561-1.176,4.5471-1.32,6.26a19.8687,19.8687,0,0,0-.133,4.7647,23.8353,23.8353,0,0,1,1.1119,9.7144,27.9434,27.9434,0,0,0-.9079,6.89,23.1566,23.1566,0,0,1-.9571,3.5025,1.7907,1.7907,0,0,1,.7859.9282c-0.2588.7079-.4408,2.0868-0.6983,2.7945a31.4,31.4,0,0,0-3.1657,10.8809c0.0384,0.3354.1534,1.34-.182,1.3788-0.89,1.12-.9954,3.1684-1.1762,4.5457-0.5559,1.0818-1.072,2.4988-2.4111,2.6521-0.7079-.2588-1.9333.9-1.8567,1.5691,0.2683,2.3441-.6217,3.4641-1.8073,4.9578-0.89,1.12-1.8183,1.9046-2.9767.6792-0.5927.7475-.89,1.12-1.187,1.4939-0.5163,1.4157-1.109,2.1632-2.4481,2.3165-1.6759.1918-3.1971,1.7225-4.01,3.5121-1.8169,1.9044-2.5535,4.3649-3.2136,7.4935-0.6983,2.7945-1.291,3.5421-4.6415,3.9255a13.2072,13.2072,0,0,0-3.167-.9955c-1.8183,1.9046-1.3966,5.5891-3.4724,8.2014-1.1583-1.224-1.0529-3.2724-2.6616-5.463-3.13-.66-3.7708-3.3012-4.4513-6.2777a54.559,54.559,0,0,1-.7871-12.8033,128.0186,128.0186,0,0,1,2.8013-20.0026c1.0229-5.8848,2.7918-11.178,3.8148-17.0627,0.5066-4.4691,1.387-8.6424,2.2277-13.15,0.8983-9.9431,1.8348-19.5521,3.3643-29.9059a51.4513,51.4513,0,0,1,2.0551-8.7189c-0.0384-.3354.2588-0.7079,0.22-1.0434,0.2862-3.4257,1.5774-6.9664,1.8649-10.3936,2.8507-4.7373,3.0219-9.168,4.1214-14.3832,1.3582-5.9245,3.7216-11.9627,5.3755-18.2609,1.55-4.2486,2.7262-8.7943,4.2377-13.38a3.3333,3.3333,0,0,0,.0276-2.7164c-3.6845.4217-6.9953,1.1391-9.8172,3.1586-1.9333.9-2.9,1.35-4.6511,0.8722-1.7129-.1438-4.0966-0.2094-5.9519,1.36-0.9284.7846-1.9716,0.5655-3.312,0.7189a96.1879,96.1879,0,0,0-10.5742-.4862,24.4653,24.4653,0,0,1-9.7624-2.2769c-2.6123-2.0758-5.0714-2.8125-7.981-4.5157-2.125-.7749-3.4365-3.3381-4.04-5.6451-1.3117-2.5645-1.9908-5.5412-3.3024-8.1043a4.798,4.798,0,0,0-.9-1.9333c-0.823-1.2638-1.943-2.1538-2.3933-3.119a3.1722,3.1722,0,0,1-.6805-2.9766,8.36,8.36,0,0,0-.01-3.0534,44.5611,44.5611,0,0,1,.41-11.2438c0.6311-.4121.9282-0.7859,1.5595-1.1966,1.9332-.901,2.2686-0.9393,3.5421,1.291a2.0273,2.0273,0,0,0,.4874,1.3008c1.79,0.8133,2.3551,2.7849,2.5851,4.7949a7.4052,7.4052,0,0,1,1.1966,1.5595c1.5211-1.5321-.7956-3.9815,2.5153-4.699,1.0816,0.5545.1533,1.3391,0.23,2.01s-0.5163,1.4157.5271,1.6361a20.4359,20.4359,0,0,0,1.9606-3.6187c0.7477,0.5941,2.125.7749,3.5422,1.2924a14.6868,14.6868,0,0,1-1.0721,2.4975,6.2377,6.2377,0,0,0-2.4207-.4012l0.0766,0.67,0.3723,0.2958c4.068,2.9287,4.4034,2.89,6.2874-1.3979,0.3354-.0384.2972-0.3725,0.6327-0.4109,1.6361-.5271,1.7894.812,2.9464,2.0375a5.7948,5.7948,0,0,0,2.6425-.6423c6.5448-2.1057,12.42-4.1361,18.9661-6.242a29.8632,29.8632,0,0,1,4.9469-1.2445c10.2292-2.5288,20.3831-5.7273,30.2016-8.886,12.5348-3.1325,24.8521-5.2206,37.4637-7.6822,1.9717-.5641,4.6512-0.8708,6.5846-1.77,1.3391-.1533,2.229-1.2733,3.234-1.3883,1.6745-.1917,2.7561.3629,4.0966,0.2094,0.67-.0766,1.6361-0.5271,2.3057-0.6037a41.8548,41.8548,0,0,0,15.8074-4.184c1.0063-.1152,2.307-0.6039,2.9779-0.6807a0.3307,0.3307,0,0,1,.3738.2971,7.5739,7.5739,0,0,0-1.4856,1.8665C963.7225,402.1887,969.9319,400.1213,976.4109,400.3979Z"/><path class="cls-2" d="M146.501,465.8182a129.6447,129.6447,0,0,1-44.3873-7.8508l-3.9625-1.44,11.9354-32.8485,3.9625,1.44A95.0721,95.0721,0,1,0,57.1706,303.316l-1.44,3.9625L22.8836,295.343l1.44-3.9625a129.8806,129.8806,0,0,1,166.5855-77.79c67.3756,24.4789,102.2719,99.21,77.7917,166.5855a130.4213,130.4213,0,0,1-122.1954,85.6425H146.501Z"/><path class="cls-2" d="M146.5207,209.9554a125.823,125.823,0,1,1-42.9666,244.0492l9.0556-24.9226A99.2887,99.2887,0,1,0,53.208,301.8765l-24.9227-9.0556a125.8365,125.8365,0,0,1,118.2355-82.8655m0-8.4328A134.6491,134.6491,0,0,0,20.3595,289.941l-2.88,7.9258,7.9258,2.88,24.9228,9.0556,7.9258,2.88,2.88-7.9258a90.9064,90.9064,0,1,1,54.3558,116.4l-7.9258-2.88-2.88,7.9258-9.0556,24.9227-2.88,7.9258,7.9258,2.88a134.1,134.1,0,0,0,171.9893-80.3148c25.2747-69.5605-10.7545-146.7146-80.3149-171.9893a133.8209,133.8209,0,0,0-45.8281-8.1036h0Z"/><path class="cls-1" d="M189.469,217.552A125.7887,125.7887,0,0,0,28.2853,292.8209L40.9159,297.41c18.7234-51.53,86.0463-84.9,143.9045-60.304,50.4565,21.4491,73.7182,81.0438,54.9948,132.574A99.2717,99.2717,0,0,1,112.61,429.0819l-5.6438,15.5327c65.2947,23.7248,133.07-9.6323,156.7944-74.9268S254.7637,241.2768,189.469,217.552Z"/><path class="cls-1" d="M40.9354,334.1091a36.6991,36.6991,0,1,1,36.68-36.7186A36.7407,36.7407,0,0,1,40.9354,334.1091Z"/><path class="cls-2" d="M40.8978,264.9273a32.4828,32.4828,0,1,1-32.465,32.5006,32.4828,32.4828,0,0,1,32.465-32.5006m-0.0046-8.4328a40.9156,40.9156,0,1,0,40.938,40.8931,40.962,40.962,0,0,0-40.938-40.8931h0Z"/><path class="cls-2" d="M35.6739,315.7287c-14.4034.0079-26.9856-9.2641-26.9927-22.3487-1.0433,3.1877-5.4988,6.5858-5.4969,10.1223a32.4828,32.4828,0,1,0,63.3314-10.154A32.4813,32.4813,0,0,1,35.6739,315.7287Z"/><path class="cls-1" d="M108.1337,478.1545a36.6991,36.6991,0,1,1,36.68-36.7186A36.7407,36.7407,0,0,1,108.1337,478.1545Z"/><path class="cls-2" d="M108.0961,408.9726a32.4828,32.4828,0,1,1-32.465,32.5006,32.4828,32.4828,0,0,1,32.465-32.5006m-0.0046-8.4328a40.9156,40.9156,0,1,0,40.938,40.8931,40.962,40.962,0,0,0-40.938-40.8931h0Z"/><path class="cls-2" d="M102.8722,459.7741c-14.4034.0079-26.9856-9.2641-26.9927-22.3487-1.0433,3.1877-5.4988,6.5858-5.4969,10.1223a32.4828,32.4828,0,1,0,63.3314-10.154A32.4813,32.4813,0,0,1,102.8722,459.7741Z"/><path class="cls-2" d="M148.529,445.7128s31.7237,4.6719,66.5088-18.3426c0,0-23.712,27.1607-67.46,35.5407l-3.6919-6.026Z"/><path class="cls-2" d="M68.527,271.315s14.1093-28.7949,52.7737-44.4387c0,0-35.8132,4.1688-67.4885,35.4857l2.8771,6.4549Z"/><path class="cls-1" d="M28.2978,207.2934a23.1688,23.1688,0,1,1,23.1566-23.1811A23.1951,23.1951,0,0,1,28.2978,207.2934Z"/><path class="cls-2" d="M28.274,163.6176A20.507,20.507,0,1,1,7.7783,184.1359,20.507,20.507,0,0,1,28.274,163.6176m-0.0029-5.3238A25.8308,25.8308,0,1,0,54.1161,184.11a25.86,25.86,0,0,0-25.8449-25.8166h0Z"/><path class="cls-2" d="M24.9761,195.69c-9.0931.005-17.0365-5.8486-17.041-14.1091-0.6586,2.0125-3.4715,4.1577-3.47,6.39a20.507,20.507,0,1,0,39.9823-6.41A20.5061,20.5061,0,0,1,24.9761,195.69Z"/><path class="cls-1" d="M167.5628,555.0758a23.1688,23.1688,0,1,1,23.1566-23.1811A23.1951,23.1951,0,0,1,167.5628,555.0758Z"/><path class="cls-2" d="M167.5391,511.4a20.507,20.507,0,1,1-20.4958,20.5183A20.507,20.507,0,0,1,167.5391,511.4m-0.0029-5.3238a25.8308,25.8308,0,1,0,25.8449,25.8166,25.86,25.86,0,0,0-25.8449-25.8166h0Z"/><path class="cls-2" d="M164.2411,543.4719c-9.0931.005-17.0365-5.8486-17.041-14.1091-0.6586,2.0125-3.4715,4.1577-3.47,6.39a20.507,20.507,0,1,0,39.9823-6.41A20.5061,20.5061,0,0,1,164.2411,543.4719Z"/><path class="cls-1" d="M154.9393,404.2838c-13.2545,4.6039-18.3223-1.01-20.2394-6.529L96.9953,289.2038c-3.6721-10.5719,6.1193-13.9729,11.9693-16.0049l0.7909-.2747c5.8487-2.0315,15.64-5.4325,19.3122,5.1395l37.7045,108.5511C168.6893,392.1341,168.1924,399.68,154.9393,404.2838Z"/><path class="cls-2" d="M111.1432,276.9064c6.4718-2.248,11.6758-3.9822,13.9415,2.5408l37.7045,108.551c2.3121,6.6567-2.5772,9.9908-9.2339,12.3029s-12.56,2.7268-14.8722-3.93L100.9786,287.82c-2.2656-6.5226,2.8933-8.3883,9.3646-10.636l0.4-.1389,0.4-.1389m-2.7669-7.966-0.2.07-0.2.0694-0.2.0694-0.2.0695c-3.7484,1.302-7.6244,2.6483-10.6931,5.29-4.6259,3.982-6.0367,9.8426-3.8705,16.0791l37.7045,108.551c1.68,4.8355,7.5367,15.4048,25.6051,9.1288s16.1125-18.2,14.4329-23.0358L133.0506,276.68c-2.1663-6.2367-6.9063-9.961-13.0044-10.2179-4.045-.17-7.9213,1.176-11.67,2.478h0Z"/><path class="cls-2" d="M122.555,275.7773a33.7687,33.7687,0,0,0-16.9961,12.0638s11.369-9.0324,19.2953-9.0578l3.7-3.2689Z"/><path class="cls-2" d="M102.5341,294.76a33.7687,33.7687,0,0,1,17.7548-10.9166s-12.7623,6.9254-15.8888,14.209l-4.4565,2.1249Z"/><path class="cls-2" d="M125.7742,285.0454a33.7687,33.7687,0,0,0-16.9961,12.0638s11.369-9.0324,19.2953-9.0578l3.7-3.2689Z"/><path class="cls-2" d="M158.3081,378.71a33.7687,33.7687,0,0,0-16.9961,12.0638s11.369-9.0324,19.2953-9.0578l3.7-3.2689Z"/><path class="cls-2" d="M138.2872,397.6934a33.7687,33.7687,0,0,1,17.7548-10.9166s-12.7623,6.9254-15.8888,14.209l-4.4565,2.1249Z"/><path class="cls-2" d="M161.5273,387.9783a33.7687,33.7687,0,0,0-16.9961,12.0638s11.369-9.0324,19.2953-9.0578l3.7-3.2689Z"/><path class="cls-2" d="M160.5111,396.7416s-13.2868.9969-31.9092-45.032c0,0,17.2878,47.0257,12.9949,48.83l0.884,4.2164h10.9869L161.63,400.54Z"/><path class="cls-1" d="M332.365,364.5672c-13.9252,1.7108-17.698-4.8436-18.41-10.6429L293.4667,187.157c-1.3647-11.108,8.9178-12.3712,15.0617-13.126l0.8446-.1038c6.1439-.7548,16.4277-2.0182,17.7924,9.09l20.4879,166.7673C348.3657,355.5836,346.2916,362.8563,332.365,364.5672Z"/><path class="cls-2" d="M309.8858,178.1123c6.8-.8354,12.2523-1.4355,13.0943,5.4183l20.488,166.7679c0.8593,6.9942-4.6223,9.2245-11.6164,10.0838h0c-6.9941.8592-12.8525,0.0221-13.7118-6.9721l-20.488-166.7679c-0.842-6.8534,4.5941-7.5914,11.3934-8.4267l0.42-.0516h0l0.42-.0516m-1.0283-8.37-0.2106.0259-0.21.0258-0.21.0258-0.21.0259c-3.9385.4839-8.011,0.9842-11.5668,2.9205-5.36,2.9191-7.9732,8.3515-7.1681,14.9043L309.77,354.4384c0.6242,5.0807,4.1255,16.646,23.11,14.3137s19.5823-14.4012,18.9581-19.4819L331.35,182.5023c-0.805-6.5529-4.6548-11.1915-10.5624-12.7262-3.9184-1.018-7.9912-.5176-11.93-0.0337h0Z"/><path class="cls-2" d="M321.1859,178.6492a33.7687,33.7687,0,0,0-19.1546,8.2162s13.0154-6.4371,20.7695-4.7936l4.3052-2.4169Z"/><path class="cls-2" d="M297.618,192.9931a33.7687,33.7687,0,0,1,19.6548-6.935s-13.9341,4.0841-18.5236,10.5464l-4.804,1.1393Z"/><path class="cls-2" d="M322.3823,188.3872a33.7687,33.7687,0,0,0-19.1546,8.2162s13.0154-6.4371,20.7695-4.7936l4.3052-2.4169Z"/><path class="cls-1" d="M362.8139,355.9684a4.5009,4.5009,0,0,0,.4763-2.4967c-0.7515-6.1175-15.6016-9.327-33.1684-7.1688s-31.1984,8.8667-30.4469,14.9842a4.5009,4.5009,0,0,0,1.0665,2.3072l39.0529,61.441Z"/><path class="cls-2" d="M340.9912,434.7787L297.3052,366.047a8.5492,8.5492,0,0,1-1.8158-4.2521c-0.4227-3.4437,1.0857-8.5467,10.6782-13.2681,6.1626-3.0333,14.4883-5.3089,23.4413-6.4083,17.3308-2.13,36.5763.3527,37.8664,10.8388a8.5576,8.5576,0,0,1-.7329,4.5581Zm-0.0755-84.9507a84.3084,84.3084,0,0,0-10.2788.66c-17.9635,2.207-26.5445,8.36-26.7751,10.3268l0.4392,0.5174,34.2965,53.9592,20.408-61.1334a1.0249,1.0249,0,0,0,.0974-0.2635C358.5608,352.5386,352.3364,349.8279,340.9157,349.8279Z"/><path class="cls-2" d="M335.3411,343.9237s-13.223-1.6389-22.4173-50.4335c0,0,7.69,49.5092,3.1255,50.433l0.0364,4.3079,10.7718,2.1634,8.8329-2.5266Z"/><path class="cls-2" d="M348.362,401.631s-13.0255,2.8055-37.7706-40.2425c0,0,23.56,44.2181,19.5539,46.5929l1.4526,4.0558,8.924,7.7381L349.99,405.24Z"/><path class="cls-1" d="M287.7077,159.401a36.6991,36.6991,0,1,1,36.68-36.7186A36.7407,36.7407,0,0,1,287.7077,159.401Z"/><path class="cls-2" d="M287.67,90.2192a32.4828,32.4828,0,1,1-32.465,32.5006A32.4828,32.4828,0,0,1,287.67,90.2192m-0.0046-8.4328a40.9156,40.9156,0,1,0,40.938,40.8931,40.962,40.962,0,0,0-40.938-40.8931h0Z"/><path class="cls-2" d="M282.4463,141.0206c-14.4034.0079-26.9856-9.2641-26.9927-22.3487-1.0433,3.1877-5.4988,6.5858-5.4969,10.1223a32.4828,32.4828,0,1,0,63.3314-10.154A32.4813,32.4813,0,0,1,282.4463,141.0206Z"/><path class="cls-2" d="M429.3192,294.85a85.0752,85.0752,0,0,1-27.805-10.0921l-2.3986-1.3786,11.4281-19.8845,2.3986,1.3786A62.3881,62.3881,0,1,0,389.9431,179.71l-1.3786,2.3986-19.8836-11.428,1.3786-2.3986a85.3114,85.3114,0,1,1,59.2624,126.5688Z"/><path class="cls-2" d="M458.2528,129.46a82.5674,82.5674,0,1,1-55.36,152.8993l8.6707-15.0867a65.1551,65.1551,0,1,0-24.02-88.9412l-15.0867-8.6707A82.5762,82.5762,0,0,1,458.2528,129.46m0.9532-5.451A88.3592,88.3592,0,0,0,367.66,166.9034l-2.7575,4.7978,4.7978,2.7575,15.0868,8.6707,4.7978,2.7575,2.7574-4.7978a59.6545,59.6545,0,1,1,21.9792,81.386l-4.7978-2.7575-2.7574,4.7978-8.6707,15.0867L395.338,284.4l4.7978,2.7574a88.0786,88.0786,0,1,0,59.07-163.1481h0Z"/><path class="cls-2" d="M443.9,300.2882a88.9951,88.9951,0,0,1-44.4642-11.9121l-6.0171-3.4574,15.5877-27.12,6.0144,3.4574a58.2164,58.2164,0,1,0-21.4593-79.4675l-3.4574,6.0171L362.9831,172.22l3.4574-6.0158a89.777,89.777,0,0,1,93.0074-43.58h0A89.5033,89.5033,0,0,1,443.9,300.2882Zm-46.6437-16.4071,3.58,2.0574A86.6873,86.6873,0,1,0,368.878,167.604l-2.0574,3.5782,22.2458,12.7864,2.0574-3.58a60.95,60.95,0,0,1,83.3037-22.4983,61.0827,61.0827,0,0,1,22.4983,83.3051,60.9519,60.9519,0,0,1-83.3051,22.4983l-3.58-2.0574Zm46.6519,10.8745a83.5047,83.5047,0,0,1-41.715-11.1778l-1.2188-.7,10.07-17.5243,1.2188,0.7a63.7491,63.7491,0,1,0-23.5-87.0219l-0.7,1.2188-17.5243-10.07,0.7-1.2188A83.95,83.95,0,1,1,443.9082,294.7556Zm-39.0907-12.925a81.14,81.14,0,1,0,53.1934-150.9854h0a81.3862,81.3862,0,0,0-83.6235,38.3043l12.6519,7.27a66.5946,66.5946,0,1,1,25.05,92.759Z"/><path class="cls-1" d="M485.1563,139.2253a82.5448,82.5448,0,0,0-112.6987,30.4356l7.6459,4.3941c17.9276-31.1933,65.2177-45.1539,99.8376-22.7152,30.1912,19.5682,38.4916,60.72,20.564,91.9134a65.1439,65.1439,0,0,1-88.9412,24.02l-5.4039,9.4026c39.5255,22.7164,87.1064,8.8148,109.8227-30.7106S524.6818,161.9417,485.1563,139.2253Z"/><path class="cls-1" d="M375.9679,197.78a24.0826,24.0826,0,1,1,27.8605-19.5893A24.11,24.11,0,0,1,375.9679,197.78Z"/><path class="cls-2" d="M383.7634,153.0558a21.3158,21.3158,0,1,1-24.6593,17.3391,21.3158,21.3158,0,0,1,24.6593-17.3391m0.95-5.4515a26.85,26.85,0,1,0,21.8405,31.0611,26.88,26.88,0,0,0-21.8405-31.0611h0Z"/><path class="cls-2" d="M374.6444,185.3039c-9.3114-1.6229-16.3966-9.0387-14.9223-17.4975-1.0347,1.9427-4.2989,3.6356-4.6974,5.9218a21.3158,21.3158,0,1,0,42.0858.5949A21.3148,21.3148,0,0,1,374.6444,185.3039Z"/><path class="cls-1" d="M403.1238,298.4879a24.0826,24.0826,0,1,1,27.8605-19.5893A24.11,24.11,0,0,1,403.1238,298.4879Z"/><path class="cls-2" d="M410.9193,253.7638A21.3158,21.3158,0,1,1,386.26,271.1029a21.3158,21.3158,0,0,1,24.6593-17.3391m0.95-5.4515A26.85,26.85,0,1,0,433.71,279.3733a26.88,26.88,0,0,0-21.8405-31.0611h0Z"/><path class="cls-2" d="M401.8,286.0119c-9.3114-1.6229-16.3966-9.0387-14.9223-17.4975-1.0347,1.9427-4.2989,3.6356-4.6974,5.9218a21.3158,21.3158,0,1,0,42.0858.5949A21.3148,21.3148,0,0,1,401.8,286.0119Z"/><path class="cls-2" d="M432.9027,282.0832s19.9784,6.6057,45.0653-4.3392c0,0-18.3977,14.8767-47.6238,15.3487l-1.7054-4.3126Z"/><path class="cls-2" d="M400.9012,160.3079s12.3752-17.0185,39.1365-22.7605c0,0-23.6212-1.3533-47.6363,15.31l1.13,4.4977Z"/><path class="cls-1" d="M573.599,376.8693a10.13,10.13,0,0,1-6.9957-2.9646l-65.3717-60.6393c-4.1711-3.8678-3.4093-7.903-2.5845-9.9645,0.9923-2.476,2.9441-4.5815,5.0111-6.8091l3.3146,2.627-3.0909-2.8672c2.9331-3.1637,5.9677-6.4357,10.2225-6.4357a9.2261,9.2261,0,0,1,6.3273,2.7505l65.3717,60.6393c3.64,3.375,6.3136,9.1959-1.6209,17.7508C581.8272,373.4956,578.1681,376.8693,573.599,376.8693Z"/><path class="cls-2" d="M514.1047,294.0316a5.1114,5.1114,0,0,1,3.46,1.6257l65.3716,60.6393c4.0088,3.7186,1.8733,7.7838-1.8452,11.7926-2.4283,2.6179-4.9315,4.5644-7.4924,4.5644a6.013,6.013,0,0,1-4.1287-1.84l-65.3716-60.6393c-4.0088-3.7186-.9532-6.93,2.7655-10.9391,2.5736-2.7744,4.7906-5.2036,7.2406-5.2038m0.0005-8.4328h-0.0009c-6.095.0007-10.0966,4.3155-13.3121,7.7825l-0.11.1192-0.1113.12c-2.2388,2.4131-4.5538,4.9081-5.8368,8.1115-2.0891,5.2165-.766,10.5471,3.63,14.6251l65.3716,60.6393a14.322,14.322,0,0,0,9.8636,4.09c6.2191,0,10.7829-4.1446,13.6748-7.2622,11.5688-12.4718,3.9947-21.301,1.3977-23.71L523.3,289.4749a13.3724,13.3724,0,0,0-9.1947-3.876h0Z"/><path class="cls-2" d="M514.495,294.0644a26.2027,26.2027,0,0,0-7.2506,14.4561s4.4994-10.33,9.9208-13.234l1.3443-3.5874Z"/><path class="cls-2" d="M507.6923,314.363a26.2027,26.2027,0,0,1,8.1883-13.9464s-6.2215,9.3934-5.7106,15.5226l-2.2794,3.0791Z"/><path class="cls-2" d="M520.0765,299.2418a26.2027,26.2027,0,0,0-7.2506,14.4561s4.4994-10.33,9.9208-13.234l1.3443-3.5874Z"/><path class="cls-2" d="M576.4834,351.5653a26.2027,26.2027,0,0,0-7.2506,14.4561s4.4994-10.33,9.9208-13.234l1.3443-3.5874Z"/><path class="cls-2" d="M569.6807,371.8639a26.2027,26.2027,0,0,1,8.1883-13.9464s-6.2215,9.3934-5.7106,15.5226l-2.2794,3.0791Z"/><path class="cls-2" d="M582.0648,356.7427a26.2027,26.2027,0,0,0-7.2506,14.4561s4.4994-10.33,9.9208-13.234l1.3443-3.5874Z"/><path class="cls-2" d="M583.9573,364.3509s-8.5909,5.6475-44.3831-24.2456c0,0,35.5787,31.2122,34.1245,34.3254l2.8111,3.0559,6.25-4.2462,2.3352-6.5522Z"/><path class="cls-2" d="M446.3187,299.4882a97.68,97.68,0,0,0,19.7746-2.7609l0.3643,11.0222S462.1129,300.5931,446.3187,299.4882Z"/><path class="cls-1" d="M591.5093,442.9442a23.1688,23.1688,0,1,1,23.1566-23.1811A23.1951,23.1951,0,0,1,591.5093,442.9442Z"/><path class="cls-2" d="M591.4855,399.2684A20.507,20.507,0,1,1,570.99,419.7867a20.507,20.507,0,0,1,20.4958-20.5183m-0.0029-5.3238a25.8308,25.8308,0,1,0,25.8449,25.8166,25.86,25.86,0,0,0-25.8449-25.8166h0Z"/><path class="cls-2" d="M588.1876,431.34c-9.0931.005-17.0365-5.8486-17.041-14.1091-0.6586,2.0125-3.4715,4.1577-3.47,6.39a20.507,20.507,0,1,0,39.9823-6.41A20.5061,20.5061,0,0,1,588.1876,431.34Z"/><path class="cls-1" d="M466.1316,109.1716A23.1688,23.1688,0,1,1,489.2882,85.99,23.1951,23.1951,0,0,1,466.1316,109.1716Z"/><path class="cls-2" d="M466.1079,65.4958a20.507,20.507,0,1,1-20.4958,20.5183,20.507,20.507,0,0,1,20.4958-20.5183M466.105,60.172A25.8308,25.8308,0,1,0,491.95,85.9886,25.86,25.86,0,0,0,466.105,60.172h0Z"/><path class="cls-2" d="M462.81,97.5677c-9.0931.005-17.0365-5.8486-17.041-14.1091-0.6586,2.0125-3.4715,4.1577-3.47,6.39a20.507,20.507,0,1,0,39.9823-6.41A20.5061,20.5061,0,0,1,462.81,97.5677Z"/><path class="cls-2" d="M923.4349,344.3695a113.0665,113.0665,0,0,0,28.1244-27.4675l2.1476-2.9845-24.7407-17.8033-2.1476,2.9844A82.9149,82.9149,0,1,1,907.95,183.388l2.9845,2.1476,17.8023-24.74-2.9844-2.1476a113.38,113.38,0,1,0-2.32,185.7236Z"/><path class="cls-2" d="M797.6959,160.0241a109.7453,109.7453,0,0,1,125.91,1.6085l-13.5077,18.7712A86.6363,86.6363,0,1,0,929.803,301.2468l18.7712,13.5076a109.7037,109.7037,0,1,1-150.8783-154.73m-4.1437-6.076A117.0879,117.0879,0,1,0,954.5437,319.05l4.2956-5.97-5.97-4.2956-18.7712-13.5077-5.97-4.2956-4.2956,5.97a79.2378,79.2378,0,1,1-18.0314-110.5779l5.97,4.2956,4.2956-5.97,13.5078-18.7713,4.2956-5.97-5.97-4.2956a117.431,117.431,0,0,0-134.3488-1.7149h0Z"/><path class="cls-2" d="M859.58,369.0775a118.469,118.469,0,0,1-66.82-216.2913h0a118.8417,118.8417,0,0,1,135.9618,1.7362l7.11,5.1168-23.74,32.9913-7.11-5.1168a77.876,77.876,0,1,0,17.711,108.6171l5.1168-7.111,32.9913,23.74-5.1168,7.111A117.9684,117.9684,0,0,1,859.58,369.0775Zm-65.2359-213.969A115.6827,115.6827,0,1,0,953.4026,318.23l3.4752-4.83-28.429-20.4574-3.4752,4.83a80.643,80.643,0,1,1-18.3506-112.54l4.8285,3.4752,20.4574-28.429-4.8285-3.4752a116.0229,116.0229,0,0,0-132.7364-1.6951h0Zm65.2345,206.6191a111.1162,111.1162,0,0,1-62.6747-202.8653h0a111.47,111.47,0,0,1,127.5222,1.6292l1.1406,0.8208-15.1485,21.0531-1.1406-.8208A85.23,85.23,0,1,0,928.663,300.4254l0.8208-1.1406,21.0517,15.15-0.8208,1.1406A110.6326,110.6326,0,0,1,859.5786,361.7277Zm-61.0909-200.543A108.3282,108.3282,0,1,0,946.6046,315.0689L930.1151,303.202A87.9982,87.9982,0,1,1,909.7716,178.451L921.6384,161.96a108.6527,108.6527,0,0,0-123.1507-.7755h0Z"/><path class="cls-1" d="M770.4835,186.6014a109.7036,109.7036,0,0,1,153.1219-24.9688l-6.8457,9.513c-38.8114-27.9284-103.716-18.891-133.3184,27.2608-25.8155,40.2477-13.2927,94.6173,25.5187,122.5458a86.5775,86.5775,0,0,0,120.843-19.7053l11.6989,8.4185c-35.3886,49.1785-100.6129,58.447-149.7912,23.0585S735.0949,235.78,770.4835,186.6014Z"/><path class="cls-2" d="M912.0944,330.88s-20.562,18.9544-56.9342,19.4646c0,0,30.4312,7.9184,66.07-7.54l-0.3009-6.156Z"/><path class="cls-2" d="M887.1322,166.5619s-23.95-14.4377-59.6837-7.6313c0,0,28.22-13.87,66.2379-5.8853l0.9418,6.091Z"/><path class="cls-1" d="M920.3907,140.6774a4.5009,4.5009,0,0,0-1.652-1.9317c-5.2464-3.2348-17.0295,6.356-26.3184,21.4215s-12.5661,29.9007-7.32,33.1355a4.5009,4.5009,0,0,0,2.4679.6085l72.3734,7.8877Z"/><path class="cls-2" d="M968.2972,206.9513l-80.9622-8.8239a8.5671,8.5671,0,0,1-4.447-1.2353c-8.9927-5.5464-3.2227-24.0713,5.943-38.937,4.7338-7.6779,10.2747-14.2948,15.6028-18.632,8.2886-6.7473,13.555-5.9952,16.5183-4.167a8.5684,8.5684,0,0,1,3.1019,3.4217Zm-80.5285-17.2594,63.8167,6.9546-34.9883-54.1281a1.1526,1.1526,0,0,0-.1427-0.2388c-1.7911-.5435-10.9486,4.6981-20.4451,20.1006-9.4045,15.2514-10.0427,25.7389-8.7031,27.3145a0.8393,0.8393,0,0,1,.1729,0h0.0329Z"/><path class="cls-2" d="M947.0186,180.4881s-5.9464,11.9236-55.0192,4.3539c0,0,49.2459,9.2266,48.598,13.838l4.0744,1.3994,11.6172-2.1343-5.4348-16.4736Z"/><path class="cls-1" d="M900.729,299.1341a4.5009,4.5009,0,0,0-2.3559.9542c-4.7315,3.95.6276,18.1661,11.97,31.7531s24.3725,21.4,29.104,17.45a4.5009,4.5009,0,0,0,1.36-2.1475l30.4316-66.1366Z"/><path class="cls-2" d="M936.26,354.5411c-2.7766,0-6.3891-.9841-11.0543-3.7827-5.8909-3.5315-12.32-9.2906-18.0994-16.2149C895.9133,321.1368,887.56,303.622,895.67,296.8514a8.5762,8.5762,0,0,1,4.2274-1.857l78.8773-20.2776-34.044,73.9843a8.5576,8.5576,0,0,1-2.5831,3.828A8.9033,8.9033,0,0,1,936.26,354.5411Zm27.4422-67.2439-62.4277,16.0173a1.057,1.057,0,0,0-.2745.0618c-1.0719,1.51.98,11.8682,12.5791,25.7622,11.6005,13.8968,21.44,17.7673,23.2,16.8916l0.1976-.6492Z"/><path class="cls-2" d="M912.488,329.5789s19.9692,10.0725,42.8665-29.339l-23.4728,49.1272L914.299,336.278Z"/><path class="cls-1" d="M1044.437,322.2858a35.4939,35.4939,0,0,1-5.265-.442c-4.7832-.7206-8.1528-1.927-10.6041-3.7964s-5.1826-5.3652-4.274-11.4l37.2818-247.4488c0.64-4.2438,3.0854-9.3057,11.1064-9.3057a49.06,49.06,0,0,1,7.1344.7384l-0.2059,4.2329,0.6259-4.17c3.7607,0.5655,7.3128,1.0994,10.1072,2.686,2.7066,1.5372,5.74,4.6734,4.8038,10.8772l-37.28,247.4488C1057.2715,315.6579,1054.7323,322.2858,1044.437,322.2858Z"/><path class="cls-2" d="M1072.6837,54.1091a47.9206,47.9206,0,0,1,6.7169.7227c6.9683,1.05,12.6279,1.8294,11.5781,8.7976l-37.2814,247.449c-0.8057,5.3478-4.4562,6.99-9.26,6.99a31.504,31.504,0,0,1-4.6371-.3949c-6.9683-1.05-12.3868-3.4289-11.337-10.3971l37.2814-247.4491c0.6806-4.5171,3.29-5.7183,6.9391-5.7184m0.0005-8.4328h-0.0005c-8.35,0-14.0613,4.8209-15.2779,12.8949L1020.1244,306.02c-0.7624,5.0618-.4943,17.1424,18.4194,19.992a39.4937,39.4937,0,0,0,5.8934.489c9.6835,0,16.2623-5.296,17.5988-14.1666l37.2814-247.449c0.9928-6.59-1.5192-12.12-6.8919-15.171-3.474-1.9728-7.5844-2.5917-11.5594-3.19l-0.2093-.0315-0.2126-.032a52.966,52.966,0,0,0-7.76-.7848h0Z"/><path class="cls-2" d="M1090.404,59.4856a33.7687,33.7687,0,0,0-20.6571,2.7727s14.2657-2.7069,21.294.9578l4.796-1.1725Z"/><path class="cls-2" d="M1063.8506,66.9763a33.7687,33.7687,0,0,1,20.795-1.4042s-14.519.1936-20.6748,5.1868l-4.9335-.1921Z"/><path class="cls-2" d="M1088.9423,69.1873a33.7687,33.7687,0,0,0-20.6571,2.7727s14.2657-2.7069,21.294.9578l4.796-1.1725Z"/><path class="cls-2" d="M1054.0511,300.7722a33.7687,33.7687,0,0,0-20.6571,2.7727s14.2657-2.7069,21.294.9578l4.796-1.1725Z"/><path class="cls-2" d="M1027.4976,308.2629a33.7687,33.7687,0,0,1,20.795-1.4042s-14.519.1936-20.6748,5.1868l-4.9335-.1921Z"/><path class="cls-2" d="M1052.5894,310.474a33.7687,33.7687,0,0,0-20.6571,2.7727s14.2657-2.7069,21.294.9578l4.796-1.1725Z"/><path class="cls-1" d="M1165.448,129.978c-0.3321,0-.678-0.0151-1.04-0.0439L979.8765,114.8253c-4.8066-.3939-10.3447-3.224-9.4237-14.4746,0.8661-10.5725,6.2381-12.7919,10.5917-12.7919,0.3418,0,.6945.0137,1.0623,0.0439l184.5271,15.1087c5.5258,0.4529,7.3732,4.0091,7.9826,6.09,0.7247,2.476.5,5.2224,0.2635,8.1308l-4.23-.0316,4.2027,0.3431C1174.4627,122.0064,1173.8121,129.978,1165.448,129.978Z"/><path class="cls-2" d="M981.0434,91.775c0.2314,0,.47.01,0.7182,0.03l184.5291,15.1083c5.1964,0.4255,4.7982,4.6335,4.3727,9.83h0c-0.4056,4.9537-.69,9.0173-5.2171,9.0173q-0.3325,0-.6962-0.03L980.221,110.6229c-5.1964-.4254-5.9909-4.7312-5.5654-9.9276h0c0.4051-4.9484,1.7712-8.92,6.3879-8.92m0.0015-8.4327h-0.0009c-4.0378,0-13.5622,1.6251-14.7932,16.6651-0.368,4.4929.0705,7.9505,1.38,10.881a13.8024,13.8024,0,0,0,11.9018,8.1391l184.5291,15.1083c0.4824,0.04.9434,0.0577,1.3844,0.0577,12.2509,0,13.2376-12.0643,13.609-16.6059l0.0127-.1559,0.0127-.156c0.2594-3.1637.5276-6.4351-.4186-9.6622-1.5559-5.3056-5.8142-8.6242-11.6832-9.1047L982.45,83.4006c-0.4855-.04-0.9522-0.0583-1.4048-0.0583h0Z"/><path class="cls-2" d="M1167.78,125.0992a24.9845,24.9845,0,0,0-3.0828-15.1094s2.7137,10.3947.3611,15.7666l1.1061,3.4814Z"/><path class="cls-2" d="M1160.9188,105.874a24.9845,24.9845,0,0,1,2.08,15.28s-0.8712-10.7077-4.8657-15.0013l-0.1056-3.6514Z"/><path class="cls-2" d="M1160.5452,124.5069a24.9845,24.9845,0,0,0-3.0828-15.1094s2.7137,10.3947.3611,15.7666l1.1061,3.4814Z"/><path class="cls-2" d="M987.8465,110.3672a24.9845,24.9845,0,0,0-3.0828-15.1094s2.7137,10.3947.3611,15.7666l1.1061,3.4814Z"/><path class="cls-2" d="M980.9852,91.142a24.9845,24.9845,0,0,1,2.08,15.28s-0.8712-10.7077-4.8657-15.0013l-0.1056-3.6514Z"/><path class="cls-2" d="M980.6116,109.7749a24.9845,24.9845,0,0,0-3.0828-15.1094s2.7137,10.3947.3611,15.7666l1.1061,3.4814Z"/><path class="cls-1" d="M970.0606,123.5655a23.1688,23.1688,0,1,1,24.9709-21.2142A23.1951,23.1951,0,0,1,970.0606,123.5655Z"/><path class="cls-2" d="M973.601,80.0334a20.507,20.507,0,1,1-22.1017,18.7773A20.507,20.507,0,0,1,973.601,80.0334m0.4315-5.3062a25.8308,25.8308,0,1,0,23.6521,27.8395,25.86,25.86,0,0,0-23.6521-27.8395h0Z"/><path class="cls-2" d="M971.9756,127.71q-1.1179,0-2.2441-.0906a27.2367,27.2367,0,1,1,4.4154-54.2941h0A27.2381,27.2381,0,0,1,971.9756,127.71Zm-0.0535-51.6644a24.4475,24.4475,0,1,0,1.997.0824C973.2493,76.0734,972.5822,76.0459,971.9221,76.0459Zm0.0535,46.34q-0.9038,0-1.8131-.0727A21.89,21.89,0,1,1,971.9756,122.3863ZM971.9248,81.37a19.1019,19.1019,0,0,0-1.5345,38.141,19.1011,19.1011,0,1,0,3.0964-38.0764C972.9624,81.3919,972.4409,81.37,971.9248,81.37Z"/><path class="cls-2" d="M967.6969,111.7292c-9.0632-.737-16.5024-7.2193-15.8329-15.4527-0.8207,1.952-3.7992,3.8606-3.98,6.0859a20.507,20.507,0,1,0,40.3721-3.1264A20.5061,20.5061,0,0,1,967.6969,111.7292Z"/><path class="cls-2" d="M1149.211,107.1988s-4.4411,12.5622-54.0716,11.06c0,0,50.0052,3.1249,49.9271,7.7809l4.2152,0.89,11.2683-3.5413-7.4117-15.6838Z"/><path class="cls-1" d="M1172.7058,140.157a23.1688,23.1688,0,1,1,24.9709-21.2142A23.1951,23.1951,0,0,1,1172.7058,140.157Z"/><path class="cls-2" d="M1176.2461,96.6249a20.507,20.507,0,1,1-22.1017,18.7773,20.507,20.507,0,0,1,22.1017-18.7773m0.4315-5.3062a25.8308,25.8308,0,1,0,23.6521,27.8395,25.86,25.86,0,0,0-23.6521-27.8395h0Z"/><path class="cls-2" d="M1174.6213,144.3027c-0.7467,0-1.4933-.03-2.2454-0.0906a27.2368,27.2368,0,0,1,4.4168-54.2941H1176.79A27.238,27.238,0,0,1,1174.6213,144.3027ZM1174.55,92.6383a24.44,24.44,0,1,0,2.0149.0824h-0.0027C1175.8895,92.6657,1175.2169,92.6383,1174.55,92.6383Zm0.0686,46.34q-0.9017,0-1.809-.0727A21.8823,21.8823,0,1,1,1174.6185,138.9787Zm-0.0494-41.0164a19.1018,19.1018,0,0,0-1.5317,38.141,19.1011,19.1011,0,0,0,3.0964-38.0764h-0.0027C1175.6095,97.9843,1175.0879,97.9623,1174.5691,97.9623Z"/><path class="cls-2" d="M1170.3421,128.3208c-9.0632-.737-16.5024-7.2193-15.8329-15.4527-0.8207,1.952-3.7992,3.8606-3.98,6.0859a20.507,20.507,0,1,0,40.3721-3.1264A20.5061,20.5061,0,0,1,1170.3421,128.3208Z"/><path class="cls-2" d="M1051.3035,290.1385s-12.3936-4.892-9.1-54.4359c0,0-4.9292,49.86-9.5794,49.6135l-1.0415,4.18,9.8891,4.7871,9.1841-.2386Z"/><path class="cls-1" d="M1072.89,307.9219a4.5009,4.5009,0,0,0,1.13-2.2765c0.922-6.0941-12.5171-13.18-30.0169-15.828s-32.4336.1464-33.3556,6.24a4.5009,4.5009,0,0,0,.4065,2.509l21.0833,69.6823Z"/><path class="cls-2" d="M1030.67,377.9563l-23.584-77.95a8.5534,8.5534,0,0,1-.608-4.5746c1.5811-10.45,20.887-12.3952,38.1574-9.7833,8.9186,1.3492,17.1757,3.8568,23.2532,7.06,9.4567,4.9864,10.8209,10.1306,10.3021,13.5674a8.5677,8.5677,0,0,1-1.9325,4.193Zm0.5476-84.9411c-10.2184,0-15.8526,2.3511-16.4112,3.7154l0.2841,0.6149,18.5167,61.1979,36.1014-53.3883a1.079,1.079,0,0,0,.1674-0.2292c-0.2-1.8419-8.6084-8.2324-26.5034-10.94A81.4923,81.4923,0,0,0,1031.2177,293.0152Z"/><path class="cls-2" d="M1046.6864,348.0129s-13.3-.8023-25.5514-48.92c0,0,10.7947,48.9261,6.2979,50.1358l0.3079,4.297,6.5131,9.8537,13.03-11.4517Z"/><path class="cls-2" d="M1055.8536,125.2249s12.088,0.0632,26.469.8855l-2.3176,14.6651S1076.4546,130.697,1055.8536,125.2249Z"/><path class="cls-1" d="M1076.593,77.342a36.6991,36.6991,0,1,1,40.912-31.9352A36.7407,36.7407,0,0,1,1076.593,77.342Z"/><path class="cls-2" d="M1085.0532,8.6793a32.4828,32.4828,0,1,1-36.2112,28.2669,32.4828,32.4828,0,0,1,36.2112-28.2669m1.0312-8.3695A40.9156,40.9156,0,1,0,1121.69,45.9217,40.962,40.962,0,0,0,1086.0843.31h0Z"/><path class="cls-2" d="M1073.629,58.4545c-14.2953-1.7613-25.6433-12.5086-24.0433-25.4949-1.4269,3.0355-6.2661,5.8605-6.6986,9.37a32.4828,32.4828,0,1,0,64.0991-2.2982A32.4813,32.4813,0,0,1,1073.629,58.4545Z"/><path class="cls-2" d="M592.3213,169.4166A24.9845,24.9845,0,0,0,587.406,154.8s3.97,9.9827,2.2949,15.6028l1.5253,3.3192Z"/><path class="cls-2" d="M583.1506,151.18a24.9845,24.9845,0,0,1,3.9406,14.9086s-2.18-10.52-6.6715-14.29l-0.5533-3.6107Z"/><path class="cls-2" d="M585.0685,169.7173a24.9845,24.9845,0,0,0-4.9153-14.6163s3.97,9.9827,2.2949,15.6028l1.5253,3.3192Z"/><path class="cls-1" d="M590.1178,303.6645a10.0558,10.0558,0,0,1-5.3556-1.448,9.5617,9.5617,0,0,1-5.276-8.5824l-6.0254-135.83c-0.1729-4.1038,1.6113-7.1495,5.0454-8.6482a10.3033,10.3033,0,0,1,5.3226-1.6251l96.31-3.9062,0.5435-.0124c8.8363,0,9.1767,8.2063,9.38,13.1089l-4.2.4872,4.2136-.1757c0.1208,2.9166.2361,5.6713-.5874,8.1171-0.6945,2.0533-2.6846,5.534-8.2214,5.7646l-79.7407,3.235,4.5046,101.5445,79.7846-3.235,0.5435-.0124c8.8363,0,9.1767,8.2049,9.38,13.1076l-4.2.4886,4.2136-.1757c0.1208,2.9166.2361,5.6713-.5874,8.1171-0.6945,2.0533-2.6846,5.534-8.2241,5.7632L595.97,303.4366c-0.7741.0933-1.57,0.1633-2.4019,0.1963-0.409.0178-.8153,0.0261-1.2133,0.0261-0.42,0-.8317-0.01-1.2353-0.0247Z"/><path class="cls-2" d="M680.684,147.8294c4.84,0,4.9617,4.1452,5.1723,9.2262,0.2162,5.2092.4447,9.43-4.7645,9.6461l-83.9672,3.4049,4.88,109.97,83.9819-3.4056c0.1282-.0053.2525-0.0079,0.3745-0.0079,4.84,0,4.9618,4.1451,5.1725,9.2262,0.216,5.2094.4445,9.43-4.7647,9.6461l-91.1429,3.6959c-0.7173.09-1.4568,0.1578-2.2309,0.19h0q-0.524.0217-1.0294,0.021c-0.4233,0-.8379-0.01-1.2462-0.0281l-0.6573.0266q-0.1781.0073-.3493,0.0073a5.77,5.77,0,0,1-3.291-.918,5.3227,5.3227,0,0,1-3.1223-5.0694l-6.0285-135.8433c-0.1136-2.7378,1.0189-4.0532,2.8571-4.7328a5.9793,5.9793,0,0,1,3.4744-1.1423l96.3068-3.9052c0.1282-.0053.2525-0.0079,0.3745-0.0079m0.0007-8.4328h-0.0034c-0.2347,0-.4739.005-0.72,0.0151l-96.3,3.9048a14.5322,14.5322,0,0,0-7.1809,2.1288c-4.7865,2.2488-7.47,6.8454-7.2346,12.5217l6.0295,135.8676a13.7677,13.7677,0,0,0,7.4267,12.0643,14.1942,14.1942,0,0,0,7.4111,1.9821q0.342,0,.6971-0.0146l0.3174-.0128q0.6107,0.0207,1.2384.0214,0.6776,0,1.378-.0282c0.8383-.0347,1.6784-0.1014,2.5577-0.2031l90.8092-3.6824c5.8914-.2443,10.28-3.3888,12.0478-8.6275,1.0754-3.1865.9391-6.466,0.8072-9.6376l-0.0063-.1562-0.0065-.1545c-0.1268-3.067-.258-6.2384-1.4768-9.2391-2.0433-5.0307-6.4591-7.916-12.1147-7.916-0.2356,0-.4757.0049-0.7231,0.0151L610.0569,271.31l-4.1325-93.121,75.5092-3.0619c5.8914-.2443,10.28-3.389,12.0478-8.628,1.0754-3.1866.9388-6.4661,0.807-9.6377l-0.0065-.1558-0.0065-.1542c-0.1268-3.067-.258-6.2384-1.4768-9.239-2.0432-5.03-6.4586-7.9158-12.1139-7.9162h0Z"/><path class="cls-2" d="M684.0212,165.7024a24.9845,24.9845,0,0,0-4.9153-14.6163s3.97,9.9827,2.2949,15.6028l1.5253,3.3192Z"/><path class="cls-2" d="M674.8505,147.4655a24.9845,24.9845,0,0,1,3.9406,14.9086s-2.18-10.52-6.6715-14.29l-0.5533-3.6107Z"/><path class="cls-2" d="M676.7684,166.0031a24.9845,24.9845,0,0,0-4.9153-14.6163s3.97,9.9827,2.2949,15.6028l1.5253,3.3192Z"/><path class="cls-1" d="M664.3469,133.4571a3.4,3.4,0,0,0-1.8545-.4968c-4.65.2281-7.8885,11.2376-7.2336,24.59s4.9553,23.9926,9.6053,23.7645a3.4,3.4,0,0,0,1.797-.6759l48.4434-26.024Z"/><path class="cls-2" d="M664.69,185.5359c-8.4822.0014-12.9607-13.8583-13.6428-27.78a58.339,58.339,0,0,1,1.7939-18.6127c2.45-8.3285,6.4893-10.25,9.4457-10.3941a7.5476,7.5476,0,0,1,3.8829.899l58.74,24.4871L668.8491,184.25a7.477,7.477,0,0,1-3.7731,1.2764C664.947,185.5332,664.818,185.5359,664.69,185.5359Zm-1.9-48.16c-1.4288,1.6772-3.88,8.5549-3.3215,19.9688s3.6729,18.0157,5.2595,19.5461l40.57-21.7942Z"/><path class="cls-2" d="M697.9471,146.8677s1.3936,9.9675-32.4031,26.23c0,0,34.6127-15.3043,36.18-12.1555l3.1356-.87,6.3225-6.295-10.4263-7.9361Z"/><path class="cls-2" d="M588.6381,170.5876s4.3385-.3568,9.5234-0.5134l-0.371,5.3338S596.2,171.9039,588.6381,170.5876Z"/><path class="cls-1" d="M674.7162,262.0567a3.4,3.4,0,0,0-1.8545-.4968c-4.65.2281-7.8885,11.2376-7.2336,24.59s4.9553,23.9926,9.6053,23.7645a3.4,3.4,0,0,0,1.797-.6759l48.4434-26.024Z"/><path class="cls-2" d="M675.06,314.1355c-8.4822.0014-12.9607-13.8583-13.6428-27.78a58.339,58.339,0,0,1,1.7939-18.6127c2.45-8.3285,6.4879-10.25,9.4443-10.3941a7.4758,7.4758,0,0,1,3.8842.899l58.74,24.4871-56.0606,30.1145a7.477,7.477,0,0,1-3.7731,1.2764C675.3164,314.1328,675.1874,314.1355,675.06,314.1355Zm-1.9-48.16c-1.4288,1.6786-3.88,8.5563-3.3215,19.9688s3.6729,18.0157,5.2595,19.5461l40.57-21.7942Z"/><path class="cls-2" d="M708.3164,275.4673s1.3936,9.9675-32.4031,26.23c0,0,34.6127-15.3043,36.18-12.1555l3.1356-.87,6.3225-6.295L711.1254,274.44Z"/><path class="cls-1" d="M652.6471,198.2865a3.4,3.4,0,0,0-1.6443-.9912c-4.5311-1.0692-10.6932,8.6121-13.7635,21.6236s-1.8861,24.4263,2.645,25.4955a3.4,3.4,0,0,0,1.9139-.1516l53.7572-11.5833Z"/><path class="cls-2" d="M640.5546,248.7089a7.138,7.138,0,0,1-1.6374-.1908c-2.8823-.6794-6.5044-3.3023-7.3993-11.9382a64.67,64.67,0,0,1,8.4986-36.0177c4.6624-7.3224,9.0751-8.0457,11.9546-7.37a7.4746,7.4746,0,0,1,3.4821,1.9407l49.6564,39.8L642.9,248.34A7.883,7.883,0,0,1,640.5546,248.7089Zm9.51-47.087c-1.8364,1.2147-6.0967,7.144-8.721,18.2655s-1.4631,18.3314-.3637,20.2392l45.0214-9.701Z"/><path class="cls-2" d="M681.2164,220.4814s-1.4226,9.9634-38.4018,16.225c0,0,37.4979-5.1153,38.1318-1.6554l3.2539,0.0327,7.8191-4.2968L684.2,220.2727Z"/><path class="cls-2" d="M650.9926,154.371s-2.108,9.8412-39.4316,13.5313c0,0,37.7618-2.5106,38.155.9848l3.2439,0.2576,5.5753-3.7207-4.5515-11.0549Z"/><path class="cls-1" d="M616.0356,72.5353a2.6419,2.6419,0,0,0-1.3828.56c-2.7772,2.3184.3684,10.6629,7.0259,18.638s14.3058,12.5608,17.083,10.2424a2.6419,2.6419,0,0,0,.7981-1.2605l17.8623-38.82Z"/><path class="cls-2" d="M636.9394,105.3835c-5.1415,0-12.1413-5.5285-17.4186-11.8476-6.6732-7.9963-11.606-18.4769-6.67-22.5985a5.348,5.348,0,0,1,2.63-1.1612l46.9649-12.0754-20.2694,44.0551a5.3566,5.3566,0,0,1-1.6113,2.3772A5.4919,5.4919,0,0,1,636.9394,105.3835Zm-20.456-30.0719c-0.3678,1.4041,1.1419,7.18,7.3526,14.6215,6.2038,7.4294,11.6129,10.0084,13.0664,9.8451l0.1029-.2374L652.3981,66.09Z"/><path class="cls-2" d="M622.9377,90.4054s11.7212,5.9122,25.1612-17.221L634.3212,102.02l-10.32-7.6828Z"/><path class="cls-1" d="M678.9889,347.4242a2.5217,2.5217,0,0,0-.7461-1.213c-2.6219-2.2472-9.9785,2.0347-16.4315,9.5638s-9.5587,15.4542-6.9368,17.7014a2.5217,2.5217,0,0,0,1.3128.5517l39.3683,10.6683Z"/><path class="cls-2" d="M700.5241,388.9557L655.5933,376.78a5.2454,5.2454,0,0,1-2.5474-1.1694c-4.7283-4.0517.1222-14.0711,6.6306-21.6652,6.5085-7.5914,15.6659-13.9187,20.3956-9.8684a5.2324,5.2324,0,0,1,1.5455,2.34ZM656.76,371.2749l0.1633,0.04,33.6638,9.1231-14.2344-32.025-0.0137-.0014c-1.4851,0-6.5854,2.4156-12.3939,9.1931C658.116,364.4068,656.5184,369.8324,656.76,371.2749Z"/><path class="cls-2" d="M690.2591,371.7764s-4.3295,6.0813-30.83-2.3819c0,0,26.4517,9.3952,25.6915,11.891l2.1331,1.1293,6.6154-.17-1.5732-9.5906Z"/><path class="cls-2" d="M591.6972,293.1686s-4.0155-8.3744-8.912-57.7856c0,0,2.9583,47.1243.44,47.3818-1.2413.1269-.0893,16.825,0.81,17.6518,1.1317,1.04,27.5872,6.7284,27.2917-1.701-0.125-3.5659,47.5682-4.19,47.5682-4.19Z"/></svg>