<svg id="Layer_1" data-name="Layer 1" xmlns="http://www.w3.org/2000/svg" viewBox="0 0 567.4233 454.2928"><defs><style>.cls-1{fill:none;}.cls-2{fill:#b3b3b3;}.cls-3{fill:#8b5e3c;}.cls-4{fill:#8dc63f;}.cls-5{fill:#1a1a1a;}.cls-6{fill:#333;}</style></defs><title>dnlfp</title><path class="cls-1" d="M309.559,263.1953h5.9268q6.4058,0,9.8477-3.2334,3.4423-3.2314,3.4423-9.3984t-3.4423-9.4893q-3.4426-3.3237-10.5664-3.3232H309.559v25.4443Z"/><path class="cls-1" d="M421.9467,373.7119a10.67,10.67,0,0,0-4.8838,1.0332,8.9694,8.9694,0,0,0-3.3164,2.8526,12.0469,12.0469,0,0,0-1.8544,4.3154,23.9335,23.9335,0,0,0-.57,5.3486q0,6.4878,3.21,10.0176a10.9976,10.9976,0,0,0,8.5566,3.5322,33.8757,33.8757,0,0,0,4.5284-.2519,21.072,21.072,0,0,0,2.8173-.5352v-23.46a13.7069,13.7069,0,0,0-3.4941-1.9268A13.1862,13.1862,0,0,0,421.9467,373.7119Z"/><path class="cls-1" d="M314.1957,373.8535a39.12,39.12,0,0,0-4.6709.2149,18.4089,18.4089,0,0,0-2.6739.5V397.959a13.57,13.57,0,0,0,3.4942,1.9238,13.1085,13.1085,0,0,0,4.9912.9287,10.6485,10.6485,0,0,0,4.8848-1.0351,8.9766,8.9766,0,0,0,3.3164-2.8526,12.071,12.071,0,0,0,1.8545-4.2783,23.5314,23.5314,0,0,0,.5693-5.3144q0-6.4862-3.208-9.9824A11.0591,11.0591,0,0,0,314.1957,373.8535Z"/><path class="cls-1" d="M348.9594,332.8858q2.817-3.6739,2.8174-9.9473,0-6.2754-2.8174-9.9482a9.8348,9.8348,0,0,0-15.332,0q-2.8169,3.6707-2.8174,9.9482,0,6.2739,2.8174,9.9473A9.8384,9.8384,0,0,0,348.9594,332.8858Z"/><path class="cls-1" d="M413.14,311.9912a7.7349,7.7349,0,0,0-6.3828-2.8886,8.7585,8.7585,0,0,0-4.0283.8906,9.5089,9.5089,0,0,0-2.959,2.3174,10.6763,10.6763,0,0,0-1.8906,3.28,16.1623,16.1623,0,0,0-.8916,3.78h18.3984A11.1289,11.1289,0,0,0,413.14,311.9912Z"/><path class="cls-1" d="M381.5131,373.64a9.14,9.14,0,0,0-7.666,3.6738q-2.8168,3.6709-2.8174,9.9482,0,6.2741,2.8174,9.9483a9.84,9.84,0,0,0,15.3321,0q2.8169-3.6753,2.8173-9.9483,0-6.2754-2.8173-9.9482A9.1422,9.1422,0,0,0,381.5131,373.64Z"/><path class="cls-1" d="M151.5,267.6587a95.695,95.695,0,0,0,2.2374,13.8182l16.85-16.85A150.99,150.99,0,0,1,151.5,267.6587Z"/><path class="cls-2" d="M26.7075,244.805c-1.7419,3.7293-3.274,7.6088-4.8165,11.5538L40.6159,237.634q-2.0446-1.2953-4.0231-2.7143Z"/><path class="cls-2" d="M8.9847,285.913c-1.5,3.5669-2.8956,7.1823-4.123,10.8613l51.0122-51.0121q-2.285-1.0638-4.5551-2.1834Z"/><path class="cls-2" d="M67.3262,250.9571L0.2885,317.9949C0.1111,320.0716,0,322.1694,0,324.3018c0,0.2343.0136,0.4684,0.0181,0.7026L71.9229,253.1c-0.1259-.06-0.2559-0.12-0.3814-0.18C70.16,252.26,68.7449,251.6049,67.3262,250.9571Z"/><path class="cls-2" d="M2.4,339.27c0.4771,1.7571.9885,3.5033,1.501,5.2368L88.2275,260.18q-2.4456-.9373-4.811-1.9268Z"/><path class="cls-2" d="M7.394,357.662q0.6485,2.7093,1.3328,5.4044l97.3179-97.3177c-1.8063-.4263-3.5807-0.9011-5.3383-1.3993Z"/><path class="cls-2" d="M12.3872,376.0555q0.8026,2.55,1.68,5.0574l94.9487-94.9485c0.4813-2.64.8918-5.32,1.2373-7.9749Z"/><path class="cls-2" d="M18.85,392.9779c0.7095,1.5248,1.4456,3.0327,2.2245,4.5132l68.59-68.59-8.1218,1.3842Z"/><path class="cls-2" d="M153.737,281.4769q0.6611,2.777,1.4283,5.31l24.6706-24.6707q-4.4313,1.4127-9.2489,2.51Z"/><path class="cls-2" d="M108.8981,326.3158L27.4233,407.7909c0.9354,1.2979,1.9,2.5761,2.9207,3.8177l82.8768-82.8769A8.0283,8.0283,0,0,0,108.8981,326.3158Z"/><path class="cls-2" d="M229.501,235.8378q-1.7151-1.6732-3.5153-3.2233l-66.2488,66.249c0.7792,1.679,1.5388,3.1734,2.25,4.488Z"/><path class="cls-2" d="M38.6508,419.95c1.2433,1.0137,2.5167,1.9873,3.8328,2.9044L143.0467,322.2918a41.6652,41.6652,0,0,0-10.2047,3.4669Z"/><path class="cls-2" d="M52.9312,429.0551c1.4849,0.766,2.9915,1.5043,4.5093,2.2289l105.982-105.982-5.0185-1.72Z"/><path class="cls-2" d="M239.9285,248.7961q-1.296-2.0653-2.7161-4.0222L168.7166,313.27l2.9843,3.754Z"/><path class="cls-2" d="M68.8662,436.5068q2.3167,1.046,4.6179,2.12L180.84,331.2708l-5.0181-1.72Z"/><path class="cls-2" d="M247.7326,264.3782q-0.96-2.3929-2.0172-4.7206l-66.6412,66.6412,2.9841,3.7537Z"/><path class="cls-2" d="M89.6893,445.8078L253.5424,281.9539q-0.7179-2.6237-1.5112-5.228L84.9093,443.8472C86.4919,444.5244,88.0872,445.1739,89.6893,445.8078Z"/><path class="cls-2" d="M257.53,301.3512a24.0311,24.0311,0,0,0-.5323-5.2672c-0.0563-.2548-0.1162-0.5115-0.1732-0.7667L102.0491,450.0927q2.636,0.7733,5.3185,1.4221Z"/><path class="cls-2" d="M254.7445,327.5225c-0.02-1.0706-.0336-2.1438-0.0336-3.2206,0-1.2274.07-2.4507,0.1862-3.67L121.6039,453.9246q3.1475,0.2951,6.37.3682Z"/><path class="cls-2" d="M255.2922,350.3607c0.06-2.2231.0438-4.4687-.0069-6.7315L145.06,453.855q3.703-.2487,7.3851-0.6472Z"/><path class="cls-2" d="M242.7718,386.2668a70.75,70.75,0,0,0,8.6772-15.4152l-78.6422,78.642a96.2321,96.2321,0,0,0,10.0047-3.2668Z"/><path class="cls-3" d="M119.5965,268.0641c-0.973,13.7094-4.1558,39.4089-14.5018,49.7543a12.8344,12.8344,0,0,1,1.5532-.0791,17.038,17.038,0,0,1,13.3726,6.0859s12.9609-10.43,28.7343-10.43a33.2009,33.2009,0,0,1,10.8189,1.7725s-13.8763-17.47-16.3926-46.8773c-4.2173.2319-8.5913,0.3538-13.147,0.3538A98.3111,98.3111,0,0,1,119.5965,268.0641Z"/><path class="cls-4" d="M33.1508,220.5635C44.2783,232.5811,60.292,238.0391,75.24,245.1817c16.957,8.1015,34.7476,14.8857,54.7944,14.8857,20.1534,0,41.3423-2.3359,58.3677-10.5186,13.41-6.4472,19.8-20.9384,30.1758-31.3676,13.06-13.1255,26.9727-25.458,33.502-43.169,5.1674-14.0161,2.6313-29.1675,2.6313-44.9785,0-9.69,4.2974-19.1333,2.2871-28.2187-4.0669-18.38-9.6143-37.8354-20.5527-52.3843-12.28-16.333-29.9282-24.2764-48.44-33.353C170.75,7.6172,150.5468,0,130.0341,0c-18.832,0-33.4755,6.4937-49.6328,13.6953C67.9472,19.2466,49.5224,23.374,39.5044,32.3571,26.6528,43.8809,23.5376,60.2456,16.0776,76.0332,8.1254,92.8623,0,110.1851,0,130.0338c0,10.1694,4.34,20.2827,6.5478,29.7793C11.7441,182.1616,18.0805,204.2881,33.1508,220.5635Zm15.7758,2.0223,4.1088-4.1087c3.5735-1.58,7.3419-3,11.0906-4.3532L53.1109,225.139Q50.9564,223.9152,48.9266,222.5859Zm15.263,8.1223L91.957,202.9406c3.5751-1.4792,7.1471-2.8422,10.7752-4.0366l-33.9081,33.908Q66.4837,231.76,64.19,230.7081Zm16.0392,7.3464L123.76,194.5234c2.0447-.16,4.1291-0.2543,6.274-0.2543,0.2348,0,.4689.014,0.7036,0.0161L84.8354,240.1874Q82.5072,239.1385,80.2288,238.0546Zm16.4043,6.9822,49.3262-49.3262c1.8786,0.3269,3.7469.7088,5.6061,1.1317l-49.9093,49.9093Q99.1189,245.9393,96.6331,245.0368Zm47.4959,6.0141q-3.4415.2219-7.0677,0.33L181.2721,207.17c1.5529,0.7034,3.08,1.4216,4.5917,2.1461Zm-23.293-.0934q-2.9778-.3327-5.8806-0.8571l49.5811-49.5812q2.5049,0.8456,4.9644,1.7734Zm42.3081-2.2735,33.9047-33.9047q2.26,1.1183,4.4869,2.2505l-29.5375,29.5375Q167.785,247.7752,163.1442,248.684Z"/><path class="cls-5" d="M300.2192,271.457h14.3086q11.9736,0,17.81-5.6875t5.837-15.4462q0-9.7558-5.9865-15.2364-5.9883-5.477-17.1826-5.4775H300.2192V271.457Zm14.5479-33.706q7.1234,0,10.5664,3.3232t3.4423,9.4893q0,6.1669-3.4423,9.3984-3.4426,3.2345-9.8477,3.2334H309.559V237.751h5.2081Z"/><path class="cls-6" d="M321.1136,309.958v-5.5625H306.851v-3.208a11.294,11.294,0,0,1,1.8536-6.8125q1.8529-2.53,6.49-2.5312a16.1737,16.1737,0,0,1,3.8506.3935,12.4509,12.4509,0,0,1,2.4238.8184l1.2119-5.7041a18.0954,18.0954,0,0,0-2.959-.7842,25.5161,25.5161,0,0,0-5.0273-.4277q-7.4883,0-10.9815,3.8877-3.4949,3.8877-3.4941,11.0156v40.4346h6.6318v-31.52h14.2627Z"/><path class="cls-6" d="M348.2827,341.0147a15.8548,15.8548,0,0,0,5.5263-3.9571,18.274,18.274,0,0,0,3.6016-6.1328,25.3877,25.3877,0,0,0,0-15.9385,18.193,18.193,0,0,0-3.6016-6.1679,15.8758,15.8758,0,0,0-5.5263-3.96,18.2807,18.2807,0,0,0-13.9776,0,15.8616,15.8616,0,0,0-5.5273,3.96,18.195,18.195,0,0,0-3.6016,6.1679,25.4072,25.4072,0,0,0,0,15.9385,18.2761,18.2761,0,0,0,3.6016,6.1328,15.8406,15.8406,0,0,0,5.5273,3.9571A18.2451,18.2451,0,0,0,348.2827,341.0147Zm-14.6553-8.1289q-2.8169-3.6739-2.8174-9.9473,0-6.2754,2.8174-9.9482a9.8348,9.8348,0,0,1,15.332,0q2.817,3.6707,2.8174,9.9482,0,6.2739-2.8174,9.9473A9.8384,9.8384,0,0,1,333.6274,332.8858Z"/><path class="cls-6" d="M372.8852,310.3145q0.57-.1392,2.3887-0.5352a17.4145,17.4145,0,0,1,3.6728-.3906,22.8794,22.8794,0,0,1,4.6709.3906,22.243,22.243,0,0,1,2.6036.68l1.14-5.7773a11.8418,11.8418,0,0,0-1.3193-.3213c-0.5937-.1182-1.2461-0.2373-1.961-0.3555q-1.0693-.1787-2.1738-0.2861-1.106-.1084-1.9619-0.1075a37.5085,37.5085,0,0,0-7.8447.7491,44.8657,44.8657,0,0,0-5.8467,1.6035v35.5137h6.6318V310.3145Z"/><path class="cls-6" d="M415.4936,341.6221a19.6258,19.6258,0,0,0,4.2432-1.3565l-0.9268-5.5625a21.0264,21.0264,0,0,1-3.6014,1.1778,24.3257,24.3257,0,0,1-5.8839.6064q-6.2037,0-9.128-2.9961-2.9253-2.9941-3.3515-8.7715h25.3867a10.0043,10.0043,0,0,0,.0723-1.247v-1.1074q0-9.5538-3.9932-14.2266-3.9962-4.6685-11.4814-4.669a16.9043,16.9043,0,0,0-6.2764,1.212,15.3312,15.3312,0,0,0-5.419,3.6367,17.9487,17.9487,0,0,0-3.7793,6.0976,23.6321,23.6321,0,0,0-1.4267,8.5918,25.77,25.77,0,0,0,1.1055,7.7383,16.4063,16.4063,0,0,0,3.3876,6.0977,15.6112,15.6112,0,0,0,5.8116,4.0293,21.8614,21.8614,0,0,0,8.3789,1.4609A30.2106,30.2106,0,0,0,415.4936,341.6221Zm-17.6142-26.0313a10.6763,10.6763,0,0,1,1.8906-3.28,9.5089,9.5089,0,0,1,2.959-2.3174,8.7585,8.7585,0,0,1,4.0283-.8906,7.7349,7.7349,0,0,1,6.3828,2.8886,11.1289,11.1289,0,0,1,2.2461,7.38H396.9878A16.1623,16.1623,0,0,1,397.8794,315.5908Z"/><path class="cls-6" d="M453.3959,331.9229a11.2593,11.2593,0,0,0-.7842-4.4571,8.63,8.63,0,0,0-2.2471-3.1015,14.7173,14.7173,0,0,0-3.5293-2.2471q-2.07-.964-4.707-1.9619-1.9981-.7119-3.4238-1.3535a11.71,11.71,0,0,1-2.3887-1.3916,4.9471,4.9471,0,0,1-1.4268-1.6748,4.7333,4.7333,0,0,1-.4629-2.1407,3.662,3.662,0,0,1,2.0684-3.457,10.1382,10.1382,0,0,1,4.8486-1.1074,21.6736,21.6736,0,0,1,5.4922.6074,16.6775,16.6775,0,0,1,3.3506,1.1768l1.2129-5.7041c-0.3809-.1446-0.916-0.31-1.6045-0.501q-1.0343-.2828-2.39-0.5352c-0.9033-.165-1.8779-0.31-2.9228-0.4277a27.9447,27.9447,0,0,0-3.1387-.1768q-6.2738,0-9.912,2.8868a9.4486,9.4486,0,0,0-3.6367,7.8086,9.35,9.35,0,0,0,.8555,4.208,9.2128,9.2128,0,0,0,2.2822,2.9248,14.35,14.35,0,0,0,3.3877,2.1035q1.9614,0.8921,4.1006,1.7471a30.6033,30.6033,0,0,1,6.3467,3.208,4.5444,4.5444,0,0,1,1.9248,3.8505,3.62,3.62,0,0,1-1.961,3.4249,13.0692,13.0692,0,0,1-6.0263,1.07,21,21,0,0,1-6.6309-.8565q-2.4975-.8554-3.6377-1.2842l-1.2119,5.7041a39.7335,39.7335,0,0,0,3.7793,1.25,28.5343,28.5343,0,0,0,7.7012.8184q7.06,0,10.8759-2.6377A8.8453,8.8453,0,0,0,453.3959,331.9229Z"/><path class="cls-6" d="M477.9623,335.7383a14.0941,14.0941,0,0,1-4.8135.6768,9.46,9.46,0,0,1-2.9951-.4278,4.6351,4.6351,0,0,1-2.14-1.4609,6.908,6.908,0,0,1-1.2822-2.8526,20.5311,20.5311,0,0,1-.4287-4.6V309.958H480.352v-5.5625H466.3032V292.9141l-6.6319,1.1426v33.0878a31.1683,31.1683,0,0,0,.6065,6.5254,11.55,11.55,0,0,0,2.1035,4.7422,9.0754,9.0754,0,0,0,3.957,2.8887,17.3239,17.3239,0,0,0,6.2413.9609,19.944,19.944,0,0,0,5.7041-.7461,24.7541,24.7541,0,0,0,3.4941-1.25l-1.2842-5.49Q479.78,335.061,477.9623,335.7383Z"/><path class="cls-6" d="M327.8159,373.1416a16.5094,16.5094,0,0,0-5.8477-3.8525,20.7867,20.7867,0,0,0-7.7-1.3535,43.765,43.765,0,0,0-8.167.6767q-3.5287.68-5.8818,1.249v49.1338h6.6318V404.1613a17.8337,17.8337,0,0,0,3.6719,1.6406,17.2385,17.2385,0,0,0,5.67.8564,16.7946,16.7946,0,0,0,7.0957-1.4267,14.7626,14.7626,0,0,0,5.24-3.9922,17.5788,17.5788,0,0,0,3.2461-6.1348,26.1485,26.1485,0,0,0,1.1046-7.7734,23.4255,23.4255,0,0,0-1.3184-8.0938A17.0569,17.0569,0,0,0,327.8159,373.1416Zm-2.4238,19.5039a12.071,12.071,0,0,1-1.8545,4.2783,8.9766,8.9766,0,0,1-3.3164,2.8526,10.6485,10.6485,0,0,1-4.8848,1.0351,13.1085,13.1085,0,0,1-4.9912-.9287,13.57,13.57,0,0,1-3.4942-1.9238V374.5684a18.4089,18.4089,0,0,1,2.6739-.5,39.12,39.12,0,0,1,4.6709-.2149,11.0591,11.0591,0,0,1,8.5576,3.4952q3.2094,3.4921,3.208,9.9824A23.5314,23.5314,0,0,1,325.3921,392.6455Z"/><path class="cls-6" d="M358.2671,368.3281q-1.0694-.1772-2.1758-0.2861c-0.7374-.0723-1.3907-0.1064-1.9611-0.1064a37.4929,37.4929,0,0,0-7.8437.749,45.03,45.03,0,0,0-5.8477,1.6025v35.5147h6.6319V374.6378q0.57-.1393,2.3886-0.5352a17.4161,17.4161,0,0,1,3.6729-.3907,22.8754,22.8754,0,0,1,4.67.3907,22.5311,22.5311,0,0,1,2.6035.68l1.1417-5.7763a11.7472,11.7472,0,0,0-1.3193-.3213Q359.3344,368.5058,358.2671,368.3281Z"/><path class="cls-6" d="M394.0287,373.1416a15.8618,15.8618,0,0,0-5.5264-3.959,18.2694,18.2694,0,0,0-13.9775,0,15.847,15.847,0,0,0-5.5273,3.959,18.1764,18.1764,0,0,0-3.6015,6.168,25.4066,25.4066,0,0,0,0,15.9394,18.2625,18.2625,0,0,0,3.6015,6.1319,15.8436,15.8436,0,0,0,5.5273,3.958,18.2568,18.2568,0,0,0,13.9775,0,15.8584,15.8584,0,0,0,5.5264-3.958,18.2959,18.2959,0,0,0,3.6015-6.1319,25.3905,25.3905,0,0,0,0-15.9394A18.2092,18.2092,0,0,0,394.0287,373.1416Zm-4.85,24.0684a9.84,9.84,0,0,1-15.3321,0q-2.8168-3.6753-2.8174-9.9483,0-6.2754,2.8174-9.9482a9.8351,9.8351,0,0,1,15.3321,0q2.8169,3.6709,2.8173,9.9482Q391.9965,393.5358,389.1791,397.21Z"/><path class="cls-6" d="M430.434,370.3594a17.8686,17.8686,0,0,0-3.6728-1.64,17.2371,17.2371,0,0,0-5.669-.8564,16.8307,16.8307,0,0,0-7.0957,1.4258,14.7532,14.7532,0,0,0-5.2421,3.9951,17.5635,17.5635,0,0,0-3.2442,6.1328,26.3848,26.3848,0,0,0-1.1055,7.8447,23.3735,23.3735,0,0,0,1.3194,8.0938,16.9892,16.9892,0,0,0,3.7431,6.0957,16.4638,16.4638,0,0,0,5.8477,3.8525,20.8049,20.8049,0,0,0,7.7022,1.3545,46.7018,46.7018,0,0,0,8.201-.6426q3.5655-.6415,5.8477-1.2841V350.463l-6.6319,1.1426v18.7539Zm0,29.665a21.072,21.072,0,0,1-2.8173.5352,33.8757,33.8757,0,0,1-4.5284.2519,10.9976,10.9976,0,0,1-8.5566-3.5322q-3.2094-3.5273-3.21-10.0176a23.9335,23.9335,0,0,1,.57-5.3486,12.0469,12.0469,0,0,1,1.8544-4.3154,8.9694,8.9694,0,0,1,3.3164-2.8526,10.67,10.67,0,0,1,4.8838-1.0332,13.1862,13.1862,0,0,1,4.9932.9258,13.7069,13.7069,0,0,1,3.4941,1.9268v23.46Z"/><path class="cls-6" d="M469.5834,400.0244a5.1775,5.1775,0,0,1-1.1758.252q-0.8219.1039-1.8194,0.2139c-0.667.0693-1.38,0.13-2.14,0.1767q-1.1412.0732-2.21,0.0723-5.0653,0-7.2031-2.9248-2.1388-2.9209-2.1387-9.6963V368.72h-6.6318V389.544a28.0255,28.0255,0,0,0,.7842,6.88,14.3164,14.3164,0,0,0,2.5674,5.3858,11.61,11.61,0,0,0,4.7061,3.5293,18.3959,18.3959,0,0,0,7.2031,1.2471,52.0207,52.0207,0,0,0,8.6641-.64q3.7441-.6431,6.0254-1.2148V368.72h-6.6318v31.3047Z"/><path class="cls-6" d="M507.5922,400.3115a21.1089,21.1089,0,0,1-4.7773.5,14.2952,14.2952,0,0,1-5.5635-.9638,9.5186,9.5186,0,0,1-3.743-2.7451,11.3125,11.3125,0,0,1-2.14-4.2784,20.9225,20.9225,0,0,1-.6777-5.4931q0-6.7,2.96-10.1973,2.9591-3.4922,8.5215-3.4941a19.4864,19.4864,0,0,1,4.1719.4287,16.0577,16.0577,0,0,1,3.459,1.14l1.4971-5.6328a22.9435,22.9435,0,0,0-4.7774-1.3535,29.4172,29.4172,0,0,0-4.9922-.4287,18.1041,18.1041,0,0,0-7.3808,1.4609,15.82,15.82,0,0,0-5.5977,4.0645,18.5073,18.5073,0,0,0-3.5312,6.17,23.6287,23.6287,0,0,0-1.2461,7.8428,25.3042,25.3042,0,0,0,1.14,7.81,16.5887,16.5887,0,0,0,3.459,6.0977,15.8573,15.8573,0,0,0,5.7051,3.9922,20.1568,20.1568,0,0,0,7.88,1.4267,25.5691,25.5691,0,0,0,2.9589-.18q1.5338-.1772,2.8887-0.4257a23.1339,23.1339,0,0,0,2.4238-.5723,6.8605,6.8605,0,0,0,1.6407-.6768l-0.9258-5.5625A17.4965,17.4965,0,0,1,507.5922,400.3115Z"/><path class="cls-6" d="M535.0834,400.0625a14.0958,14.0958,0,0,1-4.8135.6768,9.4507,9.4507,0,0,1-2.9951-.4278,4.6367,4.6367,0,0,1-2.14-1.4619,6.9021,6.9021,0,0,1-1.2832-2.8515,20.5514,20.5514,0,0,1-.4277-4.6V374.2822h14.0488V368.72H523.4243V357.2383l-6.6319,1.1416v33.0879a31.1839,31.1839,0,0,0,.6065,6.5264,11.5505,11.5505,0,0,0,2.1025,4.7412,9.0889,9.0889,0,0,0,3.958,2.89,17.34,17.34,0,0,0,6.24.961,19.9185,19.9185,0,0,0,5.7051-.7471,24.8538,24.8538,0,0,0,3.4941-1.249l-1.2842-5.4911Q536.9013,399.3858,535.0834,400.0625Z"/><path class="cls-6" d="M566.6391,391.7891a8.64,8.64,0,0,0-2.2471-3.1016,14.748,14.748,0,0,0-3.5293-2.2471q-2.07-.9638-4.707-1.9609-1.998-.7119-3.4229-1.3546a11.5992,11.5992,0,0,1-2.39-1.3916,4.9112,4.9112,0,0,1-1.4258-1.6747,4.72,4.72,0,0,1-.4639-2.1406,3.663,3.663,0,0,1,2.0684-3.457,10.139,10.139,0,0,1,4.8486-1.1075,21.7174,21.7174,0,0,1,5.4922.6075,16.818,16.818,0,0,1,3.3516,1.1768l1.2119-5.7041c-0.3809-.1445-0.916-0.31-1.6045-0.5q-1.0342-.2828-2.39-0.5352-1.355-.2477-2.9229-0.4288a27.9714,27.9714,0,0,0-3.1387-.1767q-6.2739,0-9.9121,2.8877a10.3813,10.3813,0,0,0-2.7812,12.0166,9.22,9.22,0,0,0,2.2822,2.9238,14.3139,14.3139,0,0,0,3.3877,2.1035q1.9614,0.8936,4.1006,1.7471a30.6557,30.6557,0,0,1,6.3467,3.208,4.5467,4.5467,0,0,1,1.9248,3.8506,3.6189,3.6189,0,0,1-1.9609,3.4248,13.0666,13.0666,0,0,1-6.0254,1.07,20.9762,20.9762,0,0,1-6.6318-.8564q-2.4976-.8541-3.6377-1.2842l-1.2119,5.7051q0.9976,0.4292,3.7793,1.249a28.5045,28.5045,0,0,0,7.7021.8193q7.0591,0,10.875-2.6387a8.8445,8.8445,0,0,0,3.8154-7.7724A11.259,11.259,0,0,0,566.6391,391.7891Z"/><polygon class="cls-5" points="383.375 229.609 374.036 229.609 374.036 256.55 353.501 229.609 344.76 229.609 344.76 271.457 354.1 271.457 354.1 245.235 374.036 271.457 383.375 271.457 383.375 229.609"/><polygon class="cls-5" points="401.515 229.609 392.175 229.609 392.175 271.457 419.355 271.457 419.355 263.136 401.515 263.136 401.515 229.609"/></svg>