<?xml version="1.0" encoding="utf-8"?>
<!-- Generator: Adobe Illustrator 18.1.1, SVG Export Plug-In . SVG Version: 6.00 Build 0)  -->
<!DOCTYPE svg PUBLIC "-//W3C//DTD SVG 1.1//EN" "http://www.w3.org/Graphics/SVG/1.1/DTD/svg11.dtd">
<svg version="1.1" id="Layer_1" xmlns="http://www.w3.org/2000/svg" xmlns:xlink="http://www.w3.org/1999/xlink" x="0px" y="0px"
	 viewBox="0 0 301.38852 242.31966" style="enable-background:new 0 0 301.38852 242.31966;" xml:space="preserve">
<style type="text/css">
	.st0{fill:#010101;}
	.st1{fill:#EC1B36;}
</style>
<g>
	<path class="st0" d="M258.59988,72.87646c-1.6395-0.12458-2.90024-0.18438-3.78227-0.18438
		c-5.86026,0-11.09264,1.55476-15.69714,4.6643c-4.47493,3.04973-7.93826,7.00142-10.39998,11.85508h-0.37373v-13.7786h-21.84831
		h-8.78853h-26.69012v-9.64253c0-2.27235,0.18936-4.47493,0.56808-6.61772c0.37373-2.14278,1.10129-4.09621,2.17268-5.86525
		c1.0714-1.76406,2.48663-3.14939,4.25568-4.15601c1.82385-1.07139,4.22078-1.60958,7.18579-1.60958
		c1.76407,0,3.30887,0.12956,4.62941,0.37873c1.45012,0.25414,2.80556,0.59798,4.06631,1.04149l2.078-25.50911
		c-2.20258-0.69765-4.59952-1.17604-7.18082-1.43517c-2.96503-0.31394-5.646-0.47341-8.03793-0.47341
		c-7.87848,0-14.56097,1.20096-20.04251,3.60785c-5.36195,2.3471-9.61264,5.57622-12.76701,9.69735
		c-3.1494,4.11614-5.38686,8.87013-6.7124,14.25699c-1.32056,5.38686-1.98332,11.05777-1.98332,17.01271v9.31364h-4.56961h-13.01617
		h-8.53625v-9.64253c0-2.27235,0.18936-4.47493,0.56808-6.61772c0.37374-2.14278,1.10129-4.09621,2.17268-5.86525
		c1.07139-1.76406,2.48663-3.14939,4.25567-4.15601c1.44451-0.84839,3.35122-1.26449,5.51269-1.44202
		c0.00249-0.02803-0.00249-0.04422,0-0.07226c1.39343-14.63821,11.46265-23.22928,12.43438-24.02784l0.01245-0.15635
		c-2.20258-0.69765-4.5995-1.17604-7.18082-1.43517c-2.96501-0.31394-5.64598-0.47341-8.03793-0.47341
		c-7.87847,0-14.56097,1.20096-20.04251,3.60785c-5.36194,2.3471-9.61263,5.57622-12.76701,9.69735
		c-3.1494,4.11614-5.38686,8.87013-6.7124,14.25699c-1.32055,5.38686-1.98331,11.05777-1.98331,17.01271v9.31364H63.77591v23.82478
		h17.58579v72.6105h31.76803v-72.6105h8.53625h13.01617h4.56961v72.6105h31.76804v-72.6105h26.69012v72.6105h31.76802v-49.8023
		c0-2.02818,0.37874-4.31049,1.13618-6.84196c0.75745-2.53646,2.0182-4.94335,3.78226-7.22567
		c1.69928-2.21753,4.03143-4.08624,6.99644-5.60612c3.02481-1.58466,6.61772-2.377,10.7787-2.377
		c0.88203,0,2.20259,0.06478,3.96666,0.18936c0.88202,0.06478,2.27234,0.34882,4.16098,0.85712l1.32553-27.5323
		C260.67789,73.16051,259.67126,72.94125,258.59988,72.87646z"/>
	<g>
		<circle class="st1" cx="243.55656" cy="28.0655" r="8.45524"/>
		<circle class="st1" cx="281.82773" cy="19.5608" r="19.5608"/>
		<circle class="st1" cx="140.71483" cy="231.80434" r="10.51533"/>
		<circle class="st1" cx="15.37352" cy="69.69029" r="15.37351"/>
	</g>
</g>
</svg>
