<?xml version="1.0" encoding="utf-8"?>
<!-- Generator: Adobe Illustrator 19.2.1, SVG Export Plug-In . SVG Version: 6.00 Build 0)  -->
<svg version="1.1" id="Layer_1" xmlns="http://www.w3.org/2000/svg" xmlns:xlink="http://www.w3.org/1999/xlink" x="0px" y="0px"
	 viewBox="0 0 126.3 91.4" style="enable-background:new 0 0 126.3 91.4;" xml:space="preserve">
<style type="text/css">
	.st0{fill:#AE4325;}
	.st1{fill:#231F20;}
	.st2{fill:#BB6340;}
</style>
<title>fss</title>
<polygon class="st0" points="93.1,88 28,0.8 27.4,0 26.6,0.6 24.7,2 23.9,2.6 24.5,3.4 89.6,90.6 90.2,91.4 91,90.8 92.9,89.4 
	93.7,88.8 "/>
<path class="st1" d="M4.6,33.7v3.8h6.7v3.6H4.6v5.7h-4V30.1h12.6v3.6H4.6L4.6,33.7z"/>
<path class="st1" d="M31.8,30.1v8.2c0,5.4-3.7,8.9-8.5,8.9c-4.7,0-8.5-3.6-8.5-8.9v-8.2h4.1v8.2c-0.1,2.5,1.8,4.7,4.3,4.8h0.1
	c2.5-0.1,4.5-2.2,4.4-4.7v-0.1v-8.2L31.8,30.1L31.8,30.1z"/>
<path class="st1" d="M49.5,43.7c-2.9,3.9-8.4,4.8-12.3,1.9s-4.8-8.4-1.9-12.3s8.4-4.8,12.3-1.9c0.7,0.5,1.4,1.2,1.9,1.9l-3,1.9
	c-1.1-1.1-2.5-1.7-4-1.7c-2.7,0-4.9,2.2-4.9,4.9s2.2,4.9,4.9,4.9c1.5,0,3-0.6,4-1.7L49.5,43.7z"/>
<path class="st1" d="M57.4,40.3L55.7,42v4.7h-4V30.1h4v6.7l6.9-6.7h5.1l-7.6,7.3l7.9,9.4h-5.7L57.4,40.3z"/>
<path class="st1" d="M68.4,41.6h4.3c0,0,0.2,2.3,3.1,2.3c1.6,0,3-0.9,3-2c0-2.1-3.9-2.3-5-2.5c-1.9-0.4-5.3-1.3-5.3-4.4
	c0-2.9,3.2-5.4,7-5.4c4.7,0,7,2.4,7,4.6h-4.1c0-0.4-0.7-1.3-2.9-1.3c-1.5,0-2.7,0.9-2.7,2c0,1.4,2.6,1.4,3.5,1.5
	c2.3,0.4,6.7,1,6.7,5.4c0,2.9-3.4,5.3-7.4,5.3C70.7,47.2,68.4,43.9,68.4,41.6z"/>
<path class="st1" d="M100.7,30.1v16.7h-4v-6.1h-7.3v6.1h-4V30.1h4v7h7.3v-7C96.7,30.1,100.7,30.1,100.7,30.1z"/>
<path class="st1" d="M107.2,30.1v16.7h-4V30.1H107.2z"/>
<path class="st1" d="M126.2,33.7h-6.3v13.1h-4V33.7h-6.3v-3.6h16.7L126.2,33.7L126.2,33.7z"/>
<path class="st1" d="M0,60.1h4.3c0,0,0.2,2.3,3.1,2.3c1.6,0,3-0.9,3-2c0-2.1-3.9-2.3-5-2.5c-1.9-0.4-5.3-1.3-5.3-4.4
	c0-2.9,3.2-5.4,7-5.4c4.7,0,7,2.4,7,4.6H10c0-0.4-0.7-1.3-2.9-1.3c-1.5,0-2.7,0.9-2.7,2c0,1.4,2.6,1.4,3.5,1.5
	c2.3,0.4,6.7,1,6.7,5.4c0,2.9-3.4,5.3-7.4,5.3C2.4,65.7,0,62.3,0,60.1z"/>
<path class="st1" d="M33,52.2h-6.3v13.1h-4V52.2h-6.3v-3.6H33V52.2z"/>
<path class="st1" d="M42.9,62.9h-8.1l-1.1,2.3h-4.5l8.3-16.7h3l8,16.7h-4.4L42.9,62.9z M41.4,59.7l-2.5-5.4l-2.4,5.4H41.4z"/>
<path class="st1" d="M63.8,62.1c-2.9,3.9-8.4,4.8-12.3,1.9s-4.8-8.4-1.9-12.3s8.4-4.8,12.3-1.9c0.7,0.5,1.4,1.2,1.9,1.9l-3,1.9
	c-1.1-1.1-2.5-1.7-4-1.7c-2.7,0-4.9,2.2-4.9,4.9s2.2,4.9,4.9,4.9c1.5,0,3-0.6,4-1.7L63.8,62.1z"/>
<path class="st1" d="M71.3,58.8l-1.7,1.7v4.7h-4V48.6h4v6.7l6.9-6.7h5L74,55.9l7.9,9.4h-5.7L71.3,58.8z"/>
<polygon class="st2" points="103.2,13.5 101.8,11.6 101.2,10.8 100.4,11.4 13.2,76.5 12.4,77.1 13,77.9 14.4,79.8 15,80.6 15.8,80 
	103,14.9 103.8,14.3 "/>
</svg>
