<svg id="Layer_1" data-name="Layer 1" xmlns="http://www.w3.org/2000/svg" xmlns:xlink="http://www.w3.org/1999/xlink" viewBox="0 0 5322.4397 4542.1436"><defs><style>.cls-1{fill:none;}.cls-12,.cls-2{fill:#2e3192;}.cls-3{fill:#fff;}.cls-4{clip-path:url(#clip-path);}.cls-5{fill:url(#RED-GRAD);}.cls-6{fill:url(#RED-GRAD-2);}.cls-7{fill:url(#RED-GRAD-3);}.cls-8{clip-path:url(#clip-path-2);}.cls-9{fill:url(#RED-GRAD-4);}.cls-10{fill:url(#RED-GRAD-5);}.cls-11{fill:url(#RED-GRAD-6);}.cls-12{stroke:#2e3192;stroke-miterlimit:10;stroke-width:16px;}</style><clipPath id="clip-path" transform="translate(54.5581)"><polygon class="cls-1" points="2667.812 424.926 2592 194.028 2516.188 424.926 2469.336 569.126 2394.95 800.486 2592 658.247 2789.05 800.486 2714.664 569.126 2910.835 425.674 2667.812 424.926"/></clipPath><linearGradient id="RED-GRAD" x1="1873.627" y1="518.9874" x2="3459.0116" y2="518.9874" gradientUnits="userSpaceOnUse"><stop offset="0" stop-color="#be1e2d"/><stop offset="0.1698" stop-color="#cf1d2a"/><stop offset="0.4095" stop-color="#e01d27"/><stop offset="0.6725" stop-color="#ea1c25"/><stop offset="1" stop-color="#ed1c24"/></linearGradient><linearGradient id="RED-GRAD-2" x1="1873.627" y1="362.8096" x2="3459.0116" y2="362.8096" xlink:href="#RED-GRAD"/><linearGradient id="RED-GRAD-3" x1="1873.627" y1="665.4042" x2="3459.0116" y2="665.4042" xlink:href="#RED-GRAD"/><clipPath id="clip-path-2" transform="translate(54.5581)"><polygon class="cls-1" points="216 3863.455 216 1068.736 2592 610.037 4968 1068.736 4968 3863.455 2592 4322.155 216 3863.455"/></clipPath><linearGradient id="RED-GRAD-4" x1="-54.5581" y1="3564.6752" x2="5267.8815" y2="3564.6752" xlink:href="#RED-GRAD"/><linearGradient id="RED-GRAD-5" x1="-54.5581" y1="3040.3566" x2="5267.8815" y2="3040.3566" xlink:href="#RED-GRAD"/><linearGradient id="RED-GRAD-6" x1="-54.5581" y1="4056.2245" x2="5267.8815" y2="4056.2245" xlink:href="#RED-GRAD"/></defs><title>god-bless</title><path class="cls-2" d="M1006.5007,2762.6353H755.3213l-29.8339-108.7488H533.0128l-28.8709,108.7488H252l227.12-650.5642H778.4183ZM574.3949,2501.8319h109.71L629.25,2301.6587Z" transform="translate(54.5581)"/><path class="cls-2" d="M1784.0967,2112.0711v650.5642H1550.24v-332.019l-130.8828,207.8722h-5.7744l-129.92-207.8722v332.019H1049.8057V2112.0711h252.1419L1416.47,2324.7556l115.4848-212.6845h252.1419Z" transform="translate(54.5581)"/><path class="cls-2" d="M2140.1752,2294.9218v56.78h255.9912v169.3773H2140.1752v59.6677h292.5615v181.8885H1895.7322V2112.0711h537.0045v182.8506H2140.1752Z" transform="translate(54.5581)"/><path class="cls-2" d="M3165.0946,2762.6353H2915.84c-39.4575-204.0229-70.2534-203.0608-145.3182-203.0608v203.0608H2528.9658V2118.8076c55.818-9.6236,163.6038-19.2477,250.2173-19.2477,186.7,0,370.5135,45.2318,370.5135,226.1578,0,101.0494-66.4033,145.3182-119.3345,169.3777C3085.2176,2505.6812,3138.1479,2565.3489,3165.0946,2762.6353Zm-258.8784-422.4818c0-53.8929-65.4412-65.4416-107.7858-65.4416a227.5244,227.5244,0,0,0-28.8709,1.9246v129.9207c6.7364,0.9621,13.4729.9621,22.1344,0.9621C2833.0756,2407.5194,2906.2162,2397.8958,2906.2162,2340.1536Z" transform="translate(54.5581)"/><path class="cls-2" d="M3494.2185,2715.2459V2112.0711h-251.18v638.89Q3366.9508,2730.3574,3494.2185,2715.2459Z" transform="translate(54.5581)"/><polygon class="cls-2" points="4017.044 654.628 3874.357 758.969 3879.421 774.718 5094.558 1009.307 5094.558 3922.885 2646.558 4395.484 198.558 3922.885 198.558 1009.307 1413.696 774.718 1418.759 758.969 1276.072 654.628 54.558 890.448 54.558 4041.744 2646.558 4542.144 5238.558 4041.744 5238.558 890.448 4017.044 654.628"/><path class="cls-2" d="M2592,0l-95.7886,291.7411-24.0752,73.3257-77.1766.2388-307.0684.9452,247.8675,181.2553,62.2973,45.556-23.6223,73.4734-93.9881,292.3282,248.9776-179.7219L2592,733.971l62.5767,45.1708,248.9776,179.7219-93.9881-292.3282-23.6223-73.4734,62.2973-45.556,247.8675-181.2553-307.0684-.9452-77.1766-.2388-24.0752-73.3257L2592,0h0Z" transform="translate(54.5581)"/><polygon class="cls-3" points="2722.37 424.926 2646.558 194.028 2570.746 424.926 2523.894 569.126 2449.508 800.486 2646.558 658.247 2843.608 800.486 2769.222 569.126 2965.393 425.674 2722.37 424.926"/><g class="cls-4"><path class="cls-5" d="M2976.2579,438.8959c-99.3085,9.1875-194.31,26.8311-282.365,52.4383C2507.337,545.59,2302.005,530.39,2162.6041,508.0863c-152.6755-24.428-261.9593-62.5222-263.0451-62.905l-25.932,73.5918c4.6528,1.64,115.7834,40.4753,275.0119,66.0968,89.74,14.44,176.9483,21.7487,259.4086,21.7487q5.3805,0,10.7363-.041c107.8874-.8372,207.7779-14.4023,296.8978-40.32,188.338-54.7728,375.732-60.3677,499.7686-55.4129,135.2091,5.3986,226.7131,24.1575,227.6017,24.3423l15.96-76.3768c-3.9128-.8172-97.4407-20.0867-238.6523-25.8577A1843.0533,1843.0533,0,0,0,2976.2579,438.8959Z" transform="translate(54.5581)"/><path class="cls-6" d="M2408.0475,450.4408q5.3805,0,10.7363-.041c107.8874-.8372,207.7779-14.4023,296.8978-40.32,188.338-54.7728,375.732-60.3686,499.7686-55.4129,135.2091,5.3986,226.7131,24.1575,227.6017,24.3423l15.96-76.3768c-3.9128-.8172-97.4407-20.0867-238.6523-25.8577a1843.0533,1843.0533,0,0,0-244.1014,5.9434c-99.3085,9.1875-194.31,26.8311-282.365,52.4383-186.5559,54.2547-391.8879,39.0561-531.2888,16.7521-152.6755-24.428-261.9593-62.5222-263.0451-62.905l-25.932,73.5918c4.6528,1.64,115.7834,40.4753,275.0119,66.0968C2238.379,443.1324,2325.5873,450.4408,2408.0475,450.4408Z" transform="translate(54.5581)"/><path class="cls-7" d="M2976.2579,585.3127c-99.3085,9.1875-194.31,26.8311-282.365,52.4383-186.5559,54.2547-391.8879,39.0552-531.2888,16.7521-152.6755-24.428-261.9593-62.5222-263.0451-62.905L1873.627,665.19c4.6528,1.64,115.7834,40.4753,275.0119,66.0968,89.74,14.44,176.9483,21.7487,259.4086,21.7487q5.3805,0,10.7363-.041c107.8874-.8372,207.7779-14.4023,296.8978-40.32,188.338-54.7728,375.732-60.3667,499.7686-55.4129,135.2091,5.3986,226.7131,24.1575,227.6017,24.3423l15.96-76.3768c-3.9128-.8172-97.4407-20.0867-238.6523-25.8577A1843.0533,1843.0533,0,0,0,2976.2579,585.3127Z" transform="translate(54.5581)"/></g><path class="cls-2" d="M3515.8152,291.0291L3449.1,494.2225l-16.768,51.07-53.7524.1663-213.8686.6583,172.6361,126.2417,43.3892,31.7291-16.4526,51.1732-65.4613,203.6023L3472.2315,833.69l43.5838-31.4608L3559.399,833.69l173.4093,125.1736-65.4613-203.6023-16.4526-51.1732,43.3892-31.7291L3866.92,546.1174l-213.8686-.6583-53.7524-.1663-16.768-51.07-66.7154-203.1934h0Z" transform="translate(54.5581)"/><path class="cls-2" d="M1668.1847,291.0291l-66.7154,203.1934-16.768,51.07-53.7524.1663-213.8686.6583,172.6361,126.2417,43.3892,31.7291-16.4526,51.1732-65.4613,203.6023L1624.601,833.69l43.5838-31.4608,43.5838,31.4608,173.4093,125.1736-65.4613-203.6023-16.4526-51.1732,43.3892-31.7291,172.6361-126.2417-213.8686-.6583-53.7524-.1663-16.768-51.07-66.7154-203.1934h0Z" transform="translate(54.5581)"/><g class="cls-8"><path class="cls-9" d="M3647.185,3295.7926c-333.3977,30.8443-652.3358,90.0772-947.9535,176.0455-626.3039,182.1466-1315.6426,131.1188-1783.6382,56.24-512.561-82.01-879.4475-209.8988-883.0928-211.1843l-87.0587,247.0617c15.62,5.5063,388.7071,135.8833,923.2678,221.9,301.2743,48.4793,594.0494,73.0147,870.8842,73.0147q18.0634,0,36.0437-.1375c362.1988-2.8107,697.55-48.3514,996.7429-135.3621,632.2866-183.8829,1261.4044-202.6658,1677.819-186.0317,453.9228,18.1242,761.1192,81.1015,764.1025,81.7218l53.5795-256.4116c-13.1359-2.7436-327.1272-67.4348-801.2014-86.8093C4188.774,3264.4846,3913.052,3271.1932,3647.185,3295.7926Z" transform="translate(54.5581)"/><path class="cls-10" d="M1739.5939,3334.5511q18.0634,0,36.0437-.1375c362.1988-2.8107,697.55-48.3514,996.7429-135.3621,632.2866-183.8829,1261.4044-202.669,1677.819-186.0317,453.9228,18.1242,761.1192,81.1015,764.1025,81.7218l53.5795-256.4116c-13.1359-2.7436-327.1272-67.4348-801.2014-86.8093-277.9061-11.3548-553.6281-4.6462-819.4951,19.9532-333.3977,30.8443-652.3358,90.0772-947.9535,176.0455-626.3039,182.1434-1315.6426,131.1188-1783.6382,56.24-512.561-82.01-879.4475-209.8988-883.0928-211.1843l-87.0587,247.0617c15.62,5.5063,388.7071,135.8833,923.2678,221.9C1169.984,3310.0156,1462.759,3334.5511,1739.5939,3334.5511Z" transform="translate(54.5581)"/><path class="cls-11" d="M3647.185,3787.3419c-333.3977,30.8443-652.3358,90.0772-947.9535,176.0455-626.3039,182.1434-1315.6426,131.1156-1783.6382,56.24-512.561-82.01-879.4475-209.8988-883.0928-211.1843l-87.0587,247.0617c15.62,5.5063,388.7071,135.8833,923.2678,221.9,301.2743,48.4793,594.0494,73.0147,870.8842,73.0147q18.0634,0,36.0437-.1375c362.1988-2.8107,697.55-48.3514,996.7429-135.3621,632.2866-183.8829,1261.4044-202.6626,1677.819-186.0317,453.9228,18.1242,761.1192,81.1015,764.1025,81.7218l53.5795-256.4116c-13.1359-2.7436-327.1272-67.4348-801.2014-86.8093C4188.774,3756.0339,3913.052,3762.7425,3647.185,3787.3419Z" transform="translate(54.5581)"/></g><path class="cls-12" d="M1763.7929,1239.4247c0-87.2583-43.2358-154.0777-133.6386-154.0777-188.6667,0-294.0053,242.1218-294.0053,441.7939a528.6044,528.6044,0,0,0,6.289,80.9693c-8.6473.7862-18.0807,0.7862-27.5138,0.7862-154.0776,0-213.8222-84.9-213.8222-165.8694,0-73.1083,49.5253-143.0721,122.6331-143.0721,23.5835,0,41.6638,6.289,59.7445,16.5083l25.9418-52.6693a134.66,134.66,0,0,0-68.3918-18.08c-121.8469,0-191.8107,93.5469-191.8107,190.2387,0,103.7662,80.9693,212.25,265.7053,212.25,12.5775,0,24.3693-.7862,36.161-1.5725,23.5831,80.1831,73.1083,139.1414,153.2914,139.1414,58.9583,0,97.4776-21.2248,122.6331-51.8831-33.0165,169.0135-40.0918,283.7856-133.6386,283.7856-35.3748,0-53.4555-25.1555-53.4555-51.8831,0-24.3693,16.5083-50.3111,48.739-55.0276l-9.4335-69.178c-69.1776,1.5725-105.3386,54.2418-105.3386,106.9111,0,54.2418,37.7331,108.4831,114.7721,108.4831,115.5579,0,162.7245-89.6166,189.4525-225.6135,22.011-112.4139,29.0858-188.6662,33.0165-202.03l33.0165-72.3221-62.8886-27.5138c-36.9473,78.6111-40.0918,217.7525-154.8639,217.7525-55.8138,0-89.6166-43.2358-104.5524-110.0556C1644.3042,1586.8851,1763.7929,1384.8551,1763.7929,1239.4247ZM1414.76,1596.3186c-2.3583-18.08-3.1445-38.5193-3.1445-58.9583,0-180.019,83.3276-412.7077,215.3942-412.7077,41.6638,0,63.6748,44.8083,63.6748,106.9111C1690.6846,1354.1968,1604.2125,1546.0075,1414.76,1596.3186Z" transform="translate(54.5581)"/><path class="cls-12" d="M2312.4733,1593.1741c-25.1555,65.2473-48.7386,110.0556-66.8193,110.0556-5.5028,0-7.861-6.289-7.861-22.7973,0-25.9418,6.289-75.4666,21.2248-159.58,33.8028-130.4942,62.1028-291.6466,65.2473-358.4664h-62.1028l-55.0276,305.0108c-5.5028-35.3748-22.011-52.6693-51.0973-52.6693-54.747,0-101.4664,87.8737-122.5067,178.4513-0.0369-.0007-0.08-0.0044-0.1154-0.0044-14.15,36.9473-33.0165,56.6-53.4555,66.0335,10.2193-34.589,19.6528-74.6808,19.6528-113.2,0-70.75-27.5138-131.28-80.1831-131.28-55.8142,0-88.8308,52.6693-97.478,113.2l-28.3-7.0752c-15.7225,46.38-24.37,95.9056-24.37,139.9276,0,71.5358,23.5835,128.1359,77.8248,128.1359,50.3111,0,90.4028-33.8028,117.13-91.1886,21.2554-7.5279,41.7615-21.293,58.85-40.3094-0.9706,10.8855-1.4752,21.4959-1.4752,31.6622,0,56.6,15.7225,99.8359,54.2418,99.8359,44.8083,0,72.3221-41.6638,90.4024-89.6166v8.6473c0,54.2418,14.15,77.039,39.3055,77.039,36.161,0,80.9693-55.028,128.9221-180.8056C2334.4843,1599.4631,2317.19,1593.1741,2312.4733,1593.1741Zm-448.8582,135.2111a17.3046,17.3046,0,0,1-6.2886.7862c-19.6528,0-32.2308-32.2308-32.2308-78.6111a262.27,262.27,0,0,1,2.3583-33.8028c11.006,37.7331,32.2308,69.1776,65.2473,81.7556C1883.2679,1714.2352,1873.8348,1725.2407,1863.6151,1728.3852Zm45.5945-62.889c-35.3748-10.2193-47.9528-51.0968-47.9528-93.5469,0-50.3111,18.0807-101.4083,40.878-106.1249,1.572,0,3.93-.7862,5.5028-0.7862,22.011,0,30.6583,26.728,30.6583,62.1028C1938.2959,1568.8048,1926.5042,1623.8324,1909.21,1665.4962Zm194.1584,56.6c-11.0055,0-15.722-16.5083-15.722-40.8776,0-70.75,38.5193-209.8915,72.3221-209.8915,17.2945,0,24.3693,20.439,24.3693,49.5248C2184.3374,1593.96,2139.5291,1722.0962,2103.3681,1722.0962Z" transform="translate(54.5581)"/><path class="cls-12" d="M2975.1589,1476.0437c73.1083-38.5193,107.6964-110.0556,107.6964-181.5914,0-143.8579-132.0662-215.3942-279.8553-215.3942-238.9768,0-349.0324,165.8694-349.0324,312.086,0,115.5579,69.178,219.3245,198.0993,219.3245,17.2945,0,33.8028-2.3583,48.7395-7.861l-12.578-67.6056a146.1477,146.1477,0,0,1-33.0165,3.9307c-88.83,0-136.7831-75.4666-136.7831-161.9387,0-118.7028,88.83-258.63,279.8548-258.63,107.6973,0,213.036,61.3166,213.036,183.95,0,63.6748-28.3,127.35-88.83,157.2221a435.4342,435.4342,0,0,0-67.6056-7.0748c15.722-117.9166,33.8028-186.3084,53.456-242.1222l-73.1083-18.08c-21.2248,62.8886-38.5193,161.9387-58.9587,308.9411-26.7276,191.0249-58.9579,325.45-114.7717,380.4774a171.579,171.579,0,0,0-77.0386-18.8665c-11.0055,0-21.2252.7858-30.6583,3.1445L2540.44,1967.3625c40.0918,0,81.7556-10.2193,121.0611-36.161,36.1606,14.9362,91.1882,32.2308,183.1635,32.2308,181.5919,0,278.2828-132.8529,278.2828-263.347C3122.9472,1608.11,3074.9948,1517.7075,2975.1589,1476.0437Zm-130.4946,448.0829c-63.6753,0-107.6973-11.0055-143.8579-24.3693,65.2469-64.4611,121.0607-184.7359,147.7882-393.0554,29.0863-.7862,55.8138-4.7165,79.3973-11.7917,80.1835,34.589,118.7028,117.9166,118.7028,201.2442C3046.6948,1809.3545,2976.7305,1924.1267,2844.6644,1924.1267Z" transform="translate(54.5581)"/><path class="cls-12" d="M3955.4132,1593.1741c-11.7917,30.6583-24.37,59.7445-39.3055,84.1138v-3.1445c0-88.0441-77.0386-169.8-79.3973-235.8328a980.5109,980.5109,0,0,0,23.5835-114.7721l-53.456-10.22c-12.5771,38.52-18.08,73.1083-18.08,104.5528,0,26.7276,3.93,51.8831,9.433,75.4666-14.9358,37.7331-29.8725,73.1083-40.0918,99.8359v0.02c-11.79,30.6508-24.3651,59.73-39.2976,84.0934v-3.1445c0-88.0441-77.0386-169.8-79.3973-235.8328a980.5107,980.5107,0,0,0,23.5835-114.7721l-53.456-10.22c-12.5771,38.52-18.08,73.1083-18.08,104.5528,0,26.7276,3.93,51.8831,9.433,75.4666-14.9358,37.7331-29.8725,73.1083-40.0918,99.8359v0.0117c-29.8718,80.1765-68.39,128.91-114.7682,128.91-36.1606,0-49.5248-37.7331-49.5248-84.9v-11.7913c92.7615-14.9362,139.9276-90.4028,139.9276-146.2166,0-36.161-19.6523-64.4611-58.9579-64.4611-72.2416,0-124.8909,87.8536-141.4673,178.4484l-0.031-.0014c-33.8019,87.2583-63.6744,135.9974-88.83,135.9974-18.08,0-29.8716-16.5087-29.8716-69.178,0-25.1555,2.3578-55.8138,6.289-89.6166,31.4441-38.5193,84.1138-115.5579,116.3441-218.5383,7.8606-24.37,23.5835-80.1835,23.5835-126.5639,0-40.0918-11.7917-73.1083-52.67-73.1083-45.5945,0-95.1193,88.83-130.4946,286.1443-15.722,89.6166-25.1551,165.0832-25.1551,222.469,0,81.7556,18.8661,128.1359,66.0331,128.1359,41.9538,0,73.8391-39.7577,109.5787-123.6,3.2353,68.0379,32.096,123.6,96.38,123.6,77.0386,0,116.3441-81.7556,155.65-184.7359l-0.0009-.009c8.6468-23.58,18.8646-47.9471,27.51-73.8851,17.2945,55.8138,40.0918,102.98,40.0918,151.7189,0,28.3-11.0055,42.45-30.6587,42.45-14.9358,0-24.3689-6.289-34.5881-23.5831L3537.21,1735.46c11.0055,32.2308,40.878,53.4555,77.8248,53.4555,84.9,0,128.9221-90.4024,165.0836-184.7359l-0.0018-.0163c8.6464-23.578,18.8628-47.9425,27.5076-73.8778,17.2945,55.8138,40.0918,102.98,40.0918,151.7189,0,28.3-11.0055,42.45-30.6587,42.45-14.9358,0-24.3689-6.289-34.5881-23.5831l-47.9532,34.5886c11.0055,32.2308,40.878,53.4555,77.8248,53.4555,84.9,0,128.9221-90.4024,165.0836-184.7359C3977.4242,1599.4631,3960.13,1593.1741,3955.4132,1593.1741ZM3471.181,1463.4662c7.8606,0,12.578,7.861,12.578,19.6528,0,29.0858-25.9422,83.3276-84.9,112.4134C3408.292,1530.2855,3438.9507,1463.4662,3471.181,1463.4662Zm-150.1452-258.63c3.93,0,7.8615,6.289,7.8615,17.2945-0.7862,95.9056-58.9587,227.186-98.2643,298.7218C3253.43,1374.6354,3299.8111,1204.8357,3321.0359,1204.8357Z" transform="translate(54.5581)"/><path class="cls-2" d="M3688.4229,2695.5772c152.3218-12.8167,308.5552-19.9224,465.7686-21.1858l-31.543-114.8169c-31.7583,13.4729-77.9521,24.06-125.1091,24.06-105.8606,0-165.5276-53.8933-165.5276-146.2812s59.667-146.28,165.5276-146.28c47.157,0,93.3508,10.5862,125.1091,24.0591l48.1187-175.1516c-60.6294-20.21-142.4316-40.42-235.7817-40.42-213.6465,0-358.0027,127.9956-358.0027,337.793C3576.9827,2548.542,3617.9094,2637.0823,3688.4229,2695.5772Z" transform="translate(54.5581)"/><path class="cls-2" d="M4451.8711,2678.9007l6.6411-25.0142h192.4751l9.9644,36.3237c93.5137,6.5771,178.5742,14.6042,253.7114,22.9744l-210.7456-601.1135H4404.62L4208.3833,2674.17C4288.96,2674.2119,4370.7554,2675.8108,4451.8711,2678.9007Zm102.8779-377.2419,54.8555,200.1731h-109.71Z" transform="translate(54.5581)"/></svg>