<?xml version="1.0" encoding="utf-8"?>
<!-- Generator: Adobe Illustrator 19.2.1, SVG Export Plug-In . SVG Version: 6.00 Build 0)  -->
<svg version="1.1" id="Layer_1" xmlns="http://www.w3.org/2000/svg" xmlns:xlink="http://www.w3.org/1999/xlink" x="0px" y="0px"
	 viewBox="0 0 673.5 755.9" style="enable-background:new 0 0 673.5 755.9;" xml:space="preserve">
<style type="text/css">
	.st0{fill:none;}
	.st1{opacity:0.1;}
	.st2{fill:#414042;}
	.st3{fill:#E6E7E8;}
	.st4{opacity:0.25;enable-background:new    ;}
	.st5{opacity:0.25;fill:#231F20;enable-background:new    ;}
</style>
<title>hhas</title>
<g>
	<path class="st0" d="M406.9,703.8c-6.3-0.5-10.3,3.9-10.3,9.9s4.1,11.1,10.3,11.6c6.3,0.5,10.3-3.9,10.3-9.9
		C417.2,709.4,413.1,704.3,406.9,703.8z"/>
	<path class="st0" d="M24.5,31.8l6.3,0.5V12l-6.2-0.5c-6.5-0.5-10.4,3.9-10.4,9.3C14.2,26.6,17.6,31.2,24.5,31.8z"/>
	<polygon class="st0" points="20.8,688.3 29.3,689 25.1,674.8 	"/>
	<path class="st0" d="M253.4,691.3c-6.3-0.5-10.3,3.9-10.3,9.9s4.1,11.1,10.3,11.6c6.3,0.5,10.3-3.9,10.3-9.9
		C263.7,697,259.7,691.9,253.4,691.3z"/>
	<path class="st0" d="M266.6,52.1c6.3,0.5,10.3-3.9,10.3-9.9s-4.1-11.1-10.3-11.6c-6.3-0.5-10.3,3.9-10.3,9.9
		C256.3,46.4,260.4,51.5,266.6,52.1z"/>
	<path class="st0" d="M649,724.1l-6.3-0.5v20.3l6.2,0.5c6.5,0.5,10.4-3.9,10.4-9.3h0C659.3,729.3,655.9,724.7,649,724.1z"/>
	<polygon class="st0" points="652.7,67.6 644.2,66.9 648.5,81.1 	"/>
	<path class="st0" d="M420.1,64.5c6.3,0.5,10.3-3.9,10.3-9.9s-4.1-11.1-10.3-11.6c-6.3-0.5-10.3,3.9-10.3,9.9h0
		C409.8,58.9,413.8,64,420.1,64.5z"/>
	<path class="st1" d="M143.7,184.9c0.7-0.7,1.4-1.4,2.1-2L24,172.9v358.8v0l92.5,7.6C38.1,432.5,47.1,281.5,143.7,184.9z"/>
	<path class="st1" d="M609.7,377.9c0,11.2-0.7,22.3-2,33.2c-0.7,62.1-23.2,119-60.1,163.5l101.9,8.3V224.1l-92.5-7.6
		C591.2,263,609.9,319.5,609.7,377.9z"/>
	<path class="st2" d="M651.5,200.2l-116-9.5c-1.9-2-3.7-3.9-5.6-5.8C431.9,87,278.2,79,171.2,160.9L26,149l-26-2.1v407l22,1.8
		l116.1,9.5c1.8,2,3.7,3.9,5.6,5.8c97.9,97.9,251.6,105.9,358.6,24l145.2,11.9l26,2.1V202L651.5,200.2z M649.5,583l-101.9-8.3
		c0,0,0,0,0,0l-19.9-1.6c0,0,0,0,0,0c0.7-0.7,1.4-1.3,2.1-2c43.3-43.3,70.5-99.7,77.9-159.8c1.3-11,2-22.1,2-33.2
		c0.2-58.4-18.5-114.9-52.7-161.4l92.5,7.6V583z M24,531.8V172.9l121.8,10c-0.7,0.7-1.4,1.3-2.1,2
		c-96.6,96.6-105.7,247.6-27.2,354.4L24,531.8L24,531.8z M87.8,377.9c0-137.3,111.7-249,249-249s249,111.7,249,249
		s-111.7,249-249,249S87.8,515.2,87.8,377.9z"/>
	<path class="st3" d="M529.8,571c-0.7,0.7-1.4,1.4-2.1,2l19.9,1.6c36.9-44.4,59.4-101.3,60.1-163.5
		C600.3,471.3,573.1,527.7,529.8,571z"/>
	<path class="st4" d="M529.8,571c-0.7,0.7-1.4,1.4-2.1,2l19.9,1.6c36.9-44.4,59.4-101.3,60.1-163.5
		C600.3,471.3,573.1,527.7,529.8,571z"/>
	<polygon class="st2" points="527.7,573 547.6,574.6 547.6,574.6 527.7,573 	"/>
	<polygon class="st5" points="527.7,573 547.6,574.6 547.6,574.6 527.7,573 	"/>
	<path class="st2" d="M331.8,403.4v0.3h0v24h68v-0.3c0,0,0,0,0,0v-24c-14.1,0-20-6.6-22-9.8V287.3c1.7-2.8,6.4-8.1,16.7-9.5h5.2
		v-0.3c0,0,0,0,0,0v-24c-2.3,0-4.6,0.1-6.7,0.3h-54.6c-2.1-0.2-4.3-0.3-6.7-0.3v0.3h0v24h5.2c10.4,1.4,15,6.7,16.7,9.5v106.3
		C351.7,396.8,345.9,403.4,331.8,403.4z"/>
	<path class="st2" d="M452.3,352.8h5.2v-0.3c0,0,0,0,0,0v-24c-2.3,0-4.6,0.1-6.7,0.3h-54.6c-2.1-0.2-4.3-0.3-6.7-0.3v24c0,0,0,0,0,0
		v0.3h5.2c10.4,1.4,15,6.7,16.7,9.5v106.3c-2,3.2-7.9,9.8-22,9.8v24c0,0,0,0,0,0v0.3h68v-0.3c0,0,0,0,0,0v-24c-14.1,0-20-6.6-22-9.8
		V362.3C437.3,359.5,441.9,354.2,452.3,352.8z"/>
	<path class="st2" d="M16.9,661.3L1,703.1l14.8,1.2l1.5-4.9l15.5,1.3l1.5,5.2l14.8,1.2l-15.9-44.3L16.9,661.3z M20.8,688.3l4.3-13.5
		l4.3,14.2L20.8,688.3z"/>
	<path class="st2" d="M110.4,693.8c0,4.1-2.7,7.2-8,6.8c-5.4-0.4-8.1-3.9-8.1-8.1v-24.9l-13.2-1.1v25.4c0,10.6,6.8,19,21.3,20.2
		s21.2-6.1,21.2-16.8V670l-13.2-1.1V693.8z"/>
	<polygon class="st2" points="160.5,684.4 172.1,685.3 172.1,717 185.1,718 185.1,686.4 196.6,687.3 196.6,675.9 160.5,673 	"/>
	<path class="st2" d="M253.4,679.9c-13.3-1.1-23.5,7.1-23.5,20.3c0,13.2,10.3,23.1,23.5,24.2S277,717.3,277,704
		S266.7,680.9,253.4,679.9z M253.4,712.9c-6.3-0.5-10.3-5.6-10.3-11.6s4.1-10.4,10.3-9.9c6.3,0.5,10.3,5.6,10.3,11.6
		C263.7,709,259.7,713.4,253.4,712.9z"/>
	<path class="st2" d="M331.5,701.8c-3.6-1-6.3-1.7-6.3-3.1c0-1.1,0.7-1.9,3.3-1.7c4.6,0.5,9,2.3,12.6,5.3l7-8.7
		c-5.1-4.4-11.5-7.1-18.3-7.5c-11.8-1-17.9,5.5-17.9,12.8c0,11.4,10.8,14.1,17.9,16c3.5,0.9,6.1,1.5,6.1,2.9c0,1.7-2.3,2.1-4.8,1.9
		c-5.3-0.5-10.2-2.8-13.9-6.7l-6.8,9.1c4.6,4.5,10.8,7.7,20,8.5c11.5,0.9,18.6-4,18.6-13.5C349.1,706.6,338.6,703.7,331.5,701.8z"/>
	<path class="st2" d="M406.9,692.3c-13.3-1.1-23.5,7.1-23.5,20.3c0,13.2,10.3,23.1,23.5,24.2s23.5-7.1,23.5-20.3
		S420.2,693.4,406.9,692.3z M406.9,725.4c-6.3-0.5-10.3-5.6-10.3-11.6s4.1-10.4,10.3-9.9c6.3,0.5,10.3,5.6,10.3,11.6
		C417.2,721.4,413.1,725.9,406.9,725.4z"/>
	<path class="st2" d="M496.6,725.3c0,4.1-2.7,7.2-8,6.8c-5.4-0.4-8.1-3.9-8.1-8.1V699l-13.2-1.1v25.4c0,10.6,6.8,19,21.3,20.2
		s21.2-6.1,21.2-16.8v-25.3l-13.2-1.1V725.3z"/>
	<polygon class="st2" points="577.4,727.3 562.5,705.7 549.1,704.6 549.1,747.6 562.1,748.7 562.1,726.9 578,750 590.5,751 
		590.5,708 577.4,706.9 	"/>
	<path class="st2" d="M648.9,712.7l-19.2-1.6v43l19.3,1.6c13.5,1.1,23.5-5.9,23.5-19.6S662.5,713.8,648.9,712.7z M648.9,744.4
		l-6.2-0.5v-20.3l6.3,0.5c7,0.6,10.3,5.2,10.3,11h0C659.3,740.5,655.4,744.9,648.9,744.4z"/>
	<path class="st2" d="M656.7,94.6l15.9-41.7l-14.8-1.2l-1.5,4.9l-15.5-1.3l-1.5-5.2l-14.8-1.2l15.9,44.3L656.7,94.6z M652.7,67.6
		l-4.3,13.5l-4.3-14.2L652.7,67.6z"/>
	<path class="st2" d="M563.1,62c0-4.1,2.7-7.2,8-6.8c5.4,0.4,8.1,3.9,8.1,8.1v24.9l13.2,1.1V64c0-10.6-6.8-19-21.3-20.2
		s-21.2,6.1-21.2,16.8v25.3l13.2,1.1V62z"/>
	<polygon class="st2" points="513,71.5 501.4,70.6 501.4,38.9 488.4,37.8 488.4,69.5 476.9,68.6 476.9,79.9 513,82.9 	"/>
	<path class="st2" d="M420.1,76c13.3,1.1,23.5-7.1,23.5-20.3c0-13.2-10.3-23.1-23.5-24.2c-13.3-1.1-23.5,7.1-23.5,20.3
		S406.8,74.9,420.1,76z M409.8,52.9c0-6,4.1-10.4,10.3-9.9c6.3,0.5,10.3,5.6,10.3,11.6s-4.1,10.4-10.3,9.9
		C413.8,64,409.8,58.9,409.8,52.9L409.8,52.9z"/>
	<path class="st2" d="M342,54.1c3.6,1,6.3,1.7,6.3,3.1c0,1.1-0.7,1.9-3.3,1.7c-4.6-0.5-9-2.3-12.6-5.3l-7,8.7
		c5.1,4.4,11.5,7.1,18.3,7.5c11.8,1,17.9-5.5,17.9-12.8c0-11.4-10.8-14.1-17.9-16c-3.5-0.9-6.1-1.5-6.1-2.9c0-1.7,2.3-2.1,4.8-1.9
		c5.3,0.5,10.2,2.8,13.9,6.7l6.8-9.1c-4.6-4.5-10.8-7.7-20-8.5c-11.5-0.9-18.6,4-18.6,13.5C324.4,49.3,334.9,52.2,342,54.1z"/>
	<path class="st2" d="M266.6,63.5c13.3,1.1,23.5-7.1,23.5-20.3c0-13.2-10.3-23.1-23.5-24.2c-13.3-1.1-23.5,7.1-23.5,20.3
		S253.4,62.5,266.6,63.5z M266.6,30.5c6.3,0.5,10.3,5.6,10.3,11.6s-4.1,10.4-10.3,9.9c-6.3-0.5-10.3-5.6-10.3-11.6
		C256.3,34.4,260.4,30,266.6,30.5z"/>
	<path class="st2" d="M176.9,30.6c0-4.1,2.7-7.2,8-6.8c5.4,0.4,8.1,3.9,8.1,8.1v24.9l13.2,1.1V32.6c0-10.6-6.8-19-21.3-20.2
		c-14.5-1.2-21.2,6.1-21.2,16.8v25.3l13.2,1.1V30.6z"/>
	<polygon class="st2" points="96.1,28.6 111,50.2 124.5,51.3 124.5,8.2 111.4,7.2 111.4,29 95.6,5.9 83,4.9 83,47.9 96.1,49 	"/>
	<path class="st2" d="M24.6,43.1l19.2,1.6v-43L24.5,0.1C11.1-1,1,6,1,19.7C1,33.5,11.1,42,24.6,43.1z M24.6,11.5l6.2,0.5v20.3
		l-6.3-0.5c-7-0.6-10.3-5.2-10.3-11C14.2,15.4,18.1,10.9,24.6,11.5z"/>
	<path class="st2" d="M284,427.4C284,427.4,284,427.4,284,427.4l0-24c-14.1,0-20-6.6-22-9.8V287.3c2-3.2,7.9-9.8,22-9.8v-24
		c0,0,0,0,0,0v0h-68v24h0v0c14.1,0,20,6.6,22,9.8v106.3c-2,3.2-7.9,9.8-22,9.8v0h0v24L284,427.4L284,427.4z"/>
	<path class="st2" d="M341.8,502.4C341.8,502.4,341.8,502.4,341.8,502.4l0-24c-14.1,0-20-6.6-22-9.8V362.3c2-3.2,7.9-9.8,22-9.8v-24
		c0,0,0,0,0,0v0h-68v24h0v0c14.1,0,20,6.6,22,9.8v106.3c-2,3.2-7.9,9.8-22,9.8v0h0v24L341.8,502.4L341.8,502.4z"/>
</g>
</svg>
