<svg id="Layer_12" data-name="Layer 12" xmlns="http://www.w3.org/2000/svg" viewBox="0 0 305.2034 218.2826"><defs><style>.cls-1{fill:#231f20;}.cls-2{fill:none;}.cls-3{fill:#39b54a;}.cls-4{fill:#8dc63f;}.cls-5{fill:#fbb040;}.cls-6{fill:#ed1c24;}.cls-7{fill:#ef4136;}.cls-8{fill:#f7941e;}.cls-10,.cls-9{fill:#414042;}.cls-10{fill-rule:evenodd;}</style></defs><title>hhf-logo</title><path class="cls-1" d="M215.69,63.4744L230.232,82.0551l1.4124-1.0694L216.7091,62.6628Z"/><path class="cls-1" d="M215.396,69.1178l11.1481,14.1684,1.2994-1.1359L216.5818,68.1881Z"/><path class="cls-1" d="M207.7594,71.3383l10.908,13.7843,1.26-1.0122-11.13-13.76Z"/><path class="cls-1" d="M211.5682,70.16l11.0435,14.172,1.33-1.2285L212.6567,69.291Z"/><path class="cls-2" d="M148.21,21.29c4.7228,2.2743,9.4842,3.5915,14.3058-.01,1.1286-.843,2.7141-1.0744,4.235-1.6415L164.6886,17.89a15.08,15.08,0,0,0-4.0017,1.56c-4.8216,3.6017-9.5829,2.2845-14.3058.01-0.1309-.063-0.2676-0.1385-0.4062-0.2228A5.21,5.21,0,0,0,148.21,21.29Z"/><path class="cls-2" d="M189.6309,18.4753a29.5465,29.5465,0,0,1,5.1045,3.6907,28.8594,28.8594,0,0,0-6.933-5.5192c-8.6086-4.9033-18.2559-5.7747-28.0123-5.4245a7.9444,7.9444,0,0,0-1.9994.5428l2.0634,1.7488a6.0575,6.0575,0,0,1,1.7645-.4631C171.375,12.7007,181.0222,13.5721,189.6309,18.4753Z"/><path class="cls-2" d="M196.5946,46.6839l-0.0547-.0758-1.6451,1.7786c1.4323-.135,2.7294.0061,3.7214-0.2179l3.7521-4.0565Z"/><path class="cls-2" d="M194.98,38.7341l-1.3944,1.7325,0.6345,0.6125L197.664,39.5l1.1071-1.3754Z"/><path class="cls-2" d="M197.3724,33.94L193.45,35.6371l-0.6826-.5483-2.2657,1.5037q0.0841,0.356.1682,0.7121l4.4119-.71,2.73-1.8115Z"/><path class="cls-2" d="M162.1614,62.8488h12l7.64-.8528q-0.0668-.4878-0.1337-0.9756h-9.3829L162.0739,62.322Z"/><path class="cls-2" d="M114.4052,81.7171l0.1453-.0209-5.8469-14.277c2.5109,0.0127,4.562.1944,6.0676,1.0463-1.4-2.47-4.138-2.8558-7.8962-2.8748,1.9531,4.7689,3.725,9.0957,5.9282,14.4756-0.1564-.1083-0.2891-0.2279-0.4352-0.3411A10.07,10.07,0,0,0,114.4052,81.7171Z"/><path class="cls-2" d="M161.0338,66.9083h13.8579l5.6143-.6082q-0.0393-.61-0.0784-1.22H172.385L161.0324,66.347Q161.0331,66.6277,161.0338,66.9083Z"/><path class="cls-2" d="M217.6546,41.5523a47.6265,47.6265,0,0,0,3.8956-3.903l0,0.0019,10.7966-7.57c-0.4739-.7089-0.9441-1.4177-1.4022-2.1274l-11.223,7.8691,0-.0018a47.6361,47.6361,0,0,1-3.8957,3.9029c-9.3542,7.6121-18.7628,15.1573-28.2419,22.7961a74.0706,74.0706,0,0,0,11.3052,14.2707,76.2955,76.2955,0,0,1-9.4767-12.4422C198.8918,56.71,208.3,49.1644,217.6546,41.5523Z"/><path class="cls-2" d="M160.7131,70.92h15.6915l1.3784-.13-0.1822-1.6982H173.45l-12.7346,1.38Z"/><path class="cls-2" d="M116.3165,36.4072c3.78-16.1737,17.0893-24.2891,34.0938-23.491,0.5729-.15,1.15-0.3022,1.7314-0.474a3.5923,3.5923,0,0,0-.7593-1.1519c-18.3339-1.866-32.9089,6.236-36.8945,23.2885-4.4136,18.8838.6334,35.2823,13.6243,49.157l0.181,0.0086C116.5288,70.2621,112.0943,54.4717,116.3165,36.4072Z"/><path class="cls-2" d="M159.688,45.4433q0.0008,0.6154.0015,1.2308h16.218l5.4056-.5012-0.1084-1.3273h-5.6169c-1.5771.2253-3.1561,0.427-4.7413,0.54C167.1446,45.65,163.4089,45.4433,159.688,45.4433Z"/><path class="cls-2" d="M159.6914,50.58h16.883l5.063-.5156-0.1188-1.3129h-6.47L159.72,50.1732Z"/><path class="cls-2" d="M161.6169,54.6324H175.26l6.8206-.8528q-0.0607-.4878-0.1213-0.9756H174.525L161.63,54.1171Z"/><path class="cls-2" d="M163.76,58.8342h9.5012l7.9914-1.0187q-0.0728-.4048-0.1454-0.81h-8.3757l-9.0433,1.1308Q163.7239,58.4854,163.76,58.8342Z"/><path class="cls-2" d="M159.3773,42.6107H176.49c1.2961-.2026,2.5922-0.4066,3.89-0.5885q-0.0515-.62-0.103-1.24h-5.2455L159.3885,42.12Z"/><path class="cls-2" d="M177.3944,30.1947l0.7908-.0855q-0.0889-.8715-0.1779-1.743h-6.5429L157.13,30.1947h20.2649Z"/><path class="cls-2" d="M191.6481,32.0657l-0.0537-.08L190.79,33.1406l0.8317,0.668L194.206,32.69l1.7295-2.4827Z"/><path class="cls-2" d="M187.2111,26.3575l2.6085,3.88,0.464-.2011-2.5206-3.749Z"/><path class="cls-2" d="M159.3468,34.6252h17.039l1.8859-.1672q-0.0589-.8307-0.1177-1.6613H172.07l-12.7338,1.3768Z"/><path class="cls-2" d="M159.2448,38.705h16.8667l3.27-.28q-0.0653-.7745-0.13-1.549h-5.8033l-14.2114,1.26Z"/><path class="cls-2" d="M196.0485,42.9077l-0.227-.2191-1.4732,1.5881,0.4178,0.5786,4.38-1.9507,2.2885-2.467Z"/><path class="cls-2" d="M72.9641,46.7986q-0.1862-1.3693-.3723-2.7386l-1.2226-.0949c-0.334,1.437-.67,2.88-1.1183,4.8112L71.66,52.4109C72.215,50.0216,72.6041,48.3474,72.9641,46.7986Z"/><path class="cls-2" d="M76.2833,52.5062l0.8829-6.908L76.98,42.6732l-1.4813-.16q-0.3723,2.9133-.7448,5.8266,0.2834,2.0846.5668,4.1691Z"/><path class="cls-2" d="M81.8733,43.1514V41.084l-1.4816-.1756a5.9772,5.9772,0,0,0-1.5457,4.1859q0.2854,4.4729.5707,8.9459C81.8938,50.6229,79.43,46.2547,81.8733,43.1514Z"/><path class="cls-2" d="M67.8148,49.7986L68.86,48.0768c-0.3893-1.0045-.73-1.8831-1.1451-2.9544L65.9862,47.97l-5.7455-1.6593c3.5251,8.61,7.8831,15.5774,13.7752,21.1207-4.9783-5.2258-8.7975-11.601-11.9467-19.2922Z"/><path class="cls-2" d="M93.4091,64.0917c-0.5756,1.2381-1.1767,2.4659-1.7631,3.7a2.5585,2.5585,0,0,0,2.2781-1.4021q0.356-.8765.7186-1.769Z"/><path class="cls-2" d="M159.9994,78.9l11.741,0.5446,2.9163-.2007q-0.0453-.7061-0.0906-1.4119l-5.1742-.24-9.3926.8Q159.9994,78.6459,159.9994,78.9Z"/><path class="cls-2" d="M109.826,81.3q-2.7458-6.3129-5.4914-12.626l1.8954-1.2244a8.65,8.65,0,0,0-1.3433-2.0237c-0.1338.0482-.2678,0.0957-0.4018,0.1413l-1.9788,1.2783,5.4913,12.626-0.6234.2745c0.3068,0.7418.6147,1.4863,0.9215,2.2279Z"/><path class="cls-2" d="M83.7019,55.44c3.0771-3.5648-.6994-8.8862,2.7162-12.7445,0.0616-1.1163.1242-2.2521,0.189-3.4271A6.5005,6.5005,0,0,0,83.4255,42.88l0.2764,0.0328V55.44Z"/><path class="cls-2" d="M180.5039,76.2905c1.6819-3.1424,3.9752-5.962,6.3132-9.3523q-0.83-1.0325-1.6619-2.0674c-2.3956,3.4995-4.7579,6.374-6.48,9.5912a12.5542,12.5542,0,0,0-.8577,2.0273l0.0278,0.3825-0.152.0129A12.3374,12.3374,0,0,0,177.25,81.44l1.8262-.2856A12.3913,12.3913,0,0,1,180.5039,76.2905Z"/><path class="cls-2" d="M94.1256,73.49L92.91,70.838c-3.4,3.908,1.0234,6.39.79,9.6639l1.6421,2.7767C96.5973,79.7576,91.74,77.2863,94.1256,73.49Z"/><path class="cls-2" d="M207.4131,87.739a39.1311,39.1311,0,0,0,5.6837,3.1329l2.8113-.1332a36.9758,36.9758,0,0,1-8.1306-3.4781l-0.0629.2272Z"/><path class="cls-2" d="M100.95,82.2586c-1.01-2.09-2.0373-4.1721-3.0262-6.2722-1.5708-3.3361-1.7423-3.7288.1688-4.61l-0.9672-2.2089c-2.7982,1.21-2.8077,1.2147-1.03,4.99,0.9888,2.1,2.0162,4.1821,3.0261,6.2722l-0.68.3176,1.0124,2.21Z"/><path class="cls-2" d="M87.5811,56.5923l1.4224,0.1889a13.066,13.066,0,0,0,.6034-2.6749c0.0324-1.7979-.2223-3.6006-0.1972-5.3992,0.1069-7.68.1383-8.0717,7.4827-7.8853,4.16,0.1056,8.2935,1.1794,12.29,1.9979,0.06-.48.12-0.9514,0.1812-1.4406-4.6118-.8143-9.439-2.2625-14.3-2.3858-4.9051-.1246-6.5421.0217-7.1244,2.4117,0.1589-.1042.321-0.2076,0.4962-0.3084C88.1228,46.7708,87.852,51.6816,87.5811,56.5923Z"/><path class="cls-2" d="M105.4392,81.6348c-1.0995-2.2607-2.2458-4.5-3.2888-6.7866-1.8956-4.156-2.1031-4.6631-.092-5.3621l-0.8829-2.1347c-2.985.9352-3.0078,0.9455-.8535,5.6683,1.0429,2.2865,2.1892,4.5259,3.2887,6.7866l-0.6622.3123,0.9766,2.23Z"/><path class="cls-2" d="M160.5132,75.088h14.9785l0.5252-.0447-0.1295-1.7838h-3.0594L160.5,74.4255Z"/><path class="cls-2" d="M87.4433,84.4377c-0.2805-2.0854-.4791-3.5624-0.6778-5.0394L87.223,79.32l-1.3159-1.9166-0.97.1667c0.1986,1.477.3973,2.954,0.6777,5.0394l-3.1658-1.9849-4.1632,3.5965c0.6072,0.518,1.2687,1.1025,1.9634,1.7119l4.0284-3.48Z"/><path class="cls-2" d="M91.7506,83.3464l-1.9939-6.8483,0.7031-.2128-1.1948-2.02-1.0359.3136c-0.0832.09-.1679,0.1742-0.2536,0.2535q0.9734,3.3429,1.9467,6.6859l-0.433.2676,1.4262,2.0771Z"/><path class="cls-3" d="M114.55,81.6962l0.1741-.0251,8.592,1.8364,0.2842,0.0135c-2.1176-2.7194-3.9094-5.75-5.8551-8.5977a13.0229,13.0229,0,0,1-2.2136-4.353,7.3269,7.3269,0,0,0-.7609-2.105c-1.5056-.8519-3.5568-1.0336-6.0676-1.0463Z"/><path class="cls-3" d="M100.1023,92.6516l6.18-1.18-2.798-1.24L101.61,87.16l1.2295-1.8853,4.6258-2.5583,6.94-.9993a10.07,10.07,0,0,1-2.0371-1.992c-4.2012-3.2563-4.2685-8.4911-6.1381-12.2758l-1.8954,1.2244Q107.08,74.9866,109.826,81.3l-1.53.6739c-0.3068-.7416-0.6147-1.4861-0.9215-2.2279l-0.907.3994-4.4086-10.659c-2.0111.699-1.8036,1.2061,0.092,5.3621,1.043,2.2866,2.1893,4.5259,3.2888,6.7866l-1.5142.7141-0.9766-2.23-0.8519.4017L98.093,71.3768c-1.9111.8809-1.74,1.2736-.1688,4.61,0.9889,2.1,2.0162,4.1821,3.0262,6.2722l-1.4964.6987-1.0124-2.21-0.8161.381c-1.1245-2.4542-2.25-4.91-3.5-7.6386-2.3856,3.7961,2.4717,6.2674,1.2169,9.7885L93.7,80.5019a3.5112,3.5112,0,0,1-.1864.9482L90.46,76.2853l-0.7031.2128,1.9939,6.8483-0.8353.5162-1.4262-2.0771-0.4023.2487L87.223,79.32l-0.4575.0786c0.1987,1.477.3973,2.9539,0.6778,5.0394l-3.1658-1.9849-4.0284,3.48A56.9811,56.9811,0,0,0,85.65,90.2639q2.0268,0.974,4.09,1.802l3.6735,0.2446Z"/><path class="cls-4" d="M109.1825,42.82c-3.9965-.8185-8.13-1.8923-12.29-1.9979-7.3444-.1865-7.3759.2057-7.4827,7.8853-0.0251,1.7986.23,3.6013,0.1972,5.3992a13.066,13.066,0,0,1-.6034,2.6749l-1.4224-.1889c0.2709-4.9107.5417-9.8215,0.8546-15.4956-0.1752.1008-.3373,0.2042-0.4962,0.3084a28.3657,28.3657,0,0,0-.3584,5.4734c-0.025,1.7986.23,3.6013,0.1972,5.3993a13.0669,13.0669,0,0,1-.6034,2.6749l-1.4224-.1889c0.2147-3.8939.43-7.7942,0.6655-12.0686-3.4156,3.8583.3609,9.18-2.7162,12.7445V42.9125L83.4255,42.88c-1.1906,3.5522,1.0178,7.7542-1.5522,10.7314v-10.46c-2.4437,3.1033.02,7.4716-2.4567,10.8888q-0.2854-4.473-.5707-8.9459c-0.11,2.377.32,4.94-1.2578,7.1173q-0.211-3.3067-.4219-6.6134l-0.8829,6.908-0.9629.0026q-0.2834-2.0846-.5668-4.1691l-0.2988,2.338-0.9628.0026q-0.2639-1.9408-.5278-3.8817c-0.36,1.5488-.7491,3.223-1.3044,5.6124l-1.4088-3.6348-0.42,1.8062c-0.3826-.9871-0.6892-1.7784-0.9711-2.5056l-1.0453,1.7219-5.7456-1.6592c3.1492,7.6912,6.9684,14.0663,11.9467,19.2922a47.7154,47.7154,0,0,0,6.4028,5.0593c3.7616,2.4873,5.9184,1.6774,7.6641-2.6415,1.0423-2.5787,2.3238-5.0607,3.4978-7.5862l1.2335,0.5286c-0.6888,1.696-1.3777,3.3919-1.9731,4.8577a3.1953,3.1953,0,0,0,.805.142c0.5864-1.2338,1.1876-2.4616,1.7631-3.7L94.6426,64.62q-0.3621.8914-.7186,1.769c0.9824-1.4047,1.7716-3.2166,4.56-2.2493,2.4133,0.837,5.8386-1.2438,8.2512-1.8632C107.5387,55.89,108.3011,49.8286,109.1825,42.82Zm-8.7366,16.2526-1.0347-.0016V44.7417l1.0347-.0407V59.0724Zm4.3945,1.0992-2.221-.0231q0.8119-7.8866,1.6237-15.7733l0.5974,0.1V60.1716Z"/><path class="cls-4" d="M88.229,74.5786l-0.3009.0911,0.0473,0.1625C88.0611,74.7527,88.1458,74.6688,88.229,74.5786Z"/><path class="cls-4" d="M104.8231,65.3483l-0.3383.2186c0.134-.0456.268-0.0931,0.4018-0.1413C104.864,65.4008,104.8461,65.3727,104.8231,65.3483Z"/><path class="cls-5" d="M208.8211,83.492l-0.2592.936c0.4154,0.262.8126,0.5433,1.2369,0.796,16.3469,9.7383,34.9653-.8241,35.6151-19.8924a46.4562,46.4562,0,0,0-5.8486-23.8709c-2.1271-3.9744-4.7479-7.6835-7.2186-11.38l-10.7966,7.57,0-.0019a47.6265,47.6265,0,0,1-3.8956,3.903c-9.3542,7.6121-18.7628,15.1573-28.242,22.796a76.2955,76.2955,0,0,0,9.4767,12.4422c0.58,0.5641,1.16,1.1291,1.7607,1.6691l6.4,1.56Zm24.4964-3.5041-13.83-17.5632,1.1146-.8979,14.0678,17.4321ZM232.31,46.5411L242.1944,58.92l-1.2011.9632-9.899-12.3675Zm-3.7542,1.2717,13.64,16.913L240.8882,65.77,227.4733,48.6786ZM222.68,42.6962l1.2546-.3152c0.5564,1.7864,1.0809,3.5834,1.6777,5.3561,0.6472,1.9227,1.3616,3.8229,2.0466,5.7329l13.7776,15.8771-1.671,1.3323q-6.147-8.515-12.2942-17.03h0l-2.4861-.9284-0.9917.9214,13.3,16.7249L236.05,71.46,223.0478,55.2908l-1.2782.8475,1.9637,4.2081L237.5573,76.31l-1.6473,1.32L223.432,60.62l0.0446-.0406-0.0447.0406-5.097-3.8749C224.1432,53.87,224.2885,48.581,222.68,42.6962Zm-4.736,3.1541c0.0825,4.7545.106,9.3393-6.1147,9.3561-0.98.0027-2.7327-1.7493-2.81-2.7878C208.7331,48.5583,212.7765,45.6386,217.9439,45.85Z"/><path class="cls-6" d="M177.8177,76.4893c-0.0431.1317-.0858,0.2631-0.1243,0.3954l0.152-.0129Z"/><path class="cls-6" d="M165.7193,81.5309l-0.2573-.0137,0.02,0.0076Z"/><path class="cls-7" d="M116.3165,36.4072c-4.2222,18.0645.2123,33.8549,11.9768,47.3371l7.6168,0.3624h8.0763l8.6154-2.77,4.0893-4.2995,2.5819,2.09,2.583,0.9974,9.8845-.68L159.9994,78.9q0-.254,0-0.508l9.3926-.8-11.2211-.5205q0-.254,0-0.508l17.3209-1.4754H160.5132L160.5,74.4255l12.3276-1.166H158.6847q-0.0063-.3312-0.0128-0.6625L176.4046,70.92H160.7131l0.002-.449,12.7346-1.38H158.8845l0.0021-.449,16.0051-1.7339H161.0338q-0.0006-.2806-0.0014-0.5613L172.385,65.08h-13.18l-0.0014-.5613,14.9574-1.67h-12l-0.0875-.5269L172.2847,61.02H160.3328l-0.0875-.5269,13.0158-1.6592H163.76q-0.0359-.3489-0.0719-0.6977l9.0433-1.1308h-10.8l-0.072-.6978L175.26,54.6324H161.6169l0.0134-.5153,12.8948-1.3132H159.7884q0.0068-.2577.0134-0.5153L176.5744,50.58h-16.883l0.0281-.4072,15.3289-1.4213H157.8629l0.0281-.4072,18.0165-1.6705H159.69q-0.0007-.6154-0.0015-1.2308c3.7209,0,7.4566.2071,11.1586-.0574,1.5852-.1133,3.1641-0.315,4.7413-0.54H157.861Q157.86,44.23,157.86,43.6148c3.7209,0,7.4566.2071,11.1586-.0575,2.5-.1786,4.9866-0.558,7.472-0.9466H159.3773l0.0112-.4912,15.6429-1.3373H157.5487l0.0113-.4911,18.5515-1.586H159.2448l-0.0087-.5682,14.2114-1.26H157.4162q-0.0044-.2842-0.0087-0.5683l18.9783-1.683h-17.039l-0.011-.4517L172.07,32.7967H157.5183l-0.0109-.4517,19.8871-2.15H157.13l14.335-1.8286H155.301l30.6334-3.9075,1.2767,1.8989,0.5518-.07,2.5206,3.749,3.8234-1.657-2.5126,3.6067,0.0537,0.08,4.2874-1.8581L194.206,32.69l1.3379-.5789,0.4392,0.8434-3.2155,2.134,0.6826,0.5483,3.9223-1.6972,0.4392,0.8435-2.73,1.8115,1.8606-.2993L194.98,38.7341l3.7912-.61L197.664,39.5l1.9418-.8906-3.7843,4.08,0.227,0.2191,5.3858-2.47-2.2885,2.467,1.3939-.6208-4,4.3243,0.0547,0.0758,5.7737-2.5716-3.7521,4.0565a2.5173,2.5173,0,0,0,.8121-0.3174c1.4794-.9468,3.3763-2.4661,3.59-3.9568,1.0063-7.02-2.4546-13.0322-5.89-18.6061a21.2494,21.2494,0,0,0-2.3925-3.1224,29.5465,29.5465,0,0,0-5.1045-3.6907c-8.6086-4.9032-18.2559-5.7746-28.0123-5.4244a6.0575,6.0575,0,0,0-1.7645.4631l5.0678,4.2953c-0.0775.0289-.1555,0.0538-0.2333,0.0811l2.0618,1.7474c-1.5209.5671-3.1064,0.7985-4.235,1.6415-4.8216,3.6017-9.5829,2.2845-14.3058.01a5.21,5.21,0,0,1-2.2347-2.0514c-0.9409-.5724-1.9738-1.5819-1.9553-2.3189,0.0234-.9349,1.2889-2.1856,2.3115-2.6714a23.0154,23.0154,0,0,1,4.0792-1.3316C133.4058,12.1181,120.0967,20.2335,116.3165,36.4072Zm67.437-16.1347c-5.8484,4.4874-12.6278,4.7291-19.53,4.4075Z"/><path class="cls-8" d="M179.0758,81.1541l9.0284-1.412,8.6835-1.2337c-3.5032-3.5671-6.733-7.5417-9.9706-11.57-2.3381,3.39-4.6313,6.21-6.3132,9.3523A12.3913,12.3913,0,0,0,179.0758,81.1541Z"/><path class="cls-8" d="M205.5014,89.332l1.168,1.8442,6.4273-.3044a39.1311,39.1311,0,0,1-5.6837-3.1329Z"/><path class="cls-9" d="M229.9289,24.412c-2.9218,4.1353-6.0116,5.0687-11.2019,9.64-1.127.7143-1.7161,1.1544-2.553,1.7231-3.2835,2.2312-6.3328,4.8072-9.6909,7.4268C201.747,15.1772,182.9694,7.504,157.631,8.2522c0.73-1.8993,1.4916-3.0323,1.5228-4.1851A16.5432,16.5432,0,0,0,158.2643,0a27.343,27.343,0,0,0-4.4879,1.4317c-0.5109.2558-.7923,1.4846-0.75,2.2457,0.2343,4.2063-2.2108,4.8581-5.6108,4.4924a22.9851,22.9851,0,0,0-3.4331.0347c-16.626.7242-28.6912,10.7544-32.5244,25.9929-0.43,1.71-.87,3.4167-0.9647,3.7879-7.1743-.6262-14.0767-2.56-20.4781-1.4923-11.1382,1.8582-21.9673,5.5692-33.1816,8.5718,4.4888,13.66,12.7163,24.0219,24.8727,31.9977l-8.569,6.6332c2.7993,1.3386,7.2009,5.27,10.8384,7.9865L89.74,92.0659q-2.0635-.8238-4.09-1.802a56.9811,56.9811,0,0,1-5.4013-4.3312c-0.6947-.6094-1.3561-1.1939-1.9634-1.7119l4.1632-3.5965,3.1658,1.9849c-0.28-2.0854-.4791-3.5624-0.6777-5.0394l0.97-.1667L87.223,79.32l1.8638,2.7145,0.4023-.2487,0.433-.2676q-0.9734-3.343-1.9467-6.6859L87.9281,74.67l0.3009-.0911,1.0359-.3136,1.1948,2.02L93.5141,81.45A3.5112,3.5112,0,0,0,93.7,80.5019c0.2334-3.2743-4.19-5.7559-.79-9.6639L94.1256,73.49c1.25,2.7281,2.3754,5.1844,3.5,7.6386l0.8161-.381,0.68-.3176c-1.01-2.09-2.0373-4.1721-3.0261-6.2722-1.7776-3.7753-1.7681-3.78,1.03-4.99l0.9672,2.2089,4.0035,9.1435,0.8519-.4017,0.6622-.3123c-1.0995-2.2607-2.2458-4.5-3.2887-6.7866-2.1542-4.7228-2.1315-4.7332.8535-5.6683l0.8829,2.1347,4.4086,10.659,0.907-.3994,0.6234-.2745-5.4913-12.626,1.9788-1.2783,0.3383-.2186c0.0229,0.0245.0409,0.0526,0.0635,0.0773a8.65,8.65,0,0,1,1.3433,2.0237c1.87,3.7847,1.937,9.0195,6.1381,12.2758,0.1461,0.1132.2788,0.2328,0.4352,0.3411-2.2032-5.38-3.9752-9.7067-5.9282-14.4756,3.7582,0.019,6.4966.4046,7.8962,2.8748a7.3269,7.3269,0,0,1,.7609,2.105,13.0229,13.0229,0,0,0,2.2136,4.353c1.9457,2.8474,3.7375,5.8782,5.8551,8.5977l4.5115,0.2147c-12.9909-13.8747-18.038-30.2732-13.6243-49.157,3.9856-17.0524,18.5606-25.1545,36.8945-23.2885a3.5923,3.5923,0,0,1,.7593,1.1519c-0.5812.1718-1.1586,0.3242-1.7314,0.474a23.0154,23.0154,0,0,0-4.0792,1.3316c-1.0226.4858-2.2881,1.7366-2.3115,2.6714-0.0185.737,1.0143,1.7465,1.9553,2.3189,0.1385,0.0843.2753,0.16,0.4062,0.2228,4.7229,2.2743,9.4842,3.5915,14.3058-.01a15.08,15.08,0,0,1,4.0017-1.56c0.0778-.0273.1558-0.0522,0.2333-0.0811L159.854,13.514l-2.0634-1.7488a7.9444,7.9444,0,0,1,1.9994-.5428c9.7564-.35,19.4037.5212,28.0123,5.4245a28.8594,28.8594,0,0,1,6.933,5.5192,21.2494,21.2494,0,0,1,2.3925,3.1224c3.4358,5.5739,6.8967,11.5861,5.89,18.6061-0.2137,1.4907-2.1107,3.01-3.59,3.9568a2.5173,2.5173,0,0,1-.8121.3174c-0.992.224-2.2892,0.0829-3.7214,0.2179l1.6451-1.7786,4-4.3243-1.3939.6208-4.38,1.9507-0.4178-.5786,1.4732-1.5881,3.7843-4.08L197.664,39.5l-3.444,1.5795-0.6345-.6125,1.3944-1.7325,1.9626-2.4384-1.8606.2993-4.4119.71q-0.084-.356-0.1682-0.7121l2.2657-1.5037,3.2155-2.134-0.4392-.8434-1.3379.5789-2.5844,1.1182-0.8317-.668,0.8044-1.1548,2.5126-3.6067-3.8234,1.657-0.464.2011-2.6085-3.88-1.2767-1.8989L155.301,28.3661h22.7064q0.089,0.8716.1779,1.743l-0.7908.0855-19.8871,2.15,0.0109,0.4517H178.154q0.0588,0.8307.1177,1.6613l-1.8859.1672-18.9783,1.683q0.0043,0.2842.0087,0.5683h21.8345q0.0652,0.7744.13,1.549l-3.27.28L157.56,40.291l-0.0113.4911H180.277q0.0515,0.62.103,1.24c-1.2976.1819-2.5937,0.3859-3.89,0.5885-2.4855.3886-4.9716,0.7679-7.472,0.9466-3.702.2646-7.4377,0.0575-11.1586,0.0575q0.0007,0.6154.0015,1.2308h23.3438l0.1084,1.3273-5.4056.5012L157.891,48.3447l-0.0281.4072h23.6557l0.1188,1.3129-5.063.5156-16.7726,1.7081q-0.0067.2576-.0134,0.5153h22.171q0.0607,0.4878.1213,0.9756l-6.8206.8528L161.8595,56.308l0.072,0.6978h19.1757q0.0727,0.4048.1454,0.81l-7.9914,1.0187-13.0158,1.6592,0.0875,0.5269h21.3347q0.0668,0.4879.1337,0.9756l-7.64.8528-14.9574,1.67,0.0014,0.5613h21.2222q0.0392,0.61.0784,1.22l-5.6143.6082-16.0051,1.7339-0.0021.449h18.7162l0.1822,1.6982-1.3784.13L158.6719,72.597q0.0064,0.3312.0128,0.6625h17.2028l0.1295,1.7838-0.5252.0447-17.3209,1.4754q0,0.2541,0,.508l11.2211,0.5205,5.1742,0.24q0.0453,0.706.0906,1.4119l-2.9163.2007-9.8845.68,3.6061,1.3925,0.2573,0.0137,9.4139,0.24,2.1164-.331a12.3374,12.3374,0,0,1,.4438-4.5549c0.0385-.1324.0812-0.2637,0.1243-0.3954a12.5542,12.5542,0,0,1,.8577-2.0273c1.722-3.2172,4.0842-6.0918,6.48-9.5912q0.8329,1.0344,1.6619,2.0674c3.2376,4.0284,6.4673,8.0031,9.9706,11.57l2.5663-.3646L200.65,78.46c-0.6009-.54-1.1806-1.105-1.7607-1.6691A74.0706,74.0706,0,0,1,187.5841,62.52c9.4792-7.6387,18.8878-15.184,28.2419-22.7961a47.6361,47.6361,0,0,0,3.8957-3.9029l0,0.0018,11.223-7.8691c0.4581,0.71.9283,1.4185,1.4022,2.1274,2.4708,3.6963,5.0915,7.4053,7.2186,11.38a46.4562,46.4562,0,0,1,5.8486,23.8709c-0.65,19.0683-19.2682,29.6307-35.6151,19.8924-0.4243-.2527-0.8215-0.534-1.2369-0.796l-0.7844,2.8325a36.9758,36.9758,0,0,0,8.1306,3.4781l2.4415-.1157,15.7988-.73L233.5228,91.45a38.4956,38.4956,0,0,0,13.05-17.3391C252.3474,59.3973,243.511,34.4507,229.9289,24.412ZM98.4843,64.14c-2.7886-.9672-3.5778.8446-4.56,2.2493a2.5585,2.5585,0,0,1-2.2781,1.4021,3.1953,3.1953,0,0,1-.805-0.142c0.5954-1.4658,1.2843-3.1617,1.9731-4.8577l-1.2335-.5286c-1.174,2.5255-2.4555,5.0075-3.4978,7.5862-1.7457,4.3189-3.9025,5.1288-7.6641,2.6415a47.7154,47.7154,0,0,1-6.4028-5.0593c-5.8922-5.5433-10.25-12.511-13.7752-21.1207L65.9862,47.97l1.7288-2.8478c0.4152,1.0713.7558,1.95,1.1451,2.9544,0.2819,0.7272.5885,1.5185,0.9711,2.5056l0.42-1.8062c0.4487-1.9307.7842-3.3741,1.1183-4.8112L72.5918,44.06q0.1861,1.3694.3723,2.7386,0.2639,1.9408.5278,3.8817l0.9628-.0026,0.2988-2.338q0.3724-2.9133.7448-5.8266l1.4813,0.16,0.1866,2.925q0.2109,3.3067.4219,6.6134c1.5781-2.177,1.1481-4.74,1.2578-7.1173a5.9772,5.9772,0,0,1,1.5457-4.1859l1.4816,0.1756V53.6111c2.57-2.9772.3616-7.1792,1.5522-10.7314a6.5005,6.5005,0,0,1,3.1816-3.6116c-0.0648,1.175-.1274,2.3107-0.189,3.4271-0.2357,4.2744-.4508,8.1747-0.6655,12.0686l1.4224,0.1889a13.0669,13.0669,0,0,0,.6034-2.6749c0.0325-1.798-.2222-3.6007-0.1972-5.3993a28.3657,28.3657,0,0,1,.3584-5.4734c0.5823-2.39,2.2193-2.5363,7.1244-2.4117,4.8607,0.1234,9.6879,1.5715,14.3,2.3858-0.0615.4893-.1208,0.9608-0.1812,1.4406-0.8813,7.0088-1.6437,13.07-2.447,19.4571C104.3228,62.8962,100.8976,64.977,98.4843,64.14Z"/><path class="cls-9" d="M183.7534,20.2725l-19.53,4.4075C171.1256,25.0016,177.905,24.76,183.7534,20.2725Z"/><path class="cls-9" d="M223.4766,60.58l-0.0447.0406q6.2391,8.5044,12.478,17.009l1.6473-1.32-13.824-15.9631L221.77,56.1383l1.2782-.8475L236.05,71.46l1.243-1.0924-13.3-16.7249,0.9917-.9214L227.471,53.65h0q6.1472,8.5148,12.2942,17.03l1.671-1.3323L227.6587,53.47c-0.6851-1.91-1.3994-3.81-2.0466-5.7329-0.5967-1.7728-1.1213-3.57-1.6777-5.3561l-1.2546.3152c1.6086,5.8848,1.4634,11.1735-4.345,14.0493l5.097,3.8749Z"/><path class="cls-9" d="M211.8292,55.2064c6.2207-.0168,6.1972-4.6017,6.1147-9.3561-5.1674-.2117-9.2108,2.708-8.9244,6.5684C209.0965,53.4572,210.8494,55.2091,211.8292,55.2064Z"/><path class="cls-9" d="M242.1954,64.7259l-13.64-16.913-1.0821.8658L240.8882,65.77Z"/><path class="cls-9" d="M219.487,62.4247l13.83,17.5632,1.352-1.029L220.6016,61.5269Z"/><path class="cls-9" d="M242.1944,58.92L232.31,46.5411l-1.2154.975,9.899,12.3675Z"/><path class="cls-9" d="M99.4111,59.0707l1.0347,0.0016V44.701l-1.0347.0407v14.329Z"/><path class="cls-9" d="M102.6193,60.1485l2.221,0.0231V44.4757l-0.5974-.1Q103.4311,52.2619,102.6193,60.1485Z"/><path class="cls-10" d="M235.5741,105.1486a7.6628,7.6628,0,0,1,1.8857-3,5,5,0,0,1,.8753.41,1.4012,1.4012,0,0,0,1.4745.0244,1.2,1.2,0,0,0,.3786-2.0372A10.6894,10.6894,0,0,0,237.96,99.418a1.0625,1.0625,0,0,0-.73.1556c-0.69.346-1.3525,0.745-2.0413,1.0983a3.4237,3.4237,0,0,0-1.7962,2.6186,4.5734,4.5734,0,0,0,1.1725,4.3081c0.7279,0.7393,1.4428,1.4916,2.2025,2.1959a4.4124,4.4124,0,0,0,2.2277,1.1269,4.1406,4.1406,0,0,0,4.1753-1.42,13.262,13.262,0,0,0,3.6013-9.7593,4.2012,4.2012,0,0,0-.1473-0.9527c-0.2834-.9966-0.574-1.9924-0.9071-2.9751a4.4393,4.4393,0,0,0-.6547-1.4C243.157,92.0875,241.1206,89.9226,238,89.24a19.9733,19.9733,0,0,0-8.0844-.5985,13.126,13.126,0,0,1-2.3278.1474,46.247,46.247,0,0,0-6.5879.4625c-1.2115.1823-2.4459,0.245-3.6738,0.3322-2.4557.1775-4.9105,0.3574-7.3687,0.4951a20.9764,20.9764,0,0,1-2.3254-.0815,7.6409,7.6409,0,0,1-.9437-0.2019c0.6131-.5553,1.0039-0.9559,1.446-1.2922a3.19,3.19,0,0,0,1.1383-1.7562,6.43,6.43,0,0,0-.33-5.27,2.3217,2.3217,0,0,1-.2964-0.7141c-0.272-1.4615-1.3224-2.1169-2.58-2.63A19.98,19.98,0,0,0,195.39,76.8941c-1.9306.2809-3.7943,0.8354-5.6825,1.2905-2.64.6367-5.3242,1.1008-7.9973,1.6a61.4241,61.4241,0,0,1-14.529.7719,11.284,11.284,0,0,1-5.8584-1.65,8.795,8.795,0,0,0-1.2189-.5936,4.35,4.35,0,0,1-2.2717-2.5257c-0.1645-.4217-0.333-0.84-0.5342-1.2466a2.1213,2.1213,0,0,0-.3745-0.4234,1.8689,1.8689,0,0,0-1.6691,1.8874c-0.1669,2.0185-1.381,3.0851-3.0159,3.9327a23.03,23.03,0,0,1-5.4789,1.9207,40.5686,40.5686,0,0,1-13.5365.5073c-0.1938-.02-0.3884-0.0374-0.583-0.0448a85.5681,85.5681,0,0,1-9.8529-1.0772c-1.7921-.272-3.5858-0.6041-5.391-0.72a26.2648,26.2648,0,0,0-4.65.15,29.7775,29.7775,0,0,0-9.2146,2.2179,5.7649,5.7649,0,0,0-1.7326,1.2067c-1.315,1.341-1.385,3.0036-1.1709,4.7184a1.8406,1.8406,0,0,0,.4772.8191c0.5276,0.64,1.0861,1.2547,1.7506,2.0185a3.3654,3.3654,0,0,1-.78.1905c-2.2635-.1181-4.5434-0.1261-6.7865-0.4136a152.3646,152.3646,0,0,0-20.148-1.442,31.2946,31.2946,0,0,1-3.6827-.29,10.5878,10.5878,0,0,0-6.399,1.1171,12.043,12.043,0,0,0-4.1957,3.6787,12.4368,12.4368,0,0,0-2.1389,4.7543,11.0833,11.0833,0,0,0,.3639,6.5032,11.4957,11.4957,0,0,0,3.3928,4.18,10.5607,10.5607,0,0,0,4.6069,1.9313,4.2274,4.2274,0,0,0,4.05-1.2426,7.6875,7.6875,0,0,0,2.2293-7.1163,5.0986,5.0986,0,0,0-4.0915-4.6387,11.207,11.207,0,0,0-3.0713-.3526,1.4855,1.4855,0,0,0-.9161.228,5.6019,5.6019,0,0,0-1.6911,2.564,2.8614,2.8614,0,0,0,.5667,2.3807,1.9359,1.9359,0,0,0,1.1863,1.1489c0.3673-.2248.846-0.5179,1.3167-0.8037a2.1917,2.1917,0,0,0,.0349-0.6318c-0.1709-.6082-0.3778-1.205-0.5748-1.8133,2.9076-.6937,5.2949,1.06,5.2469,3.8081a6.5692,6.5692,0,0,1-.4153,2.0819,2.4028,2.4028,0,0,1-2.7227,1.6855,8.0791,8.0791,0,0,1-7.4274-5.87,7.0931,7.0931,0,0,1-.0521-3.6567,9.3232,9.3232,0,0,1,5.9006-6.93,8.1859,8.1859,0,0,1,2.0837-.3908,13.6511,13.6511,0,0,1,1.7506.013q7.477,0.243,14.9524.4983a13.1635,13.1635,0,0,1,1.7326.1929c3.8374,0.6619,7.7213.9152,11.5986,1.1912a37.1785,37.1785,0,0,0,6.7866-.2915,4.1291,4.1291,0,0,0,3.011-1.8426,1.1624,1.1624,0,0,0-.4543-1.7823,10.4716,10.4716,0,0,0-1.2882-.4152c-0.868-.2655-1.7571-0.4763-2.5957-0.8143a2.1383,2.1383,0,0,1-1.5-1.6618,1.8893,1.8893,0,0,1,1.4119-1.8874,12.7766,12.7766,0,0,1,1.8149-.6864,36.9841,36.9841,0,0,1,8.4011-1.5039,33.161,33.161,0,0,1,4.2674.1783c2.9532,0.3624,5.8917.87,8.8441,1.2482,1.9892,0.2556,3.9922.4812,5.9968,0.5594,2.5843,0.0993,5.176.0952,7.762,0.0293a26.0768,26.0768,0,0,0,6.8622-1.2237c1.1139-.3323,2.2123-0.7263,3.3017-1.1343a10.0015,10.0015,0,0,0,4.7608-3.5247,0.8938,0.8938,0,0,1,.2776-0.1873c1.9867,1.1187,3.93,2.2578,5.9227,3.3025a5.9109,5.9109,0,0,0,2.2033.6416c1.8743,0.1507,3.7568.2011,5.636,0.2435a21.4186,21.4186,0,0,0,4.4506-.3134c1.6472-.3078,3.3457-0.3453,5.0067-0.5863,2.4972-.3631,4.9953-0.7491,7.4713-1.2254a31.4192,31.4192,0,0,0,3.5354-1.0471,7.8627,7.8627,0,0,1,3.2365-.5219c1.1456,0.12,2.0665-.6913,3.1779-0.66a24.758,24.758,0,0,1,7.9949,1.2808,2.9039,2.9039,0,0,1,1.687,1.5063c0.2866,0.5814.6237,1.1383,0.9,1.7246a3.079,3.079,0,0,1-.9941,3.6274,5.4718,5.4718,0,0,1-3.5973,1.1977,2.55,2.55,0,0,0-2.0185.5008c-0.5366.8582-.1507,1.5536,0.2907,2.3286a2.1815,2.1815,0,0,0,1.76,1.0073,31.0105,31.0105,0,0,0,10.6264.2654c1.464-.23,2.9744-0.16,4.4627-0.25,0.969-.0578,1.9363-0.1555,2.9052-0.237,2.0665-.1718,4.1314-0.3525,6.1987-0.5154,1.1635-.0929,2.327-0.2077,3.4906-0.2223,1.0308-.0131,2.0649.0838,3.0933,0.1644a19.6333,19.6333,0,0,0,2.3148.2508,6.8735,6.8735,0,0,1,5.8266,2.89,6.1268,6.1268,0,0,0,.443.6367c1.6243,1.5161,2.0176,3.6013,2.489,5.6035a6.3517,6.3517,0,0,1-.87,4.3064,12.5849,12.5849,0,0,1-1.3109,1.9273,3.1338,3.1338,0,0,1-4.89.5138,8.4068,8.4068,0,0,1-.6644-0.7068C236.688,106.3406,236.1636,105.78,235.5741,105.1486Z"/><path class="cls-10" d="M69.6293,187.2516a7.6628,7.6628,0,0,1-1.8857,3,5,5,0,0,1-.8753-0.41,1.4012,1.4012,0,0,0-1.4745-.0244,1.2,1.2,0,0,0-.3786,2.0372,10.6894,10.6894,0,0,0,2.2285,1.1285,1.0625,1.0625,0,0,0,.73-0.1556c0.69-.346,1.3525-0.745,2.0413-1.0983a3.4237,3.4237,0,0,0,1.7962-2.6186,4.5734,4.5734,0,0,0-1.1725-4.3081c-0.7279-.7393-1.4428-1.4916-2.2025-2.1959a4.4124,4.4124,0,0,0-2.2277-1.1269,4.1406,4.1406,0,0,0-4.1753,1.42,13.262,13.262,0,0,0-3.6013,9.7593,4.2012,4.2012,0,0,0,.1473.9527c0.2834,0.9966.574,1.9924,0.9071,2.9751a4.4393,4.4393,0,0,0,.6547,1.4c1.9061,2.3263,3.9425,4.4912,7.0634,5.1736a19.9733,19.9733,0,0,0,8.0844.5985,13.126,13.126,0,0,1,2.3278-.1474,46.247,46.247,0,0,0,6.5879-.4625c1.2115-.1823,2.4459-0.245,3.6738-0.3322,2.4557-.1775,4.9105-0.3574,7.3687-0.4951a20.9764,20.9764,0,0,1,2.3254.0815,7.6409,7.6409,0,0,1,.9437.2019c-0.6131.5553-1.0039,0.9559-1.446,1.2922a3.19,3.19,0,0,0-1.1383,1.7562,6.43,6.43,0,0,0,.33,5.27,2.3217,2.3217,0,0,1,.2964.7141c0.272,1.4615,1.3224,2.1169,2.58,2.63a19.98,19.98,0,0,0,10.6769,1.2384c1.9306-.2809,3.7943-0.8354,5.6825-1.2905,2.64-.6367,5.3242-1.1008,7.9973-1.6a61.4241,61.4241,0,0,1,14.529-.7719,11.284,11.284,0,0,1,5.8584,1.65,8.795,8.795,0,0,0,1.2189.5936,4.35,4.35,0,0,1,2.2717,2.5257c0.1645,0.4217.333,0.84,0.5342,1.2466a2.1213,2.1213,0,0,0,.3745.4234,1.8689,1.8689,0,0,0,1.6691-1.8874c0.1669-2.0185,1.381-3.0851,3.0159-3.9327a23.03,23.03,0,0,1,5.4789-1.9207,40.5686,40.5686,0,0,1,13.5365-.5073c0.1938,0.02.3884,0.0374,0.583,0.0448a85.5681,85.5681,0,0,1,9.8529,1.0772c1.7921,0.272,3.5858.6041,5.391,0.72a26.2648,26.2648,0,0,0,4.65-.15,29.7775,29.7775,0,0,0,9.2146-2.2179,5.7649,5.7649,0,0,0,1.7326-1.2067c1.315-1.341,1.385-3.0036,1.1709-4.7184a1.8406,1.8406,0,0,0-.4772-0.8191c-0.5276-.64-1.0861-1.2547-1.7506-2.0185a3.3654,3.3654,0,0,1,.78-0.1905c2.2635,0.1181,4.5434.1261,6.7865,0.4136a152.3646,152.3646,0,0,0,20.148,1.442,31.2945,31.2945,0,0,1,3.6827.29,10.5878,10.5878,0,0,0,6.399-1.1171,12.043,12.043,0,0,0,4.1957-3.6787,12.4368,12.4368,0,0,0,2.1389-4.7543,11.0833,11.0833,0,0,0-.3639-6.5032,11.4957,11.4957,0,0,0-3.3928-4.18,10.5607,10.5607,0,0,0-4.6069-1.9313,4.2274,4.2274,0,0,0-4.05,1.2426,7.6875,7.6875,0,0,0-2.2293,7.1163,5.0986,5.0986,0,0,0,4.0915,4.6387,11.207,11.207,0,0,0,3.0713.3526,1.4855,1.4855,0,0,0,.9161-0.228,5.6019,5.6019,0,0,0,1.6911-2.564,2.8614,2.8614,0,0,0-.5667-2.3807,1.9359,1.9359,0,0,0-1.1863-1.1489c-0.3673.2248-.846,0.5179-1.3167,0.8037a2.1917,2.1917,0,0,0-.0349.6318c0.1709,0.6082.3778,1.205,0.5748,1.8133-2.9076.6937-5.2949-1.06-5.2469-3.8081a6.5692,6.5692,0,0,1,.4153-2.0819,2.4028,2.4028,0,0,1,2.7227-1.6855,8.0791,8.0791,0,0,1,7.4274,5.87,7.0931,7.0931,0,0,1,.0521,3.6567,9.3232,9.3232,0,0,1-5.9006,6.93,8.1859,8.1859,0,0,1-2.0837.3908,13.6511,13.6511,0,0,1-1.7506-.013q-7.477-.243-14.9524-0.4983a13.1635,13.1635,0,0,1-1.7326-.1929c-3.8374-.6619-7.7213-0.9152-11.5986-1.1912a37.1785,37.1785,0,0,0-6.7866.2915,4.1291,4.1291,0,0,0-3.011,1.8426,1.1624,1.1624,0,0,0,.4543,1.7823,10.4717,10.4717,0,0,0,1.2882.4152c0.868,0.2655,1.7571.4763,2.5957,0.8143a2.1383,2.1383,0,0,1,1.5,1.6618,1.8893,1.8893,0,0,1-1.4119,1.8874,12.7766,12.7766,0,0,1-1.8149.6864,36.9841,36.9841,0,0,1-8.4011,1.5039,33.161,33.161,0,0,1-4.2674-.1783c-2.9532-.3624-5.8917-0.87-8.8441-1.2482-1.9892-.2556-3.9922-0.4812-5.9968-0.5594-2.5843-.0993-5.176-0.0952-7.762-0.0293a26.0768,26.0768,0,0,0-6.8622,1.2237c-1.1139.3323-2.2123,0.7263-3.3017,1.1343a10.0015,10.0015,0,0,0-4.7608,3.5247,0.8938,0.8938,0,0,1-.2776.1873c-1.9867-1.1187-3.93-2.2578-5.9227-3.3025a5.9109,5.9109,0,0,0-2.2033-.6416c-1.8743-.1507-3.7568-0.2011-5.636-0.2435a21.4186,21.4186,0,0,0-4.4506.3134c-1.6472.3078-3.3457,0.3453-5.0067,0.5863-2.4972.3631-4.9953,0.7491-7.4713,1.2254a31.4192,31.4192,0,0,0-3.5354,1.0471,7.8627,7.8627,0,0,1-3.2365.5219c-1.1456-.12-2.0665.6913-3.1779,0.66a24.758,24.758,0,0,1-7.9949-1.2808,2.9039,2.9039,0,0,1-1.687-1.5063c-0.2866-.5814-0.6237-1.1383-0.9-1.7246a3.079,3.079,0,0,1,.9941-3.6274,5.4718,5.4718,0,0,1,3.5973-1.1977,2.55,2.55,0,0,0,2.0185-.5008c0.5366-.8582.1507-1.5536-0.2907-2.3286a2.1815,2.1815,0,0,0-1.76-1.0073,31.0105,31.0105,0,0,0-10.6264-.2654c-1.464.23-2.9744,0.16-4.4627,0.25-0.969.0578-1.9363,0.1555-2.9052,0.237-2.0665.1718-4.1314,0.3525-6.1987,0.5154-1.1635.0929-2.327,0.2077-3.4906,0.2223-1.0308.0131-2.0649-.0838-3.0933-0.1644a19.6333,19.6333,0,0,0-2.3148-.2508,6.8735,6.8735,0,0,1-5.8266-2.89,6.1269,6.1269,0,0,0-.443-0.6367c-1.6243-1.5161-2.0176-3.6013-2.489-5.6035a6.3517,6.3517,0,0,1,.87-4.3064,12.5849,12.5849,0,0,1,1.3109-1.9273,3.1338,3.1338,0,0,1,4.89-.5138,8.4069,8.4069,0,0,1,.6644.7068C68.5154,186.06,69.04,186.6206,69.6293,187.2516Z"/><path class="cls-9" d="M122.9814,166.09c0.3278,1.2979.6306,2.5219,0.9478,3.7394a6.2638,6.2638,0,0,0,.385,1.1772,0.56,0.56,0,0,0,.8192.2313c2.1179-.9782,4.2377-1.9582,6.35-2.97a8.9493,8.9493,0,0,0,1.3181-.7687,1.5115,1.5115,0,0,0,.729-1.6373c-0.2429-1.5595-.5035-3.1128-0.7611-4.6671a1.2478,1.2478,0,0,0-1.0768-.7732c-0.646.053-1.2932,0.1173-1.94,0.1733a0.8229,0.8229,0,0,1-.7989-0.8757,0.9154,0.9154,0,0,1,.5224-0.9106,47.2463,47.2463,0,0,1,5.9344-3.0407,5.951,5.951,0,0,1,1.4478-.4207,0.8278,0.8278,0,0,1,1.0685.436,1.454,1.454,0,0,1-.281,1.5568,12.89,12.89,0,0,1-1.537,1.2293,3.5292,3.5292,0,0,1-.4654.24,1.5377,1.5377,0,0,0-.9957,1.7477,13.283,13.283,0,0,0,1.0445,4.3124,4.2252,4.2252,0,0,1,.3539,2.1419,13.3233,13.3233,0,0,0,1.0833,6.031,6.1127,6.1127,0,0,1,.3791,1.0792,0.6434,0.6434,0,0,0,.7342.5833c0.4289,0.0083.8467,0.0765,1.2685,0.1214a1.0232,1.0232,0,0,1,1.1188,1.06,1.9191,1.9191,0,0,1-1.0717,1.6812c-1.562.7046-3.142,1.3358-4.7122,2.0035a12.5528,12.5528,0,0,0-1.3531.6552c-0.5016.2885-.6735-0.1608-0.8795-0.3485a0.7013,0.7013,0,0,1,.1474-0.9212q0.9126-.8882,1.7769-1.8344a1.1374,1.1374,0,0,0,.2978-0.6291c0.0285-1.2036.0836-2.4188-.0061-3.5934a9.6817,9.6817,0,0,0-.5417-2.313,0.9969,0.9969,0,0,0-1.68-.1931,5.9513,5.9513,0,0,1-1.9987.9095,1.2259,1.2259,0,0,0-.37.1545,7.4342,7.4342,0,0,1-2.6317,1.3369c-1.9943.7389-2.8181,2.0207-2.4451,4.0293a5.1642,5.1642,0,0,0,2.156,3.5372,1.4652,1.4652,0,0,1,.4969,1.7487,1.9083,1.9083,0,0,1-1.1917,1.4274,11.9093,11.9093,0,0,0-4.1177,2.2,3.7254,3.7254,0,0,1-.7512.4835,0.98,0.98,0,0,1-1.44-.2275,1.5194,1.5194,0,0,1,.5171-1.8459c1.057-.4269,1.7767-1.41,2.7667-1.9132a0.7847,0.7847,0,0,0,.3428-1.0626,18.718,18.718,0,0,1-.5724-4.195,5.0952,5.0952,0,0,0-.4373-1.7722,4.47,4.47,0,0,1-.43-2.0833,7.4081,7.4081,0,0,0-.7716-3.8359,1.5092,1.5092,0,0,1-.08-0.226c-0.4188-1.3837-.9739-1.5431-2.4157-0.9093a3.1677,3.1677,0,0,1-1.5787.1532c-0.4716-.0512-0.56-0.9924-0.1971-1.5364a3.8007,3.8007,0,0,1,2.4193-1.6052,2.2671,2.2671,0,0,0,.74-0.2777c0.9809-.6547,1.9447-1.346,2.918-2.0211,0.7215-.5,1.1975-0.5334,1.4789-0.1179a1.7723,1.7723,0,0,1-.3733,1.9464c-0.37.339-.7671,0.6423-1.151,0.9626C123.3153,165.8,123.1432,165.9514,122.9814,166.09Z"/><path class="cls-9" d="M229.8524,143.7658a5.3508,5.3508,0,0,0-2.8222-.0077,16.2533,16.2533,0,0,1-4.67.7979,11.1246,11.1246,0,0,0-2.9335.8685,4.194,4.194,0,0,1-2.557.3686,0.8264,0.8264,0,0,1-.8165-0.769,1.016,1.016,0,0,1,.7049-1.17c0.6615-.2681,1.3494-0.4825,1.9775-0.8077a6.1962,6.1962,0,0,0,1.1952-.9366,0.5719,0.5719,0,0,0,.03-0.4141c-0.2056-1.246-.4547-2.4862-0.6249-3.7361-0.1786-1.3129-.2845-2.6346-0.4224-3.9525-0.0172-.1642-0.026-0.33-0.0559-0.4923-0.2231-1.2075-.459-2.4128-0.6737-3.6215a0.8391,0.8391,0,0,0-1.101-.8136c-0.9327.1557-1.8632,0.329-2.7938,0.5025a1.2509,1.2509,0,0,1-1.4557-.8936,0.9,0.9,0,0,1,.7209-1.0838c0.7577-.19,1.5421-0.2806,2.2857-0.5054,1.2518-.3786,2.5487-0.5286,3.7853-1.0233a33.48,33.48,0,0,1,4.0066-.9147,26.7191,26.7191,0,0,0,2.846-1.0358,0.527,0.527,0,0,0,.1449-0.4356c-0.0329-.5434-0.1483-1.0912-0.1369-1.629a0.83,0.83,0,0,1,.3629-0.6876,1.2921,1.2921,0,0,1,.955.2582,2.5764,2.5764,0,0,1,.6828,1.0583,11.1154,11.1154,0,0,1,.8291,4.3428c-0.0764,1.0911-.7758,1.4712-1.7713.8983a4.9479,4.9479,0,0,1-.7223-0.4875,1.7134,1.7134,0,0,0-1.8023-.329,12.29,12.29,0,0,1-3.6009.9052c-1.2446.034-1.6627,0.785-1.3108,2.0721q0.33,1.2062.6489,2.4153a1.2937,1.2937,0,0,0,1.6592,1.1068,4.98,4.98,0,0,0,2.2077-.7809,0.8321,0.8321,0,0,0,.3531-1.2183,1.28,1.28,0,0,1,.54-1.1878,0.7034,0.7034,0,0,1,.9284.3908,4.8276,4.8276,0,0,1,.61,1.2185,20.9928,20.9928,0,0,1,.6812,2.8332,1.9777,1.9777,0,0,1-.33,1.2742,1.1444,1.1444,0,0,1-.9241.2039,1.6617,1.6617,0,0,1-.7555-0.457,1.1413,1.1413,0,0,0-1.3022-.266c-0.7943.3015-1.6376,0.4917-2.4593,0.7382a0.5887,0.5887,0,0,0-.4558.8266,8.0018,8.0018,0,0,1,.3159,2.8446,1.6512,1.6512,0,0,0,2.23,1.8729c1.553-.3714,3.0758-0.8383,4.6072-1.2538a0.7853,0.7853,0,0,0,.3833-0.3834c0.2308-.4035.4123-0.8363,0.6458-1.2367a0.7219,0.7219,0,0,1,.8167-0.5308,1.161,1.161,0,0,1,.9132.8763c0.2358,0.826.393,1.6674,0.6,2.5,0.2057,0.8279.3969,1.6606,0.66,2.4768a1.6255,1.6255,0,0,1-.9262,2.0318,2.8881,2.8881,0,0,1-1.5831-.7726A2.1285,2.1285,0,0,1,229.8524,143.7658Z"/><path class="cls-9" d="M172.3191,149.64c-0.3021-.9111-0.6154-1.8165-0.903-2.7344a10.0769,10.0769,0,0,1-.7836-3.1452,0.7654,0.7654,0,0,0-1.1848-.61c-0.2639.1331-.527,0.271-0.786,0.418a1.4628,1.4628,0,0,1-1.6989-.3428,1.2635,1.2635,0,0,1,.6394-1.6813A21.6312,21.6312,0,0,1,169.59,140.52c0.3346-.1735.6518-0.4027,0.99-0.5588a14.4805,14.4805,0,0,1,2.1185-.8965,9.9522,9.9522,0,0,1,5.9619-.0088,3.6,3.6,0,0,1,2.688,3.7889,2.004,2.004,0,0,1-.1352.65c-0.4074,1.0729-.811,2.1487-1.2559,3.212a1.141,1.141,0,0,0,.27,1.4748c1.108,0.8419,2.1515,1.7712,3.2662,2.616,1.2171,0.9222,2.6056.971,4.0085,1.2013a7.2407,7.2407,0,0,1,1.2977.2823,0.9067,0.9067,0,0,1,.2261,1.5846,2.9423,2.9423,0,0,1-2.576.8672,7.17,7.17,0,0,1-3.8085-1.4521c-0.9716-.6776-1.87-1.4547-2.8254-2.1487a7.5319,7.5319,0,0,0-1.5041-.8858c-1.32-.55-2.6053.2652-2.9108,1.8439a4.2512,4.2512,0,0,0-.0357,1.6552,27.9059,27.9059,0,0,0,.8774,2.9452,0.6453,0.6453,0,0,0,.9409.37,3.415,3.415,0,0,0,.4834-0.1417,1.4561,1.4561,0,0,1,1.4464.2644,1.0085,1.0085,0,0,1,.0843.8934,7.4048,7.4048,0,0,1-.75,1.3,0.7574,0.7574,0,0,1-.2706.2361c-1.3562.7439-2.7044,1.5166-4.0752,2.2272a8.1452,8.1452,0,0,1-1.6241.5426,0.7486,0.7486,0,0,1-1.0122-.5142,1.3965,1.3965,0,0,1,.4481-1.513c0.3023-.239.6687-0.3731,0.9905-0.5857a5.0378,5.0378,0,0,0,1.0433-.7916,1.5084,1.5084,0,0,0,.309-0.9037,2.6535,2.6535,0,0,0-.2362-1.1423c-0.8735-1.7646-.9551-3.8579-1.4246-5.7888-0.1188-.4886-0.2058-0.9909-0.3071-1.4869Zm0.9217-8.4a1.29,1.29,0,0,0-1.0066,1.2474,17.5842,17.5842,0,0,0,1.9188,5.7027c0.2122,0.44.5135,0.4527,0.9463,0.1189,0.6315-.4871,1.2767-0.9538,1.89-1.4642a6.455,6.455,0,0,0,2.1765-3.583,1.2454,1.2454,0,0,0-.6-1.5383A8.3066,8.3066,0,0,0,173.2408,141.24Z"/><path class="cls-9" d="M160.8043,164.6212c-0.6973-1.2865-1.4155-2.6569-2.1774-3.9941-0.3131-.5495-0.6054-0.5393-1.2547-0.23-0.5293.252-1.0771,0.435-1.6135,0.6632-0.63.268-1.2552,0.5591-1.8856,0.8259a6.0226,6.0226,0,0,1-.9078.3212,1.4348,1.4348,0,0,0-1.2535,1.3761c-0.0783.7672-.052,1.5262-0.058,2.2863-0.0028.338,0.0475,0.6663,0.0391,1.005a1.17,1.17,0,0,0,1.0478,1.2564c0.7275,0.1784.9887,0.4156,0.9421,0.99a1.7758,1.7758,0,0,1-1.2339,1.4789c-0.644.1951-1.299,0.2774-1.944,0.4666a13.6252,13.6252,0,0,0-1.5684.6007c-0.3952.1717-.7754,0.4077-1.1684,0.5925a0.8578,0.8578,0,0,1-1.1845-.3985c-0.0253-.0574-0.0456-0.1182-0.0695-0.1764a1.306,1.306,0,0,1,.6742-1.7884c0.5142-.347,1.0331-0.6926,1.52-1.0862a2.2053,2.2053,0,0,0,.8439-1.6725,61.4007,61.4007,0,0,1,1.2737-10.4431,56.0323,56.0323,0,0,0,.9431-7.049,1.0892,1.0892,0,0,1,.11-0.5072,2.2054,2.2054,0,0,1,.71-0.7453,0.7271,0.7271,0,0,1,.6783.2909c1.1193,1.4819,2.2013,2.9985,3.3042,4.4972a79.9125,79.9125,0,0,1,5.99,9.5171,1.4126,1.4126,0,0,0,1.4.8492,3.3888,3.3888,0,0,1,.891.09,1.1748,1.1748,0,0,1,.698,1.7154,1.5743,1.5743,0,0,1-.7718.8076c-1.6474.2413-3.1178,1.22-4.6564,1.9151a1.1747,1.1747,0,0,1-.659.1086,0.842,0.842,0,0,1-.3849-1.4463C159.5788,166.05,160.1515,165.4145,160.8043,164.6212Zm-7.56-12.0243a12.8764,12.8764,0,0,0-.5235,1.9088c-0.1516,1.4851-.2253,2.9638-0.3085,4.4422a0.4351,0.4351,0,0,0,.2118.3779c1.088,0.4071,3.0052-.393,3.7993-1.5583a0.6337,0.6337,0,0,0,.0621-0.8173c-0.7834-1.1466-1.5115-2.34-2.2974-3.4834A5.9725,5.9725,0,0,0,153.2447,152.5969Z"/><path class="cls-9" d="M242.7968,124.5783a1.8265,1.8265,0,0,0-1.637-.0275,0.4859,0.4859,0,0,1-.2684.09,2.869,2.869,0,0,0-2.1254,1.4934,1.429,1.429,0,0,0,.5817,2.2717,16.1168,16.1168,0,0,0,2.6685,1.1148,19.3146,19.3146,0,0,1,4.5064,1.9154,7.96,7.96,0,0,1,3.4128,4.32,2.3359,2.3359,0,0,1-.16,2.085,6.6282,6.6282,0,0,1-4.3928,3.0066,10.6914,10.6914,0,0,1-2.088-.1229,17.88,17.88,0,0,0-1.8723.0687,0.8523,0.8523,0,0,0-.3294.2415,14.306,14.306,0,0,1-1.5047,1.0775,0.9019,0.9019,0,0,1-1.4172-.7373,8.3562,8.3562,0,0,1-.1726-2.9881,18.57,18.57,0,0,0,.0946-2.3749,1.1964,1.1964,0,0,1,.5673-1.2544,1.0027,1.0027,0,0,1,1.4.7077,13.1406,13.1406,0,0,1,.2467,1.5355,2.212,2.212,0,0,0,1.2866,1.3809,8.6949,8.6949,0,0,0,4.9339-.5447,3.05,3.05,0,0,0,.727-0.5332c0.9-.8855.562-2.151-0.7656-3.0162-0.5746-.3732-1.1159-0.8032-1.6765-1.1958a2.8656,2.8656,0,0,0-.4662-0.2627c-0.5371-.2411-1.0817-0.4549-1.6144-0.7007a7.9489,7.9489,0,0,0-3.1336-.8462,1.8221,1.8221,0,0,1-.9025-0.33,8.3049,8.3049,0,0,1-2.3814-2.531,3.1345,3.1345,0,0,1-.1085-3.3264,5.2927,5.2927,0,0,1,3.8088-2.5625c0.764-.1806,1.5-0.4262,2.2554-0.6193a0.7839,0.7839,0,0,0,.6375-0.8426,0.8573,0.8573,0,0,1,.8975-0.7891,0.9126,0.9126,0,0,1,.9379.6585,11.4262,11.4262,0,0,1,.6973,2.8984c0.0167,1.0615-.0981,2.1052-0.0452,3.1867a1.1837,1.1837,0,0,1-2.339.1514C242.9739,126.3233,242.8858,125.4691,242.7968,124.5783Z"/><path class="cls-9" d="M194.9906,135.7776a4.0506,4.0506,0,0,1,.56,1.1115c0.288,1.8952,1.4355,3.2855,2.2847,4.8585,0.3031,0.5611.4622,1.2138,0.7734,1.7692a7.9675,7.9675,0,0,0,1.1327,1.5845c0.5339,0.5641,1.0487.4037,1.35-.3781a15.4983,15.4983,0,0,0,.46-1.5677c0.3919-1.46.7275-2.9323,1.1795-4.3728,0.3507-1.1178.9-2.1815,1.2471-3.2963a4.8223,4.8223,0,0,0,.0792-1.7226,0.6325,0.6325,0,0,0-.7669-0.5624,17.6073,17.6073,0,0,1-2.0351-.1488,0.5238,0.5238,0,0,1-.2654-0.3719,0.7839,0.7839,0,0,1,.1314-0.7835,4.0513,4.0513,0,0,1,2.5416-1.2372,16.1807,16.1807,0,0,0,2.5611-.864,1.9327,1.9327,0,0,1,1.907.2112,0.6172,0.6172,0,0,1,.2214.2515,2.5931,2.5931,0,0,1-.4549,1.8694,4.74,4.74,0,0,0-1.8746,2.9191,14.8315,14.8315,0,0,1-.946,2.9352,45.7919,45.7919,0,0,0-1.7111,6.1643c-0.3564,1.2572-.7479,2.5081-1.118,3.7656-0.1248.4235-.2418,0.8494-0.3467,1.2772a1.1139,1.1139,0,0,1-.57,1.0988,1.3231,1.3231,0,0,1-1.6921-.2858,13.5635,13.5635,0,0,1-.9584-1.6606,23.1645,23.1645,0,0,1-1.333-2.7277,26.5381,26.5381,0,0,0-1.8445-3.2871c-0.5576-1.06-.9594-2.2157-1.4723-3.3036a7.9962,7.9962,0,0,0-.8768-1.4076,1.0552,1.0552,0,0,0-1.3092-.32c-0.4937.1839-.9924,0.3508-1.4807,0.5546a0.9908,0.9908,0,0,1-1.1945-.18,1.059,1.059,0,0,1-.1109-1.3234,1.61,1.61,0,0,1,.8736-0.8676c0.8812-.4139,1.7312-0.9145,2.5932-1.3765,0.7063-.3786,1.4063-0.77,2.1181-1.13,0.5254-.2658.818-0.11,0.911,0.4172a1.7231,1.7231,0,0,0,.1814.496,1.0464,1.0464,0,0,1-.3413,1.52C195.2653,135.5181,195.1419,135.6381,194.9906,135.7776Z"/><path class="cls-9" d="M263.8735,142.985c-0.8005-.0774-1.5961-0.1242-2.4015-0.2152a1.2922,1.2922,0,0,1-1.1691-.7045,0.6778,0.6778,0,0,1,.3585-1.0384,8.5587,8.5587,0,0,1,1.51-.3248c0.2117-.035.4608,0.0119,0.6777-0.0131a0.59,0.59,0,0,0,.591-0.8448c-0.2117-.7413-0.4551-1.484-0.6725-2.2251-0.3308-1.1277-.6615-2.255-0.9726-3.3806-0.5983-2.1655-1.1767-4.3282-1.7793-6.49a2.5606,2.5606,0,0,0-.3965-0.8358,1.3686,1.3686,0,0,0-.6548-0.4985,2.3151,2.3151,0,0,0-1.721.0142,0.6412,0.6412,0,0,1-.3715.0369c-0.2334-.0155-0.4705-0.0475-0.7074-0.0795-1.8116-.2391-2.1518-0.0768-2.5355,1.4872-0.1926.7875-.8151,0.7469-1.4363,0.4337a1.1283,1.1283,0,0,1-.6873-0.9187,17.6024,17.6024,0,0,0-.7762-3.9818,0.7579,0.7579,0,0,1,.38-1.0658,1.3173,1.3173,0,0,1,1.3256.4747,1.6071,1.6071,0,0,1,.284.3469,1.5092,1.5092,0,0,0,1.6829.9129c2.3615-.1733,4.75-0.2177,7.14-0.204a4.5561,4.5561,0,0,1,.8855.0351,0.9658,0.9658,0,0,0,1.2788-.6636c0.1092-.3324.2043-0.6731,0.317-1.0025a0.898,0.898,0,0,1,.2315-0.4922,1.1481,1.1481,0,0,1,.8767-0.2574,2.2352,2.2352,0,0,1,.7337.8819,4.4641,4.4641,0,0,1,.3649.973c0.4788,1.5561.94,3.1124,1.4247,4.6717,0.3248,1.0465-.0847,1.3845-1.1452.9346a2.0835,2.0835,0,0,1-1.3654-1.4892,0.9024,0.9024,0,0,0-.88-0.7951c-0.5809-.052-1.1479-0.0505-1.7175-0.0566-0.4306-.0043-0.5087.2936-0.4207,0.68,0.3756,1.651.7355,3.3014,1.1628,4.9583,0.2878,1.1159.6926,2.2422,1.0148,3.3631a4.1507,4.1507,0,0,1,.1254.992,4.7125,4.7125,0,0,0,1.4248,3.0355c0.4886,0.5233.98,1.0481,1.4628,1.5811,0.768,0.8481.8195,1.5448,0.0733,1.8824a3.4475,3.4475,0,0,1-1.2368.2179,8.0976,8.0976,0,0,1-1.1527-.128c-0.3687-.0412-0.7361-0.0771-1.1038-0.1126Z"/><path class="cls-9" d="M30.5437,155.0316c0.3792,1.566.7543,3.0969,1.1192,4.6264a1.411,1.411,0,0,0,1.6838,1.326,6.0719,6.0719,0,0,1,.9715.1437,12.9261,12.9261,0,0,0,1.343.0943c1.4581,0.0005,2.9088-.0426,4.3559-0.1142a4.188,4.188,0,0,0,.7559-0.1025,0.9883,0.9883,0,0,0,.8335-1.3783q-0.3773-2.3179-.752-4.6361a2.2142,2.2142,0,0,0-1.1369-1.2511c-0.6759-.2323-1.3536-0.4587-2.0311-0.698a1.4418,1.4418,0,0,1-.8245-1.2055,0.5334,0.5334,0,0,1,.5645-0.6187,52.4427,52.4427,0,0,1,6.2155-.3433,6.3274,6.3274,0,0,1,1.5108.1852,1.3422,1.3422,0,0,1,1.1044.8471,1.0807,1.0807,0,0,1-.31,1.3784,8.0926,8.0926,0,0,1-1.6093.5572,2.9048,2.9048,0,0,1-.4863.04,0.9634,0.9634,0,0,0-1.0377,1.2691,15.9209,15.9209,0,0,0,1.0758,4.5593,4.4528,4.4528,0,0,1,.3567,2.1478,14.5684,14.5684,0,0,0,1.104,6.2662c0.1728,0.4773.2994,0.9617,0.4874,1.4355a0.9811,0.9811,0,0,0,.3861.4428c0.51,0.28,1.0377.5121,1.5579,0.76a1.6538,1.6538,0,0,1,1.2,1.4832,1.1622,1.1622,0,0,1-1.1325,1.1849c-1.6132.0561-3.2467,0.0112-4.874-.0259a13.7213,13.7213,0,0,0-1.4688.0275,1.1128,1.1128,0,0,1-.9136-0.7306,0.5405,0.5405,0,0,1,.17-0.8083,19.22,19.22,0,0,0,1.8671-.9713,0.6363,0.6363,0,0,0,.3076-0.4777,31.83,31.83,0,0,0,.01-3.4358,11.2265,11.2265,0,0,0-.5589-2.4415,1.4454,1.4454,0,0,0-1.76-.9052,4.9291,4.9291,0,0,1-2.0965-.03,1.1018,1.1018,0,0,0-.3866-0.0165,5.8626,5.8626,0,0,1-2.7171.0464c-2.2248-.2544-3.0613.5805-2.5887,2.8379a8.6888,8.6888,0,0,0,2.2118,4.2111,1.8216,1.8216,0,0,1,.5014,1.9014,1.0486,1.0486,0,0,1-1.2677.7634,10.32,10.32,0,0,0-4.3469-.0035,2.5772,2.5772,0,0,1-.7956.0607A1.7053,1.7053,0,0,1,27.63,172.44c-0.27-.719-0.0385-1.5452.5708-1.4556,1.12,0.163,1.8816-.3952,2.9279-0.3639,0.5712,0.0158.4456-.4756,0.356-0.8385a19.3876,19.3876,0,0,1-.5731-4.2139,6.353,6.353,0,0,0-.4594-1.9509,5.1946,5.1946,0,0,1-.4378-2.192,8.4939,8.4939,0,0,0-.7948-4.0275,2.0612,2.0612,0,0,1-.0815-0.2549,2.4319,2.4319,0,0,0-2.5494-2.1178,4.51,4.51,0,0,1-1.6676-.7127,1.084,1.084,0,0,1-.1846-1.5538,2.7484,2.7484,0,0,1,2.5671-.2117,2.2191,2.2191,0,0,0,.7813.1206c1.0223-.1069,2.0253-0.2687,3.0382-0.4192a1.36,1.36,0,0,1,1.5976.62,1.1834,1.1834,0,0,1-.5028,1.6844c-0.3846.122-.7856,0.2135-1.1767,0.3208C30.8707,154.92,30.7079,154.9795,30.5437,155.0316Z"/><path class="cls-9" d="M144.2907,124.5478c0.3286,1.2983.6489,2.5605,0.9666,3.8238,0.0433,0.1721.0662,0.3536,0.1111,0.5249,0.2367,0.9031.6878,1.029,1.5468,0.51a7.0171,7.0171,0,0,1,1.0138-.3707c0.3974-.1635.7939-0.34,1.1813-0.5407q2.1444-1.1129,4.2817-2.2455a5.5519,5.5519,0,0,0,.7536-0.4963,1.5812,1.5812,0,0,0,.677-1.6153c-0.2591-1.5369-.5037-3.0791-0.7578-4.6178a1.2188,1.2188,0,0,0-1.052-.7955c-0.6455.0535-1.2921,0.1195-1.9384,0.1816a0.8337,0.8337,0,0,1-.8351-0.879,0.9576,0.9576,0,0,1,.5452-0.908,42.9705,42.9705,0,0,1,5.9334-3.0725,6.01,6.01,0,0,1,1.4486-.41,0.8283,0.8283,0,0,1,1.0621.4561,1.4357,1.4357,0,0,1-.2749,1.5119,6.44,6.44,0,0,1-1.5791,1.2449c-1.2595.65-1.6763,1.0282-1.3624,2.7588,0.0965,0.5316.161,1.0793,0.3074,1.5868a17.0512,17.0512,0,0,0,.6687,1.8686,5.79,5.79,0,0,1,.3526,2.7637,12.5985,12.5985,0,0,0,1.022,5.3974c0.1518,0.4354.3477,0.849,0.4705,1.2974a0.52,0.52,0,0,0,.537.4539c0.4748,0.0232.9408,0.09,1.41,0.14a1.0543,1.0543,0,0,1,1.1433,1.0945,1.921,1.921,0,0,1-1.0963,1.6607c-1.5807.6962-3.1775,1.3286-4.7637,2.0079a12.1177,12.1177,0,0,0-1.3034.6581c-0.4762.2762-.6437-0.1593-0.8431-0.3322a0.6966,0.6966,0,0,1,.1177-0.9233c0.6013-.6063,1.2016-1.2152,1.7744-1.85a1.23,1.23,0,0,0,.3124-0.677,32.2044,32.2044,0,0,0,.0022-3.445,10.907,10.907,0,0,0-.5412-2.4162c-0.2044-.6458-0.9814-0.7893-1.6672-0.2059a6.3759,6.3759,0,0,1-2.0467.9416,1.2053,1.2053,0,0,0-.3646.18,7.9576,7.9576,0,0,1-2.6832,1.3808,3.2762,3.2762,0,0,0-2.3775,3.8011,5.0419,5.0419,0,0,0,2.1691,3.7531,1.398,1.398,0,0,1,.522,1.6406,1.9988,1.9988,0,0,1-1.2083,1.5614,12.1186,12.1186,0,0,0-4.1084,2.3137,3.65,3.65,0,0,1-.9814.6263,0.8361,0.8361,0,0,1-1.2154-.3432,1.5531,1.5531,0,0,1,.5317-1.8257c1.0535-.4621,1.7746-1.4631,2.7575-2.0056a0.832,0.832,0,0,0,.326-1.1212,18.329,18.329,0,0,1-.544-3.9467,5.9239,5.9239,0,0,0-.4733-2.0092,4.3427,4.3427,0,0,1-.405-1.9849,7.88,7.88,0,0,0-.8009-3.9691c-0.0261-.0568-0.04-0.1223-0.07-0.1757-0.2331-.4108-0.0634-1.2058-0.7713-1.1562a14.2329,14.2329,0,0,0-1.5725.371,6.34,6.34,0,0,1-1.627.2075c-0.4873-.0391-0.56-0.9722-0.1816-1.5436a3.8948,3.8948,0,0,1,2.4636-1.6913,1.8733,1.8733,0,0,0,.6432-0.268c0.9761-.6892,1.939-1.4045,2.91-2.104,0.7529-.5423,1.2417-0.5926,1.5154-0.1718a1.8121,1.8121,0,0,1-.4695,2.0332c-0.4323.3854-.8768,0.7539-1.3145,1.1319C144.4466,124.3938,144.36,124.4819,144.2907,124.5478Z"/><path class="cls-9" d="M68.8743,170.7177a5.8057,5.8057,0,0,0-2.9783.0356,10.0087,10.0087,0,0,1-3.6509.5188,12.401,12.401,0,0,0-3.8164.5913,3.7923,3.7923,0,0,1-2.5911.0408,1.0229,1.0229,0,0,1-.843-0.93,0.84,0.84,0,0,1,.7214-0.9979,16.9615,16.9615,0,0,0,2.0546-.5417,4.607,4.607,0,0,0,1.1587-.7844,0.5417,0.5417,0,0,0,.0305-0.4062c-0.2714-1.65-.5778-3.2992-0.8179-4.95-0.1291-.8878-0.144-1.778-0.219-2.6674-0.0207-.2458-0.0668-0.4927-0.11-0.7388-0.2033-1.1527-.43-2.3045-0.6072-3.458a0.99,0.99,0,0,0-1.1293-.9784c-0.9454.0383-1.8945,0.0549-2.8347,0.109a1.5509,1.5509,0,0,1-1.5071-1.2268,0.735,0.735,0,0,1,.7488-0.8439c0.7724-.0577,1.5665-0.0368,2.324-0.1506a25.917,25.917,0,0,0,3.83-.5918c1.2537-.3841,2.6743-0.3647,3.9841-0.6615a21.288,21.288,0,0,0,2.9006-.994,0.5134,0.5134,0,0,0,.1507-0.426c-0.0317-.5431-0.1445-1.09-0.1347-1.6283a0.8509,0.8509,0,0,1,.3472-0.6986,1.299,1.299,0,0,1,.9589.223,2.2871,2.2871,0,0,1,.6689.9937,10.4993,10.4993,0,0,1,.8495,4.1326,4.0621,4.0621,0,0,1-.0765.7291,0.911,0.911,0,0,1-1.3034.6522,3.8388,3.8388,0,0,1-1.0522-.6225,1.8446,1.8446,0,0,0-1.94-.3574,10.2959,10.2959,0,0,1-3.5735.7245c-1.15-.0465-1.5881.5824-1.3231,1.6978,0.2145,0.9023.4385,1.8035,0.6791,2.7016a1.3672,1.3672,0,0,0,1.7233,1.1955,8.9222,8.9222,0,0,0,2.166-.6686c0.559-.2575.5916-0.5827,0.3777-1.1907a1.2159,1.2159,0,0,1,.5308-1.17,0.7109,0.7109,0,0,1,.926.4071,4.97,4.97,0,0,1,.604,1.219,20.0994,20.0994,0,0,1,.6738,2.7827,2.1345,2.1345,0,0,1-.32,1.3236,1.0754,1.0754,0,0,1-.9222.1917,1.9484,1.9484,0,0,1-.8409-0.5334,1.0005,1.0005,0,0,0-1.1225-.2566c-0.8208.26-1.6808,0.4162-2.5238,0.61a0.5739,0.5739,0,0,0-.5038.8479A8.1094,8.1094,0,0,1,60.85,166.72a1.7849,1.7849,0,0,0,2.3044,2.04c1.5446-.2912,3.0553-0.72,4.5689-1.1472a0.8044,0.8044,0,0,0,.3828-0.3936c0.27-.4772.483-0.99,0.7728-1.4555a0.71,0.71,0,0,1,1.2094-.0683,2.5209,2.5209,0,0,1,.5186,1.0108c0.2857,1.1842.5119,2.38,0.7657,3.5706a1.6759,1.6759,0,0,0,.1589.5256,1.9643,1.9643,0,0,1-.0884,2.0468,0.7925,0.7925,0,0,1-1.1906.3031,0.3064,0.3064,0,0,0-.0836-0.0568,1.3658,1.3658,0,0,1-1.1081-.7935,2.2786,2.2786,0,0,1-.1891-1.3822C68.8751,170.8593,68.8733,170.7971,68.8743,170.7177Z"/><path class="cls-9" d="M194.2366,120.347c-0.8684-.0495-1.6607-0.0956-2.4545-0.1216a0.4128,0.4128,0,0,0-.2974.1392c-0.3744.5255-.73,1.0653-1.0935,1.6a10.2917,10.2917,0,0,1-.711,1.0207c-0.4732.541-.9959,1.0381-1.4807,1.5719a1.5672,1.5672,0,0,0-.4007,1.6555c0.1333,0.3807.2563,0.7677,0.3578,1.1618a3.93,3.93,0,0,1,.1556.9184,1.0411,1.0411,0,0,1-.6193,1.0528,0.8352,0.8352,0,0,1-1.0671-.2876,1.6437,1.6437,0,0,0-.4125-0.4344,1.0415,1.0415,0,0,1-.49-1.291c0.0405-.1852.0848-0.37,0.1161-0.5561a0.9333,0.9333,0,0,0-1.2451-1.1229c-1.2913.4423-2.2218-.1794-3.1418-0.7453a4.7873,4.7873,0,0,1-1.7638-2.25,2.8983,2.8983,0,0,1-.2278-1.8432c0.3022-1.371.58-2.7456,0.94-4.1068a1.7779,1.7779,0,0,0-.3043-1.7155c-1.0572-1.1707-.905-2.5878-0.3161-4.082a14.0669,14.0669,0,0,1,1.08-1.9559,1.0715,1.0715,0,0,1,.4039-0.2944c0.4821-.2729.9825-0.507,1.45-0.8058a0.8,0.8,0,0,0,.36-1.1044c-0.2215-.55-0.45-1.0955-0.6671-1.6474a2.5022,2.5022,0,0,1,.6157-2.3336,0.8039,0.8039,0,0,1,1.4505.3217,5.5339,5.5339,0,0,1,.39,2.2126,1.1987,1.1987,0,0,0,1.1966,1.0551,5.663,5.663,0,0,1,2.8262.2378,0.4669,0.4669,0,0,0,.6166-0.2576c0.2134-.32.4589-0.62,0.6921-0.9268a1.1407,1.1407,0,0,1,1.5928-.4786,1.3578,1.3578,0,0,1,.3758,1.9159,3.4435,3.4435,0,0,0-.6315,1.3965,1.3135,1.3135,0,0,1-.1513.4368,7.7353,7.7353,0,0,0-1.0247,2.9614c-0.2238.9463-.7735,1.4447-1.4614,1.3258a1.3253,1.3253,0,0,1-.9747-1.8712q0.1687-.52.34-1.039a0.9261,0.9261,0,0,0-.4641-1.2127,2.0237,2.0237,0,0,0-1.686-.0341,7.48,7.48,0,0,0-3.24,1.6232,2.5135,2.5135,0,0,0-.8537,2.8319,1.2347,1.2347,0,0,0,1.2214.9295c0.5614,0.03,1.1192.0844,1.6808,0.118a1.0015,1.0015,0,0,1,1.0206.8854,1.3136,1.3136,0,0,1-.6529,1.3741,5.8911,5.8911,0,0,1-1.5138.7639c-1.3995.3962-2.1067,2.3763-1.9373,3.5362,0.2682,1.8359,1.6054,2.5954,3.4158,1.9781a6.6833,6.6833,0,0,0,3.203-2.0105,1.464,1.464,0,0,0,.2993-0.5977,0.4609,0.4609,0,0,0-.6479-0.5849c-0.2579.0787-.5147,0.1634-0.7717,0.2473a1.0129,1.0129,0,0,1-1.4166-.7805,1.2409,1.2409,0,0,1,.9237-1.557,4.76,4.76,0,0,1,2.4173-.4607,0.3155,0.3155,0,0,0,.1929-0.0258,2.6879,2.6879,0,0,1,2.1684.0524,7.5766,7.5766,0,0,0,1.6922.304,1.3176,1.3176,0,0,1,1.2442,1.6324C194.4959,119.454,194.369,119.83,194.2366,120.347Z"/><path class="cls-9" d="M91.3246,161.9652c-0.7077-1.36-1.4354-2.8022-2.2058-4.222-0.3157-.582-0.61-0.6-1.2775-0.39-0.65.2043-1.3206,0.3292-1.9825,0.4852-0.3714.0875-.7431,0.1733-1.1138,0.2631-0.5428.1314-1.0814,0.2889-1.6287,0.3864a1.1027,1.1027,0,0,0-.979.9994c-0.0886.8384-.0751,1.6854-0.0937,2.5285-0.0058.2648,0.0307,0.53,0.0386,0.7948a1.5061,1.5061,0,0,0,1.0535,1.4693c0.77,0.28,1,.5523.9477,1.1248a1.4551,1.4551,0,0,1-1.2155,1.2405,2.5211,2.5211,0,0,1-.6414.0855,9.17,9.17,0,0,0-4.0339.6676,0.8685,0.8685,0,0,1-1.0793-.2561,2.0945,2.0945,0,0,1-.5175-1.2815,1.9094,1.9094,0,0,1,.9362-0.8679c0.5145-.3234,1.1016-0.534,1.6169-0.8608a1.6136,1.6136,0,0,0,.7289-1.3517,55.9481,55.9481,0,0,1,1.366-10.2774,50.1191,50.1191,0,0,0,.9276-6.5754,0.9285,0.9285,0,0,1,.1266-0.4786,1.7611,1.7611,0,0,1,.7245-0.6164,0.8964,0.8964,0,0,1,.6849.4051c1.1708,1.6823,2.3094,3.38,3.4569,5.0652a95.8359,95.8359,0,0,1,5.9195,9.9289,1.639,1.639,0,0,0,1.4438,1.0164,3.4556,3.4556,0,0,1,1.0314.2395,1.3527,1.3527,0,0,1,.1653,2.25,0.9271,0.9271,0,0,1-.4959.2249,11.1737,11.1737,0,0,0-3.6637.9858c-0.3173.1128-.6331,0.2306-0.9481,0.35a0.9021,0.9021,0,0,1-1.15-.3759,0.84,0.84,0,0,1,.1324-1.1422C90.1213,163.2005,90.6755,162.648,91.3246,161.9652Zm-7.53-12.79-0.1789.0756a8.8779,8.8779,0,0,0-.4724,1.5828c-0.158,1.4573-.24,2.92-0.3336,4.38a0.47,0.47,0,0,0,.1906.3728,3.5554,3.5554,0,0,0,3.9077-.98,0.5845,0.5845,0,0,0,.0487-0.7628c-0.7934-1.2432-1.5363-2.524-2.3317-3.7722A6.6211,6.6211,0,0,0,83.7946,149.1753Z"/><path class="cls-9" d="M130.8856,149.9473c-0.8363.3743-1.669,0.7653-2.5113,1.1109a0.81,0.81,0,0,1-1.1221-.1509,1.0639,1.0639,0,0,1,.3667-1.31,12.5987,12.5987,0,0,1,1.3433-1.0385,5.1039,5.1039,0,0,1,.5063-0.2782,1.1663,1.1663,0,0,0,.7112-1.5442c-0.1688-.6-0.4186-1.1616-0.6116-1.7512-0.2564-.7831-0.5045-1.571-0.7347-2.3672-0.6255-2.1639-1.2346-4.336-1.8648-6.4983a2.7257,2.7257,0,0,0-.3772-0.7463,0.6874,0.6874,0,0,0-.9284-0.2115,3.5014,3.5014,0,0,0-1.4825.8423,2.5715,2.5715,0,0,1-.8845.3941c-0.5034.2268-1.0109,0.4435-1.5034,0.7019a1.3711,1.3711,0,0,0-.78,1.0787c-0.0487.3745-.15,0.7511-0.2382,1.1258a1.0161,1.0161,0,0,1-.9747.87,0.7625,0.7625,0,0,1-.9979-0.6692,16.2477,16.2477,0,0,0-.75-3.7891,1.1318,1.1318,0,0,1,.3805-1.3536,1.0531,1.0531,0,0,1,1.3042.0238,0.4728,0.4728,0,0,1,.1382.1186c0.4276,0.7647,1.0309.6549,1.8151,0.22,2.2008-1.2221,4.4238-2.3968,6.6371-3.6044a6.4153,6.4153,0,0,1,.8848-0.45,1.7164,1.7164,0,0,0,1.14-1.3128c0.1056-.4277.2-0.8564,0.3067-1.284a1.601,1.601,0,0,1,.1893-0.6,2.4092,2.4092,0,0,1,.8543-0.8105,1.0311,1.0311,0,0,1,.6952.5156,2.33,2.33,0,0,1,.3174.7329q0.6963,2.087,1.378,4.1813a2.6437,2.6437,0,0,1,.1294.5172,0.9048,0.9048,0,0,1-.5945,1.0032,1.2055,1.2055,0,0,1-1.9047-.7224,0.4685,0.4685,0,0,0-.7461-0.2962c-0.577.2841-1.1441,0.6032-1.7124,0.9148a0.7473,0.7473,0,0,0-.3663.9009c0.3115,1.3942.6035,2.7986,0.9779,4.1637,0.3192,1.1641.7545,2.2733,1.11,3.4209a4.221,4.221,0,0,1,.1511,1.0728,2.764,2.764,0,0,0,1.3476,2.39c0.4739,0.2972.9544,0.584,1.4255,0.8844a1.1065,1.1065,0,0,1,.122,1.8375,4.7812,4.7812,0,0,1-1.23,1.0017,20.7839,20.7839,0,0,1-1.8908.8675Z"/><path class="cls-9" d="M117.2075,151.281c0.143,0.567.3079,1.1259,0.4239,1.7029a1.176,1.176,0,0,1-.8664,1.5351c-0.2693.113-.54,0.221-0.8123,0.3218a10.8667,10.8667,0,0,0-2.0047.8947,12.1012,12.1012,0,0,1-2.2458.8248c-1.9488.7163-3.9058,1.3916-5.8428,2.1339-0.7363.2821-1.404,0.8218-2.1328,1.15a8.0539,8.0539,0,0,1-1.7233.5031,0.6428,0.6428,0,0,1-.8094-0.614,1.328,1.328,0,0,1,.4351-1.33c0.5526-.3546,1.0921-0.746,1.6684-1.0453a1.3168,1.3168,0,0,0,.7042-1.2845,29.653,29.653,0,0,0-.1565-3.2273,16.9981,16.9981,0,0,0-.523-2.854,24.7965,24.7965,0,0,1-.546-5.0264c-0.04-.53-0.0642-1.064-0.0912-1.5968a1.11,1.11,0,0,0-1.4966-1.1376c-0.228.0522-.4528,0.1309-0.68,0.1887a0.7576,0.7576,0,0,1-1.0944-.6605,3.98,3.98,0,0,1-.0257-0.9473A0.4622,0.4622,0,0,1,99.6,140.52c0.7841-.4309,1.5577-0.9063,2.3695-1.2566a12.9716,12.9716,0,0,1,1.8833-.5122,2.4709,2.4709,0,0,0,.6708-0.181,0.9975,0.9975,0,0,1,1.1957.149,1.0449,1.0449,0,0,1,.2487,1.1178,0.598,0.598,0,0,1-.1948.2952,2.9526,2.9526,0,0,1-.4359.382c-0.8263.5608-1.24,1.2231-.7867,2.1393a0.41,0.41,0,0,1,.0323.2908c-0.4209,1.1317.0237,2.0905,0.243,3.0767a24.3939,24.3939,0,0,1,.8835,5.9522,13.2542,13.2542,0,0,0,.23,2.325,1.0747,1.0747,0,0,0,1.0558.9251,6.6121,6.6121,0,0,0,3.52-.8183c0.7591-.36,1.4775-0.8437,2.2264-1.2425,0.3013-.16.6423-0.2122,0.9543-0.3514a3.0621,3.0621,0,0,0,.6857-0.4172,1.3685,1.3685,0,0,0,.47-1.386,7.18,7.18,0,0,1-.0522-1.4519,0.8835,0.8835,0,0,1,1.2986-.8953,1.9281,1.9281,0,0,1,.73.9555,12.21,12.21,0,0,1,.4345,1.642Z"/><path class="cls-10" d="M272.6957,149.0435a0.9227,0.9227,0,0,0-.5945-0.7653,2.1275,2.1275,0,0,0-1.0638.0867,2.0359,2.0359,0,0,0-1.0033,2.6627,2.3237,2.3237,0,0,0,1.92,1.6483,5.6117,5.6117,0,0,0,3.671-.492,2.8059,2.8059,0,0,0,1.2417-1.1333,4.3348,4.3348,0,0,0-.0163-4.6128,5.2771,5.2771,0,0,0-3.8616-2.4717,49.47,49.47,0,0,0-6.1672-.6563c-0.3639-.015-0.7261-0.0721-1.0891-0.1067-0.9662-.0918-1.9356-0.1822-2.9024-0.2728-0.2423-.0233-0.4879-0.0287-0.7266-0.0731a0.6251,0.6251,0,0,1-.5119-0.9008,6.9882,6.9882,0,0,1,.3126-0.7,4.61,4.61,0,0,1,2.131-.19c0.7213,0.11,1.4539.1343,2.1808,0.2083,1.17,0.1193,2.3362.3128,3.5089,0.3559a17.07,17.07,0,0,1,3.7056.5655,1.5592,1.5592,0,0,0,.4811.0667,14.32,14.32,0,0,1,3.5947.5093,1.166,1.166,0,0,0,.8144-0.052,1.3853,1.3853,0,0,1,1.2778-.1264,3.942,3.942,0,0,0,1.8058.042,3.3326,3.3326,0,0,0,1.8777-1.2672,0.6649,0.6649,0,0,0-.1177-0.9728,2.3906,2.3906,0,0,0-1.137-.6689c-0.8939-.2058-0.9966-0.143-1.0727.8316a2.4284,2.4284,0,0,1-.0376.3615,1.003,1.003,0,0,1-.881.7278,0.9454,0.9454,0,0,1-.9162-0.6745c-0.2939-1.4532-.0617-3.0125,1.8122-3.5816a3.0509,3.0509,0,0,1,3.9536,2.1847,6.0283,6.0283,0,0,1-.1608,3.47c-0.0492.1528-.0992,0.3066-0.1665,0.5185,0.2605,0.0389.4894,0.0815,0.72,0.1067,1.8123,0.1992,3.6273.38,5.4366,0.598a13.6153,13.6153,0,0,0,4,.0145,13.936,13.936,0,0,1,1.5687-.1965,8.554,8.554,0,0,0,4.1824-1.5059,6.9451,6.9451,0,0,0,2.7788-3.5725,5.67,5.67,0,0,0,.034-2.8819,0.622,0.622,0,0,0-.1013-0.22,6.7813,6.7813,0,0,0-3.1428-3.1,12.8269,12.8269,0,0,0-2.6147-.4985,4.4521,4.4521,0,0,0-2.6983.4958,2.645,2.645,0,0,0-1.55,2.1772,5.5762,5.5762,0,0,0,.8319,3.6155,2.6566,2.6566,0,0,0,4.912-.4367,1.4712,1.4712,0,0,0-1.0178-1.5849,2.5889,2.5889,0,0,0-.6054-0.0369,2.4741,2.4741,0,0,0-.4413.0934c-0.2573.5778-.4986,1.1193-0.7355,1.6495a1.0457,1.0457,0,0,1-1.1122-1.1025,6.9686,6.9686,0,0,1,.0577-1.8181,1.2509,1.2509,0,0,1,1.1293-1.1023,2.4633,2.4633,0,0,1,1.6483.18,5.539,5.539,0,0,1,2.2267,1.8107,3.08,3.08,0,0,1,.205,3.3246,3.7764,3.7764,0,0,1-2.49,2.1755,3.9834,3.9834,0,0,1-3.854-.8234,7.225,7.225,0,0,1-2.3712-6.8048,3.69,3.69,0,0,1,1.5963-2.616,6.54,6.54,0,0,1,4.3159-1.3776,7.6938,7.6938,0,0,1,5.759,2.9816,14.7842,14.7842,0,0,1,1.1339,1.7278,6.5967,6.5967,0,0,1,.5892,5.0653,6.151,6.151,0,0,1-1.2571,2.3329,11.0032,11.0032,0,0,1-9.3214,4.114c-0.3911-.0152-0.7808-0.0014-1.1347-0.0006a0.6106,0.6106,0,0,0,.2356.7059,3.5614,3.5614,0,0,1,.7209,2.6181,7.5606,7.5606,0,0,1-.9694,3.4641,3.6385,3.6385,0,0,1-1.1955,1.183,8.6,8.6,0,0,1-4.31,1.1321,2.5228,2.5228,0,0,1-2.412-1.3563,4.1412,4.1412,0,0,1-.649-2.31,15.0448,15.0448,0,0,1,.1865-1.81,1.5676,1.5676,0,0,1,1.3733-1.3527c0.04-.0075.0793-0.0158,0.1192-0.0211,1.4152-.1881,1.8812.0677,2.4941,1.3681a6.9456,6.9456,0,0,1,.3044.6643,0.8246,0.8246,0,0,1-.3993,1.0361,0.89,0.89,0,0,1-1.0527-.348,0.6385,0.6385,0,0,1-.0476-0.1128,0.7642,0.7642,0,0,0-.8454-0.6947,0.9553,0.9553,0,0,0-.5079,1.0139,1.6707,1.6707,0,0,0,1.3735,1.833c0.1188,0.0193.2438,0,.3646,0.01a3.437,3.437,0,0,0,3.6355-2.2681,3.0709,3.0709,0,0,1,.2447-0.5569,2.7083,2.7083,0,0,0,.06-2.6715,1.4365,1.4365,0,0,0-.4167-0.5869,4.2213,4.2213,0,0,0-2.3469-1.178,37.731,37.731,0,0,1-4.2006-.6713,19.4144,19.4144,0,0,0-2.18-.1979c-1.4114-.1607-2.8192-0.3471-4.23-0.5194-0.2355-.0294-0.4739-0.0389-0.8439-0.0678,0.1118,0.2817.1691,0.451,0.2448,0.6136,0.2729,0.5869.5823,1.1583,0.821,1.7573a5.5481,5.5481,0,0,1,.03,3.8292,5.3838,5.3838,0,0,1-4.1243,3.74,7.9189,7.9189,0,0,1-2.4226.1354,4.0592,4.0592,0,0,1-3.7114-2.7022,4.4942,4.4942,0,0,1,.5522-4.5092,3.0731,3.0731,0,0,1,3.9366-.8476,1.5025,1.5025,0,0,1,.4318.4129,12.798,12.798,0,0,1,.84,1.1928,1.9352,1.9352,0,0,1-.849,2.7766,3.2759,3.2759,0,0,1-.5721.2063,0.8344,0.8344,0,0,1-.9836-0.27,0.9541,0.9541,0,0,1-.0512-1.1422A6.9124,6.9124,0,0,1,272.6957,149.0435Z"/><path class="cls-10" d="M6.7489,159.84c0.1248-.0677.2235-0.1247,0.3233-0.1758a0.8409,0.8409,0,0,1,1.2638.3194,1.7049,1.7049,0,0,1,.063,1.3637,0.4493,0.4493,0,0,1-.2155.2593,2.9164,2.9164,0,0,1-1.4464.2688A2.5994,2.5994,0,0,1,4.4,159.51a2.8171,2.8171,0,0,1,.1063-2.0311,3.0048,3.0048,0,0,1,2.0505-1.5709,4.5425,4.5425,0,0,1,4.5976,1.5927,6.1212,6.1212,0,0,1,1.2182,2.6208,2.1433,2.1433,0,0,1-.1107,1.1445,11.5949,11.5949,0,0,1-2.1007,3.9827,2.2586,2.2586,0,0,1-.9306.6653,5.7668,5.7668,0,0,1-3.3975.4478,9.46,9.46,0,0,1-2.0947-.6422,5.5692,5.5692,0,0,1-2.7142-2.6c-0.1561-.3131-0.34-0.6113-0.5051-0.92a3.8414,3.8414,0,0,1-.4761-2.0127A15.6129,15.6129,0,0,0,.0136,158.32a4.7633,4.7633,0,0,1,1.12-3.3283,2.7689,2.7689,0,0,1,.7759-0.6909A11.2647,11.2647,0,0,1,5.679,152.79c0.7588-.1349,1.5019-0.3608,2.2313-0.542a0.3967,0.3967,0,0,0-.1735-0.5139A7.8166,7.8166,0,0,1,6.0717,146.75a0.9966,0.9966,0,0,1,.0958-0.5672,7.1126,7.1126,0,0,1,1.6336-2.2273c0.6624-.4608,1.2951-0.9711,1.9887-1.3774a3.5948,3.5948,0,0,1,2.8194-.28,9.3379,9.3379,0,0,1,1.5126.61,3.7407,3.7407,0,0,1,2.14,4.0321,2.0775,2.0775,0,0,1-1.2955,1.8054,8.8289,8.8289,0,0,1-.8723.3254,1.0608,1.0608,0,0,1-1.2483-.3558,3.32,3.32,0,0,1-.7993-1.2674,0.7618,0.7618,0,0,1,.2658-0.8242,0.6209,0.6209,0,0,1,.8527.0238,1.0024,1.0024,0,0,0,1.1456.3063,0.631,0.631,0,0,0,.5162-0.6793,1.8276,1.8276,0,0,0-1.1145-1.7727,4.1766,4.1766,0,0,0-2.5128-.2812,3.6868,3.6868,0,0,0-2.0408,1.2528,5.6505,5.6505,0,0,0-1.0873,1.9181,2.5357,2.5357,0,0,0,.0991,2.03,1.8383,1.8383,0,0,1,.1537.315,3.1558,3.1558,0,0,0,3.0239,2.3019,18.0637,18.0637,0,0,0,2.204.0523c1.4368,0,2.8731-.0256,4.31-0.0149,1.2435,0.0084,2.4873.051,3.73,0.0811,0.1925,0.0047.3829,0.0241,0.5734,0.0309,1.3206,0.0464,2.64.0943,3.96,0.1353a0.7329,0.7329,0,0,1,.7155.5056,2.62,2.62,0,0,1,.1433.9033c-0.0167.86-.2845,1.0836-1.1577,1.031-2.4073-.1459-4.8147-0.2819-7.22-0.4479-1.1607-.08-2.3178-0.2725-3.4788-0.3186-1.166-.046-2.3249-0.1452-3.4862-0.2135a12.1894,12.1894,0,0,0-3.824.2748c-0.79.2077-1.5965,0.3513-2.3888,0.5531a7.2273,7.2273,0,0,0-1.21.4187A4.4571,4.4571,0,0,0,1.6583,159.38a4.7349,4.7349,0,0,0,2.8393,4.1,3.7151,3.7151,0,0,0,1.4726.2679,4.5043,4.5043,0,0,0,4.0018-1.7323,2.6918,2.6918,0,0,0,.4016-2.7559,2.7787,2.7787,0,0,0-3.2888-1.543,1.7761,1.7761,0,0,0-1.0359.7028,0.6565,0.6565,0,0,0,.0435.9442A5.9908,5.9908,0,0,0,6.7489,159.84Z"/><path class="cls-9" d="M192.8315,181.3326a1.7129,1.7129,0,0,1,.3218-0.0683,1.7687,1.7687,0,0,1,.2438-0.0488l0.7118-.234a1.6084,1.6084,0,0,0,.2243-0.9848l-0.0585-.7021a1.0364,1.0364,0,0,1,.0878-0.3413l0.0488-.7118-0.078-.624a3.6166,3.6166,0,0,0,.0683-0.7216c0-.3413-0.039-0.6728-0.0683-1.0141a1.7392,1.7392,0,0,0-.624-0.9751,1.4945,1.4945,0,0,0-.5948-0.0878,0.5425,0.5425,0,0,1-.6435-0.3705c0-.3705.9263-0.5265,1.18-0.6045a2.0888,2.0888,0,0,0,.4778-0.2535,1.2846,1.2846,0,0,0,.0488-0.5558l0.0975-.234v-0.39c0-.039.1073-0.2925,0.1073-0.3023a6.3207,6.3207,0,0,0,.234-1.18,1.7374,1.7374,0,0,1,.1365-0.3608,7.2243,7.2243,0,0,1,.507-0.9751,1.4934,1.4934,0,0,1,.79-0.7606,4.4963,4.4963,0,0,0,.5948-0.39,0.2446,0.2446,0,0,0,.078-0.0488,1.9009,1.9009,0,0,0,.3705-0.0488l0.3705-.2535c0.1853-.0683.507-0.0878,0.5948-0.1365l0.1658-.0488a5.5583,5.5583,0,0,1,1.2481-.1365l1.0823,0.1365,0.3023,0.02,0.156,0.0293c0.468,0.273,1.0433.351,1.0433,1.1018a1.1951,1.1951,0,0,1-.468.9361l-0.3413.02c-0.0878,0-.3705-0.02-0.3705-0.02a3.8029,3.8029,0,0,1-.6923-0.1658,2.9747,2.9747,0,0,1-.3705-0.39l-0.156-.3218-0.1853-.4388a0.8218,0.8218,0,0,0-.1365-0.0585,1.6415,1.6415,0,0,0-.5168-0.0683,1.0764,1.0764,0,0,0-.4778.0683,6.85,6.85,0,0,0-.8776.351,1.3424,1.3424,0,0,0-.1658.1463,1.272,1.272,0,0,1-.1463.2243,2.034,2.034,0,0,0-.3608.2535,0.5529,0.5529,0,0,0-.1463.2048,0.4877,0.4877,0,0,0-.1073.195c-0.01.039-.0488,0.2925-0.0488,0.3218-0.02.0878-.0488,0.234-0.0488,0.2535l-0.2243.3608v0.2535a2.1041,2.1041,0,0,1-.0488.2438l-0.0488.2048v0.5558a1.2432,1.2432,0,0,0-.0683.117,3.2354,3.2354,0,0,0-.117.9653,0.4675,0.4675,0,0,0,.468.5265,0.27,0.27,0,0,0,.1365-0.02,0.7208,0.7208,0,0,0,.1853-0.0488,10.959,10.959,0,0,0,1.3358-.2048l0.2828-.0975a0.9445,0.9445,0,0,1,.4778.2535,0.3746,0.3746,0,0,1,.078.3023,0.8183,0.8183,0,0,1-.6045.9946,0.1172,0.1172,0,0,1-.078-0.02,4.0786,4.0786,0,0,0-.9653-0.2048,0.7925,0.7925,0,0,0-.6045.156l-0.273.468a2.8679,2.8679,0,0,0-.156.3023c0,0.1365.1365,0.312,0.1365,0.4973,0,0.195-.1463.3315-0.1463,0.4973,0,0.2243.1658,0.39,0.1658,0.5948l-0.2048.7606v0.3315a1.3139,1.3139,0,0,1,.1365.546,1.8464,1.8464,0,0,1-.0878.5168,0.6522,0.6522,0,0,0-.0488.2535l0.1658,0.41c0,0.02-.0293.0683-0.1268,0.4388,0,0,.0488.0878,0.0683,0.117a0.705,0.705,0,0,0,.5363.3023l0.1365,0.039c0.0488,0,.5168.0293,0.6045,0.0488a1.5625,1.5625,0,0,1,.468.3023l-0.01.3023a0.1009,0.1009,0,0,0,.01.039s-0.0488.234-.0488,0.2535a1.2054,1.2054,0,0,1-.6728.1658H196.644l-0.4778.0488-1.6186-.0878c-0.273,0-.5265.039-0.77,0.0585l-0.312.0293H192.773c-0.195,0-.2438-0.3413-0.2438-0.507A0.5716,0.5716,0,0,1,192.8315,181.3326Z"/><path class="cls-9" d="M204.0058,180.9913a1.666,1.666,0,0,1-.2535.2048l-0.3705.1853c-0.0488.02-.2828,0.2243-0.3023,0.234a2.34,2.34,0,0,1-.39.0585,5.8393,5.8393,0,0,0-.585.4193h-0.9263a1.87,1.87,0,0,1-.624-0.2048,1.9412,1.9412,0,0,1-.117-0.2145,0.5287,0.5287,0,0,1-.0585-0.1073l-0.2633-.2535a2.1193,2.1193,0,0,1-.1853-0.79l0.0683-.2048-0.0683-.2048v-0.117a1.8639,1.8639,0,0,1,.1853-0.5558c0.0293-.0293.4-0.4,0.4388-0.468a0.713,0.713,0,0,0,.1365-0.156,0.2549,0.2549,0,0,0,.0293-0.078,5.7182,5.7182,0,0,1,.6728-0.4388,6.3621,6.3621,0,0,1,.9848-0.3608,4.2761,4.2761,0,0,1,.7508-0.4485h0.2535a0.5287,0.5287,0,0,0,.1073-0.0585c0.0488-.01.3315-0.0488,0.39-0.0488l0.1268-.1658a0.597,0.597,0,0,0,.4388-0.351,2.9549,2.9549,0,0,0,.117-0.8678v-0.2145a1.7369,1.7369,0,0,1-.117-0.234l-0.117-.4973-0.2145-.2633-0.1073-.2048a0.4255,0.4255,0,0,1-.1268-0.2243,1.94,1.94,0,0,0-.9458-0.3023c-0.02,0-.2535-0.01-0.3705-0.01-0.2438,0-.8678.0683-0.8678,0.4v0.0878a4.1143,4.1143,0,0,1,.1755.4388,1.5018,1.5018,0,0,1-.0683.2633,1.0559,1.0559,0,0,1-.5558.8c-0.0683.0488-.1853,0.1463-0.1853,0.1463H200.32a0.573,0.573,0,0,1-.3218-0.5558,1.2307,1.2307,0,0,1,.2535-0.6533,2.2292,2.2292,0,0,1,.1463-0.234l0.156-.156a6.6691,6.6691,0,0,0,.7021-0.5948l0.6826-.4485a1.7955,1.7955,0,0,1,.7508-0.3218c0.039,0,.2535-0.117.312-0.1365,0.1268-.0293.8581-0.1658,1.0043-0.1658a0.6061,0.6061,0,0,1,.156.0683,2.491,2.491,0,0,1,.4.0488c0.156,0.0488.5753,0.2145,0.624,0.234,0.02,0.02.2535,0.2535,0.312,0.3218a1.9015,1.9015,0,0,1,.38.5753,2.4548,2.4548,0,0,0,.312.8093V175.58c0,0.8581-.0878,1.6674-0.1073,2.5352a1.0488,1.0488,0,0,0-.0975.4c0,0.117.0488,0.2828,0.0488,0.351l-0.0878.1853s-0.01.1365-.01,0.1853a1.4956,1.4956,0,0,0,.38,1.1993,1.1718,1.1718,0,0,0,.2535.1853h0.039c0.2633,0,.6923-0.234,1.0433-0.234,0.117,0,.1853.039,0.1853,0.117a1.6479,1.6479,0,0,1-1.57,1.6381,3.64,3.64,0,0,1-1.3261-.2048l-0.0683-.0488c-0.0585-.0488-0.4388-0.624-0.4778-0.6923l-0.234-.2048h-0.156Zm-1.3749-.2828a0.4522,0.4522,0,0,0,.234-0.0878l0.8873-.078a3.36,3.36,0,0,0,.41-0.429,3.9857,3.9857,0,0,0,.234-0.5655,2.1861,2.1861,0,0,0,.0488-0.2535c-0.01-.1365-0.0293-0.2925-0.0293-0.429,0-.1268.02-0.234,0.0293-0.351l0.0683-.2145v-0.1755a0.42,0.42,0,0,0-.4193-0.4388,0.9127,0.9127,0,0,0-.5363.2535c-0.1365.0878-.8678,0.4193-0.9946,0.4778l-0.1853.0975a0.4452,0.4452,0,0,0-.1365.0488l-0.1365.2535-0.234.234a1.2078,1.2078,0,0,0-.0683.4778A1.157,1.157,0,0,0,202.631,180.7085Z"/><path class="cls-9" d="M208.93,182.1419a1.8549,1.8549,0,0,0-.312.0878,0.9363,0.9363,0,0,1-.2535-0.1365,1.3841,1.3841,0,0,1-.078-0.3023,2.3769,2.3769,0,0,1,.1853-0.3218l0.1853-.1073h0.2145a0.7,0.7,0,0,0,.6923-0.2535,7.9732,7.9732,0,0,1,.156-1.2286l0.117-.4583v-0.9068l0.0488-.8776v-0.5753c0-.0488-0.117-0.507-0.117-0.624v-0.9263a1.3261,1.3261,0,0,0-.3023-0.4875l-0.3023-.0975a1.2136,1.2136,0,0,1-.507-0.5948c0-.2828.3023-0.2828,0.507-0.3413l0.7216-.3705a1.1763,1.1763,0,0,0,.507-0.3023l0.2828-.02c0.0683,0,.2438.02,0.273,0.02a2.3127,2.3127,0,0,1,.4875.1073,0.4229,0.4229,0,0,1,.1365.38v0.312l-0.0683.234c-0.0683.8386-.0488,1.6479-0.0683,2.5157l-0.0488.351a3.1731,3.1731,0,0,0-.02.468,3.0593,3.0593,0,0,0,.02.507,1.9471,1.9471,0,0,0,.0488.2535v0.2048c-0.01.0683-.0488,0.79-0.0488,0.9751,0,0.2243.1073,1.1506,0.117,1.3554a0.3543,0.3543,0,0,0,.2925.2535c0.078,0.01.5558,0.0488,0.6533,0.0488a0.5334,0.5334,0,0,1,.156.39,0.5012,0.5012,0,0,1-.1365.4388,0.8305,0.8305,0,0,1-.5558.1268h-0.1755l-0.234-.0975h-1.1993c-0.01,0-.234-0.0488-0.2828-0.0488h-0.273Zm0.2828-12.92,0.3023-.3023,0.3218-.2535,0.0975-.2048a0.8694,0.8694,0,0,1,.5265-0.117h0.0975a2.03,2.03,0,0,0,.312.117,2.4217,2.4217,0,0,0,.5655.0878,1.6784,1.6784,0,0,1,.2535.77,1.0062,1.0062,0,0,1-.3023.8288,2.4617,2.4617,0,0,1-.2828.0975,1.2834,1.2834,0,0,1-.2925.273,0.543,0.543,0,0,1-.38.0878h-0.38a0.5224,0.5224,0,0,1-.4-0.1365,1.6292,1.6292,0,0,1-.4583-0.9653Z"/><path class="cls-9" d="M213.7955,181.5471a0.5348,0.5348,0,0,1,.2535-0.195,1.2153,1.2153,0,0,1,.4485-0.2438,1.3983,1.3983,0,0,1,.2438-0.234l0.234-.078a0.3192,0.3192,0,0,0,.1463-0.1853c-0.01-.0585-0.01-0.2438-0.01-0.39,0-.1853,0-0.3413.01-0.4388l0.0585-.2925v-1.5016a3.8679,3.8679,0,0,1,.0683-0.468v-0.0683c-0.02-.1658-0.0683-0.7118-0.0683-0.7606a4.4177,4.4177,0,0,1-.0585-0.4875,2.5034,2.5034,0,0,0-.624-0.9458,0.7437,0.7437,0,0,1-.1268-0.1658l-0.5753-.5363,0.468-.4778a2.8054,2.8054,0,0,1,.4778-0.2048,1.4375,1.4375,0,0,1,.4388-0.078,4.686,4.686,0,0,1,1.2773-.624h0.156c0.01,0.01.195,0.1853,0.2535,0.234,0.1853,0.2828-.1073.9458,0.4,0.9458a0.1205,0.1205,0,0,0,.0975-0.02,1.3714,1.3714,0,0,0,.4778-0.3023l0.4-.3023c0.02-.02.2243-0.156,0.273-0.2048a4.3362,4.3362,0,0,0,.4583-0.0488c0.0293,0,.3315-0.117.351-0.117h0.1073a0.7751,0.7751,0,0,1,.624.4388,3.4272,3.4272,0,0,1,.1463.4875,0.42,0.42,0,0,0,.0683.0975,1.6462,1.6462,0,0,1-.5753,1.4236,2.0281,2.0281,0,0,1-.4.0488c-0.546,0-.429-0.117-0.6435-0.41a0.85,0.85,0,0,0-.5948-0.2633l-0.4193-.0683-0.351.0975-0.117.156a1.2024,1.2024,0,0,0-.507.6728l-0.0488.7021,0.0488,0.273v0.507a2.1861,2.1861,0,0,0,.0488.2535l-0.0683.8776,0.0683,0.3315c0,0.0878-.0683.1755-0.0683,0.312l0.0683,0.3315-0.0683.3608c0,0.01,0,.0488.02,0.0488,0.0293,0.1463.3218,0.6338,0.3705,0.7606a0.0945,0.0945,0,0,0,.0683.0683,2.2174,2.2174,0,0,0,.3705.2438,5.78,5.78,0,0,1,.8776.273,0.7368,0.7368,0,0,1,.1658.4193,0.2721,0.2721,0,0,1-.1365.2535,0.4527,0.4527,0,0,1-.195.039l-0.312.0293c-0.2145.02-.4,0.02-0.5168,0.02-0.1073,0-.234-0.0488-0.3705-0.0488-0.3608,0-.6728.1463-1.0141,0.1463l-0.4388-.1463-0.624.1463h-0.1658l-0.1365-.0975c-0.02,0-.1365-0.02-0.3608-0.0488a0.192,0.192,0,0,1-.078-0.039,1.5508,1.5508,0,0,1-.2925-0.117,0.3852,0.3852,0,0,1-.078-0.2048v-0.1853Z"/><path class="cls-9" d="M84.9334,116.7965a1.36,1.36,0,0,1,.0718-0.1962q0.0622-.1483.11-0.2536a0.4761,0.4761,0,0,1,.1483-0.1244q0.11-.067.2392-0.134t0.2536-.1292a0.9874,0.9874,0,0,0,.1818-0.11,2.9807,2.9807,0,0,1,.34-0.2249q0.177-.1.3588-0.2057t0.3588-.22a2.3571,2.3571,0,0,0,.33-0.2584,6.52,6.52,0,0,0,.622-0.6315,6.4014,6.4014,0,0,0,.5933-0.799,5.0007,5.0007,0,0,0,.44-0.8755,2.4285,2.4285,0,0,0,.1722-0.8707,0.8679,0.8679,0,0,0-.0957-0.3923,1.1978,1.1978,0,0,0-.2536-0.34,1.3712,1.3712,0,0,0-.3636-0.244,1.02,1.02,0,0,0-.4354-0.0957l-0.3636.1244H87.2777a1.2274,1.2274,0,0,0-.1818.0144,0.2992,0.2992,0,0,0-.1818.12,1.0582,1.0582,0,0,0-.2584.2823q-0.1148.177-.2344,0.34a1.5943,1.5943,0,0,1-.2631.2823,0.5345,0.5345,0,0,1-.354.12,1.5563,1.5563,0,0,1-.2105-0.0144,0.2547,0.2547,0,0,1-.1722-0.1v-0.2775a1.2561,1.2561,0,0,1,.0431-0.3827,0.5188,0.5188,0,0,1,.12-0.2009,1.26,1.26,0,0,1,.1818-0.1483,0.8911,0.8911,0,0,0,.22-0.244l0.134-.1627a6.9684,6.9684,0,0,1,.4641-0.5454,1.3921,1.3921,0,0,1,.6267-0.3732l0.7272-.0957,0.4689-.0957a4.5052,4.5052,0,0,1,.5406.0383,4.5987,4.5987,0,0,1,.6315.1244,3.2266,3.2266,0,0,1,.6076.23,1.4892,1.4892,0,0,1,.4689.354,0.9516,0.9516,0,0,1,.1148.1914,0.1973,0.1973,0,0,0,.0861.1148l0.2966,0.488v1.1a0.4906,0.4906,0,0,1-.1292.33q-0.1292.1483-.2344,0.2823a0.1039,0.1039,0,0,0-.0191.0383q-0.01.0287-.0383,0.1053t-0.0765.2105q-0.0478.134-.134,0.3445a0.1113,0.1113,0,0,1-.0191.0287,0.0535,0.0535,0,0,1-.0287.0191,0.4786,0.4786,0,0,0-.1531.1435,1.0567,1.0567,0,0,0-.0813.1579q-0.0335.0813-.0718,0.1627a0.4131,0.4131,0,0,1-.1244.1483,0.919,0.919,0,0,1-.2009.1292,1.0953,1.0953,0,0,1-.1962.067q-0.1.0239-.2009,0.0431a0.5972,0.5972,0,0,0-.1962.0765,0.2921,0.2921,0,0,0-.0718.0526q-0.0622.0526-.134,0.12t-0.1387.1244a0.6433,0.6433,0,0,1-.0861.067,0.4338,0.4338,0,0,0-.0861.0478,1.9563,1.9563,0,0,0-.1627.1148q-0.0861.067-.1627,0.1244t-0.0861.067a1.8038,1.8038,0,0,0-.134.1244q-0.0861.0861-.1675,0.1818a1.4436,1.4436,0,0,0-.1387.1914,0.3259,0.3259,0,0,0-.0574.1435,0.047,0.047,0,0,0,.0574.0478h0.3062a4.0832,4.0832,0,0,1,.4593.0239,1.3428,1.3428,0,0,1,.4019.11h0.488a6.9786,6.9786,0,0,0,1.0238-.0765,3.5937,3.5937,0,0,0,.976-0.2871,0.1642,0.1642,0,0,0,.0957-0.1148,0.3772,0.3772,0,0,1,.0478-0.134,1.347,1.347,0,0,1,.3349-0.2871q0.2009-.1244.4019-0.23L92.56,115.16a0.8336,0.8336,0,0,1-.0718.33q-0.0718.1675-.177,0.3588a1.1819,1.1819,0,0,0-.0574.2392,2.5918,2.5918,0,0,1-.0861.354,1.2748,1.2748,0,0,1-.1531.3253,0.2884,0.2884,0,0,1-.2488.1435l-0.1627.0191q-0.3732.0478-.732,0.1053a4.5654,4.5654,0,0,1-.7224.0574,0.68,0.68,0,0,1-.2249-0.0383q-0.11-.0383-0.2153-0.0861t-0.2105-.0861a0.6124,0.6124,0,0,0-.2105-0.0383,3.8352,3.8352,0,0,0-.4449.0287,3.7169,3.7169,0,0,0-.4067.067,0.2663,0.2663,0,0,0-.12.0526,0.7935,0.7935,0,0,0-.1292.1l-0.8707-.2488a0.4277,0.4277,0,0,0-.2249.067,0.6372,0.6372,0,0,1-.244.0861q-0.1818.0191-.34,0.0335t-0.3253.0287q-0.1675.0144-.3445,0.0239t-0.3971.01a1.1434,1.1434,0,0,1-.3349-0.0526,0.2122,0.2122,0,0,1-.1722-0.2153v-0.0287Z"/><path class="cls-9" d="M94.8656,115.1889q-0.2775-.5645-0.4162-0.9186a1.797,1.797,0,0,1-.1387-0.6507,11.0769,11.0769,0,0,1,.067-1.2678,2.3909,2.3909,0,0,1,.3732-1.0478l0.66-1.0621a2.13,2.13,0,0,1,.3588-0.33,5.5267,5.5267,0,0,1,.55-0.3732,4.8976,4.8976,0,0,1,.5885-0.3014,1.2753,1.2753,0,0,1,.4641-0.1244q0.1627,0.0478.2631,0.067a0.9254,0.9254,0,0,0,.1675.0191,0.2349,0.2349,0,0,0,.1292-0.0287q0.0431-.0287.0813-0.0574h0.4784a2.1466,2.1466,0,0,1,.622.0813,1.7418,1.7418,0,0,1,.5741.33l0.6124,0.6028,0.3636,0.1818a0.6618,0.6618,0,0,1,.2631.2966,1.9487,1.9487,0,0,1,.11.3588l0.0765,0.3732a0.7154,0.7154,0,0,0,.1627.33,1.1446,1.1446,0,0,0,.1818.2057q0.0765,0.0622.1387,0.12a0.57,0.57,0,0,1,.11.1435,1.0112,1.0112,0,0,1,.0861.2679q0,0.0765.01,0.2153t0.0191,0.3062q0.01,0.1675.0144,0.3349t0.0048,0.311a0.9959,0.9959,0,0,1-.0431.2344q-0.0431.1579-.1,0.3205t-0.11.2918a0.993,0.993,0,0,1-.0622.1387,1.9587,1.9587,0,0,1-.12.2966q-0.0909.1914-.1914,0.3875t-0.1962.3684a1.5885,1.5885,0,0,1-.1531.2392,1.4542,1.4542,0,0,0-.3588.22,2.4891,2.4891,0,0,0-.2249.2249q-0.0957.11-.1866,0.2057a0.5583,0.5583,0,0,1-.244.1435,1.3259,1.3259,0,0,1-.2775.12q-0.1435.0431-.2966,0.0765l-0.3062.067a1.8776,1.8776,0,0,0-.2966.0909H98.1955a4.1175,4.1175,0,0,1-1.1-.1244,2.7445,2.7445,0,0,1-.7894-0.3588,4.2338,4.2338,0,0,1-.6746-0.5693Q95.3058,115.61,94.8656,115.1889Zm0.2392-2.2486a2.0074,2.0074,0,0,0,.1053.555,5.8374,5.8374,0,0,0,.2679.7033,4.8134,4.8134,0,0,0,.3684.67,1.8226,1.8226,0,0,0,.3971.4545,2.6694,2.6694,0,0,0,.55.2823,6.6053,6.6053,0,0,0,.6842.2249,6.4376,6.4376,0,0,0,.6937.1483,3.918,3.918,0,0,0,.5885.0526,0.1946,0.1946,0,0,0,.11-0.0287,0.5335,0.5335,0,0,0,.0813-0.067q0.0383-.0383.0813-0.0765a0.2776,0.2776,0,0,1,.11-0.0574q0.134-.0574.2249-0.0909a1.5688,1.5688,0,0,0,.1579-0.067,0.501,0.501,0,0,0,.1292-0.0957,1.7015,1.7015,0,0,0,.1483-0.177,0.9309,0.9309,0,0,1,.2009-0.2392q0.1148-.0957.22-0.1866a1.6708,1.6708,0,0,0,.1962-0.2009,0.6607,0.6607,0,0,0,.1292-0.2823,0.6118,0.6118,0,0,0,.0191-0.0957q0.01-.067.0144-0.1292a1.1273,1.1273,0,0,1,.0144-0.1148,0.1524,0.1524,0,0,1,.0191-0.0622,1.8008,1.8008,0,0,1,.0622-0.2153q0.0335-.0909.0622-0.177a1.4459,1.4459,0,0,0,.0478-0.1866,1.3277,1.3277,0,0,0,.0191-0.244,2.5373,2.5373,0,0,0-.0574-0.56,0.7864,0.7864,0,0,0-.3349-0.4545,0.9812,0.9812,0,0,1-.0431-0.1818q-0.0048-.0574-0.0048-0.0957a0.8038,0.8038,0,0,0-.0383-0.2631,0.7542,0.7542,0,0,0-.11-0.2057,1.7965,1.7965,0,0,0-.1675-0.1914,2.58,2.58,0,0,1-.2009-0.23,1.9411,1.9411,0,0,0-.4019-0.45,1.3826,1.3826,0,0,0-.3588-0.1962q-0.177-.0622-0.3732-0.1148a1.7276,1.7276,0,0,1-.4545-0.2153h-0.909a0.4938,0.4938,0,0,0-.0813.0287q-0.0718.0287-.1722,0.0765t-0.2057.1a1.3035,1.3035,0,0,0-.1722.1,2.0865,2.0865,0,0,0-.56.45,5.0494,5.0494,0,0,0-.5215.6746,4.0983,4.0983,0,0,0-.3875.7511A1.9135,1.9135,0,0,0,95.1048,112.94Z"/><path class="cls-9" d="M103.8027,116.5668a0.4355,0.4355,0,0,1,.1053-0.3062,0.6458,0.6458,0,0,1,.2727-0.1722,2.0064,2.0064,0,0,1,.3732-0.0861q0.2057-.0287.3971-0.0574a1.9528,1.9528,0,0,0,.3445-0.0813,0.457,0.457,0,0,0,.23-0.1579q0.0287-.067.0718-0.1818t0.0813-.2344q0.0383-.12.067-0.2344a0.7974,0.7974,0,0,0,.0287-0.1818l-0.2488-1.2535a0.9783,0.9783,0,0,1,.0335-0.2057q0.0335-.1387.067-0.2918t0.067-.2775a0.9,0.9,0,0,0,.0335-0.1531l-0.2009-1.7606a0.46,0.46,0,0,1,.0335-0.177q0.0335-.0813.0813-0.1866a2.6727,2.6727,0,0,0-.421-0.3636,2.9961,2.9961,0,0,0-.44-0.2488,2.347,2.347,0,0,0-.3349-0.0813,2.5248,2.5248,0,0,1-.3636-0.0909,0.7963,0.7963,0,0,1-.2918-0.1675,0.3893,0.3893,0,0,1-.12-0.3014,0.2366,0.2366,0,0,1,.0718-0.1818,0.4634,0.4634,0,0,1,.1722-0.1,0.9085,0.9085,0,0,1,.2057-0.0431q0.1053-.01.1818-0.01l1.0143,0.067a1.4467,1.4467,0,0,0,.1914-0.01,1.6223,1.6223,0,0,0,.22-0.0574q0.2105,0.0287.4019,0.0478t0.3923,0.0191q0.1627,0,.34-0.01a1.955,1.955,0,0,0,.3684-0.0574,0.6418,0.6418,0,0,1,.2392-0.1148,2.685,2.685,0,0,1,.3493-0.0765q0.1866-.0287.3732-0.0431t0.3014-.0144q0.0765,0,.1914.01a1.0774,1.0774,0,0,1,.2249.0431,0.5,0.5,0,0,1,.1866.1,0.2292,0.2292,0,0,1,.0765.1818,0.4921,0.4921,0,0,1-.1579.3827,1.2113,1.2113,0,0,1-.378.23,2.7586,2.7586,0,0,1-.4545.134q-0.2344.0478-.3875,0.0957a0.349,0.349,0,0,0-.1292.1053,1.1549,1.1549,0,0,0-.1148.1722q-0.0526.0957-.1,0.1962t-0.0861.177l-0.134,1.7989,0.1722,1.3587-0.1722.2488a0.5264,0.5264,0,0,0,.0335.11,0.3807,0.3807,0,0,0,.0526.11v0.01a0.65,0.65,0,0,1-.0431.23,0.7029,0.7029,0,0,0-.0431.2488,0.82,0.82,0,0,0,.0909.3971,1.26,1.26,0,0,1,.1292.3875,0.6892,0.6892,0,0,1,.1053.0144q0.0765,0.0144.1722,0.0287l0.1914,0.0287q0.0957,0.0144.1435,0.0239,0.067,0.0383.2488,0.1387t0.3732,0.22a2.4137,2.4137,0,0,1,.34.2536,0.3631,0.3631,0,0,1,.1483.2488v0.0191a0.4748,0.4748,0,0,1-.0909.2009,1.3826,1.3826,0,0,1-.177.1914l-1.3587.0574a0.1263,0.1263,0,0,0-.0718-0.0383,0.4813,0.4813,0,0,0-.0718-0.0191,0.5943,0.5943,0,0,0-.1148-0.01H106.702q-0.4593,0-.9425.0144a7.374,7.374,0,0,0-.9138.0813l-0.1818.0957a0.9994,0.9994,0,0,1-.5215-0.134A1.0332,1.0332,0,0,1,103.8027,116.5668Z"/><path class="cls-9" d="M110.96,120.5a1.0417,1.0417,0,0,1,.1531-0.5167,0.83,0.83,0,0,1,.4115-0.3732q0.4019-.3636.7416-0.7224a3.4564,3.4564,0,0,0,.5406-0.732,0.7109,0.7109,0,0,0,.0765-0.354,0.7286,0.7286,0,0,1,.0191-0.1675q0.0191-.0813.0287-0.1387l0.1818-.488a0.4383,0.4383,0,0,1,.01-0.1148,0.2489,0.2489,0,0,0,.01-0.0765,0.1363,0.1363,0,0,1,.0239-0.0813q0.0239-.0335.0574-0.0718a0.3328,0.3328,0,0,0,.0574-0.1,0.513,0.513,0,0,0,.0239-0.177l-0.0478-.4019,0.1053-.5167a0.547,0.547,0,0,0-.0861-0.22,3.4487,3.4487,0,0,0-.2105-0.3253q-0.1244-.1722-0.2536-0.34t-0.2153-.2727a0.0605,0.0605,0,0,1-.0287-0.0335,0.0965,0.0965,0,0,0-.0383-0.0431l-0.0191-.0383a0.9858,0.9858,0,0,0-.1914-0.177q-0.1435-.11-0.2966-0.23t-0.2823-.23a0.4267,0.4267,0,0,1-.1483-0.1866l-0.0574-.2966-0.134-.2344a1.7818,1.7818,0,0,1-.0957-0.1914,1.1433,1.1433,0,0,1-.0622-0.2009,1.3105,1.3105,0,0,1-.0239-0.2727q0-.1244.0048-0.2249a1.2068,1.2068,0,0,1,.0239-0.1914q0.0191-.0909.0526-0.2009t0.0909-.2536a0.7164,0.7164,0,0,1-.0335-0.1148,0.5357,0.5357,0,0,1-.0144-0.1053,1.3129,1.3129,0,0,1,.0478-0.378,1.5971,1.5971,0,0,1,.12-0.2918,2.1913,2.1913,0,0,1,.1627-0.2584,2.7813,2.7813,0,0,0,.177-0.2775V109.63l0.2966-.3158q0.1531-.1914.2631-0.3205a0.9559,0.9559,0,0,1,.2392-0.2057,0.8621,0.8621,0,0,1,.2966-0.1053,2.7893,2.7893,0,0,1,.8612.01q0.2249,0.0383.4545,0.0909t0.4545,0.0909a2.5419,2.5419,0,0,0,.4258.0383,0.87,0.87,0,0,0,.4449-0.12,2.5132,2.5132,0,0,0,.378-0.2679l0.311-.2679a0.4014,0.4014,0,0,1,.244-0.12,0.0613,0.0613,0,0,1,.0574.0383,0.34,0.34,0,0,1,.0287.0957,0.6973,0.6973,0,0,1,.01.1148V108.5q-0.0574.2488-.1053,0.45-0.0478.1722-.0861,0.3158a0.3621,0.3621,0,0,1-.067.1627,0.1809,0.1809,0,0,1-.0431.1053,0.6667,0.6667,0,0,0-.0622.0957l-0.1818.1818a0.8463,0.8463,0,0,0-.0718.23,1.7045,1.7045,0,0,1-.067.2584,0.6255,0.6255,0,0,1-.1244.2153,0.2982,0.2982,0,0,1-.2344.0909,3.59,3.59,0,0,1-.6842-0.0622q-0.3205-.0622-0.6267-0.1435t-0.6172-.1435a3.2367,3.2367,0,0,0-.6363-0.0622h-0.44a0.3859,0.3859,0,0,0-.2344.23,0.8449,0.8449,0,0,0-.0813.3445,0.8559,0.8559,0,0,0,.22.3158q0.22,0.2488.5071,0.5454l0.3445,0.3445q0.1627,0.1914.3158,0.3971a3.5664,3.5664,0,0,1,.23.34,1.358,1.358,0,0,0,.2488.3923,4.1916,4.1916,0,0,1,.3158.4019l0.1531,0.3732a1.36,1.36,0,0,1,.2153.2057,0.1882,0.1882,0,0,1,.0335.1,2.1073,2.1073,0,0,0,.0191.2966,0.2172,0.2172,0,0,0,.1244.1818v0.4115l-0.0765.9282,0.0765,0.2488q0,0.0765-.01.1914t-0.0287.2392q-0.0191.1244-.0431,0.244a1.2962,1.2962,0,0,1-.0526.1962l-0.2105.2392a0.5159,0.5159,0,0,0-.067.1866q-0.0191.11-.0335,0.23t-0.0383.2392a1.23,1.23,0,0,1-.0622.2153q-0.0957.1627-.2775,0.44t-0.421.5933q-0.2392.3158-.5119,0.6459a7.1619,7.1619,0,0,1-.5454.5933,3.5783,3.5783,0,0,1-.5311.4306,0.8745,0.8745,0,0,1-.4593.1675,0.7485,0.7485,0,0,1-.2344-0.0431,0.8558,0.8558,0,0,1-.2344-0.12,0.6781,0.6781,0,0,1-.177-0.1914A0.4607,0.4607,0,0,1,110.96,120.5Z"/></svg>