<svg id="Layer_1" data-name="Layer 1" xmlns="http://www.w3.org/2000/svg" viewBox="0 0 288 109.7082"><defs><style>.cls-1{fill:#9f82a9;}.cls-2{fill:#636466;}</style></defs><title>hinkson</title><path class="cls-1" d="M15.6132,66.2417a0.1591,0.1591,0,0,0,.1528-0.1851V65.5012c0-4.019,0-4.76-.0506-5.6055a1.2912,1.2912,0,0,0-1.0936-1.5069,5.1321,5.1321,0,0,0-.9924-0.08c-0.2788,0-.4316-0.0517-0.4316-0.2368s0.1776-.2389.5339-0.2389c1.3734,0,2.975.08,3.6617,0.08,0.61,0,2.2119-.08,3.2042-0.08,0.3552,0,.5339.0538,0.5339,0.2389s-0.1528.2368-.4574,0.2368a4.4933,4.4933,0,0,0-.7384.08c-0.6867.1335-.889,0.5812-0.9407,1.5069-0.0506.846-.0506,1.5865-0.0506,5.6055v4.6519c0,2.4325,0,4.5206.127,5.6572,0.0764,0.7405.2293,1.3239,0.9913,1.4294a10.5585,10.5585,0,0,0,1.297.1055c0.28,0,.4069.08,0.4069,0.211,0,0.1851-.2034.2648-0.508,0.2648-1.6532,0-3.2548-.08-3.9674-0.08-0.5844,0-2.186.08-3.1784,0.08-0.3552,0-.5339-0.08-0.5339-0.2648,0-.1313.1023-0.211,0.4069-0.211a4.0815,4.0815,0,0,0,.916-0.1055c0.508-.1055.635-0.6889,0.7373-1.4552,0.127-1.1108.127-3.1989,0.127-5.6314V67.8282a0.149,0.149,0,0,0-.1528-0.1593H5.8994a0.1357,0.1357,0,0,0-.1518.1593v2.3249c0,2.4325,0,4.5206.127,5.6572,0.0764,0.7405.2282,1.3239,0.9913,1.4294a10.5585,10.5585,0,0,0,1.297.1055c0.28,0,.4069.08,0.4069,0.211,0,0.1851-.2034.2648-0.508,0.2648-1.6532,0-3.2548-.08-3.9674-0.08-0.5844,0-2.1871.08-3.2042,0.08-0.33,0-.508-0.08-0.508-0.2648,0-.1313.1012-0.211,0.4069-0.211A4.0627,4.0627,0,0,0,1.7038,77.24c0.5091-.1055.6361-0.6889,0.7373-1.4552,0.127-1.1108.127-3.1989,0.127-5.6314V65.5012c0-4.019,0-4.76-.0506-5.6055A1.29,1.29,0,0,0,1.424,58.3888a5.12,5.12,0,0,0-.9913-0.08C0.1528,58.3091,0,58.2575,0,58.0723s0.1787-.2389.5339-0.2389c1.3734,0,2.9761.08,3.6617,0.08,0.6114,0,2.2129-.08,3.2042-0.08,0.3563,0,.5339.0538,0.5339,0.2389s-0.1518.2368-.4574,0.2368a4.482,4.482,0,0,0-.7373.08c-0.6867.1335-.89,0.5812-0.9407,1.5069-0.0506.846-.0506,1.5865-0.0506,5.6055v0.5554a0.1584,0.1584,0,0,0,.1518.1851h9.7139Z"/><path class="cls-1" d="M26.28,67.3245c0-3.41,0-4.0448-.0258-4.7574a1.076,1.076,0,0,0-.762-1.19,2.746,2.746,0,0,0-.8137-0.1055c-0.2293,0-.3563-0.0538-0.3563-0.2648,0-.1313.1776-0.1851,0.5339-0.1851,0.84,0,2.3647.0538,3.0008,0.0538,0.5586,0,2.0084-.0538,2.8727-0.0538,0.28,0,.4585.0538,0.4585,0.1851,0,0.211-.127.2648-0.3563,0.2648a2.9325,2.9325,0,0,0-.6609.08c-0.61.1055-.7889,0.4219-0.84,1.2163C29.28,63.28,29.28,63.9147,29.28,67.3245V71.29c0,2.1677,0,3.9674.1012,4.9188a0.9709,0.9709,0,0,0,.89,1.057,7.9226,7.9226,0,0,0,1.1441.08,0.2962,0.2962,0,0,1,.3563.2368c0,0.1593-.1776.2389-0.4327,0.2389-1.4746,0-3-.08-3.61-0.08-0.5091,0-2.0343.08-2.9244,0.08-0.28,0-.4327-0.08-0.4327-0.2389,0-.1055.0764-0.2368,0.3563-0.2368a3.1233,3.1233,0,0,0,.7879-0.08,0.9737,0.9737,0,0,0,.6619-1.0849C26.28,75.257,26.28,73.4574,26.28,71.29V67.3245Z"/><path class="cls-1" d="M38.0213,74.7533c0.0517,1.7458.33,2.2732,0.7631,2.4325a3.6268,3.6268,0,0,0,1.17.1593c0.254,0,.381.1055,0.381,0.2368,0,0.1851-.2034.2389-0.508,0.2389-1.45,0-2.4917-.08-2.8986-0.08-0.2045,0-1.2722.08-2.4164,0.08-0.3046,0-.508-0.0258-0.508-0.2389a0.3094,0.3094,0,0,1,.3552-0.2368,4.4083,4.4083,0,0,0,1.0171-.1055c0.5855-.1593.6619-0.7685,0.6867-2.7231l0.2034-13.325c0-.45.1528-0.7663,0.3821-0.7663a1.9145,1.9145,0,0,1,.9655.7405c0.28,0.2906,3.6369,3.86,6.8917,7.1641,1.5252,1.5585,4.5,4.7315,4.8306,5.05h0.1023L49.21,63.3851c-0.0248-1.3734-.2282-1.7716-0.762-1.9826a3.6454,3.6454,0,0,0-1.17-.1313c-0.28,0-.3563-0.1055-0.3563-0.2389,0-.1851.2293-0.211,0.56-0.211,1.17,0,2.3647.0538,2.848,0.0538,0.254,0,1.0936-.0538,2.1871-0.0538,0.3046,0,.508.0258,0.508,0.211,0,0.1335-.127.2389-0.381,0.2389a2.1784,2.1784,0,0,0-.6867.08c-0.61.1851-.7879,0.5812-0.8137,1.8491l-0.254,14.171c0,0.5016-.1787.7147-0.3563,0.7147a1.3177,1.3177,0,0,1-.916-0.4757c-1.3982-1.35-4.1955-4.1245-6.5344-6.4774-2.4411-2.4325-4.8058-5.1556-5.2385-5.5517H37.7673Z"/><path class="cls-1" d="M60.9213,68.33h0.1012c0.7631-.846,4.0179-4.1783,4.6788-4.9447a3.8363,3.8363,0,0,0,1.1194-1.664,0.411,0.411,0,0,0-.3057-0.45c-0.2034-.0538-0.3046-0.1055-0.3046-0.2389,0-.1571.127-0.211,0.3563-0.211,0.4822,0,1.7028.0538,2.3141,0.0538,0.6856,0,1.932-.0538,2.6187-0.0538,0.2293,0,.381.0538,0.381,0.211a0.2673,0.2673,0,0,1-.33.2389,4.16,4.16,0,0,0-1.297.2648A6.7248,6.7248,0,0,0,67.8884,63.2c-0.7115.6889-4.0427,3.9674-4.7294,4.7854,0.7879,1.057,5.1868,5.8165,6.0522,6.6625a11.0756,11.0756,0,0,0,3.0514,2.4067,3.1247,3.1247,0,0,0,1.3723.2906,0.2714,0.2714,0,0,1,.3057.2368c0,0.1593-.127.2389-0.5339,0.2389H71.4489a13.3182,13.3182,0,0,1-1.5521-.0538,4.5941,4.5941,0,0,1-2.8986-1.453c-0.9655-.8718-5.2633-6.0554-5.7465-6.7421l-0.2293-.3164H60.9213V71.29c0,2.0622,0,3.8339.0506,4.8133a1.0638,1.0638,0,0,0,.8137,1.1624,7.743,7.743,0,0,0,1.0936.08,0.2912,0.2912,0,0,1,.3057.2368c0,0.1593-.1787.2389-0.4327,0.2389-1.2464,0-2.848-.08-3.4077-0.08-0.508,0-1.932.08-2.8221,0.08-0.28,0-.4327-0.08-0.4327-0.2389,0-.1055.0764-0.2368,0.3563-0.2368a3.1233,3.1233,0,0,0,.7879-0.08,1.1164,1.1164,0,0,0,.6619-1.19c0.1012-.9515.1012-2.7231,0.1012-4.7854V67.3245c0-3.41,0-4.0448-.0258-4.7574a1.092,1.092,0,0,0-.9655-1.2163,3.919,3.919,0,0,0-.89-0.08c-0.2293,0-.3821-0.08-0.3821-0.2389,0-.1571.1787-0.211,0.5091-0.211,1.17,0,2.594.0538,3.1278,0.0538s2.1354-.0538,2.8727-0.0538c0.33,0,.4833.0538,0.4833,0.211a0.2558,0.2558,0,0,1-.3046.2389,2.9037,2.9037,0,0,0-.6361.08c-0.61.1055-.7879,0.4219-0.84,1.2163-0.0248.7125-.0248,1.3476-0.0248,4.7574V68.33Z"/><path class="cls-1" d="M74.2872,77.53a0.625,0.625,0,0,1-.4327-0.7663c0-1.2163.1023-2.6176,0.1281-2.9879,0-.3444.1012-0.5812,0.2788-0.5812,0.2034,0,.2293.211,0.2293,0.37a4.3341,4.3341,0,0,0,.2034,1.1624,3.447,3.447,0,0,0,3.5594,2.2215,2.8526,2.8526,0,0,0,3.1031-2.8566c0-.9773-0.2293-1.9568-2.2129-3.173l-1.297-.7922c-2.6435-1.6123-3.5088-3.1192-3.5088-5.1018,0-2.7511,2.5434-4.5206,5.6453-4.5206a12.75,12.75,0,0,1,3.1784.37,0.3093,0.3093,0,0,1,.3057.2906c0,0.2906-.0764.9256-0.0764,2.6951,0,0.4757-.1023.7147-0.28,0.7147-0.1528,0-.2293-0.1313-0.2293-0.3961a2.5927,2.5927,0,0,0-.5844-1.481,2.956,2.956,0,0,0-2.4917-1.057c-1.6027,0-3.0514.8718-3.0514,2.4045,0,1.0053.3552,1.7975,2.3647,2.9621l0.9149,0.5274c2.95,1.692,3.8651,3.412,3.8651,5.4462a4.8539,4.8539,0,0,1-2.2377,4.2041,6.3145,6.3145,0,0,1-3.7381.9256A9.1722,9.1722,0,0,1,74.2872,77.53Z"/><path class="cls-1" d="M86.79,69.3071c0-3.8317,2.594-8.8022,9.3834-8.8022,5.6443,0,9.1542,3.2505,9.1542,8.4061s-3.6111,9.2-9.3834,9.2C89.4344,78.1115,86.79,73.3,86.79,69.3071Zm15.2064,0.4241c0-4.97-2.8738-8.038-6.4849-8.038-2.4917,0-5.4161,1.3755-5.4161,6.9273,0,4.6261,2.5434,8.2748,6.7637,8.2748C98.4357,76.8952,101.9962,76.1289,101.9962,69.7311Z"/><path class="cls-1" d="M110.8846,74.7533c0.0517,1.7458.33,2.2732,0.7631,2.4325a3.6268,3.6268,0,0,0,1.17.1593c0.254,0,.381.1055,0.381,0.2368,0,0.1851-.2034.2389-0.508,0.2389-1.45,0-2.4917-.08-2.8986-0.08-0.2045,0-1.2722.08-2.4164,0.08-0.3046,0-.508-0.0258-0.508-0.2389a0.3094,0.3094,0,0,1,.3552-0.2368A4.4083,4.4083,0,0,0,108.24,77.24c0.5855-.1593.6619-0.7685,0.6867-2.7231l0.2034-13.325c0-.45.1528-0.7663,0.3821-0.7663a1.9145,1.9145,0,0,1,.9655.7405c0.28,0.2906,3.6369,3.86,6.8917,7.1641,1.5252,1.5585,4.5,4.7315,4.8306,5.05h0.1023l-0.2293-9.9948c-0.0248-1.3734-.2282-1.7716-0.762-1.9826a3.6454,3.6454,0,0,0-1.17-.1313c-0.28,0-.3563-0.1055-0.3563-0.2389,0-.1851.2293-0.211,0.56-0.211,1.17,0,2.3647.0538,2.848,0.0538,0.254,0,1.0936-.0538,2.1871-0.0538,0.3046,0,.508.0258,0.508,0.211,0,0.1335-.127.2389-0.381,0.2389a2.1784,2.1784,0,0,0-.6867.08c-0.61.1851-.7879,0.5812-0.8137,1.8491l-0.254,14.171c0,0.5016-.1787.7147-0.3563,0.7147a1.3177,1.3177,0,0,1-.916-0.4757c-1.3982-1.35-4.1955-4.1245-6.5344-6.4774-2.4411-2.4325-4.8058-5.1556-5.2385-5.5517h-0.0764Z"/><path class="cls-1" d="M138.9929,65.5012c0-4.019,0-4.76-.0517-5.6055a1.29,1.29,0,0,0-1.0936-1.5069,5.12,5.12,0,0,0-.9913-0.08c-0.28,0-.4327-0.0517-0.4327-0.2368s0.1787-.2389.56-0.2389c1.3476,0,2.95.08,3.6617,0.08,1.043,0,2.5175-.08,3.6875-0.08,3.1784,0,4.3225,1.1108,4.7294,1.5069a4.6822,4.6822,0,0,1,1.2711,3.1472,6.1014,6.1014,0,0,1-6.2556,6.3977,3.6954,3.6954,0,0,1-.5339-0.0258,0.2852,0.2852,0,0,1-.3046-0.2389c0-.211.1776-0.2906,0.7115-0.2906,1.424,0,3.4077-1.6662,3.4077-4.3634a5.2041,5.2041,0,0,0-1.5-3.9652,3.6951,3.6951,0,0,0-2.5423-1.0311,3.5377,3.5377,0,0,0-.9924.1055,0.4926,0.4926,0,0,0-.2034.5037V70.1531c0,2.4325,0,4.5206.1281,5.6572,0.0753,0.7405.2282,1.3239,0.9913,1.4294a10.5412,10.5412,0,0,0,1.297.1055c0.28,0,.4069.08,0.4069,0.211,0,0.1851-.2034.2648-0.4833,0.2648-1.678,0-3.2807-.08-3.9415-0.08-0.5844,0-2.1871.08-3.2042,0.08-0.33,0-.508-0.08-0.508-0.2648,0-.1313.1012-0.211,0.4069-0.211a4.0627,4.0627,0,0,0,.9149-0.1055c0.5091-.1055.6361-0.6889,0.7373-1.4552,0.1281-1.1108.1281-3.1989,0.1281-5.6314V65.5012Z"/><path class="cls-1" d="M155.1292,67.3245c0-3.41,0-4.0448-.0258-4.7574a1.0912,1.0912,0,0,0-.9644-1.2163,3.919,3.919,0,0,0-.89-0.08c-0.2293,0-.3821-0.08-0.3821-0.2389,0-.1571.1787-0.211,0.5091-0.211,1.17,0,2.5929.0538,3.0514,0.0538,0.7642,0,2.7963-.0538,3.483-0.0538a7.5822,7.5822,0,0,1,4.2472.9515,3.9691,3.9691,0,0,1,1.5757,3.0934c0,1.6662-.9149,3.145-3.102,4.97,1.9826,2.538,3.56,4.5744,4.9081,5.9736a4.154,4.154,0,0,0,2.3916,1.481,1.9732,1.9732,0,0,0,.5339.0538,0.2636,0.2636,0,0,1,.28.2368c0,0.1851-.155.2389-0.4348,0.2389h-2.1354a4.7039,4.7039,0,0,1-2.4411-.45c-0.9644-.5016-1.8039-1.5607-3.05-3.3043-0.889-1.2163-1.8319-2.7231-2.1118-3.0675a0.5008,0.5008,0,0,0-.4047-0.1571l-2.0106-.0538a0.1634,0.1634,0,0,0-.1765.1851V71.29c0,2.09.0258,3.8339,0.1249,4.7854a1.0335,1.0335,0,0,0,.8654,1.19,8.0251,8.0251,0,0,0,1.0936.08,0.2622,0.2622,0,0,1,.28.2368c0,0.1593-.1765.2389-0.4564,0.2389-1.2981,0-3.1558-.08-3.4852-0.08-0.4327,0-1.8556.08-2.7446,0.08-0.2809,0-.4338-0.08-0.4338-0.2389,0-.1055.0764-0.2368,0.3563-0.2368a3.1118,3.1118,0,0,0,.7879-0.08,1.1133,1.1133,0,0,0,.6609-1.19c0.1012-.9515.1012-2.7231,0.1012-4.7854V67.3245Zm2.85,1.7458a0.3531,0.3531,0,0,0,.2023.3961,5.8971,5.8971,0,0,0,1.7049.211,2.1862,2.1862,0,0,0,1.5757-.37,3.85,3.85,0,0,0,1.4487-3.33c0-3.173-2.0859-3.9932-3.4077-3.9932a7.9054,7.9054,0,0,0-1.3217.08,0.2749,0.2749,0,0,0-.2023.3186V69.07Z"/><path class="cls-1" d="M170.0213,69.3071c0-3.8317,2.594-8.8022,9.3834-8.8022,5.6443,0,9.1553,3.2505,9.1553,8.4061s-3.6122,9.2-9.3856,9.2C172.6648,78.1115,170.0213,73.3,170.0213,69.3071Zm15.2064,0.4241c0-4.97-2.8738-8.038-6.4838-8.038-2.4928,0-5.4161,1.3755-5.4161,6.9273,0,4.6261,2.5423,8.2748,6.7637,8.2748C181.6672,76.8952,185.2277,76.1289,185.2277,69.7311Z"/><path class="cls-1" d="M192.7427,67.3245c0-3.41,0-4.0448-.0258-4.7574a1.0913,1.0913,0,0,0-.9665-1.2163,3.9022,3.9022,0,0,0-.889-0.08c-0.23,0-.381-0.08-0.381-0.2389,0-.1571.1765-0.211,0.508-0.211,1.171,0,2.594.0538,3.229,0.0538,0.917,0,2.6951-.0538,3.7133-0.0538,2.7963,0,3.8124.9515,4.17,1.27a3.97,3.97,0,0,1,1.1194,2.6951,5.388,5.388,0,0,1-5.6206,5.4462,5.6719,5.6719,0,0,1-.6609-0.0258,0.26,0.26,0,0,1-.28-0.2389c0-.1851.254-0.2906,0.7362-0.2906a3.4662,3.4662,0,0,0,3.0008-3.6488,4.2735,4.2735,0,0,0-1.3217-3.33,3.2808,3.2808,0,0,0-2.2366-.846,3.37,3.37,0,0,0-.9665.1055,0.3971,0.3971,0,0,0-.1787.4241V71.29c0,2.0622,0,3.8339.1012,4.8133a1.04,1.04,0,0,0,.8654,1.1624,8.1924,8.1924,0,0,0,1.1452.08,0.295,0.295,0,0,1,.3552.2368c0,0.1593-.1787.2389-0.4069,0.2389-1.5,0-3.0762-.08-3.6617-0.08-0.508,0-1.9309.08-2.8221,0.08-0.28,0-.4327-0.08-0.4327-0.2389,0-.1055.0753-0.2368,0.3552-0.2368a3.1118,3.1118,0,0,0,.7879-0.08,1.117,1.117,0,0,0,.663-1.19c0.1012-.9515.1012-2.7231,0.1012-4.7854V67.3245Z"/><path class="cls-1" d="M207.8909,67.3245c0-3.41,0-4.0448-.0258-4.7574a1.0928,1.0928,0,0,0-.9665-1.2163,3.915,3.915,0,0,0-.889-0.08c-0.23,0-.3832-0.08-0.3832-0.2389,0-.1571.1787-0.211,0.508-0.211,1.171,0,2.5961.0538,3.229,0.0538,0.7147,0,5.6723.0258,6.1049,0,0.4047-.028.762-0.1076,0.9386-0.1335a2.736,2.736,0,0,1,.3573-0.1055,0.1681,0.1681,0,0,1,.1528.211,10.4591,10.4591,0,0,0-.1787,1.4552c-0.0258.2368-.0753,1.2163-0.127,1.481a0.3908,0.3908,0,0,1-.254.3681c-0.1528,0-.1787-0.1055-0.1787-0.2906a2.2154,2.2154,0,0,0-.1507-0.818c-0.1787-.3982-0.3573-0.7147-1.4767-0.82-0.381-.0538-3.05-0.1055-3.5088-0.1055-0.1012,0-.1507.08-0.1507,0.211V67.88c0,0.1313.0237,0.2389,0.1507,0.2389,0.508,0,3.4077,0,3.9178-.0538a1.5235,1.5235,0,0,0,1.0677-.3444,0.9024,0.9024,0,0,1,.3552-0.2906,0.2127,0.2127,0,0,1,.1787.2389c0,0.1313-.0517.5016-0.1787,1.6382-0.0517.45-.1012,1.35-0.1012,1.5069,0,0.1851-.0258.5037-0.2282,0.5037a0.1722,0.1722,0,0,1-.2045-0.1851c-0.0258-.2389-0.0258-0.53-0.0753-0.82a1.1933,1.1933,0,0,0-1.2485-.8718c-0.4047-.0538-2.9491-0.1055-3.5088-0.1055-0.1012,0-.1249.1055-0.1249,0.2368v1.7975c0,0.7663-.0258,2.6715,0,3.3323,0.05,1.5327.7362,1.8771,3.0245,1.8771a5.87,5.87,0,0,0,2.1118-.2906,1.9,1.9,0,0,0,.9644-1.6662c0.0517-.2389.1033-0.3444,0.254-0.3444,0.1787,0,.2045.2906,0.2045,0.53a15.7988,15.7988,0,0,1-.3057,2.4842c-0.1528.5812-.3552,0.5812-1.1947,0.5812-1.6791,0-3.0266-.0258-4.12-0.0775-1.0936-.028-1.9331-0.0538-2.5918-0.0538-0.254,0-.7384.0258-1.2722,0.0258-0.5339.028-1.0936,0.0538-1.5521,0.0538-0.28,0-.4305-0.08-0.4305-0.2389,0-.1055.0753-0.2368,0.3552-0.2368a3.1349,3.1349,0,0,0,.7879-0.08,1.1133,1.1133,0,0,0,.6609-1.19c0.1033-.9515.1033-2.7231,0.1033-4.7854V67.3245Z"/><path class="cls-1" d="M222.0468,67.3245c0-3.41,0-4.0448-.0258-4.7574a1.0928,1.0928,0,0,0-.9665-1.2163,3.915,3.915,0,0,0-.889-0.08c-0.23,0-.3832-0.08-0.3832-0.2389,0-.1571.1787-0.211,0.508-0.211,1.171,0,2.5961.0538,3.0525,0.0538,0.762,0,2.7985-.0538,3.483-0.0538a7.5822,7.5822,0,0,1,4.2472.9515,3.97,3.97,0,0,1,1.5779,3.0934c0,1.6662-.917,3.145-3.1041,4.97,1.9848,2.538,3.56,4.5744,4.9081,5.9736a4.1579,4.1579,0,0,0,2.3895,1.481,1.981,1.981,0,0,0,.5339.0538,0.2622,0.2622,0,0,1,.28.2368c0,0.1851-.1507.2389-0.4305,0.2389h-2.1354a4.6885,4.6885,0,0,1-2.4411-.45c-0.9687-.5016-1.8082-1.5607-3.0525-3.3043-0.8912-1.2163-1.83-2.7231-2.11-3.0675a0.512,0.512,0,0,0-.409-0.1571l-2.0084-.0538a0.1649,0.1649,0,0,0-.1787.1851V71.29c0,2.09.0258,3.8339,0.1292,4.7854a1.0305,1.0305,0,0,0,.8632,1.19,8.0251,8.0251,0,0,0,1.0936.08,0.2622,0.2622,0,0,1,.28.2368c0,0.1593-.1787.2389-0.4585,0.2389-1.2959,0-3.1515-.08-3.483-0.08-0.4305,0-1.8556.08-2.7468,0.08-0.28,0-.4305-0.08-0.4305-0.2389,0-.1055.0753-0.2368,0.3552-0.2368a3.1349,3.1349,0,0,0,.7879-0.08,1.1133,1.1133,0,0,0,.6609-1.19c0.1033-.9515.1033-2.7231,0.1033-4.7854V67.3245Zm2.8458,1.7458a0.3542,0.3542,0,0,0,.2045.3961,5.8916,5.8916,0,0,0,1.7028.211,2.1859,2.1859,0,0,0,1.5779-.37,3.85,3.85,0,0,0,1.4487-3.33c0-3.173-2.0838-3.9932-3.4077-3.9932a7.9413,7.9413,0,0,0-1.3217.08,0.2763,0.2763,0,0,0-.2045.3186V69.07Z"/><path class="cls-1" d="M241.5155,62.1968l-3.3323.0775c-1.2959.028-1.83,0.1851-2.1613,0.6889a2.6292,2.6292,0,0,0-.381.7663c-0.0517.1851-.1012,0.2906-0.254,0.2906s-0.2045-.1313-0.2045-0.37c0-.37.4327-2.538,0.4822-2.7231,0.0517-.2906.1292-0.4219,0.2562-0.4219,0.1787,0,.4069.1851,0.9665,0.2626a20.0721,20.0721,0,0,0,2.2366.1076h9.0778a9.36,9.36,0,0,0,1.5262-.1076c0.3552-.0517.5339-0.1055,0.6092-0.1055,0.155,0,.1787.1335,0.1787,0.4757,0,0.4757-.05,2.1419-0.05,2.7231-0.0258.2389-.0775,0.37-0.2045,0.37-0.1787,0-.2282-0.1055-0.254-0.4478l-0.0258-.2389c-0.05-.5812-0.635-1.27-2.6456-1.2959l-2.82-.0517V71.29c0,2.0622.0237,3.8339,0.1249,4.8133a1.04,1.04,0,0,0,.8654,1.1624,7.9268,7.9268,0,0,0,1.1452.08,0.295,0.295,0,0,1,.3552.2368c0,0.1593-.1787.2389-0.4327,0.2389-1.4746,0-2.975-.08-3.61-0.08-0.51,0-2.0343.08-2.9255,0.08-0.28,0-.4305-0.08-0.4305-0.2389,0-.1055.0753-0.2368,0.3552-0.2368a2.999,2.999,0,0,0,.7879-0.08,1.1133,1.1133,0,0,0,.6609-1.19c0.1033-.9515.1033-2.7231,0.1033-4.7854V62.1968Z"/><path class="cls-1" d="M254.6252,67.3245c0-3.41,0-4.0448-.0258-4.7574a1.073,1.073,0,0,0-.762-1.19,2.7414,2.7414,0,0,0-.8137-0.1055c-0.2282,0-.3552-0.0538-0.3552-0.2648,0-.1313.1787-0.1851,0.5339-0.1851,0.84,0,2.3658.0538,3.0008,0.0538,0.56,0,2.0084-.0538,2.8738-0.0538,0.28,0,.4564.0538,0.4564,0.1851,0,0.211-.127.2648-0.3552,0.2648a2.9253,2.9253,0,0,0-.6609.08c-0.6114.1055-.7879,0.4219-0.84,1.2163-0.0517.7125-.0517,1.3476-0.0517,4.7574V71.29c0,2.1677,0,3.9674.1033,4.9188a0.9693,0.9693,0,0,0,.889,1.057,7.9184,7.9184,0,0,0,1.1431.08,0.2961,0.2961,0,0,1,.3573.2368c0,0.1593-.1765.2389-0.4327,0.2389-1.4746,0-2.9987-.08-3.61-0.08-0.508,0-2.0343.08-2.9233,0.08-0.28,0-.4348-0.08-0.4348-0.2389,0-.1055.0775-0.2368,0.3573-0.2368a3.1118,3.1118,0,0,0,.7879-0.08,0.9711,0.9711,0,0,0,.6609-1.0849c0.1012-.9235.1012-2.7231,0.1012-4.8908V67.3245Z"/><path class="cls-1" d="M264.9708,67.3245c0-3.41,0-4.0448-.0258-4.7574a1.0928,1.0928,0,0,0-.9665-1.2163,3.915,3.915,0,0,0-.889-0.08c-0.23,0-.3832-0.08-0.3832-0.2389,0-.1571.1787-0.211,0.508-0.211,1.171,0,2.5961.0538,3.229,0.0538,0.7147,0,5.6723.0258,6.1049,0,0.4047-.028.762-0.1076,0.9386-0.1335a2.736,2.736,0,0,1,.3573-0.1055,0.1681,0.1681,0,0,1,.1528.211,10.4591,10.4591,0,0,0-.1787,1.4552c-0.0258.2368-.0753,1.2163-0.127,1.481a0.3908,0.3908,0,0,1-.254.3681c-0.1528,0-.1787-0.1055-0.1787-0.2906a2.2154,2.2154,0,0,0-.1507-0.818c-0.1787-.3982-0.3573-0.7147-1.4767-0.82-0.381-.0538-3.05-0.1055-3.5088-0.1055-0.1012,0-.1507.08-0.1507,0.211V67.88c0,0.1313.0237,0.2389,0.1507,0.2389,0.508,0,3.4077,0,3.9178-.0538a1.5235,1.5235,0,0,0,1.0677-.3444,0.9024,0.9024,0,0,1,.3552-0.2906,0.2127,0.2127,0,0,1,.1787.2389c0,0.1313-.0517.5016-0.1787,1.6382-0.0517.45-.1012,1.35-0.1012,1.5069,0,0.1851-.0258.5037-0.2282,0.5037a0.1722,0.1722,0,0,1-.2045-0.1851c-0.0258-.2389-0.0258-0.53-0.0753-0.82a1.1933,1.1933,0,0,0-1.2485-.8718c-0.4047-.0538-2.9491-0.1055-3.5088-0.1055-0.1012,0-.1249.1055-0.1249,0.2368v1.7975c0,0.7663-.0258,2.6715,0,3.3323,0.05,1.5327.7362,1.8771,3.0245,1.8771a5.87,5.87,0,0,0,2.1118-.2906,1.9,1.9,0,0,0,.9644-1.6662c0.0517-.2389.1033-0.3444,0.254-0.3444,0.1787,0,.2045.2906,0.2045,0.53a15.7988,15.7988,0,0,1-.3057,2.4842c-0.1528.5812-.3552,0.5812-1.1947,0.5812-1.6791,0-3.0266-.0258-4.12-0.0775-1.0936-.028-1.9331-0.0538-2.5918-0.0538-0.254,0-.7384.0258-1.2722,0.0258-0.5339.028-1.0936,0.0538-1.5521,0.0538-0.28,0-.4305-0.08-0.4305-0.2389,0-.1055.0753-0.2368,0.3552-0.2368a3.1349,3.1349,0,0,0,.7879-0.08,1.1133,1.1133,0,0,0,.6609-1.19c0.1033-.9515.1033-2.7231,0.1033-4.7854V67.3245Z"/><path class="cls-1" d="M278.3884,77.53a0.6259,0.6259,0,0,1-.4327-0.7663c0-1.2163.1033-2.6176,0.127-2.9879,0-.3444.1012-0.5812,0.28-0.5812,0.2045,0,.23.211,0.23,0.37a4.3283,4.3283,0,0,0,.2024,1.1624,3.4467,3.4467,0,0,0,3.56,2.2215,2.8516,2.8516,0,0,0,3.102-2.8566c0-.9773-0.23-1.9568-2.2129-3.173l-1.2959-.7922c-2.6456-1.6123-3.511-3.1192-3.511-5.1018,0-2.7511,2.5444-4.5206,5.6464-4.5206a12.7749,12.7749,0,0,1,3.1795.37,0.31,0.31,0,0,1,.3057.2906c0,0.2906-.0775.9256-0.0775,2.6951,0,0.4757-.1033.7147-0.28,0.7147-0.1528,0-.2282-0.1313-0.2282-0.3961a2.6046,2.6046,0,0,0-.5855-1.481,2.9569,2.9569,0,0,0-2.4928-1.057c-1.6016,0-3.05.8718-3.05,2.4045,0,1.0053.3552,1.7975,2.3658,2.9621l0.9127,0.5274c2.9513,1.692,3.8662,3.412,3.8662,5.4462a4.855,4.855,0,0,1-2.2388,4.2041,6.3093,6.3093,0,0,1-3.737.9256A9.1754,9.1754,0,0,1,278.3884,77.53Z"/><path class="cls-2" d="M84.2056,90.2029a0.1113,0.1113,0,0,0-.1152.1055l-0.6856,1.89a2.6218,2.6218,0,0,0-.1916.8072c0,0.2368.1152,0.409,0.5091,0.409h0.1905c0.1528,0,.1905.0258,0.1905,0.1055,0,0.1055-.0764.1313-0.2163,0.1313-0.4069,0-.9536-0.0387-1.3476-0.0387-0.14,0-.8385.0387-1.5,0.0387-0.1647,0-.2411-0.0258-0.2411-0.1313,0-.08.0506-0.1055,0.1528-0.1055a3.8032,3.8032,0,0,0,.3939-0.0258,1.4646,1.4646,0,0,0,1.0806-1.19l3.1913-8.3007a0.6462,0.6462,0,0,1,.3563-0.53,0.5133,0.5133,0,0,1,.3175.4241c0.3046,0.7254,2.3389,6.12,3.1526,8.1284,0.4833,1.19.8525,1.3755,1.1194,1.44a2.5978,2.5978,0,0,0,.5339.0538c0.1023,0,.1658.0129,0.1658,0.1055,0,0.1055-.1152.1313-0.5855,0.1313-0.4574,0-1.3852,0-2.4024-.0258-0.2293-.0129-0.3821-0.0129-0.3821-0.1055,0-.08.0517-0.1055,0.1787-0.1184a0.219,0.219,0,0,0,.1141-0.3035l-1.0171-2.8028a0.1223,0.1223,0,0,0-.127-0.0926H84.2056Zm2.594-.6609a0.0569,0.0569,0,0,0,.0635-0.08l-1.1452-3.2656a0.13,0.13,0,0,0-.0635-0.1184,0.1389,0.1389,0,0,0-.0753.1184L84.409,89.45c-0.0129.0517,0,.0926,0.0506,0.0926H86.8Z"/><path class="cls-2" d="M91.6129,93.5073a0.3135,0.3135,0,0,1-.2163-0.3832c0-.6092.0506-1.3088,0.0635-1.4939,0-.1722.0517-0.2906,0.14-0.2906,0.1023,0,.1141.1055,0.1141,0.1851a2.1771,2.1771,0,0,0,.1023.5812,1.7234,1.7234,0,0,0,1.78,1.1108,1.4262,1.4262,0,0,0,1.551-1.4272,1.7164,1.7164,0,0,0-1.1065-1.5865l-0.648-.3982C92.07,89,91.6387,88.2462,91.6387,87.2538c0-1.3734,1.2711-2.26,2.8221-2.26a6.3874,6.3874,0,0,1,1.59.1851,0.1563,0.1563,0,0,1,.1518.1464c0,0.1442-.0377.4628-0.0377,1.3476,0,0.2389-.0506.3573-0.14,0.3573-0.0764,0-.1141-0.0667-0.1141-0.198a1.3048,1.3048,0,0,0-.2928-0.7405,1.4815,1.4815,0,0,0-1.2464-.53,1.3491,1.3491,0,0,0-1.5252,1.2033c0,0.5037.1776,0.9,1.1818,1.481l0.4585,0.2648c1.4746,0.846,1.932,1.7049,1.932,2.7231A2.4234,2.4234,0,0,1,95.3,93.3351a3.1677,3.1677,0,0,1-1.87.4628A4.607,4.607,0,0,1,91.6129,93.5073Z"/><path class="cls-2" d="M98.4745,93.5073a0.3135,0.3135,0,0,1-.2163-0.3832c0-.6092.0506-1.3088,0.0635-1.4939,0-.1722.0506-0.2906,0.14-0.2906,0.1023,0,.1152.1055,0.1152,0.1851a2.1711,2.1711,0,0,0,.1012.5812,1.7234,1.7234,0,0,0,1.78,1.1108,1.4256,1.4256,0,0,0,1.551-1.4272,1.7164,1.7164,0,0,0-1.1065-1.5865l-0.648-.3982C98.9319,89,98.5,88.2462,98.5,87.2538c0-1.3734,1.2711-2.26,2.8221-2.26a6.3874,6.3874,0,0,1,1.59.1851,0.1563,0.1563,0,0,1,.1518.1464c0,0.1442-.0377.4628-0.0377,1.3476,0,0.2389-.0506.3573-0.14,0.3573-0.0764,0-.1141-0.0667-0.1141-0.198a1.3048,1.3048,0,0,0-.2928-0.7405,1.4815,1.4815,0,0,0-1.2464-.53,1.3491,1.3491,0,0,0-1.5252,1.2033c0,0.5037.1776,0.9,1.1818,1.481l0.4585,0.2648c1.4746,0.846,1.932,1.7049,1.932,2.7231a2.4234,2.4234,0,0,1-1.1183,2.101,3.17,3.17,0,0,1-1.87.4628A4.607,4.607,0,0,1,98.4745,93.5073Z"/><path class="cls-2" d="M105.6923,88.4055c0-1.7071,0-2.0235-.0129-2.3808a0.537,0.537,0,0,0-.381-0.5941,1.407,1.407,0,0,0-.4069-0.0538c-0.1152,0-.1787-0.0258-0.1787-0.1313,0-.0667.0893-0.0926,0.268-0.0926,0.4187,0,1.1818.0258,1.4993,0.0258,0.28,0,1.0053-.0258,1.4369-0.0258,0.14,0,.2293.0258,0.2293,0.0926,0,0.1055-.0635.1313-0.1787,0.1313a1.5391,1.5391,0,0,0-.33.0409c-0.3046.0517-.3939,0.211-0.42,0.607-0.0248.3573-.0248,0.6738-0.0248,2.3808v1.9826c0,1.0828,0,1.9826.0506,2.4583a0.4839,0.4839,0,0,0,.4456.5274,3.8,3.8,0,0,0,.5715.0409,0.1482,0.1482,0,0,1,.1776.1184c0,0.08-.0883.1184-0.2153,0.1184-0.7373,0-1.5-.0387-1.8061-0.0387-0.254,0-1.0171.0387-1.4617,0.0387-0.14,0-.2163-0.0387-0.2163-0.1184,0-.0517.0377-0.1184,0.1776-0.1184a1.516,1.516,0,0,0,.395-0.0409,0.4848,0.4848,0,0,0,.33-0.54c0.0506-.4628.0506-1.3626,0.0506-2.4454V88.4055Z"/><path class="cls-2" d="M110.2538,93.5073a0.3135,0.3135,0,0,1-.2163-0.3832c0-.6092.0506-1.3088,0.0635-1.4939,0-.1722.0506-0.2906,0.14-0.2906,0.1023,0,.1152.1055,0.1152,0.1851a2.1711,2.1711,0,0,0,.1012.5812,1.7234,1.7234,0,0,0,1.78,1.1108,1.4256,1.4256,0,0,0,1.551-1.4272,1.7164,1.7164,0,0,0-1.1065-1.5865l-0.648-.3982C110.7113,89,110.28,88.2462,110.28,87.2538c0-1.3734,1.2711-2.26,2.8221-2.26a6.3874,6.3874,0,0,1,1.59.1851,0.1563,0.1563,0,0,1,.1518.1464c0,0.1442-.0377.4628-0.0377,1.3476,0,0.2389-.0506.3573-0.14,0.3573-0.0764,0-.1141-0.0667-0.1141-0.198a1.3048,1.3048,0,0,0-.2928-0.7405,1.4815,1.4815,0,0,0-1.2464-.53,1.3491,1.3491,0,0,0-1.5252,1.2033c0,0.5037.1776,0.9,1.1818,1.481l0.4585,0.2648c1.4746,0.846,1.932,1.7049,1.932,2.7231a2.4234,2.4234,0,0,1-1.1183,2.101,3.17,3.17,0,0,1-1.87.4628A4.607,4.607,0,0,1,110.2538,93.5073Z"/><path class="cls-2" d="M119.2132,85.8395l-1.6651.0409a1.1537,1.1537,0,0,0-1.0806.3423,1.3655,1.3655,0,0,0-.1916.3832c-0.0248.0926-.0506,0.1464-0.127,0.1464s-0.1012-.0667-0.1012-0.1851c0-.1851.2163-1.2679,0.2411-1.36,0.0258-.1464.0635-0.2131,0.127-0.2131,0.0893,0,.2034.0926,0.4833,0.1335a10.3379,10.3379,0,0,0,1.1194.0517h4.5389a4.8658,4.8658,0,0,0,.762-0.0517c0.1787-.028.268-0.0538,0.3057-0.0538,0.0764,0,.0893.0667,0.0893,0.2389,0,0.2368-.0258,1.07-0.0258,1.36-0.0129.1184-.0377,0.1851-0.1012,0.1851-0.0893,0-.1152-0.0517-0.1281-0.2239l-0.0118-.1205c-0.0258-.2906-0.3186-0.6329-1.3228-0.6458l-1.4111-.028v4.5486c0,1.0311.0129,1.9159,0.0635,2.4045a0.5165,0.5165,0,0,0,.4327.5812,3.8,3.8,0,0,0,.5715.0409,0.1494,0.1494,0,0,1,.1787.1184c0,0.08-.0893.1184-0.2163,0.1184-0.7373,0-1.4875-.0387-1.8061-0.0387-0.254,0-1.0171.0387-1.4617,0.0387-0.14,0-.2163-0.0387-0.2163-0.1184,0-.0517.0387-0.1184,0.1776-0.1184a1.4511,1.4511,0,0,0,.395-0.0409,0.5559,0.5559,0,0,0,.33-0.5941c0.0506-.4757.0506-1.36,0.0506-2.3916V85.8395Z"/><path class="cls-2" d="M125.77,88.4055c0-1.7071,0-2.0235-.0129-2.3808a0.5452,0.5452,0,0,0-.4833-0.607,2.005,2.005,0,0,0-.4445-0.0409c-0.1141,0-.1905-0.0387-0.1905-0.1184s0.0883-.1055.254-0.1055c0.5844,0,1.297.0258,1.6145,0.0258,0.3563,0,2.8351.0129,3.0514,0a4.6435,4.6435,0,0,0,.47-0.0646,1.0517,1.0517,0,0,1,.1787-0.0538,0.0838,0.0838,0,0,1,.0753.1055,5.1169,5.1169,0,0,0-.0883.7276c-0.0129.1184-.0387,0.607-0.0635,0.7405a0.201,0.201,0,0,1-.127.1851c-0.0764,0-.0893-0.0538-0.0893-0.1464a1.0865,1.0865,0,0,0-.0764-0.409,0.6864,0.6864,0,0,0-.7373-0.4112c-0.1905-.0258-1.5262-0.0517-1.7544-0.0517-0.0517,0-.0764.0387-0.0764,0.1055v2.7769c0,0.0646.0129,0.1184,0.0764,0.1184,0.254,0,1.7038,0,1.9578-.0258a0.7721,0.7721,0,0,0,.5339-0.1722,0.4544,0.4544,0,0,1,.1776-0.1464,0.1058,0.1058,0,0,1,.0893.1184c0,0.0667-.0258.2519-0.0893,0.82-0.0248.226-.0506,0.6738-0.0506,0.7534,0,0.0926-.0129.2519-0.1141,0.2519a0.087,0.087,0,0,1-.1023-0.0926c-0.0129-.1184-0.0129-0.2648-0.0377-0.4112a0.5937,0.5937,0,0,0-.6232-0.4348c-0.2034-.0258-1.4746-0.0538-1.7544-0.0538-0.0506,0-.0635.0538-0.0635,0.1205v0.8977c0,0.3832-.0129,1.3346,0,1.6662,0.0248,0.7663.3681,0.9386,1.5133,0.9386a2.8869,2.8869,0,0,0,1.0548-.1464,0.9513,0.9513,0,0,0,.4833-0.8331c0.0258-.1184.0506-0.17,0.127-0.17,0.0893,0,.1012.1442,0.1012,0.2626a7.927,7.927,0,0,1-.1518,1.2442c-0.0764.2906-.1787,0.2906-0.5974,0.2906-0.84,0-1.5133-.0129-2.06-0.0409-0.5468-.0129-0.9665-0.0258-1.297-0.0258-0.127,0-.3692.0129-0.6361,0.0129-0.2669.0129-.5468,0.0258-0.775,0.0258-0.14,0-.2163-0.0387-0.2163-0.1184,0-.0517.0377-0.1184,0.1776-0.1184a1.516,1.516,0,0,0,.395-0.0409,0.5559,0.5559,0,0,0,.33-0.5941c0.0506-.4757.0506-1.36,0.0506-2.3916V88.4055Z"/><path class="cls-2" d="M132.8471,88.4055c0-1.7071,0-2.0235-.0129-2.3808a0.5452,0.5452,0,0,0-.4833-0.607,2.005,2.005,0,0,0-.4445-0.0409c-0.1141,0-.1905-0.0387-0.1905-0.1184s0.0883-.1055.254-0.1055c0.5844,0,1.297.0258,1.6145,0.0258,0.3433,0,1.1441-.0258,1.8179-0.0258,1.3992,0,3.2807,0,4.5012,1.283a4.0158,4.0158,0,0,1,1.0548,2.8544,4.4415,4.4415,0,0,1-1.2206,3.1321,5.099,5.099,0,0,1-3.75,1.3217c-0.4069,0-.89-0.0387-1.3357-0.0646-0.4445-.0409-0.8514-0.0667-1.1312-0.0667-0.127,0-.3681.0129-0.6361,0.0129-0.2669.0129-.5457,0.0258-0.775,0.0258-0.14,0-.2163-0.0387-0.2163-0.1184,0-.0517.0387-0.1184,0.1776-0.1184a1.516,1.516,0,0,0,.395-0.0409,0.5559,0.5559,0,0,0,.33-0.5941c0.0506-.4757.0506-1.36,0.0506-2.3916V88.4055Zm1.5,1.2421c0,1.1883.0129,2.0493,0.0258,2.2732a2.09,2.09,0,0,0,.127.7922,1.7653,1.7653,0,0,0,1.4617.45,3.4365,3.4365,0,0,0,2.4411-.7663,3.5118,3.5118,0,0,0,.9536-2.79,3.7228,3.7228,0,0,0-1.043-2.8006,4.3883,4.3883,0,0,0-3.1267-1.072,2.2508,2.2508,0,0,0-.6867.08,0.196,0.196,0,0,0-.14.2239c-0.0129.3832-.0129,1.3088-0.0129,2.1957v1.4143Z"/><path class="cls-2" d="M149.0631,89.82c0,1.692,0,2.6026.2669,2.8415a2.2022,2.2022,0,0,0,1.5381.2906,1.8642,1.8642,0,0,0,1.4875-.37,1.686,1.686,0,0,0,.33-0.7922c0.0129-.1205.0387-0.2,0.14-0.2,0.0893,0,.1023.0667,0.1023,0.226a10.914,10.914,0,0,1-.1905,1.52c-0.0764.2906-.14,0.3573-0.8019,0.3573-0.9149,0-1.5757-.0258-2.1484-0.0409-0.5715-.0258-1.03-0.0387-1.551-0.0387-0.14,0-.42,0-0.7244.0129-0.2928,0-.6232.0258-0.8772,0.0258-0.1658,0-.2551-0.0387-0.2551-0.1313,0-.0667.0517-0.1055,0.2034-0.1055a1.9158,1.9158,0,0,0,.4585-0.0538,0.7084,0.7084,0,0,0,.3681-0.7254c0.0635-.5554.0635-1.5994,0.0635-2.8157v-2.327c0-2.0084,0-2.3787-.0248-2.8028a0.6447,0.6447,0,0,0-.5468-0.7534,1.8676,1.8676,0,0,0-.42-0.0387c-0.14,0-.2163-0.028-0.2163-0.1205s0.0893-.1184.28-0.1184c0.5974,0,1.3982.0409,1.7415,0.0409,0.3057,0,1.2335-.0409,1.73-0.0409,0.1776,0,.2669.0258,0.2669,0.1184s-0.0764.1205-.2293,0.1205a3.3393,3.3393,0,0,0-.4962.0387,0.6316,0.6316,0,0,0-.47.7534c-0.0248.4241-.0248,0.7943-0.0248,2.8028V89.82Z"/><path class="cls-2" d="M154.9075,88.4055c0-1.7071,0-2.0235-.0129-2.3808a0.536,0.536,0,0,0-.381-0.5941,1.407,1.407,0,0,0-.4069-0.0538c-0.1141,0-.1787-0.0258-0.1787-0.1313,0-.0667.09-0.0926,0.2669-0.0926,0.42,0,1.184.0258,1.5,0.0258,0.28,0,1.0053-.0258,1.4358-0.0258,0.1421,0,.23.0258,0.23,0.0926,0,0.1055-.0624.1313-0.1787,0.1313a1.565,1.565,0,0,0-.3315.0409c-0.3035.0517-.3918,0.211-0.4176,0.607-0.0258.3573-.0258,0.6738-0.0258,2.3808v1.9826c0,1.0828,0,1.9826.0517,2.4583a0.4822,0.4822,0,0,0,.4434.5274,3.8351,3.8351,0,0,0,.5726.0409,0.1494,0.1494,0,0,1,.1787.1184c0,0.08-.0883.1184-0.2174,0.1184-0.7362,0-1.4983-.0387-1.8039-0.0387-0.254,0-1.0182.0387-1.4638,0.0387-0.1378,0-.2153-0.0387-0.2153-0.1184,0-.0517.0387-0.1184,0.1765-0.1184a1.52,1.52,0,0,0,.3961-0.0409,0.4854,0.4854,0,0,0,.3315-0.54c0.05-.4628.05-1.3626,0.05-2.4454V88.4055Z"/><path class="cls-2" d="M159.0256,86.2507a1.0434,1.0434,0,0,0-.8266-0.8331,1.87,1.87,0,0,0-.4348-0.0409,0.1059,0.1059,0,0,1-.1249-0.1184c0-.0926.1119-0.1055,0.28-0.1055,0.5963,0,1.2313.0258,1.6274,0.0258,0.28,0,.8632-0.0258,1.4229-0.0258,0.14,0,.2669.0258,0.2669,0.1055a0.1453,0.1453,0,0,1-.1787.1184,0.8053,0.8053,0,0,0-.4305.08,0.25,0.25,0,0,0-.1162.226,3.4479,3.4479,0,0,0,.254.846l1.8814,5.0351h0.0387c0.4822-1.1624,1.92-4.7854,2.1871-5.5259a1.5721,1.5721,0,0,0,.1033-0.409,0.1861,0.1861,0,0,0-.155-0.198,1.6583,1.6583,0,0,0-.4434-0.0538,0.1591,0.1591,0,0,1-.1916-0.1184c0-.08.1012-0.1055,0.3186-0.1055,0.56,0,1.0548.0258,1.1947,0.0258,0.1894,0,.7125-0.0258,1.0548-0.0258,0.14,0,.2282.0258,0.2282,0.1055s-0.0624.1184-.1765,0.1184a0.8559,0.8559,0,0,0-.5468.1335,2.1506,2.1506,0,0,0-.5855.99c-0.4434,1.0591-.7362,1.6662-1.3476,3.0417-0.71,1.6382-1.2313,2.8673-1.4875,3.4356-0.28.648-.381,0.82-0.5339,0.82s-0.2411-.1464-0.4585-0.6738Z"/><path class="cls-2" d="M168.1744,88.4055c0-1.7071,0-2.0235-.0129-2.3808a0.5392,0.5392,0,0,0-.3832-0.5941,1.3923,1.3923,0,0,0-.4047-0.0538c-0.1162,0-.1808-0.0258-0.1808-0.1313,0-.0667.09-0.0926,0.2691-0.0926,0.42,0,1.1818.0258,1.5,0.0258,0.28,0,1.0031-.0258,1.4358-0.0258,0.14,0,.23.0258,0.23,0.0926,0,0.1055-.0646.1313-0.1808,0.1313a1.546,1.546,0,0,0-.3294.0409c-0.3035.0517-.3939,0.211-0.42,0.607-0.0258.3573-.0258,0.6738-0.0258,2.3808v1.9826c0,1.0828,0,1.9826.0517,2.4583a0.4839,0.4839,0,0,0,.4456.5274,3.8062,3.8062,0,0,0,.57.0409,0.148,0.148,0,0,1,.1787.1184c0,0.08-.0883.1184-0.2153,0.1184-0.7384,0-1.5-.0387-1.8061-0.0387-0.254,0-1.0161.0387-1.4617,0.0387-0.14,0-.2174-0.0387-0.2174-0.1184,0-.0517.0387-0.1184,0.1787-0.1184a1.5016,1.5016,0,0,0,.3939-0.0409,0.4854,0.4854,0,0,0,.3315-0.54c0.0517-.4628.0517-1.3626,0.0517-2.4454V88.4055Z"/><path class="cls-2" d="M174.0447,92.1188c0.0237,0.8718.1658,1.1366,0.381,1.2163a1.8108,1.8108,0,0,0,.5855.08c0.127,0,.1894.0517,0.1894,0.1184,0,0.0926-.1012.1184-0.254,0.1184-0.7233,0-1.2442-.0387-1.4487-0.0387-0.1012,0-.635.0387-1.2076,0.0387-0.1528,0-.254-0.0129-0.254-0.1184a0.153,0.153,0,0,1,.1765-0.1184,2.1347,2.1347,0,0,0,.508-0.0538c0.2928-.08.3315-0.3832,0.3444-1.36l0.1033-6.6625c0-.2239.0753-0.3832,0.1894-0.3832a0.9586,0.9586,0,0,1,.4822.37c0.1421,0.1442,1.819,1.9288,3.4464,3.582,0.7642,0.7793,2.25,2.3658,2.4153,2.5251h0.0517l-0.1141-4.9963c-0.0129-.6889-0.1162-0.8869-0.3832-0.9924a1.7835,1.7835,0,0,0-.5855-0.0667c-0.1378,0-.1765-0.0517-0.1765-0.1184,0-.0926.1141-0.1055,0.28-0.1055,0.5855,0,1.1818.0258,1.4251,0.0258,0.1249,0,.5468-0.0258,1.0936-0.0258,0.1507,0,.254.0129,0.254,0.1055,0,0.0667-.0646.1184-0.1916,0.1184a1.0509,1.0509,0,0,0-.3423.0409c-0.3057.0926-.3961,0.2906-0.409,0.9256l-0.1249,7.0844c0,0.2519-.09.3573-0.1808,0.3573a0.65,0.65,0,0,1-.4564-0.2389c-0.7-.6738-2.0967-2.0622-3.2677-3.2376-1.2206-1.2163-2.4024-2.5789-2.6176-2.7769h-0.0387Z"/><path class="cls-2" d="M190.7428,92.8981c0,0.3057,0,.3186-0.1378.3982a6.5148,6.5148,0,0,1-2.7339.5016c-2.7468,0-5.175-1.2959-5.175-4.4022a4.1916,4.1916,0,0,1,1.9589-3.6746,5.4253,5.4253,0,0,1,3.0137-.7276,12.3753,12.3753,0,0,1,1.98.1851,8.8369,8.8369,0,0,0,.8912.1205c0.127,0.0129.1528,0.0517,0.1528,0.1313a16.0447,16.0447,0,0,0-.0753,1.8513c0,0.17-.0646.25-0.155,0.25-0.0732,0-.099-0.0517-0.1119-0.1442a1.5281,1.5281,0,0,0-.3832-0.9256,3.3847,3.3847,0,0,0-2.4282-.8589,3.0511,3.0511,0,0,0-2.1613.6609A3.3352,3.3352,0,0,0,184.3494,89c0,2.42,1.5,4.1762,3.89,4.1762a1.7818,1.7818,0,0,0,.79-0.1184,0.3753,0.3753,0,0,0,.2153-0.3961V91.63c0-.5554,0-0.9773-0.0129-1.3217a0.5392,0.5392,0,0,0-.4822-0.6092,2.0023,2.0023,0,0,0-.4348-0.0387,0.1561,0.1561,0,0,1-.1765-0.1184c0-.0926.0883-0.1055,0.2411-0.1055,0.5855,0,1.3863.0258,1.7178,0.0258,0.3552,0,.9386-0.0258,1.3088-0.0258,0.1507,0,.2282.0129,0.2282,0.1055a0.1323,0.1323,0,0,1-.14.1184,1.4769,1.4769,0,0,0-.3035.0387,0.5057,0.5057,0,0,0-.4348.6092c-0.0129.3444-.0129,0.7922-0.0129,1.3476v1.2421Z"/><path class="cls-2" d="M198.6582,87.7833a2.9885,2.9885,0,0,1-.648-1.8771c-0.0129-1.044.8761-2.4325,3.0891-2.4325a4.24,4.24,0,0,1,1.5392.2777,0.2855,0.2855,0,0,1,.2153.3444c0,0.4348-.1033,1.4939-0.14,1.692-0.0258.198-.0753,0.2239-0.1528,0.2239s-0.09-.0517-0.09-0.2519a1.7543,1.7543,0,0,0-.366-1.1086,1.7229,1.7229,0,0,0-1.4121-.5963,1.3854,1.3854,0,0,0-1.36,1.5069c0,1.2442,1.0936,2.3012,2.11,3.4765,0.4327,0.5166,1.9977,1.9826,2.2388,2.2086a4.0961,4.0961,0,0,0,.6092-2.0364,0.7913,0.7913,0,0,0-.2411-0.607,0.9228,0.9228,0,0,0-.6221-0.198,0.1264,0.1264,0,0,1-.1528-0.1076c0-.1055.1012-0.1313,0.2023-0.1313a13.6366,13.6366,0,0,1,1.5262.0926,0.3917,0.3917,0,0,1,.4327.2648,5.381,5.381,0,0,1-1.2464,3.1321,13.1126,13.1126,0,0,0,1.7673,1.2959,3.6239,3.6239,0,0,0,1.36.4628c0.1141,0,.1787.0129,0.1787,0.1184,0,0.08-.1033.1184-0.3832,0.1184h-0.9773a3.7336,3.7336,0,0,1-3.0008-1.0161,4.018,4.018,0,0,1-3.0137,1.2012c-2.721,0-3.5347-1.7695-3.5347-2.9212A3.8785,3.8785,0,0,1,198.6582,87.7833Zm3.98,4.428c-0.7384-.6609-1.9589-1.903-2.29-2.2732-0.3294-.37-1.1431-1.3217-1.36-1.6532a2.4081,2.4081,0,0,0-.8761,2.0106,2.5077,2.5077,0,0,0,2.4411,2.71A3.2933,3.2933,0,0,0,202.6384,92.2114Z"/><path class="cls-2" d="M31.8766,108.2681a5.3821,5.3821,0,0,1-.0883-7.5214,5.4189,5.4189,0,0,1,4.0169-1.4014,12.0311,12.0311,0,0,1,1.8438.1335c0.4833,0.0646.89,0.1851,1.2722,0.2239a0.1691,0.1691,0,0,1,.1905.1593c0,0.1055-.0387.2626-0.0635,0.7254-0.0258.437-.0129,1.1646-0.0387,1.4294-0.0129.198-.0377,0.3035-0.1518,0.3035-0.1023,0-.1281-0.1055-0.1281-0.2906a1.9161,1.9161,0,0,0-.4951-1.2163,3.6972,3.6972,0,0,0-2.581-.82,3.2355,3.2355,0,0,0-2.3905.82,4.5228,4.5228,0,0,0-1.17,3.4227c0,3.1472,2.3012,4.7057,4.005,4.7057a2.6911,2.6911,0,0,0,2.327-.7405,2.23,2.23,0,0,0,.4327-0.8718c0.0377-.211.0635-0.2648,0.1647-0.2648,0.0893,0,.1141.0926,0.1141,0.198a13.0154,13.0154,0,0,1-.2788,1.7587,0.464,0.464,0,0,1-.3315.3832,7.1142,7.1142,0,0,1-2.2883.3035A6.1987,6.1987,0,0,1,31.8766,108.2681Z"/><path class="cls-2" d="M40.3774,105.2672a4.36,4.36,0,0,1,4.6917-4.4022c2.8221,0,4.5766,1.6274,4.5766,4.2041a4.4492,4.4492,0,0,1-4.6917,4.6A4.2991,4.2991,0,0,1,40.3774,105.2672Zm7.6032,0.211c0-2.4842-1.4369-4.0169-3.2419-4.0169-1.2464,0-2.708.6867-2.708,3.4615,0,2.3141,1.2711,4.14,3.3818,4.14C46.2,109.0624,47.9806,108.6771,47.9806,105.4782Z"/><path class="cls-2" d="M52.4248,107.99c0.0248,0.8718.1647,1.1366,0.381,1.2163a1.8122,1.8122,0,0,0,.5844.08c0.1281,0,.1916.0517,0.1916,0.1184,0,0.0926-.1023.1184-0.2551,0.1184-0.7244,0-1.2453-.0387-1.4487-0.0387-0.1023,0-.6361.0387-1.2076,0.0387-0.1528,0-.2551-0.0129-0.2551-0.1184a0.1548,0.1548,0,0,1,.1787-0.1184,2.1524,2.1524,0,0,0,.508-0.0538c0.2928-.08.33-0.3832,0.3433-1.36l0.1023-6.6625c0-.2239.0753-0.3832,0.1905-0.3832a0.9688,0.9688,0,0,1,.4833.37c0.14,0.1442,1.8179,1.9288,3.4453,3.582,0.7631,0.7793,2.2506,2.3658,2.4153,2.5251h0.0506l-0.1141-4.9963c-0.0129-.6889-0.1141-0.8869-0.381-0.9924a1.7963,1.7963,0,0,0-.5855-0.0667c-0.14,0-.1776-0.0517-0.1776-0.1184,0-.0926.1141-0.1055,0.28-0.1055,0.5844,0,1.1829.0258,1.424,0.0258,0.127,0,.5468-0.0258,1.0936-0.0258,0.1528,0,.254.0129,0.254,0.1055,0,0.0667-.0635.1184-0.1905,0.1184a1.0636,1.0636,0,0,0-.3433.0409c-0.3057.0926-.3939,0.2906-0.4069,0.9256l-0.127,7.0844c0,0.2519-.0893.3573-0.1787,0.3573a0.6528,0.6528,0,0,1-.4574-0.2389c-0.6985-.6738-2.0978-2.0622-3.2677-3.2376-1.2206-1.2163-2.4024-2.5789-2.6187-2.7769H52.2978Z"/><path class="cls-2" d="M63.9,101.7111l-1.6651.0409a1.1537,1.1537,0,0,0-1.0806.3423,1.3655,1.3655,0,0,0-.1916.3832c-0.0248.0926-.0506,0.1464-0.127,0.1464s-0.1012-.0667-0.1012-0.1851c0-.1851.2163-1.2679,0.2411-1.36,0.0258-.1464.0635-0.2131,0.127-0.2131,0.0893,0,.2034.0926,0.4833,0.1335a10.3379,10.3379,0,0,0,1.1194.0517h4.5389a4.8822,4.8822,0,0,0,.7631-0.0517c0.1776-.028.2669-0.0538,0.3046-0.0538,0.0764,0,.0893.0667,0.0893,0.2389,0,0.2368-.0258,1.07-0.0258,1.36-0.0129.1184-.0377,0.1851-0.1012,0.1851-0.0893,0-.1152-0.0517-0.1281-0.2239l-0.0118-.1205c-0.0258-.2906-0.3186-0.6329-1.3228-0.6458l-1.4111-.028V106.26c0,1.0311.0129,1.9159,0.0635,2.4045a0.5173,0.5173,0,0,0,.4327.5812,3.8,3.8,0,0,0,.5715.0409,0.1494,0.1494,0,0,1,.1787.1184c0,0.08-.0893.1184-0.2163,0.1184-0.7373,0-1.4875-.0387-1.8061-0.0387-0.254,0-1.0171.0387-1.4617,0.0387-0.14,0-.2163-0.0387-0.2163-0.1184,0-.0517.0387-0.1184,0.1787-0.1184a1.4477,1.4477,0,0,0,.3939-0.0409,0.5559,0.5559,0,0,0,.33-0.5941c0.0506-.4757.0506-1.36,0.0506-2.3916v-4.5486Z"/><path class="cls-2" d="M70.4555,104.277c0-1.7071,0-2.0235-.0129-2.3808a0.537,0.537,0,0,0-.381-0.5941,1.407,1.407,0,0,0-.4069-0.0538c-0.1152,0-.1787-0.0258-0.1787-0.1313,0-.0667.0893-0.0926,0.268-0.0926,0.4187,0,1.1818.0258,1.4993,0.0258,0.28,0,1.0053-.0258,1.4369-0.0258,0.14,0,.2293.0258,0.2293,0.0926,0,0.1055-.0635.1313-0.1787,0.1313a1.5391,1.5391,0,0,0-.33.0409c-0.3046.0517-.3939,0.211-0.42,0.607-0.0248.3573-.0248,0.6738-0.0248,2.3808V106.26c0,1.0828,0,1.9826.0506,2.4583a0.4839,0.4839,0,0,0,.4456.5274,3.8,3.8,0,0,0,.5715.0409,0.1482,0.1482,0,0,1,.1776.1184c0,0.08-.0883.1184-0.2153,0.1184-0.7373,0-1.5-.0387-1.8061-0.0387-0.254,0-1.0171.0387-1.4617,0.0387-0.14,0-.2163-0.0387-0.2163-0.1184,0-.0517.0377-0.1184,0.1776-0.1184a1.516,1.516,0,0,0,.395-0.0409,0.4848,0.4848,0,0,0,.33-0.54c0.0506-.4628.0506-1.3626,0.0506-2.4454V104.277Z"/><path class="cls-2" d="M76.3268,107.99c0.0248,0.8718.1647,1.1366,0.381,1.2163a1.8122,1.8122,0,0,0,.5844.08c0.1281,0,.1916.0517,0.1916,0.1184,0,0.0926-.1023.1184-0.2551,0.1184-0.7244,0-1.2453-.0387-1.4487-0.0387-0.1023,0-.6361.0387-1.2076,0.0387-0.1528,0-.2551-0.0129-0.2551-0.1184a0.1548,0.1548,0,0,1,.1787-0.1184,2.1524,2.1524,0,0,0,.508-0.0538c0.2928-.08.33-0.3832,0.3433-1.36l0.1023-6.6625c0-.2239.0764-0.3832,0.1905-0.3832a0.9644,0.9644,0,0,1,.4833.37c0.14,0.1442,1.8179,1.9288,3.4453,3.582,0.7631,0.7793,2.2506,2.3658,2.4153,2.5251h0.0517l-0.1152-4.9963c-0.0129-.6889-0.1141-0.8869-0.381-0.9924a1.7963,1.7963,0,0,0-.5855-0.0667c-0.1388,0-.1776-0.0517-0.1776-0.1184,0-.0926.1141-0.1055,0.28-0.1055,0.5844,0,1.1818.0258,1.424,0.0258,0.127,0,.5468-0.0258,1.0936-0.0258,0.1528,0,.254.0129,0.254,0.1055,0,0.0667-.0635.1184-0.1905,0.1184a1.0636,1.0636,0,0,0-.3433.0409c-0.3057.0926-.3939,0.2906-0.4069,0.9256l-0.127,7.0844c0,0.2519-.0893.3573-0.1787,0.3573a0.6507,0.6507,0,0,1-.4574-0.2389c-0.7-.6738-2.0978-2.0622-3.2677-3.2376-1.2206-1.2163-2.4024-2.5789-2.6187-2.7769H76.2Z"/><path class="cls-2" d="M85.8308,104.277c0-1.7071.0129-2.0235-.0129-2.3808a0.5382,0.5382,0,0,0-.4833-0.607,1.9532,1.9532,0,0,0-.4316-0.0409c-0.127,0-.1905-0.0387-0.1905-0.1184s0.0764-.1055.2411-0.1055c0.5974,0,1.3476.0258,1.678,0.0258,0.28,0,1.03-.0258,1.4369-0.0258,0.1658,0,.2422.0258,0.2422,0.1055s-0.0646.1184-.1787,0.1184a1.5391,1.5391,0,0,0-.33.0409c-0.2928.0517-.381,0.211-0.4069,0.607-0.0258.3573-.0258,0.6738-0.0258,2.3808v1.5714c0,1.64.3057,2.2754,0.8525,2.7231a2.3018,2.3018,0,0,0,2.9115-.1442c0.6232-.6092.648-1.5865,0.648-2.736V104.277c0-1.7071-.0118-2.0235-0.0248-2.3808a0.5373,0.5373,0,0,0-.47-0.607,1.889,1.889,0,0,0-.4069-0.0409c-0.127,0-.1916-0.0387-0.1916-0.1184s0.0764-.1055.2293-0.1055c0.5726,0,1.3228.0258,1.3346,0.0258,0.1281,0,.8772-0.0258,1.31-0.0258,0.1528,0,.2293.0258,0.2293,0.1055s-0.0635.1184-.1905,0.1184a1.54,1.54,0,0,0-.3315.0409c-0.3046.0517-.381,0.211-0.4069,0.607-0.0118.3573-.0248,0.6738-0.0248,2.3808v1.2012a4.2526,4.2526,0,0,1-1.0677,3.384,3.3949,3.3949,0,0,1-2.3658.8072,3.7563,3.7563,0,0,1-2.5552-.7663,3.6906,3.6906,0,0,1-1.0171-2.975V104.277Z"/><path class="cls-2" d="M95.7169,104.277c0-1.7071,0-2.0235-.0129-2.3808a0.537,0.537,0,0,0-.381-0.5941,1.407,1.407,0,0,0-.4069-0.0538c-0.1152,0-.1787-0.0258-0.1787-0.1313,0-.0667.0893-0.0926,0.268-0.0926,0.4187,0,1.1818.0258,1.4993,0.0258,0.28,0,1.0053-.0258,1.4369-0.0258,0.14,0,.2293.0258,0.2293,0.0926,0,0.1055-.0635.1313-0.1787,0.1313a1.5391,1.5391,0,0,0-.33.0409c-0.3046.0517-.3939,0.211-0.42,0.607-0.0248.3573-.0248,0.6738-0.0248,2.3808V106.26c0,1.0828,0,1.9826.0506,2.4583a0.4839,0.4839,0,0,0,.4456.5274,3.8,3.8,0,0,0,.5715.0409,0.1482,0.1482,0,0,1,.1776.1184c0,0.08-.0883.1184-0.2153,0.1184-0.7373,0-1.5-.0387-1.8061-0.0387-0.254,0-1.0171.0387-1.4617,0.0387-0.14,0-.2163-0.0387-0.2163-0.1184,0-.0517.0377-0.1184,0.1776-0.1184a1.516,1.516,0,0,0,.395-0.0409,0.4848,0.4848,0,0,0,.33-0.54c0.0506-.4628.0506-1.3626,0.0506-2.4454V104.277Z"/><path class="cls-2" d="M101.5883,107.99c0.0248,0.8718.1647,1.1366,0.381,1.2163a1.8122,1.8122,0,0,0,.5844.08c0.1281,0,.1916.0517,0.1916,0.1184,0,0.0926-.1023.1184-0.2551,0.1184-0.7244,0-1.2453-.0387-1.4487-0.0387-0.1023,0-.6361.0387-1.2076,0.0387-0.1528,0-.2551-0.0129-0.2551-0.1184a0.1548,0.1548,0,0,1,.1787-0.1184,2.1524,2.1524,0,0,0,.508-0.0538c0.2928-.08.33-0.3832,0.3433-1.36l0.1023-6.6625c0-.2239.0764-0.3832,0.1905-0.3832a0.9644,0.9644,0,0,1,.4833.37c0.14,0.1442,1.8179,1.9288,3.4453,3.582,0.7631,0.7793,2.2506,2.3658,2.4153,2.5251h0.0517l-0.1152-4.9963c-0.0129-.6889-0.1141-0.8869-0.381-0.9924a1.7963,1.7963,0,0,0-.5855-0.0667c-0.1388,0-.1776-0.0517-0.1776-0.1184,0-.0926.1141-0.1055,0.28-0.1055,0.5844,0,1.1818.0258,1.424,0.0258,0.127,0,.5468-0.0258,1.0936-0.0258,0.1528,0,.254.0129,0.254,0.1055,0,0.0667-.0635.1184-0.1905,0.1184a1.0636,1.0636,0,0,0-.3433.0409c-0.3057.0926-.3939,0.2906-0.4069,0.9256l-0.127,7.0844c0,0.2519-.0893.3573-0.1787,0.3573a0.6507,0.6507,0,0,1-.4574-0.2389c-0.7-.6738-2.0978-2.0622-3.2677-3.2376-1.2206-1.2163-2.4024-2.5789-2.6187-2.7769h-0.0377Z"/><path class="cls-2" d="M118.2757,108.77c0,0.3057,0,.3186-0.14.3982a6.51,6.51,0,0,1-2.7328.5016c-2.7468,0-5.175-1.2959-5.175-4.4022a4.1932,4.1932,0,0,1,1.9578-3.6746,5.4293,5.4293,0,0,1,3.0137-.7276,12.41,12.41,0,0,1,1.9826.1851,8.7725,8.7725,0,0,0,.89.1205c0.127,0.0129.1528,0.0517,0.1528,0.1313a15.8209,15.8209,0,0,0-.0764,1.8513c0,0.17-.0635.25-0.1528,0.25-0.0753,0-.1012-0.0517-0.1141-0.1442a1.53,1.53,0,0,0-.381-0.9256,3.389,3.389,0,0,0-2.4282-.8589,3.0536,3.0536,0,0,0-2.1623.6609,3.3352,3.3352,0,0,0-1.029,2.736c0,2.42,1.4993,4.1762,3.89,4.1762a1.7771,1.7771,0,0,0,.7889-0.1184,0.3739,0.3739,0,0,0,.2153-0.3961v-1.0311c0-.5554,0-0.9795-0.0118-1.3217a0.5411,0.5411,0,0,0-.4833-0.6092,1.9876,1.9876,0,0,0-.4327-0.0387,0.1559,0.1559,0,0,1-.1776-0.1184c0-.0926.0883-0.1055,0.2411-0.1055,0.5855,0,1.3863.0258,1.7167,0.0258,0.3563,0,.9407-0.0258,1.31-0.0258,0.1518,0,.2282.0129,0.2282,0.1055a0.1316,0.1316,0,0,1-.14.1184,1.5039,1.5039,0,0,0-.3046.0387,0.5044,0.5044,0,0,0-.4327.6092c-0.0129.3423-.0129,0.7922-0.0129,1.3476V108.77Z"/><path class="cls-2" d="M125.655,108.2681a5.3821,5.3821,0,0,1-.0883-7.5214,5.4189,5.4189,0,0,1,4.0169-1.4014,12.0311,12.0311,0,0,1,1.8438.1335c0.4833,0.0646.89,0.1851,1.2722,0.2239a0.1691,0.1691,0,0,1,.1905.1593c0,0.1055-.0387.2626-0.0635,0.7254-0.0258.437-.0129,1.1646-0.0387,1.4294-0.0129.198-.0377,0.3035-0.1518,0.3035-0.1023,0-.1281-0.1055-0.1281-0.2906a1.9161,1.9161,0,0,0-.4951-1.2163,3.6972,3.6972,0,0,0-2.581-.82,3.2355,3.2355,0,0,0-2.3905.82,4.5228,4.5228,0,0,0-1.17,3.4227c0,3.1472,2.3012,4.7057,4.005,4.7057a2.6911,2.6911,0,0,0,2.327-.7405,2.23,2.23,0,0,0,.4327-0.8718c0.0377-.211.0635-0.2648,0.1647-0.2648,0.0893,0,.1141.0926,0.1141,0.198a13.0154,13.0154,0,0,1-.2788,1.7587,0.464,0.464,0,0,1-.3315.3832,7.1142,7.1142,0,0,1-2.2883.3035A6.1987,6.1987,0,0,1,125.655,108.2681Z"/><path class="cls-2" d="M136.2407,106.6945a0.0879,0.0879,0,0,0-.1023.08l-0.5974,1.5069a2.1076,2.1076,0,0,0-.1647.6889c0,0.198.1012,0.3164,0.4445,0.3164h0.1658c0.14,0,.1647.0517,0.1647,0.1184,0,0.0926-.0635.1184-0.1776,0.1184-0.3692,0-.89-0.0387-1.2464-0.0387-0.1141,0-.7115.0387-1.297,0.0387-0.14,0-.2034-0.0258-0.2034-0.1184a0.1122,0.1122,0,0,1,.127-0.1184c0.1023,0,.2293-0.0129.3315-0.0129a1.2375,1.2375,0,0,0,.9278-0.9924l2.9244-7.0715a0.556,0.556,0,0,1,.33-0.45c0.1647,0,.2163.1055,0.33,0.3573,0.2669,0.6221,2.1354,5.2224,2.848,6.9273,0.4327,1.0182.75,1.1624,0.9536,1.2012a2.4521,2.4521,0,0,0,.42.0409,0.1223,0.1223,0,0,1,.1528.1184c0,0.0926-.0646.1184-0.4833,0.1184-0.395,0-1.2087,0-2.1494-.0258-0.2034-.0129-0.33-0.0129-0.33-0.0926,0-.0667.0258-0.1055,0.14-0.1184a0.1786,0.1786,0,0,0,.1023-0.2519l-0.8654-2.26a0.1053,0.1053,0,0,0-.1141-0.08h-2.6316Zm2.3905-.62a0.0454,0.0454,0,0,0,.0506-0.0667l-1.0559-2.8544a0.1508,0.1508,0,0,0-.0506-0.1055,0.1255,0.1255,0,0,0-.0635.1055l-1.0806,2.8415c-0.0258.0517,0,.08,0.0387,0.08h2.1613Z"/><path class="cls-2" d="M143.788,104.277c0-1.7071,0-2.0235-.0129-2.3808a0.5452,0.5452,0,0,0-.4833-0.607,2.005,2.005,0,0,0-.4445-0.0409c-0.1141,0-.1905-0.0387-0.1905-0.1184s0.0883-.1055.254-0.1055c0.5844,0,1.297.0258,1.5252,0.0258,0.3821,0,1.3992-.0258,1.7426-0.0258a3.7985,3.7985,0,0,1,2.1225.4757,1.9825,1.9825,0,0,1,.7889,1.5478c0,0.8309-.4574,1.5714-1.551,2.4842,0.9913,1.2679,1.7792,2.2861,2.454,2.9879a2.08,2.08,0,0,0,1.1947.7405,1.0262,1.0262,0,0,0,.2669.0258,0.1318,0.1318,0,0,1,.14.1184c0,0.0926-.0764.1184-0.2163,0.1184h-1.0677a2.3377,2.3377,0,0,1-1.2206-.2239,5.172,5.172,0,0,1-1.5262-1.6532c-0.4445-.6071-0.9149-1.36-1.0548-1.5327a0.25,0.25,0,0,0-.2034-0.08l-1.0042-.0258a0.0815,0.0815,0,0,0-.0893.0926V106.26c0,1.044.0129,1.9159,0.0635,2.3916a0.5138,0.5138,0,0,0,.4327.5941,3.8452,3.8452,0,0,0,.5468.0409,0.1326,0.1326,0,0,1,.14.1184c0,0.08-.0893.1184-0.2293,0.1184-0.648,0-1.5768-.0387-1.7415-0.0387-0.2163,0-.9289.0387-1.3734,0.0387-0.14,0-.2163-0.0387-0.2163-0.1184,0-.0517.0377-0.1184,0.1776-0.1184a1.516,1.516,0,0,0,.395-0.0409,0.5559,0.5559,0,0,0,.33-0.5941c0.0506-.4757.0506-1.36,0.0506-2.3916V104.277Zm1.424,0.8718a0.177,0.177,0,0,0,.1012.198,2.9533,2.9533,0,0,0,.8525.1055,1.0863,1.0863,0,0,0,.7879-0.1851,1.9293,1.9293,0,0,0,.7254-1.6662,1.7367,1.7367,0,0,0-1.7038-1.9955,3.7269,3.7269,0,0,0-.6619.0409,0.1354,0.1354,0,0,0-.1012.1571v3.3452Z"/><path class="cls-2" d="M152.5052,104.277c0-1.7071,0-2.0235-.0129-2.3808a0.5452,0.5452,0,0,0-.4833-0.607,2.005,2.005,0,0,0-.4445-0.0409c-0.1141,0-.1905-0.0387-0.1905-0.1184s0.0883-.1055.254-0.1055c0.5844,0,1.297.0258,1.6145,0.0258,0.3563,0,2.834.0129,3.0514,0a4.7225,4.7225,0,0,0,.4714-0.0646,1.0054,1.0054,0,0,1,.1765-0.0538,0.0846,0.0846,0,0,1,.0775.1055,5.0842,5.0842,0,0,0-.09.7276c-0.0129.1184-.0387,0.6071-0.0624,0.7405a0.201,0.201,0,0,1-.127.1851c-0.0775,0-.09-0.0538-0.09-0.1464a1.1041,1.1041,0,0,0-.0753-0.409,0.687,0.687,0,0,0-.7384-0.4112c-0.1894-.0258-1.5241-0.0517-1.7523-0.0517a0.0848,0.0848,0,0,0-.0775.1055v2.7769c0,0.0646.0129,0.1184,0.0775,0.1184,0.254,0,1.7028,0,1.9568-.0258a0.77,0.77,0,0,0,.5339-0.1722,0.4408,0.4408,0,0,1,.1787-0.1464,0.1051,0.1051,0,0,1,.0883.1184c0,0.0667-.0258.2519-0.0883,0.82-0.0258.226-.0517,0.6738-0.0517,0.7534,0,0.0926-.0129.2519-0.1141,0.2519a0.0866,0.0866,0,0,1-.1012-0.0926c-0.0129-.1184-0.0129-0.2648-0.0387-0.4112a0.5942,0.5942,0,0,0-.6243-0.4348c-0.2023-.0258-1.4724-0.0538-1.7523-0.0538-0.0517,0-.0646.0538-0.0646,0.1205v0.8977c0,0.3832-.0129,1.3346,0,1.6662,0.0258,0.7663.3681,0.9386,1.5133,0.9386a2.89,2.89,0,0,0,1.0548-.1464,0.9541,0.9541,0,0,0,.4843-0.8331c0.0237-.1184.05-0.17,0.1249-0.17,0.09,0,.1033.1442,0.1033,0.2626a8.0565,8.0565,0,0,1-.1528,1.2442c-0.0753.2906-.1787,0.2906-0.5963,0.2906-0.84,0-1.5155-.0129-2.0622-0.0409-0.5468-.0129-0.9644-0.0258-1.2959-0.0258-0.127,0-.3681.0129-0.6361,0.0129-0.2669.0129-.5457,0.0258-0.775,0.0258-0.14,0-.2163-0.0387-0.2163-0.1184,0-.0517.0387-0.1184,0.1776-0.1184a1.516,1.516,0,0,0,.395-0.0409,0.5559,0.5559,0,0,0,.33-0.5941c0.0506-.4757.0506-1.36,0.0506-2.3916V104.277Z"/><path class="cls-2" d="M164.08,108.2681a5.3793,5.3793,0,0,1-.0861-7.5214,5.4154,5.4154,0,0,1,4.0169-1.4014,12.0375,12.0375,0,0,1,1.8427.1335c0.4822,0.0646.8912,0.1851,1.2722,0.2239a0.17,0.17,0,0,1,.1916.1593c0,0.1055-.0387.2626-0.0646,0.7254-0.0258.437-.0129,1.1646-0.0387,1.4294-0.0129.198-.0387,0.3035-0.1528,0.3035-0.1012,0-.127-0.1055-0.127-0.2906a1.9161,1.9161,0,0,0-.4951-1.2163,3.6992,3.6992,0,0,0-2.581-.82,3.2383,3.2383,0,0,0-2.3916.82,4.53,4.53,0,0,0-1.1689,3.4227c0,3.1472,2.3012,4.7057,4.0061,4.7057a2.6877,2.6877,0,0,0,2.3249-.7405,2.1868,2.1868,0,0,0,.4327-0.8718c0.0387-.211.0646-0.2648,0.1658-0.2648,0.09,0,.1141.0926,0.1141,0.198a13.0476,13.0476,0,0,1-.28,1.7587,0.46,0.46,0,0,1-.3294.3832,7.1284,7.1284,0,0,1-2.29.3035A6.2039,6.2039,0,0,1,164.08,108.2681Z"/><path class="cls-2" d="M172.5809,105.2672a4.36,4.36,0,0,1,4.6906-4.4022c2.8243,0,4.5766,1.6274,4.5766,4.2041a4.4484,4.4484,0,0,1-4.6906,4.6A4.2991,4.2991,0,0,1,172.5809,105.2672Zm7.6032,0.211c0-2.4842-1.4358-4.0169-3.2419-4.0169-1.2464,0-2.708.6867-2.708,3.4615,0,2.3141,1.2722,4.14,3.3818,4.14C178.4038,109.0624,180.1841,108.6771,180.1841,105.4782Z"/><path class="cls-2" d="M184.668,101.0631a0.2862,0.2862,0,0,1,.2153-0.2906c0.1141,0,.1894.0538,0.3444,0.3573l2.9987,6.2664,3.0008-6.346a0.39,0.39,0,0,1,.2928-0.2777,0.3683,0.3683,0,0,1,.254.3573l1.0182,6.94c0.1012,0.7.2023,1.0053,0.5468,1.1108a2.1192,2.1192,0,0,0,.635.1055,0.1487,0.1487,0,0,1,.1787.1055c0,0.0926-.1292.1313-0.2928,0.1313-0.28,0-1.8685-.0517-2.3163-0.0775-0.2669-.0151-0.3294-0.0667-0.3294-0.1335a0.1531,0.1531,0,0,1,.127-0.1184,0.4975,0.4975,0,0,0,.0517-0.4757l-0.6243-4.865H190.73l-2.4024,5.0243c-0.254.5274-.3164,0.6329-0.4434,0.6329a0.8994,0.8994,0,0,1-.4456-0.5683c-0.2669-.5145-1.156-2.2345-1.2851-2.5509-0.0883-.211-0.7491-1.6253-1.1194-2.4045h-0.0366l-0.5339,4.3871a3.7893,3.7893,0,0,0-.0387.53,0.3422,0.3422,0,0,0,.3423.3294,1.8085,1.8085,0,0,0,.3961.0538,0.157,0.157,0,0,1,.1765.1055c0,0.1055-.1012.1313-0.2669,0.1313-0.4693,0-.9773-0.0387-1.1818-0.0387-0.2174,0-.7513.0387-1.1043,0.0387-0.1162,0-.2045-0.0258-0.2045-0.1313a0.149,0.149,0,0,1,.1787-0.1055,1.9919,1.9919,0,0,0,.3423-0.0258,0.9,0.9,0,0,0,.4585-0.8611Z"/><path class="cls-2" d="M196.3957,101.0631a0.29,0.29,0,0,1,.2153-0.2906c0.1162,0,.1916.0538,0.3444,0.3573l3.0008,6.2664,3.0008-6.346a0.3871,0.3871,0,0,1,.2928-0.2777,0.3734,0.3734,0,0,1,.254.3573l1.0161,6.94c0.1012,0.7.2023,1.0053,0.5468,1.1108a2.13,2.13,0,0,0,.6372.1055,0.1474,0.1474,0,0,1,.1765.1055c0,0.0926-.127.1313-0.2928,0.1313-0.28,0-1.8685-.0517-2.3141-0.0775-0.2669-.0151-0.3294-0.0667-0.3294-0.1335a0.15,0.15,0,0,1,.1249-0.1184,0.4975,0.4975,0,0,0,.0517-0.4757l-0.6221-4.865H202.46l-2.4024,5.0243c-0.254.5274-.3186,0.6329-0.4456,0.6329a0.8988,0.8988,0,0,1-.4434-0.5683c-0.2669-.5145-1.1581-2.2345-1.2851-2.5509-0.0883-.211-0.7513-1.6253-1.1194-2.4045h-0.0366l-0.5339,4.3871a3.7893,3.7893,0,0,0-.0387.53,0.3407,0.3407,0,0,0,.3423.3294,1.8086,1.8086,0,0,0,.3939.0538,0.1582,0.1582,0,0,1,.1787.1055c0,0.1055-.1012.1313-0.2669,0.1313-0.4714,0-.9795-0.0387-1.1818-0.0387-0.2174,0-.7513.0387-1.1065,0.0387-0.1162,0-.2023-0.0258-0.2023-0.1313a0.1477,0.1477,0,0,1,.1765-0.1055,2,2,0,0,0,.3444-0.0258,0.8983,0.8983,0,0,0,.4564-0.8611Z"/><path class="cls-2" d="M207.0686,104.277c0-1.7071.0129-2.0235-.0129-2.3808a0.5388,0.5388,0,0,0-.4822-0.607,1.9779,1.9779,0,0,0-.4327-0.0409c-0.127,0-.1916-0.0387-0.1916-0.1184s0.0775-.1055.2411-0.1055c0.5984,0,1.3476.0258,1.6791,0.0258,0.28,0,1.029-.0258,1.438-0.0258,0.1636,0,.2411.0258,0.2411,0.1055s-0.0646.1184-.1787,0.1184a1.5135,1.5135,0,0,0-.3294.0409c-0.2928.0517-.3832,0.211-0.409,0.607-0.0258.3573-.0258,0.6738-0.0258,2.3808v1.5714c0,1.64.3057,2.2754,0.8525,2.7231a2.3033,2.3033,0,0,0,2.9125-.1442c0.6221-.6092.648-1.5865,0.648-2.736V104.277c0-1.7071-.0129-2.0235-0.0258-2.3808a0.5365,0.5365,0,0,0-.4693-0.607,1.8964,1.8964,0,0,0-.4069-0.0409c-0.127,0-.1916-0.0387-0.1916-0.1184s0.0775-.1055.2282-0.1055c0.5726,0,1.3239.0258,1.3346,0.0258,0.1292,0,.8783-0.0258,1.311-0.0258,0.1528,0,.23.0258,0.23,0.1055s-0.0646.1184-.1916,0.1184a1.5485,1.5485,0,0,0-.3315.0409c-0.3035.0517-.381,0.211-0.4069,0.607-0.0129.3573-.0258,0.6738-0.0258,2.3808v1.2012a4.245,4.245,0,0,1-1.0677,3.384,3.3915,3.3915,0,0,1-2.3636.8072,3.76,3.76,0,0,1-2.5574-.7663,3.6944,3.6944,0,0,1-1.0161-2.975V104.277Z"/><path class="cls-2" d="M217.6683,107.99c0.0237,0.8718.1636,1.1366,0.3789,1.2163a1.8264,1.8264,0,0,0,.5855.08c0.1292,0,.1916.0517,0.1916,0.1184,0,0.0926-.1012.1184-0.2562,0.1184-0.7233,0-1.2442-.0387-1.4466-0.0387-0.1033,0-.6372.0387-1.21,0.0387-0.1507,0-.254-0.0129-0.254-0.1184a0.1555,0.1555,0,0,1,.1787-0.1184,2.1465,2.1465,0,0,0,.508-0.0538c0.2928-.08.3294-0.3832,0.3423-1.36l0.1033-6.6625c0-.2239.0753-0.3832,0.1894-0.3832a0.9617,0.9617,0,0,1,.4843.37c0.14,0.1442,1.819,1.9288,3.4464,3.582,0.762,0.7793,2.25,2.3658,2.4153,2.5251h0.05l-0.1141-4.9963c-0.0129-.6889-0.1141-0.8869-0.381-0.9924a1.7963,1.7963,0,0,0-.5855-0.0667c-0.14,0-.1787-0.0517-0.1787-0.1184,0-.0926.1162-0.1055,0.28-0.1055,0.5855,0,1.184.0258,1.4251,0.0258,0.127,0,.5468-0.0258,1.0936-0.0258,0.1528,0,.254.0129,0.254,0.1055,0,0.0667-.0646.1184-0.1894,0.1184a1.0634,1.0634,0,0,0-.3444.0409c-0.3057.0926-.3939,0.2906-0.4069,0.9256l-0.127,7.0844c0,0.2519-.09.3573-0.1787,0.3573a0.6552,0.6552,0,0,1-.4585-0.2389c-0.6975-.6738-2.0967-2.0622-3.2677-3.2376-1.2184-1.2163-2.4024-2.5789-2.6176-2.7769h-0.0387Z"/><path class="cls-2" d="M227.6545,104.277c0-1.7071,0-2.0235-.0129-2.3808a0.536,0.536,0,0,0-.381-0.5941,1.407,1.407,0,0,0-.4069-0.0538c-0.1141,0-.1787-0.0258-0.1787-0.1313,0-.0667.09-0.0926,0.2669-0.0926,0.42,0,1.184.0258,1.5,0.0258,0.28,0,1.0053-.0258,1.4358-0.0258,0.1421,0,.23.0258,0.23,0.0926,0,0.1055-.0624.1313-0.1787,0.1313a1.565,1.565,0,0,0-.3315.0409c-0.3035.0517-.3918,0.211-0.4176,0.607-0.0258.3573-.0258,0.6738-0.0258,2.3808V106.26c0,1.0828,0,1.9826.0517,2.4583a0.4822,0.4822,0,0,0,.4434.5274,3.8351,3.8351,0,0,0,.5726.0409,0.1494,0.1494,0,0,1,.1787.1184c0,0.08-.0883.1184-0.2174,0.1184-0.7362,0-1.4983-.0387-1.8039-0.0387-0.254,0-1.0182.0387-1.4638,0.0387-0.1378,0-.2153-0.0387-0.2153-0.1184,0-.0517.0387-0.1184,0.1765-0.1184a1.52,1.52,0,0,0,.3961-0.0409,0.4854,0.4854,0,0,0,.3315-0.54c0.05-.4628.05-1.3626,0.05-2.4454V104.277Z"/><path class="cls-2" d="M234.3127,101.7111l-1.664.0409a1.1562,1.1562,0,0,0-1.0806.3423,1.3967,1.3967,0,0,0-.1916.3832c-0.0258.0926-.0517,0.1464-0.127,0.1464s-0.1012-.0667-0.1012-0.1851c0-.1851.2153-1.2679,0.2411-1.36,0.0258-.1464.0646-0.2131,0.127-0.2131,0.0883,0,.2045.0926,0.4843,0.1335a10.3119,10.3119,0,0,0,1.1194.0517h4.5378a4.8548,4.8548,0,0,0,.762-0.0517c0.1787-.028.2669-0.0538,0.3057-0.0538,0.0775,0,.09.0667,0.09,0.2389,0,0.2368-.0258,1.07-0.0258,1.36-0.0129.1184-.0387,0.1851-0.1033,0.1851-0.0883,0-.1141-0.0517-0.127-0.2239l-0.0108-.1205c-0.0258-.2906-0.3186-0.6329-1.3239-0.6458l-1.41-.028V106.26c0,1.0311.0129,1.9159,0.0624,2.4045a0.5157,0.5157,0,0,0,.4327.5812,3.794,3.794,0,0,0,.5726.0409,0.1483,0.1483,0,0,1,.1765.1184c0,0.08-.0883.1184-0.2153,0.1184-0.7362,0-1.4875-.0387-1.8061-0.0387-0.254,0-1.0182.0387-1.4617,0.0387-0.14,0-.2153-0.0387-0.2153-0.1184,0-.0517.0387-0.1184,0.1765-0.1184a1.4652,1.4652,0,0,0,.3961-0.0409,0.5554,0.5554,0,0,0,.3294-0.5941c0.05-.4757.05-1.36,0.05-2.3916v-4.5486Z"/><path class="cls-2" d="M240.87,104.277c0-1.7071,0-2.0235-.0129-2.3808a0.5379,0.5379,0,0,0-.381-0.5941,1.407,1.407,0,0,0-.4069-0.0538c-0.1141,0-.1787-0.0258-0.1787-0.1313,0-.0667.0883-0.0926,0.2669-0.0926,0.42,0,1.1818.0258,1.5,0.0258,0.28,0,1.0053-.0258,1.438-0.0258,0.1378,0,.2282.0258,0.2282,0.0926,0,0.1055-.0646.1313-0.1787,0.1313a1.5135,1.5135,0,0,0-.3294.0409c-0.3057.0517-.3961,0.211-0.42,0.607-0.0258.3573-.0258,0.6738-0.0258,2.3808V106.26c0,1.0828,0,1.9826.05,2.4583a0.4855,0.4855,0,0,0,.4478.5274,3.7652,3.7652,0,0,0,.57.0409,0.1494,0.1494,0,0,1,.1787.1184c0,0.08-.09.1184-0.2153,0.1184-0.7384,0-1.5026-.0387-1.8082-0.0387-0.254,0-1.0161.0387-1.46,0.0387-0.1421,0-.2174-0.0387-0.2174-0.1184,0-.0517.0387-0.1184,0.1787-0.1184a1.5126,1.5126,0,0,0,.3939-0.0409,0.4843,0.4843,0,0,0,.3294-0.54c0.0517-.4628.0517-1.3626,0.0517-2.4454V104.277Z"/><path class="cls-2" d="M246.04,104.277c0-1.7071,0-2.0235-.0129-2.3808a0.543,0.543,0,0,0-.4822-0.607,2.0011,2.0011,0,0,0-.4434-0.0409c-0.1162,0-.1916-0.0387-0.1916-0.1184s0.0883-.1055.254-0.1055c0.5834,0,1.2981.0258,1.6145,0.0258,0.3552,0,2.8351.0129,3.05,0a4.6294,4.6294,0,0,0,.4714-0.0646,1.0235,1.0235,0,0,1,.1787-0.0538c0.0646,0,.0753.0538,0.0753,0.1055a5.3182,5.3182,0,0,0-.0883.7276c-0.0129.1184-.0387,0.6071-0.0646,0.7405a0.2024,0.2024,0,0,1-.1249.1851c-0.0775,0-.09-0.0538-0.09-0.1464a1.07,1.07,0,0,0-.0775-0.409,0.6836,0.6836,0,0,0-.7362-0.4112c-0.1894-.0258-1.5262-0.0517-1.7544-0.0517-0.0517,0-.0753.0387-0.0753,0.1055v2.7769c0,0.0646.0129,0.1184,0.0753,0.1184,0.254,0,1.7028,0,1.9568-.0258a0.77,0.77,0,0,0,.5339-0.1722,0.4705,0.4705,0,0,1,.1787-0.1464,0.1051,0.1051,0,0,1,.0883.1184c0,0.0667-.0258.2519-0.0883,0.82-0.0237.226-.05,0.6738-0.05,0.7534,0,0.0926-.0129.2519-0.1162,0.2519a0.0866,0.0866,0,0,1-.1012-0.0926c-0.0129-.1184-0.0129-0.2648-0.0366-0.4112a0.596,0.596,0,0,0-.6243-0.4348c-0.2023-.0258-1.4746-0.0538-1.7544-0.0538-0.05,0-.0624.0538-0.0624,0.1205v0.8977c0,0.3832-.0129,1.3346,0,1.6662,0.0237,0.7663.366,0.9386,1.5112,0.9386a2.8838,2.8838,0,0,0,1.0548-.1464,0.95,0.95,0,0,0,.4843-0.8331c0.0258-.1184.05-0.17,0.127-0.17,0.09,0,.1012.1442,0.1012,0.2626a7.8013,7.8013,0,0,1-.1528,1.2442c-0.0753.2906-.1765,0.2906-0.5963,0.2906-0.84,0-1.5133-.0129-2.06-0.0409-0.5468-.0129-0.9665-0.0258-1.2959-0.0258-0.1292,0-.37.0129-0.6372,0.0129-0.2669.0129-.5468,0.0258-0.775,0.0258-0.14,0-.2153-0.0387-0.2153-0.1184,0-.0517.0366-0.1184,0.1765-0.1184a1.5306,1.5306,0,0,0,.3961-0.0409,0.5554,0.5554,0,0,0,.3294-0.5941c0.05-.4757.05-1.36,0.05-2.3916V104.277Z"/><path class="cls-2" d="M252.75,109.3788a0.3132,0.3132,0,0,1-.2174-0.3832c0-.6092.0517-1.3088,0.0646-1.4939,0-.1722.0517-0.2906,0.14-0.2906,0.1012,0,.1141.1055,0.1141,0.1851a2.1407,2.1407,0,0,0,.1033.5812,1.7223,1.7223,0,0,0,1.7781,1.1108,1.4265,1.4265,0,0,0,1.5521-1.4272,1.7164,1.7164,0,0,0-1.1065-1.5865l-0.648-.3961c-1.3217-.8072-1.7544-1.5607-1.7544-2.5531,0-1.3734,1.2722-2.26,2.8221-2.26a6.3844,6.3844,0,0,1,1.5887.1851,0.1557,0.1557,0,0,1,.1528.1464c0,0.1442-.0366.4628-0.0366,1.3476,0,0.2389-.0517.3573-0.1421,0.3573-0.0753,0-.1119-0.0667-0.1119-0.198a1.3048,1.3048,0,0,0-.2928-0.7405,1.4865,1.4865,0,0,0-1.2485-.53,1.3481,1.3481,0,0,0-1.5241,1.2033c0,0.5016.1765,0.9,1.1818,1.481l0.4585,0.2648c1.4746,0.846,1.9331,1.7049,1.9331,2.7231a2.4245,2.4245,0,0,1-1.1194,2.101,3.1663,3.1663,0,0,1-1.8685.4628A4.6092,4.6092,0,0,1,252.75,109.3788Z"/><path class="cls-1" d="M164.34,38.4875q-1.5276-.9192-1.5276-4.6181V8.1141a8.9294,8.9294,0,0,1,.5445-3.5115,3.2828,3.2828,0,0,1,1.7965-1.75,9.6457,9.6457,0,0,1,3.5688-.52V0Q164.02,0.1521,157.9075.3836,157.0148,0.35,153.83.2381,150.6421,0.1223,147.2011,0V2.3322h0.7671q3.4387,0,4.36,1.6951a8.47,8.47,0,0,1,.9214,4.089V19.0586H134.5814V7.3646q0-2.8072,1.1991-3.9193a4.8866,4.8866,0,0,1,3.4542-1.1132h1.1969V0q-9.7475.2612-11.76,0.26-1.4714,0-4.5585-.0617-3.0849-.06-4.9884-0.0617V2.3322a7.1048,7.1048,0,0,1,4.4748,1.111q1.359,1.1143,1.3579,4.1662V32.613a13.943,13.943,0,0,1-.507,4.4241,2.8856,2.8856,0,0,1-1.7039,1.8406,11.9394,11.9394,0,0,1-3.6217.529v2.3344q7.2743-.248,9.67-0.2491,1.8417,0,11.6366.2491V39.4067a10.4352,10.4352,0,0,1-3.463-.45,3.1324,3.1324,0,0,1-1.8031-1.7546,9.7691,9.7691,0,0,1-.5841-3.8311V22.0829h25.31l-6.6416,1.86v8.8a12.3759,12.3759,0,0,1-.5378,4.153,3.2882,3.2882,0,0,1-1.8186,1.9685,9.8418,9.8418,0,0,1-3.6922.5423v2.3344q5.9285-.248,10.1994-0.2491,3.7959,0,11.4448.2491V39.4067a8.8718,8.8718,0,0,1-4.5056-.9192"/></svg>