<svg id="Layer_2" data-name="Layer 2" xmlns="http://www.w3.org/2000/svg" viewBox="0 0 580.085 505.6811"><defs><style>.cls-1{fill:#414042;}.cls-2{fill:#ef4136;}.cls-3{fill:#f3f0dd;}</style></defs><title>hustle</title><polygon class="cls-1" points="580.085 112.45 580.085 106.089 580.085 88.89 580.085 54.249 550.085 71.569 492.686 104.708 482.686 110.481 482.686 110.482 459.187 124.049 459.187 124.048 449.353 129.726 437.641 136.488 437.641 126.259 427.641 120.486 251.622 18.861 228.968 5.776 218.967 0 208.965 5.775 10 120.648 0 126.421 0 137.968 0 367.715 0 379.262 10 385.036 208.965 499.908 218.965 505.681 228.965 499.908 427.932 385.036 437.932 379.262 437.932 367.715 437.932 257.909 453.387 248.986 482.686 232.07 482.686 232.07 512.686 214.749 570.885 181.148 580.085 175.836 580.085 112.45"/><polygon class="cls-2" points="20.293 137.806 218.966 23.101 417.641 137.806 417.641 367.217 218.964 481.921 20.291 367.217 20.293 137.806"/><polygon class="cls-3" points="235.466 350.495 235.466 276.841 216.747 287.65 216.747 314.671 191.482 329.259 191.482 302.237 172.762 313.045 172.762 386.697 191.482 375.888 191.482 345.513 216.747 330.928 216.747 361.303 235.466 350.495"/><path class="cls-3" d="M242.9893,271.9643v46.4c0,10.2891,2.9033,16.3848,8.6289,18.1192,5.6484,1.7148,13.6465-.3809,23.7715-6.2266a72.1542,72.1542,0,0,0,23.7119-21.2305A48.6276,48.6276,0,0,0,307.89,280.894V234.4946l-19.7,11.374v46.4a24.0836,24.0836,0,0,1-2.7207,12.0215c-1.7285,3.0215-5.1192,6.0039-10.0791,8.8672-2.8858,1.668-5.1729,2.5977-6.795,2.7656a5.0836,5.0836,0,0,1-3.7021-.75,4.894,4.894,0,0,1-1.7344-3.1054,25.9355,25.9355,0,0,1-.4687-5.0762v-46.4Z"/><path class="cls-3" d="M337.1211,233.5991a17.94,17.94,0,0,1,2.7783-2.7275,28.6248,28.6248,0,0,1,3.3887-2.3135,33.6022,33.6022,0,0,1,4.9492-2.3984,9.3513,9.3513,0,0,1,3.6817-.6954,3.088,3.088,0,0,1,2.3642,1.2051,6.9379,6.9379,0,0,1,1.1094,3.8252l0.1182,1.8057,19.0771-11.0137v-2c0-4.4482-.8711-7.8144-2.59-10.0058a10.0935,10.0935,0,0,0-6.9629-3.8184,22.7246,22.7246,0,0,0-9.8262,1.3184,65.8839,65.8839,0,0,0-21.3437,12.3867,64.691,64.691,0,0,0-9.2354,9.6318,52.5305,52.5305,0,0,0-6.7207,11.2568,30.1776,30.1776,0,0,0-2.6211,12.0665c0,3.5859.7022,6.3085,2.0879,8.09a8.6731,8.6731,0,0,0,5.3955,3.2773,19.4207,19.4207,0,0,0,7.3037-.1855,67.4383,67.4383,0,0,0,7.9688-2.0938c2.6084-.7695,5.2275-1.6015,7.7832-2.4726a45.2041,45.2041,0,0,1,6.5175-1.7539,7.9356,7.9356,0,0,1,4.1983.1523c0.8379,0.334,1.2451,1.168,1.2451,2.5508a7.6341,7.6341,0,0,1-.9609,3.7539,18.1241,18.1241,0,0,1-2.8,3.8106,28.0928,28.0928,0,0,1-3.9287,3.4453,49.9064,49.9064,0,0,1-4.21,2.76,28.309,28.309,0,0,1-5.5,2.4883,10.0266,10.0266,0,0,1-4.3818.5449,4.12,4.12,0,0,1-2.8448-1.7109,7.72,7.72,0,0,1-1.0742-4.5547v-2L312.919,279.2905l-0.03,1.9883c-0.0723,4.7559.8115,8.4023,2.626,10.8379a10.8608,10.8608,0,0,0,7.3447,4.35,23.4236,23.4236,0,0,0,10.4736-1.1758,60.9966,60.9966,0,0,0,11.9551-5.3887,82.8381,82.8381,0,0,0,13.4365-9.5449A66.3111,66.3111,0,0,0,368.7,269.4878a47.29,47.29,0,0,0,6.21-11.5645,33.07,33.07,0,0,0,2.0781-11.123c0-4.3809-.97-7.5078-2.8828-9.2891a10.7451,10.7451,0,0,0-6.6192-2.8965,21.6035,21.6035,0,0,0-7.581.7813c-2.419.6816-4.2754,1.2676-5.6738,1.793q-6.6534,2.1533-10.7813,3.4414a35.1092,35.1092,0,0,1-6.165,1.48c-1.5723.1719-2.1123-.1211-2.2949-0.3125a3.0761,3.0761,0,0,1-.502-2.0605,7.033,7.033,0,0,1,.665-3.0762A15.23,15.23,0,0,1,337.1211,233.5991Z"/><polygon class="cls-3" points="463.086 144.892 443.387 156.265 443.387 231.666 497.887 200.2 497.887 182.999 463.086 203.091 463.086 144.892"/><polygon class="cls-3" points="522.385 168.855 522.385 155.355 556.985 135.378 556.985 119.179 522.385 139.156 522.385 127.855 560.085 106.089 560.085 88.89 502.686 122.029 502.686 197.429 560.885 163.828 560.885 146.628 522.385 168.855"/><polygon class="cls-3" points="376.687 211.974 397.932 199.709 397.932 356.168 218.965 459.494 40 356.168 40 149.515 218.965 46.189 397.641 149.388 417.641 137.841 218.965 23.095 20 137.968 20 367.715 218.965 482.587 417.932 367.715 417.932 188.162 439.187 175.89 439.187 158.69 376.687 194.775 376.687 211.974"/></svg>