<svg id="Layer_1" data-name="Layer 1" xmlns="http://www.w3.org/2000/svg" viewBox="0 0 254.9668 145.8242"><defs><style>.cls-1,.cls-3,.cls-5,.cls-7{opacity:0.5;}.cls-2,.cls-3{fill:#ec008c;}.cls-2,.cls-4,.cls-6{opacity:0.25;}.cls-4,.cls-5{fill:#00aeef;}.cls-6,.cls-7{fill:#231f20;}.cls-8{fill:#bcbec0;}.cls-9{fill:#939598;}</style></defs><title>iceberg-color</title><g class="cls-1"><path class="cls-2" d="M15.7872,6.121c0,3.0245-2.2325,5.4727-5.9043,5.4727A5.393,5.393,0,0,1,4.1934,6.121c0-3.0957,2.3047-5.4726,5.833-5.4726A5.4139,5.4139,0,0,1,15.7872,6.121ZM4.4825,51.125V15.914H15.4268V51.125H4.4825Z"/><path class="cls-2" d="M50.6348,50.1894a25.0406,25.0406,0,0,1-9.793,1.6563c-11.3769,0-18.6494-6.9854-18.6494-18.002,0-10.2969,7.0567-18.7217,20.1621-18.7217A25.3862,25.3862,0,0,1,50.7071,16.49l-1.7285,8.1367a14.9712,14.9712,0,0,0-6.12-1.08c-5.7607,0-9.5048,4.1035-9.4326,9.8653,0,6.4082,4.32,9.8642,9.6485,9.8642a15.4536,15.4536,0,0,0,6.2646-1.1523Z"/><path class="cls-2" d="M64.3135,37.0117c0.2881,4.5371,4.8252,6.6972,9.9365,6.6972a29,29,0,0,0,9.7208-1.5127l1.4414,7.417a33.3042,33.3042,0,0,1-12.7461,2.2325c-11.9532,0-18.793-6.9131-18.793-17.93,0-8.93,5.5449-18.794,17.7852-18.794,11.3769,0,15.6972,8.8565,15.6972,17.5694a26.0624,26.0624,0,0,1-.3594,4.32H64.3135Zm12.89-7.4883c0-2.6641-1.1524-7.1289-6.1934-7.1289-4.6074,0-6.48,4.248-6.7676,7.1289h12.961Z"/><path class="cls-2" d="M93.9053,0H104.85V20.09h0.1445c2.0879-3.0234,5.76-4.9678,10.6562-4.9678,8.4258,0,14.5459,6.9844,14.4737,17.7852,0,12.6728-7.9932,19.01-16.0576,19.01-4.1036,0-8.1368-1.5126-10.584-5.6884h-0.1446l-0.4316,4.8965H93.6172c0.1446-2.3047.2881-6.5528,0.2881-10.5127V0ZM104.85,36.1474a8.005,8.005,0,0,0,.2168,1.9444,6.7006,6.7006,0,0,0,6.4082,5.1845c4.68,0,7.56-3.6006,7.56-9.9365,0-5.4727-2.4482-9.793-7.56-9.793a6.7827,6.7827,0,0,0-6.4082,5.4,9.0736,9.0736,0,0,0-.2168,2.0156v5.1846Z"/><path class="cls-2" d="M145.6,37.0117c0.289,4.5371,4.8252,6.6972,9.9375,6.6972a29.0079,29.0079,0,0,0,9.7207-1.5127l1.44,7.417a33.299,33.299,0,0,1-12.7451,2.2325c-11.9532,0-18.794-6.9131-18.794-17.93,0-8.93,5.5449-18.794,17.7862-18.794,11.3769,0,15.6972,8.8565,15.6972,17.5694a26.05,26.05,0,0,1-.36,4.32H145.6Zm12.89-7.4883c0-2.6641-1.1514-7.1289-6.1924-7.1289-4.6084,0-6.48,4.248-6.7685,7.1289h12.9609Z"/><path class="cls-2" d="M175.1915,27.5068c0-5.1846-.0723-8.5693-0.2872-11.5928h9.36l0.4316,6.4805h0.2881c1.8008-5.1846,6.0489-7.3447,9.5049-7.3447a10.9122,10.9122,0,0,1,2.3037.2158V25.5625a16.3888,16.3888,0,0,0-2.9512-.2872c-4.0332,0-6.7695,2.16-7.4892,5.544a12.938,12.938,0,0,0-.2158,2.4482V51.125H175.1915V27.5068Z"/><path class="cls-2" d="M235.3145,46.0127c0,6.7685-1.3682,12.3134-5.4,15.8408-3.8164,3.3125-9.0732,4.32-14.2578,4.32-4.68,0-9.5039-.9356-12.6729-2.6641l2.16-8.3525a21.4133,21.4133,0,0,0,10.2256,2.665c5.1836,0,9.1445-2.7363,9.1445-9.289V46.3007h-0.1445a11.3905,11.3905,0,0,1-9.5049,4.5362c-8.7119,0-14.9053-7.0567-14.9053-17.1377,0-11.377,7.2735-18.5772,15.9864-18.5772,4.8242,0,7.8476,2.0879,9.6484,5.04h0.1436l0.36-4.2481h9.5049c-0.1436,2.3047-.2881,5.2559-0.2881,10.5127v19.586Zm-10.9453-15.77a9.6434,9.6434,0,0,0-.2158-2.0166c-0.792-2.88-2.88-4.8242-5.9043-4.8242-4.0323,0-7.2,3.6006-7.2,10.01,0,5.2558,2.5918,9.36,7.1279,9.36A5.9848,5.9848,0,0,0,224.01,38.38a10.0947,10.0947,0,0,0,.3594-2.9521V30.2431Z"/><path class="cls-3" d="M242.0782,45.2929c0-3.9609,2.664-6.6972,6.48-6.6972,3.7442,0,6.3379,2.664,6.4082,6.6972A6.4468,6.4468,0,1,1,242.0782,45.2929Z"/><path class="cls-3" d="M39.667,114.039l16-29.667L67,98.706l20.5,2.6279V75.17A14.88,14.88,0,0,0,72.6192,60.289H18.8809A14.8806,14.8806,0,0,0,4,75.17v53.7383a14.8722,14.8722,0,0,0,9.6475,13.916L23.334,117.706Z"/></g><g class="cls-1"><path class="cls-4" d="M11.7872,7.121c0,3.0245-2.2325,5.4727-5.9043,5.4727A5.393,5.393,0,0,1,.1934,7.121c0-3.0957,2.3047-5.4726,5.833-5.4726A5.4139,5.4139,0,0,1,11.7872,7.121ZM0.4825,52.125V16.914H11.4268V52.125H0.4825Z"/><path class="cls-4" d="M46.6348,51.1894a25.0406,25.0406,0,0,1-9.793,1.6563c-11.3769,0-18.6494-6.9854-18.6494-18.002,0-10.2969,7.0567-18.7217,20.1621-18.7217A25.3862,25.3862,0,0,1,46.7071,17.49l-1.7285,8.1367a14.9712,14.9712,0,0,0-6.12-1.08c-5.7607,0-9.5048,4.1035-9.4326,9.8653,0,6.4082,4.32,9.8642,9.6485,9.8642a15.4536,15.4536,0,0,0,6.2646-1.1523Z"/><path class="cls-4" d="M60.3135,38.0117c0.2881,4.5371,4.8252,6.6972,9.9365,6.6972a29,29,0,0,0,9.7208-1.5127l1.4414,7.417a33.3042,33.3042,0,0,1-12.7461,2.2325c-11.9532,0-18.793-6.9131-18.793-17.93,0-8.93,5.5449-18.794,17.7852-18.794,11.3769,0,15.6972,8.8565,15.6972,17.5694a26.0624,26.0624,0,0,1-.3594,4.32H60.3135Zm12.89-7.4883c0-2.6641-1.1524-7.1289-6.1934-7.1289-4.6074,0-6.48,4.248-6.7676,7.1289h12.961Z"/><path class="cls-4" d="M89.9053,1H100.85V21.09h0.1445c2.0879-3.0234,5.76-4.9678,10.6562-4.9678,8.4258,0,14.5459,6.9844,14.4737,17.7852,0,12.6728-7.9932,19.01-16.0576,19.01-4.1036,0-8.1368-1.5126-10.584-5.6884H99.3379L98.9063,52.125H89.6172c0.1446-2.3047.2881-6.5528,0.2881-10.5127V1ZM100.85,37.1474a8.005,8.005,0,0,0,.2168,1.9444,6.7006,6.7006,0,0,0,6.4082,5.1845c4.68,0,7.56-3.6006,7.56-9.9365,0-5.4727-2.4482-9.793-7.56-9.793a6.7827,6.7827,0,0,0-6.4082,5.4,9.0736,9.0736,0,0,0-.2168,2.0156v5.1846Z"/><path class="cls-4" d="M141.6,38.0117c0.289,4.5371,4.8252,6.6972,9.9375,6.6972a29.0079,29.0079,0,0,0,9.7207-1.5127l1.44,7.417a33.299,33.299,0,0,1-12.7451,2.2325c-11.9532,0-18.794-6.9131-18.794-17.93,0-8.93,5.5449-18.794,17.7862-18.794,11.3769,0,15.6972,8.8565,15.6972,17.5694a26.05,26.05,0,0,1-.36,4.32H141.6Zm12.89-7.4883c0-2.6641-1.1514-7.1289-6.1924-7.1289-4.6084,0-6.48,4.248-6.7685,7.1289h12.9609Z"/><path class="cls-4" d="M171.1915,28.5068c0-5.1846-.0723-8.5693-0.2872-11.5928h9.36l0.4316,6.48h0.2881c1.8008-5.1846,6.0489-7.3447,9.5049-7.3447a10.9122,10.9122,0,0,1,2.3037.2158V26.5625a16.3888,16.3888,0,0,0-2.9512-.2872c-4.0332,0-6.7695,2.16-7.4892,5.544a12.938,12.938,0,0,0-.2158,2.4482V52.125H171.1915V28.5068Z"/><path class="cls-4" d="M231.3145,47.0127c0,6.7685-1.3682,12.3134-5.4,15.8408-3.8164,3.3125-9.0732,4.32-14.2578,4.32-4.68,0-9.5039-.9356-12.6729-2.6641l2.16-8.3525a21.4133,21.4133,0,0,0,10.2256,2.665c5.1836,0,9.1445-2.7363,9.1445-9.289V47.3007h-0.1445a11.3905,11.3905,0,0,1-9.5049,4.5362c-8.7119,0-14.9053-7.0567-14.9053-17.1377,0-11.377,7.2735-18.5772,15.9864-18.5772,4.8242,0,7.8476,2.0879,9.6484,5.04h0.1436l0.36-4.2481h9.5049c-0.1436,2.3047-.2881,5.2559-0.2881,10.5127v19.586Zm-10.9453-15.77a9.6434,9.6434,0,0,0-.2158-2.0166c-0.792-2.88-2.88-4.8242-5.9043-4.8242-4.0323,0-7.2,3.6006-7.2,10.01,0,5.2558,2.5918,9.36,7.1279,9.36A5.9848,5.9848,0,0,0,220.01,39.38a10.0947,10.0947,0,0,0,.3594-2.9521V31.2431Z"/><path class="cls-5" d="M238.0782,46.2929c0-3.9609,2.665-6.6972,6.48-6.6972,3.7442,0,6.3379,2.664,6.4082,6.6972A6.4468,6.4468,0,1,1,238.0782,46.2929Z"/><path class="cls-5" d="M35.667,115.039l16-29.667L63,99.706l20.5,2.6279V76.17A14.88,14.88,0,0,0,68.6192,61.289H14.8809A14.8806,14.8806,0,0,0,0,76.17v53.7383a14.8722,14.8722,0,0,0,9.6475,13.916L19.334,118.706Z"/></g><path class="cls-6" d="M13.7872,9.121c0,3.0245-2.2325,5.4727-5.9043,5.4727A5.393,5.393,0,0,1,2.1934,9.121c0-3.0957,2.3047-5.4726,5.833-5.4726A5.4139,5.4139,0,0,1,13.7872,9.121ZM2.4825,54.125V18.914H13.4268V54.125H2.4825Z"/><path class="cls-6" d="M48.6348,53.1894a25.0406,25.0406,0,0,1-9.793,1.6563c-11.3769,0-18.6494-6.9854-18.6494-18.002,0-10.2969,7.0567-18.7217,20.1621-18.7217A25.3862,25.3862,0,0,1,48.7071,19.49l-1.7285,8.1367a14.9712,14.9712,0,0,0-6.12-1.08c-5.7607,0-9.5048,4.1035-9.4326,9.8653,0,6.4082,4.32,9.8642,9.6485,9.8642a15.4536,15.4536,0,0,0,6.2646-1.1523Z"/><path class="cls-6" d="M62.3135,40.0117c0.2881,4.5371,4.8252,6.6972,9.9365,6.6972a29,29,0,0,0,9.7208-1.5127l1.4414,7.417a33.3042,33.3042,0,0,1-12.7461,2.2325c-11.9532,0-18.793-6.9131-18.793-17.93,0-8.93,5.5449-18.794,17.7852-18.794,11.3769,0,15.6972,8.8565,15.6972,17.5694a26.0624,26.0624,0,0,1-.3594,4.32H62.3135Zm12.89-7.4883c0-2.6641-1.1524-7.1289-6.1934-7.1289-4.6074,0-6.48,4.248-6.7676,7.1289h12.961Z"/><path class="cls-6" d="M91.9053,3H102.85V23.09h0.1445c2.0879-3.0234,5.76-4.9678,10.6562-4.9678,8.4258,0,14.5459,6.9844,14.4737,17.7852,0,12.6728-7.9932,19.01-16.0576,19.01-4.1036,0-8.1368-1.5126-10.584-5.6884h-0.1446l-0.4316,4.8965H91.6172c0.1446-2.3047.2881-6.5528,0.2881-10.5127V3ZM102.85,39.1474a8.005,8.005,0,0,0,.2168,1.9444,6.7006,6.7006,0,0,0,6.4082,5.1845c4.68,0,7.56-3.6006,7.56-9.9365,0-5.4727-2.4482-9.793-7.56-9.793a6.7827,6.7827,0,0,0-6.4082,5.4,9.0736,9.0736,0,0,0-.2168,2.0156v5.1846Z"/><path class="cls-6" d="M143.6,40.0117c0.289,4.5371,4.8252,6.6972,9.9375,6.6972a29.0079,29.0079,0,0,0,9.7207-1.5127l1.44,7.417a33.299,33.299,0,0,1-12.7451,2.2325c-11.9532,0-18.794-6.9131-18.794-17.93,0-8.93,5.5449-18.794,17.7862-18.794,11.3769,0,15.6972,8.8565,15.6972,17.5694a26.05,26.05,0,0,1-.36,4.32H143.6Zm12.89-7.4883c0-2.6641-1.1514-7.1289-6.1924-7.1289-4.6084,0-6.48,4.248-6.7685,7.1289h12.9609Z"/><path class="cls-6" d="M173.1915,30.5068c0-5.1846-.0723-8.5693-0.2872-11.5928h9.36l0.4316,6.48h0.2881c1.8008-5.1846,6.0489-7.3447,9.5049-7.3447a10.9122,10.9122,0,0,1,2.3037.2158V28.5625a16.3888,16.3888,0,0,0-2.9512-.2872c-4.0332,0-6.7695,2.16-7.4892,5.544a12.938,12.938,0,0,0-.2158,2.4482V54.125H173.1915V30.5068Z"/><path class="cls-6" d="M233.3145,49.0127c0,6.7685-1.3682,12.3134-5.4,15.8408-3.8164,3.3125-9.0732,4.32-14.2578,4.32-4.68,0-9.5039-.9356-12.6729-2.6641l2.16-8.3525a21.4133,21.4133,0,0,0,10.2256,2.665c5.1836,0,9.1445-2.7363,9.1445-9.289V49.3007h-0.1445a11.3905,11.3905,0,0,1-9.5049,4.5362c-8.7119,0-14.9053-7.0567-14.9053-17.1377,0-11.377,7.2735-18.5772,15.9864-18.5772,4.8242,0,7.8476,2.0879,9.6484,5.04h0.1436l0.36-4.2481h9.5049c-0.1436,2.3047-.2881,5.2559-0.2881,10.5127v19.586Zm-10.9453-15.77a9.6434,9.6434,0,0,0-.2158-2.0166c-0.792-2.88-2.88-4.8242-5.9043-4.8242-4.0323,0-7.2,3.6006-7.2,10.01,0,5.2558,2.5918,9.36,7.1279,9.36A5.9848,5.9848,0,0,0,222.01,41.38a10.0948,10.0948,0,0,0,.3594-2.9521V33.2431Z"/><path class="cls-7" d="M240.0782,48.2929c0-3.9609,2.664-6.6972,6.48-6.6972,3.7442,0,6.3379,2.664,6.4082,6.6972A6.4468,6.4468,0,1,1,240.0782,48.2929Z"/><path class="cls-7" d="M37.667,117.039l16-29.667L65,101.706l20.5,2.6279V78.17A14.88,14.88,0,0,0,70.6192,63.289H16.8809A14.8806,14.8806,0,0,0,2,78.17v53.7383a14.8722,14.8722,0,0,0,9.6475,13.916L21.334,120.706Z"/><path class="cls-8" d="M13.7872,9.121c0,3.0245-2.2325,5.4727-5.9043,5.4727A5.393,5.393,0,0,1,2.1934,9.121c0-3.0957,2.3047-5.4726,5.833-5.4726A5.4139,5.4139,0,0,1,13.7872,9.121ZM2.4825,54.125V18.914H13.4268V54.125H2.4825Z"/><path class="cls-8" d="M48.6348,53.1894a25.0406,25.0406,0,0,1-9.793,1.6563c-11.3769,0-18.6494-6.9854-18.6494-18.002,0-10.2969,7.0567-18.7217,20.1621-18.7217A25.3862,25.3862,0,0,1,48.7071,19.49l-1.7285,8.1367a14.9712,14.9712,0,0,0-6.12-1.08c-5.7607,0-9.5048,4.1035-9.4326,9.8653,0,6.4082,4.32,9.8642,9.6485,9.8642a15.4536,15.4536,0,0,0,6.2646-1.1523Z"/><path class="cls-8" d="M62.3135,40.0117c0.2881,4.5371,4.8252,6.6972,9.9365,6.6972a29,29,0,0,0,9.7208-1.5127l1.4414,7.417a33.3042,33.3042,0,0,1-12.7461,2.2325c-11.9532,0-18.793-6.9131-18.793-17.93,0-8.93,5.5449-18.794,17.7852-18.794,11.3769,0,15.6972,8.8565,15.6972,17.5694a26.0624,26.0624,0,0,1-.3594,4.32H62.3135Zm12.89-7.4883c0-2.6641-1.1524-7.1289-6.1934-7.1289-4.6074,0-6.48,4.248-6.7676,7.1289h12.961Z"/><path class="cls-8" d="M91.9053,3H102.85V23.09h0.1445c2.0879-3.0234,5.76-4.9678,10.6562-4.9678,8.4258,0,14.5459,6.9844,14.4737,17.7852,0,12.6728-7.9932,19.01-16.0576,19.01-4.1036,0-8.1368-1.5126-10.584-5.6884h-0.1446l-0.4316,4.8965H91.6172c0.1446-2.3047.2881-6.5528,0.2881-10.5127V3ZM102.85,39.1474a8.005,8.005,0,0,0,.2168,1.9444,6.7006,6.7006,0,0,0,6.4082,5.1845c4.68,0,7.56-3.6006,7.56-9.9365,0-5.4727-2.4482-9.793-7.56-9.793a6.7827,6.7827,0,0,0-6.4082,5.4,9.0736,9.0736,0,0,0-.2168,2.0156v5.1846Z"/><path class="cls-8" d="M143.6,40.0117c0.289,4.5371,4.8252,6.6972,9.9375,6.6972a29.0079,29.0079,0,0,0,9.7207-1.5127l1.44,7.417a33.299,33.299,0,0,1-12.7451,2.2325c-11.9532,0-18.794-6.9131-18.794-17.93,0-8.93,5.5449-18.794,17.7862-18.794,11.3769,0,15.6972,8.8565,15.6972,17.5694a26.05,26.05,0,0,1-.36,4.32H143.6Zm12.89-7.4883c0-2.6641-1.1514-7.1289-6.1924-7.1289-4.6084,0-6.48,4.248-6.7685,7.1289h12.9609Z"/><path class="cls-8" d="M173.1915,30.5068c0-5.1846-.0723-8.5693-0.2872-11.5928h9.36l0.4316,6.48h0.2881c1.8008-5.1846,6.0489-7.3447,9.5049-7.3447a10.9122,10.9122,0,0,1,2.3037.2158V28.5625a16.3888,16.3888,0,0,0-2.9512-.2872c-4.0332,0-6.7695,2.16-7.4892,5.544a12.938,12.938,0,0,0-.2158,2.4482V54.125H173.1915V30.5068Z"/><path class="cls-8" d="M233.3145,49.0127c0,6.7685-1.3682,12.3134-5.4,15.8408-3.8164,3.3125-9.0732,4.32-14.2578,4.32-4.68,0-9.5039-.9356-12.6729-2.6641l2.16-8.3525a21.4133,21.4133,0,0,0,10.2256,2.665c5.1836,0,9.1445-2.7363,9.1445-9.289V49.3007h-0.1445a11.3905,11.3905,0,0,1-9.5049,4.5362c-8.7119,0-14.9053-7.0567-14.9053-17.1377,0-11.377,7.2735-18.5772,15.9864-18.5772,4.8242,0,7.8476,2.0879,9.6484,5.04h0.1436l0.36-4.2481h9.5049c-0.1436,2.3047-.2881,5.2559-0.2881,10.5127v19.586Zm-10.9453-15.77a9.6434,9.6434,0,0,0-.2158-2.0166c-0.792-2.88-2.88-4.8242-5.9043-4.8242-4.0323,0-7.2,3.6006-7.2,10.01,0,5.2558,2.5918,9.36,7.1279,9.36A5.9848,5.9848,0,0,0,222.01,41.38a10.0948,10.0948,0,0,0,.3594-2.9521V33.2431Z"/><path class="cls-9" d="M240.0782,48.2929c0-3.9609,2.664-6.6972,6.48-6.6972,3.7442,0,6.3379,2.664,6.4082,6.6972A6.4468,6.4468,0,1,1,240.0782,48.2929Z"/><path class="cls-9" d="M37.667,117.039l16-29.667L65,101.706l20.5,2.6279V78.17A14.88,14.88,0,0,0,70.6192,63.289H16.8809A14.8806,14.8806,0,0,0,2,78.17v53.7383a14.8722,14.8722,0,0,0,9.6475,13.916L21.334,120.706Z"/></svg>