<?xml version="1.0" encoding="utf-8"?>
<!-- Generator: Adobe Illustrator 18.1.1, SVG Export Plug-In . SVG Version: 6.00 Build 0)  -->
<!DOCTYPE svg PUBLIC "-//W3C//DTD SVG 1.1//EN" "http://www.w3.org/Graphics/SVG/1.1/DTD/svg11.dtd">
<svg version="1.1" id="Layer_1" xmlns="http://www.w3.org/2000/svg" xmlns:xlink="http://www.w3.org/1999/xlink" x="0px" y="0px"
	 viewBox="0 0 251 142.8" style="enable-background:new 0 0 251 142.8;" xml:space="preserve">
<style type="text/css">
	.st0{fill:#FFFFFF;}
</style>
<g>
	<path class="st0" d="M11.8,6.1c0,3-2.2,5.5-5.9,5.5c-3.5,0-5.7-2.4-5.7-5.5C0.2,3,2.5,0.6,6,0.6S11.7,3,11.8,6.1z M0.5,51.1V15.9
		h10.9v35.2H0.5z"/>
	<path class="st0" d="M46.6,50.2c-1.9,0.9-5.6,1.7-9.8,1.7c-11.4,0-18.6-7-18.6-18c0-10.3,7.1-18.7,20.2-18.7c2.9,0,6,0.5,8.4,1.4
		L45,24.6c-1.3-0.6-3.2-1.1-6.1-1.1c-5.8,0-9.5,4.1-9.4,9.9c0,6.4,4.3,9.9,9.6,9.9c2.6,0,4.6-0.4,6.3-1.2L46.6,50.2z"/>
	<path class="st0" d="M60.3,37c0.3,4.5,4.8,6.7,9.9,6.7c3.7,0,6.8-0.5,9.7-1.5l1.4,7.4c-3.6,1.5-8,2.2-12.7,2.2
		c-12,0-18.8-6.9-18.8-17.9c0-8.9,5.5-18.8,17.8-18.8c11.4,0,15.7,8.9,15.7,17.6c0,1.9-0.2,3.5-0.4,4.3H60.3z M73.2,29.5
		c0-2.7-1.2-7.1-6.2-7.1c-4.6,0-6.5,4.2-6.8,7.1H73.2z"/>
	<path class="st0" d="M89.9,0h10.9v20.1h0.1c2.1-3,5.8-5,10.7-5c8.4,0,14.5,7,14.5,17.8c0,12.7-8,19-16.1,19
		c-4.1,0-8.1-1.5-10.6-5.7h-0.1l-0.4,4.9h-9.3c0.1-2.3,0.3-6.6,0.3-10.5V0z M100.8,36.1c0,0.7,0.1,1.4,0.2,1.9
		c0.7,2.9,3.2,5.2,6.4,5.2c4.7,0,7.6-3.6,7.6-9.9c0-5.5-2.4-9.8-7.6-9.8c-3,0-5.7,2.2-6.4,5.4c-0.1,0.6-0.2,1.3-0.2,2V36.1z"/>
	<path class="st0" d="M141.6,37c0.3,4.5,4.8,6.7,9.9,6.7c3.7,0,6.8-0.5,9.7-1.5l1.4,7.4c-3.6,1.5-8,2.2-12.7,2.2
		c-12,0-18.8-6.9-18.8-17.9c0-8.9,5.5-18.8,17.8-18.8c11.4,0,15.7,8.9,15.7,17.6c0,1.9-0.2,3.5-0.4,4.3H141.6z M154.5,29.5
		c0-2.7-1.2-7.1-6.2-7.1c-4.6,0-6.5,4.2-6.8,7.1H154.5z"/>
	<path class="st0" d="M171.2,27.5c0-5.2-0.1-8.6-0.3-11.6h9.4l0.4,6.5h0.3c1.8-5.2,6-7.3,9.5-7.3c1,0,1.5,0.1,2.3,0.2v10.3
		c-0.9-0.1-1.7-0.3-3-0.3c-4,0-6.8,2.2-7.5,5.5c-0.1,0.7-0.2,1.6-0.2,2.4v17.9h-10.9V27.5z"/>
	<path class="st0" d="M231.3,46c0,6.8-1.4,12.3-5.4,15.8c-3.8,3.3-9.1,4.3-14.3,4.3c-4.7,0-9.5-0.9-12.7-2.7l2.2-8.4
		c2.2,1.3,6,2.7,10.2,2.7c5.2,0,9.1-2.7,9.1-9.3v-2.2h-0.1c-2.1,2.9-5.5,4.5-9.5,4.5c-8.7,0-14.9-7.1-14.9-17.1
		c0-11.4,7.3-18.6,16-18.6c4.8,0,7.8,2.1,9.6,5h0.1l0.4-4.2h9.5c-0.1,2.3-0.3,5.3-0.3,10.5V46z M220.4,30.2c0-0.6-0.1-1.4-0.2-2
		c-0.8-2.9-2.9-4.8-5.9-4.8c-4,0-7.2,3.6-7.2,10c0,5.3,2.6,9.4,7.1,9.4c2.9,0,5.1-1.9,5.8-4.4c0.3-0.9,0.4-2,0.4-3V30.2z"/>
	<path class="st0" d="M238.1,45.3c0-4,2.7-6.7,6.5-6.7c3.7,0,6.3,2.7,6.4,6.7c0,3.8-2.6,6.6-6.6,6.6
		C240.7,51.9,238.1,49.1,238.1,45.3z"/>
	<path class="st0" d="M35.7,114l16-29.7L63,98.7l20.5,2.6V75.2c0-8.2-6.7-14.9-14.9-14.9H14.9C6.7,60.3,0,67,0,75.2v53.7
		c0,6.4,4,11.8,9.6,13.9l9.7-25.1L35.7,114z"/>
</g>
</svg>
