<svg id="ARTWORK" xmlns="http://www.w3.org/2000/svg" viewBox="0 0 1042.4488 720"><defs><style>.cls-1,.cls-2,.cls-3,.cls-4,.cls-5,.cls-6,.cls-7,.cls-8,.cls-9,.cls-10,.cls-11,.cls-12,.cls-13,.cls-14,.cls-15{fill:rgb(255, 255, 255);}.cls-16{fill:none;}</style></defs><title>ktpqg-logo</title><path class="cls-1" d="M345.7354,211.834V362.5s0.333,8.834,8.833,8.834h23.167s7.916,0.334,7.916-7.917v-64.25s0.084-6.667,4.084-2,29.667,32,29.667,32,7.333,5.833,13.333,5.833h33s5.333,0.167,0-4.833-58.8154-58-58.8154-58a6.5474,6.5474,0,0,1,0-9.333c4.4824-5,49.1484-57.334,49.1484-57.334s4.333-3.666-2.333-3.666h-26.667s-7.666.333-10,3.666-29,34-29,34-4.666,6-4.666-2V211.167s0-8.167-8.167-8.167h-20.833S345.7354,203.501,345.7354,211.834Z" transform="translate(-54.7759 -36)"/><path class="cls-2" d="M530.5684,246.292c0-22.252-17.7969-40.292-39.75-40.292s-39.75,18.04-39.75,40.292,17.7969,40.2929,39.75,40.2929a39.5539,39.5539,0,0,0,33.3359-18.3916,10.3266,10.3266,0,0,0,.6993-1.0947l0.0127-.0205-0.003-.001a9.7845,9.7845,0,0,0,1.2061-4.7021,10.5072,10.5072,0,1,0-12.2022,9.98c-5.9619,4.9287-14.46,8.207-26.1738,8.207-16.2646,0-30.6963-16.7881-31.1055-34.0625h73.9756C530.5635,246.4307,530.5684,246.3623,530.5684,246.292Zm-73.7891-4.4483C458.418,226.1533,469.7823,214,483.5684,214c13.7881,0,25.1621,12.1533,26.7979,27.8467Z" transform="translate(-54.7759 -36)"/><path class="cls-3" d="M633.9024,295.584s-4.417,8.5-14.417,8.5h-72.917s-4.583-.251-4.583-4.584v-69s0.25-3.375,3.375-3.375h16.375s3.1875,0.25,3.1875,3.1875l2.1455-.0156v-10.88h-2.1455s-0.166,3.0107-3.01,3.0107H545.4024s-3.6309-.334-3.6309-3.6308V197.25s0.1309-3.916,3.9639-3.916h28.917s5.416,0,10.5,8.5l1.666-1.584-4.666-11.166h-50.334s4.75,0.249,4.75,5.916V302s0,7.834-4.75,7.834h94.75l9.25-12.584Z" transform="translate(-54.7759 -36)"/><path class="cls-4" d="M616.1934,213h-41.875v84.25h9.5V255.0937H614.6S636.4434,253,636.4434,233.25,616.1934,213,616.1934,213Zm-4.4824,35.6211H583.8184V219.4736h28.9961s14.0215,0.3457,14.0215,14.0215S611.711,248.6211,611.711,248.6211Z" transform="translate(-54.7759 -36)"/><ellipse class="cls-5" cx="609.855" cy="168.0625" rx="15.0625" ry="8.9375"/><path class="cls-5" d="M676.0684,214.1357V282.5s0.1875,3.5,3.5,3.5h0.0625v2.875H649.5684v-3s3.6875-.25,3.6875-3.6875V237.292s-0.25-4.3545-3.9687-1.6358l-3.7188,2.7188-1.5-2.625Z" transform="translate(-54.7759 -36)"/><polygon class="cls-6" points="682.793 151.167 682.793 260.236 634.209 151.167 634.209 252.875 639.375 252.875 639.375 207.765 687.959 316.834 687.959 151.167 682.793 151.167"/><path class="cls-7" d="M818.2657,241.1533c-1.35,2.3994-4.35,6.2988-6.75,7.6494l-8.55-.45a20.5849,20.5849,0,0,1,4.5,13.1992c0,16.1993-13.4991,23.9991-26.2491,23.9991a44.0248,44.0248,0,0,1-7.6494-.75c-1.95,1.3506-4.5,4.2-4.5,6.3,0,2.85,2.7,5.7,9.45,5.7,5.5489,0,10.7989-.15,15.8985-0.15,9.3,0,21.4492,3,21.4492,17.6992,0,15.1494-17.3985,29.6992-37.3477,29.6992-16.8,0-25.9492-9.75-26.1-18.3a11.6816,11.6816,0,0,1,3.6-8.3994c3-3,8.85-7.6494,12.45-10.5a19.9688,19.9688,0,0,1-11.1-8.249,10.9907,10.9907,0,0,1-1.6494-6.3,32.3071,32.3071,0,0,0,13.1992-9.1494,21.6368,21.6368,0,0,1-13.1992-20.1c0-16.9492,15.2988-24.8984,26.8486-24.8984h0.1494a27.9118,27.9118,0,0,1,14.3995,4.05c7.2-.45,14.85-1.3506,20.3994-2.25ZM771.168,310.3c-3.9,3.3-6.9,7.5-6.9,11.6992,0,8.25,8.6992,14.3994,19.7989,14.3994,14.25,0,21.6-7.35,21.6-16.6494,0-5.1-2.55-8.85-6.75-10.6494-3.75-1.5-8.1-1.9492-14.6993-1.9492C777.3174,307.15,773.8672,308.05,771.168,310.3Zm-2.5508-49.6475c0,11.6992,5.85,20.0987,14.1,20.0987,6.6-.15,12.4493-5.9991,12.4493-17.8487,0-11.7-5.55-20.1-14.2491-20.1C774.6172,242.8027,768.6172,249.1025,768.6172,260.6523Z" transform="translate(-54.7759 -36)"/><polygon class="cls-8" points="490.166 323.057 490.166 297.449 473.484 297.449 473.484 323.057 469.604 323.057 469.604 284.961 473.484 284.961 473.484 293.569 490.166 293.569 490.166 284.961 494.045 284.961 494.045 323.057 490.166 323.057"/><polygon class="cls-8" points="500.166 323.057 500.166 284.961 524.608 284.961 524.608 288.841 504.045 288.841 504.045 293.569 524.608 293.569 524.608 297.449 504.045 297.449 504.045 319.177 524.608 319.177 524.608 323.057 500.166 323.057"/><polygon class="cls-8" points="449.323 323.057 449.323 288.841 439.041 288.841 439.041 284.961 463.484 284.961 463.484 288.841 453.203 288.841 453.203 323.057 449.323 323.057"/><path class="cls-9" d="M393.9024,342.334s7.333,1.5,7.333,21.166v107s-1,14.667-7.333,14.667h48.5s-7.334-1.167-7.334-14.667v-120h21.167s9.25,1.167,9.25,9.25v59.917s-0.5,11.291-11.292,11.291-10.625-7.125-10.625-7.125-1.0937,21.834,24.5371,21.834,27.4815-20.9649,27.4815-27.4824V361.834s-0.5176-19.5-28.8516-19.5h-72.833Z" transform="translate(-54.7759 -36)"/><rect class="cls-10" x="449.4712" y="342.75" width="6.3213" height="25.0889"/><rect class="cls-10" x="449.4712" y="374.1601" width="6.3213" height="57.0899"/><path class="cls-11" d="M534.5684,463.1006a15.6176,15.6176,0,0,1-15.6-15.6006v-63a15.6173,15.6173,0,0,1,15.6-15.6H564.669v10.2H537.337a7.5042,7.5042,0,0,0-7.418,7.5722v24.3516h34.2822v9.9512H529.919v24.3515a7.5042,7.5042,0,0,0,7.418,7.5723h27.332v10.2012H534.5684Z" transform="translate(-54.7759 -36)"/><path class="cls-12" d="M641.3985,342.2217l1.83,44.08h-1.83q-3.6651-19.7871-10.4375-28.497-6.7764-8.7114-16.2969-8.71-7.9834,0-14.3926,6.5762-6.4072,6.5772-10.1074,20.8555-3.6972,14.2807-3.6973,35.6074,0,17.54,3.4786,30.3945,3.4774,12.86,10.4726,19.7305,6.9961,6.873,15.9317,6.872a19.84,19.84,0,0,0,13.77-5.3916q5.9326-5.3905,13.1094-21.3886l1.7578,1.8965q-6.0058,17.3026-14.0254,25.2988a26.0107,26.0107,0,0,1-19.0059,7.998q-19.8486,0-30.7617-23.8174-8.13-17.7757-8.13-41.8291a113.0853,113.0853,0,0,1,5.3467-35.5488q5.3437-16.2333,14.7578-25.1806,9.41-8.9443,20.5449-8.9463,8.64,0,17.0645,6.873,2.49,2.1328,3.59,2.1328A3.3418,3.3418,0,0,0,637.15,349.45a19.1044,19.1044,0,0,0,2.1231-7.2285h2.125Z" transform="translate(-54.7759 -36)"/><path class="cls-13" d="M779.0332,438.7051H682.5684V398.833h60.167a5.4006,5.4006,0,0,0,5.4-5.4V376.7353a5.4,5.4,0,0,0-5.4-5.3994h-60.167V339.4971h26.833a5.4006,5.4006,0,0,0,5.4-5.4V317.4a5.4006,5.4006,0,0,0-5.4-5.4H660.4688a5.4006,5.4006,0,0,0-5.4,5.4V460.8047c0,2.9824,2.0313,5.4,4.5352,5.4h119.43c2.5049,0,4.5352-2.418,4.5352-5.4V444.1055C783.5684,441.123,781.5381,438.7051,779.0332,438.7051Z" transform="translate(-54.7759 -36)"/><path class="cls-14" d="M355.7266,599.9316v-2.2051h-9.9912V497.2207h26.3018V597.7265H361.6045v2.2051h-5.8779Zm0-8.081V589.498h5.8779v2.3526H366.16v-88.753H351.6123v88.753h4.1143Z" transform="translate(-54.7759 -36)"/><polygon class="cls-14" points="347.973 561.726 336.658 561.726 329.165 554.233 329.165 467.098 326.813 467.098 326.813 461.221 337.246 461.221 337.246 467.098 335.041 467.098 335.041 551.735 339.008 555.851 345.622 555.851 349.588 551.735 349.588 467.098 347.385 467.098 347.385 461.221 357.817 461.221 357.817 467.098 355.466 467.098 355.466 554.233 347.973 561.726"/><polygon class="cls-14" points="377.363 561.726 366.93 561.726 366.93 555.851 369.134 555.851 369.134 467.098 366.93 467.098 366.93 461.221 377.363 461.221 377.363 467.098 375.012 467.098 375.012 555.851 377.363 555.848 377.363 561.726"/><polygon class="cls-14" points="386.768 561.726 386.768 467.098 384.564 467.098 384.564 461.221 394.997 461.221 394.997 467.098 392.645 467.098 392.645 555.851 407.192 555.851 407.192 551.295 413.07 551.295 413.07 561.726 386.768 561.726"/><polygon class="cls-14" points="444.517 471.654 444.517 467.098 438.493 467.098 438.493 555.851 440.844 555.851 440.844 561.726 430.411 561.726 430.411 555.851 432.615 555.851 432.615 467.098 426.738 467.098 426.738 471.654 420.86 471.654 420.86 461.221 450.395 461.221 450.395 471.654 444.517 471.654"/><polygon class="cls-14" points="484.927 561.726 458.479 561.726 458.479 461.221 484.927 461.221 484.927 471.8 479.05 471.8 479.05 467.098 464.356 467.098 464.356 509.124 477.874 509.124 477.874 515 464.356 515 464.356 555.851 479.05 555.851 479.05 551.295 484.927 551.295 484.927 561.726"/><path class="cls-14" d="M569.24,591.8506v-37.47L565.7139,551h-11.02v40.8506h2.1992l0.0049,5.8759H546.4649v-5.8759h2.3516v-94.63H567.625l7.4932,7.4932v38.94l-4.1142,4.26,4.1142,4.1143v39.8223h2.2041v5.8759H566.89v-5.8759H569.24Zm0-50.5489V507.0664l-4.1143-3.9688H554.6934V545.124H565.42Z" transform="translate(-54.7759 -36)"/><path class="cls-14" d="M601.1788,506.03a13.1,13.1,0,0,1-1.7139,7.2988q-2.0083,3.7719-4.6543,3.77h-1.7617v-5.2881q-0.394.39-2.0576-1.1767a6.6362,6.6362,0,0,1-2.0577-4.8008,5.3418,5.3418,0,0,1,1.7149-4.2129,6.0234,6.0234,0,0,1,4.3584-1.7627Q600.6875,499.8584,601.1788,506.03Z" transform="translate(-54.7759 -36)"/><polygon class="cls-14" points="567.906 561.726 556.738 561.726 549.245 554.233 553.506 550.119 559.236 555.851 565.408 555.851 569.522 551.883 569.522 518.821 565.554 515 557.767 515 549.097 506.184 549.097 468.861 556.738 461.221 567.906 461.221 575.4 468.714 571.139 472.828 565.408 467.098 559.236 467.098 554.974 471.359 554.974 503.833 556.444 505.302 560.265 509.124 568.052 509.124 575.4 516.47 575.4 554.233 567.906 561.726"/><polygon class="cls-14" points="626.683 561.726 615.369 561.726 607.875 554.086 607.875 468.861 615.516 461.221 626.537 461.221 634.177 468.714 629.916 472.975 624.185 467.098 618.014 467.098 613.751 471.359 613.751 551.735 617.867 555.851 624.332 555.851 628.3 551.883 628.3 520.878 619.042 520.878 619.042 515 636.529 515 636.529 520.878 634.177 520.878 634.177 554.233 626.683 561.726"/><polygon class="cls-14" points="664.301 561.726 652.987 561.726 645.494 554.233 645.494 467.098 643.141 467.098 643.141 461.221 653.575 461.221 653.575 467.098 651.37 467.098 651.37 551.735 655.338 555.851 661.951 555.851 665.917 551.735 665.917 467.098 663.714 467.098 663.714 461.221 674.146 461.221 674.146 467.098 671.795 467.098 671.795 554.233 664.301 561.726"/><polygon class="cls-14" points="693.691 561.726 683.258 561.726 683.258 555.851 685.462 555.851 685.462 467.098 683.258 467.098 683.258 461.221 693.691 461.221 693.691 467.098 691.339 467.098 691.339 555.851 693.691 555.848 693.691 561.726"/><polygon class="cls-14" points="703.096 561.726 703.096 467.098 700.893 467.098 700.893 461.221 711.325 461.221 711.325 467.098 708.974 467.098 708.974 555.851 723.522 555.851 723.522 551.295 729.399 551.295 729.399 561.726 703.096 561.726"/><path class="cls-14" d="M810.7725,597.7265h-18.81V497.2207H810.625l7.6407,7.6406v85.3721Zm-2.499-5.8759,4.1142-3.9678V507.3594l-4.1142-4.2618H797.8409v88.753h10.4326Z" transform="translate(-54.7759 -36)"/><path class="cls-15" d="M912.7,416.291C902.17,592.8808,755.1885,733.3281,576,733.3281c-175.2436,0-319.6821-134.33-335.8095-305.4248l-22.7442.3926A360.106,360.106,0,0,0,907.7051,536.1318a356.8785,356.8785,0,0,0,27.7412-120.2334Z" transform="translate(-54.7759 -36)"/><path class="cls-15" d="M240.1905,364.0957C256.3184,193,400.7569,58.6714,576,58.6714c179.1885,0,326.17,140.4468,336.7,317.0376l22.7461,0.3925A360.0965,360.0965,0,0,0,244.2955,255.8682a356.5353,356.5353,0,0,0-26.8492,107.8344Z" transform="translate(-54.7759 -36)"/><ellipse class="cls-16" cx="79.5514" cy="360.0001" rx="62.7068" ry="12.658"/><path class="cls-2" d="M377.8623,385.7353l-23.2939-.0009a22.4781,22.4781,0,0,1-15.166-5.5235l-137.7393-2.3784c-0.63-.3476-1.2866-0.689-1.9814-1.021a75.8788,75.8788,0,0,0-17.5054-5.3789c-12.9624-2.6162-29.956-4.0571-47.8491-4.0571s-34.8867,1.4409-47.8486,4.0571a75.8838,75.8838,0,0,0-17.5059,5.3789C56.62,382.707,54.7759,391.3642,54.7759,396s1.8443,13.292,14.1968,19.1885a75.8642,75.8642,0,0,0,17.5059,5.3789c12.9619,2.6162,29.955,4.0576,47.8486,4.0576s34.8867-1.4414,47.8491-4.0576a75.8592,75.8592,0,0,0,17.5054-5.3789c0.6948-.3321,1.3515-0.6739,1.9814-1.0215L386.8355,410.97V383.9209A23.9367,23.9367,0,0,1,377.8623,385.7353ZM134.3272,408.6582c-34.6323,0-62.7066-5.667-62.7066-12.6582s28.0743-12.6577,62.7066-12.6577,62.707,5.6665,62.707,12.6577S168.96,408.6582,134.3272,408.6582Z" transform="translate(-54.7759 -36)"/><path class="cls-2" d="M1094.7872,393.2549l-0.8653-.0157-331.3857-5.7216v5.915a19.6848,19.6848,0,0,1-3.4209,11.1094l334.8066-5.7813,0.8653-.0156A2.7645,2.7645,0,0,0,1094.7872,393.2549Z" transform="translate(-54.7759 -36)"/></svg>
