<svg id="Layer_9" data-name="Layer 9" xmlns="http://www.w3.org/2000/svg" viewBox="0 0 674.9028 212.3362"><defs><style>.cls-1{fill:#231f20;}.cls-2{fill:#be1e2d;}</style></defs><title>marks-tire</title><polygon class="cls-1" points="225.435 106.17 211.419 87.092 151.204 83.893 168.452 103.143 225.435 106.17"/><polygon class="cls-1" points="237.64 116.707 244.593 126.181 186.32 123.085 168.452 103.143 107.394 99.899 76.678 79.934 151.204 83.893 130.513 60.801 194.605 64.206 190.776 58.995 21.451 50 137.612 125.504 254.871 131.734 244.137 117.109 237.64 116.707"/><polygon class="cls-1" points="449.468 106.17 463.484 87.092 523.699 83.893 506.451 103.143 449.468 106.17"/><polygon class="cls-1" points="437.263 116.707 430.309 126.181 488.582 123.085 506.451 103.143 567.509 99.899 598.225 79.934 523.699 83.893 544.39 60.801 480.298 64.206 484.126 58.995 653.451 50 537.291 125.504 420.032 131.734 430.766 117.109 437.263 116.707"/><polygon class="cls-1" points="264.733 95.439 264.733 95.439 262.125 89.614 222.126 87.14 205.193 64.092 251.996 66.988 240.485 41.276 179.451 37.5 234.868 112.928 273.636 115.326 264.733 95.439"/><path class="cls-2" d="M313.2877,156.4579l-3.0291-32.4842,27.1929,27.9072,27.1924-27.9072L362.9787,141.83q1.2079,0.0026,2.4156.0068l17.0045,0.0337-15.2363,7.55c-1.7189.8518-3.3866,1.7653-4.9235,2.681,0.93-.03,1.8761-0.05,2.8552-0.05H378.142L440.32,13.1622,337.4514,125.838,234.5828,13.1622l67.4955,150.7686Z"/><path class="cls-1" d="M313.4046,130.7843l20.7228,21.2676h6.6479l20.7228-21.2676-1.0293,11.0389q2.4627,0.0063,4.9254.0139l0.095,0,0.9874-10.5887,1.3134-14.0861-9.8729,10.1324-20.4658,21.0037-20.4658-21.0037-9.8729-10.1324,1.3134,14.0861,2.4976,26.7853,4.7278-3.1519Z"/><polygon class="cls-1" points="304.188 162.525 272.035 90.702 243.214 26.325 333.759 125.501 337.451 129.546 341.144 125.501 431.688 26.325 402.868 90.702 379.964 141.866 382.399 141.871 379.266 143.423 375.403 152.052 380.882 152.052 407.432 92.745 448.951 0 337.451 122.13 225.951 0 267.471 92.745 299.969 165.337 304.188 162.525"/><path class="cls-1" d="M314.1168,196.9407l6.8922,15.3955-1.1588-12.427C317.887,198.8762,315.9656,197.878,314.1168,196.9407Z"/><polygon class="cls-1" points="354.813 202.482 354.055 210.607 354.419 211.163 358.306 202.482 354.813 202.482"/><path class="cls-1" d="M362.239,152.1021c0.7483-.0241,1.5192-0.0343,2.2969-0.04l0.1248-1.3389C363.8271,151.177,363.0161,151.6391,362.239,152.1021Z"/><polygon class="cls-1" points="434.418 41.276 422.907 66.988 469.71 64.092 452.777 87.14 412.778 89.614 401.267 115.326 440.035 112.928 495.451 37.5 434.418 41.276"/><path class="cls-1" d="M352.9837,153.8844c2.74-2.6957,7.945-5.8383,12.4027-8.0473q-5.2718-.01-10.5435-0.03a83.4959,83.4959,0,0,0-8.0979,8.077h6.2387Z"/><path class="cls-1" d="M8.0708,156.0519h83.938q9.512,0,12.4521,6.918a7.57,7.57,0,0,1,.4609,3.92q-10.147,31.0737-10.8379,31.5918H74.2524a0.407,0.407,0,0,1-.4609-0.4609Q83.937,168.7355,83.9375,166.89a1.6308,1.6308,0,0,0-1.8447-1.8447H68.9487q-10.8391,32.5137-11.53,33.4365H37.5874a0.407,0.407,0,0,1-.4609-0.4609q9.6848-28.3052,11.0684-32.9756H31.8228q-10.8391,32.5137-11.53,33.4365H0.4614A0.4073,0.4073,0,0,1,0,198.0207Q9.6848,169.83,11.7607,162.7384v-0.23q0-3.0542-3.69-6.2256v-0.23Z"/><path class="cls-1" d="M107.9775,156.0519h64.7983q9.7419,0,12.6826,7.3789a18.1117,18.1117,0,0,1,.23,2.5361q0,4.4971-10.146,32.5146H155.02l-0.4609-.23q4.1506-11.2412,4.8423-13.8359h-33.667q-0.4622,0-4.3813,12.4521-0.635,1.6143-.9224,1.6143H99.9067q11.53-34.5322,11.53-35.2812v-2.3066q0-2.2471-3.459-4.3809v-0.4609Zm20.293,19.6006h33.8979a71.1263,71.1263,0,0,0,2.5361-8.3018v-0.6914a1.4269,1.4269,0,0,0-1.6138-1.6143H133.5742c-1.6533,0-3.69,6.2256-3.69,6.2256S129.23,172.7316,128.2705,175.6525Z"/><path class="cls-1" d="M188.6865,156.0519h67.104c4.3042,0,9.2471,1.9655,10.377,6.2256a17.8931,17.8931,0,0,1,.4614,3.459c0,2.7295-.7163,6.918-3.459,9.916q-7.0913,6.2256-23.7515,6.2256V182.11q8.647,5.2456,24.6738,20.7539,6.687,7.897,6.6875,8.07a4.6537,4.6537,0,0,1,.9224,1.3838h-0.231q-40.5857-24.04-61.1084-30.4395h-3.2285q-0.4614,0-4.3813,12.4531-1.2686,3.6313-1.8447,4.15H181.0771l-0.4614-.23q6.687-18.9082,11.7607-35.2812v-1.3838q0-2.3628-3.69-5.3037v-0.23Zm21.6763,16.6025H244.03a36.6888,36.6888,0,0,0,1.6143-5.5342v-0.6914a1.427,1.427,0,0,0-1.6143-1.6143H217.7422q-4.7864,0-5.9956,3.6895Z"/><path class="cls-1" d="M267.3784,156.0519H287.44q3.8621,0,4.6123,4.8418,0,2.8843-5.5347,18.2178l34.59-23.06h21.2148v0.23q-3.5171,2.5942-32.2837,20.5234,12.28,6.5713,32.0532,25.3652a102.24,102.24,0,0,1,8.3018,10.1465h-0.231Q305.6,186.088,285.8262,180.7257q-5.592,17.7568-6.2261,17.7559H259.769l-0.4614-.23q6.687-18.9082,11.7607-35.2812v-1.3838q0-2.3628-3.69-5.3037v-0.23Z"/><path class="cls-1" d="M365.0942,156.0519H410.061v0.23q-7.2642,8.9927-22.1377,8.9932h-23.29c-2.7676,0-4.1514,2.998-4.1514,2.998a6.9745,6.9745,0,0,0-.6914,2.3057q0,2.0757,3.459,2.0752h18.6787c10.1465,0.73,16.0885,3.55,15.2188,7.8408h0c-2.3057,8.4551-4.3594,11.1367-5.7646,12.6826q-5.65,5.3042-23.06,5.3037h-26.519a109.6824,109.6824,0,0,1-8.3013-9.2236,0.2042,0.2042,0,0,0,.23-0.23q17.064,0.23,26.5186.23h9.6855q3.7471,0,4.6113-3.2285a23.168,23.168,0,0,0,.9229-3.459,8.3051,8.3051,0,0,0-4.15-.9229H352.4116q-12.6833-.9785-14.5278-5.7646h0c-0.5337-2.0322.999-7.5713,3.92-13.375Q347.9143,156.0524,365.0942,156.0519Z"/><path class="cls-1" d="M434.562,156.0519h69.8711v0.23q-8.187,8.7627-21.4453,8.7627l-11.53,33.4365H451.395l-0.4609-.23,11.3-33.2061H461.772q-17.64,0-27.21-8.7627v-0.23Z"/><path class="cls-1" d="M501.4937,156.0519h20.0615q3.8613,0,4.6123,4.8418,0,2.6528-8.7627,27.9023-3.1143,9.167-3.6895,9.6855h-19.832l-0.4609-.23q6.687-18.9082,11.7607-35.2812v-1.3838q0-2.3628-3.6895-5.3037v-0.23Z"/><path class="cls-1" d="M527.3784,156.0519h67.1035c4.3037,0,9.2848,2.0072,10.377,6.2256a17.8466,17.8466,0,0,1,.4609,3.459c0,2.7295-.8239,7.2809-3.459,9.916q-7.09,6.2256-23.751,6.2256V182.11q8.647,5.2456,24.6738,20.7539,6.687,7.897,6.6875,8.07a4.6464,4.6464,0,0,1,.9219,1.3838h-0.23q-40.5864-24.04-61.1084-30.4395h-3.2285q-0.4614,0-4.3809,12.4531-1.2686,3.6313-1.8447,4.15h-19.832l-0.4609-.23q6.687-18.9082,11.7607-35.2812v-1.3838q0-2.3628-3.6895-5.3037v-0.23Zm21.6758,16.6025h33.667a36.6219,36.6219,0,0,0,1.6143-5.5342v-0.6914a1.4268,1.4268,0,0,0-1.6143-1.6143H556.4331q-4.7856,0-5.9951,3.6895Z"/><path class="cls-1" d="M605.9546,156.0519h68.9482v0.23q-9.2827,8.5327-17.5254,8.5322H634.5483q-4.7856,0-5.9951,3.6895l-1.3838,4.15h35.9727v0.23q-10.377,8.9941-17.0635,8.9932H624.1714q-1.8457,4.1514-1.8447,5.3047v0.23a2.2408,2.2408,0,0,0,2.5361,2.0752h23.9824a17.93,17.93,0,0,1,15.9111,8.5322v0.4609H619.5591q-15.6226,0-18.9082-6.2266l-0.2314-1.6143q8.0713-26.2881,8.5322-29.2852a5.3551,5.3551,0,0,0-2.9971-4.8428v-0.4609Z"/></svg>