<svg id="Layer_1" data-name="Layer 1" xmlns="http://www.w3.org/2000/svg" viewBox="0 0 658.9082 242.3361"><defs><style>.cls-1{fill:#fff;}</style></defs><title>moloneys</title><path class="cls-1" d="M249.145,174.9435V236.77l4.5386,4.3672V242.25H232.3608v-1.1133l4.5386-4.3672v-30.999l-14.9853,4.2823V236.77l4.538,4.3672V242.25H205.13v-1.1133l4.5386-4.3672V174.9435l5.5659-5.4805h28.2588Zm-27.2309,4.0244v21.2363l14.9853-4.2812V178.9679l-4.11-4.0244h-6.7647Z"/><path class="cls-1" d="M257.5391,170.4044v-1.0273h21.3222v1.0273l-4.5381,4.4531v61.7413h14.9854V222.212l12.2456-3.5107v17.9824l4.5386,4.3672v1.1133H257.5391v-1.1133l4.5385-4.3672V174.8575Z"/><path class="cls-1" d="M309.9482,170.4044v-1.0273H331.27v1.0273l-4.5381,4.4531v61.7413h14.9854V222.212l12.2451-3.5107v17.9824l4.5391,4.3672v1.1133H309.9482v-1.1133l4.5386-4.3672V174.8575Z"/><path class="cls-1" d="M379.1416,200.29l14.9854-4.2813v9.8477l-14.9854,4.2812v26.5459H394.127V213.6486l12.2451-3.5957V236.77l4.539,4.3672V242.25H362.3574v-1.1133l4.5381-4.3672V174.9435l-4.5381-4.4531V169.463h48.5537V170.49l-4.539,4.4531v7.4492l-12.2451,3.5117V174.9435H379.1416Z"/><path class="cls-1" d="M444.3955,236.8556l4.5381,4.3672v1.1133H427.6113v-1.1133l4.4532-4.3672V205.9415l-12.76-30.9131-4.5381-4.4521V169.548h21.3223v1.0283l-4.5381,4.4521,6.6787,16.0137,6.68-16.0137-4.4531-4.4521V169.548h21.3222v1.0283l-4.5381,4.4521-12.8447,30.9131Z"/><path class="cls-1" d="M539.0011,173.5959c-.0557-.3379-.1057-.6767-.1429-1.0174a57.7815,57.7815,0,0,1-12.1072,2.3542,73.42,73.42,0,0,1-7.6984.1375c-4.03-.157-8.3851-1.0342-11.7679-3.3576a9.6548,9.6548,0,0,1-1.65-1.398c-.4773-.521-.8-1.1528-1.2233-1.7136a2.0049,2.0049,0,0,0-.7493-.6195,2.1641,2.1641,0,0,0-1.6512.3364,3.4031,3.4031,0,0,0-1.0588,1.2866,6.78,6.78,0,0,0-.44,3.2608,16.4953,16.4953,0,0,1-3.42-1.4124,18.2919,18.2919,0,0,1-6.0752-5.7985,16.2983,16.2983,0,0,1-1.6058-3.4634,15.3024,15.3024,0,0,1-.9562-3.9351,14.58,14.58,0,0,1,2.5994-9.2586,9.2375,9.2375,0,0,1,8.105-4.0582c2.6185.1673,5.5629,1.18,6.7689,3.7065a6.7058,6.7058,0,0,1-.887,7.1616,5.6786,5.6786,0,0,1-8.4312.3873,4.2922,4.2922,0,0,1,1.7408-7.03,4.13,4.13,0,0,1,4.6583,1.23l.7855.98a6.1632,6.1632,0,0,0-1.71-2.6866,5.77,5.77,0,0,0-2.7111-1.1511,6.7515,6.7515,0,0,0-5.0372,1.3825,7.6621,7.6621,0,0,0-2.1669,9.2605,7.802,7.802,0,0,0,8.734,3.5859,9.603,9.603,0,0,0,6.4736-5.0281,10.6321,10.6321,0,0,0,1.0126-4.0958,9.1918,9.1918,0,0,0-.9185-3.7823c-2.98-6.2157-10.96-6.9328-15.7834-2.6479a14.64,14.64,0,0,0-4.7855,14.4237,18.5117,18.5117,0,0,0,5.8534,9.952,30.7819,30.7819,0,0,0,9.659,5.0353,41.0837,41.0837,0,0,0,5.8282,1.4293,56.4636,56.4636,0,0,0,9.4613.707,66.1943,66.1943,0,0,0,15.1663-1.9419c-.1031.0415-.205.0873-.3083.128-2.6774,1.0578-5.36,2.1021-8.0825,3.0391a40.0067,40.0067,0,0,1-3.9616,1.169c-16.8754,3.9193-26.6977-2.4123-28.4615-2.867a5.24,5.24,0,0,0-.0481,4.0433,6.9043,6.9043,0,0,0,1.546,2.24c.2312.2309,1.9795,1.9387,2.2445,1.8082-3.4468,1.6931-6.776,3.163-9.6985,5.7338a27.2475,27.2475,0,0,0-7.2344,9.2721,20.7166,20.7166,0,0,0-1.5673,8.2594,9.8968,9.8968,0,0,0,3.5794,7.8645,7.9293,7.9293,0,0,0,3.8592,1.5412,11.2675,11.2675,0,0,0,4.3212-.132c2.7464-.89,4.7267-2.9984,6.4689-5.2054a7.1425,7.1425,0,0,0,1.8435-4.6442,6.1006,6.1006,0,0,0-2.0317-4.098,5.7092,5.7092,0,0,0-7.7877,8.3344,5.0345,5.0345,0,0,1-1.3326.1012c-2.8129-.1971-4.2495-3.795-4.3921-6.2214a12.6685,12.6685,0,0,1,.0493-2.0875,11.6739,11.6739,0,0,1,2.8973-6.7362c.1035-.1108,1.3331-1.4345,1.3618-1.4052,1.3556,1.3937,2.9126,2.7071,4.9377,2.89a6.2259,6.2259,0,0,0,4.87-1.9281c-2.4872-.8926-4.01-2.6884-2.4-5.2732,1.4328-2.3008,4.0936-3.4992,6.5727-4.3237a48.2824,48.2824,0,0,1,7.155-1.9638c2.7871-.47,5.58-.9206,8.3308-1.5788,1.437-.3442,2.8619-.75,4.2867-1.14,5.2919-1.4451,10.6322-3.0647,15.3959-5.8474a38.3746,38.3746,0,0,0,3.7655-2.5533l.0614-.017-.0045-.0256c.0606-.0459.1222-.09.1825-.1365Z"/><path class="cls-1" d="M119.9071,173.5959c.0557-.3379.1057-.6767.1429-1.0174a57.7817,57.7817,0,0,0,12.1072,2.3542,73.42,73.42,0,0,0,7.6984.1375c4.03-.157,8.3851-1.0342,11.7679-3.3576a9.6548,9.6548,0,0,0,1.65-1.398c.4773-.521.8-1.1528,1.2233-1.7136a2.0047,2.0047,0,0,1,.7493-.6195,2.1641,2.1641,0,0,1,1.6512.3364,3.4029,3.4029,0,0,1,1.0588,1.2866,6.78,6.78,0,0,1,.44,3.2608,16.4953,16.4953,0,0,0,3.42-1.4124,18.2919,18.2919,0,0,0,6.0752-5.7985,16.2983,16.2983,0,0,0,1.6058-3.4634,15.3024,15.3024,0,0,0,.9562-3.9351,14.58,14.58,0,0,0-2.5994-9.2586,9.2375,9.2375,0,0,0-8.105-4.0582c-2.6185.1673-5.5629,1.18-6.7689,3.7065a6.7058,6.7058,0,0,0,.887,7.1616,5.6786,5.6786,0,0,0,8.4312.3873,4.2922,4.2922,0,0,0-1.7408-7.03,4.13,4.13,0,0,0-4.6583,1.23l-.7855.98a6.1632,6.1632,0,0,1,1.71-2.6866,5.77,5.77,0,0,1,2.7111-1.1511,6.7516,6.7516,0,0,1,5.0372,1.3825,7.6621,7.6621,0,0,1,2.1669,9.2605,7.802,7.802,0,0,1-8.734,3.5859,9.603,9.603,0,0,1-6.4736-5.0281,10.6321,10.6321,0,0,1-1.0126-4.0958,9.1921,9.1921,0,0,1,.9185-3.7823c2.98-6.2157,10.96-6.9328,15.7834-2.6479a14.64,14.64,0,0,1,4.7855,14.4237,18.5116,18.5116,0,0,1-5.8534,9.952,30.7819,30.7819,0,0,1-9.659,5.0353,41.0837,41.0837,0,0,1-5.8282,1.4293,56.4636,56.4636,0,0,1-9.4613.707,66.1943,66.1943,0,0,1-15.1663-1.9419c.1031.0415.205.0873.3083.128,2.6774,1.0578,5.36,2.1021,8.0825,3.0391a40.0067,40.0067,0,0,0,3.9616,1.169c16.8754,3.9193,26.6977-2.4123,28.4615-2.867A5.24,5.24,0,0,1,166.9,181.33a6.9043,6.9043,0,0,1-1.546,2.24c-.2312.2309-1.98,1.9387-2.2445,1.8082,3.4468,1.6931,6.776,3.163,9.6985,5.7338a27.2475,27.2475,0,0,1,7.2344,9.2721,20.7166,20.7166,0,0,1,1.5673,8.2594,9.8968,9.8968,0,0,1-3.5794,7.8645,7.9292,7.9292,0,0,1-3.8592,1.5412,11.2676,11.2676,0,0,1-4.3212-.132c-2.7464-.89-4.7267-2.9984-6.4689-5.2054a7.1426,7.1426,0,0,1-1.8435-4.6442,6.1006,6.1006,0,0,1,2.0317-4.098,5.7092,5.7092,0,0,1,7.7877,8.3344,5.0345,5.0345,0,0,0,1.3326.1012c2.8129-.1971,4.2495-3.795,4.3921-6.2214a12.6685,12.6685,0,0,0-.0493-2.0875,11.6738,11.6738,0,0,0-2.8973-6.7362c-.1035-.1108-1.3331-1.4345-1.3618-1.4052-1.3556,1.3937-2.9126,2.7071-4.9377,2.89a6.2259,6.2259,0,0,1-4.87-1.9281c2.4872-.8926,4.01-2.6884,2.4-5.2732-1.4328-2.3008-4.0936-3.4992-6.5727-4.3237a48.2824,48.2824,0,0,0-7.155-1.9638c-2.7871-.47-5.58-.9206-8.3308-1.5788-1.437-.3442-2.8619-.75-4.2867-1.14-5.2919-1.4451-10.6322-3.0647-15.3959-5.8474a38.3768,38.3768,0,0,1-3.7655-2.5533l-.0614-.017.0045-.0256c-.0606-.0459-.1222-.09-.1825-.1365Z"/><path class="cls-1" d="M133.8594,143.07s-28.1842,22.1366-12.1134,29.98l.0206.83-2.1473.1768s-22.471-9.79,14.9163-38.7959Z"/><path class="cls-1" d="M157.5,121.3087a6.7833,6.7833,0,0,1-3.0469.8506q-3.9068,0-6.1592-5.0664a39.5571,39.5571,0,0,1-3.0468-11.1592c-.1011-1.0283-.1773-2.0195-.2285-2.959-.064-.94-.0879-1.88-.0879-2.8125V95.4845a80.7178,80.7178,0,0,1,1.561-18.0225q1.7147-8.0389,13.2681-8.1894V67.088c-.42.1016-.8125.1846-1.169.2354a7.5477,7.5477,0,0,1-1.0156.0771q-4.5315-.1537-5.3062-4.68a58.7617,58.7617,0,0,1-.7749-9.9853V48.2081a17.0656,17.0656,0,0,0-.3169-3.2754q-.9337-8.266-7.0986-12.48a22.5212,22.5212,0,0,0-13.4951-4.0557h-1.0928A23.9183,23.9183,0,0,0,116.6929,32.84a17.8335,17.8335,0,0,0-7.3262,12.0927,20.7674,20.7674,0,0,0-8.5825-11.624A28.7577,28.7577,0,0,0,87.06,28.3966a8.0947,8.0947,0,0,0-1.5634-.1592H84.2407A25.0037,25.0037,0,0,0,70.833,32.3761q-6.0922,3.9713-6.8691,12.5566a52.8477,52.8477,0,0,0-7.0972-7.2548,42.2883,42.2883,0,0,0-7.2485-4.9141,31.1848,31.1848,0,0,0-7.1861-2.73,30.74,30.74,0,0,0-7.1748-.8564A31.18,31.18,0,0,0,12.874,38.4581Q3.2764,47.7408,1.41,58.9757c-.1153.7305-.1914,1.48-.2412,2.26-.0513.78-.0777,1.5361-.0777,2.26A22.86,22.86,0,0,0,4.8364,76.0587q3.734,5.8448,12.3286,9.44a15.47,15.47,0,0,1,3.4287,1.6377,6.79,6.79,0,0,1,1.8653,1.79,4.1232,4.1232,0,0,1,.47.8613,2.3574,2.3574,0,0,1,.1655.8594c0,1.6631-1.6255,3.249-4.8364,4.7539A44.5343,44.5343,0,0,1,6.0815,98.7589V101.4Q21.6793,99.858,28.63,92.8312q6.933-7.0284,7.0966-14.9815v-.623a20.8834,20.8834,0,0,0-3.5917-11.7,22.377,22.377,0,0,0-9.98-8.27,28.7663,28.7663,0,0,1-6.0816-3.2754,17.45,17.45,0,0,1-3.7456-3.5889,11.132,11.132,0,0,1-1.1684-2.417,6.9926,6.9926,0,0,1-.3921-2.2617,7.2921,7.2921,0,0,1,3.0342-5.54,10.7184,10.7184,0,0,1,6.7924-2.2617,11.0347,11.0347,0,0,1,1.8653.1591,12.3239,12.3239,0,0,1,1.88.4639,16.0953,16.0953,0,0,1,5.46,3.2754,20.2829,20.2829,0,0,1,4.6831,6.71q2.65,5.4654,4.1284,15.293,1.4847,9.8262,2.2579,20.5938.6306,11.0757.789,21.2851c.1011,6.8311.1509,11.8828.1509,15.211l-18.41-15.8955L0,136.8253l2.5005,2.4863,9.8271-13.4072,18.41,15.9219,26.9932-34.33q7.16-8.4185,9.6621-15.4473a40.46,40.46,0,0,0,2.501-13.5712c0-.8321-.0254-1.6885-.0757-2.5782-.0518-.8818-.1387-1.7392-.2412-2.57a41.5808,41.5808,0,0,0-.6231-5.0732c-.3047-1.7129-.6216-3.4531-.9263-5.2237-.3183-2.083-.6611-4.2158-1.0156-6.3994a55.4642,55.4642,0,0,1-.71-6.8623q0-5.934,1.8022-8.66c1.1924-1.8213,2.6162-2.6778,4.2915-2.5762a4.4474,4.4474,0,0,1,.85.083,2.6878,2.6878,0,0,1,.6992.2275q2.4939.9435,4.6094,4.4512a20.8181,20.8181,0,0,1,2.5772,8.97q.6093,6.5508,1.0913,11.3116c.3047,3.1738.5713,6.2666.7749,9.2822q.4768,8.1108.5449,18.333.0783,10.2173.0776,30.9668L66.3013,106.25,41.8086,136.8253l2.501,2.4863,10.92-13.4072,18.563,15.9219,28.2358-33.0869a63.8565,63.8565,0,0,0,4.4566-7.1739,43.8893,43.8893,0,0,0,2.8813-6.8623,41.6575,41.6575,0,0,0,1.6382-8.1972c.2534-2.7539.3926-5.6358.3926-8.6563,0-1.9756-.0616-4-.1631-6.083q-.1516-3.1215-.1533-6.709c-.1016-2.2861-.2154-4.705-.3165-7.2568q-.1522-3.8188-.1533-8.03a7.6769,7.6769,0,0,1,.3159-2.1836,14.2685,14.2685,0,0,1,.9283-2.3427A15.9256,15.9256,0,0,1,114.51,41.11a20.8549,20.8549,0,0,1,3.4394-3.1992,8.0961,8.0961,0,0,1,1.8677-.9327,5.4174,5.4174,0,0,1,1.7124-.3164,3.2113,3.2113,0,0,1,2.5029,1.3252,7.7233,7.7233,0,0,1,1.2422,4.4512,21.7426,21.7426,0,0,1,.1533,2.6484,26.2149,26.2149,0,0,0,.1656,2.8106V51.172a27.1973,27.1973,0,0,0,3.2758,11.86c1.9668,3.6368,6.97,5.459,14.9683,5.459.8389,0,1.6514-.0254,2.4258-.0761s1.5869-.1329,2.4116-.2344a2.8642,2.8642,0,0,1-.6221.2344,2.5991,2.5991,0,0,1-.6211.0761c-1.5629.3106-3.2754.6807-5.1435,1.0918a39.7464,39.7464,0,0,0-5.6236,1.7139,29.9767,29.9767,0,0,0-12.0112,8.8945q-5.466,6.3956-5.4595,21.209v4.2158c0,5.001.0772,9.0508.2281,12.1758a25.8186,25.8186,0,0,0,1.956,8.7354,37.0114,37.0114,0,0,0,4.4444,7.414,103.493,103.493,0,0,0,8.0371,9.1289L163.34,120.9025l-2.3364-2.335A15.4621,15.4621,0,0,1,157.5,121.3087ZM12.6235,58.6866a34.0173,34.0173,0,0,0,7.2373,3.9356,16.4816,16.4816,0,0,1,7.396,6.1074,15.0486,15.0486,0,0,1,2.6348,8.4971v.5615a13.9359,13.9359,0,0,1-2.7031,7.7148,12.5994,12.5994,0,0,0-3.2744-3.165,20.67,20.67,0,0,0-4.6231-2.2744c-4.519-1.91-7.728-4.3145-9.5371-7.1465a17.0087,17.0087,0,0,1-2.8271-9.4219c0-.5908.0214-1.2216.0644-1.8759.042-.6582.1016-1.2207.1821-1.7334a26.5344,26.5344,0,0,1,1.3233-4.95A24.6867,24.6867,0,0,0,12.6235,58.6866ZM29.93,133.4132l-12.3325-10.667,6.7641-9.1992,12.62,10.8965ZM61.894,90.0948c-1.417,3.9883-4.3134,8.57-8.6084,13.62l-.1425.1738-5.5772,7.0937q-.0307-2.4873-.0737-5.3769c-.1016-6.7764-.37-14.0205-.7974-21.5313l-.0058-.0888c-.5313-7.3448-1.3081-14.4248-2.3081-21.045-1.0889-7.1982-2.6031-12.7363-4.6285-16.9277a26.0675,26.0675,0,0,0-6.0864-8.5742,24.8671,24.8671,0,0,0-2.7217-2.09,27.0589,27.0589,0,0,1,4.313-.336,24.7656,24.7656,0,0,1,11.6646,2.9258,36.7119,36.7119,0,0,1,6.226,4.2363,47.1,47.1,0,0,1,6.2911,6.4434l1.0268,1.2607.0054.1387a61.538,61.538,0,0,0,.7861,7.584c.3462,2.1318.6861,4.2471,1.002,6.3125l.0171.1074c.2192,1.2725.4443,2.5293.6665,3.7715l.2651,1.4844a36.0969,36.0969,0,0,1,.5444,4.4062l.0108.1787.0215.1778c.101.82.1689,1.54.208,2.2021.0429.7647.0649,1.5215.0649,2.2354A34.838,34.838,0,0,1,61.894,90.0948ZM73.1519,133.589,60.5425,122.7736l6.41-8.002,12.4761,11.4619Zm32.0419-47.6172a35.9481,35.9481,0,0,1-1.395,6.9834,38.1884,38.1884,0,0,1-2.4863,5.9092,57.8229,57.8229,0,0,1-3.896,6.29l-7.9648,9.333c-.0079-10.1513-.0328-17.8291-.0747-23.34-.0513-6.9649-.2378-13.2334-.5552-18.63-.1914-2.8457-.4492-5.9365-.7915-9.4981-.3179-3.1855-.6846-6.9423-1.09-11.2949a26.59,26.59,0,0,0-3.3857-11.4355,17.9368,17.9368,0,0,0-4.6836-5.3408,19.6451,19.6451,0,0,1,5.4375-.875h1.1885a2.3884,2.3884,0,0,1,.4389.0488l.3111.0615.3149.0274a22.8055,22.8055,0,0,1,10.9756,3.9472,14.971,14.971,0,0,1,6.2378,8.4444,59.5953,59.5953,0,0,1,1.1582,11.43c.0474,1.8887.1567,3.7032.2353,5.4463l.0767,1.711c.002,2.4052.0562,4.7129.1606,6.86.1045,2.1612.1558,4.0586.1558,5.8C105.562,80.5841,105.438,83.3165,105.1938,85.9718Zm40.6885-23.38c-.645.042-1.333.0635-2.0449.0635-6.3018,0-9.2363-1.292-9.835-2.3994a21.22,21.22,0,0,1-2.5732-9.23V47.5831l-.0342-.3125a20.3045,20.3045,0,0,1-.1313-2.1836,27.7508,27.7508,0,0,0-.1724-3.1465,12.9059,12.9059,0,0,0-2.5215-7.622c.3516-.0391.7051-.0674,1.0625-.086,0,0,1.3374-.0058,1.4683-.0058a16.6554,16.6554,0,0,1,9.6836,3.0429c2.7021,1.8477,4.1621,4.4913,4.5942,8.3184l.0264.2334.0449.23a11.257,11.257,0,0,1,.2085,2.1562v4.5274a66.929,66.929,0,0,0,.6743,9.8232C146.1777,62.5714,146.0273,62.5821,145.8823,62.5919Zm-11.3467,72.669c-1.6362-1.8125-2.9941-3.4307-4.0581-4.8379a31.463,31.463,0,0,1-3.7465-6.2178,20.0575,20.0575,0,0,1-1.4815-6.7236c-.1455-3.01-.22-7.0118-.22-11.8653V101.4c0-10.4687,2.208-15.251,4.06-17.4189a24.4063,24.4063,0,0,1,9.6582-7.2334q1.0467-.4044,2.0874-.7334c-.0175.0781-.0346.1543-.0507.23a86.86,86.86,0,0,0-1.6895,19.2823v4.6347c0,1.1524.0332,2.2012.1011,3.2071.0522.96.1357,2.04.2432,3.1367l.0195.1709a45.49,45.49,0,0,0,3.5083,12.7988,15.5783,15.5783,0,0,0,4.4775,6.0781Z"/><path class="cls-1" d="M231.0493,102.0343c0-.8379-.0234-1.72-.0757-2.6523-.0493-.9405-.0752-1.8741-.0752-2.8077V91.2687a102.643,102.643,0,0,0-.5464-13.8067,22.9362,22.9362,0,0,0-5.3842-11.7773,54.1535,54.1535,0,0,0-4.291-4.1377,56.53,56.53,0,0,0-5.6871-4.291,36.3089,36.3089,0,0,1-3.5185,2.81c-1.1929.8321-2.4111,1.6133-3.668,2.3369a46.4975,46.4975,0,0,1-14.8174,6.0118A67.3342,67.3342,0,0,1,179.73,69.8946c-1.3579,0-2.7158-.0507-4.062-.1582a36.1383,36.1383,0,0,1-3.7451-.4638v44.47a10.4109,10.4109,0,0,1-1.7154,6.0684,4.721,4.721,0,0,1-4.3667,2.3486v2.6543a19.3492,19.3492,0,0,1,5.3076.7871,39.62,39.62,0,0,1,5.6109,2.0176,51.9485,51.9485,0,0,1,7.0215,3.7461,63.6713,63.6713,0,0,1,6.2461,4.5205,26.9033,26.9033,0,0,1,4.1259,3.7568,12.1539,12.1539,0,0,1,2.26,3.4287,28.2656,28.2656,0,0,1,4.2153-5.7773,34.5253,34.5253,0,0,1,5.1558-4.5332c1.2446-.71,2.437-1.37,3.58-1.94a14.0424,14.0424,0,0,1,3.1241-1.169q12.4731-2.6484,15.603-8.748a29.5511,29.5511,0,0,0,3.123-13.712c0-.8388-.038-1.6757-.0878-2.5009C231.0757,103.8624,231.0493,102.9747,231.0493,102.0343Zm-28.4028,25.7969-.2315.164a40.5678,40.5678,0,0,0-6.0307,5.293c-.0508.0537-.1006.1074-.1509.1611-.793-.7216-1.6592-1.4394-2.59-2.1464a69.8127,69.8127,0,0,0-6.7217-4.8565,58.0289,58.0289,0,0,0-7.83-4.1777c-.9643-.4268-1.9341-.8194-2.8994-1.1739a16.8814,16.8814,0,0,0,1.5664-7.3525V75.6974c.6514.0215,1.3105.0322,1.9717.0322a65.116,65.116,0,0,0,8.5122-.6v42.8164l14.5913,9.7793Zm6.0967-3.1709-14.6656-9.8272V70.6759a18.4635,18.4635,0,0,1,2.8057.2344,17.0552,17.0552,0,0,1,3.2749.8564,15.9562,15.9562,0,0,1,5.855,3.7461,9.7693,9.7693,0,0,1,2.73,7.333Zm14.1591-6.4268c-.9619,1.876-3.9287,3.5967-8.3232,4.8828V82.8458A15.5062,15.5062,0,0,0,210.09,71.337a24.1943,24.1943,0,0,0-2.4814-2.12q1.5856-.8349,3.1641-1.789c1.3442-.7774,2.7021-1.6436,4.0385-2.5762q.189-.1318.3775-.2666.884.6914,1.6582,1.3642a49.1819,49.1819,0,0,1,3.7041,3.5537,17.0093,17.0093,0,0,1,4.0058,8.6387,97.52,97.52,0,0,1,.5074,13.0127l-.0015,5.42c0,1.0078.0283,2.0547.083,3.1114q.0689,1.2216.0684,2.3486c0,1.0557.03,2.07.0888,3.0176.0528.874.0767,1.5361.0767,2.1386A23.5962,23.5962,0,0,1,222.9023,118.2335Z"/><path class="cls-1" d="M248.0508,47.2745v.1534a44.2566,44.2566,0,0,0-3.58-7.3331,37.0953,37.0953,0,0,0-4.3691-5.6181l-.316-.31a1.74,1.74,0,0,1-.3046-.4707l-1.2574,2.6543.47.4688a27.337,27.337,0,0,1,3.3511,4.6787,51.287,51.287,0,0,1,2.8955,5.7763,56.3587,56.3587,0,0,1,2.2608,6.2412,17.9491,17.9491,0,0,1,.85,4.6788v60.373a10.96,10.96,0,0,1-.9282,3.7578c-.5191,1.1416-1.6622,1.6992-3.44,1.6992a7.3949,7.3949,0,0,1-1.396-.15,9.07,9.07,0,0,1-1.561-.4589v2.6425a27.251,27.251,0,0,1,8.582,4.7618q4.2093,3.369,8.1123,7.0966c.7256.7364,1.4219,1.3955,2.1094,2.03.6733.6221,1.32,1.2441,1.9414,1.88l.6235-.6358c1.3575-1.2441,2.753-2.4892,4.2149-3.7441,1.46-1.2461,2.9707-2.501,4.5185-3.7461q3.9067-2.9517,7.5694-5.3828A48.5938,48.5938,0,0,1,284.87,124.66v-2.335a31.8462,31.8462,0,0,1-4.6718,1.5488,15.5935,15.5935,0,0,1-3.44.47c-2.3882-.1016-3.8969-.9287-4.52-2.502a15.5643,15.5643,0,0,1-.94-5.7637V46.1847a21.6769,21.6769,0,0,1,2.1845-9.91q2.19-4.2846,11.3882-6.3164V27.7736a135.6032,135.6032,0,0,0-23.4751,5.1484A18.8671,18.8671,0,0,0,248.0508,47.2745Zm18.6987-9.8759a29.1505,29.1505,0,0,0-1.2881,8.7861v69.8935a21.3133,21.3133,0,0,0,1.36,7.9375,9.3732,9.3732,0,0,0,2.499,3.5313q-1.0064.7383-2.0112,1.4971l-.14.1093c-1.5332,1.2334-3.0971,2.53-4.6494,3.8545q-.471.4044-.9419.8145l-.1255-.124c-2.6845-2.5684-5.5444-5.0694-8.499-7.4346q-.4673-.3722-.9375-.7256a8.2736,8.2736,0,0,0,.4185-.7978,16.8128,16.8128,0,0,0,1.435-5.7393l.0161-.2168v-60.59c0-1.7276-.166-9.5372-.166-9.5372a13.1194,13.1194,0,0,1,9.4575-10.18Q264.9282,37.9152,266.7495,37.3986Z"/><path class="cls-1" d="M351.3359,102.0343c0-.8379-.0244-1.72-.0771-2.6523-.0508-.9405-.0762-1.8741-.0762-2.8077V91.2687a102.8456,102.8456,0,0,0-.5449-13.8067,22.957,22.957,0,0,0-5.3828-11.7773,54.2442,54.2442,0,0,0-4.292-4.1377,56.4,56.4,0,0,0-5.6885-4.291,36.1791,36.1791,0,0,1-3.5166,2.81c-1.1924.8321-2.4111,1.6133-3.6694,2.3369a46.4882,46.4882,0,0,1-14.8155,6.0118,67.3342,67.3342,0,0,1-13.2558,1.4794c-1.3579,0-2.7163-.0507-4.062-.1582a36.1246,36.1246,0,0,1-3.7461-.4638v44.47a10.4142,10.4142,0,0,1-1.7144,6.0684,4.7207,4.7207,0,0,1-4.3662,2.3486v2.6543a19.3429,19.3429,0,0,1,5.3062.7871,39.5908,39.5908,0,0,1,5.6118,2.0176,51.9971,51.9971,0,0,1,7.02,3.7461,63.8564,63.8564,0,0,1,6.2471,4.5205,26.9457,26.9457,0,0,1,4.1259,3.7568,12.1627,12.1627,0,0,1,2.26,3.4287,28.2285,28.2285,0,0,1,4.2153-5.7773,34.4285,34.4285,0,0,1,5.1553-4.5332c1.2441-.71,2.4375-1.37,3.5806-1.94a14.0266,14.0266,0,0,1,3.123-1.169q12.4717-2.6484,15.6026-8.748a29.54,29.54,0,0,0,3.125-13.712c0-.8388-.0391-1.6757-.09-2.5009C351.3613,103.8624,351.3359,102.9747,351.3359,102.0343Zm-28.4033,25.7978-.2314.1641a40.4452,40.4452,0,0,0-6.0332,5.2949c-.0489.0528-.0987.1055-.1475.1582-.793-.7216-1.66-1.44-2.5923-2.1474a70.068,70.068,0,0,0-6.7207-4.8555,58.0991,58.0991,0,0,0-7.83-4.1777c-.9643-.4268-1.9336-.8194-2.8994-1.1739a16.8882,16.8882,0,0,0,1.5659-7.3525V75.6974c.6519.0215,1.3116.0322,1.9727.0322a65.1013,65.1013,0,0,0,8.5112-.6v42.8164l14.5913,9.7793Zm6.0957-3.1718-14.6645-9.8272V70.6759a18.4949,18.4949,0,0,1,2.8066.2344,17.1164,17.1164,0,0,1,3.2754.8564,15.9429,15.9429,0,0,1,5.8521,3.7461,9.76,9.76,0,0,1,2.73,7.333Zm14.16-6.4278c-.9629,1.876-3.9307,3.5977-8.3242,4.8838V82.8458a15.4987,15.4987,0,0,0-4.4922-11.5107,24.2019,24.2019,0,0,0-2.4771-2.1182q1.5843-.8349,3.1616-1.789c1.3428-.7745,2.7022-1.6416,4.042-2.5762.125-.0879.251-.1768.376-.2656q.8833.69,1.6592,1.3642a49.11,49.11,0,0,1,3.7031,3.5518,17.0248,17.0248,0,0,1,4.0049,8.6406,97.6291,97.6291,0,0,1,.5068,13.0117l-.0009,5.42c0,1.0313.0283,2.0821.0839,3.1221.0459.8223.0694,1.6055.0694,2.3379,0,1.0576.0293,2.0713.0869,3.0117.0547.8848.0781,1.5469.0781,2.1445A23.5893,23.5893,0,0,1,343.1885,118.2325Z"/><path class="cls-1" d="M438.4727,124.1017a7.635,7.635,0,0,1-2.7305.5586,3.9883,3.9883,0,0,1-3.5176-2.0313,10.1934,10.1934,0,0,1-1.1689-4.2158,4.7066,4.7066,0,0,1-.1514-1.0918V84.2482c0-4.2657.876-6.9649,2.6543-8.1133a14.0166,14.0166,0,0,1,7.1738-1.874v-2.335a16.6723,16.6723,0,0,1-7.7207-3.2832,61.162,61.162,0,0,1-6.4756-5.61c-.9394-1.0419-1.8789-2.0576-2.8056-3.0478-.94-.9834-1.8272-1.9482-2.6543-2.8809L395.3291,75.5128a16.1766,16.1766,0,0,0-3.7451-10.4551q-3.5815-4.2084-10.9209-7.9541L359.7656,76.756l1.2432,2.5029a16.8292,16.8292,0,0,1,3.5947-2.89,4.6883,4.6883,0,0,1,2.8067-.7051,3.167,3.167,0,0,1,2.8818,1.7978,14.2971,14.2971,0,0,1,1.4844,3.9785,13.7611,13.7611,0,0,0,.0761,1.4805,11.272,11.272,0,0,1,.0782,1.168v33.2324q0,5.6192-2.4141,7.1875a10.3688,10.3688,0,0,1-6.17,1.3955v2.4893a17.8813,17.8813,0,0,1,3.7441,1.333,44.954,44.954,0,0,1,4.52,2.4248,42.5283,42.5283,0,0,1,6.1709,4.9775,15.5878,15.5878,0,0,1,3.9746,5.9414q4.6831-8.1136,9.127-10.9189a33.3012,33.3012,0,0,1,8.1914-3.9111v-2.1827a4.57,4.57,0,0,1-2.6543-1.956,10.1326,10.1326,0,0,1-1.0918-4.126V79.2589l1.8779-1.5625a21.2022,21.2022,0,0,1,1.8682-1.4033,15.3251,15.3251,0,0,1,2.4248-1.251,6.031,6.031,0,0,1,2.2588-.4678,3.3054,3.3054,0,0,1,2.8066,1.5606q1.0869,1.5615,1.0918,5.459v40.7314a25.1815,25.1815,0,0,0,2.0313,9.5088q2.0185,4.9893,10.2978,11.2363l23.2471-19.6552-1.2578-1.09A19.8348,19.8348,0,0,1,438.4727,124.1017ZM387.7646,127.22a25.8744,25.8744,0,0,0-6.0712,5.5743,48.6852,48.6852,0,0,0-6.7432-5.4307c1.87-2.335,2.8154-5.6973,2.8154-10.042V84.089a16.5456,16.5456,0,0,0-.1113-1.794,7.9731,7.9731,0,0,1-.042-.8545v-.6269l-.1338-.6143a20.1885,20.1885,0,0,0-2.0967-5.59,9.8512,9.8512,0,0,0-2.07-2.5811l8.2354-7.7451a23.8552,23.8552,0,0,1,5.5937,4.5567,10.4446,10.4446,0,0,1,2.3545,6.8144l.0215.85-.0234.0186v43.4531a12.18,12.18,0,0,0,.2382,2.3525,12.32,12.32,0,0,0,.8877,3.211Q389.21,126.3052,387.7646,127.22Zm32.15,8.27c-3.26-2.9131-4.4111-4.8408-4.8164-5.8438a19.5223,19.5223,0,0,1-1.6054-7.32V81.5939c0-3.9024-.68-6.6953-2.1368-8.791a10.6435,10.6435,0,0,0-.7968-1.0059l9.7236-6.9531c.6279.6757,1.2744,1.3808,1.9209,2.0976l.0967.1065.1015.1025a66.3187,66.3187,0,0,0,6.2549,5.5068c-3.5888,3.71-3.5888,9.5127-3.5888,11.5909v33.0732a10.0407,10.0407,0,0,0,.2031,1.96,15.8969,15.8969,0,0,0,1.82,6.123,9.9,9.9,0,0,0,1.8711,2.4346Z"/><path class="cls-1" d="M497.6758,121.462a19.3038,19.3038,0,0,1-8.418,1.9532h-.9394a2.3522,2.3522,0,0,1-.7862-.1622,17.8106,17.8106,0,0,1-9.8281-4.37q-4.6875-3.9038-7.4912-12.6328l34.332-22.1611-17.167-26.9854L459.1416,69.4249a17.8615,17.8615,0,0,0-9.5977,10.2207A46.37,46.37,0,0,0,446.51,94.5441a13.895,13.895,0,0,0-.1651,2.1836v2.0312c0,1.7637.0489,3.48.1651,5.1553.1015,1.6513.2031,3.2763.3037,4.8252.1015,1.042.2422,2.081.3935,3.123a22.8541,22.8541,0,0,0,.6983,3.124,38.0342,38.0342,0,0,0,8.3535,15.1329q6.3046,7.3329,20.0478,11.707,4.3609-3.5976,9.2813-7.34,4.9146-3.75,10.0557-7.6425c1.7793-1.3448,3.49-2.7178,5.1552-4.0625q2.4931-2.0186,4.9893-4.3682l-1.2432-2.1816A20.8733,20.8733,0,0,1,497.6758,121.462Zm-12.54-57.0127L496.51,82.33l-8.0127,5.1719-12.3545-19.128Zm-16.167,3.5723,15.92,24.65-15.92,9.8213Zm13.0792,61.8262c-2.38,1.8086-4.6973,3.6211-6.9161,5.4082-6.5713-2.4219-11.4238-5.4239-14.4492-8.9414a32.0868,32.0868,0,0,1-7.1308-12.8008l-.0469-.17a16.8423,16.8423,0,0,1-.5235-2.3233c-.12-.8213-.2548-1.7871-.3505-2.7578-.1-1.5127-.1973-3.0976-.2969-4.706-.1045-1.5147-.1543-3.0684-.1543-4.7979V96.7277a8.0829,8.0829,0,0,1,.0928-1.2657l.0546-.3437.0137-.3477a40.78,40.78,0,0,1,2.6514-13.0361,11.9786,11.9786,0,0,1,6.5264-6.98l1.6142-.7041V94.5275a52.3264,52.3264,0,0,0,2.69,16.7636c2.1045,5.3067,4.7861,9.2764,8.1474,12.0752a24.6366,24.6366,0,0,0,9.82,5.1524Q482.9155,129.1836,482.0479,129.8478Z"/><path class="cls-1" d="M578.7939,73.1691a30.0608,30.0608,0,0,0-3.9755-7.2549,33.7419,33.7419,0,0,0-6.3213-6.4746L543.8535,76.9152a26.2927,26.2927,0,0,0-.3193-3.5108,29.4406,29.4406,0,0,0-1.0918-4.7617,17.395,17.395,0,0,0-2.959-5.5352,10.1564,10.1564,0,0,0-5.458-3.51,23.7977,23.7977,0,0,1-7.8858-3.4336c-1.8154-1.3467-2.7294-2.7559-2.7294-4.21.1015-1.3525,1.0156-2.6543,2.7294-3.9053a24.51,24.51,0,0,1,7.8858-3.2753v-2.335q-10.1529.4657-15.832,6.0049a22.654,22.654,0,0,0-6.9454,12.0937c-.1025.7237-.1923,1.4033-.2412,2.0254-.0527.6211-.0761,1.25-.0761,1.8721a15.8481,15.8481,0,0,0,2.4248,8.6592,10.4984,10.4984,0,0,0,7.25,4.7558v40.7178a5.3256,5.3256,0,0,1-2.3379,4.52,7.7211,7.7211,0,0,1-5.1543,1.5733v2.4892a13.1855,13.1855,0,0,1,5.3838,2.1055,38.9872,38.9872,0,0,1,4.7617,3.8242c.94.836,1.8652,1.7129,2.8057,2.6533s1.93,1.8789,2.9707,2.8184a11.3671,11.3671,0,0,0,1.791,1.7c.6728.5342,1.3193,1.043,1.955,1.5752a41.8678,41.8678,0,0,0,3.3526-2.7432q1.6362-1.4853,3.1992-2.8828,3.8848-3.75,7.7959-6.9453a26.836,26.836,0,0,1,7.7959-4.5947v-2.335a.4416.4416,0,0,0-.3057.1514l-.4687.1523c-.5225.2022-1.169.4063-1.9561.624a8.5135,8.5135,0,0,1-2.2617.3155h-1.09a5.2862,5.2862,0,0,1-3.5039-1.2432c-.9922-.8389-1.4854-2.5654-1.4854-5.1572V80.5021a28.4988,28.4988,0,0,1,5.0654-3.5108,8.6843,8.6843,0,0,1,3.82-1.1679,3.7975,3.7975,0,0,1,3.5166,2.1084,13.0052,13.0052,0,0,1,1.1689,6.1572v52.8867q0,14.3613-5.3838,22.1689-5.3892,7.7873-16.1494,14.3477a.651.651,0,0,0-.3047.0762,1.0432,1.0432,0,0,0-.3164.2275v2.335q23.08-9.0249,33.86-21.6846,10.7622-12.627,11.54-31.0312V82.9972a26.0914,26.0914,0,0,0-.4688-4.7539A29.1537,29.1537,0,0,0,578.7939,73.1691ZM535.3633,131.922q-1.2187,1.0884-2.4854,2.2363c-.9316-.8428-1.8359-1.7012-2.6894-2.5537-1.02-1.0215-2.002-1.95-2.9961-2.8379-1.1035-1.0283-2.2422-1.9931-3.4033-2.8847a11.1237,11.1237,0,0,0,2.6513-7.3145V73.0333l-4.7285-.9131a4.6269,4.6269,0,0,1-3.4219-2.1425,10.0427,10.0427,0,0,1-1.5234-5.543c0-.48.0176-.9453.0547-1.3828.0381-.4746.1094-1.02.1846-1.5528a14.42,14.42,0,0,1,1.8789-4.74,13.5482,13.5482,0,0,0,3.78,4.0928,29.1114,29.1114,0,0,0,9.834,4.3779,4.3678,4.3678,0,0,1,2.4092,1.501,11.6031,11.6031,0,0,1,1.9678,3.6631,23.7529,23.7529,0,0,1,.876,3.7959,20.9326,20.9326,0,0,1,.2656,2.7256v40.2529c0,4.27,1.0722,7.3389,3.2734,9.3662C539.2822,128.254,537.2969,130.0587,535.3633,131.922Zm39.4717-8.6328c-.4864,10.9775-3.8057,19.9336-10.1446,27.3721a46.1314,46.1314,0,0,1-4.0117,4.1289,54.3126,54.3126,0,0,0,2.582-17.8145V84.089a18.3412,18.3412,0,0,0-1.8964-8.9785,10.6154,10.6154,0,0,0-1.6866-2.2627l8.376-5.94a25.6394,25.6394,0,0,1,2.0586,2.4571,24.2938,24.2938,0,0,1,3.2119,5.8388,23.5046,23.5046,0,0,1,1.14,4.1006,20.3533,20.3533,0,0,1,.3711,3.6924Z"/><path class="cls-1" d="M654.4639,91.8916A17.9918,17.9918,0,0,0,643.15,85.499a3.2529,3.2529,0,0,1,.4707-1.7214,8.0171,8.0171,0,0,1,1.2451-1.5549,10.4712,10.4712,0,0,1,1.9541-1.7959,21.6075,21.6075,0,0,0,2.412-2.1084,21.1353,21.1353,0,0,0,4.0656-5.5361q1.8618-3.5127,1.8642-9.5986a35.1058,35.1058,0,0,0-.2275-3.8972c-.166-1.3518-.3954-2.8633-.7119-4.5254-1.1426-6.0315-4.5342-10.4348-9.75-13.886-9.5107-6.2881-23.4795-9.781-36.5547-8.2617a59.2773,59.2773,0,0,1,3.5742-7.6514A17.4039,17.4039,0,0,1,620.457,17.32V14.8164a19.6881,19.6881,0,0,1-2.5791-.8564,16.2352,16.2352,0,0,1-2.7295-1.4783,23.8922,23.8922,0,0,1-5.1425-4.6848A25.2266,25.2266,0,0,1,605.792.1526L603.3037,0a25.45,25.45,0,0,1-5.3848,9.2041,24.6045,24.6045,0,0,1-8.1875,5.7715v2.1836a24.5519,24.5519,0,0,1,8.5694,8.9707,22.6215,22.6215,0,0,1,2.4912,7.8672c.1631,1.6484.1631,3.4629.1631,3.4629v.4514a29.6067,29.6067,0,0,1-3.3516,12.1707,35.8689,35.8689,0,0,1-7.8721,10.2969c-10.455,8.28-8.0283-6.21-8.0283-6.21A18.4236,18.4236,0,0,1,588.625,43.37a31.4282,31.4282,0,0,1,7.8708-4.4387,11.4549,11.4549,0,0,0-.286-3.384,36.3661,36.3661,0,0,0-9.541,5.5632c-4.2363,3.4668-7.05,7.5281-7.81,13.0586-2.084,18.0964,10.872,8.5459,10.872,8.5459a32.8936,32.8936,0,0,0,8.962-9.0481,59.0749,59.0749,0,0,0,5.2314-10.1433c.418-1.2434.8506-2.469,1.3213-3.6624q.7045-1.8,1.333-3.5107l.0049-.0137c13.0566-1.8037,26.8721,1.4063,33.1406,5.01,3.9863,2.29,6.9063,4.7793,8.2646,8.4238a14.7664,14.7664,0,0,1,1.0136,3.51,23.0264,23.0264,0,0,1,.2295,3.2014q0,5.14-3.5049,7.4822a13.2721,13.2721,0,0,1-8.0361,2.1848,10.2738,10.2738,0,0,1-1.2568-.0764,10.0549,10.0549,0,0,0-1.2451-.0762,20.5147,20.5147,0,0,1-7.5665-2.501,13.19,13.19,0,0,1-5.3818-5.1494,11.1428,11.1428,0,0,1-1.3214,2.2676q-.8554,1.1733-1.789,2.4189a51.4352,51.4352,0,0,1-5.626,5.3831q-3.2769,2.7228-6.7031,5.5359a107.7061,107.7061,0,0,0-11.16,10.5313q-5.0655,5.5415-5.0654,11.7754a16.1771,16.1771,0,0,0,3.0332,8.8242c2.0322,3.06,5.4355,6.3743,10.22,9.9043a35.4787,35.4787,0,0,1-2.6523,5.9163q-1.7139,3.1227-3.7452,6.3972l-3.1093,4.3694c-.9395,1.3572-1.8545,2.7156-2.73,4.0632-.8877,1.345-1.7539,2.5518-2.5772,3.5791l2.502.165a10.084,10.084,0,0,1,4.67-3.5166,17.7433,17.7433,0,0,1,5.93-1.0146,26.1953,26.1953,0,0,1,3.4277.24c1.1563.1648,2.3506.3943,3.5938.699a53.4537,53.4537,0,0,1,5.9287,1.9553q2.9707,1.1807,5.6143,2.4109c1.6621.7373,3.1475,1.46,4.456,2.1848,1.294.738,2.3594,1.3584,3.1983,1.8789q3.4277-4.058,6.31-7.3391c1.9307-2.1836,3.8731-4.2158,5.8527-6.0818l2.5029-2.5c1.3437-1.3457,2.7549-2.719,4.2-4.1262,1.4609-1.41,2.9727-2.8828,4.5332-4.4568a26.9109,26.9109,0,0,0,3.6582-4.4436,20.65,20.65,0,0,0,2.2715-4.4441,21.4654,21.4654,0,0,0,.9267-3.427,18.8436,18.8436,0,0,0-4.1259-15.6045ZM606.3975,22.1162c-.64,1.1367-1.2579,2.3323-1.8516,3.5771q-.4863-1.1514-1.0791-2.2781A27.1931,27.1931,0,0,0,598.37,16.63a31.0213,31.0213,0,0,0,3.7988-3.4268,28.63,28.63,0,0,0,2.38-2.9121q.4835.6577.9922,1.2627a31.0993,31.0993,0,0,0,5.25,5.002A22.12,22.12,0,0,0,606.3975,22.1162Zm10.838,50.7871a59.1663,59.1663,0,0,0,5.7411-5.4209q.87.5933,1.8271,1.1211a26.42,26.42,0,0,0,9.6924,3.1868l.3457.0417h.3477a4.1129,4.1129,0,0,1,.5244.0313,16.3553,16.3553,0,0,0,1.8691.12q.3473.0106.6885.011a18.9652,18.9652,0,0,0,10.2832-2.9094,6.8351,6.8351,0,0,1-.4121.9631,15.5362,15.5362,0,0,1-2.877,3.991l-.1572.1506a16.1027,16.1027,0,0,1-1.7539,1.5427,16.6075,16.6075,0,0,0-2.34,2.043l-2.6093,1.0859a19.0887,19.0887,0,0,1-2.9326.9629,11.2688,11.2688,0,0,1-2.6182.3018,17.6738,17.6738,0,0,1-7.044-1.4687,35.9915,35.9915,0,0,1-6.7226-3.6816q-1.2817-.9067-2.2559-1.7383C616.9668,73.126,617.1006,73.0149,617.2354,72.9033Zm-9.1906,5.65a20.3972,20.3972,0,0,1,1.88-4.292v.16a14.157,14.157,0,0,0,2.0957,2.335,32.8164,32.8164,0,0,0,3.67,2.9648,41.6178,41.6178,0,0,0,7.8068,4.2942,23.3958,23.3958,0,0,0,9.3574,1.9463,17.046,17.046,0,0,0,3.9756-.4622,25.0553,25.0553,0,0,0,3.82-1.2507,26.972,26.972,0,0,1-6.5518,9.6748,18.0682,18.0682,0,0,1-7.6425,4.209,14.1222,14.1222,0,0,1-1.6378.2322,15.8994,15.8994,0,0,1-1.6368.0771,15.1728,15.1728,0,0,1-10.9961-4.6777,15.0092,15.0092,0,0,1-4.7617-11.0779A14.4809,14.4809,0,0,1,608.0449,78.553Zm-9.5742,23.3005a10.6244,10.6244,0,0,1-2.06-5.5957c0-2.67,1.1573-5.2341,3.5371-7.8386q.9494-1.036,1.9424-2.0569a20.84,20.84,0,0,0,6.2071,11.5657,23.6392,23.6392,0,0,0,3.705,3.0066,35.1854,35.1854,0,0,0-4.53,4.1682,39.978,39.978,0,0,0-2.6192,3.1384A30.5992,30.5992,0,0,1,598.4707,101.8535Zm31.8018,31.2571c-.9833,1.114-2.044,2.334-3.2344,3.7224-1.1944-.6279-2.4844-1.2468-3.94-1.8945-1.8252-.8484-3.8028-1.6973-5.875-2.5215a59.0607,59.0607,0,0,0-6.57-2.168l-.125-.0322c-1.3916-.3408-2.79-.6123-4.1572-.8086-1.1475-.1511-2.1992-.2422-3.213-.2793,1.0967-1.8037,2.1485-3.62,3.1358-5.42q.4322-.7822.8271-1.56a59.9915,59.9915,0,0,1,15.7949,3.3633,79.3014,79.3014,0,0,1,10.1162,4.5862C632.124,131.0518,631.208,132.053,630.2725,133.1106Zm10.998-10.634a18.5982,18.5982,0,0,1-1.8643,4.5186v.1543a2.1965,2.1965,0,0,0-.3945-.3054,5.8062,5.8062,0,0,0-.5449-.3164,76.903,76.903,0,0,0-13.4951-6.4758,66.7212,66.7212,0,0,0-18.6377-3.82,41.6489,41.6489,0,0,1,5.2305-7.1748,26.2015,26.2015,0,0,1,5.5331-4.6868,15.56,15.56,0,0,1,4.7607-2.1826,18.8,18.8,0,0,1,4.5977-.6221,14.739,14.739,0,0,1,10.9941,4.7607,15.3551,15.3551,0,0,1,4.457,11.4658A18.0154,18.0154,0,0,1,641.2705,122.4766Zm11.5859-16.0713a15.9265,15.9265,0,0,1-.69,2.5615,14.9707,14.9707,0,0,1-1.6426,3.1826,21.2308,21.2308,0,0,1-2.8388,3.4573,20.92,20.92,0,0,0-6.042-13.34,22.0585,22.0585,0,0,0-4.2686-3.4658c.1914-.16.3828-.323.5723-.49a28.2468,28.2468,0,0,0,5.5283-6.7959,12.1358,12.1358,0,0,1,6.5205,4.1289,12.64,12.64,0,0,1,3.0771,8.4226A12.3645,12.3645,0,0,1,652.8564,106.4053Z"/></svg>