<?xml version="1.0" encoding="utf-8"?>
<!-- Generator: Adobe Illustrator 19.2.1, SVG Export Plug-In . SVG Version: 6.00 Build 0)  -->
<svg version="1.1" id="Layer_1" xmlns="http://www.w3.org/2000/svg" xmlns:xlink="http://www.w3.org/1999/xlink" x="0px" y="0px"
	 viewBox="0 0 274.4 127" style="enable-background:new 0 0 274.4 127;" xml:space="preserve">
<style type="text/css">
	.st0{fill:#231F20;}
	.st1{fill:none;}
	.st2{fill:#E6E7E8;}
</style>
<title>never</title>
<path class="st0" d="M121.6,73c-4.6,4.5-10.8,7-17.2,6.9c-6.6,0-12-2-16.3-6.1c-4.3-4-6.4-9.5-6.4-16.3s2.2-12.2,6.6-16.3
	c4.2-3.9,9.7-6.1,15.5-6c5.5-0.1,11,1.8,15.2,5.4c4.2,3.6,6.2,8.5,6.2,14.8v6.4H93.6c0.4,2.4,1.7,4.5,3.7,5.8
	c2.1,1.5,4.5,2.3,7.1,2.3c3.9,0.1,7.7-1.4,10.5-4.3L121.6,73z M110,47.3c-1.7-1.4-3.9-2.2-6.1-2.1c-2.4,0-4.7,0.8-6.6,2.2
	c-1.9,1.4-3.2,3.5-3.5,5.9h19C112.8,51,111.7,48.8,110,47.3z"/>
<path class="st0" d="M144.8,79.2l-17.1-43.4h12.5L151,63.2l10.8-27.3h12.6l-17.1,43.4H144.8z"/>
<path class="st0" d="M217.8,73c-4.6,4.5-10.8,7-17.2,6.9c-6.6,0-12-2-16.3-6.1c-4.3-4-6.4-9.5-6.4-16.3c0-6.8,2.2-12.2,6.6-16.3
	c4.2-3.9,9.7-6.1,15.5-6c5.5-0.1,11,1.8,15.2,5.4c4.2,3.6,6.2,8.5,6.2,14.8v6.4h-31.5c0.4,2.4,1.7,4.5,3.7,5.8
	c2.1,1.5,4.5,2.3,7.1,2.3c3.9,0.1,7.7-1.4,10.5-4.3L217.8,73z M206.2,47.3c-1.7-1.4-3.9-2.2-6.1-2.1c-2.4,0-4.7,0.8-6.6,2.2
	c-1.9,1.4-3.2,3.5-3.5,5.9h19C209,51,207.9,48.8,206.2,47.3z"/>
<path class="st0" d="M252.8,46.6c-3.6,0-6.3,1.3-8,3.8c-1.8,2.5-2.7,5.9-2.7,10.1v18.7H230V36h12.1v5.7c1.7-1.8,3.6-3.4,5.8-4.5
	c2.2-1.2,4.6-1.9,7.1-1.9l0.1,11.3L252.8,46.6L252.8,46.6z"/>
<polygon class="st0" points="63.5,35.9 62.5,35.9 62.5,59 31.8,33.7 31.8,43.1 31.8,44.2 31.8,53.9 31.8,79.2 31.8,79.2 41.9,79.2 
	41.9,79.2 43,79.2 43,56.1 73.6,81.4 73.6,71.5 73.6,70.9 73.6,61.3 73.6,35.9 "/>
<path class="st0" d="M270.5,41.1c0.1,0.8-0.4,1.5-1.1,1.7l1.4,2h-1.5l-1.2-1.8h-0.9v1.8H266v-5.6h2.1c0.7-0.1,1.3,0.1,1.9,0.4
	C270.4,40,270.6,40.5,270.5,41.1z M269,41.7c0.2-0.2,0.3-0.4,0.2-0.7c0-0.2-0.1-0.5-0.2-0.6c-0.3-0.1-0.6-0.2-0.8-0.2h-0.9v1.7h0.9
	C268.4,42,268.8,41.9,269,41.7z"/>
<path class="st0" d="M268.1,48.4c-3.5,0-6.3-2.8-6.3-6.3c0-3.5,2.8-6.3,6.3-6.3c3.5,0,6.3,2.8,6.3,6.3
	C274.4,45.6,271.5,48.4,268.1,48.4z M268.1,37.2c-2.7,0-4.9,2.2-4.9,4.9c0,2.7,2.2,4.9,4.9,4.9c2.7,0,4.9-2.2,4.9-4.9c0,0,0,0,0,0
	C273,39.4,270.8,37.2,268.1,37.2L268.1,37.2z"/>
<g>
	<path class="st1" d="M81.7,57.5c0-6.8,2.2-12.2,6.6-16.3c2-1.8,4.2-3.3,6.6-4.3V10.5H10.5v53c0,25.3,17.5,47.2,42.2,52.7
		c20-4.5,35.3-19.8,40.4-38.9c-1.8-0.9-3.5-2.1-5-3.5C83.8,69.8,81.7,64.3,81.7,57.5z"/>
	<path class="st1" d="M94.9,53.3h10.5h7.5c-0.1-2.3-1.2-4.4-2.9-6c-1.3-1.1-2.9-1.8-4.6-2c-0.2,0-0.5-0.1-0.7-0.1
		c-0.3,0-0.5,0-0.8,0c-2.4,0-4.7,0.8-6.6,2.2c-0.3,0.2-0.5,0.4-0.7,0.6c0,0-0.1,0.1-0.1,0.1c-0.2,0.2-0.4,0.4-0.6,0.6c0,0,0,0,0,0.1
		c-0.4,0.5-0.8,1-1,1.5l0,0c-0.5,0.9-0.9,2-1,3.1H94.9z"/>
	<path class="st1" d="M94.9,65.2c0-0.6,0-1.1,0-1.7v-1.6h-1.3C93.8,63.1,94.2,64.2,94.9,65.2z"/>
	<path class="st2" d="M95.9,48.7c-0.4,0.5-0.8,1-1,1.5l0,0C95.2,49.7,95.5,49.2,95.9,48.7z"/>
	<path class="st2" d="M96.7,48c0.2-0.2,0.5-0.4,0.7-0.6C97.1,47.6,96.9,47.8,96.7,48z"/>
	<path class="st2" d="M96,48.6c0.2-0.2,0.4-0.4,0.6-0.6C96.4,48.3,96.2,48.4,96,48.6z"/>
	<path class="st2" d="M104.7,45.2c0.2,0,0.5,0,0.7,0.1C105.2,45.3,104.9,45.2,104.7,45.2z"/>
	<path class="st2" d="M52.7,116.2c-24.7-5.5-42.2-27.5-42.2-52.7v-53h84.3V37c2.8-1.2,5.8-1.8,8.8-1.7c0.6,0,1.1,0,1.7,0V0h0H0v63.5
		c0,31.1,22.2,57.8,52.7,63.5c25-4.7,44.4-23.4,50.6-47.2c-3.8-0.1-7.2-1-10.2-2.5C88.1,96.5,72.7,111.7,52.7,116.2z"/>
	<path class="st0" d="M95.9,48.7C96,48.7,96,48.7,95.9,48.7C96,48.7,96,48.7,95.9,48.7z"/>
	<path class="st0" d="M96.6,48.1C96.6,48,96.6,48,96.6,48.1C96.6,48,96.6,48,96.6,48.1z"/>
	<path class="st0" d="M103.9,45.2c0.3,0,0.5,0,0.8,0C104.4,45.2,104.2,45.2,103.9,45.2z"/>
</g>
</svg>
