<?xml version="1.0" encoding="utf-8"?>
<!-- Generator: Adobe Illustrator 19.2.1, SVG Export Plug-In . SVG Version: 6.00 Build 0)  -->
<svg version="1.1" id="Layer_1" xmlns="http://www.w3.org/2000/svg" xmlns:xlink="http://www.w3.org/1999/xlink" x="0px" y="0px"
	 viewBox="0 0 585.6 454.6" style="enable-background:new 0 0 585.6 454.6;" xml:space="preserve">
<style type="text/css">
	.st0{fill:#BE1E2D;}
	.st1{fill:#A7A9AC;}
	.st2{fill:#58595B;}
</style>
<title>nevermind</title>
<path class="st0" d="M577,180.6c-10-12.3-29.6-13.7-39.3,0.2c-1.9,2.6-3.1,5.6-3.7,8.8c-0.4,3.5-0.1,7,0.8,10.3
	c1.9,6.9,7.4,11.9,13.7,14.7c7.6,3.4,17.3,1.5,22.6-5.3c3.8-4.9,4-11.9,2-17.6c-0.8-2.1-2-4-3.6-5.7c-3-3.3-7.2-5.2-11.7-5.3
	c-2.4,0-4.9,0.6-7,1.7c-2.4,1.3-3.8,3.6-5.2,5.8l2.3-2.1c3.4-3,7.8-3.2,11.8-1.1c6.7,3.5,7.7,13.3,1.5,17.7
	c-6.2,4.5-14.9,3.2-19.5-3c-0.3-0.4-0.6-0.8-0.8-1.2c-3.2-5.5-3-12.4,0.7-17.7c3.9-5.6,11.4-6.9,17.8-6.3c8.1,0.8,14.4,5.9,18,13
	c3.5,7.3,4.4,15.6,2.7,23.4c-0.9,3.2-2.2,6.3-3.9,9.2c-1.4,2.8-3.2,5.4-5.2,7.8c-4.7,5.1-10.5,9.1-17,11.7c-2.9,1-5.8,1.7-8.8,2.1
	c0.5-2.6,1-5.4,0.2-8.1c-0.4-1.3-1.1-2.5-2.1-3.5c-0.8-0.8-2.7-1.7-3.9-1.5c-0.8,0.2-1.5,0.6-2.1,1.2c-1.2,1.2-2.3,2.6-3.6,3.7
	c-1.4,1.1-2.9,2-4.5,2.7c-9.1,4.3-20,4.7-29.8,3.5c-6.3-0.8-12.5-1.9-18.6-3.4c-10-2.3-19.3-6.2-28.4-10.5c-0.4,1.3-0.8,2.6-1.3,3.9
	c0.9,0.4,1.7,0.8,2.6,1.2c15.3,6.9,31.2,13.1,47.8,15.8c7.7,1.3,15.4,2,23.2,2c4.9,0,9.8-0.4,14.7-1.2c8.7-1.4,17.7-4,25.4-8.4
	c8.1-4.7,14.6-13.2,18.1-21.8C588.1,204.7,585.6,191.1,577,180.6z"/>
<path class="st0" d="M111.6,230.4c-2.1,0.1-4.2-0.7-5.8-2.1c-1.6-1.3-2.4-3.3-2.4-5.4c-0.1-4.1,3.1-7.4,7.1-7.6c0.1,0,0.3,0,0.4,0
	c1.8,0,3.6,0.6,5,1.8c1.4,1.1,2.2,2.7,2.1,4.5c0,0.7-0.1,1.3-0.2,2c-0.1,0.5-0.3,1-0.5,1.5c-0.2,0.5-0.5,0.9-0.9,1.2
	c-0.4,0.3-0.7,0.8-0.8,1.4c0,0.5,0.4,1,0.9,1c0.1,0,0.1,0,0.2,0c0.5,0,1.1-0.3,1.5-0.6c0.7-0.6,1.4-1.4,1.9-2.2
	c0.8-1.2,1.6-2.6,2.2-3.9c0.7-1.5,1.6-3.7,2.6-6.3c1-2.6,2.2-5.8,3.5-9.5c1.3-3.7,2.4-6.8,3.2-9.2c0.8-2.5,1.3-4,1.5-4.6
	c0.1-0.5,0.2-1.1,0.3-1.7c0-1.1-0.7-2.2-1.8-2.4c-1-0.3-2.1-0.4-3.2-0.5h18.5l8.8,31.9l0.6-1.4c0.4-1,1.1-2.7,2.1-5.1
	c1-2.4,1.9-4.7,2.8-6.9c0.9-2.2,1.8-4.6,2.8-7.1c1-2.6,1.6-4.3,1.9-5.2c0.2-0.8,0.4-1.5,0.4-2.3c0.1-1.4-0.7-2.6-1.9-3.2
	c-1.2-0.5-2.5-0.7-3.7-0.7H175l-2.2,0.2c-1.4,0.1-2.8,0.8-3.8,1.9c-1.4,1.8-2.6,3.9-3.3,6.1c-1.3,3.1-3.1,7.7-5.5,13.7
	c-2.5,6.1-4.2,10.6-5.4,13.4c-1.1,2.7-2,4.9-2.6,6.6h-7.3l-10.5-39.4l-0.5,1.6c-1.2,3.5-2.3,7-3.5,10.3c-1.1,3.3-1.9,5.6-2.4,6.8
	c-0.5,1.2-1.3,3.5-2.6,6.9c-0.9,2.5-2,4.9-3.1,7.3c-0.9,1.7-2.1,3.3-3.4,4.8C117.3,229.6,114.9,230.4,111.6,230.4z"/>
<path class="st0" d="M170.2,188.3c-0.6,0.3-1.1,0.7-1.5,1.2c-0.8,1-1.5,2-2,3.2c0-0.3,0.1-0.6,0.1-0.9c0.1-1.4-0.6-2.7-1.8-3.4
	L170.2,188.3 M146.5,188.3l8.3,30.1l0.5,1.9c-0.4,1-0.7,1.8-1,2.5c-1,2.4-1.8,4.5-2.5,6.3h-6.6l-10-37.4l-0.9-3.2l-0.5,1.4
	c-0.1-0.7-0.5-1.3-1.1-1.7L146.5,188.3 M111,215.9c1.7,0,3.4,0.6,4.7,1.7c1.3,1,2,2.5,1.9,4.1c0,0.6,0,1.3-0.2,1.9
	c-0.1,0.5-0.3,0.9-0.5,1.4c-0.2,0.4-0.5,0.8-0.8,1.1c-0.5,0.4-0.9,1.1-0.9,1.7c0,0.6,0.4,1.2,0.9,1.4c-1.5,0.5-3,0.8-4.6,0.8
	c-2,0.1-4-0.6-5.5-1.9c-1.5-1.2-2.3-3.1-2.2-5c-0.1-3.8,2.8-6.9,6.6-7.1C110.7,215.9,110.9,215.9,111,215.9 M175.8,187.3h-17.3v0.9
	c1.9-0.1,3.8,0.1,5.6,0.7c1.1,0.5,1.7,1.6,1.6,2.7c0,0.7-0.2,1.5-0.4,2.2c-0.3,0.9-0.9,2.6-1.9,5.1c-1,2.6-1.9,4.9-2.8,7.1
	c-0.9,2.2-1.8,4.5-2.8,6.9c-1,2.4-1.7,4.1-2.1,5.1l-8.5-30.8h-21.4v0.9c1.9-0.1,3.7,0.1,5.5,0.5c0.9,0.2,1.5,1,1.5,2
	c0,0.5-0.1,1-0.2,1.5c-0.2,0.6-0.6,2.2-1.4,4.6s-1.9,5.5-3.2,9.2c-1.3,3.7-2.5,6.9-3.5,9.5c-1,2.6-1.9,4.7-2.6,6.3
	c-0.6,1.3-1.3,2.6-2.1,3.9c-0.5,0.8-1.1,1.5-1.8,2.1c-0.3,0.3-0.7,0.5-1.2,0.5c-0.3,0.1-0.5-0.1-0.6-0.3c0,0,0-0.1,0-0.1
	c0.1-0.4,0.3-0.8,0.6-1c0.4-0.4,0.7-0.9,1-1.4c0.3-0.5,0.5-1.1,0.6-1.6c0.1-0.7,0.2-1.4,0.2-2.1c0-1.9-0.8-3.7-2.3-4.9
	c-1.5-1.2-3.4-1.9-5.4-1.9c-4.3-0.1-7.9,3.3-8.1,7.6c0,0.1,0,0.3,0,0.4c-0.1,2.2,0.9,4.3,2.5,5.8c1.7,1.5,3.9,2.2,6.1,2.2
	c3.5,0,6-0.9,7.5-2.6c1.4-1.5,2.5-3.1,3.5-4.9c1.2-2.4,2.2-4.9,3.1-7.4c1.3-3.4,2.2-5.7,2.6-6.9c0.5-1.2,1.2-3.5,2.4-6.8
	c1.1-3.3,2.3-6.7,3.5-10.3l10.2,38.1h8.1c0.7-1.8,1.6-4.1,2.8-6.9s2.9-7.3,5.4-13.4c2.5-6.1,4.3-10.7,5.5-13.7
	c0.8-2.2,1.8-4.2,3.2-6c0.9-1,2.1-1.6,3.4-1.7l2.9-0.2L175.8,187.3L175.8,187.3L175.8,187.3z"/>
<path class="st0" d="M178.8,230.3c-2.8,0-5.6-0.9-7.9-2.5c-2.4-1.6-3.8-4.4-3.6-7.3c0-4.5,2.1-8.8,6.2-12.6c4-3.7,9.3-5.8,14.7-5.7
	c0.1,0,0.2,0,0.2,0c-1.1,0.1-2.2,0.7-2.9,1.6c-1.1,1.2-2,2.6-2.8,4c-1,1.7-1.8,3.2-2.5,4.6c-0.7,1.4-1.3,2.7-1.7,3.8l-0.3,0.8l0.1,0
	c-0.3,1-0.5,2-0.7,3c-0.2,1-0.3,2-0.3,3.1c0,2.3,0.3,3.9,1,4.9c0.7,1,1.9,1.6,3.1,1.6c0.9,0,1.7-0.1,2.6-0.3
	c0.9-0.3,1.8-0.7,2.6-1.2c0,0,0.1-0.1,0.1-0.1c-0.1,0.1-0.1,0.1-0.2,0.2C184.4,229.6,181.6,230.3,178.8,230.3z M180.8,216.6
	c2.5-0.8,4.6-2.4,6.2-4.5c2.3-2.8,3.5-5.4,3.5-7.6c0-0.5-0.1-1.1-0.3-1.6c-0.3-0.5-0.8-0.8-1.3-0.7c2.1,0,4.1,0.6,5.9,1.8
	c1.6,1.1,2.4,2.4,2.4,3.9c0,2.9-1.7,5-5.1,6.5C188.4,215.7,184.6,216.5,180.8,216.6L180.8,216.6z"/>
<path class="st0" d="M186,202.8c-0.2,0.2-0.4,0.4-0.6,0.6c-1.1,1.3-2.1,2.6-2.9,4.1c-1,1.7-1.8,3.3-2.5,4.7
	c-0.7,1.4-1.3,2.7-1.7,3.9l-0.6,1.5l0.2,0c-0.2,0.7-0.3,1.4-0.5,2.3c-0.2,1-0.3,2.1-0.3,3.1c0,2.4,0.4,4.1,1.1,5.2
	c0.5,0.7,1.2,1.3,2,1.5c-0.4,0-0.8,0-1.2,0c-2.7,0-5.4-0.9-7.6-2.4c-2.3-1.5-3.5-4.1-3.4-6.9c0-4.4,2-8.5,6.1-12.2
	C177.2,205.2,181.5,203.3,186,202.8 M190.7,202.9c1.3,0.2,2.6,0.7,3.7,1.5c1.3,0.7,2.1,2,2.2,3.5c0,2.7-1.6,4.7-4.8,6.1
	c-2.6,1.1-5.4,1.8-8.2,2c1.5-0.9,2.7-2.1,3.8-3.4c2.4-3,3.6-5.6,3.6-7.9C191,203.9,190.9,203.4,190.7,202.9 M188.3,201.7
	c-5.6-0.1-11,2-15.1,5.9c-4.3,3.9-6.4,8.2-6.4,12.9c-0.2,3,1.3,6,3.8,7.7c2.4,1.7,5.2,2.6,8.2,2.6c2.9,0.1,5.7-0.7,8.1-2.4
	c2.3-1.6,4.2-3.6,5.8-5.8L192,222c-0.7,1.1-1.6,2.2-2.5,3.1c-0.9,0.9-1.9,1.7-3,2.4c-0.8,0.5-1.6,0.9-2.5,1.1
	c-0.8,0.2-1.6,0.3-2.4,0.3c-1.1,0.1-2.1-0.5-2.7-1.4c-0.7-1.4-1-3-0.9-4.6c0-1,0.1-2,0.3-3c0.1-1,0.4-2,0.6-2.9
	c4.5,0.1,9-0.7,13.2-2.3c3.6-1.5,5.4-3.9,5.4-7c-0.1-1.8-1.1-3.4-2.6-4.3C193,202.2,190.7,201.6,188.3,201.7L188.3,201.7
	L188.3,201.7z M179.1,216.4c0.4-1.1,1-2.4,1.7-3.8c0.7-1.4,1.5-2.9,2.5-4.6c0.8-1.4,1.7-2.7,2.8-3.9c0.6-0.8,1.6-1.3,2.6-1.4
	c0.4-0.1,0.8,0.1,1.1,0.5c0.2,0.4,0.3,0.9,0.2,1.3c0,2.1-1.1,4.5-3.4,7.3C184.4,214.5,181.9,216.1,179.1,216.4L179.1,216.4
	L179.1,216.4z"/>
<path class="st0" d="M207.8,230.3c-2.3,0.1-4.6-0.6-6.5-1.8c-1.7-1.1-2.7-3.1-2.6-5.1c0-1,0.2-2,0.5-2.9c0.4-1,1-2.3,1.8-4.1
	c0.8-1.7,2-4,3.5-6.7c2-3.7,2.3-4.7,2.3-5.2c0-0.4-0.1-0.8-0.4-1.1c-0.3-0.3-0.7-0.4-1.1-0.4c-0.4,0-0.8,0.1-1.2,0.3
	c1.4-0.8,3-1.2,4.7-1.1c2.1,0,3.5,0.6,4.4,1.7c0.9,1.3,1.4,2.8,1.3,4.4c0,1.1-0.1,2.2-0.4,3.2c-0.3,0.8-0.9,2.2-1.8,4.1
	c-1.1,1.9-2.1,4-3.1,6c-0.9,1.5-1.4,3.2-1.6,5c-0.1,0.8,0.2,1.6,0.6,2.3c0.6,0.6,1.4,0.9,2.3,0.8c2.8,0,5.8-1.6,9-4.9
	c0.6-0.6,1.2-1.3,1.7-1.9C217.5,227.7,213,230.3,207.8,230.3z M223.1,220.1c0.7-1.2,1.1-2.6,1.2-4.1c0-1.5-1.1-3.1-3.4-4.7
	c-2-1.4-2.9-3-2.9-4.9c0-1.2,0.4-2.3,1.3-3.1c0.8-0.8,1.8-1.2,2.9-1.2c1.4-0.1,2.7,0.4,3.6,1.5c0.8,1.2,1.2,2.7,1.2,4.2
	C226.8,212.2,225.5,216.4,223.1,220.1L223.1,220.1z"/>
<path class="st0" d="M222.1,202.7c1.2-0.1,2.4,0.3,3.2,1.3c0.8,1.1,1.1,2.5,1.1,3.9c0,2.7-0.6,5.4-1.7,8c-0.1-1.6-1.3-3.2-3.5-4.8
	c-1.8-1.3-2.7-2.8-2.7-4.5c0-1,0.4-2,1.1-2.7C220.2,203.1,221.2,202.7,222.1,202.7 M208.8,202.7c1.9,0,3.2,0.5,4,1.5
	c0.9,1.2,1.3,2.6,1.2,4.1c0,1-0.1,2-0.4,3c-0.3,0.8-0.9,2.2-1.8,4c-1.1,2-2.2,4-3.2,6.1c-0.9,1.6-1.4,3.4-1.6,5.2
	c-0.1,0.9,0.2,1.8,0.8,2.6c0.2,0.3,0.6,0.5,0.9,0.7c-0.3,0-0.6,0-1,0c-2.2,0.1-4.4-0.5-6.2-1.7c-1.6-1-2.5-2.8-2.4-4.7
	c0-0.9,0.2-1.8,0.5-2.7c0.4-1,1-2.3,1.8-4c0.8-1.7,2-4,3.5-6.7c2-3.8,2.3-4.9,2.3-5.4c0-0.5-0.2-1.1-0.5-1.5c0,0-0.1-0.1-0.1-0.1
	C207.4,202.7,208.1,202.7,208.8,202.7 M222.1,201.7c-1.2,0-2.4,0.5-3.3,1.4c-0.9,0.9-1.4,2.1-1.4,3.4c0,2,1,3.8,3.1,5.3
	c2.1,1.5,3.1,3,3.1,4.3c0,2.4-1.5,5.2-4.6,8.3s-5.9,4.7-8.6,4.7c-0.7,0.1-1.4-0.2-1.9-0.6c-0.4-0.6-0.6-1.3-0.5-1.9
	c0.2-1.7,0.7-3.3,1.5-4.7c1-2.1,2-4.1,3.1-6c0.9-1.9,1.5-3.3,1.8-4.1c0.3-1.1,0.5-2.2,0.5-3.4c0.1-1.7-0.4-3.3-1.4-4.7
	c-1-1.2-2.6-1.9-4.8-1.9c-2.6-0.1-5,0.9-6.8,2.7c-2,2.2-3.7,4.7-5.2,7.3l0.8,0.4c1-1.9,2.1-3.6,3.4-5.2c0.8-0.9,1.6-1.8,2.6-2.5
	c0.5-0.4,1.1-0.7,1.8-0.8c0.3,0,0.5,0.1,0.7,0.2c0.2,0.2,0.3,0.5,0.2,0.8c0,0.6-0.7,2.2-2.2,5c-1.5,2.7-2.6,5-3.5,6.7
	c-0.8,1.7-1.5,3.1-1.8,4.1c-0.4,1-0.6,2-0.6,3.1c-0.1,2.2,1,4.3,2.8,5.5c2,1.3,4.4,2,6.8,1.9c5.3,0,9.9-2.6,13.8-7.7
	c3.8-5.1,5.8-10.2,5.8-15.3c0.1-1.6-0.4-3.2-1.3-4.5C225.1,202.2,223.7,201.5,222.1,201.7L222.1,201.7L222.1,201.7z"/>
<path class="st0" d="M239.9,230.3c-2.8,0-5.6-0.9-7.9-2.5c-2.4-1.6-3.8-4.4-3.6-7.3c0-4.5,2.1-8.8,6.2-12.6c4-3.7,9.3-5.8,14.7-5.7
	c0.1,0,0.2,0,0.2,0c-1.1,0.1-2.2,0.7-2.9,1.6c-1.1,1.2-2,2.6-2.8,4c-1,1.7-1.8,3.2-2.5,4.6c-0.7,1.4-1.3,2.7-1.7,3.8l-0.3,0.8l0.1,0
	c-0.3,1-0.5,2-0.7,3c-0.2,1-0.3,2-0.3,3.1c0,2.3,0.3,3.9,1,4.9c0.7,1,1.9,1.6,3.1,1.6c0.9,0,1.7-0.1,2.6-0.3
	c0.9-0.3,1.8-0.7,2.6-1.2c0,0,0.1-0.1,0.1-0.1c-0.1,0.1-0.1,0.1-0.2,0.2C245.4,229.6,242.7,230.3,239.9,230.3z M241.8,216.6
	c2.5-0.8,4.6-2.4,6.2-4.5c2.3-2.8,3.5-5.4,3.5-7.6c0-0.5-0.1-1.1-0.3-1.6c-0.3-0.5-0.8-0.8-1.3-0.7c2.1,0,4.1,0.6,5.9,1.8
	c1.6,1.1,2.4,2.4,2.4,3.9c0,2.9-1.7,5-5.1,6.5C249.5,215.7,245.7,216.5,241.8,216.6L241.8,216.6z"/>
<path class="st0" d="M247,202.8c-0.2,0.2-0.4,0.4-0.6,0.6c-1.1,1.3-2.1,2.6-2.9,4.1c-1,1.7-1.8,3.3-2.5,4.7
	c-0.7,1.4-1.3,2.7-1.7,3.9l-0.6,1.5l0.2,0c-0.2,0.7-0.3,1.4-0.5,2.3c-0.2,1-0.3,2.1-0.3,3.1c0,2.4,0.4,4.1,1.1,5.2
	c0.5,0.7,1.2,1.3,2,1.5c-0.4,0-0.8,0-1.2,0c-2.7,0-5.4-0.9-7.6-2.4c-2.3-1.5-3.5-4.1-3.4-6.9c0-4.4,2-8.5,6.1-12.2
	C238.3,205.2,242.5,203.3,247,202.8 M251.7,202.9c1.3,0.2,2.6,0.7,3.7,1.5c1.3,0.7,2.1,2,2.2,3.5c0,2.7-1.6,4.7-4.8,6.1
	c-2.6,1.1-5.4,1.8-8.2,2c1.5-0.9,2.7-2.1,3.8-3.4c2.4-3,3.6-5.6,3.6-7.9C252,203.9,251.9,203.4,251.7,202.9 M249.4,201.7
	c-5.6-0.1-11,2-15.1,5.9c-4.3,3.9-6.4,8.2-6.4,12.9c-0.2,3,1.3,6,3.8,7.7c2.4,1.7,5.2,2.6,8.2,2.6c2.9,0.1,5.7-0.7,8.1-2.4
	c2.3-1.6,4.2-3.6,5.8-5.8L253,222c-0.7,1.1-1.6,2.2-2.5,3.1c-0.9,0.9-1.9,1.7-3,2.4c-0.8,0.5-1.6,0.9-2.5,1.1
	c-0.8,0.2-1.6,0.3-2.4,0.3c-1.1,0.1-2.1-0.5-2.7-1.4c-0.7-1.4-1-3-0.9-4.6c0-1,0.1-2,0.3-3c0.1-1,0.4-2,0.6-2.9
	c4.5,0.1,9-0.7,13.2-2.3c3.6-1.5,5.4-3.9,5.4-7c-0.1-1.8-1.1-3.4-2.6-4.3C254.1,202.2,251.7,201.6,249.4,201.7L249.4,201.7
	L249.4,201.7z M240.2,216.4c0.4-1.1,1-2.4,1.7-3.8c0.7-1.4,1.5-2.9,2.5-4.6c0.8-1.4,1.7-2.7,2.8-3.9c0.6-0.8,1.6-1.3,2.6-1.4
	c0.4-0.1,0.8,0.1,1.1,0.5c0.2,0.4,0.3,0.9,0.2,1.3c0,2.1-1.1,4.5-3.4,7.3C245.4,214.5,242.9,216.1,240.2,216.4L240.2,216.4
	L240.2,216.4z"/>
<path class="st0" d="M257.1,229.7l9.8-21.7c0.2-0.5,0.4-0.9,0.6-1.4c0.2-0.5,0.2-1,0.3-1.6c0-0.4-0.1-0.7-0.3-1.1
	c-0.2-0.3-0.6-0.5-1-0.4c-0.5,0-1,0.2-1.4,0.5c1.6-1.2,3.5-1.8,5.5-1.8c1.5-0.1,2.9,0.5,3.8,1.6c0.9,1.3,1.4,2.9,1.3,4.5
	c0,0.8-0.1,1.5-0.3,2.2c-0.1,0.6-0.3,1.1-0.5,1.7l-0.2,0.5l0.9,0.3l-8,16.7L257.1,229.7L257.1,229.7z M286.1,212.8
	c-1.2,0-2.4-0.4-3.4-1.1c-0.9-0.7-1.4-1.8-1.4-3c0-0.6,0.1-1.2,0.4-1.7c0.3-0.6,0.7-1.2,1.1-1.9l0.1-0.1v-0.1c0-0.5-0.4-1-0.9-1
	c-0.1,0-0.1,0-0.2,0c-0.3,0-0.6,0.1-0.9,0.3c1.4-1.4,3.2-2.1,5.2-2c1.4-0.1,2.8,0.4,3.8,1.5c0.8,0.9,1.3,2.1,1.3,3.4
	c0,1.5-0.5,3-1.5,4.1C288.8,212.3,287.5,212.9,286.1,212.8L286.1,212.8z"/>
<path class="st0" d="M286.1,202.7c1.3-0.1,2.5,0.4,3.4,1.3c0.7,0.9,1.2,1.9,1.2,3.1c0,1.4-0.4,2.7-1.3,3.8c-0.8,1-2,1.5-3.2,1.5
	c-1.1,0-2.2-0.3-3.1-1c-0.8-0.6-1.2-1.6-1.2-2.6c0-0.5,0.1-1,0.4-1.4c0.3-0.6,0.7-1.2,1.1-1.9l0.1-0.2v-0.3c0-0.6-0.3-1.1-0.9-1.4
	C283.7,202.9,284.9,202.6,286.1,202.7 M270.5,202.7c1.3-0.1,2.6,0.4,3.4,1.4c0.8,1.2,1.3,2.7,1.2,4.2c0,0.7-0.1,1.4-0.3,2.1
	c-0.1,0.6-0.3,1.1-0.5,1.6l-0.4,1l0.9,0.3l-7.6,15.9h-9.3l9.5-20.9c0.2-0.5,0.4-1,0.6-1.5c0.2-0.6,0.3-1.1,0.3-1.7
	c0-0.5-0.1-1-0.4-1.4c-0.1-0.2-0.3-0.3-0.4-0.4C268.4,202.8,269.4,202.7,270.5,202.7 M286.1,201.7c-2.3-0.1-4.5,0.8-5.9,2.6
	c-1.9,2.5-3.5,5.3-4.8,8.2l-0.2-0.1c0.2-0.6,0.4-1.2,0.5-1.8c0.2-0.8,0.3-1.6,0.3-2.4c0.1-1.7-0.4-3.4-1.4-4.8
	c-1-1.2-2.6-1.9-4.2-1.8c-2.2,0-4.3,0.7-6.1,2.1c-1.8,1.4-3.9,4.5-6.4,9.2l0.8,0.3c0.5-1,1.2-2.2,2.1-3.5c0.9-1.4,1.6-2.4,2.1-3.1
	c0.5-0.7,1.1-1.3,1.8-1.9c0.4-0.4,1-0.7,1.6-0.8c0.2,0,0.4,0.1,0.6,0.2c0.1,0.2,0.2,0.5,0.2,0.8c0,0.5-0.1,1-0.2,1.4
	c-0.1,0.5-0.3,0.9-0.5,1.4l-10.1,22.4h11.5l8.5-17.7c0.9-2,2-3.9,3.1-5.8c1-1.5,1.8-2.3,2.4-2.3c0.3-0.1,0.5,0.1,0.6,0.4
	c0,0,0,0.1,0,0.1c-0.4,0.7-0.8,1.3-1.1,1.9c-0.3,0.6-0.5,1.3-0.5,1.9c-0.1,1.3,0.5,2.6,1.6,3.4c1.1,0.8,2.4,1.2,3.7,1.2
	c1.5,0,3-0.6,4-1.8c1.1-1.2,1.6-2.8,1.6-4.4c0-1.4-0.5-2.7-1.4-3.7C289.2,202.2,287.7,201.6,286.1,201.7L286.1,201.7L286.1,201.7z"
	/>
<path class="st0" d="M333.3,230.3c-1.6,0.1-3.2-0.5-4.2-1.8c-1-1.2-1.5-2.7-1.5-4.3c0-1.1,0.1-2.2,0.4-3.2c0.4-1,0.8-2,1.2-3
	c0.5-1.1,1.6-3.3,3.3-6.6c2.3-4.6,2.6-6,2.6-6.7c0-0.5-0.1-0.9-0.4-1.3c-0.3-0.3-0.8-0.5-1.2-0.5c-0.6,0-1.2,0.3-1.7,0.7
	c1.6-1.1,3.4-1.6,5.3-1.5c1.6-0.1,3.2,0.5,4.4,1.6c1.1,1,1.7,2.7,1.7,4.9c0,1.1-0.2,2.3-0.6,3.3c-0.4,1-1.1,2.4-1.9,4.3
	c-0.9,1.8-2,4-3.4,6.7c-1.9,3.6-2.1,4.6-2.1,5.1c0,0.4,0.1,0.8,0.3,1.1c0.3,0.3,0.6,0.5,1,0.5c0.2,0,0.4,0,0.6-0.1
	C336.1,230.1,334.7,230.3,333.3,230.3z M307.4,229.7c0.4-0.9,1.2-2.7,2.4-5.3c1.6-3.5,3.2-7,4.7-10.5c1.5-3.4,2.4-5.4,2.6-5.8
	c0.2-0.4,0.4-1,0.6-1.6c0.2-0.6,0.3-1.2,0.4-1.8c0-0.5-0.1-0.9-0.4-1.3c-0.3-0.3-0.7-0.5-1.2-0.5c-0.1,0-0.2,0-0.3,0
	c1-0.5,2.2-0.8,3.3-0.8c1.7-0.1,3.4,0.5,4.7,1.6c1.2,1,1.9,2.5,1.8,4.1c0,0.8-0.1,1.5-0.3,2.2c-0.3,0.8-0.5,1.4-0.6,1.7l0.8,0.3
	c-0.9,1.8-2,4.2-3.4,7.1c-1.5,3.2-2.6,5.6-3.3,7.1c-0.6,1.4-1.1,2.5-1.5,3.3L307.4,229.7L307.4,229.7z M289.7,229.7l9.9-21.6
	l0.6-1.4c0.3-0.7,0.5-1.4,0.5-2.1c0-0.4-0.1-0.8-0.4-1.2c-0.3-0.3-0.7-0.5-1.1-0.4c-0.3,0-0.6,0.1-0.8,0.2c1.1-0.6,2.4-0.9,3.7-0.9
	c1.6,0,3.2,0.6,4.3,1.8c1.2,1.2,1.8,2.7,1.7,4.4c0,0.7,0,1.4-0.1,2.1c-0.1,0.6-0.2,1.1-0.3,1.6l-0.1,0.5l0.8,0.3l-8.2,16.9
	L289.7,229.7L289.7,229.7z M294,207c0.7-1,1.5-1.9,2.5-2.6c0.1-0.1,0.2-0.2,0.3-0.2c-0.7,0.5-1.3,1.1-1.8,1.7
	C294.6,206.2,294.3,206.6,294,207L294,207z"/>
<path class="st0" d="M337.3,202.7c1.5-0.1,3,0.5,4.1,1.4c1,0.9,1.6,2.5,1.6,4.6c0,1.1-0.2,2.2-0.5,3.2c-0.4,1-1,2.4-1.9,4.2
	c-0.9,1.8-2,4-3.4,6.7c-1.9,3.7-2.2,4.7-2.2,5.3c0,0.5,0.1,1,0.5,1.4c0,0,0.1,0.1,0.1,0.1c-0.7,0.1-1.4,0.2-2.1,0.2
	c-1.5,0.1-2.9-0.5-3.8-1.6c-0.9-1.1-1.4-2.5-1.3-4c0-1,0.1-2.1,0.4-3c0.3-1,0.8-2,1.2-3c0.5-1.1,1.6-3.3,3.3-6.6
	c2.4-4.7,2.6-6.2,2.6-6.9c0-0.6-0.2-1.2-0.5-1.6c-0.1-0.1-0.1-0.1-0.2-0.2C335.8,202.7,336.5,202.7,337.3,202.7 M319.6,202.7
	c1.6-0.1,3.1,0.4,4.4,1.4c1.1,0.9,1.7,2.3,1.6,3.7c0,0.7-0.1,1.4-0.2,2c-0.3,0.8-0.5,1.4-0.6,1.8l0.8,0.3c-0.9,1.8-2,4.2-3.3,7.1
	c-1.5,3.2-2.6,5.6-3.3,7.1c-0.6,1.2-1,2.2-1.4,3h-9.3c0.5-1,1.1-2.5,2-4.6c1.6-3.5,3.2-7,4.7-10.5c1.5-3.4,2.4-5.4,2.6-5.8
	c0.2-0.5,0.4-1,0.7-1.7c0.2-0.6,0.4-1.3,0.4-2c0-0.6-0.1-1.1-0.5-1.6c-0.1-0.1-0.1-0.2-0.2-0.2C318.4,202.7,319,202.7,319.6,202.7
	 M302,202.7c1.5,0,2.9,0.6,3.9,1.6c1.1,1.1,1.6,2.5,1.6,4c0,0.7,0,1.4-0.1,2c-0.1,0.5-0.2,1.1-0.3,1.6l-0.3,0.9l0.7,0.2l-7.8,16.1
	h-9.3l9.6-21c0.1-0.2,0.3-0.7,0.6-1.4c0.3-0.7,0.5-1.5,0.5-2.3c0-0.5-0.1-1.1-0.5-1.5c-0.1-0.1-0.1-0.1-0.2-0.2
	C301,202.7,301.5,202.7,302,202.7 M337.3,201.7c-2.9,0-5.1,0.8-6.5,2.4c-2,2.4-3.7,5.1-5.1,7.9c0.1-0.4,0.3-0.9,0.6-1.8
	c0.2-0.8,0.3-1.6,0.3-2.4c0.1-1.7-0.7-3.4-2-4.5c-1.4-1.2-3.2-1.8-5-1.7c-2,0-4,0.7-5.5,2.1c-1.7,1.4-3.6,4.2-5.8,8.6l-0.2-0.1
	c0.2-0.6,0.3-1.1,0.4-1.7c0.1-0.7,0.1-1.5,0.1-2.2c0-1.8-0.6-3.5-1.9-4.7c-1.2-1.3-2.9-2-4.6-1.9c-2.2,0-4.3,0.9-5.9,2.3
	c-1.9,1.5-3.9,4.4-6,8.5l0.7,0.4c0.8-1.5,1.6-2.8,2.3-3.8c0.7-1,1.4-1.9,2.1-2.8c0.6-0.8,1.4-1.4,2.2-2c0.5-0.4,1.1-0.7,1.7-0.8
	c0.3,0,0.5,0.1,0.7,0.3c0.2,0.2,0.3,0.6,0.2,0.9c0,0.7-0.2,1.3-0.4,1.9c-0.3,0.7-0.5,1.2-0.6,1.4l-10.2,22.4h11.5l8.7-17.7
	c0.5-1.1,1-2.1,1.6-3.1c0.6-1,1.3-2,2-3c0.6-0.8,1.3-1.5,2-2.2c0.5-0.5,1.1-0.8,1.8-0.8c0.3,0,0.6,0.1,0.8,0.3
	c0.2,0.3,0.3,0.6,0.3,1c0,0.6-0.1,1.1-0.3,1.6c-0.2,0.6-0.4,1.2-0.6,1.6c-0.2,0.4-1.1,2.4-2.6,5.8c-1.6,3.4-3.1,6.9-4.7,10.5
	c-1.6,3.5-2.5,5.5-2.7,6h11.5c0.4-0.9,0.9-2.1,1.6-3.6c0.7-1.5,1.8-3.9,3.3-7.1c1.5-3.2,2.7-5.8,3.6-7.6c0.8-1.7,1.7-3.3,2.8-4.8
	c0.7-1,1.5-2,2.5-2.8c0.5-0.5,1.1-0.7,1.7-0.8c0.3,0,0.6,0.1,0.9,0.3c0.2,0.3,0.3,0.6,0.3,0.9c0,1-0.8,3.1-2.5,6.4
	c-1.7,3.3-2.8,5.5-3.3,6.7c-0.5,1-0.9,2-1.3,3.1c-0.3,1.1-0.5,2.2-0.5,3.4c0,1.7,0.5,3.3,1.6,4.6c1.1,1.3,2.9,2.1,4.6,1.9
	c2.6,0.2,5.1-0.8,7-2.5c2.1-2.2,4-4.7,5.6-7.3l-0.7-0.4c-0.6,1-1.3,2-1.9,3c-0.9,1.2-1.8,2.4-2.9,3.6c-1.3,1.4-2.5,2.1-3.6,2.1
	c-0.3,0-0.5-0.1-0.6-0.3c-0.2-0.2-0.3-0.5-0.2-0.8c0-0.6,0.7-2.2,2.1-4.8c1.4-2.6,2.5-4.9,3.4-6.7c0.9-1.8,1.5-3.3,1.9-4.3
	c0.4-1.1,0.6-2.3,0.6-3.5c0-2.4-0.6-4.2-1.9-5.3C340.7,202.2,339,201.6,337.3,201.7L337.3,201.7L337.3,201.7z"/>
<path class="st0" d="M355,230.3c-1.7,0.1-3.3-0.5-4.5-1.7c-1-1.2-1.6-2.8-1.5-4.3c0-1.1,0.2-2.2,0.5-3.2c0.4-1,1.1-2.7,2.3-5
	c1.2-2.4,2.3-4.5,3.2-6.3c0.9-1.8,1.5-3.1,1.8-3.8c0.3-0.5,0.4-1.1,0.5-1.7c0.1-0.7-0.4-1.3-1.1-1.3c-0.1,0-0.1,0-0.2,0
	c-0.1,0-0.2,0-0.3,0c1.1-0.5,2.3-0.8,3.5-0.8c1.5,0,3,0.6,4.2,1.6c1.3,1.3,1.9,3,1.8,4.8c0,1.1-0.3,2.2-0.7,3.3
	c-0.5,1.3-1.1,2.8-1.9,4.5s-2,3.8-3.4,6.4c-2,3.6-2.2,4.7-2.2,5.2c-0.1,0.8,0.5,1.5,1.3,1.6c0.1,0,0.2,0,0.3,0
	c0.7-0.1,1.4-0.4,2-0.8c0.2-0.1,0.4-0.3,0.5-0.4C359.6,229.6,357.6,230.3,355,230.3z"/>
<path class="st0" d="M359.2,202.7c1.4,0,2.8,0.5,3.8,1.5c1.2,1.2,1.7,2.8,1.6,4.5c0,1.1-0.3,2.1-0.6,3.1c-0.5,1.3-1.1,2.7-1.9,4.4
	c-0.8,1.7-1.9,3.8-3.4,6.4c-2,3.6-2.3,4.8-2.3,5.5c0,0.6,0.2,1.1,0.6,1.5c0,0,0.1,0.1,0.1,0.1c-0.7,0.1-1.4,0.2-2,0.2
	c-1.5,0.1-3-0.4-4.1-1.5c-1-1.1-1.5-2.5-1.4-4c0-1,0.2-2.1,0.5-3c0.4-1,1.1-2.6,2.3-4.9c1.2-2.3,2.2-4.5,3.2-6.3
	c0.9-1.8,1.5-3.1,1.8-3.8c0.3-0.6,0.4-1.2,0.5-1.9c0-0.5-0.2-1-0.5-1.3l0,0C357.9,202.8,358.5,202.7,359.2,202.7 M359.2,201.7
	c-1.9,0-3.8,0.6-5.3,1.8c-1.6,1.2-3.5,3.8-5.7,7.7l0.8,0.4c0.9-1.7,1.9-3.3,3.1-4.8c0.8-0.9,1.6-1.8,2.5-2.6
	c0.4-0.4,0.9-0.6,1.4-0.7c0.4-0.1,0.8,0.2,0.8,0.6c0,0.1,0,0.1,0,0.2c-0.1,0.5-0.2,1-0.4,1.5c-0.3,0.7-0.9,1.9-1.8,3.8
	c-0.9,1.8-2,3.9-3.1,6.3c-1.2,2.4-2,4-2.4,5c-0.4,1.1-0.6,2.2-0.6,3.4c-0.1,1.7,0.5,3.4,1.6,4.7c1.3,1.3,3,2,4.8,1.9
	c2.9,0,5.1-0.8,6.5-2.3c2-2.3,3.8-4.8,5.3-7.5l-0.8-0.4c-0.5,0.9-1.1,1.8-1.8,2.9c-0.7,1.1-1.4,2-2.1,2.9c-0.6,0.8-1.3,1.4-2.1,2
	c-0.5,0.4-1.1,0.7-1.7,0.7c-0.5,0.1-1-0.3-1.1-0.8c0-0.1,0-0.2,0-0.3c0-0.7,0.7-2.4,2.2-5c1.5-2.6,2.6-4.7,3.4-6.4s1.5-3.2,1.9-4.5
	c0.4-1.1,0.7-2.3,0.7-3.5c0.1-1.9-0.6-3.8-1.9-5.2C362.5,202.3,360.8,201.7,359.2,201.7L359.2,201.7L359.2,201.7z"/>
<path class="st0" d="M365.7,197.1c-1.4,0-2.7-0.5-3.6-1.4c-1-0.9-1.5-2.2-1.5-3.6c-0.1-1.4,0.5-2.7,1.5-3.6c1-0.9,2.3-1.4,3.6-1.4
	c1.4,0,2.7,0.5,3.7,1.4c2,1.9,2,5.1,0.1,7c0,0-0.1,0.1-0.1,0.1C368.4,196.6,367.1,197.1,365.7,197.1z"/>
<path class="st0" d="M365.7,187.6c1.2,0,2.4,0.4,3.3,1.3c1.8,1.7,1.8,4.6,0,6.3c0,0,0,0-0.1,0.1c-0.9,0.8-2.1,1.3-3.3,1.3
	c-1.2,0-2.4-0.4-3.3-1.3c-0.9-0.8-1.4-2-1.3-3.2c0-1.2,0.4-2.4,1.3-3.2C363.3,188,364.5,187.6,365.7,187.6 M365.7,186.6
	c-1.5,0-2.9,0.5-3.9,1.5c-1.1,1-1.7,2.5-1.6,3.9c0,1.5,0.5,2.9,1.6,3.9c1.1,1,2.5,1.6,4,1.6c1.5,0,2.9-0.5,4-1.6
	c2.2-2.1,2.2-5.6,0.1-7.7c0,0-0.1-0.1-0.1-0.1C368.6,187.1,367.2,186.6,365.7,186.6L365.7,186.6L365.7,186.6z"/>
<path class="st0" d="M394.6,230.3c-1.6,0.1-3.2-0.5-4.3-1.7c-1-1.2-1.5-2.8-1.5-4.3c0-1,0.1-2,0.4-2.9c0.3-0.8,1.1-2.6,2.5-5.4
	c1.4-2.8,2.5-5.1,3.4-6.9c0.8-1.4,1.3-2.9,1.4-4.5c0-0.4-0.1-0.8-0.4-1.2c-0.3-0.3-0.7-0.5-1.1-0.4c-0.8,0.1-1.5,0.4-2.1,1
	c-0.3,0.3-0.6,0.5-0.9,0.8c1.6-1.8,4-2.8,6.4-2.6c1.6,0,3.2,0.5,4.4,1.6c1.3,1.3,1.9,3,1.8,4.8c0,1.1-0.2,2.2-0.6,3.2
	c-0.4,1.2-1,2.5-1.6,3.8c-0.6,1.4-1.7,3.5-3.3,6.7c-2.2,4.2-2.5,5.3-2.5,5.7c-0.1,0.7,0.5,1.4,1.2,1.4c0.1,0,0.2,0,0.2,0
	c0.7-0.1,1.3-0.4,1.9-0.8c0.5-0.4,1-0.8,1.5-1.3c-0.1,0.1-0.1,0.1-0.2,0.2C399.5,229.4,397.1,230.4,394.6,230.3z M368.3,229.7
	L378,208c0.2-0.6,0.5-1.3,0.8-2c0.3-0.5,0.5-1.1,0.5-1.8c0-0.3-0.1-0.7-0.3-0.9c-0.2-0.2-0.6-0.3-0.9-0.3c-0.8,0.1-1.5,0.3-2.2,0.8
	c-0.2,0.1-0.3,0.2-0.5,0.4c1.5-1.4,3.6-2.1,5.6-2.1c1.5-0.1,3,0.5,4.1,1.6c1.1,1.3,1.6,2.9,1.5,4.5c0,0.8-0.1,1.6-0.3,2.5
	c-0.2,0.8-0.3,1.4-0.4,1.8l-1.1,4.3l-6.2,12.8L368.3,229.7L368.3,229.7z"/>
<path class="st0" d="M398.4,202.7c1.5,0,3,0.5,4.1,1.5c1.2,1.2,1.8,2.8,1.6,4.5c0,1-0.2,2.1-0.6,3c-0.4,1.2-0.9,2.4-1.6,3.8
	c-0.6,1.4-1.7,3.5-3.3,6.7c-2.5,4.9-2.5,5.6-2.5,5.9c0,0.5,0.2,1,0.5,1.4c0,0,0.1,0.1,0.1,0.1c-0.7,0.1-1.5,0.2-2.2,0.2
	c-1.5,0.1-2.9-0.4-3.9-1.5c-0.9-1.1-1.4-2.5-1.4-4c0-0.9,0.1-1.8,0.4-2.7c0.3-0.7,1.1-2.5,2.5-5.3c1.4-2.8,2.5-5.1,3.4-6.9
	c0.8-1.4,1.3-3,1.5-4.7c0-0.5-0.1-1.1-0.5-1.5c-0.1-0.1-0.1-0.1-0.2-0.2C397,202.7,397.7,202.7,398.4,202.7 M381.1,202.7
	c1.4-0.1,2.7,0.4,3.7,1.4c1,1.2,1.5,2.7,1.4,4.2c0,0.8-0.1,1.6-0.2,2.3c-0.2,0.8-0.3,1.4-0.4,1.8l-1.1,4.2l-6,12.5h-9.3l9.4-21
	c0.2-0.6,0.5-1.2,0.8-1.9c0.3-0.6,0.5-1.3,0.6-2c0-0.5-0.1-0.9-0.5-1.3c0,0-0.1-0.1-0.2-0.1C379.8,202.7,380.5,202.7,381.1,202.7
	 M398.4,201.7c-2.6-0.1-5.1,0.9-6.9,2.9c-2,2.5-3.7,5.3-5.1,8.2c0.1-0.5,0.3-1.1,0.4-1.9c0.2-0.8,0.3-1.7,0.3-2.6
	c0.1-1.8-0.5-3.5-1.6-4.9c-1.2-1.2-2.8-1.8-4.4-1.7c-2.6,0-5,1-6.7,2.9c-2.1,2.4-4,5.1-5.6,7.9l0.8,0.4c0.8-1.3,1.6-2.5,2.4-3.7
	c0.7-1,1.4-2,2.2-3c0.6-0.7,1.3-1.4,2.1-1.9c0.5-0.4,1.2-0.7,1.9-0.7c0.2,0,0.4,0,0.5,0.2c0.1,0.2,0.2,0.4,0.2,0.6
	c-0.1,0.5-0.2,1.1-0.5,1.6c-0.3,0.7-0.6,1.4-0.8,2l-10,22.4H379l8.5-17.7c0.8-1.9,1.9-3.6,3.1-5.3c0.7-1,1.6-2,2.6-2.8
	c0.5-0.5,1.1-0.8,1.8-0.9c0.3,0,0.6,0.1,0.8,0.3c0.2,0.2,0.3,0.6,0.2,0.9c-0.1,1.5-0.6,2.9-1.4,4.2c-0.9,1.8-2.1,4.1-3.4,6.9
	c-1.4,2.8-2.2,4.6-2.5,5.4c-0.3,1-0.4,2-0.4,3.1c-0.1,1.7,0.5,3.3,1.6,4.6c1.2,1.3,2.9,2,4.7,1.9c2.7,0.2,5.2-0.9,7-2.9
	c2-2.4,3.7-5,5.2-7.7l-0.8-0.4c-1,2.1-2.2,4-3.7,5.8c-0.8,1-1.7,1.9-2.7,2.6c-0.5,0.4-1,0.6-1.6,0.7c-0.5,0.1-0.9-0.3-0.9-0.7
	c0-0.1,0-0.2,0-0.2c0-0.5,0.8-2.4,2.4-5.5c1.6-3.1,2.7-5.3,3.4-6.7c0.6-1.4,1.2-2.7,1.6-3.9c0.4-1.1,0.6-2.2,0.6-3.4
	c0.1-1.9-0.6-3.9-2-5.2C401.8,202.2,400.1,201.6,398.4,201.7L398.4,201.7L398.4,201.7z"/>
<path class="st0" d="M432.8,230.3c-1.5,0.1-3-0.5-4.2-1.5c-1.1-1.1-1.7-2.6-1.6-4.1l0.2-2.6c0,0-1.1,1.6-1.1,1.7
	c0.4-0.7,0.8-1.4,1.2-2.3c0.7-1.6,1.8-4.2,3.2-7.8c0.7-1.8,1.3-3.6,1.8-5.5l-0.2,2.3l1.2-3.2c0.2-0.6,1-2.5,2.3-5.8
	c1.3-3.2,2.2-5.5,2.7-6.8c0.5-1.3,0.9-2.3,1.1-3c0.2-0.6,0.3-1.1,0.4-1.7c0.1-0.9-0.5-1.6-1.3-1.9c-0.6-0.1-1.2-0.2-1.8-0.2h14.7
	l-14.9,36.7c-0.3,0.8-0.5,1.4-0.7,1.8c-0.1,0.4-0.2,0.9-0.2,1.3c-0.1,0.7,0.4,1.3,1.1,1.3c0.1,0,0.1,0,0.2,0c0.4,0,0.8-0.1,1.2-0.2
	C436.5,229.7,434.7,230.3,432.8,230.3z M416.6,230.3c-2.1,0.1-4.1-0.8-5.5-2.3c-1.5-1.8-2.2-4.1-2.1-6.4c0-4.4,1.9-8.7,5.5-13
	c3.6-4.2,7.8-6.4,12.4-6.4c1.5-0.1,2.9,0.3,4.2,1c0.4,0.2,0.7,0.6,0.9,1c-0.4-0.4-1-0.6-1.5-0.5c-1.1,0.1-2.2,0.8-2.8,1.7
	c-1.4,1.9-2.5,3.9-3.5,6c-1.5,2.9-3,6.2-4.6,9.8c-1.6,3.7-2.4,6.1-2.4,7.2c0,0.4,0.1,0.8,0.4,1.2c0.3,0.3,0.7,0.5,1.1,0.5
	c0.4,0,0.7,0,1.1-0.1C418.7,230.1,417.6,230.3,416.6,230.3z"/>
<path class="st0" d="M450.6,188.3l-14.6,36c-0.3,0.8-0.5,1.4-0.7,1.9c-0.2,0.5-0.3,1-0.3,1.5c0,0.5,0.2,1,0.5,1.3
	c0.1,0.1,0.3,0.2,0.4,0.3c-1,0.4-2.1,0.6-3.2,0.6c-1.4,0.1-2.8-0.5-3.8-1.4c-1-1-1.5-2.3-1.5-3.7l0.1-0.7l0.2-2.4
	c0.7-1.6,1.8-4.2,3.2-7.8c0.2-0.5,0.4-1,0.6-1.5l-0.1,1.5l2.4-6.4c0.2-0.6,1-2.6,2.3-5.8c1.3-3.2,2.2-5.5,2.7-6.8
	c0.5-1.4,0.9-2.4,1.1-3c0.2-0.6,0.4-1.2,0.4-1.9c0-0.6-0.2-1.1-0.5-1.6L450.6,188.3 M426.8,202.7c1.1,0,2.1,0.1,3.1,0.5
	c-1.1,0.3-2,0.9-2.6,1.8c-1.4,1.9-2.6,3.9-3.6,6c-1.5,2.9-3,6.2-4.6,9.8c-2.2,5.1-2.5,6.6-2.5,7.4c0,0.5,0.2,1.1,0.5,1.5l0,0
	c-0.2,0-0.4,0-0.7,0c-1.9,0.1-3.8-0.7-5.1-2.1c-1.4-1.7-2.1-3.9-2-6.1c0-4.2,1.8-8.5,5.4-12.7C418.4,204.8,422.4,202.7,426.8,202.7
	 M452.1,187.3h-18v0.9c1.4-0.1,2.8,0,4.2,0.3c0.6,0.2,1,0.8,0.9,1.4c0,0.5-0.2,1.1-0.4,1.6c-0.2,0.7-0.6,1.7-1.1,3
	c-0.5,1.3-1.4,3.6-2.7,6.8c-1.3,3.2-2,5.1-2.3,5.8l0.1-0.9c0.1-1.3-0.5-2.6-1.6-3.4c-1.4-0.8-2.9-1.1-4.5-1.1c-4.7,0-9,2.2-12.7,6.5
	c-3.7,4.4-5.6,8.8-5.6,13.3c-0.1,2.5,0.7,4.9,2.2,6.8c1.5,1.7,3.7,2.6,5.9,2.5c2,0.1,3.9-0.5,5.5-1.7c1.8-1.5,3.3-3.2,4.5-5.2
	l-0.1,0.8c-0.1,1.7,0.6,3.3,1.8,4.5c1.2,1.1,2.8,1.7,4.5,1.7c2,0,3.9-0.5,5.6-1.6c1.5-1,2.9-2.3,3.9-3.8c1.3-1.8,2.4-3.7,3.4-5.7
	l-0.8-0.4c-0.8,1.3-1.4,2.4-1.9,3.2c-0.5,0.8-1.3,2-2.5,3.6c-1.2,1.6-2.4,2.4-3.6,2.4c-0.4,0.1-0.8-0.2-0.8-0.6c0-0.1,0-0.1,0-0.2
	c0-0.4,0.1-0.8,0.2-1.1c0.1-0.4,0.4-1,0.7-1.8L452.1,187.3L452.1,187.3L452.1,187.3z M418.7,229.3c-0.3,0-0.5-0.1-0.7-0.3
	c-0.2-0.2-0.3-0.5-0.3-0.8c0-1,0.8-3.3,2.4-7c1.6-3.6,3.1-6.9,4.6-9.8c1-2.1,2.1-4,3.4-5.9c0.5-0.8,1.4-1.4,2.4-1.5
	c0.5,0,0.9,0.1,1.2,0.5c0.3,0.4,0.4,0.9,0.4,1.4c0,1.3-0.7,3.7-2.1,7.4c-1.4,3.6-2.5,6.2-3.2,7.7c-0.6,1.2-1.2,2.4-2,3.6
	c-0.8,1-1.6,2-2.5,3C421.5,228.7,420.1,229.3,418.7,229.3L418.7,229.3L418.7,229.3z"/>
<path class="st0" d="M454.8,230.1c-2,0-3.9-0.7-5.3-2.1c-1.5-1.4-2.3-3.3-2.2-5.3c0-2,0.8-3.8,2.2-5.2c1.4-1.4,3.4-2.2,5.3-2.1
	c2,0,3.9,0.7,5.4,2.1c1.5,1.3,2.3,3.2,2.2,5.2c0,2-0.8,3.9-2.2,5.3C458.8,229.4,456.8,230.2,454.8,230.1z"/>
<path class="st0" d="M454.8,215.9c1.9,0,3.7,0.7,5.1,2c1.4,1.2,2.1,3,2.1,4.8c0,1.8-0.7,3.6-2.1,4.9c-1.4,1.3-3.2,2-5.1,2
	c-1.9,0-3.7-0.7-5-2c-1.4-1.3-2.1-3-2.1-4.9c0-1.8,0.7-3.6,2.1-4.8C451.1,216.6,453,215.9,454.8,215.9 M454.8,214.9
	c-2.1,0-4.2,0.8-5.7,2.3c-1.5,1.4-2.4,3.4-2.4,5.5c0,2.1,0.8,4.2,2.4,5.6c1.5,1.5,3.6,2.3,5.7,2.3c2.2,0,4.2-0.8,5.8-2.3
	c1.5-1.5,2.4-3.5,2.4-5.6c0-2.1-0.8-4.2-2.4-5.6C459,215.7,457,214.9,454.8,214.9L454.8,214.9L454.8,214.9z"/>
<polygon class="st1" points="218.2,260.2 214.2,248.7 209.7,248.7 205.8,260.2 200.6,248.7 195.5,248.7 203.5,267.5 208.5,267.5 
	212,257.1 215.5,267.5 220.4,267.5 228.5,248.7 223.3,248.7 "/>
<polygon class="st1" points="247.6,256.6 239.4,256.6 239.4,248.7 234.9,248.7 234.9,267.5 239.4,267.5 239.4,260.6 247.6,260.6 
	247.6,267.5 252.1,267.5 252.1,248.7 247.6,248.7 "/>
<rect x="261" y="248.7" class="st1" width="4.5" height="18.8"/>
<path class="st1" d="M284,256c-1-0.2-4-0.2-4-1.7c0-1.3,1.4-2.3,3-2.3c2.5,0,3.2,1,3.2,1.4h4.6c0-2.5-2.6-5.2-7.9-5.2
	c-4.3,0-7.9,2.7-7.9,6c0,3.6,3.7,4.5,5.9,5c1.2,0.3,5.6,0.4,5.6,2.8c0,1.2-1.6,2.2-3.4,2.2c-3.3,0-3.5-2.5-3.5-2.6h-4.9
	c0,2.5,2.7,6.3,8.4,6.3c4.5,0,8.3-2.7,8.3-5.9C291.5,257.1,286.6,256.5,284,256z"/>
<polygon class="st1" points="320.1,248.7 314.3,248.7 306.6,256.3 306.6,248.7 302.1,248.7 302.1,267.5 306.6,267.5 306.6,262.2 
	308.5,260.3 314.2,267.5 320.5,267.5 311.6,256.9 "/>
<polygon class="st1" points="328.2,267.5 342.3,267.5 342.3,263.5 332.7,263.5 332.7,260.1 340.3,260.1 340.3,256.1 332.7,256.1 
	332.7,252.8 342.3,252.8 342.3,248.7 328.2,248.7 "/>
<polygon class="st1" points="364.8,248.7 359.8,255.6 354.7,248.7 349.1,248.7 357,259.6 357,267.5 362.6,267.5 362.6,259.6 
	370.4,248.7 "/>
<path class="st2" d="M290.8,157c-43.4,0-78.5-35.1-78.5-78.5c0-43.4,35.1-78.5,78.5-78.5c43.4,0,78.5,35.1,78.5,78.5c0,0,0,0,0,0
	C369.3,121.8,334.2,156.9,290.8,157z M290.8,8.5c-38.7,0-70,31.3-70,70s31.3,70,70,70s70-31.3,70-70c0,0,0,0,0,0
	C360.8,39.9,329.5,8.5,290.8,8.5z"/>
<path class="st0" d="M262.3,86c2.2-0.7,4.3-1.6,6.4-2.7c1.2-0.7,1.9-1.3,1.9-1.9c0-0.2-0.1-0.4-0.2-0.6c-0.2-0.2-0.4-0.4-0.6-0.5
	c-0.7-0.5-1.5-0.9-2.3-1.2c-1-0.4-2-0.9-3-1.5c-1.5-0.8-2.9-1.8-4.1-2.9c-1.3-1.2-2-2.8-2.1-4.5v-0.8c-0.1-0.1-0.1-0.2-0.1-0.3v-0.4
	c0-6.9,2-12.1,5.9-15.6c3.5-3.4,8-5.4,12.9-5.8c0.2-0.1,0.4-0.1,0.7-0.1h0.7c3.4,0,6.7,0.9,9.6,2.7c3,1.8,5.2,4.6,6.3,7.9
	c0.4-2.1,1.4-4.1,2.8-5.7c1.2-1.2,2.6-2.1,4.1-2.8c1-0.4,2.1-0.6,3.1-0.8c0.9-0.1,1.7-0.2,2.6-0.2c4.7,0.3,7.7,1.6,9.1,3.7
	c1.3,2.1,2.1,4.5,2.2,7c0.1,0.4,0.1,0.8,0.1,1.3v1.3c0,1.9,0.3,3.8,0.8,5.7c0.5,1.6,1.9,2.4,4.4,2.4h0.7v1.3h-1.8
	c-2.2-0.1-4.4,0.6-6.2,2c-1.8,1.4-2.7,3.9-2.7,7.3c-0.1,1-0.1,2.1-0.2,3.2c-0.1,1.1-0.1,2.3-0.1,3.4v0.3c0,3,0.3,6.1,0.9,9
	c0.6,2.8,1.8,4.1,3.7,4.1c0.8,0,1.6-0.2,2.2-0.6c1-0.6,2-1.3,2.8-2.1l1.3,1.3L308.8,110c-1.4-0.8-2.6-1.6-3.6-2.4
	c-0.9-0.7-1.8-1.4-2.6-2.3c-1.3-1.4-2.3-3.1-2.7-4.9c-0.4-2.2-0.7-4.3-0.8-6.5c0-0.4,0-0.9,0-1.5c0-0.5-0.1-1.1-0.1-1.6
	c-0.1-0.7-0.1-1.3-0.1-2c0-0.7,0-1.3,0-1.9c0-6.1,1.4-10.1,4.1-11.8c3.5-2,7.3-3.4,11.3-4c0.2-0.1,0.5-0.1,0.7-0.1
	c0.2,0,0.5-0.1,0.7-0.1c-4.3-0.2-7.2-1.2-8.7-3c-1.4-1.7-2.4-3.8-2.7-6c-0.1-0.5-0.2-1-0.3-1.6c-0.1-0.5-0.1-1.1-0.2-1.6
	c-0.1-1.4-0.3-2.8-0.7-4.2c-0.4-1.2-1.5-1.9-2.7-1.7c-0.2,0-0.4,0-0.6,0c-0.2,0-0.4,0.1-0.7,0.1c-1.3,0.5-2.3,1.7-2.6,3
	c-0.5,1.8-0.7,3.6-0.7,5.5c0,1.1,0,2.2,0.1,3.4c0.1,1.2,0.2,2.5,0.2,3.8c0.1,0.6,0.1,1.3,0.1,1.9c0,0.6,0.1,1.3,0.1,1.9
	c0,0.7,0,1.3,0,2c0,0.6,0,1.3,0,1.9c0,1.2,0,2.5-0.1,3.7c-0.1,1.2-0.3,2.4-0.5,3.5c-0.7,2-1.8,3.8-3.1,5.5c-1.6,2.2-3.4,4.4-5.4,6.8
	c-0.5,0.6-1,1.2-1.6,1.9l-1.7,1.9c-2.2,2.3-4.3,4.4-6.3,6.3c-2,1.9-3.5,3.3-4.5,4.2l-10-9.3l-4,4l-1.3-1.3l13.2-13.2l10.6,8.6
	c0,0.1,0-0.2,0-0.7s0.1-1.3,0.1-2.2c0-1,0-2.1,0-3.4s0-2.7,0-4.2c0-2.1,0-4.3-0.1-6.7c-0.1-2.4-0.2-4.9-0.4-7.3
	c-0.1-2.2-0.3-4.4-0.6-6.5c-0.3-2.1-0.6-4.2-1.1-6.1c-0.4-2-1.5-3.8-3-5.1c-1.5-1.3-3.3-2.2-5.3-2.5c-0.2-0.1-0.5-0.1-0.7-0.1
	c-0.2,0-0.5,0-0.7,0c-1.2,0-2.5,0.3-3.5,0.9c-1.2,0.7-2.1,1.7-2.6,3c-0.1,0.2-0.1,0.4-0.2,0.6c-0.1,0.2-0.1,0.4-0.1,0.6
	c0,0.9,0.4,1.7,1,2.3c0.8,0.8,1.6,1.4,2.5,2c0.4,0.3,0.8,0.6,1.3,0.8c0.4,0.2,0.9,0.5,1.3,0.8c1,0.6,1.9,1.3,2.7,1.9
	c0.8,0.6,1.6,1.4,2.2,2.2c1.3,1.7,2,3.8,1.9,6v0.8c0,0.3,0,0.5-0.1,0.8c-0.4,2.8-1.8,5.4-3.9,7.3c-2.3,2.2-5.6,3.4-9.9,3.7L262.3,86
	L262.3,86z"/>
<path class="st2" d="M290.8,454.6c-43.4,0-78.5-35.1-78.5-78.5c0-43.4,35.1-78.5,78.5-78.5c43.4,0,78.5,35.1,78.5,78.5c0,0,0,0,0,0
	C369.3,419.4,334.2,454.6,290.8,454.6z M290.8,306.1c-38.7,0-70,31.3-70,70s31.3,70,70,70c38.7,0,70-31.3,70-70c0,0,0,0,0,0
	C360.8,337.5,329.5,306.2,290.8,306.1z"/>
<path class="st2" d="M263.3,148.2c-4.1-2.2-8.1-4.4-12.1-6.7c-1.9-1.1-3.7-2.3-5.5-3.6c-6.4-4.5-11.9-10.2-16.2-16.7
	c-1.8-2.9-3.4-6.4-3.2-9.9c-1-1-1.8-2.2-2.6-3.3c-1.5-2.5-2.8-5.1-4-7.8c-2.1,0.7-3.9,2.2-5,4.1c-0.7,1.3-1,2.7-1.1,4.2
	c0,0.5-0.3,4.4,0.1,4.6c-5.6-2.4-10.9-5-17.1-5.9c-6.1-0.9-12.9-1-18.8,0.8c-4.3,1.4-8.3,3.7-11.7,6.7c-3.6,3.1-6.1,7.7-5.9,12.5
	c0.1,2.3,0.9,4.4,2.1,6.3c1.2,2,2.8,3.7,4.6,5.1c3.9,2.4,8.6,2.6,13.1,2.5c2.7-0.1,5.5-0.7,7.6-2.6c1.8-1.8,2.8-4.2,2.9-6.7
	c0-5.1-4.1-9.1-9.1-9.1c-4.7,0-8.7,3.6-9.1,8.3c-0.6-0.4-1.1-0.9-1.5-1.5c-2.7-3.6,0.2-9.1,3-11.8c0.8-0.8,1.7-1.5,2.6-2.1
	c3.3-2.3,7.2-3.5,11.2-3.5c0.2,0,3.1,0.1,3.1,0.2c-0.3,3.1-0.3,6.4,1.6,9c1.8,2.6,4.4,3.5,7.4,3.9c-1.5-4-0.9-7.7,3.9-8.4
	c4.3-0.6,8.5,1.4,12.1,3.5c3.4,2,6.7,4.2,9.8,6.7c3.5,2.9,6.9,5.8,10.6,8.5c1.9,1.4,3.9,2.7,5.8,4c7.3,5,14.8,9.8,23.1,12.7
	c2.5,0.8,5,1.5,7.5,2l0.5-1.7C269.8,151.3,266.4,149.9,263.3,148.2z"/>
<path class="st2" d="M415.7,114.7c-3.4-3-7.4-5.3-11.7-6.7c-5.9-1.8-12.7-1.7-18.8-0.8c-6.2,0.9-11.4,3.4-17.1,5.9
	c0.4-0.2,0.2-4.1,0.1-4.6c-0.1-1.5-0.5-2.9-1.1-4.2c-0.9-1.8-2.5-3.2-4.3-3.9c-2,4.6-4.5,9.1-7.4,13.2c-0.5,2.7-1.5,5.3-3.1,7.5
	c-4.3,6.6-9.8,12.2-16.2,16.7c-1.8,1.3-3.6,2.5-5.5,3.6c-4,2.3-8,4.5-12.1,6.7c-3.2,1.7-6.5,3.1-9.8,4.6l0.5,1.7
	c2.5-0.5,5-1.2,7.5-2c8.3-2.9,15.9-7.8,23.1-12.7c2-1.3,3.9-2.6,5.8-4c3.7-2.7,7.1-5.6,10.6-8.5c3.1-2.5,6.4-4.7,9.8-6.7
	c3.6-2.2,7.8-4.2,12.1-3.5c4.8,0.7,5.4,4.4,3.9,8.4c3-0.4,5.6-1.4,7.4-3.9c1.9-2.7,1.9-5.9,1.6-9c0-0.1,2.9-0.2,3.1-0.2
	c4-0.1,8,1.1,11.2,3.5c0.9,0.6,1.8,1.3,2.6,2.1c2.8,2.7,5.7,8.2,3,11.8c-0.4,0.6-0.9,1.1-1.5,1.5c-0.5-5-4.9-8.7-9.9-8.3
	c-4.7,0.4-8.3,4.4-8.3,9.1c0.1,2.5,1.1,4.9,2.9,6.7c2.1,1.9,4.9,2.5,7.6,2.6c4.5,0.2,9.1-0.1,13.1-2.5c1.9-1.4,3.4-3.1,4.6-5.1
	c1.3-1.9,2-4.1,2.1-6.3C421.8,122.4,419.3,117.9,415.7,114.7z"/>
<path class="st2" d="M272.6,300.2c-2.5,0.5-5,1.2-7.5,2c-8.3,2.9-15.9,7.8-23.1,12.7c-2,1.3-3.9,2.6-5.8,4
	c-3.7,2.7-7.1,5.6-10.6,8.5c-3.1,2.5-6.4,4.7-9.8,6.7c-3.6,2.2-7.8,4.2-12.1,3.5c-4.8-0.7-5.4-4.4-3.9-8.4c-3,0.4-5.6,1.4-7.4,3.9
	c-1.9,2.7-1.9,5.9-1.6,9c0,0.1-2.9,0.2-3.1,0.2c-4,0.1-8-1.1-11.2-3.5c-0.9-0.6-1.8-1.3-2.6-2.1c-2.8-2.7-5.7-8.2-3-11.8
	c0.4-0.6,0.9-1.1,1.5-1.5c0.5,5,4.9,8.7,9.9,8.3c4.7-0.4,8.3-4.4,8.3-9.1c-0.1-2.5-1.1-4.9-2.9-6.7c-2.1-1.9-4.9-2.5-7.6-2.6
	c-4.5-0.2-9.1,0.1-13.1,2.5c-1.9,1.4-3.4,3.1-4.6,5.1c-1.3,1.9-2,4.1-2.1,6.3c-0.3,4.9,2.3,9.4,5.9,12.5c3.4,3,7.4,5.3,11.7,6.7
	c5.9,1.9,12.7,1.7,18.8,0.8c6.2-0.9,11.4-3.4,17.1-5.9c-0.4,0.2-0.2,4.1-0.1,4.6c0.1,1.5,0.5,2.9,1.1,4.2c0.9,1.8,2.5,3.2,4.4,3.9
	c0.7-1.6,1.4-3.2,2.1-4.8c0.9-2.2,1.9-4.3,3.1-6.3c0.7-1.1,1.6-2.2,2.4-3.3c0.6-2.3,1.5-4.4,2.8-6.4c4.3-6.6,9.8-12.2,16.2-16.7
	c1.8-1.3,3.6-2.5,5.5-3.6c4-2.3,8-4.5,12.1-6.7c3.2-1.7,6.5-3.1,9.8-4.6L272.6,300.2z"/>
<path class="st2" d="M421.6,327.3c-0.1-2.3-0.9-4.4-2.1-6.3c-1.2-2-2.8-3.7-4.6-5.1c-3.9-2.4-8.6-2.6-13.1-2.5
	c-2.7,0.1-5.5,0.7-7.6,2.6c-1.8,1.8-2.8,4.2-2.9,6.7c0,5.1,4.1,9.1,9.1,9.2c4.7,0,8.7-3.6,9.1-8.3c0.6,0.4,1.1,0.9,1.5,1.5
	c2.7,3.6-0.2,9.1-3,11.8c-0.8,0.8-1.7,1.5-2.6,2.1c-3.3,2.3-7.2,3.5-11.2,3.5c-0.2,0-3.1-0.1-3.1-0.2c0.3-3.1,0.3-6.4-1.6-9
	c-1.8-2.6-4.4-3.5-7.4-3.9c1.5,4,0.9,7.7-3.9,8.4c-4.3,0.6-8.5-1.4-12.1-3.5c-3.4-2-6.7-4.2-9.8-6.7c-3.5-2.9-6.9-5.9-10.6-8.5
	c-1.9-1.4-3.9-2.7-5.8-4c-7.3-5-14.8-9.8-23.1-12.7c-2.5-0.8-5-1.5-7.5-2l-0.5,1.7c3.3,1.4,6.7,2.9,9.8,4.6
	c4.1,2.2,8.1,4.4,12.1,6.7c1.9,1.1,3.7,2.3,5.5,3.6c6.4,4.5,11.9,10.2,16.2,16.7c1.2,1.8,2.1,3.8,2.7,5.9c0,0,0.1,0.1,0.1,0.1
	c2.6,3.4,4.2,7.3,5.7,11.3c0.5,1.2,1,2.4,1.5,3.6c2.1-0.7,3.8-2.1,4.8-4.1c0.7-1.3,1-2.7,1.1-4.2c0-0.5,0.3-4.4-0.1-4.6
	c5.6,2.4,10.9,5,17.1,5.9c6.1,0.9,12.9,1,18.8-0.8c4.3-1.4,8.3-3.7,11.7-6.7C419.3,336.7,421.8,332.2,421.6,327.3z"/>
<path class="st0" d="M8.6,239.1c10,12.3,29.6,13.7,39.3-0.2c1.9-2.6,3.1-5.6,3.7-8.8c0.4-3.5,0.1-7-0.8-10.3
	c-1.9-6.9-7.4-11.9-13.7-14.7c-7.6-3.4-17.3-1.5-22.6,5.3c-3.8,4.9-4,11.9-2,17.6c0.8,2.1,2,4,3.6,5.7c3,3.3,7.2,5.2,11.7,5.3
	c2.4,0,4.9-0.6,7-1.7c2.4-1.3,3.8-3.6,5.2-5.8l-2.3,2.1c-3.4,3-7.8,3.2-11.8,1.1c-6.7-3.5-7.7-13.3-1.5-17.7
	c4.1-2.8,9.3-3.3,13.9-1.5c2.6,1.2,4.8,3.2,6.3,5.7c3.2,5.5,3,12.4-0.7,17.7c-3.9,5.6-11.4,6.9-17.8,6.3c-8.1-0.8-14.4-5.9-18-13
	c-3.5-7.3-4.4-15.6-2.7-23.4c0.9-3.2,2.2-6.3,3.9-9.2c1.4-2.8,3.2-5.4,5.2-7.8c4.7-5.1,10.5-9.1,17-11.7c2.9-1,5.8-1.7,8.8-2.1
	c-0.5,2.6-1,5.4-0.2,8.1c0.4,1.3,1.1,2.5,2.1,3.5c0.8,0.8,2.7,1.7,3.9,1.5c0.8-0.2,1.5-0.6,2.1-1.2c1.2-1.2,2.3-2.6,3.6-3.7
	c1.4-1.1,2.9-2,4.5-2.7c9.1-4.3,20-4.7,29.8-3.5c6.3,0.8,12.5,1.9,18.6,3.4c10,2.3,19.3,6.2,28.4,10.5c0.4-1.3,0.8-2.6,1.3-3.9
	c-0.9-0.4-1.7-0.8-2.6-1.2c-15.3-6.9-31.2-13.1-47.8-15.8c-7.7-1.3-15.4-2-23.2-2c-4.9,0-9.8,0.4-14.7,1.2c-8.7,1.4-17.7,4-25.4,8.4
	c-8.1,4.7-14.6,13.2-18.1,21.8C-2.5,214.9,0,228.5,8.6,239.1z"/>
<path class="st0" d="M329.8,366.6c-0.6-1.3-2.1-3.5-5.9-3.3c-0.3,0-0.6,0.1-0.9,0.1c-0.8,0.1-1.6,0.3-2.3,0.6
	c-2.2,0.9-4.2,2.2-6,3.8c-3,2.4-9.5,5-11.4,1.5c2.2-0.5,4.4-1.3,6.4-2.4c3.6-2,5.7-6.8,7-10.2c0.3-0.8,0.5-1.6,0.7-2.4
	c0.6-2.2,1.1-4,2.7-4.3c0.9-0.1,1.6,0.1,1.8,0.6c0.1,0.4,0,0.9-0.4,1.1c-0.1,0.1-0.3,0.1-0.4,0.2c-0.4,0-0.8-0.1-1.1-0.4
	c-0.2-0.2-0.4-0.2-0.6,0c-0.1,0.1-0.2,0.3-0.1,0.5c0,0.1,0.9,2.1,2.7,1.8c0.6-0.1,1.1-0.4,1.6-0.7c1.2-0.8,1.8-2.2,1.8-3.6
	c0.5,0.2,0.8,0.7,0.8,1.3c-0.1,1-0.6,1.9-1.4,2.5c-0.2,0.1-0.3,0.4-0.1,0.6c0.1,0.1,0.1,0.2,0.2,0.2c0.5,0.1,0.9,0.1,1.4-0.1
	c0,0,3.8-1.2,3.8-4.6c-0.1-2.2-0.8-4.3-2.2-5.9c-1.6-1.7-3.9-2.5-6.2-2.1c-2.2,0.4-4.2,1.6-5.6,3.4c-2.3,2.7-3.2,7-4.1,11
	c-0.7,3.4-3.1,6.1-6.3,7.3c-0.7,0.2-1.5,0-2.1-0.5c-0.3-2.3-1.3-4.1-4.7-6c-1.5-0.9-2.7-1.5-3.6-1.9c-2-1-2.5-1.3-2.9-2.3
	c-0.3-0.6-0.4-1.2-0.3-1.8c0.8-0.5,1.7-0.8,2.7-1c0.4-0.1,0.8-0.1,1.1-0.1c1.6,0,2.9,1.1,3.2,2.6l0,0.2c-0.1,0.4,0,0.9,0.3,1.3
	c0.2,0.1,0.4,0.2,0.6,0.2c0.5-0.1,1-0.4,1.4-0.8c1.8-1.4,2.9-3.4,3.2-5.7c0-1.6-0.5-3.2-1.4-4.6c-0.1-0.2-0.3-0.2-0.5-0.2
	c0,0-0.1,0.1-0.1,0.1c0,0,0,0,0,0c0,0,0,0,0,0c0,0.1-0.1,0.1-0.1,0.2c0,0,0,0.1,0,0.1c0,0.4,0,0.8,0,1.2c0,0.4,0,0.8-0.1,1.1
	c-0.4,0.9-1.6,1.5-3.8,0.6c-1.8-0.7-3.6-1.3-5.5-1.8c1-0.9,2.2-1.7,3.4-2.5c1.8-1.3,3.8-2.1,5.9-2.6c0.3-0.1,0.7-0.1,1,0
	c0.6,0,1.2,2.2,1.5,4.1c0,0.2,0.1,0.3,0.3,0.4c0.2,0,0.4-0.1,0.5-0.2c0.3-0.4,0.6-0.9,0.7-1.3l0,0c0-0.1,0.1-0.1,0.1-0.2
	c0.3-1.1,0.6-2.2,0.6-3.4c0,0,0-0.1,0-0.1c0-0.7-0.1-1.5-0.3-2.2c-0.2-0.7-0.7-1.4-1.2-1.9c-0.6-0.5-1.4-0.7-2.2-0.6
	c-2,0.3-3.9,0.9-5.7,1.7c-0.6,0.3-1.2,0.5-1.8,0.7c-0.2-0.2-0.3-0.5-0.4-0.7c-0.4-1-1.1-1.8-2-2.3c-0.3-0.1-0.6-0.2-0.9-0.1
	c-0.6,0.1-1.2,0.3-1.7,0.6c-0.6,0.3-1.3,0.6-2.1,0.6c-1.6,0-1.9-0.4-2-0.6c-0.2-0.5,0.5-1.3,0.8-1.6c0.1-0.1,0.1-0.2,0.1-0.4
	c0-0.1-0.1-0.3-0.2-0.3c-0.1-0.1-2.1-0.9-4.4,3.4c-1.5,2.9-3,5.8-4.7,6c-0.4,0-0.7,0-1.1-0.2c-0.8-0.3-1.4-1-1.6-1.8
	c-0.3-1.3,0.4-3,1.8-4.6c0.1-0.1,0.1-0.4,0-0.5c-0.1-0.2-0.3-0.2-0.5-0.1c-0.2,0.1-4.2,1.9-4.3,6.2c-0.1,2.1,0.7,4.2,2.1,5.8
	c-0.4,0.2-0.9,0.3-1.4,0.3c-0.8-0.1-1.5-0.5-2-1.1c-0.1-0.1-0.3-0.2-0.5-0.1c-0.2,0.1-0.3,0.3-0.2,0.5c0.3,1.6,1.2,3,2.4,4
	c0.9,0.7,2,1.2,3.2,1.3c-0.7,0.9-1.2,2-1.6,3c-0.5,1.5-0.8,3-0.9,4.6c0,0.2,0.1,0.4,0.3,0.4c0.2,0.1,0.4,0,0.5-0.2
	c0.5-0.9,1.2-1.6,1.9-2.3c-0.3,1.1-0.7,2.2-1.2,3.3c-1.2,2.6-0.7,7.7-0.7,7.9c0,0.2,0.2,0.4,0.4,0.4c0.2,0,0.4-0.1,0.5-0.3
	c0.6-1.3,1.9-2.3,3.4-2.5c0.3,0,0.6-0.1,0.8-0.1c0.6-0.1,1.3,0.3,1.5,0.9c0.2,1.3-0.2,2.7-1,3.7c-0.2,0.2-0.4,0.3-0.7,0.3
	c-0.3,0-0.6,0-0.9-0.1c-0.2-0.1-0.5,0-0.6,0.2c0,0.1,0,0.1,0,0.2c0.1,1.2,0.9,2.3,2.1,2.7c0.2,0.1,0.4,0.1,0.5,0.2
	c1,0.3,2.1,0.7,2.3,1.3c0.1,0.5-0.1,1-0.4,1.4c-0.3,0.6-0.9,1-1.5,1.2c-0.2,0-0.5,0-0.7-0.2c-0.1-0.1-0.2-0.2-0.2-0.3
	c0.1-0.4,0.2-0.8,0.4-1.2c0.1-0.2,0-0.4-0.1-0.5c-0.1-0.1-0.3-0.2-0.5-0.1c-1.2,0.8-1.8,2.3-1.5,3.7c0.3,2.2,2.1,3.8,4.3,4
	c0.4,0,0.7-0.1,1.1-0.2c-0.8,1.3-2.1,2.2-3.6,2.4c-3.2,0.8-6.5,1.9-8.3,4.5c-0.3,0.4-0.6,1-1,1.6c-2.5-1.2-4.3-3.7-5.1-7.1
	c-1-4-0.1-8.2,2.5-11.4c2.2-2.4,3.8-5.3,4.6-8.5c0.9-3.1,0.7-6.4-0.5-9.4c-1.6-3.4-6.1-5.5-11.2-3.8c0,0,0,0,0,0
	c-1,0.2-2,0.6-2.9,1.2c-1.2,0.7-2.3,1.6-3.1,2.7c-0.7,0.8-1.2,1.6-1.6,2.6c-1.1,2.6-1.8,5.3-2.1,8c0,0,0,0,0,0
	c-0.1,0.6-0.1,1.3,0,1.9c0.4,2.7,2.7,5.3,5.7,4.9c1.9-0.4,3.4-1.8,3.8-3.7c0-0.2-0.1-0.4-0.2-0.5c-0.2-0.1-0.4-0.1-0.5,0.1
	c-0.5,0.5-1.2,0.9-2,1.1c-0.3,0.1-0.5,0-0.8-0.2c-0.1-0.2-0.2-0.4-0.2-0.6c0.1-0.5,0.4-0.8,0.8-1.1c0.9-0.6,1.4-1.7,1.3-2.8
	c-0.1-0.9-0.5-1.6-1.2-2.2c-0.8-0.9-1.7-1.5-1.6-2.8c0.2-0.8,0.5-1.6,1-2.2c1.2-1.7,3.2-2.8,6.1-3.2c2.7-0.4,4.4,0.4,5.4,2.4
	c1.8,3.8,0.1,9.7-3.3,13.8c-3.4,4.1-4.7,9.6-3.5,14.8c1.1,4.4,3.6,7.8,7.1,9.4c-0.7,2.3-0.7,4.7,0,7c0.6,2.3,1.8,4.5,3.6,6.1
	c0.7,0.6,1.2,1.4,1.5,2.2c0.4,1.9,0.5,2.8-1.5,4.5c-1.5,1.3-4.6,3.9-2.2,6.8c0.4,0.6,1.1,1,1.8,1.1c0.9-0.2,1.7-0.6,2.3-1.4
	c0.4-0.4,0.9-0.8,1.4-1.1c0.6-0.3,1.3,0.3,2.1,0.9c1.1,1,2.4,1.6,3.9,1.7c1.4,0,2.8-0.4,4.1-1.2c0.6-0.4,1.3-0.6,2-0.7
	c1.3,0,1.6,1.7,1.7,1.8c0,0.2,0.2,0.3,0.3,0.4c0,0,0.1,0,0.1,0c0.1,0,0.3-0.1,0.4-0.2c0.1-0.1,2.2-3.2,0.7-5.8
	c-1.6-2.7-4.2-3.4-7.3-1.8c-0.7,0.4-1.5,0.7-2.4,0.7c-0.9,0-2.3-0.3-3-3.7c-0.5-2.5-0.3-5.1,0.6-7.4c1.4-0.6,2.8-1.4,4.1-2.3
	c1-0.8,1.9-1.7,2.5-2.7c1.9,0.7,3.9,1.1,5.9,1.2c1.1,0.1,2.2,0,3.4-0.1c0.6-0.1,1.1-0.2,1.7-0.4c0,2,0.4,4.1,1,6
	c-0.6,0.5-3.5,2.9-3.1,5.4c0.2,1.4,0.8,2.2,1.8,2.2c0.9-0.1,1.9-0.3,2.7-0.8c0.3-0.1,0.7-0.2,1-0.2c0.7,0.1,1.3,0.3,1.9,0.6
	c1.1,0.5,2.2,0.8,3.3,0.9c1.4,0,2.8-0.5,3.8-1.5c0.7-0.5,1.3-1,1.8-0.8c0.2,0.1,0.4,0.2,0.4,0.4c0.1,0.7-0.1,1.4-0.5,2
	c-0.1,0.2-0.1,0.4,0.1,0.5c0.1,0.1,0.4,0.2,0.5,0.1c0,0,3.9-2.6,2-6.4c-0.5-1.3-1.7-2.2-3.1-2.3c-1.4,0-2.7,0.4-3.9,1
	c-0.3,0.2-0.6,0.3-0.9,0.4c-1.4,0.1-2.8-0.6-3.4-1.9c-0.9-1.2-1.5-3,2.2-5.8c0.5-0.3,5-4,1.3-10.6c-1.4-2.5-3.1-4.4-5.3-4.7
	c-0.7-0.1-1.5-0.1-2.2,0c-1.9,0.4-3.6,1.2-5.2,2.3c-0.9,0.7-1.9,1.2-3,1.4c-0.4,0-0.8-0.3-0.8-0.7c-0.4-1.5,0.9-4.7,2.8-5.7
	c1-0.6,2.1-1,3.3-1.3c1.4-0.3,2.8-1,3.9-1.8c1-0.8,1.8-1.7,2.4-2.8c2.6,1,5.5,1.3,8.3,0.9c0.8-0.1,1.6-0.3,2.4-0.6
	c2-0.7,3.9-1.8,5.6-3.2c0.5-0.5,1.2-0.9,1.9-1.2c0.4-0.1,0.7,0.1,0.9,0.4c0.2,0.3,0.2,0.7,0,1c-0.1,0.1-0.2,0.2-0.4,0.2
	c-0.3,0-0.5-0.1-0.7-0.2c-0.1-0.1-0.3-0.1-0.4,0c-0.1,0.1-0.2,0.2-0.2,0.4c0.1,0.7,0.4,1.4,0.9,1.9c0.8,0.5,1.8,0.6,2.7,0.2
	c1.1-0.3,2.1-1.2,2.5-2.3c0.4-0.3,0.8,0.9,0.5,1.5c-0.6,0.9-1.6,1.6-2.7,1.8l-0.1,0c-0.2,0-0.4,0.2-0.3,0.4c0,0.2,0.2,0.4,0.4,0.4
	c0.9,0.1,1.8,0,2.6-0.2c1.5-0.3,2.8-1.1,3.9-2.1C330.9,372.3,330.9,369.2,329.8,366.6z M287.9,336.6c-0.2,0-0.3,0-0.5,0
	c1.6-0.2,3.2-0.6,4.7-1.3l0.8,1.4C291.8,336.7,289.7,336.8,287.9,336.6L287.9,336.6z"/>
<path class="st0" d="M162.5,366.5v19.3h-4.6v-12.4h-4.4v-3.1c0,0,4.1-0.5,4.4-3.7L162.5,366.5L162.5,366.5z"/>
<path class="st0" d="M178.6,385.8h-5.2l3.6-6.7c-3.7-0.3-6.7-3.1-6.7-6.6c0-3.7,3.3-6.6,7.3-6.6s7.3,2.9,7.3,6.6
	c0,0.8-0.1,1.5-0.4,2.2C183.2,377.5,178.6,385.8,178.6,385.8z M177.6,375.2c1.5-0.2,2.6-1.5,2.4-3c-0.2-1.5-1.5-2.6-3-2.4
	c-1.4,0.1-2.5,1.3-2.5,2.7C174.7,374.1,176.1,375.3,177.6,375.2z"/>
<path class="st0" d="M406.4,380.2c0,3.4-3.3,6.1-7.3,6.1c-4,0-7.3-2.8-7.3-6.1c0-1.8,1-3.5,2.5-4.6c-1-1-1.6-2.3-1.6-3.8
	c0-3.2,2.9-5.8,6.4-5.8s6.4,2.6,6.4,5.8c0,1.4-0.6,2.8-1.6,3.8C405.5,376.7,406.4,378.4,406.4,380.2z M402.9,380.2
	c0-1.4-1.7-2.6-3.7-2.6c-2,0-3.7,1.1-3.7,2.6s1.7,2.6,3.7,2.6C401.2,382.8,402.9,381.6,402.9,380.2L402.9,380.2z M396.2,371.8
	c0,1.2,1.4,2.2,2.9,2.2c1.6,0,2.9-1,2.9-2.2c0-1.2-1.3-2.2-2.9-2.2C397.6,369.6,396.2,370.6,396.2,371.8L396.2,371.8z"/>
<path class="st0" d="M428.1,379.7c0,3.7-3.4,6.7-7.6,6.7s-7.6-3-7.6-6.7c0-1,0.6-2.3,2-4.7c1.4-2.5,4.9-8.5,4.9-8.5h4.6l-3.4,6.6
	C425.8,373.1,428.1,376.4,428.1,379.7z M424.1,379.7c-0.1-1.8-1.7-3.2-3.5-3.1c-2.7,0-3.5,1.9-3.5,3.1c0.3,2,2.1,3.3,4,3.1
	C422.6,382.5,423.9,381.3,424.1,379.7z"/>
</svg>
