<?xml version="1.0" encoding="utf-8"?>
<!-- Generator: Adobe Illustrator 19.2.1, SVG Export Plug-In . SVG Version: 6.00 Build 0)  -->
<svg version="1.1" id="Layer_1" xmlns="http://www.w3.org/2000/svg" xmlns:xlink="http://www.w3.org/1999/xlink" x="0px" y="0px"
	 viewBox="0 0 234 109.6" style="enable-background:new 0 0 234 109.6;" xml:space="preserve">
<style type="text/css">
	.st0{fill:#EF4136;}
</style>
<title>rsren</title>
<path class="st0" d="M51.8,66.4H21.5c-6.5,0-11.7-5.2-11.7-11.7C9.8,48.3,15,43,21.4,43c0,0,0,0,0.1,0h21.2L58,58.3h13.9L56.1,42.6
	c11.6-2.4,19.1-13.8,16.7-25.4C70.8,7.2,62,0,51.8,0H0v19.6h9.8V9.8h42c6.5,0,11.7,5.2,11.7,11.7s-5.2,11.7-11.7,11.7c0,0,0,0-0.1,0
	H21.5C9.6,33.2,0,42.8,0,54.7c0,11.9,9.6,21.5,21.5,21.5h30.3c6.5,0,11.7,5.2,11.7,11.7s-5.2,11.7-11.7,11.7c0,0,0,0-0.1,0H0v9.8
	h51.8c11.9,0,21.5-9.6,21.5-21.5C73.4,76.1,63.8,66.4,51.8,66.4C51.9,66.4,51.8,66.4,51.8,66.4z"/>
<path class="st0" d="M90.6,50.4V33.3h4.5v2.3c1.3-1.7,3.3-2.7,5.5-2.8v4.4c-0.4-0.1-0.8-0.1-1.2-0.1c-1.6,0-3.2,0.7-4.2,2v11.3H90.6
	z"/>
<path class="st0" d="M103.2,41.8c0.1-5,4.2-9,9.2-9c4.9,0.1,8.9,4,9,9c0,5-4.1,9.1-9.1,9C107.2,50.8,103.2,46.8,103.2,41.8z
	 M116.7,41.8c0-2.7-1.6-5-4.4-5s-4.4,2.3-4.4,5c0,2.7,1.6,5,4.4,5S116.7,44.5,116.7,41.8L116.7,41.8z"/>
<path class="st0" d="M125.6,50.4V26.7h4.5v8.8c1.3-1.7,3.2-2.6,5.3-2.6c4.4,0,7.6,3.4,7.6,9c0,5.7-3.3,9-7.6,9c-2.1,0-4-1-5.3-2.6
	v2.2L125.6,50.4L125.6,50.4z M134,46.9c2.6,0,4.4-2,4.4-5s-1.7-5-4.4-5c-1.5,0-3,0.8-3.9,2v6.1C131.1,46.1,132.5,46.8,134,46.9
	L134,46.9z"/>
<path class="st0" d="M146.9,28.7c0-1.5,1.2-2.7,2.7-2.7s2.7,1.2,2.7,2.7c0,1.5-1.2,2.7-2.7,2.7C148.1,31.4,146.9,30.2,146.9,28.7z
	 M147.3,50.4V33.3h4.5v17.2L147.3,50.4L147.3,50.4z"/>
<path class="st0" d="M168.8,50.4V40.1c0-2.4-1.2-3.2-3.2-3.2c-1.6,0-3,0.8-3.9,2v11.6h-4.5V33.3h4.5v2.2c1.5-1.7,3.7-2.7,6-2.7
	c3.8,0,5.6,2.1,5.6,5.5v12.1H168.8z"/>
<path class="st0" d="M177.2,48.2l2-3.2c1.7,1.4,3.8,2.2,5.9,2.3c2,0,2.9-0.8,2.9-1.8c0-1.2-1.6-1.5-3.5-1.8c-3-0.6-6.8-1.3-6.8-5.4
	c0-2.9,2.5-5.4,7-5.4c2.5,0,5,0.8,6.9,2.3l-1.8,3.1c-1.4-1.3-3.2-2-5.1-2c-1.6,0-2.7,0.7-2.7,1.7c0,1,1.4,1.3,3.3,1.7
	c3,0.6,6.9,1.4,6.9,5.7c0,3.1-2.7,5.5-7.4,5.5C182.1,50.9,179.4,50,177.2,48.2z"/>
<path class="st0" d="M195.5,41.8c0.1-5,4.2-9,9.2-9c4.9,0.1,8.9,4,9,9c0,5-4.1,9.1-9.1,9C199.5,50.8,195.5,46.8,195.5,41.8z
	 M209,41.8c0-2.7-1.6-5-4.4-5s-4.4,2.3-4.4,5c0,2.7,1.6,5,4.4,5S209,44.5,209,41.8z"/>
<path class="st0" d="M229.5,50.4V40.1c0-2.4-1.2-3.2-3.2-3.2c-1.6,0-3,0.8-3.9,2v11.6h-4.5V33.3h4.5v2.2c1.5-1.7,3.7-2.7,6-2.7
	c3.8,0,5.6,2.1,5.6,5.5v12.1H229.5z"/>
<path class="st0" d="M99.5,73.8v6.9h-4.1v-6.9h-6v-3.7h6v-6.6h4.1v6.6h6v3.7H99.5z"/>
<path class="st0" d="M107.2,77.7l2-3.2c1.7,1.4,3.8,2.2,5.9,2.3c2,0,2.9-0.8,2.9-1.8c0-1.2-1.6-1.5-3.5-1.8c-3-0.6-6.8-1.3-6.8-5.4
	c0-2.9,2.5-5.4,7-5.4c2.5,0,5,0.8,6.9,2.3l-1.8,3.1c-1.4-1.3-3.2-2-5.1-2c-1.6,0-2.7,0.7-2.7,1.7c0,1,1.4,1.3,3.3,1.7
	c3,0.6,6.9,1.4,6.9,5.7c0,3.1-2.7,5.5-7.4,5.5C112.1,80.4,109.4,79.5,107.2,77.7z"/>
<path class="st0" d="M124.6,71.3c-0.2-4.8,3.6-8.8,8.4-9c0.2,0,0.5,0,0.7,0c2.6-0.2,5.2,1,6.8,3.1l-3,2.8c-0.8-1.2-2.2-1.9-3.6-1.8
	c-2.7,0-4.7,2-4.7,5s1.9,5,4.7,5c1.4,0,2.8-0.7,3.6-1.8l3,2.7c-1.6,2.1-4.1,3.3-6.8,3.1c-4.8,0.2-8.9-3.5-9.1-8.3
	C124.6,71.8,124.6,71.5,124.6,71.3z"/>
<path class="st0" d="M155.1,79.9V69.4c0-2.4-1.2-3.1-3.2-3.1c-1.5,0-3,0.8-3.9,2v11.6h-4.5V56.2h4.5V65c1.5-1.7,3.7-2.7,6-2.7
	c3.8,0,5.6,2.1,5.6,5.4v12.2H155.1L155.1,79.9z"/>
<path class="st0" d="M185.4,79.9V69.1c0-1.6-0.7-2.7-2.6-2.7c-1.4,0.1-2.8,0.8-3.6,2v11.6h-4.6V69.1c0-1.6-0.7-2.7-2.6-2.7
	c-1.4,0.1-2.8,0.8-3.6,2v11.6h-4.5V62.7h4.5V65c1.4-1.7,3.4-2.6,5.6-2.7c2.5,0,4.1,1.2,4.8,3.1c1.3-1.9,3.5-3.1,5.9-3.1
	c3.2,0,5.1,1.7,5.1,5.2v12.4H185.4L185.4,79.9z"/>
<path class="st0" d="M193.9,58.2c0-1.5,1.2-2.7,2.7-2.7c1.5,0,2.7,1.2,2.7,2.7c0,1.5-1.2,2.7-2.7,2.7
	C195.2,60.9,194,59.7,193.9,58.2z M194.4,79.9V62.7h4.5v17.2C198.9,79.9,194.4,79.9,194.4,79.9z"/>
<path class="st0" d="M215.2,79.9v-2.2c-1.3,1.7-3.2,2.6-5.3,2.6c-4.3,0-7.6-3.3-7.6-9c0-5.6,3.2-9,7.6-9c2.1,0,4,1,5.3,2.6v-8.8h4.6
	v23.7H215.2z M215.2,74.4v-6.1c-0.9-1.2-2.4-2-3.9-2c-2.6,0-4.3,2-4.3,5c0,3,1.8,5,4.3,5C212.8,76.3,214.3,75.6,215.2,74.4z"/>
<path class="st0" d="M225.1,75.6v-9h-2.8v-3.9h2.8V58h4.6v4.7h3.5v3.9h-3.5v7.8c-0.1,0.9,0.5,1.7,1.4,1.9c0.1,0,0.1,0,0.2,0
	c0.6,0,1.1-0.2,1.6-0.5l1,3.4c-1.1,0.8-2.4,1.2-3.8,1.1C226.9,80.3,225.1,78.7,225.1,75.6z"/>
<path class="st0" d="M96.1,109.4l-2.9-4.4h-2.2v4.4h-1.4V98.2h4.5c1.8-0.1,3.4,1.2,3.5,3c0,0.1,0,0.2,0,0.4c0.1,1.7-1.2,3.2-2.9,3.3
	l3,4.6L96.1,109.4L96.1,109.4z M96.2,101.6c0-1.1-0.9-2.1-2-2.1c-0.1,0-0.1,0-0.2,0h-2.9v4.3H94c1.2,0.1,2.2-0.8,2.2-1.9
	C96.2,101.7,96.2,101.6,96.2,101.6L96.2,101.6z"/>
<path class="st0" d="M103.2,109.4V98.2h7.3v1.2h-5.9v3.6h5.8v1.2h-5.8v3.9h5.9v1.2L103.2,109.4L103.2,109.4z"/>
<path class="st0" d="M124,109.4l-6.5-8.9v8.9h-1.4V98.2h1.4l6.4,8.7v-8.7h1.4v11.2L124,109.4L124,109.4z"/>
<path class="st0" d="M130.9,103.6c0.1-3.1,2.7-5.6,5.8-5.5c3.1,0.1,5.5,2.8,5.3,5.9c-0.1,3.1-2.6,5.5-5.6,5.5
	c-3,0.1-5.5-2.4-5.6-5.5C130.9,103.9,130.9,103.8,130.9,103.6z M140.6,103.8c0-2.6-1.6-4.5-4.1-4.5c-2.5,0-4.1,1.9-4.1,4.5
	c0,2.6,1.6,4.5,4.1,4.5C138.9,108.3,140.6,106.4,140.6,103.8z"/>
<path class="st0" d="M150.5,109.4L146,98.2h1.6l3.8,9.7l3.8-9.7h1.6l-4.5,11.2L150.5,109.4L150.5,109.4z"/>
<path class="st0" d="M168.7,109.4l-1-2.5h-5.6l-1,2.5h-1.6l4.5-11.2h1.7l4.5,11.2L168.7,109.4L168.7,109.4z M164.9,99.6l-2.4,6h4.7
	L164.9,99.6z"/>
<path class="st0" d="M176.7,109.4v-9.9h-3.5v-1.2h8.5v1.2h-3.6v9.9L176.7,109.4L176.7,109.4z"/>
<path class="st0" d="M186.9,109.4V98.2h1.4v11.2L186.9,109.4L186.9,109.4z"/>
<path class="st0" d="M193.8,103.6c0.1-3.1,2.7-5.6,5.8-5.5c3.1,0.1,5.4,2.8,5.3,5.9c-0.1,3.1-2.6,5.5-5.6,5.5
	c-3,0.1-5.5-2.4-5.6-5.5C193.8,103.9,193.8,103.8,193.8,103.6z M203.4,103.8c0-2.6-1.6-4.5-4.1-4.5c-2.5,0-4.1,1.9-4.1,4.5
	c0,2.6,1.6,4.5,4.1,4.5C201.8,108.3,203.4,106.4,203.4,103.8L203.4,103.8z"/>
<path class="st0" d="M218.3,109.4l-6.5-8.9v8.9h-1.4V98.2h1.4l6.4,8.7v-8.7h1.4v11.2L218.3,109.4L218.3,109.4z"/>
<path class="st0" d="M225,107.8l0.8-1.1c0.9,1,2.2,1.6,3.5,1.6c2,0,2.6-1.1,2.6-1.9c0-1.3-1.4-1.7-2.8-2.1c-1.8-0.5-3.8-1-3.8-3.2
	c0-1.8,1.6-3.1,3.8-3.1c1.5-0.1,2.9,0.5,4,1.6l-0.8,1c-0.8-0.9-2-1.4-3.2-1.3c-1.3,0-2.3,0.7-2.3,1.8c0,1.1,1.3,1.5,2.7,1.8
	c1.8,0.5,3.9,1.1,3.9,3.4c0,1.6-1.1,3.3-4.1,3.3C227.6,109.6,226.1,109,225,107.8z"/>
</svg>
