<svg id="Layer_3" data-name="Layer 3" xmlns="http://www.w3.org/2000/svg" viewBox="0 0 394.717 50.896"><defs><style>.cls-1{fill:#231f20;}.cls-2{fill:#ed1c24;}</style></defs><title>savoie-logo</title><path class="cls-1" d="M6.1814,30.0689a3.2542,3.2542,0,0,0,3.9179,1.3379c-0.0693,0,6.6363-2.1651,10.1988-3.2129,2.12-.6357,3.9223-0.5606,5.1787.2783-1.1714-1.7246-3.4038-2.11-6.1787-1.2783C15.7356,28.2417,9.03,30.4068,9.0993,30.4068A3.0719,3.0719,0,0,1,6.1814,30.0689Z"/><polygon class="cls-1" points="10.379 40.348 9.225 40.348 8.82 42.981 9.974 42.981 10.379 40.348"/><path class="cls-1" d="M133.8474,2l-1.1367,5.9849H26.4768a14.6163,14.6163,0,0,0-7.7017,2.8794c-4.8745,3.4439-6.2529,11.0908-6.2529,11.0908q0.6832-.282,1.372-0.5346c0.6719-2.41,2.3633-7.0713,5.8809-9.5562a14.6163,14.6163,0,0,1,7.7017-2.8794H133.7107L135.0373,2h-1.19Z"/><path class="cls-1" d="M31.0788,22.9781c2.4165,2.8857,3.0777,7.2929,1.98,13.0869L30.614,47.0318a3.5176,3.5176,0,0,1-3.4229,2.8642H4.489a3.4464,3.4464,0,0,1-1.9077-.583A3.4493,3.4493,0,0,0,5.489,50.896H28.1911a3.5176,3.5176,0,0,0,3.4229-2.8642L34.0588,37.065C35.2937,30.5474,34.2917,25.7935,31.0788,22.9781Z"/><polygon class="cls-1" points="150.138 2 148.948 2 147.741 8.334 141.528 8.334 141.337 9.334 148.741 9.334 150.138 2"/><polygon class="cls-1" points="266.914 28.522 253.992 28.522 250.22 49.896 244.275 49.896 244.095 50.896 251.22 50.896 254.992 29.522 267.914 29.522 269.241 22.466 268.053 22.466 266.914 28.522"/><polygon class="cls-1" points="258.694 9.055 301.651 9.055 302.908 2 301.73 2 300.651 8.055 257.694 8.055 255.249 21.466 256.432 21.466 258.694 9.055"/><path class="cls-1" d="M60.6477,41.9332A7.75,7.75,0,0,0,61.862,41.83l4.1861-21.5283a3.5626,3.5626,0,0,0-1.4976-3.7436,3.7843,3.7843,0,0,1,.4976,2.7436Z"/><polygon class="cls-1" points="109.386 42.702 112.841 23.234 122.976 23.234 123.157 22.234 111.841 22.234 108.209 42.702 109.386 42.702"/><polygon class="cls-1" points="79.22 33.835 82.739 15.97 81.542 15.97 78.176 33.062 79.22 33.835"/><path class="cls-1" d="M129.863,24.26l0.978-.07c0.0864-.0073.1641-0.0254,0.25-0.0342l0.75-3.646a3.8262,3.8262,0,0,0-1.5293-4.0322,4.0491,4.0491,0,0,1,.5293,3.0322Z"/><path class="cls-1" d="M160.1955,37.9039l14.9478-1.6075a3.3427,3.3427,0,0,0,3.0737-2.7236L181.22,20.3707a3.5631,3.5631,0,0,0-1.5376-3.7466,3.3555,3.3555,0,0,1,.5376,2.7466L177.217,32.5728a3.3427,3.3427,0,0,1-3.0737,2.7236l-14.9478,1.6075-1.0478,5.7978h1.1806Z"/><path class="cls-1" d="M142.8669,41.8462L147.6936,15.97H146.507l-4.8427,25.9629A9.3941,9.3941,0,0,0,142.8669,41.8462Z"/><polygon class="cls-1" points="162.85 22.955 172.161 22.955 172.398 21.955 161.85 21.955 160.383 29.918 161.598 29.749 162.85 22.955"/><path class="cls-1" d="M139.4992,49.896h-2.6543a3.6,3.6,0,0,1-2.0141-.6084,3.53,3.53,0,0,0,3.0141,1.6084h2.6543a22.189,22.189,0,0,0,10.3916-2.4238,3.2965,3.2965,0,0,1-.539-1.2373A22.069,22.069,0,0,1,139.4992,49.896Z"/><path class="cls-1" d="M136.197,30.1832a15.9619,15.9619,0,0,1-6.2642,1.2714h-1.3974l-3.2129,15.7871a3.2213,3.2213,0,0,1-3.2134,2.6543H103.7385a2.5539,2.5539,0,0,1-1.4175-.4531,3.0642,3.0642,0,0,0,2.4175,1.4531h18.3706a3.2213,3.2213,0,0,0,3.2134-2.6543l3.2129-15.7871h1.3974a15.9563,15.9563,0,0,0,4.9854-.8007Z"/><polygon class="cls-1" points="45.057 40.236 47.957 23.095 56.897 23.095 57.085 22.095 46.957 22.095 43.813 40.675 45.057 40.236"/><path class="cls-1" d="M213.0031,33.898c-12.4492-1.2783-20.6552-2.5234-22.8349,3.5049-3.1143,8.0361-11.07,12.4931-21.1934,12.4931H153.8166a3.7473,3.7473,0,0,1-2.0371-.5771,3.465,3.465,0,0,0,3.0371,1.5771h15.1582c10.1235,0,18.0791-4.457,21.1934-12.4931,2.18-6.0283,10.3857-4.7832,22.8349-3.5049,12.5078,1.2852,25.4434,2.6143,28.1612-7.6807l-1.208-.3193C237.85,36.4449,225.2248,35.1539,213.0031,33.898Z"/><path class="cls-1" d="M104.39,22.1651H97.944L92.9846,49.896H88.5837L75.6193,40.1587c-2.9975,5.2256-8.6723,9.7373-17.6962,9.7373H56.177A4,4,0,0,1,53.89,49.08,4.1909,4.1909,0,0,0,57.177,50.896h1.7461c9.0239,0,14.6987-4.5117,17.6962-9.7373L89.5837,50.896h4.4009L98.944,23.1651h5.28Z"/><path class="cls-1" d="M40.3908,49.6167a3.9226,3.9226,0,0,1-3.3637-.4912,3.89,3.89,0,0,0,4.3637,1.4912l10.8413-4.0253a5.1591,5.1591,0,0,1-.1762-1.3057Z"/><path class="cls-2" d="M28.9152,20.8155c-4.1909-3.4224-10.9668-2.5142-17.393.14,0,0,1.3784-7.6469,6.2529-11.0908a14.6163,14.6163,0,0,1,7.7017-2.8794H131.7107L133.0373,0H29.5774C14.3586,0,6.8586,8.3643,4.9475,17.629L3.5593,25.4957c-0.3491,2.5146,2.0957,4.89,4.54,3.9111-0.0693,0,6.6363-2.1651,10.1988-3.2129,4.89-1.4668,8.1025.8379,6.7753,7.6143L23.467,41.981H7.82l0.5586-3.6328H1.1843L0.0666,44.774A3.4635,3.4635,0,0,0,3.489,48.896H26.1911a3.5176,3.5176,0,0,0,3.4229-2.8642L32.0588,35.065C33.3161,28.4292,32.2683,23.6094,28.9152,20.8155Z"/><polygon class="cls-2" points="148.138 0 140.734 0 139.337 7.334 146.741 7.334 148.138 0"/><polygon class="cls-2" points="256.694 7.055 299.651 7.055 300.908 0 250.897 0 242.095 48.896 249.22 48.896 252.992 27.522 265.914 27.522 267.241 20.466 254.249 20.466 256.694 7.055"/><path class="cls-2" d="M212.7219,25.9019c-12.4531-1.2788-26.5254-2.7192-30.062,7.8955-1.7115,4.4766-6.0381,7.9043-14.6851,7.9043H157.1477l1.0478-5.7978,14.9478-1.6075a3.3427,3.3427,0,0,0,3.0737-2.7236L179.22,18.3707a3.6857,3.6857,0,0,0-3.5625-4.4H157.8464a3.6805,3.6805,0,0,0-3.6328,3.0732l-2.9029,16.4209-0.0292-.0059c-1.3267,5.1-7.0547,7.4747-10.6172,7.4747L145.6936,13.97H138.08l-0.9912,5.2324-0.1929-.0635a8.7521,8.7521,0,0,1-7.0547,4.0513l-0.978.07,0.978-4.75a3.5643,3.5643,0,0,0-3.2134-4.54H108.1867a4.3778,4.3778,0,0,0-.706.062l0.0112-.062H93.9406a3.6691,3.6691,0,0,0-3.6328,2.9331l-3.9809,21.934L77.176,32.0621,80.7385,13.97H73.2644L69.632,32.9693a3.3223,3.3223,0,0,0-.0634.6416l-0.0718-.0127a10.9367,10.9367,0,0,1-9.8491,7.335l4.4-22.6319a3.5031,3.5031,0,0,0-3.5625-4.331H42.883A3.4568,3.4568,0,0,0,39.46,16.7642l-4.89,27.87c-0.5586,3.0742,2.5845,4.75,4.82,3.9824l11.6651-4.331a4.3823,4.3823,0,0,0,4.1211,4.61h1.7461c9.0239,0,14.6987-4.5117,17.6962-9.7373L87.5837,48.896h4.4009L96.944,21.1651H103.39L99.5251,44.356c-0.3491,1.8857,1.1875,4.54,3.2134,4.54h18.3706a3.2213,3.2213,0,0,0,3.2134-2.6543l3.2129-15.7871h1.3974a15.9619,15.9619,0,0,0,6.2642-1.2714L132.2819,44.565a3.5945,3.5945,0,0,0,3.563,4.331h2.6543a22.069,22.069,0,0,0,10.8526-2.6611,3.3588,3.3588,0,0,0,3.4648,2.6611h15.1582c10.1235,0,18.0791-4.457,21.1934-12.4931,2.18-6.0283,10.3857-4.7832,22.8349-3.5049,12.5078,1.2852,25.4434,2.6143,28.1612-7.6807l-6.8-1.7954C232.1828,27.9029,221.844,26.8394,212.7219,25.9019ZM160.85,20.9551h10.5479l-1.5371,6.4966L159.383,28.9185ZM53.2907,35.9732L42.8132,39.6753l3.1435-18.58H56.0852Zm65.1646,5.7285H107.2087l3.6323-20.4673h11.3159Z"/><polygon class="cls-1" points="317.797 2.041 316.592 8.369 310.384 8.369 310.194 9.369 317.592 9.369 318.988 2.041 317.797 2.041"/><path class="cls-1" d="M349.2561,23.4444l-3.21,19.7514h1.1621l3.0479-18.7514a3.7754,3.7754,0,0,0-1.6-3.6953A3.8484,3.8484,0,0,1,349.2561,23.4444Z"/><path class="cls-1" d="M310.52,41.94a9.5873,9.5873,0,0,0,1.2032-.0869l4.8222-25.854h-1.1865Z"/><path class="cls-1" d="M383.2482,19.396l-3.0009,13.1914a3.3411,3.3411,0,0,1-3.0713,2.7217L362.24,36.9146l-1.0468,5.793h1.1806l0.8662-4.793,14.9356-1.6055a3.3411,3.3411,0,0,0,3.0713-2.7217l3.0009-13.1914a3.56,3.56,0,0,0-1.5371-3.7441A3.3515,3.3515,0,0,1,383.2482,19.396Z"/><path class="cls-1" d="M298.8615,19.3262L294.465,41.94a7.766,7.766,0,0,0,1.2149-.1055l4.1816-21.5083a3.5587,3.5587,0,0,0-1.497-3.7407A3.7793,3.7793,0,0,1,298.8615,19.3262Z"/><polygon class="cls-1" points="363.427 29.935 364.643 29.765 365.893 22.979 375.196 22.979 375.432 21.979 364.893 21.979 363.427 29.935"/><polygon class="cls-1" points="332.227 14.999 333.351 15.332 333.785 12.998 332.662 12.66 332.227 14.999"/><polygon class="cls-1" points="341.649 25.608 330.901 22.467 326.015 49.827 319.587 49.827 319.407 50.827 327.015 50.827 331.901 23.467 341.544 26.286 341.649 25.608"/><path class="cls-1" d="M318.84,47.4205a22.1406,22.1406,0,0,1-10.4834,2.4755h-2.6523a3.5857,3.5857,0,0,1-2.0127-.6005,3.5221,3.5221,0,0,0,3.0127,1.6005h2.6523a22.53,22.53,0,0,0,9.1924-1.8554Z"/><path class="cls-1" d="M393.4484,36.6519c-2.8974,8.5029-11.01,13.2441-21.4365,13.2441H356.8664a3.4849,3.4849,0,0,1-2.9941-1.52,13.28,13.28,0,0,1-5.9424,1.52h-3.4893a6.3869,6.3869,0,0,1-3.4843-1.3291,6.2943,6.2943,0,0,0,4.4843,2.3291H348.93a13.28,13.28,0,0,0,5.9424-1.52,3.4849,3.4849,0,0,0,2.9941,1.52h15.1455c10.7481,0,19.0537-5.0253,21.7051-14.0283Z"/><path class="cls-1" d="M285.88,45.29l-11.6553,4.3271a3.9153,3.9153,0,0,1-3.36-.4912,3.8843,3.8843,0,0,0,4.36,1.4912l10.8311-4.0214A5.2,5.2,0,0,1,285.88,45.29Z"/><path class="cls-1" d="M302.2434,47.3345a21.1977,21.1977,0,0,1-10.501,2.5615h-1.7442a3.9872,3.9872,0,0,1-2.2841-.8154,4.1871,4.1871,0,0,0,3.2841,1.8154h1.7442a21.3085,21.3085,0,0,0,10.125-2.3671A3.6374,3.6374,0,0,1,302.2434,47.3345Z"/><polygon class="cls-1" points="277.645 40.683 278.888 40.244 281.785 23.118 290.718 23.118 290.906 22.118 280.785 22.118 277.645 40.683"/><polygon class="cls-2" points="316.988 0.041 309.59 0.041 308.194 7.369 315.592 7.369 316.988 0.041"/><path class="cls-2" d="M385.7385,33.6812c-1.6758,4.5361-6.0029,8.0264-14.7266,8.0264H360.1936l1.0468-5.793,14.9356-1.6055a3.3411,3.3411,0,0,0,3.0713-2.7217l3.0009-13.1914a3.6828,3.6828,0,0,0-3.5595-4.3969H360.8918a3.6779,3.6779,0,0,0-3.63,3.0708l-3.59,20.3056c-0.2471.5674-2.2608,4.82-6.9512,4.82h-1.6748l3.21-19.7514a3.7267,3.7267,0,0,0-2.6524-4.188l-14.3769-4.2573,0.5586-3.001-7.1895-2.1636-4.43,24.6436-0.0381-.0069c-1.3252,5.0957-7.0488,7.4688-10.6084,7.4688l5.0254-26.9409h-7.6074L303.135,34.0669a10.97,10.97,0,0,1-9.67,6.8731l4.3965-22.6138a3.5,3.5,0,0,0-3.5595-4.3271H276.7141a3.4542,3.4542,0,0,0-3.42,2.792l-4.8857,27.8471c-0.5576,3.0713,2.583,4.7461,4.8164,3.9785L284.88,44.29a4.3782,4.3782,0,0,0,4.1181,4.6064h1.7442a21.1977,21.1977,0,0,0,10.501-2.5615,3.5383,3.5383,0,0,0,3.4609,2.5615h2.6523A22.1406,22.1406,0,0,0,317.84,46.4205l-0.4326,2.4062h7.6075l4.8857-27.3594,10.748,3.1407L337.927,42.3355a5.7208,5.7208,0,0,0,5.5136,6.56H346.93a13.28,13.28,0,0,0,5.9424-1.52,3.4849,3.4849,0,0,0,2.9941,1.52h15.1455c10.7481,0,19.0537-5.0253,21.7051-14.0283ZM363.8928,20.9786h10.539l-1.5361,6.4907L362.427,28.9351ZM287.1135,35.9839l-10.4688,3.6993,3.1407-18.565h10.12Z"/></svg>