<svg id="Layer_3" data-name="Layer 3" xmlns="http://www.w3.org/2000/svg" viewBox="0 0 79.5973 126"><defs><style>.cls-1{fill:#335c64;fill-rule:evenodd;}</style></defs><title>sif-logo</title><path class="cls-1" d="M69.7536,119.1865c-0.042-.0722-0.083-0.1455-0.125-0.2187a6.2494,6.2494,0,0,1-.4326-3.3233l0.0166-.2-0.1973-.7685-0.11-.167c-0.2187-.3359-0.4541-0.65-0.6611-0.9277a4.65,4.65,0,0,1-1.041-1.9307l-0.04-.2236-0.4639-.7637-0.18-.1387c-0.0684-.0527-0.1377-0.1045-0.2148-0.16-0.042-.0313-0.1123-0.085-0.1778-0.1348l0.0362-.24-0.5391-1.2266-0.0147-.01,0.0362-.5888-0.3369-.7979a6.1623,6.1623,0,0,0-.253-1.9814c-0.0234-.0918-0.0468-0.1866-0.07-0.2793l0.32-.3448-0.9853-.8769-0.9971-1.3584-0.2041.36a0.2278,0.2278,0,0,0-.0107-0.0273,4.0517,4.0517,0,0,0-.88-2.99,4.3644,4.3644,0,0,1-.3272-0.5332L61.87,99.0342l-0.8086-1.0449-0.001-.001c-0.042-.3028-0.0693-0.6445-0.0967-0.98-0.125-1.5693-.2968-3.7158-2.2656-4.6934l-0.332-.164,0.0117-.1993-0.7617-1.0312c-0.0069-.0273-0.0147-0.0586-0.0235-0.0957a4.2,4.2,0,0,0-.4257-1.1445l0.3828-.1026a0.72,0.72,0,0,0,.5859-0.7431V79.6924a0.7216,0.7216,0,0,1,.586-0.7432l2.7353-.7334a0.72,0.72,0,0,0,.5859-0.7431V75.2852a0.3973,0.3973,0,0,0-.5859-0.43l-10.0029,2.68a0.7232,0.7232,0,0,0-.586.7441v2.1875a0.4063,0.4063,0,0,0,.586.43l2.7353-.7324q0.586-.1583.586,0.4277v8.2988a0.9548,0.9548,0,0,0-.1846.1,2.3618,2.3618,0,0,1-.3066.1729,1.7947,1.7947,0,0,1-.0733.6406,3.2182,3.2182,0,0,1,.5645-0.0732v0.0058a0.4065,0.4065,0,0,0,.5869.4287l0.5488-.1474a2.3,2.3,0,0,1,.499,1.0918,0.6839,0.6839,0,0,0,.2617.58l0.4649,0.63-0.0449.7276-0.3662.52a1.6981,1.6981,0,0,0-.5938.9248c-0.01.0234-.0205,0.0488-0.03,0.0733a1.1,1.1,0,0,1,.1592.0654l0.1065,0.084c0.08-.0537.1582-0.1026,0.2334-0.1494a1.174,1.174,0,0,0,.69-0.7354l0.8672-.4238c1.3506,0.6709,1.48,2.28,1.5947,3.7a8.9683,8.9683,0,0,0,.2617,1.81c0.0166,0.0049.0313,0.0078,0.0449,0.0117,0.0752,0.02.16,0.043,0.25,0.0762l0.3877,0.5029a2.7508,2.7508,0,0,0,.52,1.0371,2.5915,2.5915,0,0,1,.5966,2.4327,4.23,4.23,0,0,1,.3467.832,1.122,1.122,0,0,0,.5811.9277h0.001a0.8658,0.8658,0,0,0,.2675-0.0371l0.4229,0.1016,0.0234-.04,0.0391,0.0547,0.0586,0.0137,0.0166,0.0147-0.0293.0322,0.2109,0.2871c0.0391,0.1787.0821,0.3525,0.125,0.5224a4.2823,4.2823,0,0,1,.1543,2.0567c0.0537,0.0391.1123,0.081,0.1719,0.1308l0.2109,0.5-0.0439.6934c0.0176,0.0371.0342,0.0742,0.0508,0.11a1.1323,1.1323,0,0,0,.2295.3945l0.2588,0.5889a1.0777,1.0777,0,0,0,.6728,1.1816c0.0654,0.0488.1309,0.0967,0.1953,0.1465l0.2285,0.376a5.6956,5.6956,0,0,0,1.2647,2.4443c0.206,0.2764.4189,0.5615,0.6172,0.8652l0.0966,0.3789a7.3052,7.3052,0,0,0,.5733,3.9922c0.0508,0.09.1035,0.1807,0.1553,0.2715q0.0468,0.0747.1025,0.1553c0.4648,0.7012,1.4316,2.1582.2461,3.456l-0.5117.1944c-0.0508-.0059-0.1006-0.01-0.1494-0.0127a5.0323,5.0323,0,0,0-2.4453.5869,5.3256,5.3256,0,0,1-2.1709.5879l-0.584-.4453a2.2648,2.2648,0,0,0-1.7491-1.7862,1.61,1.61,0,0,0-.1689-0.0019l-0.6348-.4971c-0.0107-.0586-0.0185-0.1162-0.0273-0.1758-0.0068-.0517-0.0176-0.12-0.0274-0.1709l-0.6347-.5918a0.5559,0.5559,0,0,0-.127-0.4394,0.9331,0.9331,0,0,0-.3369-0.2354l-0.76.3076a5.94,5.94,0,0,0-1.5849-.5664,9.9116,9.9116,0,0,1-1.1709-.35,3.0664,3.0664,0,0,1-2.4268,1.003l-0.0644.0058-0.4258-.124c-0.1895-.1465-0.3838-0.3008-0.5811-0.459a7.9877,7.9877,0,0,0-3.2587-1.874l-0.4346-.7432c-0.2149-.0908-0.4268-0.19-0.6289-0.3a2.296,2.296,0,0,1-.8623.8379l-0.8067-.8437c0.1133-.1983.2285-0.3936,0.3428-0.5909l0.1465-.2519a4.76,4.76,0,0,0-.8086-0.543c-0.7969-.4638-2-1.165-1.6807-2.5869l0.2139-.0693a1.0064,1.0064,0,0,1,.0537-0.4942,4.256,4.256,0,0,1-.7314-1.6884,4.7043,4.7043,0,0,1,.164-1.6133,5.4278,5.4278,0,0,0,.1778-1.2764c-0.01-.0352-0.02-0.0742-0.0274-0.1172l0.0186-.0537H44.3542l-0.0039-.043-0.0039-.0351a1.1933,1.1933,0,0,0-.1836-0.4092,1.4337,1.4337,0,0,1-.2471-0.6465,1.6046,1.6046,0,0,1,.2158-0.7588c0.0274-.0576.0674-0.1406,0.083-0.1855a1.3646,1.3646,0,0,0-.0039-0.1651,3.98,3.98,0,0,1-.1279-0.6152l-0.002-.0146c-0.0068-.0528-0.0117-0.1075-0.0166-0.1612a3.6181,3.6181,0,0,1-.0136-1.9658,2.2872,2.2872,0,0,1,.4775-0.8057,0.5785,0.5785,0,0,0,.2178-0.5712l0.3652-.4092c0.002-.0108.0039-0.0225,0.0049-0.0342L45.0788,101.2c0.0185-.0225.0361-0.0459,0.0537-0.0684a3.0828,3.0828,0,0,1,.7314-1.3339,3.1415,3.1415,0,0,0,.5918-0.9522,1.2918,1.2918,0,0,1-.1338-0.041l-0.2148-.2754a0.8474,0.8474,0,0,1-.4453.0957,0.7867,0.7867,0,0,1-.1553-0.0234l-0.8408.3759-0.1-.081a2.1027,2.1027,0,0,0-1.1211-.582c-0.0371.03-.0733,0.0615-0.11,0.0908a4.36,4.36,0,0,0-.5078.457l-0.917-.0068a1.6371,1.6371,0,0,0-.4756-0.1846c-0.0634-.0186-0.1289-0.0361-0.1914-0.0557l0.2217-1.1884a0.3572,0.3572,0,0,0-.3349.165,1.1885,1.1885,0,0,0-.14-0.8057,0.2647,0.2647,0,0,0-.2075-0.167,0.2921,0.2921,0,0,0-.0845.0069l-0.7065-.4229a1.1935,1.1935,0,0,0-.0489-0.1318l-0.0117-.0068c-0.0307-.0577-0.07-0.1192-0.11-0.1827-0.0249-.0371-0.0532-0.08-0.0835-0.122a4.0316,4.0316,0,0,0-.917-0.6651c-0.1792-.1074-0.3648-0.2246-0.5484-0.3506l0.6993-.1875a0.7065,0.7065,0,0,0,.5854-0.7421V91.625a0.3966,0.3966,0,0,0-.5854-0.4287l-4.7286,1.2666a0.4061,0.4061,0,0,1-.5859-0.4287v-0.625a0.7237,0.7237,0,0,1,.5859-0.7442l3.0284-.8105a0.7209,0.7209,0,0,0,.5864-0.7432V86.9238a0.3972,0.3972,0,0,0-.5864-0.43l-3.0284.8106a0.4054,0.4054,0,0,1-.5859-0.4277V86.251a0.72,0.72,0,0,1,.5859-0.7422l4.7286-1.2676a0.7206,0.7206,0,0,0,.5854-0.7422V81.31a0.3958,0.3958,0,0,0-.5854-0.4278l-8.2056,2.1973a0.7217,0.7217,0,0,0-.5859.7432V96.3262a0.4062,0.4062,0,0,0,.5859.43l6.0757-1.628a6.599,6.599,0,0,0,1.3525,1.0088,4.4963,4.4963,0,0,1,.6016.4l0.0063,0.0078c0.0152,0.0244.03,0.0469,0.043,0.0684l0.1157,0.39,1.21,0.7256L39.85,99.4561l1.0337,0.32c0.0644,0.02.13,0.0381,0.1943,0.0576,0,0,.0664.0195,0.0957,0.0273l0.1777,0.2051L43.37,100.083l0.3057-.3447c0.0351,0.0283.5058,0.4131,0.5058,0.4131a3.2725,3.2725,0,0,0-.1631.4257l-0.6484.8008,0.1064,0.086,0.02,0.12a3.3209,3.3209,0,0,0-.6064,1.1006,4.7382,4.7382,0,0,0-.03,2.5195c0.0039,0.041.0088,0.0791,0.0137,0.1172l0.0019,0.0215c0.02,0.1523.0459,0.3056,0.08,0.458a2.4841,2.4841,0,0,0-.2529,1.1875,2.56,2.56,0,0,0,.417,1.1992l0.0019,0.0039,0.02,0.1133c0.0019,0.0185.0058,0.0361,0.0088,0.0537a5.62,5.62,0,0,1-.15.8779,5.7147,5.7147,0,0,0-.1806,2.0342,4.6392,4.6392,0,0,0,.54,1.5693l-0.0586.2569c-0.4736,2.1152,1.1446,3.24,2.0479,3.78l-0.3692.6406,2.0664,2.16,0.81-.42a2.9422,2.9422,0,0,0,.3457-0.209l0.2588,0.4414,0.5615,0.0928a7.25,7.25,0,0,1,2.6993,1.626c0.2031,0.1621.4023,0.3213,0.5986,0.4707l0.1806,0.14,0.8663,0.253,0.2929-.0254a4.9556,4.9556,0,0,0,2.6524-.8272c0.1865,0.0518.3662,0.0977,0.5381,0.1407a4.9336,4.9336,0,0,1,1.2744.44l0.5136,0.2978,0.4112-.166,0.4092,0.3809,0.0742,0.41L60.89,123.792l0.4609-.0264h0.0235a1.27,1.27,0,0,1,.6543.8975l0.1084,0.3935L63.37,125.998,63.778,126a6.3819,6.3819,0,0,0,2.66-.6885,3.9431,3.9431,0,0,1,1.8858-.4883c0.0342,0.002.0674,0.0039,0.1016,0.0088l0.2871,0.0293,1.0507-.4,0.1954-.2129c1.8271-2,.3535-4.22-0.1309-4.9482C69.8278,119.3,69.7731,119.2188,69.7536,119.1865Z"/><path class="cls-1" d="M12.1715,24.1934a2.0545,2.0545,0,0,0,.6011-0.2691,2.3538,2.3538,0,0,1,1.32-.415,1.5933,1.5933,0,0,1,.5254.126l0.0889,0.1093a1.386,1.386,0,0,1,.5254-0.08,0.9771,0.9771,0,0,1,.49.1689c0.1387-.0713.2774-0.1367,0.4146-0.2007a3.6333,3.6333,0,0,0,.7964-0.4512l0.0507-.05c0.03-.0293.0606-0.0586,0.0894-0.0888a1.0082,1.0082,0,0,0,.2173-0.5347l0.53-.5239c0.4082-.0489.5776-0.3853,0.8652-1.1406a3.5477,3.5477,0,0,1,.8774-1.4922,1.1981,1.1981,0,0,1-.0908-0.5728l0.8086-.5264a0.274,0.274,0,0,0-.043-0.0063,0.4369,0.4369,0,0,0-.4072.2436,0.4709,0.4709,0,0,0,.0147-0.0493,0.8539,0.8539,0,0,1,.6074-0.6606l0.0215-.0054a1.3322,1.3322,0,0,1,.3476-0.0264,0.9719,0.9719,0,0,1,.4326.127,1.4291,1.4291,0,0,0,.2349-0.4268,0.73,0.73,0,0,1-.5312-0.5908l0.1269-.5229c0.0737-.0879.1465-0.1636,0.2173-0.2364a2.1935,2.1935,0,0,0,.2158-0.246l0-.021c-0.0019-.07-0.0024-0.1358-0.0014-0.2007v-0.001c0.0019-.0889.0063-0.1768,0.0136-0.2627-0.4087-1.65,1.2945-2.5176,2.2725-2.9224L23.79,12.37l0.9243-.6118a0.4158,0.4158,0,0,0-.1943-0.061,0.37,0.37,0,0,0-.2154.0464c0.0162-.0113.0591-0.0489,0.09-0.0762a1.5031,1.5031,0,0,1,1.0063-.45,18.4,18.4,0,0,0,2.7617-3.9385,2.0819,2.0819,0,0,0,.0821-0.3115A1.688,1.688,0,0,1,28.9425,5.77l0.0249-.3994,0.5049-.2344c0.001-.0219.0015-0.0468,0.003-0.0752l0.541-.59c0.0176-.0015.0356-0.0034,0.0542-0.0039a5.0835,5.0835,0,0,1,.9038-1.229,5.4911,5.4911,0,0,0,.5639-0.6856l0.5157-.2768a7.4977,7.4977,0,0,0,2.6909-.563,12.8339,12.8339,0,0,1,1.6333-.4849l0.1963-.0083c2.16,0.2593,3.8437,1.396,4.2158,2.81,0.04,0.0142.0845,0.0288,0.1206,0.04a2.0257,2.0257,0,0,1,.4854.21l0.03,1.0029a1.1,1.1,0,0,1-.7353.2144c-0.0537-.0034-0.104-0.01-0.1519-0.0181a8.0386,8.0386,0,0,0,2.7056,2.1739,2.538,2.538,0,0,1,.7949.3671,9.7934,9.7934,0,0,0,3.06.7227,7.1524,7.1524,0,0,0,1.97-.1348L49.443,8.644a2.862,2.862,0,0,0,.9571.1885,6.5508,6.5508,0,0,0,.747.0025c0.0557-.0127.1114-0.024,0.168-0.0342,0.085-.0147.1621-0.0259,0.24-0.0337l0.0059,0a2.7892,2.7892,0,0,1,.4043-0.0142,6.3274,6.3274,0,0,0,.7285-0.1518,4.2087,4.2087,0,0,0,1.1045-.6177,6.9713,6.9713,0,0,1,1.3594-.7861,3.0178,3.0178,0,0,1,.7588-0.1743,1.5891,1.5891,0,0,0,.4365-0.0953c0.4824-.2353.9648-0.4912,1.43-0.7382a15.19,15.19,0,0,1,3.9785-1.6607l0.6553,0.3008a0.365,0.365,0,0,0-.0733-0.0933L62.36,4.75a1.0406,1.0406,0,0,1,.169.1607,3.9978,3.9978,0,0,1,3.8144,2.6513c0.0186,0.0332.0352,0.0669,0.0528,0.1006l-0.1612.1548,0.1621-.0313C66.41,7.854,66.42,7.9233,66.4294,7.9917c0.0146,0.0244.03,0.0527,0.0449,0.0835A7.7707,7.7707,0,0,1,68.34,11.0205c0.0479,0.11.0967,0.2207,0.1455,0.33,0.02,0.0239.04,0.0478,0.0606,0.0713a3.3579,3.3579,0,0,1,1.9736,3.6587l-0.4619.5219a0.975,0.975,0,0,0-.4248.3282,3.4733,3.4733,0,0,1-.3652.3462l-0.2159.1093a4.8611,4.8611,0,0,1-1.624.1236c-0.1484-.0088-0.2939-0.021-0.4394-0.0327-0.1319-.0118-0.2618-0.0225-0.39-0.03a3.4511,3.4511,0,0,0-.6748.0078,2.6869,2.6869,0,0,0-.7979.2353c-0.1152.0743-.2255,0.1543-0.3417,0.2388l-0.0411.03c-0.0683.0488-.1377,0.0986-0.206,0.1455l-0.0137.0093c-0.0654.0444-.126,0.0844-0.1846,0.1206a4.7236,4.7236,0,0,0-.625.7329s-0.2851.4526-.3857,0.6113a22.1936,22.1936,0,0,0-.9922,2.0693,15.7081,15.7081,0,0,1-1.3428,2.6207,2.2221,2.2221,0,0,1-.6259,1.7246c-0.0127.0708-.0254,0.1411-0.04,0.21l0.0147,0.22c-0.0332.0913-.07,0.1866-0.1153,0.292-0.03.0718-.0625,0.1436-0.0957,0.2149a11.4948,11.4948,0,0,1-.7373,1.6352A10.4491,10.4491,0,0,0,58.35,30.2207a1.0291,1.0291,0,0,1-.1944.4453,25.1933,25.1933,0,0,1-.1748,5.5156l-3.4707.93a0.815,0.815,0,0,0-.6064.7681V50.3442a0.4381,0.4381,0,0,0,.6064.4434l2.1885-.5864a0.8133,0.8133,0,0,0,.6055-0.7676V46.3467a0.8139,0.8139,0,0,1,.6054-0.7681l0.7823-.2095a0.1514,0.1514,0,0,1,.1562.0557L60.88,48.8076a0.3647,0.3647,0,0,0,.45.1533l2.2265-.5971a0.8744,0.8744,0,0,0,.6445-1.2276l-2.07-3.2939a0.24,0.24,0,0,1,.0576-0.27,5.5974,5.5974,0,0,0,1.4844-4.2271c0-3.0542-1.3-4.1806-4.4306-3.4751a26.612,26.612,0,0,0,.1611-4.9477,2.4837,2.4837,0,0,0,.1338-0.438,9.2789,9.2789,0,0,1,.9394-2.3638,13.0686,13.0686,0,0,0,.7852-1.7378c0.0293-.0649.0576-0.1294,0.084-0.1909,0.0537-.127.1006-0.2437,0.14-0.3579l0.085-.2349-0.0059-.1011a3.5034,3.5034,0,0,0,.624-1.833,18.7917,18.7917,0,0,0,1.2608-2.5283c0.292-.666.5947-1.3545,0.9209-1.9316,0.0947-.1494.2969-0.4683,0.3555-0.5615a3.5329,3.5329,0,0,1,.372-0.45q0.0556-.0368.1172-0.0791l0.0117-.0083c0.0772-.0533.1543-0.108,0.2295-0.1622l0.041-.03c0.0762-.0552.15-0.1074,0.2178-0.1548a1.4847,1.4847,0,0,1,.3711-0.0991,2.4851,2.4851,0,0,1,.4365.0009c0.1162,0.0074.2364,0.0171,0.3653,0.0279,0.1523,0.0127.3076,0.0259,0.4629,0.0356a6.0751,6.0751,0,0,0,2.0234-.1655l0.1191-.0317,0.4327-.22,0.0966-.0761a4.5881,4.5881,0,0,0,.4912-0.4615l0.0323-.0341,0.17-.0411L71.6833,15.6l0.0439-.38a4.4828,4.4828,0,0,0-2.2695-4.6787l-0.0049-.01A10.0517,10.0517,0,0,0,67.7145,7.583L67.52,7.1938,67.361,6.3613l-0.1768.0337a5.3662,5.3662,0,0,0-4.2607-2.67l0.001,0-1.0186-.4678-0.3906.0811a16.0634,16.0634,0,0,0-4.3047,1.7783c-0.4316.229-.8769,0.4653-1.3154,0.6812-0.0391.0063-.0957,0.0136-0.1406,0.02a4.1806,4.1806,0,0,0-1.0469.25A8.0947,8.0947,0,0,0,53.109,6.98a4.13,4.13,0,0,1-.7382.4477,4.7041,4.7041,0,0,1-.49.1065,4.06,4.06,0,0,0-.4453.0224l-0.0215.0025C51.3112,7.57,51.21,7.5845,51.1012,7.604c-0.0361.0064-.0713,0.0132-0.1074,0.0205-0.1836.0064-.3574,0.0044-0.5176-0.0058A1.9,1.9,0,0,1,49.93,7.53l-0.1767-.0772-0.7559-.0752-0.1885.041a5.9416,5.9416,0,0,1-1.6337.1094,8.5386,8.5386,0,0,1-2.5635-.59A3.78,3.78,0,0,0,43.7048,6.52a8.1764,8.1764,0,0,1-1.0459-.6621L42.5924,3.6011l-0.54-.3467a2.5051,2.5051,0,0,0-.3174-0.1719A6.1626,6.1626,0,0,0,36.7189.0112L36.6208,0l-0.3931.0166-0.0962.0205a13.9834,13.9834,0,0,0-1.7856.5264,6.3789,6.3789,0,0,1-2.2813.4961l-0.3115-.003-1.0645.5713-0.17.2617a4.5762,4.5762,0,0,1-.4414.5274,6.8285,6.8285,0,0,0-.9365,1.209L28.6242,4.19l-0.8252.3833-0.0376.601A3.2879,3.2879,0,0,0,27.0568,6.71c-0.0073.0346-.0161,0.0752-0.0244,0.1123a16.9771,16.9771,0,0,1-2.2515,3.26,2.907,2.907,0,0,0-1.1889.6719c-0.0122.0112-.0274,0.0239-0.04,0.0342,0.03-.0244.0566-0.0425,0.0723-0.0532l0.1313,0.1992-0.9321.6177c-2.4692,1.2045-2.6963,2.8169-2.5283,3.8413q-0.0681.0724-.1421,0.16l-0.1821.2178-0.2408.9878a1.9993,1.9993,0,0,0-.9316,1.0083l-0.4922.3208-0.0459.5977a2.5086,2.5086,0,0,0-.0059.3086,5.9269,5.9269,0,0,0-.705,1.4174c-0.0645.169-.1187,0.3028-0.1617,0.4l-0.1264.0152-1.1226,1.11-0.0473.3565a4.6285,4.6285,0,0,1-.4151.2129,2.1771,2.1771,0,0,0-.3686-0.0557,2.4258,2.4258,0,0,0-.3672.0059,2.8089,2.8089,0,0,0-.7725-0.1607,3.5117,3.5117,0,0,0-1.9971.5713c-0.0781.0444-.1909,0.1084-0.25,0.1357l-0.3393.0562-0.5449.5532c-0.1128.0259-.2593,0.0537-0.3277,0.0669a4.3528,4.3528,0,0,0-2.4111,1.08A3.8991,3.8991,0,0,1,7.7614,24.61L7.279,24.4087l-1.7627.78-0.1006.2827c-0.0391.0215-.0737,0.042-0.1055,0.0605l-0.3262.044-0.4487.6816-0.03.0064-0.8315.5986-0.13.2275a2.5132,2.5132,0,0,0-.1557,2.0713,3.1855,3.1855,0,0,0,.3056.6553c0.0039,0.0308.0088,0.0625,0.0152,0.0947l-0.086.0366-0.1748.52a2.4318,2.4318,0,0,0-.125,1.0185,5.6807,5.6807,0,0,0-.8,2.7964L2.12,34.8076l-0.0059.4033c-0.0014.0855-.0122,0.2115-0.0249,0.35-0.0566.6358-.2036,2.2828,1.23,3.0025a5.439,5.439,0,0,0,.6968,1.082,3.0173,3.0173,0,0,0,.6675,1.7285l0.0283,1.0366,0.5337,0.3477a3.3,3.3,0,0,1,.4541.82,5.1022,5.1022,0,0,0,1.7842,2.3682l0.2612,0.17,0.11,0.0083c-0.1446.1606-.3428,0.3379-0.4751,0.47A46.7536,46.7536,0,0,0,2.737,51.8008,11.4042,11.4042,0,0,0,.0636,60.2715a11.0948,11.0948,0,0,0,3.7149,7.541,10.1007,10.1007,0,0,0,8.8633,1.7725c0.1928,1.2109.4233,2.43,0.6191,3.6875a17.2282,17.2282,0,0,1,.3657,3.9668,3.9155,3.9155,0,0,1-2.3637,3.35c-1.2549.55-3.7017,0.5488-4.024-1.041a2.6474,2.6474,0,0,0,2.42-2.9844,2.734,2.734,0,0,0-3.5455-2.25c-1.37.3906-2.3154,1.8447-2.11,3.91,0.0049,0.0508.0327,0.2129,0.0561,0.31,0.4141,1.73,2.1548,2.7686,3.8267,3.2373a6.917,6.917,0,0,0,3.124.168c2.895-.5811,4.189-3.2012,3.77-6.669-0.2495-2.0674-.6782-4.0576-1.041-6.0215a7.3231,7.3231,0,0,0,3.6861-3.0117,7.9877,7.9877,0,0,0,.9848-5.5151c-0.6318-3.4619-3.247-6.2715-7.5688-5.5151-0.29-1.4537-.6084-2.9649-0.9009-4.418A3.5293,3.5293,0,0,1,9.8,50.1411a3.4949,3.4949,0,0,1,.8164-0.9009,14.5315,14.5315,0,0,0,3.855-8.2724,18.8994,18.8994,0,0,0-.9571-9.0894,3.6616,3.6616,0,0,0-1.5195-1.9414c-1.0225-.4878-1.9214.3828-2.3911,0.9282a11.2363,11.2363,0,0,0-2.3643,5.5723c-0.4863,2.8726.1221,5.6792,0.58,8.2144a4.74,4.74,0,0,1-1.0122-1.5762A3.0075,3.0075,0,0,0,5.91,41.74l-0.0273-.99a0.26,0.26,0,0,0-.0278.1865,1.7125,1.7125,0,0,0-.1778-0.2636,1.5484,1.5484,0,0,1-.3755-1.4253A4.1988,4.1988,0,0,1,4.19,37.4614l-0.2231.0611c-0.8023-.3262-0.72-1.2452-0.6656-1.8531C3.3146,35.51,3.3283,35.36,3.33,35.2285l0.4291-.5591a4.524,4.524,0,0,1,.8658-2.9809A1.0592,1.0592,0,0,1,4.6,30.856l0.332-.14a1.078,1.078,0,0,1,.1572-0.354,0.8014,0.8014,0,0,1,.0415-0.21,0.9572,0.9572,0,0,1-.2412-0.6079,0.8287,0.8287,0,0,1,.0078-0.13,2.0025,2.0025,0,0,1-.3559-0.6363,1.3179,1.3179,0,0,1,.0556-1.081l0.4063-.2925a1.24,1.24,0,0,1,.251-0.0259l0.4419-.6709a0.63,0.63,0,0,0,.1587-0.083,1.3283,1.3283,0,0,1,.5634-0.2251,1.2888,1.2888,0,0,1,.0684-0.31l0.8066-.3565a6.6153,6.6153,0,0,0,1.04.2774c0.1631,0.0351.3315,0.0717,0.5019,0.1123a2.4973,2.4973,0,0,1,2.1011-1.2491,2.5323,2.5323,0,0,0,.7549-0.2109,0.0994,0.0994,0,0,0-.0215.04ZM60.3131,40.2461a1.4692,1.4692,0,0,1-1.4072,1.7051l-0.9961.2671a0.4373,0.4373,0,0,1-.6054-0.4434V40.3291a0.8125,0.8125,0,0,1,.6054-0.7676l0.9961-.2676C59.8444,39.043,60.3131,39.0342,60.3131,40.2461ZM11.5724,58.4985c2.7964,0.02,4.6455,2.5328,4.4463,5.5152a4.86,4.86,0,0,1-2.5049,3.9677c-0.684-3.1054-1.2866-6.2929-1.97-9.3984C11.5422,58.543,11.54,58.5029,11.5724,58.4985ZM9.8844,55.46a7.6359,7.6359,0,0,0-2.8706,2.11,5.942,5.942,0,0,0-1.4355,3.5176C5.45,63.769,7.3434,65.3877,9.1247,66.3213c0.2793,0.1465.6562,0.3955,0.76,0.084a0.5093,0.5093,0,0,0-.2812-0.4219,4.92,4.92,0,0,1-1.8291-3.855,3.77,3.77,0,0,1,2.729-3.4614c0.6684,3.2246,1.2891,6.4961,1.9136,9.7656A8.43,8.43,0,0,1,5.41,67.418a7.1565,7.1565,0,0,1-3.0952-5.6553C1.8385,55.8491,6.1164,53.7246,8.9,50.9287a0.2351,0.2351,0,0,0,.0556-0.0561C9.2917,52.375,9.5568,53.9473,9.8844,55.46ZM10.7565,35.03c0.416-.3731,1.2983-0.8863,1.9136-0.3657a2.8425,2.8425,0,0,1,.647,2.1665,8.2587,8.2587,0,0,1-1.604,4.7275,19.6926,19.6926,0,0,1-2.544,3.1348L9.1608,44.687a1.7079,1.7079,0,0,1-.31.2046C8.0954,41.4385,8.7673,36.8149,10.7565,35.03Z"/><path class="cls-1" d="M24.5041,59.1792c4.63-1.2407,4.9033-4.7715,4.9033-6.061V44.4238a0.3967,0.3967,0,0,0-.586-0.4287l-2.1879.586a0.7216,0.7216,0,0,0-.586.7436v7.6582c0,1.5044-.0981,2.4487-1.5434,2.8364s-1.5435-.5053-1.5435-2.0092V46.1519a0.3973,0.3973,0,0,0-.5864-0.4292l-2.188.5864a0.72,0.72,0,0,0-.5864.7427v8.6943C19.6,57.0356,19.8732,60.42,24.5041,59.1792Z"/><path class="cls-1" d="M35.9523,45.0933c1.1128-.2984,1.4448.16,1.5234,1.0766,0.0391,0.3994.254,0.5176,0.6446,0.335l2.208-1.08a0.7877,0.7877,0,0,0,.5083-0.78c-0.0977-1.4985-.7818-4.0112-4.8843-2.9116-4.63,1.2407-4.9038,4.772-4.9038,6.0615v4.8838c0,1.29.2734,4.6748,4.9038,3.4341s4.9038-4.772,4.9038-6.062V47.4131a0.3972,0.3972,0,0,0-.5864-0.4292l-3.9072,1.0474a0.7205,0.7205,0,0,0-.5865.7426v1.563a0.406,0.406,0,0,0,.5865.4292l1.1328-.3037a1.95,1.95,0,0,1-1.543,2.29c-1.4458.3872-1.5439-.5049-1.5439-2.0093V47.9292C34.4084,46.4253,34.5065,45.4805,35.9523,45.0933Z"/><path class="cls-1" d="M49.2751,52.19l2.1884-.5859a0.7637,0.7637,0,0,0,.586-0.8218V42.499c0-2.4619-.3906-4.9746-4.7862-3.7973s-4.7861,3.9-4.7861,6.3628v8.2832c0,0.43.2139,0.6064,0.585,0.5073l2.1894-.5864a0.7065,0.7065,0,0,0,.585-0.7432v-1.7a0.7224,0.7224,0,0,1,.5859-0.7432l1.6807-.45a0.3975,0.3975,0,0,1,.5869.4292v1.7A0.4,0.4,0,0,0,49.2751,52.19ZM48.1032,46.272l-1.6807.45a0.4055,0.4055,0,0,1-.5859-0.4287V44.1636a1.5143,1.5143,0,0,1,1.4267-1.7886c1.29-.3457,1.4268.0864,1.4268,1.0244v2.11A0.7424,0.7424,0,0,1,48.1032,46.272Z"/><path class="cls-1" d="M22.279,65.6846L20.13,66.26a0.72,0.72,0,0,0-.5855.7422V79.5068a0.4053,0.4053,0,0,0,.5855.4287l2.1494-.5761a0.7188,0.7188,0,0,0,.5864-0.7412V66.1123A0.3967,0.3967,0,0,0,22.279,65.6846Z"/><path class="cls-1" d="M34.5866,72.3105c0-4.4931-6.1734-2.8007-6.4468-4.2509a1.3276,1.3276,0,0,1,1.1524-1.208,1.1922,1.1922,0,0,1,1.7.8535c0.059,0.376.2544,0.499,0.645,0.3174l2.227-1.086a0.7859,0.7859,0,0,0,.5078-0.78c-0.1171-1.376-1.0546-3.7432-5.0795-2.6646-4.376,1.1724-4.7276,4.7251-4.7081,5.3062,0,4.4931,5.88,2.5468,6.2515,4.1084,0.1172,0.496-.5859,1.2509-1.5434,1.5078A1.2,1.2,0,0,1,27.5734,73.39c-0.0391-.4-0.2544-0.5185-0.6455-0.3359l-2.207,1.0811a0.7862,0.7862,0,0,0-.5083.78c0.0981,1.4981.977,3.958,5.08,2.8584C33.9225,76.5332,34.5866,72.8975,34.5866,72.3105Z"/><path class="cls-1" d="M36.5793,75.5283L44.2956,73.46a0.7069,0.7069,0,0,0,.5869-0.7432V70.5293a0.3971,0.3971,0,0,0-.5869-0.4287l-4.3565,1.166a0.4049,0.4049,0,0,1-.5859-0.4277V61.6948a0.3976,0.3976,0,0,0-.5864-0.43l-2.1875.587a0.721,0.721,0,0,0-.587.7426V75.1A0.4062,0.4062,0,0,0,36.5793,75.5283Z"/><path class="cls-1" d="M52.7946,71.1836l2.1875-.5869a0.7648,0.7648,0,0,0,.5869-0.8213V61.4917c0-2.4619-.3916-4.9751-4.7871-3.7969s-4.7871,3.9-4.7871,6.3618v8.2842c0,0.43.2158,0.6065,0.5859,0.5078l2.1885-.5869a0.7081,0.7081,0,0,0,.5859-0.7431v-1.7a0.72,0.72,0,0,1,.587-0.7422l1.6787-.4512c0.3916-.1035.5869,0.0381,0.5869,0.43v1.6992A0.4021,0.4021,0,0,0,52.7946,71.1836Zm-1.1738-5.919-1.6787.45a0.4056,0.4056,0,0,1-.587-0.4287v-2.13a1.5153,1.5153,0,0,1,1.4268-1.7891c1.2891-.3452,1.4258.0874,1.4258,1.0249v2.1108A0.74,0.74,0,0,1,51.6208,65.2646Z"/><path class="cls-1" d="M67.2311,53.6387l-2.1875.5864a0.7217,0.7217,0,0,0-.5869.7427v6.3105c0,0.1953-.1562.2764-0.2344,0.1216L61.5651,55.606a0.5126,0.5126,0,0,0-.6836-0.2662l-2.8721.77a0.7223,0.7223,0,0,0-.5859.7431V69.3564a0.4064,0.4064,0,0,0,.5859.43L60.1979,69.2a0.7233,0.7233,0,0,0,.586-0.7441V62.1455c0-.1953.1572-0.2764,0.2343-0.1216l2.6573,5.7945a0.5142,0.5142,0,0,0,.6845.2666l2.8711-.77a0.7211,0.7211,0,0,0,.5869-0.7432V54.0679A0.3975,0.3975,0,0,0,67.2311,53.6387Z"/><path class="cls-1" d="M74.7126,51.6343l-4.3565,1.167a0.7413,0.7413,0,0,0-.5859.7627V66.0488a0.4055,0.4055,0,0,0,.5859.4287l4.3565-1.167c3.6738-.9843,4.8847-2.8139,4.8847-6.018V55.0137C79.5973,51.81,78.3864,50.65,74.7126,51.6343Zm1.4658,8.5937a1.4885,1.4885,0,0,1-1.4063,1.7056l-1.0556.2827a0.4057,0.4057,0,0,1-.586-0.4292V56.0044a0.7216,0.7216,0,0,1,.586-0.7432l1.0556-.2827c0.9375-.251,1.4063-0.26,1.4063.9512V60.228Z"/><path class="cls-1" d="M28.4211,83.707L20.02,85.958a0.7219,0.7219,0,0,0-.586.7432V99.2051a0.406,0.406,0,0,0,.586.43l2.3056-.6172a0.7226,0.7226,0,0,0,.586-0.7442V94.2881a0.7214,0.7214,0,0,1,.5864-0.7432l3.2236-.8633a0.7214,0.7214,0,0,0,.5855-0.7441V89.75a0.3971,0.3971,0,0,0-.5855-0.43l-3.2236.8643a0.4063,0.4063,0,0,1-.5864-0.4287V89.13a0.72,0.72,0,0,1,.5864-0.7422l4.9229-1.3193a0.7223,0.7223,0,0,0,.5864-0.7432V84.1367A0.3978,0.3978,0,0,0,28.4211,83.707Z"/><path class="cls-1" d="M45.1442,93.1953c4.63-1.24,5.2939-4.876,5.2939-5.4619,0-4.4941-6.1738-2.8008-6.4472-4.252a1.3251,1.3251,0,0,1,1.1533-1.206,1.1919,1.1919,0,0,1,1.7.8525c0.0576,0.375.2539,0.4981,0.6436,0.3164l2.2275-1.0859a0.7868,0.7868,0,0,0,.5078-0.78c-0.1172-1.376-1.0547-3.7422-5.0791-2.664-4.3769,1.1738-4.728,4.7246-4.709,5.3056,0,4.4932,5.8809,2.5469,6.252,4.1074,0.1172,0.4971-.586,1.251-1.543,1.5088a1.2014,1.2014,0,0,1-1.72-1.0244c-0.0381-.4-0.2539-0.5185-0.6446-0.3349l-2.208,1.0791a0.7868,0.7868,0,0,0-.5073.7812C40.1618,91.835,41.0417,94.2949,45.1442,93.1953Z"/></svg>