<svg id="Layer_1" data-name="Layer 1" xmlns="http://www.w3.org/2000/svg" viewBox="0 0 720 759.6203"><defs><style>.cls-1{fill:#151e20;}.cls-2{fill:#6ba2b9;}</style></defs><title>sss-logo</title><path class="cls-1" d="M451.6607,182.7358c-23.5757-22.0254-50.99-37.8419-79.962-51.8148-20.8033-10.0329-40.6043-22.4608-59.7628-35.43C304.413,90.398,298.7446,81.5371,294.1843,73.31c-9.9017-17.8623-6.5-34.49,7.7811-45.2144a44.7185,44.7185,0,0,1,5.249-3.3757,33.7427,33.7427,0,0,0,3.0024,9.8409c0.446,0.9955.9492,1.9655,1.5853,3.2757-3.5423-1.3234-6.0275-3.6418-8.9893-5.6283a4.1282,4.1282,0,0,0,.5384,2.99,36.5617,36.5617,0,0,0,8.893,12.5522c0.4742,0.4355.9319,0.8889,1.3975,1.3341,2.5846,1.6178,5.2036,3.1157,8.4509,2.3945a36.0886,36.0886,0,0,1,11.1693-.4032l2.82,0.2074,2.8115,0.2159c1.55,0.7081.81,1.98,0.759,3.0825l-0.0681,2.2941q0.081,1.0941.1612,2.1878l0.6479,1.9636,1.4367,2.7306,1.709,2.2537,1.7676,1.677c0.5454,0.3362,1.1017.6546,1.6331,1.0115a19.9385,19.9385,0,0,0,12.7538,3.5294c0.73-.0484,1.464-0.0353,2.1965-0.0508,0.2293-.076.4578-0.1521,0.687-0.2281q1.5529-.472,3.1065-0.944l2.3616-1.667a4.0311,4.0311,0,0,0-.2981-0.4578,73.6937,73.6937,0,0,1-9.05-12.2133,3.7357,3.7357,0,0,1-.7981-2.9888c9.7264,2.6733,21.211,1.0533,28.2511,10.018q1.6022,2.3862,3.1957,4.7578h-0.0008a31.3233,31.3233,0,0,1-6.4884,6.9316q-0.304.1884-.6088,0.3769l-0.5454-.0481c-3.9719.1462-7.3374-1.4892-10.5464-3.5857a1.3311,1.3311,0,0,0-.3881-0.3269q-0.2735-.2761-0.5485-0.552a2.6857,2.6857,0,0,0-.4789-0.234q0.18,0.3587.3592,0.7171c-0.0016.15,0.8576,1.1718,0.8263,1.3283q0.8862,0.8766,1.7716,1.7535l0.9108,0.8762q0.9143,1.0565,1.83,2.113c0.572,0.3585.3944,1.3874-.8279,2.33a42.313,42.313,0,0,1-18.0231,2.9c20.2227,2.8072,31.2355-7.2451,34.93-7.4824,3.083-.198,6.5033,3.1839,6.5033,3.1839l-0.054-.093c1.22,1.0771,2.4789,2.1137,3.8045,3.0832,1.9273,1.41,3.9367,2.706,5.9086,4.0536q2.9825,1.6808,5.9642,3.3616,0.1315,0.612.2621,1.2235l0.3028-.9975c3.0556,1.28,6.0964,2.5984,9.17,3.8319a57.2487,57.2487,0,0,0,16.8165,4.425,23.79,23.79,0,0,0,15.4926-4.1209,32.1953,32.1953,0,0,0,8.418-8.6644c-1.011.2108-1.565,0.3189-2.1159,0.4424-6.8429,1.5347-13.3634.2653-19.7626-2.216-8.51-3.3-14.5661-9.5648-19.8925-16.6206-6.454-8.55-12.6224-17.3157-19.1147-25.8346-4.8084-6.3082-9.8508-12.4442-14.9487-18.5225-5.01-5.9737-11.4925-9.9967-18.4887-13.2638A100.21,100.21,0,0,0,344.65,1.3057c-15.8478-2.8111-30.0618-.5128-39.2294,1.5576-0.21.0442-.4171,0.0935-0.6252,0.14-0.633.1457-1.2426,0.29-1.8224,0.43L302.949,3.44c-0.0923.0238-.1831,0.0519-0.2754,0.0762-0.4132.106-.8161,0.2154-1.1894,0.3345C286.03,8.2873,273.028,19.1481,265.08,35.0858a88.5654,88.5654,0,0,1-8.0213,12.6029C245.4937,63.4742,238.35,80.13,235.6054,96.974c-3.3452,4.61-10.2287,12.9773-12.0731,15.4944-30.7926,42.0282-30.2511,90.2231,1.2567,131.7265,25.1422,33.12,58.6282,55.8478,93.8638,76.5538,17.3314,10.1845,34.9649,19.9905,51.5271,31.3271,27.2667,19.2659,34.9727,36.4077,43.2726,58.1761,18.3,48.0012-6.3969,91.1951-35.443,110.87-21.7877,14.7572-44.6693,16.1088-68.2583,4.4676-19.8291-9.7853-29.7128-26.3874-30.2214-47.916-0.4492-19.0533,8.1935-34.4749,24.8183-43.9059,14.4158-8.1782,28.7073-5.67,41.9423,4.2873,14.5606,10.9549,15.61,25.054,11.9158,41.454,1.4977-4.4358,3.6808-8.7678,4.3741-13.3261,2.9962-19.711-6.9689-36.7445-25.6438-44.667-20.6429-8.7575-46.27-1.962-59.9083,15.886-26.0265,34.06-20.4058,73.8568,14.606,103.4073,40.52,34.2,103.4791,24.1331,136.3734-21.5411,18.556-25.7655,26.3058-51.77,25.2792-78.02,16.4918-30.5877,32.0211-61.5953,41.1066-95.47C510.8594,284.3907,500.1964,228.0783,451.6607,182.7358Zm-98.1785-140.64c-6.2419-2.5191-11.354-6.97-16.6029-11.6324-1.1424,4.0484,1.0728,6.8924,2.4547,10.438a34.29,34.29,0,0,1-3.7583-.9051,47.7822,47.7822,0,0,1-14.9417-9.275,88.8183,88.8183,0,0,1-8.3664-8.3588c13.3877-5.1247,27.6493-1.9462,39.5338,9.0566A49.1845,49.1845,0,0,1,362.2986,45.182,87.6614,87.6614,0,0,1,353.4823,42.0962Zm-59.6947,222.94c-18.7258-11.815-37.1018-25.3961-52.254-41.3908C216.349,197.06,214.76,164.54,225.8587,130.9722a31.0045,31.0045,0,0,1,8.5965-13.1054c1.1033,21.1039,9.0683,42.0636,23.8605,61.5486,25.1422,33.12,58.6282,55.8478,93.8638,76.5537,17.5795,10.33,35.4743,20.2635,52.2407,31.8069,38.213,26.3083,47.6115,64.3675,42.6857,108.2033q-0.3052,2.7147-.6722,5.41c-6.6324-36.4106-40.6645-72.6035-71.6223-90.867C348.1371,294.7856,319.9462,281.54,293.7876,265.0358ZM446.0581,403.5964c0.0282-.0376.0516-0.0791,0.0775-0.1187-0.0117.081-.0227,0.1619-0.0344,0.2428C446.087,403.679,446.0722,403.6378,446.0581,403.5964Zm30.9288-49.6469c-1.2,5.898-2.9547,11.6832-5.2177,20.5042-1.1471-18.5455-.62-33.7938-3.2888-48.46-6.6277-36.4137-29.1815-61.9857-60.1423-80.251-26.6744-15.7365-54.8652-28.9817-81.0239-45.4863-18.7258-11.815-37.1011-25.3961-52.254-41.3908-25.1845-26.5847-26.7737-59.1048-15.6749-92.6728,3.9187,32.3,24.16,52.9939,49.466,69.1263,33.8389,21.5724,69.5158,40.3371,102.7834,62.7159C469.4343,236.9163,491.1476,284.313,476.9869,353.9494Z"/><path class="cls-1" d="M410.9461,104.2047a3.1,3.1,0,0,0-.6276-0.8684q-0.4871.6535-.9734,1.307c-1.957,3.054-5.1206,3.5213-8.2686,3.4435a108.69,108.69,0,0,1-11.5691-1.0411c-3.6519-.4845-7.2662-1.2522-10.897-1.8953l-1.6323-.2662q-6.3945-1.8916-12.7875-3.7833-1.0153-.2591-2.03-0.5182-0.3838.1592-.7684,0.3186l4.1269,1.7313a103.4414,103.4414,0,0,0,27.8019,6.8555c7.8539,0.9544,15.696,1.9464,23.45,3.5474a9.0559,9.0559,0,0,0,1.6425.177,8.6653,8.6653,0,0,0,1.3921-.2485c-0.8028-.37-1.2809-0.5933-1.7622-0.8112A11.8705,11.8705,0,0,1,410.9461,104.2047Z"/><path class="cls-1" d="M547.8791,113.3284c-4.817,4.8245-9.861,8.933-16.1952,11.1407a45.7307,45.7307,0,0,1-20.2509,4.7908l-1.6894.0605,1.4413,0.8413c2.65,0.8016,5.3264,1.527,7.9454,2.4194,7.2928,2.4853,14.714,1.7857,22.1375.9626a22.4472,22.4472,0,0,0,3.4093-.968c-1.8592-1.8-4.2552-2.5181-5.3272-5.0907,2.3443-.5023,4.6519-0.8466,6.8632-1.5117,2.2551-.6784,4.4148-1.6722,6.9329-2.6506C549.8235,120.5445,548.0668,117.419,547.8791,113.3284Z"/><path class="cls-1" d="M419.38,107.4574q-0.3-.7245-0.6017-1.4492c-1.8162-4.4326-3.878-8.7794-4.7309-13.5479a5.512,5.512,0,0,1-.0274-0.8214H414.019q-0.0622-.66-0.1252-1.3193-0.1256.6115-.25,1.2229l-1.7184,8.0441c-0.1612.7877-.3224,1.5754-0.4632,2.2635,2.4,1.7059,4.6879,3.3328,6.9767,4.96q0.2594,0.2528.52,0.5052c0.3044,0.27.5665,0.5626,0.87,0.8327Q419.6048,107.8022,419.38,107.4574Z"/><path class="cls-1" d="M310.02,56.1475c-0.0016-.0095-0.0063-0.0181-0.0078-0.0276h0c-0.0634-.0882-0.1268-0.1764-0.0939-0.1309-0.0243-.0511.0219,0.047,0.0673,0.1451l0.0172-.0092-0.0172.0093Z"/><path class="cls-1" d="M336.9592,86.7329q0.2876,0.267.5759,0.5339,0.4542,0.24.9093,0.4792,1.2653,0.8489,2.5314,1.6976l0.23,0.1277,0.2606,0.0349q0.2758,0.1231.5532,0.2461-0.2242-.327-0.4476-0.6544a0.8762,0.8762,0,0,0-.4977-0.2018h0q-0.9472-.8058-1.8952-1.6115a0.9913,0.9913,0,0,0-.4531-0.226q-0.2289-.2455-0.457-0.4908c-5.9837-5.0848-11.5363-10.5863-15.7555-17.2549-1.9562-3.0926-3.5361-6.4234-5.5307-10.0953-0.306-.1972-1.0728-0.6921-1.84-1.1869q-2.5611-.9917-5.123-1.9832c0.8326,3.6438,2.7465,6.7718,4.7834,9.8192C320.5746,74.6017,328.1968,81.28,336.9592,86.7329Z"/><path class="cls-1" d="M604.2936,60.4083a28.089,28.089,0,0,0-10.7256-.08,102.641,102.641,0,0,0-20.7971,5.6791,264.12,264.12,0,0,0-36.71,16.97c-6.3773,3.5435-12.7382,7.1467-18.8776,11.0811a79.9565,79.9565,0,0,0-28.5523,32.0687c-3.1456,6.2553-6.3844,12.4894-9.0526,18.9512a124.6527,124.6527,0,0,0-4.64,15.0676,58.1935,58.1935,0,0,0-1.7935,10.7564,29.1755,29.1755,0,0,0,1.3537-2.9626c1.6049-4.82,3.0079-9.7128,4.7536-14.4806,2.4461-6.68,5.2826-13.2,9.8821-18.7553,2.8514-3.4442,6.2771-5.9785,10.9134-6.42-1.7637-.6745-3.529-1.3453-5.29-2.0248-0.9108-.3511-1.9335-0.5591-2.42-1.9606,1.6769-1.7577,3.42-3.5844,5.1637-5.4115l3.2-3.1176a25.19,25.19,0,0,1,2.763-2.2778,5.378,5.378,0,0,1,2.0087-.3229q1.1456,0.0688,2.2919.1382l1.0118,0.1092q0.36-.1188.7222-0.2379a2.0076,2.0076,0,0,1,.5274.0285q0.3439-.13.6894-0.2595c0.1862-.0156.3732-0.0314,0.5595-0.0472q1.3028-.5122,2.6065-1.0242,1.0212-.5115,2.0439-1.0226c1.8005-.5471,2.709.4581,3.4,1.83-1.1417,2.2681-2.1159,3-5.7177,4.3535q-2.1749.6417-4.35,1.283l-1.3615.6672q-0.9554.2956-1.91,0.5916-0.6162.1429-1.2332,0.2856l1.1182,0.1159,2.5689-.1656a27.8984,27.8984,0,0,0,11.6756-3.0771,39.2765,39.2765,0,0,0,13.87-10.8c0.7606-.9256,1.5493-1.8276,2.31-2.7524,4.7216-5.7369,11.1036-7.9844,18.225-8.6719a2.824,2.824,0,0,1,.788.312,69.1281,69.1281,0,0,1-4.4336,15.11c12.0269,2.1016,23.625,2.1555,34.4406-4.1834a25.0241,25.0241,0,0,0,9.3962-9.177c0.115-.16.2293-0.3192,0.3443-0.4788,0.1753-.158.35-0.3159,0.6667-0.6014-0.3412.0514-.475,0.0718-0.6088,0.092q-0.34.1728-.68,0.3457l0.0133,0.0257c-2.5971,1.3877-5.1433,2.8859-7.8108,4.1233a30.29,30.29,0,0,1-5.5033,1.7931,16.6925,16.6925,0,0,1-3.5024.0189c2.9242-1.5422,5.3757-2.6789,7.6614-4.0846,2.3584-1.45,3.62-3.81,4.7067-6.6912a43.9742,43.9742,0,0,1-3.824,2.2733c-5.4391,2.51-10.9134,2.2255-16.365.0065a45.11,45.11,0,0,1-11.7851-7.1347,242.4093,242.4093,0,0,0-24.5914,5.2474l-0.6573.2458q-0.2817.0813-.5634,0.1622-0.6749.2478-1.349,0.4957a2.686,2.686,0,0,1,.1354-0.4853q-0.2864.2138-.572,0.4287,0.2852-.2146.572-0.4292,0.6549-.365,1.31-0.73,0.37-.1711.741-0.3419a127.2385,127.2385,0,0,1,32.1315-11.802c6.9368-1.5911,13.937-2.77,21.0944-2.3629a34.3017,34.3017,0,0,1,5.7364.8242,5.3675,5.3675,0,0,1,3.8859,2.5991c-0.2762.9877-.0649,2.21-0.43,3.516a4.8292,4.8292,0,0,0,1.3459-.6723c2.2324-1.1007,4.4336-2.2648,6.652-3.395,4.4586-2.2721,5.9258-6.3311,6.5236-10.9084,0.036-.2727-0.0164-0.5566.0141-0.8307C610.4831,63.4534,609.9494,61.7805,604.2936,60.4083ZM535.0884,98.2116a15.8935,15.8935,0,0,1-1.0994,3.1655,53.5651,53.5651,0,0,1-4.3945,6.3144c-2.9609,3.4646-4.8436,3.7374-8.9267,1.6165a25.3787,25.3787,0,0,1-3.4367-2.269,7.9564,7.9564,0,0,1-1.2027-1.5384A92.3762,92.3762,0,0,1,535.0884,98.2116Z"/><path class="cls-1" d="M306.2411,643.1219q-9.7141,0-14.8157,5.9463Q286.3213,655.02,280.01,666.91l0.161-4.0727q0-9.4481-4.6426-14.5831-4.6439-5.1324-13.1156-5.1324-10.5931,0-18.5756,9.0423A95.3576,95.3576,0,0,0,229.66,674.0788l-9.2954,17.2719q-4.0743,7.1724-7.6581,12.4639a100.1559,100.1559,0,0,1-7.5751,9.8574q-3.995,4.5642-8.7169,4.5628a1.8266,1.8266,0,0,1-1.4687-.57,2.58,2.58,0,0,1-.4879-1.7108,13.6125,13.6125,0,0,1,1.1418-4.2368q1.1355-2.9326,1.9541-5.051l27.7-61.9149H193.48L169.8565,693.794a94.63,94.63,0,0,1-5.2161,9.3692,109.3255,109.3255,0,0,1-7.3312,10.102q-4.3987,5.4606-8.3095,5.4578a2.5964,2.5964,0,0,1-2.0371-.8139,3.5576,3.5576,0,0,1-.7319-2.4449q0-4.2332,5.8649-15.1527,5.8662-10.9128,8.229-16.1311,2.3578-5.2121,4.8061-10.2646a32.49,32.49,0,0,0,2.6055-12.7079,19.3662,19.3662,0,0,0-4.3987-12.7909q-4.3987-5.2923-12.8716-5.2953-12.0606,0-18.82,7.6572c-4.3836,4.9674-9.1621,11.9238-14.3178,20.7923v-0.0006l-0.0151.0251c-0.1383.2408-.2716,0.4467-0.4125,0.6907l0.0327,0.0154-2.3163,4.305a29.3941,29.3941,0,0,0-3.9032-9.6968,35.486,35.486,0,0,0-10.998-11.3243q-6.3566-3.9894-16.619-9.6119-10.2649-5.6229-14.5039-8.0655a23.8685,23.8685,0,0,1-7.4116-6.8433,15.821,15.821,0,0,1-3.1764-9.4507q0-7.82,7.0872-12.4652a27.5433,27.5433,0,0,1,15.3967-4.6426q10.7553,0,16.619,3.8287a20.6818,20.6818,0,0,1,8.146,9.2862,38.7759,38.7759,0,0,1,2.852,10.1033,93.3928,93.3928,0,0,1,.5709,11.16q0,4.0757-.1635,7.0058-0.1622,2.9345-.4879,5.051h2.9325L131,601.4107h-3.0959a40.4808,40.4808,0,0,1-5.704,7.82,8.8394,8.8394,0,0,1-6.5163,2.6074q-8.1523-3.5829-16.1311-7.1686a56.9522,56.9522,0,0,0-19.8784-3.2588q-21.1824,0-36.3339,12.22-15.154,12.22-15.1527,28.6761,0,16.6205,15.9676,27.8625,13.6865,7.66,23.5427,13.1162,9.8574,5.4611,13.1181,9.6949a14.6908,14.6908,0,0,1,3.2594,9.1237q0,7.3323-6.0309,13.0348-6.0284,5.7054-15.8041,5.7037a37.7693,37.7693,0,0,1-18.6561-4.4811,25.5971,25.5971,0,0,1-11.4054-11.894A62.2613,62.2613,0,0,1,27.7,691.3507a69.6979,69.6979,0,0,1-1.1418-13.5233q0-1.9556.1635-6.4361,0.1584-4.48.3244-6.7618H24.1136L0,723.9369H2.769a39.0454,39.0454,0,0,1,7.9021-10.5088q5.1343-4.9683,8.3925-4.97,10.2649,5.3762,20.6932,10.4274a47.4661,47.4661,0,0,0,20.8542,5.051q23.7892,0,39.2688-11.5686,15.4746-11.5654,15.4772-29.3275c0-.8941-0.1056-1.7548-0.176-2.6263l4.2654-7.8656-0.0151-.0072c1.65-3.0362,3.531-6.1541,5.6989-9.379a70.5591,70.5591,0,0,1,6.1919-8.147,36.4242,36.4242,0,0,1,5.377-4.8879q2.686-1.956,4.3157-1.9551a2.39,2.39,0,0,1,1.8762.6511,3.207,3.207,0,0,1,.5684,2.1179q0,2.12-5.8649,13.1162-5.8662,11-9.2073,18.1676-3.3386,7.1724-5.294,12.5466a28.8993,28.8993,0,0,0-1.9541,9.7763q0,9.6141,5.4575,14.3373a19.3645,19.3645,0,0,0,13.1156,4.7253q11.5664,0,18.0047-7.4943,6.4358-7.4921,15.3967-22.974-0.4866,1.7938-1.3028,5.2135a30.0167,30.0167,0,0,0-.8149,7.0061q0,8.6394,4.4817,13.4419,4.4779,4.8038,12.3007,4.8067,11.5664,0,18.5756-7.9841,7.0017-7.9806,15.9676-23.1353l9.4588-17.4351a85.86,85.86,0,0,1,5.7844-10.02,96.3691,96.3691,0,0,1,6.5993-8.9609,38.73,38.73,0,0,1,5.621-5.6222,7.8294,7.8294,0,0,1,4.6426-1.9548,1.8152,1.8152,0,0,1,1.63.7325,3.9933,3.9933,0,0,1,.49,2.2006,13.8414,13.8414,0,0,1-.6539,3.8284,42.1632,42.1632,0,0,1-1.7907,4.8067l-33.24,78.86q-5.21,12.0559-7.985,14.42a12.0535,12.0535,0,0,1-6.27,2.8517q-3.5046.4885-5.1331,0.6511c-1.084.1066-1.9567,0.1628-2.608,0.1628V759.62h62.4041v-2.6077q-8.9634,0-11.4859-.57a2.9472,2.9472,0,0,1-2.5276-3.1774,17.2089,17.2089,0,0,1,1.2248-4.7253q1.2185-3.4207,2.5225-6.8433,1.3053-3.4207,5.46-13.4419T264.53,709.274q0,8.473,4.5622,11.4042,4.5571,2.9345,11.8933,2.9331,20.2015,0,34.46-17.6775,14.2561-17.6792,14.2574-35.6023,0-12.7085-7.0067-19.9595A22.1671,22.1671,0,0,0,306.2411,643.1219Zm-8.88,31.1209a239.5824,239.5824,0,0,1-10.671,24.765q-4.8891,9.4519-7.9021,14.42-3.018,4.9721-6.9262,4.9693a4.2021,4.2021,0,0,1-3.6643-1.71,8.4934,8.4934,0,0,1-1.2223-4.97q0-5.8648,5.621-20.6109,5.621-14.7442,9.8562-23.7895a69.1911,69.1911,0,0,1,8.8-14.5815q4.5609-5.5384,8.3095-5.5408A2.9966,2.9966,0,0,1,302.25,648.58a8.1434,8.1434,0,0,1,.8953,4.3182Q303.1452,658.9276,297.3607,674.2429Z"/><path class="cls-1" d="M544.0548,631.7165a15.6018,15.6018,0,0,0,10.998-4.3185,15.1484,15.1484,0,0,0,.083-21.7517,15.7024,15.7024,0,0,0-11.081-4.2355,15.48,15.48,0,0,0-10.915,4.2355,14.2248,14.2248,0,0,0-4.5622,10.9172,14.4117,14.4117,0,0,0,4.4792,10.8345A15.24,15.24,0,0,0,544.0548,631.7165Z"/><path class="cls-1" d="M720,658.1121a15.9906,15.9906,0,0,0-3.83-10.2649q-3.8291-4.7236-11.4859-4.7253-10.5931,0-16.375,7.1686-5.787,7.1724-13.2791,22.6486l-0.49-.1628a40.4516,40.4516,0,0,0,1.4662-4.8882,26.7668,26.7668,0,0,0,.8149-6.5176q0-8.4706-3.8278-13.36-3.8328-4.8882-11.6494-4.8882a26.8088,26.8088,0,0,0-16.785,5.7835q-6.6659,5.148-15.535,21.35a39.4586,39.4586,0,0,0-1.3329-6.36,27.3231,27.3231,0,0,0-6.4358-10.6714,34.194,34.194,0,0,0-9.9392-7.5773,28.174,28.174,0,0,0-12.3837-2.5247q-22.9743,0-38.5345,15.0713-15.5576,15.0729-15.5576,33.1574c0,1.4612.1434,2.7618,0.249,4.1032l-0.0553-.03q-1.9579,3.5871-4.97,8.0655-3.018,4.484-5.7844,7.9027a28.1107,28.1107,0,0,1-5.7015,5.4578q-2.935,2.04-4.7256,2.0365a2.593,2.593,0,0,1-2.935-2.9318q0-3.0944,6.0309-13.7689,6.0246-10.669,9.4488-17.7589,3.4216-7.088,5.377-12.4655a28.48,28.48,0,0,0,1.9541-9.6135q0-9.6118-5.294-14.4187a17.953,17.953,0,0,0-12.4642-4.8067,24.1177,24.1177,0,0,0-14.7453,5.051q-4.1573,3.1043-9.2048,10.4651c0.005-.18.0428-0.3439,0.0428-0.5259a15.9906,15.9906,0,0,0-3.83-10.2649q-3.8291-4.7236-11.4859-4.7253-10.5931,0-16.375,7.1686-5.787,7.1724-13.2791,22.6486l-0.49-.1628a40.4516,40.4516,0,0,0,1.4662-4.8882,26.7668,26.7668,0,0,0,.8149-6.5176q0-8.4706-3.8278-13.36-3.8291-4.8882-11.6494-4.8882a26.7968,26.7968,0,0,0-16.7824,5.7835,41.682,41.682,0,0,0-7.94,8.9288c-0.6816-3.54-2.91-6.7471-6.8759-9.58q-7.1828-5.1324-18.4448-5.1324a59.7486,59.7486,0,0,0-41.7109,16.22q-17.7117,16.22-17.713,35.7812,0,14.0227,10.5126,21.2764a38.9687,38.9687,0,0,0,22.5644,7.2532q13.2187,0,22.5216-6.5235a66.9647,66.9647,0,0,0,16.1562-16.1471L403.41,699.35a49.6925,49.6925,0,0,1-6.9388,8.61,40.2832,40.2832,0,0,1-8.2416,6.6628,33.5753,33.5753,0,0,1-6.8533,3.167,22.99,22.99,0,0,1-6.6873.8938,8.3966,8.3966,0,0,1-7.4267-3.7426q-2.5276-3.7428-2.5276-12.8559a52.6406,52.6406,0,0,1,.8174-8.22A59.5854,59.5854,0,0,1,367.35,685.81q21.5747,0,36.608-6.4346c9.2048-3.941,14.1317-9.7154,14.8811-17.2773,1.4461-2.1921,2.7212-4.0048,3.7926-5.3714a31.8628,31.8628,0,0,1,4.97-5.1321q2.603-2.1159,4.5622-2.1179a1.9184,1.9184,0,0,1,1.63.6514,3.5933,3.5933,0,0,1,.4879,2.1176,14.2415,14.2415,0,0,1-.6514,3.9928,23.777,23.777,0,0,1-1.4662,3.8284l-28.0269,61.9149h31.7742l23.6257-49.0427a125.4762,125.4762,0,0,1,8.7169-16.05q4.1535-6.2713,6.5968-6.2733a1.3744,1.3744,0,0,1,1.63,1.4665q-1.63,2.7728-3.0129,5.2139a10.6953,10.6953,0,0,0-1.3858,5.378,11.1571,11.1571,0,0,0,4.3182,9.3677,16.1509,16.1509,0,0,0,10.1831,3.34,14.0658,14.0658,0,0,0,11.0785-5.051,17.3186,17.3186,0,0,0,3.41-6.0054,65.4436,65.4436,0,0,1,5.1029-7.1108,49.0411,49.0411,0,0,1,7.0042-7.1686q2.69-2.0357,3.83-2.0365a2.0133,2.0133,0,0,1,2.2786,2.28,12.3064,12.3064,0,0,1-1.1393,4.0743q-1.1431,2.77-4.8866,10.4274-3.75,7.6609-8.7169,17.4335-4.9721,9.7759-6.5188,13.9317a26.6466,26.6466,0,0,0-1.5467,9.368,18.7769,18.7769,0,0,0,4.56,12.9534q4.5609,5.1324,13.3621,5.1324,12.0568,0,18.0047-6.3547c3.5813-3.8275,7.985-9.9458,13.1181-18.12,0.8978,5.27,2.7111,9.5192,5.5858,12.5812q6.2736,6.6839,11.8154,9.2878a28.7352,28.7352,0,0,0,12.3812,2.6061q22.6461,0,38.371-14.9085t15.7261-33.32c0-.3075-0.06-0.6064-0.0679-0.9129,1.3656-2.57,3.0959-5.5411,5.2865-9.0259q3.58-5.7007,5.9479-8.7169a31.8628,31.8628,0,0,1,4.97-5.1321q2.603-2.1159,4.5622-2.1179a1.9184,1.9184,0,0,1,1.63.6514,3.5933,3.5933,0,0,1,.4879,2.1176,14.2415,14.2415,0,0,1-.6514,3.9928,23.777,23.777,0,0,1-1.4662,3.8284l-28.0269,61.9149h31.7742l23.6232-49.0427a125.7691,125.7691,0,0,1,8.7194-16.05q4.1535-6.2713,6.5968-6.2733a1.3744,1.3744,0,0,1,1.63,1.4665q-1.63,2.7728-3.0129,5.2139a10.6953,10.6953,0,0,0-1.3858,5.378,11.1571,11.1571,0,0,0,4.3182,9.3677,16.1459,16.1459,0,0,0,10.1831,3.34,14.0658,14.0658,0,0,0,11.0785-5.051A17.9513,17.9513,0,0,0,720,658.1121ZM388.5236,671.1205q-9.2878,11.4386-20.6932,12.7346,1.7919-4.7043,4.6452-10.4629,2.8482-5.7587,6.9237-12.7377a63.6417,63.6417,0,0,1,7.6581-10.8685q3.58-3.8937,7.17-3.8951,2.2786,0,2.93,1.2993a8.5193,8.5193,0,0,1,.6539,3.7325Q397.8114,659.6819,388.5236,671.1205Zm211.63,3.5295q-6.764,16.538-12.7082,27.9436-5.9492,11.4056-9.0439,14.99-3.0972,3.5853-5.8649,3.5845a4.82,4.82,0,0,1-3.9108-1.548,7.0613,7.0613,0,0,1-1.3028-4.6439q0-6.027,5.8649-20.7737,5.8662-14.7442,12.3007-27.5365,6.4358-12.7887,9.8587-16.7821,3.4216-3.9913,6.3553-3.9928a4.9221,4.9221,0,0,1,3.9913,1.4665,6.1866,6.1866,0,0,1,1.2223,4.0743Q606.9166,658.1132,600.1538,674.65Z"/><path class="cls-1" d="M679.5026,713.6041a1.519,1.519,0,0,1,1.5112,1.6543,1.46,1.46,0,0,1-.7388,1.4087c0.3759,0.2294.5978,0.3359,0.6045,1.4907,0.0067,0.909-.0067,1.0483.2149,1.1711v0.1556h-1.115a4.6358,4.6358,0,0,1-.1076-1.1138,2.0059,2.0059,0,0,0-.1206-0.9419,0.703,0.703,0,0,0-.6448-0.2458h-1.0613v2.3014h-0.9874v-5.88h2.4449Zm-1.4575,2.588h1.182a0.7889,0.7889,0,0,0,.0806-1.5725h-1.2626v1.5725Z"/><path class="cls-1" d="M678.9078,721.9759a5.4027,5.4027,0,1,1,5.403-5.4026A5.4087,5.4087,0,0,1,678.9078,721.9759Zm0-9.7818a4.379,4.379,0,1,0,4.3793,4.3791A4.3841,4.3841,0,0,0,678.9078,712.1941Z"/><path class="cls-2" d="M306.3413,737.0971a9.0249,9.0249,0,0,0-3.3136-.5617,10.4883,10.4883,0,0,0-4.64,1.0491,7.7584,7.7584,0,0,0-2.3748,1.7674,9.2667,9.2667,0,0,0-1.7674,2.8061,5.2426,5.2426,0,0,0-.4673,3.2265,2.9791,2.9791,0,0,0,1.4731,2.0123c0.6044,0.3308,1.28.6708,2.0074,1.0095,0.71,0.3314,1.3665.6555,1.9508,0.9632a1.7348,1.7348,0,0,1,.8718,1.1734,3.88,3.88,0,0,1-.3722,2.3559,6.5609,6.5609,0,0,1-2.3577,3.0346,6.3619,6.3619,0,0,1-3.61,1.0192,4.5331,4.5331,0,0,1-1.8722-.3272,1.6142,1.6142,0,0,1-.7871-0.5788l-0.4417-.8541a1.133,1.133,0,0,0-.93-0.7256,1.5472,1.5472,0,0,0-.96.4033,2.0743,2.0743,0,0,0-.64.81c-0.3558.86-.0158,1.7637,1.01,2.6843a6.1012,6.1012,0,0,0,4.18,1.2556,9.5439,9.5439,0,0,0,5.3564-1.598,10.2732,10.2732,0,0,0,3.7443-4.794,7.5191,7.5191,0,0,0,.6945-3.15,3.4228,3.4228,0,0,0-.82-2.2475,5.8244,5.8244,0,0,0-1.662-1.2276c-0.61-.3071-1.2288-0.5836-1.8362-0.8219a8.4751,8.4751,0,0,1-1.4829-.7433,1.4364,1.4364,0,0,1-.6336-0.8895,2.7111,2.7111,0,0,1,.2644-1.6315,4.6924,4.6924,0,0,1,2.1926-2.5387,7.1585,7.1585,0,0,1,3.2911-.7749,5.4891,5.4891,0,0,1,1.7649.2467,4.15,4.15,0,0,1,1.0381.4758,1.5775,1.5775,0,0,0,.9029.4021,1.5376,1.5376,0,0,0,1.0132-.4563,2.2326,2.2326,0,0,0,.5989-0.7871,1.1431,1.1431,0,0,0,.0024-0.9011A2.2738,2.2738,0,0,0,306.3413,737.0971Z"/><path class="cls-2" d="M337.28,736.5646H325.5619a1.4751,1.4751,0,0,0-.9169.3418,1.8621,1.8621,0,0,0-.5745.7536,1.2265,1.2265,0,0,0-.025.9937v0.0006a0.9674,0.9674,0,0,0,.9285.5782h4.2147l-7.7439,18.6967a1.0813,1.0813,0,0,0,.0347,1.0655,1.1307,1.1307,0,0,0,1.0119.4478,1.619,1.619,0,0,0,1.5858-1.0357l7.9419-19.1743h4.6728a1.5951,1.5951,0,0,0,1.5042-1.1246,1.1544,1.1544,0,0,0-.0177-1.1234A1.0072,1.0072,0,0,0,337.28,736.5646Z"/><path class="cls-2" d="M367.2241,736.5646a1.8718,1.8718,0,0,0-1.361.736l-9.4674,10.34-0.8468-10.0072a1.097,1.097,0,0,0-1.0771-1.0692,1.6815,1.6815,0,0,0-.91.2742,1.6251,1.6251,0,0,0-.6464.7621,2.21,2.21,0,0,0-.1322.7829l-0.0006.0384,1.1362,12.0439-3.0912,7.4631a1.0813,1.0813,0,0,0,.0347,1.0655,1.1307,1.1307,0,0,0,1.0119.4478,1.6182,1.6182,0,0,0,1.5852-1.0357l3.1132-7.5167c0.01-.0244.0189-0.0463-0.003-0.0219l11.1447-12.0445a2.53,2.53,0,0,0,.4685-0.7457,1.07,1.07,0,0,0-.053-1.0558A1.0434,1.0434,0,0,0,367.2241,736.5646Z"/><path class="cls-2" d="M387.495,756.7746h-7.7945l7.7561-18.7259a1.0516,1.0516,0,0,0-.0384-1.0363,1.14,1.14,0,0,0-1.02-.4478,1.598,1.598,0,0,0-1.5736,1.0064l-8.4324,20.358a1.0131,1.0131,0,0,0,1.0174,1.5133h9.4979a1.5293,1.5293,0,0,0,1.4323-1.0954,1.2539,1.2539,0,0,0-.003-1.1685A0.956,0.956,0,0,0,387.495,756.7746Z"/><path class="cls-2" d="M414.7149,736.5646a1.598,1.598,0,0,0-1.5736,1.0064l-8.4324,20.358a1.0813,1.0813,0,0,0,.0347,1.0655,1.1307,1.1307,0,0,0,1.0119.4478,1.619,1.619,0,0,0,1.5858-1.0357l8.4324-20.358a1.0516,1.0516,0,0,0-.0384-1.0363A1.14,1.14,0,0,0,414.7149,736.5646Z"/><path class="cls-2" d="M446.1682,736.5646a1.5956,1.5956,0,0,0-1.573,1.0064l-6.2775,15.1546-1.3239-14.4c-0.1785-1.4555-.8219-1.7607-1.33-1.7607a1.5956,1.5956,0,0,0-1.573,1.0064l-8.433,20.358a1.0813,1.0813,0,0,0,.0347,1.0655,1.1307,1.1307,0,0,0,1.0119.4478,1.619,1.619,0,0,0,1.5858-1.0357l6.286-15.1753,1.4018,14.57c0.17,1.3568.7628,1.6413,1.2306,1.6413a1.619,1.619,0,0,0,1.5858-1.0357l8.4324-20.358a1.0516,1.0516,0,0,0-.0384-1.0363A1.14,1.14,0,0,0,446.1682,736.5646Z"/><path class="cls-2" d="M472.0885,736.5646a9.3221,9.3221,0,0,0-5.2717,1.6,10.7808,10.7808,0,0,0-3.7967,4.9993l-3.8851,9.38c-0.9851,2.3778-1.0783,4.1129-.2857,5.304,0.7823,1.1764,2.2072,1.7729,4.2354,1.7729a9.4546,9.4546,0,0,0,5.2985-1.598,10.6933,10.6933,0,0,0,3.829-5.0012l1.9252-4.6472a1.1907,1.1907,0,0,0,.0116-0.9626,0.9664,0.9664,0,0,0-.9285-0.5788h-5.2369a1.41,1.41,0,0,0-.9151.3521,1.8476,1.8476,0,0,0-.5349.7128,1.2466,1.2466,0,0,0-.042.9315,0.9453,0.9453,0,0,0,.9279.6123h3.4458l-1.2849,3.1022a7.5316,7.5316,0,0,1-2.4461,3.3276,5.7266,5.7266,0,0,1-3.461,1.0814,2.5817,2.5817,0,0,1-2.234-.7487c-0.4-.5989-0.2863-1.6991.3284-3.1826l3.8851-9.38c1.2288-2.967,3.1509-4.409,5.8766-4.409a2.766,2.766,0,0,1,2.2615.7152,2.5274,2.5274,0,0,1,.1072,2.1743,1.0674,1.0674,0,0,0,.0719,1.0272,1.1314,1.1314,0,0,0,.9955.4338,1.7123,1.7123,0,0,0,1.6346-1.1545,4.0775,4.0775,0,0,0-.2138-4.2061C475.5678,737.1221,474.1221,736.5646,472.0885,736.5646Z"/><path class="cls-2" d="M526.4562,737.0971a9.0249,9.0249,0,0,0-3.3136-.5617,10.4883,10.4883,0,0,0-4.64,1.0491,7.7584,7.7584,0,0,0-2.3748,1.7674,9.2667,9.2667,0,0,0-1.7674,2.8061,5.2426,5.2426,0,0,0-.4673,3.2265,2.9791,2.9791,0,0,0,1.4731,2.0123c0.6044,0.3308,1.28.6708,2.0074,1.0095,0.7116,0.332,1.3677.6561,1.95,0.9632a1.7337,1.7337,0,0,1,.8724,1.1734,3.88,3.88,0,0,1-.3722,2.3559,6.5609,6.5609,0,0,1-2.3577,3.0346,6.3619,6.3619,0,0,1-3.61,1.0192,4.5331,4.5331,0,0,1-1.8722-.3272,1.6142,1.6142,0,0,1-.7871-0.5788l-0.4417-.8541a1.133,1.133,0,0,0-.93-0.7256,1.5472,1.5472,0,0,0-.96.4033,2.0743,2.0743,0,0,0-.64.81c-0.3558.86-.0158,1.7637,1.01,2.6843a6.1012,6.1012,0,0,0,4.18,1.2556,9.5439,9.5439,0,0,0,5.3564-1.598,10.2732,10.2732,0,0,0,3.7443-4.794,7.5191,7.5191,0,0,0,.6945-3.15,3.4228,3.4228,0,0,0-.82-2.2475,5.8244,5.8244,0,0,0-1.662-1.2276c-0.61-.3071-1.2288-0.5836-1.8362-0.8219a8.4751,8.4751,0,0,1-1.4829-.7433,1.4364,1.4364,0,0,1-.6336-0.8895,2.7111,2.7111,0,0,1,.2644-1.6315,4.6924,4.6924,0,0,1,2.1926-2.5387,7.1585,7.1585,0,0,1,3.2911-.7749,5.4891,5.4891,0,0,1,1.7649.2467,4.1854,4.1854,0,0,1,1.0381.4758,1.5775,1.5775,0,0,0,.9029.4021,1.5376,1.5376,0,0,0,1.0132-.4563,2.2326,2.2326,0,0,0,.5989-0.7871,1.1431,1.1431,0,0,0,.0024-0.9011A2.2738,2.2738,0,0,0,526.4562,737.0971Z"/><path class="cls-2" d="M552.5313,736.3873a1.849,1.849,0,0,0-1.5334.789L536.2155,757.605a1.2643,1.2643,0,0,0-.1889.3235V757.93a1.0156,1.0156,0,0,0,.1846,1.149,1.2718,1.2718,0,0,0,.9413.3637,1.6177,1.6177,0,0,0,1.3342-.7085l3.1948-4.4395h7.513l-0.4222,3.988a0.99,0.99,0,0,0,.2071.8255,1.0246,1.0246,0,0,0,.8176.3345,2.1772,2.1772,0,0,0,.9163-0.209,1.3539,1.3539,0,0,0,.73-0.6872,1.1036,1.1036,0,0,0,.0762-0.3211l2.2152-20.6072a1.084,1.084,0,0,0-.2577-0.8688A1.2168,1.2168,0,0,0,552.5313,736.3873ZM549.48,751.6851h-5.9223l6.9964-9.7251Z"/><path class="cls-2" d="M579.2643,756.7746H571.47l7.7561-18.7259a1.0517,1.0517,0,0,0-.0384-1.0357,1.1394,1.1394,0,0,0-1.02-.4484,1.598,1.598,0,0,0-1.5736,1.0064l-8.4324,20.358a1.013,1.013,0,0,0,1.0168,1.5133h9.4979a1.53,1.53,0,0,0,1.4329-1.0954,1.254,1.254,0,0,0-.0037-1.1685A0.9538,0.9538,0,0,0,579.2643,756.7746Z"/><path class="cls-2" d="M610.9218,736.5646a9.3675,9.3675,0,0,0-5.3,1.6,10.7712,10.7712,0,0,0-3.7967,4.9993l-3.8857,9.38c-0.9851,2.3784-1.0783,4.1129-.2851,5.304,0.7816,1.1764,2.206,1.7729,4.2348,1.7729a9.4512,9.4512,0,0,0,5.2979-1.598,10.688,10.688,0,0,0,3.83-5.0012l3.8857-9.38c0.9857-2.3815,1.068-4.1184.251-5.3113C614.3505,737.1586,612.9268,736.5646,610.9218,736.5646Zm-8.4445,20.3879a2.58,2.58,0,0,1-2.2334-.7487c-0.4-.5983-0.2863-1.6991.3278-3.1826l3.8857-9.38c1.2288-2.967,3.1509-4.409,5.8766-4.409,1.19,0,1.9605.2961,2.2883,0.88,0.343,0.6111.2212,1.6662-.3521,3.051l-3.8851,9.38a7.5371,7.5371,0,0,1-2.4467,3.3276A5.7241,5.7241,0,0,1,602.4772,756.9525Z"/><path class="cls-2" d="M648.4266,737.0124a1.14,1.14,0,0,0-1.02-.4478,1.598,1.598,0,0,0-1.5736,1.0064l-6.2769,15.154-1.3239-14.4c-0.1785-1.4555-.8219-1.7607-1.33-1.7607a1.5956,1.5956,0,0,0-1.573,1.0064l-8.433,20.358a1.0813,1.0813,0,0,0,.0347,1.0655,1.1307,1.1307,0,0,0,1.0119.4478,1.619,1.619,0,0,0,1.5858-1.0357l6.286-15.1753,1.4018,14.57c0.17,1.3568.7628,1.6413,1.2306,1.6413a1.619,1.619,0,0,0,1.5858-1.0357l8.4324-20.358A1.0516,1.0516,0,0,0,648.4266,737.0124Z"/></svg>