<svg id="Layer_1" data-name="Layer 1" xmlns="http://www.w3.org/2000/svg" viewBox="0 0 333.3653 67.7177"><defs><style>.cls-1{fill:#262262;}.cls-2{fill:#414042;}.cls-3{fill:#fff;}.cls-4{fill:#054379;}.cls-5{fill:#bcbec0;}</style></defs><title>tackcon</title><path class="cls-1" d="M220.301,7.6167q2.5431-.4151,5.0759-0.7486l0.0033-.0017s0.1239-.0164.3579-0.0463q1.6345-.2126,3.262-0.3915a283.6858,283.6858,0,0,1,31.9693-1.9621h0A162.61,162.61,0,0,0,236.9161.3753a147.1613,147.1613,0,0,0-34.7069,1.7c-18.5582,3.0289-35.81,9.1626-47.9516,16.99-2.2468-5.64-7.8336-10.3228-16.374-13.6687C130.8554,2.6428,121.9023.877,111.992,0.29a143.8522,143.8522,0,0,0-25.8287.9A206.72,206.72,0,0,0,58.5275,7.3826c0.5791-.0853,1.2073-0.1625,1.8933-0.23a99.0959,99.0959,0,0,1,26.9043,1.5h0a73.9211,73.9211,0,0,1,13.0179,3.7476,67.752,67.752,0,0,1,16.0911,8.9465l4.2829,3.2294-0.66-5.3231a25.2828,25.2828,0,0,0-3.2282-8.8054q1.9394,0.5964,3.6894,1.2816c5.4216,2.124,12.0921,5.9287,13.0815,11.9917,1.0367,6.3518-4.6976,13.8586-15.7327,20.5961-11.7943,7.2007-28.177,12.78-46.13,15.71q-3.8592.63-7.6924,1.0736l-0.0015.0013s-22.112,2.67-34.1821,2.4749c14.174,2.731,29.8307,3.9462,30.2037,3.9749A135.819,135.819,0,0,0,89.829,65.5694c14.65-2.3911,28.3518-6.6335,39.6248-12.2684a88.22,88.22,0,0,0,8.3321-4.7172l0.1075,0.2554c2.32,5.5128,7.944,10.15,16.2637,13.4089,7.0279,2.7533,15.9806,4.519,25.89,5.1064A147.8433,147.8433,0,0,0,212.0063,65.59c1.4438-.2539,13.1586-2.3585,21.06-5.1431-16.2785,1.9345-32.1306-2.2808-32.1375-2.2826a73.202,73.202,0,0,1-9.2337-2.9211,67.7524,67.7524,0,0,1-16.091-8.9465l-4.2829-3.2294,0.6594,5.3233a25.2884,25.2884,0,0,0,3.2285,8.8051q-1.9393-.596-3.6895-1.2814c-5.4216-2.124-12.0921-5.9284-13.0816-11.9917-1.0367-6.3518,4.6977-13.8586,15.7328-20.596C185.9649,16.1262,202.3475,10.5468,220.301,7.6167Z"/><polygon class="cls-2" points="233.066 60.447 233.066 60.447 233.066 60.447 233.066 60.447"/><path class="cls-3" d="M174.2358,48.1115a24.1806,24.1806,0,0,0,6.7712,12.8991c-14.0664-2.9043-23.51-8.7445-24.8122-16.7214-2.5034-15.3383,26.034-32.7613,63.74-38.9154A162.9773,162.9773,0,0,1,242.56,3.25a139.2781,139.2781,0,0,0-39.9848,1.0683c-20.4383,3.3357-38.1412,10.2068-49.65,18.392C150.2661,6.4347,117.5471-1.77,79.8427,4.3836q-2.2212.3625-4.3961,0.782a73.2785,73.2785,0,0,1,42.3557,14.3672,24.1806,24.1806,0,0,0-6.7712-12.8991c14.0664,2.9043,23.51,8.7445,24.8121,16.7214,2.5034,15.3383-26.034,32.7613-63.74,38.9154a162.9791,162.9791,0,0,1-22.6251,2.1242,139.2787,139.2787,0,0,0,39.9848-1.0683c29.7761-4.86,53.7522-17.2215,61.2139-30.2216-0.9455,4.8036-4.7041,9.97-10.6887,14.8531,5.9942,14.2426,36.9161,21.0628,72.2073,15.3029q2.2212-.3625,4.3962-0.7819A73.2785,73.2785,0,0,1,174.2358,48.1115Z"/><polygon class="cls-2" points="233.066 60.447 233.066 60.447 233.066 60.447 233.066 60.447"/><path class="cls-4" d="M220.301,7.6167q2.5431-.4151,5.0759-0.7486l0.0033-.0017s0.1239-.0164.3579-0.0463q1.6345-.2126,3.262-0.3915a283.6877,283.6877,0,0,1,31.9693-1.9621h0A162.609,162.609,0,0,0,236.9161.3753a147.1611,147.1611,0,0,0-34.7069,1.7c-18.5582,3.0289-35.81,9.1626-47.9516,16.99-2.2468-5.64-7.8336-10.3228-16.374-13.6687C130.8554,2.6428,121.9023.877,111.992,0.29a143.8522,143.8522,0,0,0-25.8287.9A206.72,206.72,0,0,0,58.5275,7.3826c0.5791-.0853,1.2073-0.1625,1.8933-0.23a99.0959,99.0959,0,0,1,26.9043,1.5h0a73.9211,73.9211,0,0,1,13.0179,3.7476,67.752,67.752,0,0,1,16.0911,8.9465l4.2829,3.2294-0.66-5.3231a25.2828,25.2828,0,0,0-3.2282-8.8054q1.9394,0.5964,3.6894,1.2816c5.4216,2.124,12.0921,5.9287,13.0815,11.9917,1.0367,6.3518-4.6976,13.8586-15.7327,20.5961-11.7943,7.2007-28.177,12.78-46.13,15.71q-3.8592.63-7.6924,1.0736l-0.0015.0013s-22.112,2.67-34.1821,2.4749c14.174,2.731,29.8307,3.9462,30.2037,3.9749A135.819,135.819,0,0,0,89.829,65.5694c14.65-2.3911,28.3518-6.6335,39.6248-12.2684a88.22,88.22,0,0,0,8.3321-4.7172l0.1075,0.2554c2.32,5.5128,7.944,10.15,16.2637,13.4089,7.0279,2.7533,15.9806,4.519,25.89,5.1064A147.8437,147.8437,0,0,0,212.0064,65.59c1.4438-.2539,13.1586-2.3585,21.06-5.1431-16.2785,1.9345-32.1306-2.2808-32.1375-2.2826a73.202,73.202,0,0,1-9.2337-2.9211,67.7524,67.7524,0,0,1-16.091-8.9465l-4.2829-3.2294,0.6594,5.3233a25.2884,25.2884,0,0,0,3.2285,8.8051q-1.9393-.596-3.6895-1.2814c-5.4216-2.124-12.0921-5.9284-13.0816-11.9917-1.0367-6.3518,4.6977-13.8586,15.7328-20.596C185.9649,16.1262,202.3475,10.5468,220.301,7.6167ZM156.1949,44.2892c1.3019,7.977,10.7458,13.8171,24.8122,16.7214a24.1806,24.1806,0,0,1-6.7712-12.8991,73.2785,73.2785,0,0,0,42.3557,14.3672q-2.1761.4169-4.3961,0.782c-35.2913,5.76-66.2132-1.06-72.2074-15.3029,5.9846-4.8834,9.7433-10.0495,10.6887-14.8531-7.4617,13-31.4378,25.3618-61.2139,30.2216a139.2787,139.2787,0,0,1-39.9848,1.0683A162.9791,162.9791,0,0,0,72.1032,62.27c37.7061-6.1541,66.2434-23.5771,63.74-38.9154-1.3019-7.977-10.7458-13.8171-24.8121-16.7214a24.1806,24.1806,0,0,1,6.7712,12.8991A73.2785,73.2785,0,0,0,75.4466,5.1655q2.1762-.4169,4.3961-0.782C117.5471-1.77,150.2661,6.4347,152.9252,22.71c11.5089-8.1852,29.2118-15.0563,49.65-18.392A139.278,139.278,0,0,1,242.56,3.25,162.9774,162.9774,0,0,0,219.935,5.3738C182.2289,11.5278,153.6915,28.9509,156.1949,44.2892Z"/><path class="cls-5" d="M145.4155,36.493q-5.1335,0-10.0708-.3383C126.6534,47.844,103.494,58.838,75.15,63.4641c-5.2768.8612-10.452,1.4541-15.46,1.7977a148.63,148.63,0,0,0,29.7727-1.9354c27.1981-4.439,49.5525-15.1375,58.9066-26.8642Q146.9,36.4908,145.4155,36.493Z"/><path class="cls-5" d="M177.4927,50.4165a24.6217,24.6217,0,0,0,6.5611,11.7877,60.94,60.94,0,0,1-11.8187-3.6c-9.1386-3.2434-15.0319-8.1379-16.04-14.315a13.4949,13.4949,0,0,1,1.49-8.3q-2.23.1849-4.5094,0.3019c-1.4712,4.2209-4.9756,8.6457-10.1405,12.86,1.9941,4.7382,6.75,8.6536,13.5049,11.559,13.6212,4.858,33.7991,6.1176,55.6557,2.55,0.0755-.0123.15-0.0261,0.2254-0.0385A76.2947,76.2947,0,0,1,192.3726,57.93,71.0007,71.0007,0,0,1,177.4927,50.4165Z"/><path class="cls-4" d="M7.0257,40.1243V29.7954H0.6983V27.3941h15.317v2.4013H9.687V40.1243H7.0257Z"/><path class="cls-4" d="M10.3853,40.8226H6.3274V30.4937H0V26.6958H16.7136v3.7979H10.3853V40.8226ZM7.7239,39.426H8.9887V29.0971H15.317V28.0924H1.3966v1.0047H7.7239V39.426Z"/><path class="cls-4" d="M35.1565,40.1243H32.29l-1.6184-3.145H21.2906l-1.6184,3.145H16.8245l5.2108-10.2171c0.8-1.5821,1.7685-2.6986,3.9452-2.6986s3.1269,1.1165,3.9461,2.6986Zm-7.854-9.6779a1.4357,1.4357,0,0,0-2.6431,0l-2.1585,4.1688h6.942Z"/><path class="cls-4" d="M36.2985,40.8226H31.8632l-1.6184-3.145H21.7171l-1.6193,3.145H15.6843L21.4134,29.59c0.8083-1.5984,1.9221-3.08,4.5671-3.08,2.6131,0,3.7388,1.4784,4.5662,3.0759ZM32.7161,39.426h1.2984l-4.71-9.2005c-0.7774-1.503-1.5384-2.3185-3.3242-2.3185-1.7994,0-2.58.8492-3.3223,2.3158L17.9647,39.426h1.2811l1.6184-3.145H31.0967Zm-2.1294-4.1125H21.3534l2.6859-5.1881a2.1316,2.1316,0,0,1,3.8833,0ZM23.6483,33.917H28.299l-1.6175-3.1514a0.7432,0.7432,0,0,0-1.402.0018Z"/><path class="cls-4" d="M53.9276,29.9818H43.8588c-3.0523,0-3.4242,1.3393-3.4242,3.7779s0.3719,3.7588,3.4242,3.7588H53.9276v2.6059H43.8588c-4.578,0-6.1419-2.1776-6.1419-6.3646s1.5639-6.3656,6.1419-6.3656H53.9276v2.5877Z"/><path class="cls-4" d="M54.6259,40.8226H43.8588c-4.7307,0-6.84-2.1785-6.84-7.0629s2.1094-7.0638,6.84-7.0638H54.6259V30.68H43.8588c-2.4913,0-2.7259.8447-2.7259,3.08,0,2.2667.2237,3.06,2.7259,3.06H54.6259v4.0025Zm-10.7672-12.73c-3.917,0-5.4436,1.5893-5.4436,5.6673s1.5266,5.6664,5.4436,5.6664h9.3706V38.2167H43.8588c-3.807,0-4.1225-2.1085-4.1225-4.4571,0-2.3586.3155-4.4762,4.1225-4.4762h9.3706V28.0924H43.8588Z"/><path class="cls-4" d="M70.7066,40.1243l-2.7732-3.7224A3.4725,3.4725,0,0,0,65.4767,34.82H60.9915v5.3045H58.33v-12.73h2.6613v5.0626H65.16a3.6845,3.6845,0,0,0,2.5122-1.563l2.7177-3.5h3.5542L69.962,32.01a5.59,5.59,0,0,1-1.9539,1.563,4.7956,4.7956,0,0,1,2.27,1.6566l3.9824,4.8944H70.7066Z"/><path class="cls-4" d="M75.7292,40.8226H70.3557l-2.9823-4.0034a2.9079,2.9079,0,0,0-1.8967-1.3011H61.69v5.3045H57.6318V26.6958H61.69v5.0626H65.16a3.0354,3.0354,0,0,0,1.9667-1.3011l2.9214-3.7615h5.4209l-4.9781,5.7709a7.2623,7.2623,0,0,1-1.0456,1.0347,5.9808,5.9808,0,0,1,1.3784,1.2929ZM71.0576,39.426h1.7348l-3.0559-3.7551a4.0464,4.0464,0,0,0-1.9494-1.4348l-1.6812-.561,1.6121-.7374a4.961,4.961,0,0,0,1.7094-1.3766L72.42,28.0924H70.7321l-2.5077,3.23A4.2284,4.2284,0,0,1,65.16,33.155H60.2932V28.0924H59.0284V39.426h1.2647V34.1216h5.1835a4.0588,4.0588,0,0,1,3.02,1.8685Z"/><path class="cls-4" d="M80.3018,27.3941v7.463c0,2.0849.8,2.6613,3.48,2.6613h8.4868v2.6059H83.7814c-4.2061,0-6.141-1.452-6.141-5.2672v-7.463h2.6613Z"/><path class="cls-4" d="M92.9665,40.8226H83.7814c-4.73,0-6.8393-1.8394-6.8393-5.9655V26.6958H81v8.1613c0,1.4839.2155,1.963,2.7813,1.963h9.1851v4.0025Zm-14.6278-12.73v6.7647c0,3.3305,1.4748,4.5689,5.4427,4.5689H91.57V38.2167H83.7814c-2.6459,0-4.1779-.55-4.1779-3.36V28.0924H78.3387Z"/><path class="cls-4" d="M101.4906,29.9254c-2.494,0-3.2387.9492-3.4242,2.6431H111.354v2.3822H98.0664c0.1855,1.693.93,2.6241,3.4242,2.6241h10.087v2.5495h-10.087c-4.56,0-6.1419-2.1776-6.1419-6.3646s1.5821-6.3656,6.1419-6.3656h10.087v2.5313h-10.087Z"/><path class="cls-4" d="M112.2759,40.8226H101.4906c-4.6671,0-6.84-2.244-6.84-7.0629s2.1731-7.0638,6.84-7.0638h10.7853v3.9279H101.4906c-1.6639,0-2.3067.4192-2.5777,1.2466h13.1393v3.7788H98.9111c0.2664,0.8292.902,1.2275,2.5795,1.2275h10.7853v3.9461Zm-10.7853-12.73c-3.917,0-5.4436,1.5893-5.4436,5.6673s1.5266,5.6664,5.4436,5.6664h9.3888V38.2731h-9.3888c-2.6022,0-3.8724-1.0011-4.1179-3.246l-0.0855-.7747h13.3685V33.2669H97.2872l0.0855-.7747c0.2473-2.2576,1.5166-3.2651,4.1179-3.2651h9.3888V28.0924h-9.3888Z"/><path class="cls-4" d="M191.2965,29.9818H181.2276c-3.0523,0-3.4242,1.3393-3.4242,3.7779s0.3719,3.7588,3.4242,3.7588h10.0689v2.6059H181.2276c-4.578,0-6.1419-2.1776-6.1419-6.3646s1.5639-6.3656,6.1419-6.3656h10.0689v2.5877Z"/><path class="cls-4" d="M191.9948,40.8226H181.2276c-4.7307,0-6.84-2.1785-6.84-7.0629s2.1094-7.0638,6.84-7.0638h10.7672V30.68H181.2276c-2.4913,0-2.7259.8447-2.7259,3.08,0,2.2667.2237,3.06,2.7259,3.06h10.7672v4.0025Zm-10.7672-12.73c-3.917,0-5.4436,1.5893-5.4436,5.6673s1.5266,5.6664,5.4436,5.6664h9.3706V38.2167h-9.3706c-3.807,0-4.1225-2.1085-4.1225-4.4571,0-2.3586.3155-4.4762,4.1225-4.4762h9.3706V28.0924h-9.3706Z"/><path class="cls-4" d="M212.6717,33.76c0,4.9317-2.8659,6.551-8.9323,6.551s-8.9332-1.6193-8.9332-6.551,2.8659-6.551,8.9332-6.551S212.6717,28.8271,212.6717,33.76Zm-2.7168,0c0-3.5551-2.0476-4.0388-6.2155-4.0388-4.17,0-6.2164.4837-6.2164,4.0388s2.0467,4.0379,6.2164,4.0379C207.9073,37.7976,209.9549,37.3139,209.9549,33.76Z"/><path class="cls-4" d="M203.7394,41.009c-4.7626,0-9.6315-.861-9.6315-7.2493s4.869-7.2493,9.6315-7.2493,9.6306,0.861,9.6306,7.2493S208.5019,41.009,203.7394,41.009Zm0-13.1021c-6.0028,0-8.2349,1.5866-8.2349,5.8527s2.2322,5.8527,8.2349,5.8527,8.234-1.5866,8.234-5.8527S209.7421,27.9069,203.7394,27.9069Zm0,10.5889c-3.917,0-6.9147-.3491-6.9147-4.7362s2.9977-4.7371,6.9147-4.7371,6.9138,0.3491,6.9138,4.7371S207.6564,38.4959,203.7394,38.4959Zm0-8.0767c-4.4862,0-5.5181.6246-5.5181,3.3405s1.032,3.34,5.5181,3.34,5.5172-.6246,5.5172-3.34S208.2255,30.4192,203.7394,30.4192Z"/><path class="cls-4" d="M219.7365,40.1243h-2.66v-12.73h1.88c3.4242,0,4.3534,1.0984,7.5739,5.5463,3.0332,4.1879,3.2569,4.4853,4.6335,4.4853h0.02V27.3941h2.66v12.73h-1.88c-3.1441,0-4.0934-1.0047-7.5739-5.5645-3.2569-4.2625-3.35-4.4671-4.6335-4.4671h-0.02V40.1243Z"/><path class="cls-4" d="M234.5424,40.8226h-2.5786c-3.5151,0-4.67-1.3066-8.1286-5.8391l-0.44-.5755c-1.8858-2.4713-2.4913-3.2542-2.96-3.5024v9.917h-4.057V26.6958h2.5786c3.7479,0,4.8608,1.3057,8.1395,5.8355,2.1985,3.035,2.8368,3.8752,3.39,4.107V26.6958h4.057V40.8226ZM219.0382,29.3944h0.6983c1.5893,0,1.8294.3146,4.77,4.1661l0.4383,0.5755c3.4806,4.558,4.2407,5.29,7.0193,5.29h1.182V28.0924H231.882V38.124h-0.6983c-1.7621,0-2.0894-.4519-5.219-4.7735-3.1423-4.34-3.9152-5.2581-7.0084-5.2581h-1.182V39.426h1.2638V29.3944Z"/><path class="cls-4" d="M254.5147,29.9818H244.4458c-3.0514,0-3.4242,1.3393-3.4242,3.7779s0.3728,3.7588,3.4242,3.7588h10.0689v2.6059H244.4458c-4.5789,0-6.141-2.1776-6.141-6.3646s1.5621-6.3656,6.141-6.3656h10.0689v2.5877Z"/><path class="cls-4" d="M255.213,40.8226H244.4458c-4.73,0-6.8393-2.1785-6.8393-7.0629s2.1094-7.0638,6.8393-7.0638H255.213V30.68H244.4458c-2.4913,0-2.7259.8447-2.7259,3.08,0,2.2667.2237,3.06,2.7259,3.06H255.213v4.0025Zm-10.7672-12.73c-3.917,0-5.4427,1.5893-5.4427,5.6673s1.5257,5.6664,5.4427,5.6664h9.3706V38.2167h-9.3706c-3.8079,0-4.1225-2.1085-4.1225-4.4571,0-2.3586.3146-4.4762,4.1225-4.4762h9.3706V28.0924h-9.3706Z"/><path class="cls-4" d="M264.2962,29.9254c-2.4931,0-3.2387.9492-3.4242,2.6431H274.16v2.3822H260.872c0.1855,1.693.9311,2.6241,3.4242,2.6241h10.087v2.5495h-10.087c-4.5589,0-6.141-2.1776-6.141-6.3646s1.5821-6.3656,6.141-6.3656h10.087v2.5313h-10.087Z"/><path class="cls-4" d="M275.0816,40.8226H264.2962c-4.6662,0-6.8393-2.244-6.8393-7.0629s2.1731-7.0638,6.8393-7.0638h10.7853v3.9279H264.2962c-1.6639,0-2.3076.4192-2.5786,1.2466h13.14v3.7788H261.7158c0.2673,0.8292.902,1.2275,2.58,1.2275h10.7853v3.9461Zm-10.7853-12.73c-3.917,0-5.4427,1.5893-5.4427,5.6673s1.5257,5.6664,5.4427,5.6664h9.3888V38.2731h-9.3888c-2.6022,0-3.8715-1.0011-4.1188-3.246l-0.0836-.7747h13.3676V33.2669H260.0937l0.0836-.7747c0.2473-2.2576,1.5184-3.2651,4.1188-3.2651h9.3888V28.0924h-9.3888Z"/><path class="cls-4" d="M290.0839,27.3941c3.5169,0,5.0808,1.973,5.0808,4.2625,0,2.3076-1.5639,4.2989-5.0808,4.2989h-8.3759v4.1688h-2.66v-12.73h11.0363Zm0.1309,6.2164a1.9491,1.9491,0,1,0,0-3.8715h-8.5068v3.8715h8.5068Z"/><path class="cls-4" d="M282.4064,40.8226h-4.057V26.6958h11.7346c4.2661,0,5.7791,2.6722,5.7791,4.9608,0,2.3049-1.513,4.9972-5.7791,4.9972h-7.6776v4.1688Zm-2.66-1.3966H281.01V35.2572h9.0742c2.7441,0,4.3825-1.3457,4.3825-3.6006,0-2.2322-1.6384-3.5642-4.3825-3.5642h-10.338V39.426Zm10.4689-5.1172H281.01V29.0408h9.2051a2.6673,2.6673,0,0,1,2.875,2.6341A2.6387,2.6387,0,0,1,290.2149,34.3089Zm-7.8085-1.3966h7.8085a1.2571,1.2571,0,1,0,0-2.4749h-7.8085v2.4749Z"/><path class="cls-4" d="M304.2953,40.1243V29.7954H297.967V27.3941h15.317v2.4013h-6.3265V40.1243h-2.6622Z"/><path class="cls-4" d="M307.6558,40.8226H303.597V30.4937h-6.3283V26.6958h16.7136v3.7979h-6.3265V40.8226Zm-2.6622-1.3966h1.2657V29.0971h6.3265V28.0924h-13.92v1.0047h6.3283V39.426Z"/><path class="cls-4" d="M327.8663,37.7421c1.5621,0,2.0658-.4837,2.0658-1.1911,0-.8565-0.7638-1.2838-2.5877-1.433l-6.161-.4837c-2.8659-.2237-4.5771-1.2475-4.5771-3.5924,0-2.6986,2.2694-3.6478,4.8935-3.6478h10.3489v2.3822H321.258c-1.2457,0-1.953.3355-1.953,1.1911,0,0.7074.4837,1.08,2.5677,1.2475l5.8627,0.4646c2.9968,0.2428,4.9317,1.1911,4.9317,3.76,0,2.1594-1.3766,3.6851-4.9681,3.6851H316.55V37.7421h11.3163Z"/><path class="cls-4" d="M327.699,40.8226H315.8516V37.0438h12.0146c1.3675,0,1.3675-.371,1.3675-0.4928,0-.1427,0-0.5783-1.9458-0.7374l-6.1592-.4828c-3.4642-.271-5.2208-1.7139-5.2208-4.2889,0-2.7623,2.0385-4.3461,5.5918-4.3461H332.547v3.7788H321.258c-1.2547,0-1.2547.3455-1.2547,0.4928,0,0.0982,0,.3964,1.9258.551L327.79,31.983c1.38,0.1118,5.5754.4519,5.5754,4.4562C333.3653,38.0758,332.6288,40.8226,327.699,40.8226ZM317.2482,39.426H327.699c4.27,0,4.27-2.2485,4.27-2.9868,0-1.3429-.5092-2.7577-4.29-3.0641l-5.8609-.4637c-1.6257-.1309-3.2114-0.3882-3.2114-1.9439,0-.862.46-1.8894,2.6513-1.8894H331.15V28.0924H321.5c-1.913,0-4.1952.5119-4.1952,2.95,0,1.2056.4473,2.6241,3.9333,2.8959l6.161,0.4837c0.9692,0.0791,3.2314.2646,3.2314,2.1294,0,0.862-.48,1.8894-2.7641,1.8894h-10.618V39.426Z"/></svg>