<svg id="Layer_1" data-name="Layer 1" xmlns="http://www.w3.org/2000/svg" viewBox="0 0 1152 353.1104"><defs><style>.cls-1{fill:#fbb04c;}.cls-2{fill:#ffd5a0;}.cls-3{fill:#5896b5;}.cls-4{fill:#007fa4;}.cls-5{fill:#fff;}</style></defs><title>teal-lake</title><path class="cls-1" d="M50.4011,156.2708A114.0285,114.0285,0,0,0,236.1152,67.573c0-1.0071-.05-2.002-0.0759-3.0029A127.1477,127.1477,0,0,0,50.4011,156.2708Z"/><path class="cls-2" d="M28.7754,169.0077a147.4187,147.4187,0,0,1,292.39-18.1141c9.6635,2.1069,19.862,4.4823,30.4083,7.0544A176.5636,176.5636,0,0,0,51.1471,51.7116,175.2205,175.2205,0,0,0,.1915,160.1616C10.0415,163.3361,19.6177,166.3075,28.7754,169.0077Z"/><path class="cls-3" d="M323.3148,181.2437A147.4094,147.4094,0,0,1,30.4194,199.8243c-9.69-2.734-19.89-5.8007-30.4194-9.1122A176.5581,176.5581,0,0,0,300.8345,301.399a175.2454,175.2454,0,0,0,51.3282-113.2615C342.1974,185.6525,332.532,183.3364,323.3148,181.2437Z"/><path class="cls-4" d="M291.7492,174.6646c-46.2911-8.5557-75.4624,3.9754-106.3459,17.2409-31.2522,13.4242-63.5661,27.3053-111.5318,18.44-6.3953-1.182-13.4043-2.7239-20.8783-4.55,13.23,55.6551,63.3525,97.1779,122.9976,97.1779A126.5594,126.5594,0,0,0,302.4062,176.7358C298.7446,175.9945,295.18,175.2986,291.7492,174.6646Z"/><path class="cls-5" d="M95.7525,116.6666a56.7518,56.7518,0,0,1,44.5106,21.4806,56.9315,56.9315,0,0,1,57.59-19.9664,39.952,39.952,0,0,0-57.59,5.248,39.9521,39.9521,0,0,0-57.59-5.248A57.0137,57.0137,0,0,1,95.7525,116.6666Z"/><path class="cls-4" d="M414.3529,267.8184a45.44,45.44,0,0,1,8.4744,10.2032,12.2916,12.2916,0,0,1,1.5211,9.2427,15.7559,15.7559,0,0,1-1.3471,2.8467,9.7215,9.7215,0,0,1-2.13,2.463,10.298,10.298,0,0,1-3.2158,1.7588,15.07,15.07,0,0,1-4.6067.7358,8.0687,8.0687,0,0,1-3.1724-.48q-1.4341-.5427-2.564-0.9589a4.3124,4.3124,0,0,0-1.7815-.3521c-0.4344.043-.6819,0.4908-0.7387,1.3434h-2.26v-11.386h2.3466a9.2615,9.2615,0,0,0-.1306,2.6544,12.9,12.9,0,0,0,.4782,2.3989,12.5389,12.5389,0,0,0,.8693,1.887,6.5259,6.5259,0,0,0,1.39,1.6947,7.2217,7.2217,0,0,0,2.173,1.2794,9.7012,9.7012,0,0,0,3.2158.576,8.3362,8.3362,0,0,0,5.3888-1.9827,5.3951,5.3951,0,0,0,1.8249-4.67,11.1712,11.1712,0,0,0-1.9989-4.8619,29.5708,29.5708,0,0,0-3.9111-4.51q-2.261-2.1417-3.8243-3.6774a28.8338,28.8338,0,0,1-4.8237-5.31,22.5917,22.5917,0,0,1-2.6508-5.0533,13.9148,13.9148,0,0,1-.8693-4.7012,15.0647,15.0647,0,0,1,.6084-4.3175,9.61,9.61,0,0,1,3.6069-4.7661q2.477-1.6939,7.4311-1.6947a7.2235,7.2235,0,0,1,2.9988.6076q1.3465,0.6084,2.3466,1.0554a3.1749,3.1749,0,0,0,1.5211.3837q0.5214-.0633.6952-1.4075h2.4338v11.1946h-2.4338a12.4276,12.4276,0,0,0-.6084-5.0533,8.8339,8.8339,0,0,0-2.173-3.5184,6.293,6.293,0,0,0-4.6931-1.599,10.1611,10.1611,0,0,0-3.26.5119,7.2552,7.2552,0,0,0-2.4768,1.3434,5.86,5.86,0,0,0-1.9555,4.3816,8.9378,8.9378,0,0,0,1.4773,4.3175,21.1057,21.1057,0,0,0,3.3464,3.9979Q412.8748,266.2839,414.3529,267.8184Z"/><path class="cls-4" d="M452.5948,287.7762v6.7164H428.3455V292.83a1.9206,1.9206,0,0,0,1.8687-.4795,1.8653,1.8653,0,0,0,.391-1.3118V252.2106a1.976,1.976,0,0,0-.391-1.3751,1.8883,1.8883,0,0,0-.8255-0.5435,2.1047,2.1047,0,0,0-1.0433,0v-1.5349h24.2493v6.7164h-2.26a8.9134,8.9134,0,0,0-.5216-2.6228,5.3967,5.3967,0,0,0-1.4339-1.8229,4.05,4.05,0,0,0-2.738-.864h-9.039V270.889h6.084a2.899,2.899,0,0,0,1.7385-.4478,2.6272,2.6272,0,0,0,.8689-1.0238,3.5694,3.5694,0,0,0,.3476-1.599h1.9993v7.8684h-1.9993a3.1857,3.1857,0,0,0-.3476-1.5357,2.5549,2.5549,0,0,0-2.6074-1.599h-6.084v20.4056h9.039a4.3937,4.3937,0,0,0,2.738-.7683,4.4566,4.4566,0,0,0,1.4339-1.79,8.908,8.908,0,0,0,.5216-2.6228h2.26Z"/><path class="cls-4" d="M479.3639,248.82h7.6485v1.6a3.3249,3.3249,0,0,0-1.3037,0,1.725,1.725,0,0,0-1.2169,1.8545v42.2179H477.191l-14.4278-36.7167v33.2624a1.7411,1.7411,0,0,0,.3914,1.2794,1.9752,1.9752,0,0,0,.8255.5119,3.2941,3.2941,0,0,0,1.3037,0v1.6631h-7.6485V292.83a2.888,2.888,0,0,0,1.2169,0,2.3305,2.3305,0,0,0,.8693-0.5119,1.6331,1.6331,0,0,0,.4344-1.2794V252.2747a1.746,1.746,0,0,0-.4344-1.311,2.1972,2.1972,0,0,0-.8693-0.5435,2.9149,2.9149,0,0,0-1.2169,0v-1.6h8.8654l15.3839,38.8917V252.2747a1.746,1.746,0,0,0-.4344-1.311,2.1972,2.1972,0,0,0-.8693-0.5435,2.9149,2.9149,0,0,0-1.2169,0v-1.6Z"/><path class="cls-4" d="M500.0486,291.0383a1.8653,1.8653,0,0,0,.391,1.3118,1.4335,1.4335,0,0,0,.7391.4795,1.6863,1.6863,0,0,0,1.13,0v1.6631H491.7916V292.83a1.9642,1.9642,0,0,0,1.2169,0,1.549,1.549,0,0,0,.6518-0.4795,1.8653,1.8653,0,0,0,.391-1.3118V252.2106a1.976,1.976,0,0,0-.391-1.3751,2.588,2.588,0,0,0-.6518-0.5435,2.9149,2.9149,0,0,0-1.2169,0v-1.5349h10.5167v1.5349a2.496,2.496,0,0,0-1.13,0,2.0524,2.0524,0,0,0-.7391.5435,1.976,1.976,0,0,0-.391,1.3751v38.8276Z"/><path class="cls-4" d="M531.8588,271.7206v7.2283q0,3.07-.217,5.3413a15.9518,15.9518,0,0,1-.7825,3.8381,8.0686,8.0686,0,0,1-1.6947,2.7818,10.9754,10.9754,0,0,1-4.4327,2.9108,15.4976,15.4976,0,0,1-10.9078,0,10.9238,10.9238,0,0,1-4.4761-2.9108,8.0256,8.0256,0,0,1-1.6947-2.7818,15.8156,15.8156,0,0,1-.7825-3.8381q-0.2178-2.2707-.2174-5.3413v-7.2283q0-5.5648.0872-9.2435a24.6808,24.6808,0,0,1,.7821-6.1088,7.1387,7.1387,0,0,1,1.7385-3.6133,10.59,10.59,0,0,1,3.3894-2.5271,15.4316,15.4316,0,0,1,9.9951-1.0871,14.9608,14.9608,0,0,1,3.2158,1.0871,11.1325,11.1325,0,0,1,3.4332,2.5271,6.4534,6.4534,0,0,1,1.6951,3.6133,30.2168,30.2168,0,0,1,.7387,6.1088Q531.8588,266.157,531.8588,271.7206Zm-5.9972,14.2644v-6.46q0-3.7736.0872-7.8043-0.0876-3.9658-.0872-7.7078v-6.4284q0-4.03-1.9117-5.6293a7.688,7.688,0,0,0-9.3871,0q-1.9129,1.599-1.9121,5.6293v28.4005q0,4.03,1.6947,5.7251a6.7757,6.7757,0,0,0,4.9978,1.6955,6.473,6.473,0,0,0,4.9105-1.6955Q525.8612,290.0161,525.8616,285.9849Z"/><path class="cls-4" d="M560.8021,293.2132a2.8461,2.8461,0,0,0,.9565-0.1282c0.23-.0844.4624-0.17,0.6944-0.2555v1.4075a7.4209,7.4209,0,0,1-1.3029.6076,6.2014,6.2014,0,0,1-2.0866.2872,8.25,8.25,0,0,1-2.2594-.32,6.4329,6.4329,0,0,1-2.0857-1.023,5.9072,5.9072,0,0,1-1.6083-1.8237,6.0859,6.0859,0,0,1-.7387-2.7818V278.6925a4.3583,4.3583,0,0,0-.5216-2.2707,3.5324,3.5324,0,0,0-1.3471-1.311,5.7136,5.7136,0,0,0-1.7819-.6076q-0.9571-.1594-1.7381-0.2239h-3.5635v16.759a2.0227,2.0227,0,0,0,.3476,1.3118,1.2437,1.2437,0,0,0,.6952.4795,1.7063,1.7063,0,0,0,1.13,0v1.6631h-10.43V292.83a1.4533,1.4533,0,0,0,1.0429,0,1.43,1.43,0,0,0,.8259-0.4795,1.8653,1.8653,0,0,0,.391-1.3118V252.1465a1.9923,1.9923,0,0,0-.391-1.3426,1.806,1.806,0,0,0-.8259-0.576,4.2838,4.2838,0,0,0-1.0429,0V248.693h12.4289a18.5642,18.5642,0,0,1,5.693.7991,13.4421,13.4421,0,0,1,4.1285,2.0793,8.5594,8.5594,0,0,1,2.4768,2.9424,7.6854,7.6854,0,0,1,.8259,3.4543v6.972a8.1327,8.1327,0,0,1-1.7385,4.8619,10.2466,10.2466,0,0,1-5.3884,3.5176q4.9539,1.4724,4.9544,5.6293v10.2348a11.5614,11.5614,0,0,0,.3034,2.8459A1.725,1.725,0,0,0,560.8021,293.2132ZM543.4193,250.292v22.196h4.6931a6.23,6.23,0,0,0,1.8687-.3513,7.3158,7.3158,0,0,0,2.0862-1.0879,6.8438,6.8438,0,0,0,1.7377-1.9186,5.2757,5.2757,0,0,0,.74-2.8467v-9.7229a5.1572,5.1572,0,0,0-.74-2.7826,7.3229,7.3229,0,0,0-1.7377-1.9511,7.55,7.55,0,0,0-2.0862-1.1512,5.778,5.778,0,0,0-1.8687-.3837h-4.6931Z"/><path class="cls-4" d="M606.0825,287.7762v6.7164H582.7036V292.83a1.4227,1.4227,0,0,0,1.0417,0,1.623,1.623,0,0,0,.87-0.4795,1.7472,1.7472,0,0,0,.4348-1.3118V252.2106a1.8468,1.8468,0,0,0-.4348-1.3751,2.1874,2.1874,0,0,0-.87-0.5435,2.0983,2.0983,0,0,0-1.0417,0v-1.5349h10.5155v1.5349a2.915,2.915,0,0,0-1.2169,0,1.7274,1.7274,0,0,0-.6944.5435,2.15,2.15,0,0,0-.3472,1.3751V292.83H599.13a4.4931,4.4931,0,0,0,2.781-.7358,4.3449,4.3449,0,0,0,1.39-1.7588,8.225,8.225,0,0,0,.5225-2.5587h2.2585Z"/><path class="cls-4" d="M617.2941,291.0383a1.8634,1.8634,0,0,0,.391,1.3118,1.435,1.435,0,0,0,.7382.4795,1.69,1.69,0,0,0,1.1309,0v1.6631H609.0371V292.83a1.9643,1.9643,0,0,0,1.2169,0,1.5545,1.5545,0,0,0,.6523-0.4795,1.8712,1.8712,0,0,0,.391-1.3118V252.2106a1.9821,1.9821,0,0,0-.391-1.3751,2.6025,2.6025,0,0,0-.6523-0.5435,2.915,2.915,0,0,0-1.2169,0v-1.5349h10.5172v1.5349a2.5019,2.5019,0,0,0-1.1309,0,2.0573,2.0573,0,0,0-.7382.5435,1.974,1.974,0,0,0-.391,1.3751v38.8276Z"/><path class="cls-4" d="M645.02,248.82H653.45v1.6a4.8186,4.8186,0,0,0-1.5641,0,3.3812,3.3812,0,0,0-1.3045.5435,1.9528,1.9528,0,0,0-.7821,1.311q0,0.0645-.4786,1.9194-0.477,1.8558-1.1731,4.8294t-1.65,6.78q-0.9589,3.8064-1.9129,7.7078-2.261,9.2751-5.2148,20.9808h-4.4327l-4.52-20.9808q-0.8689-3.9013-1.6939-7.7078-0.8275-3.8052-1.4781-6.78-0.6523-2.9753-1.0433-4.8294-0.3894-1.8545-.391-1.9194a2.3935,2.3935,0,0,0-.8259-1.311,3.0371,3.0371,0,0,0-1.2591-.5435,4.8285,4.8285,0,0,0-1.5657,0v-1.6h12.8649v1.6a3.809,3.809,0,0,0-1.3921,0,1.6058,1.6058,0,0,0-.868.5435,1.3977,1.3977,0,0,0-.0876,1.311q0,0.0645.305,1.6955,0.3018,1.6306.868,4.2851,0.5646,2.6552,1.2607,6.0771t1.4781,7.0044q0.7812,3.5825,1.52,7.1,0.7374,3.5192,1.4343,6.3327,0.7812-2.8134,1.6517-6.3327,0.8664-3.5168,1.7377-7.1,0.8689-3.5813,1.6517-7.0044,0.7812-3.4207,1.39-6.0771,0.6084-2.6528.9557-4.2851t0.3488-1.6955a1.4024,1.4024,0,0,0-.0876-1.311,1.6318,1.6318,0,0,0-.7821-0.5435,3.8006,3.8006,0,0,0-1.39,0v-1.6Z"/><path class="cls-4" d="M664.7478,291.0383a1.8634,1.8634,0,0,0,.3926,1.3118,1.4288,1.4288,0,0,0,.7382.4795,1.6851,1.6851,0,0,0,1.1293,0v1.6631H656.4925V292.83a1.9592,1.9592,0,0,0,1.2153,0,1.5352,1.5352,0,0,0,.6523-0.4795,1.8634,1.8634,0,0,0,.391-1.3118V252.2106a1.974,1.974,0,0,0-.391-1.3751,2.5468,2.5468,0,0,0-.6523-0.5435,2.9073,2.9073,0,0,0-1.2153,0v-1.5349H667.008v1.5349a2.4942,2.4942,0,0,0-1.1293,0,2.0437,2.0437,0,0,0-.7382.5435,1.9737,1.9737,0,0,0-.3926,1.3751v38.8276Z"/><path class="cls-4" d="M692.7346,248.82h7.6485v1.6a3.3207,3.3207,0,0,0-1.3029,0,1.7239,1.7239,0,0,0-1.2169,1.8545v42.2179h-7.3013l-14.4274-36.7167v33.2624a1.7394,1.7394,0,0,0,.391,1.2794,1.9616,1.9616,0,0,0,.8259.5119,3.29,3.29,0,0,0,1.3029,0v1.6631h-7.6485V292.83a2.8877,2.8877,0,0,0,1.2169,0,2.3318,2.3318,0,0,0,.87-0.5119,1.6346,1.6346,0,0,0,.4348-1.2794V252.2747a1.7477,1.7477,0,0,0-.4348-1.311,2.1984,2.1984,0,0,0-.87-0.5435,2.9146,2.9146,0,0,0-1.2169,0v-1.6h8.8654l15.3847,38.8917V252.2747a1.7477,1.7477,0,0,0-.4348-1.311,2.1984,2.1984,0,0,0-.87-0.5435,2.915,2.915,0,0,0-1.2169,0v-1.6Z"/><path class="cls-4" d="M720.285,271.6565l13.4718,0.0641v1.6631a1.7863,1.7863,0,0,0-.9557,0,1.341,1.341,0,0,0-.6084.4795,2.0456,2.0456,0,0,0-.2612,1.1836v19.4459h-2.0849q0-1.6623-3.563-.7034a16.976,16.976,0,0,1-6.78,1.1512,16.4766,16.4766,0,0,1-5.562-.9914,10.9021,10.9021,0,0,1-4.52-2.9108,7.9943,7.9943,0,0,1-1.6939-2.8143,17.7327,17.7327,0,0,1-.8259-3.87,47.9082,47.9082,0,0,1-.2612-5.3738v-7.324q0-5.6281.0876-9.3708a24.9709,24.9709,0,0,1,.7821-6.1729,6.6916,6.6916,0,0,1,1.8253-3.6458,12.9808,12.9808,0,0,1,3.4771-2.5587,15.897,15.897,0,0,1,6.6913-1.4716h0.8259a5.7493,5.7493,0,0,1,.8259.0641l-0.1736-.0641a1.948,1.948,0,0,1,.3472.0325,1.8492,1.8492,0,0,0,.3472.0316,15.8221,15.8221,0,0,1,3.2158.8q1.2169,0.4795,2.0866.735a1.7193,1.7193,0,0,0,1.3045,0,2.2851,2.2851,0,0,0,.7382-0.5111,1.2477,1.2477,0,0,0,.3034-0.8956h2.1742v11.13h-1.9989a9.0666,9.0666,0,0,0-.2612-2.1109,19.489,19.489,0,0,0-.5225-2.0144,9.2007,9.2007,0,0,0-1.0417-2.2074q-0.1752-.2543-0.74-0.8948a6.8034,6.8034,0,0,0-1.5641-1.2477,10.0455,10.0455,0,0,0-2.4776-1.0238,9.16,9.16,0,0,0-3.3894-.2239,13.3277,13.3277,0,0,0-2.6512.5119,5.4,5.4,0,0,0-2.1726,1.2477,5.9513,5.9513,0,0,0-1.4343,2.2066,9.4663,9.4663,0,0,0-.5208,3.39v28.5928q0,4.0948,1.9551,5.8208a6.904,6.904,0,0,0,4.7377,1.7272,16.8445,16.8445,0,0,0,2.6074-.1915,6.78,6.78,0,0,0,2.3024-.9914,3.5534,3.5534,0,0,0,1.2169-1.6,7.7182,7.7182,0,0,0,.4786-2.3348q0.0852-1.3422.086-3.198V275.239a1.1817,1.1817,0,0,0-.1736-0.8956,1.9068,1.9068,0,0,0-.6944-0.64,3.0568,3.0568,0,0,0-1.5641-.32H720.285v-1.7272Z"/><path class="cls-4" d="M765.0453,250.3561a11.6678,11.6678,0,0,0-2.5636.5119,5.5017,5.5017,0,0,0-3.5209,3.3894,9.26,9.26,0,0,0-.5208,3.327q0,2.6857-.0438,6.4284t-0.0438,7.7078q0,4.03.0438,7.8043t0.0438,6.46q0,4.03,1.8691,5.7251a6.656,6.656,0,0,0,4.6485,1.6955,17.1694,17.1694,0,0,0,4.0855-.4478,8.1159,8.1159,0,0,0,3.13-1.4716,6.5394,6.5394,0,0,0,1.9989-2.7185,11.093,11.093,0,0,0,.6944-4.1893V282.851h1.9989v3.2621a7.5993,7.5993,0,0,1-3.0844,6.4609q-3.086,2.3024-8.7356,2.2383a15.8487,15.8487,0,0,1-5.4322-.9914,10.9253,10.9253,0,0,1-4.4765-2.9108,8.0419,8.0419,0,0,1-1.6939-2.7818,15.74,15.74,0,0,1-.7821-3.8381q-0.219-2.2707-.2174-5.3413v-7.2283q0-5.5648.086-9.2435a28.4234,28.4234,0,0,1,.6961-6.1088,6.9834,6.9834,0,0,1,1.7815-3.6133,11.1133,11.1133,0,0,1,3.4332-2.5271,15.7146,15.7146,0,0,1,6.6053-1.4708h0.8259a5.8627,5.8627,0,0,1,.8259.0633l-0.1736-.1274a3.6161,3.6161,0,0,0,.6944.1274,17.7632,17.7632,0,0,1,3.2158.7683q1.2169,0.4478,2.0866.7675a1.9762,1.9762,0,0,0,1.2169,0,1.6533,1.6533,0,0,0,1.0433-1.6631,0.8058,0.8058,0,0,1,.26.0316,0.48,0.48,0,0,0,.1736.0325h1.6517v11.1937h-1.9113q-0.0876-1.0222-.2612-2.1109-0.1752-.8956-0.4786-1.9827a7.1884,7.1884,0,0,0-.9995-2.1109,11.3951,11.3951,0,0,0-.7382-0.8956,6.8389,6.8389,0,0,0-1.5641-1.2477,10.0149,10.0149,0,0,0-2.4776-1.023A9.1281,9.1281,0,0,0,765.0453,250.3561Z"/><path class="cls-4" d="M807.1983,271.7206v7.2283q0,3.07-.2174,5.3413a15.8945,15.8945,0,0,1-.7821,3.8381,8.0706,8.0706,0,0,1-1.6955,2.7818,10.9616,10.9616,0,0,1-4.4327,2.9108,15.4942,15.4942,0,0,1-10.9066,0,10.9253,10.9253,0,0,1-4.4765-2.9108,8.0215,8.0215,0,0,1-1.6955-2.7818,15.8945,15.8945,0,0,1-.7821-3.8381q-0.2166-2.2707-.2174-5.3413v-7.2283q0-5.5648.0876-9.2435a24.7,24.7,0,0,1,.7821-6.1088A7.1439,7.1439,0,0,1,784.6,252.755a10.6012,10.6012,0,0,1,3.3911-2.5271,15.43,15.43,0,0,1,9.9947-1.0871,14.976,14.976,0,0,1,3.2158,1.0871,11.1325,11.1325,0,0,1,3.4332,2.5271,6.4517,6.4517,0,0,1,1.6939,3.6133,30.178,30.178,0,0,1,.74,6.1088Q807.1975,266.157,807.1983,271.7206Zm-5.9968,14.2644v-6.46q0-3.7736.086-7.8043-0.0876-3.9658-.086-7.7078v-6.4284q0-4.03-1.9129-5.6293a7.6868,7.6868,0,0,0-9.3863,0q-1.9129,1.599-1.9113,5.6293v28.4005q0,4.03,1.6939,5.7251a6.7772,6.7772,0,0,0,4.9974,1.6955,6.4743,6.4743,0,0,0,4.9114-1.6955Q801.2,290.0161,801.2015,285.9849Z"/><path class="cls-4" d="M845.2674,250.292a2.9142,2.9142,0,0,0-1.2169,0,1.731,1.731,0,0,0-.6961.5435,2.15,2.15,0,0,0-.3472,1.3751v38.8276a2.0252,2.0252,0,0,0,.3472,1.3118,1.2439,1.2439,0,0,0,.6961.4795,1.9638,1.9638,0,0,0,1.2169,0v1.6631H834.75V292.83a1.4271,1.4271,0,0,0,1.0433,0,1.6247,1.6247,0,0,0,.868-0.4795,1.7408,1.7408,0,0,0,.4348-1.3118V255.9213q-2.261,6.6527-4.0839,11.9612-0.7837,2.24-1.4781,4.4141-0.6961,2.1746-1.3045,3.9013t-0.9557,2.8151q-0.348,1.0879-.3472,1.1512h-3.6507q-0.5208-1.4712-1.2169-3.3586-0.6961-1.885-1.39-3.9013-0.6961-2.0152-1.39-3.9979-0.6961-1.9823-1.3045-3.9022-1.5649-4.4769-3.1282-9.0829v35.0529a2.2432,2.2432,0,0,0,.3034,1.3118,1.101,1.101,0,0,0,.74.4795,1.7039,1.7039,0,0,0,1.1293,0v1.7272H811.631v-1.7272a1.9173,1.9173,0,0,0,1.8675-.4795,1.8634,1.8634,0,0,0,.3926-1.3118V252.2106a1.9737,1.9737,0,0,0-.3926-1.3751,1.88,1.88,0,0,0-.8242-0.5435,2.1057,2.1057,0,0,0-1.0433,0v-1.5349h8.5166L828.8395,273l8.257-24.2428h8.171v1.5349Z"/><path class="cls-4" d="M884.031,250.292a2.9146,2.9146,0,0,0-1.2169,0,1.7274,1.7274,0,0,0-.6944.5435,2.1391,2.1391,0,0,0-.3488,1.3751v38.8276a2.0151,2.0151,0,0,0,.3488,1.3118,1.2409,1.2409,0,0,0,.6944.4795,1.964,1.964,0,0,0,1.2169,0v1.6631H873.5138V292.83a1.4266,1.4266,0,0,0,1.0433,0,1.6286,1.6286,0,0,0,.87-0.4795,1.7472,1.7472,0,0,0,.4348-1.3118V255.9213q-2.261,6.6527-4.0855,11.9612-0.7812,2.24-1.4781,4.4141t-1.3029,3.9013q-0.6084,1.728-.9557,2.8151c-0.2336.7253-.3488,1.109-0.3488,1.1512H864.04q-0.5208-1.4712-1.2153-3.3586-0.6985-1.885-1.3921-3.9013-0.6961-2.0152-1.39-3.9979-0.6961-1.9823-1.3029-3.9022-1.5649-4.4769-3.13-9.0829v35.0529a2.23,2.23,0,0,0,.305,1.3118,1.098,1.098,0,0,0,.7382.4795,1.7085,1.7085,0,0,0,1.1309,0v1.7272h-7.3889v-1.7272a1.9217,1.9217,0,0,0,1.8691-.4795,1.8634,1.8634,0,0,0,.391-1.3118V252.2106a1.974,1.974,0,0,0-.391-1.3751,1.8939,1.8939,0,0,0-.8259-0.5435,2.1041,2.1041,0,0,0-1.0433,0v-1.5349h8.5182L867.6046,273l8.257-24.2428h8.1694v1.5349Z"/><path class="cls-4" d="M899.0669,248.7571v1.5349a2.147,2.147,0,0,0-1.0433,0,1.617,1.617,0,0,0-.7821.5435,2.15,2.15,0,0,0-.3472,1.3751v7.9325q0,3.39.0438,7.4514,0.0414,4.0632.0422,7.6445v9.3392q0,4.926,1.4343,6.972a4.8171,4.8171,0,0,0,4.2153,2.0468h0.1736a4.871,4.871,0,0,0,4.1293-2.0468q1.5187-2.0468,1.52-6.972V252.2106a2.3859,2.3859,0,0,0-.3034-1.3751,1.4127,1.4127,0,0,0-.7382-0.5435,2.5308,2.5308,0,0,0-1.1309,0v-1.5349h10.3435v1.5349a2.1616,2.1616,0,0,0-1.0433,0,1.3943,1.3943,0,0,0-.7382.5435,2.3716,2.3716,0,0,0-.305,1.3751v34.0939a6.4878,6.4878,0,0,1-1.0855,3.6782,9.943,9.943,0,0,1-2.8248,2.7826,13.2854,13.2854,0,0,1-3.8243,1.7272,15.3339,15.3339,0,0,1-4.0855.576,15.62,15.62,0,0,1-4.1715-.576,12.6956,12.6956,0,0,1-3.7821-1.7272,9.2368,9.2368,0,0,1-2.6934-2.75,6.73,6.73,0,0,1-.9995-3.6466V275.0467q0-3.0057-.0438-6.14t-0.0438-6.1412V252.2106a1.974,1.974,0,0,0-.391-1.3751,1.8848,1.8848,0,0,0-.8259-0.5435,2.1041,2.1041,0,0,0-1.0433,0v-1.5349h10.3435Z"/><path class="cls-4" d="M942.0019,248.82H949.65v1.6a3.3207,3.3207,0,0,0-1.3029,0,1.7239,1.7239,0,0,0-1.2169,1.8545v42.2179h-7.3013l-14.4274-36.7167v33.2624a1.7394,1.7394,0,0,0,.391,1.2794,1.9616,1.9616,0,0,0,.8259.5119,3.29,3.29,0,0,0,1.3029,0v1.6631h-7.6485V292.83a2.8877,2.8877,0,0,0,1.2169,0,2.3318,2.3318,0,0,0,.87-0.5119,1.6346,1.6346,0,0,0,.4348-1.2794V252.2747a1.7477,1.7477,0,0,0-.4348-1.311,2.1984,2.1984,0,0,0-.87-0.5435,2.9146,2.9146,0,0,0-1.2169,0v-1.6h8.8654l15.3847,38.8917V252.2747a1.7477,1.7477,0,0,0-.4348-1.311,2.1984,2.1984,0,0,0-.87-0.5435,2.915,2.915,0,0,0-1.2169,0v-1.6Z"/><path class="cls-4" d="M962.6858,291.0383a1.8634,1.8634,0,0,0,.3926,1.3118,1.4288,1.4288,0,0,0,.7382.4795,1.6851,1.6851,0,0,0,1.1293,0v1.6631H954.43V292.83a1.9592,1.9592,0,0,0,1.2153,0,1.5352,1.5352,0,0,0,.6523-0.4795,1.8634,1.8634,0,0,0,.391-1.3118V252.2106a1.974,1.974,0,0,0-.391-1.3751,2.5468,2.5468,0,0,0-.6523-0.5435,2.9073,2.9073,0,0,0-1.2153,0v-1.5349h10.5155v1.5349a2.4942,2.4942,0,0,0-1.1293,0,2.0437,2.0437,0,0,0-.7382.5435,1.9737,1.9737,0,0,0-.3926,1.3751v38.8276Z"/><path class="cls-4" d="M995.1069,248.7571v6.78h-2.26a9.049,9.049,0,0,0-.5225-2.6861,5.3831,5.3831,0,0,0-1.4343-1.8229,4.0445,4.0445,0,0,0-2.7372-.864H984.59v40.8744a2.0252,2.0252,0,0,0,.3472,1.3118,1.2489,1.2489,0,0,0,.7821.4795,1.454,1.454,0,0,0,1.0433,0v1.6631H976.2451V292.83a1.69,1.69,0,0,0,1.1309,0,1.4323,1.4323,0,0,0,.8259-0.4795,1.8712,1.8712,0,0,0,.391-1.3118V250.1638h-3.6507a4.0129,4.0129,0,0,0-2.781.864,4.576,4.576,0,0,0-1.3045,1.8229,7.4879,7.4879,0,0,0-.6084,2.6861h-2.3462v-6.78h27.2047Z"/><path class="cls-4" d="M1029.3485,248.7571v1.5349a2.9073,2.9073,0,0,0-1.2153,0,2.689,2.689,0,0,0-1.1309.5435,3.6779,3.6779,0,0,0-.9557,1.3751q0,0.129-.9995,2.3673t-2.5214,5.7567q-1.5211,3.5192-3.3894,7.7719-1.8691,4.2555-3.6928,8.4119v14.52a2.0252,2.0252,0,0,0,.3472,1.3118,1.2409,1.2409,0,0,0,.6944.4795,1.7088,1.7088,0,0,0,1.1309,0v1.6631h-10.43V292.83a2.5509,2.5509,0,0,0,.6084.0641,2.7441,2.7441,0,0,0,.5646-0.0641,1.4449,1.4449,0,0,0,.5646-0.2555,2.1782,2.1782,0,0,0,.4348-1.5357V276.5816q-1.3921-4.1569-2.8686-8.4428-1.48-4.2859-2.7372-7.8043-1.2607-3.5168-2.0866-5.7891-0.8275-2.2695-.8259-2.3348a2.4308,2.4308,0,0,0-.8259-1.3751,3.136,3.136,0,0,0-1.0855-.5435,3.8,3.8,0,0,0-1.39,0v-1.5349h10.95v1.5349a2.1041,2.1041,0,0,0-1.0433,0,1.0394,1.0394,0,0,0-.6506.5435,1.8417,1.8417,0,0,0,.13,1.3751q0,0.0645.6523,1.8553t1.6517,4.7012q0.9978,2.912,2.2585,6.589,1.2607,3.6787,2.5652,7.4514,1.65-3.7724,3.3018-7.4514,1.65-3.6774,2.9124-6.589,1.2583-2.91,2.0849-4.7012,0.8251-1.79.8259-1.8553a1.9449,1.9449,0,0,0,.2612-1.3751,0.9123,0.9123,0,0,0-.6084-0.5435,2.1041,2.1041,0,0,0-1.0433,0v-1.5349h7.5609Z"/><path class="cls-4" d="M476.2724,203.6013l-1.5093,6.1438a59.7721,59.7721,0,0,1-12.18,1.617q-4.527,0-14.983-.9707-7.8688-.6464-14.12-0.6464a132.5078,132.5078,0,0,0-22.2046,1.94l1.5093-5.9283q10.8857-1.0762,15.8448-4.5268,3.5567-2.4788,6.09-8.4616,2.5313-5.9822,11.48-41.7682l13.7969-57.1282,0.7546-2.6948q-6.3612-.3232-9.5933-0.3232-19.9423,0-31.6363,4.32-11.6962,4.32-17.57,12.5258a29.8188,29.8188,0,0,0-5.8745,17.7072,15.62,15.62,0,0,0,1.1861,6.1543q0.8613,1.9449,4.7422,6.2637,3.6633,3.9965,3.6649,7.3427a6.6071,6.6071,0,0,1-2.1557,4.9671,7.2451,7.2451,0,0,1-5.1737,2.0513q-4.527,0-7.33-4.3119-4.0972-6.3587-4.0959-16.168,0-13.15,8.1378-25.5458a53.8444,53.8444,0,0,1,22.3662-19.1865q14.2283-6.791,34.6-6.7907,9.7,0,30.9355,2.8026a193.9038,193.9038,0,0,0,21.8808,1.94q6.791,0,9.5933-2.2639a7.3645,7.3645,0,0,0,2.8026-6.0361,26.89,26.89,0,0,0-.3232-3.018,22.1714,22.1714,0,0,1-.3237-2.6948,6.5823,6.5823,0,0,1,1.94-4.85,6.3258,6.3258,0,0,1,4.635-1.94,6.8207,6.8207,0,0,1,5.3353,2.3717,9.2393,9.2393,0,0,1,2.1023,6.3592q0,8.1928-8.7209,14.1206T492.7,92.9021q-7.3207,0-15.61-.6469-1.0812,3.8807-6.8062,26.3l-9.3995,37.2953-5.7245,22.7432-5.9417,25.9767a104.0588,104.0588,0,0,0,11.9644.8629A66.4717,66.4717,0,0,0,476.2724,203.6013Z"/><path class="cls-4" d="M555.0654,182.69l3.5572,4.7433q-26.41,25.1149-45.2715,25.1138-7.6539,0-11.6951-5.1731t-4.042-16.6q0-23.065,14.0129-45.9179,15.7359-25.9753,37.6179-25.9767,7.6522,0,11.6951,3.8265t4.0425,10.509a23.541,23.541,0,0,1-4.85,13.7974q-4.8511,6.79-17.3541,14.12-6.2529,3.5567-26.7319,12.8268a67.6527,67.6527,0,0,0-.97,11.102q0,7.6547,2.4255,10.6717a8.52,8.52,0,0,0,7.06,3.0175,23.0512,23.0512,0,0,0,9.701-2.4788Q541.3765,192.9313,555.0654,182.69ZM517.34,167.0606q17.3527-7.7605,26.0844-16.7072,5.9272-6.25,5.9283-12.3958a10.7585,10.7585,0,0,0-2.425-7.3832,8.015,8.015,0,0,0-6.3059-2.7487,12.3272,12.3272,0,0,0-7.7608,3.018q-5.0676,3.989-8.5149,12.0721A108.67,108.67,0,0,0,517.34,167.0606Z"/><path class="cls-4" d="M647.1172,117.2624l7.1133-1.5093-8.0851,27.2705q-4.8494,16.2774-9.16,37.5107-2.3722,11.5346-2.3711,14.8752t2.6943,3.3407q1.7242,0,5.4974-2.2634a70.6385,70.6385,0,0,0,12.8273-9.9165l3.4495,4.2036q-12.2892,11.2114-15.7382,13.5814a58.9423,58.9423,0,0,1-13.1494,7.0067,23.0285,23.0285,0,0,1-7.9763,1.5093,6.01,6.01,0,0,1-4.2047-1.2938,4.8808,4.8808,0,0,1-1.4-3.7727,16.0737,16.0737,0,0,1,.8618-4.419l4.3113-14.66a91.4326,91.4326,0,0,1-22.0963,19.0788q-7.87,4.956-14.4432,4.9588-6.2537,0-9.5933-4.42-4.5279-5.9255-4.5273-15.5216,0-11.423,6.09-25.4381a94.03,94.03,0,0,1,16.33-25.4381q10.2385-11.4238,21.5577-16.8149,8.7309-4.0947,22.4195-4.0959a58.5035,58.5035,0,0,1,7.0067.4309Zm-13.3648,16.4917a50.64,50.64,0,0,0-9.81-1.1856,27.6992,27.6992,0,0,0-16.9221,5.3353Q599.7972,143.24,593.6,157.09a67.21,67.21,0,0,0-6.1971,27.6476q0,7.3316,2.4788,10.5639a7.7728,7.7728,0,0,0,6.467,3.2329q7.4382,0,15.9536-8.03,8.5127-8.03,12.503-23.1214Z"/><path class="cls-4" d="M711.1437,183.7683l3.6649,3.88a106.3288,106.3288,0,0,1-19.8873,17.3q-11.48,7.8147-18.9167,7.8152a6.9015,6.9015,0,0,1-5.4974-2.5333,10.3777,10.3777,0,0,1-2.1557-6.9523q0-8.6226,6.6746-35.786l11.6257-47.3194q6.35-25.6521,10.6572-34.3844a50.3024,50.3024,0,0,1,44.6757-27.81,10.9289,10.9289,0,0,1,7.2655,2.2251,6.8,6.8,0,0,1,2.6376,5.3725,7.188,7.188,0,0,1-2.5788,5.699q-2.5771,2.2256-7.5165,2.2251a54.6559,54.6559,0,0,1-9.13-1.0778,58.2849,58.2849,0,0,0-9.56-.8624q-4.4029,0-6.6591,1.8241Q713.3283,75.96,710.805,84.22t-8.2161,32.6113l-10.7527,45.1632q-7.9779,33.9532-7.9763,35.4628,0,3.45,2.4788,3.4484,2.3689,0,6.9-2.802A107.9677,107.9677,0,0,0,711.1437,183.7683Z"/><path class="cls-4" d="M759.54,211.5775l1.2938-5.8206q11.318-2.1557,15.144-4.9588,3.8249-2.8,6.899-9.97,3.0719-7.1683,8.3539-29.5883,7.005-29.6411,12.7185-42.6844,8.7309-19.6166,21.72-29.103,12.9872-9.483,26.2466-9.485a23.4253,23.4253,0,0,1,14.3355,4.3113q5.8206,4.3121,5.8206,8.9464a6.121,6.121,0,0,1-1.7769,4.42,5.7126,5.7126,0,0,1-4.2524,1.8325q-3.23,0-7.86-4.2041a42.44,42.44,0,0,0-8.0218-5.9283,12.5665,12.5665,0,0,0-5.5451-1.401,12.2366,12.2366,0,0,0-6.1371,1.7247q-4.2014,2.3722-8.9913,9T819.5284,118.34q-3.35,8.8392-8.5393,29.103-8.1062,32.2307-12.3209,42.7921a43.5308,43.5308,0,0,1-7.33,12.503q15.4128-3.3384,24.5751-3.3407a74.0387,74.0387,0,0,1,10.5639.7008q4.8494,0.7013,16.9232,3.5028,10.4534,2.4805,14.6587,2.4788a10.0851,10.0851,0,0,0,6.9523-2.5432,7.6024,7.6024,0,0,0,2.8564-5.7917,16.4938,16.4938,0,0,0-1.5093-5.7362,15.785,15.785,0,0,1-1.4-5.52,6.1237,6.1237,0,0,1,1.7236-4.6012,6.2165,6.2165,0,0,1,4.5279-1.677,6.803,6.803,0,0,1,5.4974,2.8564,12.2654,12.2654,0,0,1,2.2634,7.8141q0,9.3789-7.7608,16.1691t-21.019,6.79q-6.5752,0-16.9232-.97-34.9236-3.1285-45.7019-3.1263A190.0849,190.0849,0,0,0,759.54,211.5775Z"/><path class="cls-4" d="M969.2969,117.2624l7.1133-1.5093-8.0851,27.2705q-4.8494,16.2774-9.16,37.5107-2.3722,11.5346-2.3711,14.8752t2.6943,3.3407q1.7242,0,5.4974-2.2634a70.6385,70.6385,0,0,0,12.8273-9.9165l3.4495,4.2036q-12.2892,11.2114-15.7382,13.5814a58.9423,58.9423,0,0,1-13.1494,7.0067,23.0285,23.0285,0,0,1-7.9763,1.5093,6.01,6.01,0,0,1-4.2047-1.2938,4.8808,4.8808,0,0,1-1.4-3.7727,16.0737,16.0737,0,0,1,.8618-4.419l4.3113-14.66A91.4326,91.4326,0,0,1,921.87,207.8048q-7.87,4.956-14.4432,4.9588-6.2537,0-9.5933-4.42-4.5279-5.9255-4.5279-15.5216,0-11.423,6.09-25.4381a94.03,94.03,0,0,1,16.33-25.4381q10.2385-11.4238,21.5577-16.8149,8.7309-4.0947,22.4195-4.0959a58.5035,58.5035,0,0,1,7.0067.4309Zm-13.3648,16.4917a50.64,50.64,0,0,0-9.81-1.1856A27.6992,27.6992,0,0,0,929.2,137.9038q-7.2233,5.3358-13.42,19.1865a67.21,67.21,0,0,0-6.1971,27.6476q0,7.3316,2.4788,10.5639a7.7728,7.7728,0,0,0,6.467,3.2329q7.4382,0,15.9536-8.03,8.5127-8.03,12.503-23.1214Z"/><path class="cls-4" d="M1005.1912,209.745h-16.06L1003.251,151q10.24-43.7053,13.42-53.8492a63.5641,63.5641,0,0,1,7.6531-16.7255,50.9086,50.9086,0,0,1,11.2092-11.7628,52.2266,52.2266,0,0,1,14.5521-7.9324,42.183,42.183,0,0,1,13.7424-2.752q5.604,0,8.3539,2.1557a6.9023,6.9023,0,0,1,2.7487,5.7129,6.6354,6.6354,0,0,1-2.4777,5.1737,9.1577,9.1577,0,0,1-6.2448,2.1562,94.8912,94.8912,0,0,1-14.3211-1.617,27.5146,27.5146,0,0,0-5.4919-.6469,9.8982,9.8982,0,0,0-6.2993,2.3783q-2.96,2.38-5.2764,8.4866-2.3156,6.1088-6.5136,25.3525l-7.7441,34.3744a85.9307,85.9307,0,0,1,21.4677-18.1q8.4127-4.7394,16.0747-4.7411a11.9209,11.9209,0,0,1,9.1168,4.0425,14.4621,14.4621,0,0,1,3.7216,10.1858q0,11.5354-11.9644,20.5876-11.9644,9.0541-36.5406,9.701a51.5513,51.5513,0,0,1,13.2582,8.0423A54.15,54.15,0,0,1,1045.45,183.31q4.7961,7.718,12.342,25.849,8.9458,21.5849,16.6,28.7087,7.5431,7.125,16.5989,7.1244a15.3409,15.3409,0,0,0,8.7315-2.3178q3.4484-2.3189,3.4495-4.6878a11.5223,11.5223,0,0,0-1.0784-4.097,12.6244,12.6244,0,0,1-1.1861-4.7422,6.0876,6.0876,0,0,1,1.94-4.419,6.2052,6.2052,0,0,1,4.5279-1.94,6.6947,6.6947,0,0,1,5.1731,2.4244,9.2968,9.2968,0,0,1,2.1557,6.4137q0,7.7614-7.1133,13.7969-7.115,6.0355-18.54,6.0361a38.131,38.131,0,0,1-21.0179-5.935q-9.2723-5.9355-17.3541-18.9922-4.6362-7.5531-16.1691-34.4238-5.3808-12.7324-9.6843-19.1a47.8647,47.8647,0,0,0-9.1468-9.8209Zm11.5079-51.0916q14.4815,0.1083,23.4412-2.8026,8.9575-2.91,12.7662-7.7608a16.7524,16.7524,0,0,0,3.8082-10.5634,9.5282,9.5282,0,0,0-2.2067-6.5752,6.8858,6.8858,0,0,0-5.3253-2.4794q-10.1152,0-30.991,22.565Z"/><path class="cls-4" d="M1142.0835,182.69l3.5561,4.7433q-26.4093,25.1149-45.271,25.1138-7.6547,0-11.6945-5.1731-4.0431-5.1742-4.0425-16.6,0-23.065,14.0123-45.9179,15.7376-25.9753,37.619-25.9767,7.6514,0,11.6945,3.8265T1152,133.2149a23.538,23.538,0,0,1-4.8511,13.7974q-4.8494,6.79-17.3541,14.12-6.2521,3.5567-26.7308,12.8268a67.5339,67.5339,0,0,0-.9707,11.102q0,7.6547,2.4255,10.6717a8.521,8.521,0,0,0,7.06,3.0175,23.0532,23.0532,0,0,0,9.701-2.4788Q1128.3933,192.9313,1142.0835,182.69Zm-37.7267-15.6293q17.3535-7.7605,26.0855-16.7072,5.9256-6.25,5.9283-12.3958a10.7587,10.7587,0,0,0-2.4255-7.3832,8.0142,8.0142,0,0,0-6.3059-2.7487,12.3272,12.3272,0,0,0-7.7608,3.018q-5.0676,3.989-8.5149,12.0721A108.7311,108.7311,0,0,0,1104.3568,167.0606Z"/></svg>