<?xml version="1.0" encoding="utf-8"?>
<!-- Generator: Adobe Illustrator 19.2.1, SVG Export Plug-In . SVG Version: 6.00 Build 0)  -->
<svg version="1.1" id="Layer_1" xmlns="http://www.w3.org/2000/svg" xmlns:xlink="http://www.w3.org/1999/xlink" x="0px" y="0px"
	 viewBox="0 0 399.2 296" style="enable-background:new 0 0 399.2 296;" xml:space="preserve">
<style type="text/css">
	.st0{fill:#EF4136;}
	.st1{fill:#FFFFFF;}
	.st2{fill:#333132;}
</style>
<title>tone</title>
<path class="st0" d="M295.5,1.1c-39.7,7-66.1,44.8-59.1,84.5c7,39.7,44.8,66.1,84.5,59.1s66.1-44.8,59.1-84.5S335.1-5.9,295.5,1.1
	C295.5,1.1,295.5,1.1,295.5,1.1z M319.6,138.3c-36.1,6.4-70.5-17.7-76.9-53.8s17.7-70.5,53.8-76.9c36.1-6.4,70.5,17.7,76.9,53.8
	C379.8,97.5,355.7,131.9,319.6,138.3L319.6,138.3z"/>
<polygon class="st1" points="351.9,133.4 353.3,123.7 358.4,122.7 360.4,130.7 "/>
<path class="st2" d="M178,92.8c0.9,0.2,1.9,0.2,2.8,0.1l-0.1,1.1c-0.2,4.4-6.5,12.9-18.9,25.4c-8.5,7.3-18.2,12.9-28.8,16.6
	c-5.4,2.1-16.1,5.6-32.1,10.6c-0.1,1.8-1.2,3.3-3.4,4.6c-7,6.8-11.2,22.6-12.5,47.4c-0.3,5.6-0.5,12.3-0.7,20.1
	c-1.1,20.1-6.7,35.8-16.9,47c2.5-1.1,5.1-2,7.7-2.7l14.2-3.5c8.9-2.2,15.6-5,20-8.4c0,0.5,0.1,0.7,0.4,0.7
	c-2.7,4.9-7.6,11.2-14.6,19c-8.3,8.5-15.7,14-22,16.4l-5.3,1.3c-2.4,0.6-9.3,1.9-20.6,4c-0.9,0.2-4.2,1.4-9.8,3.6
	c7-6.3,10.9-17,11.7-32.2c0.7-6.2,1.7-12.3,3-18.4l1.4-25.1c1.5-27.5,7-46.6,16.6-57.1c7-7.9,12.6-12.8,16.8-14.7l0-0.8
	c-20.5,2.6-35.5,5.1-45.1,7.5c-15.8,3.9-25.7,9.3-29.6,16c-2.7,1.6-4.3,5.4-4.6,11.7c-0.9,2.5-2.3,3.9-4.2,4.4l-1.6,0.4
	c-0.8,0.2-1.4-1.9-1.7-6.3c0.5-8.8,8.7-21.3,24.8-37.3c9-8.3,21.3-14.3,36.9-18.2c8.4-2.1,30.2-5.7,65.2-11
	c3.4-0.5,6.8-1.2,10.1-2.1l3.2-0.8C155.5,108.2,168.1,101.8,178,92.8z"/>
<path class="st2" d="M162.4,153.8l0.8-0.2c8.5,3.1,21.3,5.5,38.3,7l0,0.8c-1.3,14.3-2.1,23.7-2.3,28l-2.7,49.9
	c-1.5,1.3-9.1,6.6-22.8,15.8c-4.3,3.4-8.4,6.8-12.1,10.1l-0.8,0.2c-18.4-6.2-32.6-8-42.8-5.5l-0.3-1.8c0-0.6,1.8-3.2,5.2-7.7
	c1.1-5.6,2.2-15.8,3.2-30.5c0.7-18.1,1.2-29.8,1.5-35.3c-0.2-1-0.2-2-0.2-2.9c2-1.9,8.7-6.7,20.3-14.4
	C147.7,167,152.6,162.5,162.4,153.8z M152.5,175c0,4.6,0,8-0.1,10.2l-3,55.6l23,2.5l3.3-60.9c0.2-4.1-1.2-5.7-4.1-5
	C168.6,176.9,162.2,176.1,152.5,175z"/>
<path class="st2" d="M399.1,125l0.1-1.9c-5-3.4-15.2-11.1-30.4-23.3c-7.6,17.1-22.2,30.7-40.9,36.5c0.1,0,0.3,0,0.4,0
	c1.6-0.4,1.8,10.8,0.6,33.7c-0.6,10.5-1.7,21.7-3.4,33.5c-3.9,4-5.9,6.2-6,6.7l0.3,1.8c0,0.4,3.4,0.5,10,0.2l26.1,4.8
	c12.7-9.8,24.6-20.6,35.7-32.1c-1.9-1.8-3.6-2.5-5.1-2.1c-1.6,0.3-3.1,1-4.5,1.9c-9.1,7.8-14.1,11.8-15,12c-3.1-0.3-6.1-0.8-9.1-1.5
	c-4.8,0.1-7-2.5-6.8-7.7c0.8-5.9,1.3-9.5,1.4-10.9l-0.3-2.6c4.8-4.9,7.2-7.5,7.2-7.8C377,148.8,390.3,135.1,399.1,125z M353.9,134
	l0.1-2.3c0.1-1.3,0.3-3.5,0.8-6.6c8,6.1,14,10.9,18,14.3l0,0.4c-1.1,0.8-7.4,7.2-19,19.4C353.4,150.8,353.5,142.4,353.9,134z"/>
<path class="st0" d="M353.2,81.8c2.1,0.5,3.4,2.7,2.9,4.8c0,0.1-0.1,0.2-0.1,0.3c-0.3,1.4-1.4,2.5-2.8,2.8l-0.5-2.2
	c0.6-0.1,1.1-0.5,1.3-1.1c0.2-1-0.4-2.1-1.5-2.3c-1-0.2-2,0.4-2.3,1.4c-0.1,0.4-0.1,0.8,0,1.3l0.3,0.1l0.4-1.4l2,0.5l-0.9,3.7
	l-3.1-0.8c-0.8-1.1-1-2.5-0.6-3.8c0.4-2.2,2.5-3.6,4.6-3.2C353,81.7,353.1,81.8,353.2,81.8z"/>
<path class="st0" d="M349.3,92.6l4,2.2l-1.1,2.1l-3.9-2.2c-0.7-0.3-1.6,0-1.9,0.7c-0.3,0.6-0.1,1.4,0.5,1.8l3.9,2.2l-1.1,2.1l-4-2.2
	c-1.7-0.9-2.3-2.7-1.1-4.9S347.6,91.7,349.3,92.6z"/>
<path class="st0" d="M340.8,100.3l5.9,5l-1.5,1.8l-5.9-5L340.8,100.3z"/>
<path class="st0" d="M335.9,105.5l3.7,4.4l1.6-1.3l1.3,1.6l-5,4.2l-1.3-1.6l1.6-1.3l-3.7-4.4L335.9,105.5z"/>
<path class="st0" d="M326.2,111.9l0.7,0.7l2.5-1.3l-0.2-0.9l2.4-1.2l1.1,8.2l-2.6,1.4l-6.1-5.5L326.2,111.9z M330.2,116l-0.5-2.6
	l-1.4,0.7L330.2,116z"/>
<path class="st0" d="M317.6,114.9l1.6,2.1l0.8-0.2l-0.6-2.4l2.3-0.6l1.9,7.5l-4,1c-1.3,0.5-2.8-0.3-3.3-1.6c0-0.1-0.1-0.2-0.1-0.3
	c-0.3-0.9,0-2,0.8-2.6l-2-2.3L317.6,114.9z M318.5,119.9c0.1,0.3,0.5,0.5,0.8,0.4c0,0,0,0,0.1,0l1.4-0.3l-0.3-1.2l-1.4,0.3
	C318.8,119.2,318.5,119.5,318.5,119.9C318.5,119.9,318.5,119.9,318.5,119.9L318.5,119.9z"/>
<path class="st0" d="M307.6,117.2l-1.4,1.6c-0.6-0.7-1.5-1.2-2.4-1.2c-0.4,0-0.9,0-0.9,0.3c0,0.2,0.4,0.4,1,0.5
	c1.2,0.4,3.2,0.9,3,2.9c-0.1,1.3-1.3,2.4-3.5,2.2c-1.2-0.1-2.3-0.6-3.2-1.4l1.4-1.5c0.6,0.6,1.4,0.9,2.2,1c0.5,0,0.6-0.1,0.6-0.3
	c0-0.2-0.5-0.4-1.1-0.6c-1.2-0.4-3.1-0.9-2.9-2.8c0.2-1.7,1.5-2.6,3.6-2.3C305.5,115.6,306.7,116.2,307.6,117.2z"/>
<path class="st0" d="M293.4,113.1l0,0.9l2.6,0.9l0.6-0.8l2.5,0.9l-5.2,6.4l-2.8-1l-0.2-8.2L293.4,113.1z M293.2,118.8l1.5-2.1
	l-1.4-0.5L293.2,118.8z"/>
<path class="st0" d="M288.8,111.1l-4.1,6.6l-2-1.2l3-4.9l-2.5-1.5l1.1-1.7L288.8,111.1z"/>
<path class="st0" d="M282.1,106.6l-5.3,5.6l-4.3-4l1.4-1.5l2.6,2.4l0.5-0.6l-2.5-2.4l1.4-1.5l2.5,2.4l0.6-0.6l-2.6-2.4l1.4-1.5
	L282.1,106.6z"/>
<path class="st0" d="M275.3,101.4l-2.1,0c0.2-0.9-0.1-1.9-0.6-2.6c-0.2-0.4-0.6-0.6-0.8-0.5c-0.2,0.1,0,0.6,0.3,1.1
	c0.5,1.2,1.4,3-0.3,4.1c-1.1,0.7-2.7,0.5-3.9-1.2c-0.7-1-1-2.1-1-3.3l2.1,0.1c0,0.8,0.2,1.6,0.6,2.3c0.3,0.4,0.5,0.4,0.6,0.3
	c0.2-0.1,0-0.6-0.3-1.2c-0.5-1.2-1.3-3,0.3-4c1.4-1,2.9-0.5,4.1,1.2C275.1,98.8,275.5,100.1,275.3,101.4z"/>
<path class="st0" d="M266.9,74.8l-7.7-0.6l0.3-4.1c0-1.5,1.2-2.6,2.7-2.6c1.5,0,2.6,1.2,2.6,2.7c0,0.1,0,0.2,0,0.3l-0.1,1.8l2.4,0.2
	L266.9,74.8z M262.2,69.9c-0.3,0-0.6,0.2-0.7,0.6c0,0,0,0.1,0,0.1l-0.1,1.5l1.2,0.1l0.1-1.5C262.8,70.3,262.6,70,262.2,69.9
	C262.2,69.9,262.2,69.9,262.2,69.9L262.2,69.9z"/>
<path class="st0" d="M269.3,61.1l-0.9,0l-0.8,2.7l0.8,0.5l-0.8,2.5l-6.6-5l0.8-2.8l8.2-0.5L269.3,61.1z M263.6,61.2l2.2,1.4l0.4-1.5
	L263.6,61.2z"/>
<path class="st0" d="M273.2,52.8l-2.6-0.3l-0.4,0.7l2.1,1.2l-1.2,2l-6.7-3.9l2.1-3.6c0.6-1.3,2.2-1.8,3.4-1.2c0.1,0,0.2,0.1,0.3,0.1
	c0.9,0.5,1.4,1.4,1.3,2.4l3.1,0.2L273.2,52.8z M269,50c-0.3-0.2-0.7,0-0.9,0.3c0,0,0,0,0,0.1l-0.7,1.2l1.1,0.6l0.7-1.2
	C269.3,50.7,269.3,50.3,269,50C269,50,269,50,269,50L269,50z"/>
<path class="st0" d="M277.4,47.2l-4.2-3.9l-1.4,1.5l-1.5-1.4l4.4-4.8l1.5,1.4l-1.4,1.5l4.2,3.9L277.4,47.2z"/>
<path class="st0" d="M281.3,41.7l0-2.1c0.9,0.1,1.9-0.1,2.6-0.6c0.4-0.3,0.6-0.6,0.5-0.8c-0.1-0.2-0.6,0-1.1,0.3
	c-1.2,0.5-3,1.4-4.1-0.3c-0.7-1.1-0.6-2.7,1.2-3.9c1-0.7,2.1-1.1,3.3-1l-0.1,2.1c-0.8,0-1.6,0.2-2.3,0.7c-0.4,0.3-0.4,0.5-0.3,0.6
	c0.1,0.2,0.6,0,1.2-0.3c1.2-0.5,3-1.3,4,0.3c1,1.4,0.5,2.9-1.2,4.1C283.9,41.5,282.6,41.9,281.3,41.7z"/>
<path class="st0" d="M299,34.3l-0.4-0.3c-0.5,0.5-1.1,0.8-1.7,1c-1.5,0.4-2.8,0-3.2-1.6c-0.2-1,0.2-2,1-2.5
	c-0.4-0.4-0.7-0.9-0.8-1.4c-0.3-1,0.5-2.1,1.9-2.5c1.1-0.3,2.4,0,2.7,1.1c0.3,1.2-0.4,1.9-1.2,2.5c0.2,0.2,0.4,0.3,0.6,0.4l0.5,0.4
	c0.1-0.4,0.2-0.9,0.2-1.3l1.8,0.3c-0.1,0.7-0.3,1.3-0.6,2c0.6,0.4,1.2,0.8,1.9,1.2L299,34.3z M297.2,33.1c-0.3-0.2-0.6-0.4-0.7-0.5
	c-0.2-0.2-0.5-0.4-0.7-0.6c-0.1,0.2-0.1,0.5-0.1,0.7c0.1,0.5,0.6,0.8,1,0.7c0,0,0,0,0,0C296.9,33.3,297,33.2,297.2,33.1L297.2,33.1z
	 M296.2,29.7c0.4-0.2,0.6-0.6,0.5-1c-0.1-0.2-0.3-0.4-0.5-0.3c0,0,0,0,0,0c-0.3,0.1-0.4,0.3-0.4,0.6c0,0,0,0,0,0
	C295.8,29.3,296,29.5,296.2,29.7L296.2,29.7z"/>
<path class="st0" d="M313.1,33.5l-0.8-2.5l-0.8-0.1l-0.2,2.4l-2.3-0.2l0.7-7.7l4.1,0.4c1.4,0,2.6,1.2,2.6,2.6c0,0.1,0,0.2,0,0.3
	c0,1-0.7,1.9-1.6,2.2l1.2,2.9L313.1,33.5z M313.8,28.4c0-0.4-0.3-0.7-0.6-0.7c0,0,0,0-0.1,0l-1.4-0.1l-0.1,1.2L313,29
	C313.4,29,313.7,28.8,313.8,28.4C313.8,28.5,313.8,28.4,313.8,28.4L313.8,28.4z"/>
<path class="st0" d="M318.5,34.4l2.4-7.4l5.6,1.8l-0.6,1.9l-3.4-1.1l-0.2,0.7l3.3,1.1l-0.6,1.9l-3.3-1.1l-0.3,0.8l3.4,1.1l-0.6,1.9
	L318.5,34.4z"/>
<path class="st0" d="M326.8,37.4l4-6.6l3.5,2.1c1.3,0.7,1.8,2.3,1.1,3.6c-0.7,1.3-2.3,1.8-3.6,1.1c-0.1,0-0.2-0.1-0.2-0.1l-1.5-0.9
	l-1.2,2.1L326.8,37.4z M333.2,35.3c0.2-0.3,0.1-0.7-0.2-0.8c0,0-0.1,0-0.1,0l-1.3-0.8l-0.6,1l1.3,0.8
	C332.6,35.7,333,35.7,333.2,35.3C333.2,35.4,333.2,35.3,333.2,35.3z"/>
<path class="st0" d="M337.9,45.6l0.4-0.9l-2-1.9l-0.8,0.5l-1.9-1.8l7.4-3.7l2.1,2l-3.2,7.6L337.9,45.6z M340.4,40.5l-2.3,1.3l1.1,1
	L340.4,40.5z"/>
<path class="st0" d="M341.2,49.4l6.3-4.5l1.4,1.9l-6.3,4.5L341.2,49.4z"/>
<path class="st0" d="M346.2,57.8l1.7-2l-0.4-0.8l-2.2,1l-1-2.1l7-3.3l1.8,3.7c0.7,1.2,0.3,2.8-0.9,3.5c-0.1,0.1-0.2,0.1-0.3,0.1
	c-0.9,0.5-1.9,0.4-2.7-0.3l-1.9,2.4L346.2,57.8z M350.9,55.8c0.3-0.2,0.4-0.6,0.3-0.9c0,0,0,0,0-0.1l-0.6-1.3l-1.1,0.5l0.6,1.3
	C350.2,55.8,350.5,56,350.9,55.8C350.9,55.9,350.9,55.9,350.9,55.8z"/>
<path class="st0" d="M331.7,68.8c-2.3-13-14.7-21.7-27.7-19.4c-7.1,1.3-13.3,5.6-16.8,12l29.9-6.5c0.8-0.2,1.6,0.3,1.7,1.1
	c0.2,0.8-0.3,1.6-1.1,1.7c0,0,0,0,0,0l-32,6.9c-0.4,1-0.7,2.1-0.9,3.2l30.7-6.6c0.8-0.2,1.6,0.3,1.7,1.1c0.2,0.8-0.3,1.5-1.1,1.7
	l-31.8,6.9c-0.1,1-0.1,2-0.1,3l29.7-6.4c0.8-0.2,1.6,0.3,1.7,1.1c0.2,0.8-0.3,1.6-1.1,1.7c0,0,0,0,0,0l-30,6.5c0,0.1,0,0.2,0,0.3
	c0.2,0.8,0.3,1.7,0.6,2.5l27.1-5.9c0.8-0.2,1.6,0.3,1.7,1.1c0.2,0.8-0.3,1.5-1.1,1.7l-26.7,5.8c0.4,0.9,0.9,1.8,1.4,2.7l23.1-5
	c0.8-0.2,1.6,0.3,1.7,1.1c0.2,0.8-0.3,1.6-1.1,1.7c0,0,0,0,0,0l-22,4.8c0.7,0.9,1.4,1.7,2.2,2.5l17.6-3.8c0.8-0.2,1.6,0.3,1.7,1.1
	c0.2,0.8-0.3,1.6-1.1,1.7c0,0,0,0,0,0l-15.3,3.3c10.8,7.6,25.7,5.1,33.3-5.7C331.4,81.5,332.8,75.1,331.7,68.8z"/>
<circle class="st0" cx="352.2" cy="69.9" r="2.2"/>
<circle class="st0" cx="264.9" cy="86.3" r="2.2"/>
<path class="st2" d="M306.9,206.5l-0.8,0.2c-3.4,3.1-5.9,4.9-7.5,5.2c-2.1-0.8-3.8-2.4-4.5-4.5c0.9-20.8,1.5-34.6,1.8-41.4
	c0.6-9.2,1.8-18.3,3.4-27.3c-10.6-1.4-20.5-5.3-29-11.2c-9.3,9.6-16.4,16.2-21.3,19.8c0.2-3.2-4.4-7.4-13.7-12.7l-2.8,0.7
	c-13.8,13.3-21.5,20.6-23.1,21.9c0,0.2,0,0.4,0,0.5c0.1,1.2,1.1,2,2.3,1.9c2-1.3,4-2.4,6.2-3.4l0.8-0.2c2.8,1.7,4.2,2.8,4.2,3.5
	l-1,18.7c-0.6,11.6-1.4,27.7-2.2,48.2l-9.4,11c7.9,5.9,14.1,9.6,18.6,11.2l0.8-0.2l21-19.5c0.1-1.6-2.3-4.2-7.2-7.6l2.5-46.1
	c0.2-3.9,0.6-9.3,1.3-16.1c0.8-0.4,5.1-4.6,13.1-12.6c5.9,3.5,9.9,5.7,12,6.8c-0.6,10.7-1.1,23.1-1.6,37.2
	c-0.7,10.8-1.9,21.5-3.7,32.1l0,0.8c2.2,4.5,7.5,8.4,15.7,11.9l0.8-0.2c11.6-11,20.1-19.3,25.3-24.7l0.1-1.1c0,0,0,0,0-0.1
	C309,207.8,308.1,206.7,306.9,206.5z"/>
</svg>
