<?xml version="1.0" encoding="utf-8"?>
<!-- Generator: Adobe Illustrator 19.2.1, SVG Export Plug-In . SVG Version: 6.00 Build 0)  -->
<svg version="1.1" id="Layer_1" xmlns="http://www.w3.org/2000/svg" xmlns:xlink="http://www.w3.org/1999/xlink" x="0px" y="0px"
	 viewBox="0 0 122.3 126.1" style="enable-background:new 0 0 122.3 126.1;" xml:space="preserve">
<style type="text/css">
	.st0{fill:rgb(255,255,255);}
</style>
<title>ud</title>
<path class="st0" d="M60.3,98.8c0,0-0.3-4.9-0.6-12.1c-0.2-3.6-0.4-7.9-0.6-12.4c-0.2-4.6-0.4-9.4-0.5-14.3
	c-0.1-2.4-0.2-4.9-0.3-7.2s-0.2-4.7-0.3-7c0-2.3,0.1-4.5,0.2-6.6c0.1-2.1,0.3-4.1,0.4-5.9c0.2-1.8,0.4-3.5,0.5-5
	c0.2-1.5,0.4-2.8,0.6-3.8c0.4-2.1,0.6-3.3,0.6-3.3h0.5c0,0,0.3,1.2,0.6,3.3c0.2,1.1,0.4,2.4,0.6,3.8c0.2,1.5,0.4,3.1,0.5,5
	c0.2,1.8,0.3,3.8,0.4,5.9c0.1,2.1,0.2,4.3,0.2,6.6c0,2.3-0.1,4.6-0.3,7s-0.2,4.8-0.3,7.2c-0.2,4.9-0.3,9.7-0.5,14.3
	c-0.2,4.6-0.4,8.8-0.6,12.4c-0.3,7.3-0.6,12.1-0.6,12.1H60.3L60.3,98.8z"/>
<path class="st0" d="M90,78.9l-9.2,0.4c-5.5,0.2-12.9,0.4-20.3,0.7L55,80.2c-1.8,0.1-3.6,0.1-5.3,0.2c-1.7,0-3.4,0-5-0.1
	c-1.6-0.1-3.1-0.1-4.5-0.3c-3.1-0.2-6.2-0.5-9.2-1.1v-0.3c3-0.5,6.1-0.9,9.2-1.1c1.4-0.1,2.9-0.2,4.5-0.3c1.6-0.1,3.3-0.1,5-0.1
	c1.7,0,3.5,0.1,5.3,0.2l5.5,0.2c7.4,0.2,14.7,0.4,20.3,0.7l9.2,0.4L90,78.9L90,78.9z"/>
<path class="st0" d="M71.8,90.4c0,0-2.8-2.4-7-6.1c-2.1-1.8-4.5-3.9-7.1-6.3c-2.6-2.3-5.3-4.8-8-7.3c-2.7-2.5-5.6-4.8-8.1-7.2
	c-2.2-2.2-4.3-4.6-6.3-7.1c-0.9-1.1-1.6-2.1-2.3-3c-0.7-0.9-1.2-1.8-1.7-2.5c-0.9-1.4-1.3-2.2-1.3-2.2l0.4-0.4c0,0,0.9,0.4,2.2,1.3
	c0.7,0.4,1.5,1,2.5,1.7c0.9,0.7,2,1.4,3.1,2.3c2.5,1.9,4.9,4,7.1,6.2c2.4,2.5,4.7,5.4,7.2,8.1c2.5,2.7,5,5.4,7.3,8
	c2.3,2.6,4.4,5,6.3,7.1c3.7,4.1,6.1,7,6.1,7L71.8,90.4z"/>
<path class="st0" d="M48.9,90c0,0,2.4-2.8,6.1-7c1.8-2.1,3.9-4.5,6.3-7.1c2.3-2.6,4.8-5.3,7.3-8c2.5-2.7,4.8-5.6,7.2-8.1
	c2.2-2.2,4.6-4.3,7.1-6.2c1.1-0.9,2.1-1.6,3.1-2.3c0.9-0.7,1.8-1.2,2.5-1.7c1.4-0.9,2.2-1.3,2.2-1.3l0.4,0.4c0,0-0.4,0.9-1.3,2.2
	c-0.4,0.7-1,1.5-1.7,2.5c-0.7,0.9-1.4,2-2.3,3c-1.9,2.5-4,4.9-6.3,7.1c-2.5,2.4-5.4,4.7-8.1,7.2c-2.7,2.5-5.4,5-8,7.3
	c-2.6,2.3-5,4.4-7.1,6.3c-4.1,3.7-7,6.1-7,6.1L48.9,90z"/>
<path class="st0" d="M31.1,78.6l9.2-0.4c5.5-0.2,12.9-0.4,20.3-0.7l5.5-0.2c1.8-0.1,3.6-0.1,5.3-0.2c1.7,0,3.4,0,5,0.1
	c1.6,0.1,3.1,0.1,4.5,0.3c3.1,0.2,6.2,0.5,9.2,1.1v0.3c-3,0.5-6.1,0.9-9.2,1.1c-1.4,0.1-2.9,0.2-4.5,0.3c-1.6,0.1-3.3,0.1-5,0.1
	c-1.7,0-3.5-0.1-5.3-0.2l-5.5-0.2c-7.4-0.2-14.7-0.4-20.3-0.7l-9.2-0.4C31.1,78.9,31.1,78.6,31.1,78.6z"/>
<path class="st0" d="M65.8,0.1l-0.2,14l-2.8,0l0-1.4c-0.3,0.3-0.6,0.5-0.8,0.7c-0.2,0.2-0.5,0.4-0.8,0.5c-0.3,0.1-0.6,0.2-0.9,0.3
	c-0.4,0.1-0.7,0.1-1.1,0.1c-0.7,0-1.4-0.3-1.8-0.8c-0.5-0.6-0.7-1.4-0.6-2.2L57.1,0L60,0l-0.1,10.9c0,0.3,0.1,0.6,0.3,0.8
	c0.2,0.2,0.5,0.3,0.8,0.3c0.3,0,0.6-0.1,0.9-0.2c0.3-0.2,0.6-0.4,1-0.6l0.1-11L65.8,0.1z"/>
<path class="st0" d="M72.1,15.3l4.7-13.2L79.5,3L79,4.4c0.4-0.1,0.7-0.3,1-0.4c0.3-0.1,0.6-0.2,0.9-0.2c0.3,0,0.6,0,0.9,0
	c0.4,0,0.7,0.1,1.1,0.3c0.7,0.2,1.2,0.7,1.4,1.3c0.2,0.7,0.2,1.5-0.1,2.3l-3.8,10.7l-2.8-1l3.7-10.2c0.1-0.3,0.1-0.6,0-0.8
	c-0.1-0.2-0.4-0.4-0.6-0.5c-0.3-0.1-0.6-0.1-0.9-0.1c-0.3,0.1-0.7,0.2-1.1,0.3l-3.7,10.4L72.1,15.3z"/>
<path class="st0" d="M86.3,21.8l8.1-11.5l2.4,1.7l-8.1,11.5L86.3,21.8z M95.6,8.6l1.5-2.2l2.4,1.7L98,10.3L95.6,8.6z"/>
<path class="st0" d="M97.5,32.2l8.8-6.4c0.2-0.1,0.4-0.4,0.5-0.7c0-0.3-0.1-0.5-0.2-0.7c-0.2-0.3-0.4-0.5-0.7-0.6
	c-0.3-0.1-0.7-0.3-1.1-0.4l-8.9,6.5l-1.7-2.4l11.4-8.2l1.6,2.2l-1.1,0.8c0.4,0.1,0.7,0.2,1.1,0.3c0.3,0.1,0.6,0.2,0.9,0.3
	c0.3,0.1,0.5,0.3,0.7,0.4c0.2,0.2,0.5,0.4,0.6,0.7c0.4,0.4,0.6,1,0.6,1.5c-0.1,0.5-0.2,1-0.5,1.5c0.4,0.1,0.8,0.2,1.2,0.3
	c0.3,0.1,0.6,0.2,0.9,0.3c0.2,0.1,0.5,0.3,0.6,0.4c0.2,0.2,0.3,0.4,0.5,0.6c0.5,0.6,0.7,1.4,0.6,2.1c-0.2,0.8-0.7,1.4-1.4,1.8
	l-9.2,6.7l-1.7-2.4l8.8-6.4c0.2-0.2,0.4-0.4,0.4-0.7c0-0.3-0.1-0.5-0.2-0.7c-0.2-0.3-0.4-0.5-0.7-0.6c-0.3-0.1-0.7-0.3-1.1-0.4
	l-8.9,6.5L97.5,32.2z"/>
<path class="st0" d="M114.3,42.7c1.2-0.3,2.5-0.1,3.5,0.6c1,0.7,1.6,1.8,1.9,3c0.3,1.1,0.3,2.2-0.2,3.3c-0.5,0.9-1.5,1.6-2.5,1.8
	l-8.8,2.1c-0.2,0.1-0.5,0.1-0.7,0.2c-0.2,0.1-0.5,0.2-0.7,0.3l-0.7-2.7c0.2-0.1,0.4-0.1,0.5-0.2s0.3-0.1,0.5-0.2
	c-0.5-0.4-1-0.8-1.4-1.3c-0.4-0.5-0.6-1.1-0.8-1.7c-0.3-0.8-0.1-1.7,0.3-2.4c0.5-0.6,1.2-1.1,2-1.3c0.7-0.2,1.4-0.2,2.1-0.1
	c0.7,0.1,1.3,0.4,1.9,0.7c0.7,0.4,1.3,1,1.8,1.6c0.7,0.7,1.3,1.5,1.9,2.4l0.8-0.2c1.2-0.3,1.6-0.9,1.4-1.8c0-0.5-0.4-0.9-0.8-1.1
	c-0.5-0.1-1-0.1-1.5,0L114.3,42.7z M113.1,49.2c-0.5-0.6-1-1-1.4-1.4c-0.3-0.3-0.7-0.6-1.1-0.8c-0.3-0.2-0.6-0.3-1-0.3
	c-0.3,0-0.6,0-0.9,0.1c-0.4,0.1-0.7,0.3-0.9,0.6c-0.1,0.3-0.2,0.7-0.1,1.1c0.1,0.4,0.3,0.7,0.6,1c0.3,0.3,0.7,0.5,1.1,0.6
	L113.1,49.2z"/>
<path class="st0" d="M118.3,71.2c0-0.1,0-0.2,0-0.2l0-0.2c0-0.2,0-0.5,0-0.7c0-0.3-0.1-0.5-0.3-0.7c-0.4,0.1-0.8,0.1-1.2,0.1
	c-0.4,0-0.7,0-1.1,0c-0.9-0.1-1.8-0.2-2.7-0.5c-0.6-0.2-1.2-0.5-1.7-1c-0.4-0.4-0.7-0.9-0.8-1.5c-0.1-0.6-0.2-1.3-0.1-2l0.1-0.9
	c0-0.2-0.1-0.3-0.2-0.4c-0.1-0.1-0.3-0.2-0.4-0.2c-0.3,0-0.6,0.2-0.7,0.5c-0.1,0.4-0.2,0.9-0.3,1.4c-0.1,0.6-0.2,1.1-0.2,1.8
	c-0.1,0.6-0.2,1.2-0.5,1.8c-0.2,0.5-0.6,1-1.1,1.3c-0.6,0.4-1.3,0.5-1.9,0.4c-1.1,0-2.1-0.8-2.4-1.8c-0.5-1.4-0.6-3-0.4-4.5
	c0-1.2,0.3-2.3,0.9-3.4c0.3-0.7,1-1.1,1.8-1.1c0.5,0,1,0.3,1.4,0.7c0.3,0.4,0.6,0.9,0.7,1.4l0.1,0c0.2-0.4,0.4-0.7,0.7-0.9
	c0.3-0.2,0.7-0.3,1.1-0.3c0.2,0,0.5,0.1,0.7,0.2c0.2,0.1,0.4,0.3,0.6,0.5c0.2,0.2,0.3,0.4,0.5,0.6c0.1,0.2,0.3,0.4,0.3,0.6
	c0.3-0.3,0.5-0.6,0.8-0.8c0.3-0.2,0.6-0.4,1-0.5c0.4-0.1,0.9-0.2,1.4-0.2c0.7,0,1.4,0,2,0.1c0.8,0.1,1.6,0.2,2.4,0.5
	c0.6,0.2,1.1,0.5,1.5,0.9c0.4,0.4,0.6,0.9,0.7,1.5c0.1,0.7,0.2,1.4,0.1,2.1c0,0.6-0.2,1.2-0.5,1.7c-0.3,0.6-0.8,1-1.3,1.4
	c0.3,0.2,0.5,0.4,0.7,0.6c0.2,0.2,0.3,0.3,0.4,0.5c0.1,0.2,0.2,0.4,0.2,0.6c0,0.3,0,0.5,0,0.8L118.3,71.2z M104.6,64.8
	c-0.1,0.7-0.1,1.3,0.1,2c0.2,0.5,0.7,0.7,1.1,0.5c0.2-0.1,0.4-0.2,0.5-0.4c0.3-0.6,0.4-1.3,0.4-1.9c0.1-0.7,0.1-1.3-0.1-2
	c-0.2-0.5-0.7-0.7-1.1-0.5c-0.2,0.1-0.4,0.2-0.5,0.4C104.8,63.5,104.6,64.2,104.6,64.8L104.6,64.8z M113,64.7c0,0.2,0,0.5,0.1,0.7
	c0.1,0.2,0.2,0.4,0.4,0.5c0.3,0.2,0.6,0.3,0.9,0.3c1,0.2,1.9,0.3,2.9,0.3c0.3,0,0.6,0,0.9-0.2c0.2-0.1,0.4-0.2,0.5-0.4
	c0.1-0.2,0.2-0.4,0.2-0.7c0-0.2,0-0.4-0.1-0.6c-0.1-0.2-0.2-0.4-0.4-0.5c-0.3-0.2-0.6-0.3-0.9-0.4c-1-0.2-1.9-0.3-2.9-0.3
	c-0.3,0-0.6,0.1-0.9,0.2c-0.2,0.1-0.4,0.2-0.5,0.4C113.1,64.3,113,64.5,113,64.7L113,64.7z"/>
<path class="st0" d="M104.7,75.8l13.1,5l-1,2.7l-13.1-5L104.7,75.8z M119.8,81.5l2.5,0.9l-1,2.7l-2.5-0.9L119.8,81.5z"/>
<path class="st0" d="M100.7,84.7L112,93l-1.6,2.2l-1.1-0.8c0,0.4,0,0.8,0.1,1.1c0,0.3,0,0.6,0,0.9c0,0.3-0.1,0.6-0.2,0.9
	c-0.1,0.3-0.3,0.7-0.6,1c-0.4,0.6-1,1-1.7,1c-0.8,0-1.5-0.3-2.1-0.8l-9.1-6.7l1.7-2.4l8.8,6.4c0.2,0.2,0.5,0.3,0.8,0.2
	c0.3-0.1,0.5-0.2,0.6-0.5c0.2-0.3,0.3-0.6,0.3-0.9c0-0.3,0.1-0.7,0.1-1.1L99,87.1L100.7,84.7z"/>
<path class="st0" d="M96.7,104.3c0.7,1,1,2.3,0.7,3.5c-0.3,1.2-1.1,2.2-2.1,2.8c-0.9,0.7-2,1.1-3.1,1c-1.1-0.2-2-0.8-2.6-1.7
	l-5.2-7.4c-0.1-0.2-0.3-0.4-0.5-0.6c-0.2-0.2-0.4-0.4-0.5-0.6l2.3-1.6c0.1,0.1,0.3,0.3,0.4,0.4c0.1,0.1,0.3,0.3,0.4,0.4
	c0.2-0.6,0.4-1.2,0.7-1.7c0.3-0.5,0.8-1,1.3-1.3c0.7-0.5,1.5-0.7,2.3-0.5c0.8,0.2,1.5,0.7,1.9,1.4c0.4,0.6,0.7,1.2,0.9,1.9
	c0.1,0.7,0.1,1.4,0,2c-0.2,0.8-0.4,1.5-0.8,2.3c-0.5,0.9-1,1.8-1.5,2.6l0.5,0.7c0.7,1,1.4,1.2,2.2,0.7c0.5-0.2,0.7-0.7,0.8-1.2
	c-0.1-0.5-0.2-1-0.5-1.4L96.7,104.3z M90.2,105.5c0.3-0.7,0.6-1.3,0.8-1.8c0.2-0.4,0.3-0.9,0.3-1.3c0-0.3,0-0.7-0.1-1
	c-0.1-0.3-0.2-0.6-0.4-0.8c-0.2-0.3-0.5-0.5-0.8-0.6c-0.4,0-0.7,0.1-1,0.3c-0.3,0.2-0.6,0.6-0.7,0.9c-0.1,0.4-0.2,0.8-0.2,1.2
	L90.2,105.5z"/>
<path class="st0" d="M77.6,104.2l5.2,18.1l-2.8,0.8l-1.6-5.8c-0.2,0.3-0.4,0.6-0.6,0.8c-0.2,0.2-0.3,0.4-0.5,0.6
	c-0.2,0.2-0.4,0.3-0.6,0.5c-0.3,0.1-0.5,0.2-0.8,0.3c-0.8,0.3-1.7,0.1-2.4-0.4c-0.8-0.7-1.4-1.6-1.6-2.6l-1.8-6.5c-0.4-1-0.4-2,0-3
	c0.3-0.8,1-1.4,1.8-1.6c0.6-0.2,1.2-0.2,1.8-0.1c0.6,0.2,1.2,0.5,1.7,0.9l0.1,0L75,105L77.6,104.2z M75.6,107.8
	c-0.3-0.1-0.6-0.2-0.9-0.3c-0.3-0.1-0.6-0.1-0.9,0c-0.2,0.1-0.3,0.1-0.5,0.2c-0.2,0.1-0.3,0.3-0.3,0.5c-0.1,0.2-0.1,0.5-0.1,0.7
	c0,0.4,0.1,0.8,0.2,1.1l1.4,5c0.1,0.4,0.2,0.7,0.4,1.1c0.1,0.2,0.3,0.4,0.5,0.6c0.2,0.1,0.3,0.2,0.5,0.2c0.2,0,0.4,0,0.6-0.1
	c0.3-0.1,0.5-0.2,0.7-0.4c0.2-0.2,0.5-0.5,0.7-0.7L75.6,107.8z"/>
<path class="st0" d="M62.4,107.2l0.1,18.8l-2.9,0l-0.1-18.8L62.4,107.2z"/>
<path class="st0" d="M43.7,118.9l-2.9-0.7l7.3-13.7c0.3-0.5,0.6-1,1-1.4c0.3-0.3,0.7-0.6,1.1-0.8c0.4-0.2,0.8-0.3,1.2-0.3
	c0.5,0,1,0.1,1.4,0.2l1.2,0.3l-0.6,2.3l-0.7-0.2c-0.5-0.2-1.1-0.1-1.6,0.2c-0.4,0.4-0.7,1-0.8,1.5c-0.1,0.3-0.1,0.6-0.1,0.9
	c0,0.3,0,0.6,0,1l0,12.3l-2.9-0.7l0.4-9.2l-0.1,0L43.7,118.9z"/>
<path class="st0" d="M26.6,92.6l-1,1l0,0c0.6-0.1,1.3-0.1,1.9,0c0.6,0.2,1.1,0.5,1.5,0.9c0.6,0.6,0.9,1.4,0.8,2.2
	c-0.2,1-0.7,2-1.5,2.6l-4.7,4.8c-0.7,0.8-1.6,1.3-2.6,1.5c-0.8,0.1-1.7-0.2-2.2-0.8c-0.2-0.2-0.4-0.4-0.5-0.7
	c-0.1-0.2-0.2-0.5-0.3-0.7c-0.1-0.3-0.1-0.5-0.2-0.8c0-0.3-0.1-0.6-0.1-1l-4.2,4.3l-2.1-2.1l13.3-13.4L26.6,92.6z M18.9,100.6
	c0.1,0.3,0.1,0.6,0.2,1c0.1,0.3,0.2,0.5,0.4,0.7c0.3,0.3,0.6,0.4,1,0.4c0.6-0.2,1.2-0.5,1.6-1l3.7-3.7c0.5-0.4,0.9-1,1-1.6
	c0-0.4-0.1-0.8-0.4-1c-0.2-0.2-0.5-0.4-0.7-0.4c-0.3-0.1-0.6-0.2-1-0.2L18.9,100.6z"/>
<path class="st0" d="M12.7,89.4c-0.6,0.3-1.3,0.6-2,0.7c-0.6,0.1-1.2,0.2-1.8,0c-0.6-0.1-1.1-0.4-1.6-0.8c-0.5-0.5-1-1.1-1.3-1.7
	c-0.3-0.6-0.5-1.3-0.6-2.1c0-0.6,0.1-1.2,0.3-1.7c0.3-0.6,0.7-1,1.1-1.4C7.4,82,8,81.6,8.7,81.3l3.7-1.8c0.6-0.3,1.3-0.6,2-0.7
	c0.6-0.1,1.2-0.2,1.8,0c0.6,0.1,1.1,0.4,1.6,0.8c1.1,1,1.7,2.3,1.9,3.8c0,0.6-0.1,1.2-0.3,1.7c-0.3,0.6-0.7,1-1.1,1.4
	c-0.5,0.5-1.2,0.8-1.8,1.1L12.7,89.4z M9.5,84.1c-0.6,0.2-1.1,0.6-1.4,1.2c-0.3,0.8,0.1,1.8,0.9,2.1c0.1,0,0.1,0,0.2,0.1
	c0.6,0.1,1.2-0.1,1.8-0.4l4.6-2.3c0.6-0.2,1.1-0.6,1.4-1.2c0.3-0.8-0.1-1.8-0.9-2.1c-0.1,0-0.1,0-0.2-0.1c-0.6-0.1-1.2,0.1-1.8,0.4
	L9.5,84.1z"/>
<path class="st0" d="M0.7,70.2L2.2,70l0-0.1c-0.6-0.3-1.1-0.7-1.5-1.2C0.3,68.2,0.1,67.6,0,67c-0.1-0.8,0.1-1.7,0.7-2.3
	c0.8-0.7,1.8-1.1,2.8-1.2l6.7-0.9c1-0.2,2.1-0.1,3,0.4c0.7,0.4,1.2,1.2,1.3,2c0,0.3,0,0.6,0,0.9c0,0.3-0.1,0.5-0.2,0.7
	c-0.1,0.3-0.2,0.5-0.4,0.7c-0.1,0.3-0.3,0.5-0.5,0.8l5.6-0.7l0.4,2.9L1.1,72.9L0.7,70.2z M11.8,68.6c0.2-0.3,0.3-0.6,0.4-0.9
	c0.1-0.3,0.1-0.6,0.1-0.9c0-0.2-0.1-0.4-0.2-0.5c-0.1-0.2-0.2-0.3-0.4-0.4c-0.2-0.1-0.5-0.2-0.7-0.2c-0.4,0-0.8,0-1.1,0l-5.2,0.7
	c-0.4,0-0.8,0.1-1.1,0.3c-0.2,0.1-0.5,0.2-0.6,0.4c-0.1,0.1-0.2,0.3-0.3,0.5c0,0.2,0,0.4,0,0.6c0,0.3,0.1,0.6,0.3,0.8
	c0.2,0.3,0.4,0.5,0.6,0.8L11.8,68.6z"/>
<path class="st0" d="M9.5,45.8l-1.2,6l2,0.4c0.6,0.2,1.2,0.2,1.8-0.1c0.8-0.5,1-1.4,0.6-2.2c0,0-0.1-0.1-0.1-0.1
	c-0.5-0.4-1-0.7-1.6-0.8L10.6,49l0.6-2.9c0.7,0.1,1.3,0.4,1.9,0.7c0.5,0.3,1,0.6,1.4,1.1c0.4,0.5,0.6,1,0.7,1.6
	c0.2,1.4-0.1,2.9-0.8,4.1c-0.3,0.5-0.8,0.9-1.3,1.2c-0.6,0.3-1.2,0.4-1.8,0.4c-0.7,0-1.4,0-2.1-0.2l-4-0.8c-0.7-0.1-1.4-0.4-2-0.6
	c-0.6-0.3-1.1-0.6-1.5-1.1c-0.4-0.5-0.7-1-0.8-1.6c-0.2-1.4,0.1-2.9,0.8-4.1C2,46.2,2.5,45.8,3,45.5c0.6-0.3,1.2-0.4,1.8-0.4
	c0.7,0,1.4,0,2.1,0.2L9.5,45.8z M6.5,48.1L5.8,48c-0.6-0.2-1.2-0.2-1.8,0.1c-0.8,0.5-1,1.4-0.6,2.2c0,0,0.1,0.1,0.1,0.1
	c0.5,0.4,1,0.7,1.6,0.8l0.7,0.1L6.5,48.1z"/>
<path class="st0" d="M17.1,28.2l-1.2-1.5l20.2-16.5l1.2,1.5L17.1,28.2z"/>
</svg>
