<svg id="Layer_1" data-name="Layer 1" xmlns="http://www.w3.org/2000/svg" viewBox="0 0 336.2031 379.1384"><defs><style>.cls-1{fill:#6b3f23;}.cls-2{fill:#c5e67e;}.cls-3{fill:#95d600;}.cls-4{fill:#a88773;}</style></defs><title>unps</title><path class="cls-1" d="M9.3045,285.6832c0-8.4208-.5438-8.9647-4.6179-9.7789l-2.2649-.4534c-0.7246-.5431-0.8142-2.5353.1823-3.0784,4.346,0.1808,8.8728.2719,13.22,0.2719,4.4356,0,8.8728-.0911,13.22-0.2719a2.4554,2.4554,0,0,1,0,3.0784l-2.1738.3623c-4.0756.7246-4.6179,1.4492-4.6179,9.87V306.6c0,10.5954,1.1773,22.2753,14.94,22.2753,11.59,0,15.1221-10.1412,15.1221-22.5457V295.3724c0-7.3355-.3615-14.2168-1.358-16.5713-0.8157-1.9011-2.8072-2.4441-5.2514-2.8968l-2.4457-.4534a2.7269,2.7269,0,0,1,0-3.0784c4.89,0.1808,8.4216.2719,12.1342,0.2719,3.35,0,6.7005-.0911,10.1412-0.2719a2.7242,2.7242,0,0,1,0,3.0784l-1.63.3623c-2.3545.5438-4.0741,1.0869-4.89,2.988-0.995,2.3545-1.358,9.2358-1.358,16.5713v10.1412c0,8.5112-.8142,16.2994-5.7952,21.8226-3.9845,4.2564-10.5938,6.52-17.9293,6.52-6.8813,0-13.038-1.0876-17.9278-5.0706-4.709-3.8948-6.7005-10.5954-6.7005-20.4646V285.6832Z"/><path class="cls-1" d="M70.1606,308.23c0-3.6214,0-4.7075-1.7211-5.7952l-1.2669-.8142a2.1744,2.1744,0,0,1,0-2.7161c3.7126-1.0876,10.5027-3.9845,13.038-5.7055a1.9022,1.9022,0,0,1,1.9018,1.0861,17.6282,17.6282,0,0,0-.1808,2.9895,1.302,1.302,0,0,0,.7246,1.2669c2.7161-1.358,6.7005-3.6214,11.4992-3.6214,9.5989,0,15.394,7.5147,15.394,17.2944,0,12.6765-8.9654,21.4611-22.1857,21.4611a26.2811,26.2811,0,0,1-4.0741-.2719c-0.8142.1808-1.358,0.7246-1.358,2.6249v8.9654c0,6.3375.3615,7.0621,3.35,7.334L88.36,352.6a2.4659,2.4659,0,0,1-.09,3.1687c-4.5283-.1808-8.15-0.2719-12.4061-0.2719-3.9845,0-7.5163.0911-10.7746,0.2719a2.4641,2.4641,0,0,1-.0911-3.1687l1.8107-.1808c2.988-.2719,3.351-1.0876,3.351-7.4251V308.23Zm11.7711,13.9449a7.3884,7.3884,0,0,0,2.0826,5.2514A6.3635,6.3635,0,0,0,88.36,329.51c5.6144,0,8.6935-5.9775,8.6935-14.3975,0-8.8743-4.3475-13.9449-10.3235-13.9449-1.5388,0-3.0791.3615-3.8022,1.2669-0.4527.5438-.9965,1.7211-0.9965,5.2529v14.4872Z"/><path class="cls-1" d="M171.3991,298.8637a25.3189,25.3189,0,0,1-5.3425-1.2448v10.2492a12.9659,12.9659,0,0,1-.3631,4.0741c-2.0826-2.0826-4.7075-5.2514-8.692-9.96l-7.6059-8.9639c-8.15-9.6892-14.036-16.5705-14.9414-20.6454-1.9.1808-4.5268,0.2719-7.6059,0.2719-3.7126,0-8.2393-.0911-12.4957-0.2719-0.9054.2719-.9965,2.4449-0.3615,3.1695l2.5353,0.3623c3.1687,0.4527,4.4371,1.5388,5.1617,3.0784,0.5423,1.2676.6334,2.7168,0.6334,7.697v22.9992c0,7.334-.2719,14.1256-1.2684,16.5713-0.7246,1.9-2.5353,2.5353-4.9794,2.988l-1.54.2719a2.8755,2.8755,0,0,0,0,3.1687c3.4422-.1808,6.7917-0.2719,10.1427-0.2719,3.6214,0,7.2428.0911,12.1326,0.2719a2.8726,2.8726,0,0,0,0-3.1687l-2.5353-.3631c-2.3545-.3615-4.4371-0.9965-5.2514-2.8968-0.9965-2.4457-1.358-9.2373-1.358-16.5713V292.1125c0-3.351,0-4.89.4527-5.7952,1.63,1.358,4.6179,5.1617,9.8693,11.59l20.9173,25.8967c4.2549,5.2514,7.2428,9.8708,7.334,9.8708,2.1738,0,5.3547-1.0956,6.0991-3.2344-0.1808-2.9895-.9374-7.5417-0.9374-13.428V298.8637Z"/><path class="cls-1" d="M180.1884,315.0213C180.0972,302.0729,190.33,294.92,201.0145,294.92s20.2839,6.52,20.2839,19.2874c0,13.2188-9.69,19.4681-20.8277,19.4681C189.6961,333.6752,180.2795,327.517,180.1884,315.0213Zm13.04-1.9915c0,9.5077,2.988,16.48,8.2393,16.48,5.1617,0,6.8813-5.8863,6.7917-14.036-0.0911-8.7831-2.6264-16.389-7.7882-16.389C196.4877,299.085,193.2279,303.1591,193.2279,313.03Z"/><path class="cls-1" d="M231.7145,308.4119c0-3.6229,0-4.709-1.72-5.7952l-1.2684-.8157a2.1785,2.1785,0,0,1,0-2.7161c4.1652-1.1773,10.4131-3.6229,13.22-5.4336a1.8268,1.8268,0,0,1,1.63.8157c-0.1808,1.8107-.3615,3.0776-0.3615,3.8933a0.9441,0.9441,0,0,0,.9054,1.0861c2.4441-1.5388,5.0706-4.5268,8.8728-4.5268a5.0535,5.0535,0,0,1,4.981,5.3425,5.4732,5.4732,0,0,1-5.7952,5.8848,5.0857,5.0857,0,0,1-3.5318-1.63c-2.0826-1.72-2.8968-1.8107-3.4406-1.8107-1.2684,0-1.7211,1.993-1.7211,5.4336v13.9449c0,6.3375.3631,7.0621,3.351,7.334l2.8968,0.2719a2.4659,2.4659,0,0,1-.09,3.1687c-4.346-.1808-7.9689-0.2719-12.2238-0.2719-3.7126,0-7.697.0911-10.685,0.2719a2.4642,2.4642,0,0,1-.0911-3.1687l1.7211-.1808c2.988-.2719,3.35-1.0876,3.35-7.4251v-13.673Z"/><path class="cls-1" d="M278.4419,301.0764c-1.1773,0-1.2684.0911-1.2684,2.0826v13.5833c0,5.0706,0,10.6835,6.339,10.6835a7.4494,7.4494,0,0,0,3.8022-1.358,2.0236,2.0236,0,0,1,1.2684,2.3545,18.4777,18.4777,0,0,1-13.04,5.2529c-7.5147,0-10.1412-4.3475-10.1412-10.3235V303.1591c0-1.9018-.0911-2.0826-1.7211-2.0826h-2.8072a1.8919,1.8919,0,0,1-.5423-2.8072,34.8,34.8,0,0,0,7.5147-4.0741,28.1,28.1,0,0,0,6.7005-7.0636c0.635-.3615,2.2649-0.2712,2.7176.4527v6.7917c0,1.7211.09,1.8107,1.72,1.8107h8.06a2.0546,2.0546,0,0,1,.7231,1.7211c0,0.9965-.27,2.6249-1.1757,3.1687h-8.15Z"/><path class="cls-1" d="M294.9236,282.061c0-3.6214,0-4.6179-1.8107-5.704l-1.54-.9061a2.1785,2.1785,0,0,1,0-2.7161c3.8037-.9054,9.055-3.0791,13.8537-5.0706a1.9884,1.9884,0,0,1,1.54.6334c-0.1808,3.7126-.2719,7.5155-0.2719,13.22V298.18c0,0.8142.1808,1.0861,0.6334,1.0861a5.7434,5.7434,0,0,0,1.4492-.7246c1.9915-1.358,5.8863-3.6214,10.4131-3.6214,7.6059,0,11.41,5.16,11.41,11.41v15.5733c0,6.339.3615,7.0636,3.6214,7.4251l1.4492,0.1823a2.4642,2.4642,0,0,1-.0911,3.1687c-2.8072-.1808-6.6094-0.2719-10.9554-0.2719-3.8948,0-7.7882.0911-9.78,0.2719a2.4642,2.4642,0,0,1-.0911-3.1687l1.63-.2719c2.0826-.3631,2.4457-0.9965,2.4457-5.9775V307.5962c0-3.1687-1.9018-6.0671-6.339-6.0671a6.364,6.364,0,0,0-5.0706,2.1738c-0.5438.6334-.7246,1.72-0.7246,3.35v16.2082c0,4.981.3615,5.6144,2.4441,5.9775l1.63,0.2719a2.4659,2.4659,0,0,1-.09,3.1687c-2.8072-.1808-5.7055-0.2719-10.0515-0.2719-3.7126,0-7.5147.0911-10.5938,0.2719a2.4642,2.4642,0,0,1-.0911-3.1687l1.63-.1823c2.988-.3615,3.351-1.0861,3.351-7.4251V282.061Z"/><path class="cls-2" d="M311.2145,40.2516S277.9509,109.4943,275.51,135.18c-2.441,25.6843,9.2323,44.8815,42.28,33.061,34.3682-12.2924-6.5758-127.99-6.5758-127.99"/><path class="cls-3" d="M291.5231,21.6469s-38.51,79.0048-45.8238,110.2556c-7.3116,31.2478,9.5689,57.2517,65.7883,49.139,58.4656-8.4386-19.9645-159.3946-19.9645-159.3946"/><polygon class="cls-1" points="312.356 137.732 292.278 151.222 292.278 106.032 287.5 106.032 287.5 165.736 269.683 156.361 268.089 159.393 287.5 169.605 287.5 210.096 292.278 210.096 292.278 155.347 314.266 140.573 312.356 137.732"/><path class="cls-2" d="M66.1,26.1636S6.8268,116.4438,2.6089,150.5862c-4.2178,34.14,16.8617,60.5469,76.116,46.9389C140.3459,183.3739,66.1,26.1636,66.1,26.1636"/><path class="cls-3" d="M42.02,14.6218S-2.3482,124.2326.0975,161.5048c2.4469,37.2681,30.0521,60.5008,89.897,32.42C152.23,164.72,42.02,14.6218,42.02,14.6218"/><polygon class="cls-1" points="30.967 154.656 54.335 170.356 54.335 134.763 54.335 129.762 54.335 105.844 59.895 105.844 59.895 109.175 59.895 114.237 59.895 154.059 72.44 143.818 73.834 129.954 77.8 130.354 76.282 145.436 59.895 158.561 59.895 187.247 80.63 176.337 82.485 179.865 59.895 191.75 59.895 238.873 54.335 238.873 54.335 175.156 28.745 157.962 30.967 154.656"/><path class="cls-2" d="M166.1108,3.8609S98.2978,129.9416,96.6829,175.5152c-1.615,45.57,29.2792,77.999,105.9482,53.166,79.7313-25.8244-36.52-224.82-36.52-224.82"/><path class="cls-3" d="M207.4645,0S106.4249,116.1919,93.6573,163.1245c-12.7645,46.928,11.393,87.2237,96.9746,77.98C279.6329,231.4892,207.4645,0,207.4645,0"/><polygon class="cls-1" points="202.764 174.4 172.336 194.844 172.336 148.496 182.095 141.094 204.37 149.67 206.236 144.831 186.956 137.407 202.307 125.76 199.175 121.626 172.336 141.984 172.336 89.751 165.097 89.751 165.097 115.177 148.642 102.277 145.438 106.361 165.097 121.768 165.097 173.623 149.263 165.289 146.945 142.234 141.781 142.756 143.758 162.394 127.01 153.582 124.593 158.174 165.097 179.485 165.097 216.838 138.096 202.632 135.68 207.226 165.097 222.702 165.097 321.74 172.336 330.441 172.336 201.095 205.658 178.705 202.764 174.4"/><path class="cls-4" d="M11.6946,369.4628c0-1.9012-.0376-2.1271-0.8283-2.2213l-0.5835-.0753a0.4356,0.4356,0,0,1,.0376-0.64c1.2424-.0941,2.7107-0.1694,4.3484-0.1694a9.6129,9.6129,0,0,1,3.4448.4894,3.3467,3.3467,0,0,1,2.2965,3.2566c0,3.0872-3.106,3.5389-4.1037,3.5389-0.2259,0-.3953,0-0.6024-0.0188a0.3613,0.3613,0,0,1-.0565-0.5083c1.5624-.4894,1.8824-1.6,1.8824-2.993s-0.7153-2.8989-2.4095-2.8989c-0.6965,0-.7341.2071-0.7341,0.96v7.9438c0,1.7506.1129,1.9012,0.96,2.033l0.6024,0.0941a0.4073,0.4073,0,0,1,0,.64c-1.0542-.0376-1.9765-0.0565-2.88-0.0565s-1.8071.0188-2.8236,0.0565a0.4091,0.4091,0,0,1-.0376-0.64l0.5271-.0941c0.8471-.1506.96-0.2824,0.96-2.033v-6.6638Z"/><path class="cls-4" d="M28.8706,379.1384a6.5363,6.5363,0,0,1-3.2-.7153,6.0938,6.0938,0,0,1-.6024-3.05,0.4645,0.4645,0,0,1,.7153-0.0565c0.3765,1.2236,1.6377,2.9554,3.2378,2.9554a1.8723,1.8723,0,0,0,2.033-1.9012c0-1.5248-1.4306-2.4283-2.56-2.993-1.3553-.6777-2.8424-1.8071-2.8424-3.6707-0.0188-2.1271,1.6377-3.5954,4.3672-3.5954a7.6361,7.6361,0,0,1,2.146.3012,4.4582,4.4582,0,0,0,.64.1506,9.1713,9.1713,0,0,1,.3388,2.6919,0.51,0.51,0,0,1-.7341.0565c-0.32-.96-1.1294-2.3342-2.4848-2.3342a1.7492,1.7492,0,0,0-1.92,1.7506,2.7572,2.7572,0,0,0,1.713,2.146l1.2424,0.6588a4.2942,4.2942,0,0,1,2.6542,3.7837C33.6143,377.6325,31.7131,379.1384,28.8706,379.1384Z"/><path class="cls-4" d="M44.84,376.1265c0,1.7506.1129,1.9012,0.96,2.0142l0.753,0.0941a0.5985,0.5985,0,0,1,0,.6588c-1.2236-.0376-2.146-0.0565-3.05-0.0565s-1.8448.0188-2.9554,0.0565a0.5369,0.5369,0,0,1,0-.6588l0.64-.0941c0.8471-.1318.96-0.2635,0.96-2.0142v-0.9412a3.8607,3.8607,0,0,0-.5083-2.24l-2.24-4.6307a1.5361,1.5361,0,0,0-1.2047-1.1859l-0.64-.1129a0.4383,0.4383,0,0,1,.0753-0.6588c0.8471,0.0376,1.5436.0565,2.6542,0.0565,1.1483,0,2.1083-.0188,2.7483-0.0565a0.4867,0.4867,0,0,1,.0376.6588l-0.64.1506a0.8733,0.8733,0,0,0-.4518.1694,4.6489,4.6489,0,0,0,.4894,1.3177l0.8847,2.0142c0.2824,0.6212.7153,1.4871,0.9412,1.9577,0.5459-.9224,1.1294-2.146,1.6189-3.106a7.8058,7.8058,0,0,0,.9036-2.1271,0.9791,0.9791,0,0,0-.753-0.3012l-0.3577-.0753a0.491,0.491,0,0,1,.0188-0.6588c0.753,0.0376,1.4306.0565,2.1083,0.0565,0.7153,0,1.2989-.0188,1.8448-0.0565a0.4566,0.4566,0,0,1,.0753.6588l-0.4894.0941a1.6377,1.6377,0,0,0-.9789.4518,20.8893,20.8893,0,0,0-1.6377,2.673l-1.1859,2.146a4.1174,4.1174,0,0,0-.6212,2.4283v1.3177Z"/><path class="cls-4" d="M64.4253,366.6015a25.0486,25.0486,0,0,0,.2259,2.9366,0.5167,0.5167,0,0,1-.7153.1318,3.4185,3.4185,0,0,0-3.5389-2.6919c-2.0895,0-4.33,1.7883-4.33,5.5343s2.1648,5.76,4.4237,5.76a4.0729,4.0729,0,0,0,3.84-2.9177,0.538,0.538,0,0,1,.7153.1318,8.35,8.35,0,0,1-.7153,2.9554,14.0038,14.0038,0,0,1-3.8213.6965,8.6016,8.6016,0,0,1-5.0637-1.4306,5.91,5.91,0,0,1-2.3907-4.9319,6.2163,6.2163,0,0,1,2.2777-4.9884,8.24,8.24,0,0,1,5.2143-1.6754A23.0106,23.0106,0,0,1,64.4253,366.6015Z"/><path class="cls-4" d="M74.674,372.87c-0.7718,0-.7906.0188-0.7906,0.5459v2.7107c0,1.7506.1129,1.92,0.96,2.033l0.6024,0.0753a0.5369,0.5369,0,0,1,0,.6588c-1.073-.0376-2.0142-0.0565-2.8613-0.0565-0.9036,0-1.8448.0188-2.8048,0.0565a0.5369,0.5369,0,0,1,0-.6588l0.4518-.0565c0.8659-.1129.96-0.3012,0.96-2.0518v-7.0026c0-1.7506-.0941-1.9389-0.96-2.0518l-0.4518-.0565a0.5369,0.5369,0,0,1,0-.6588c0.9224,0.0376,1.9012.0565,2.8048,0.0565,0.8471,0,1.7883-.0188,2.6166-0.0565a0.5369,0.5369,0,0,1,0,.6588l-0.3953.0565c-0.8094.1129-.9224,0.3012-0.9224,2.0518v2.1836c0,0.5459.0188,0.5647,0.7906,0.5647h3.9154c0.7906,0,.7906-0.0188.7906-0.5647v-2.1836c0-1.7506-.0941-1.9012-0.96-2.033l-0.5083-.0753a0.5369,0.5369,0,0,1,0-.6588c1.0353,0.0376,1.9577.0565,2.8613,0.0565,0.9224,0,1.7883-.0188,2.6542-0.0565a0.5369,0.5369,0,0,1,0,.6588l-0.3765.0565c-0.8659.1318-.9789,0.3012-0.9789,2.0518v7.0026c0,1.7506.1129,1.8824,0.9789,2.033l0.4518,0.0753a0.5369,0.5369,0,0,1,0,.6588c-0.9412-.0376-1.8636-0.0565-2.73-0.0565q-1.4118,0-2.7672.0565a0.5369,0.5369,0,0,1,0-.6588l0.4141-.0565c0.8659-.1129.96-0.3012,0.96-2.0518v-2.7107c0-.5271,0-0.5459-0.7906-0.5459H74.674Z"/><path class="cls-4" d="M102.0736,372.5688c0,4.1037-2.7483,6.57-6.7955,6.57a6.1454,6.1454,0,0,1-6.532-6.419,6.481,6.481,0,0,1,6.72-6.6073A6.2264,6.2264,0,0,1,102.0736,372.5688Zm-6.7579-5.5908c-2.3154,0-3.5578,2.1648-3.5578,5.3084,0,2.2965.8094,5.9861,3.8778,5.9861,2.466,0,3.426-2.4095,3.426-5.459C99.0617,369.5945,97.65,366.978,95.3157,366.978Z"/><path class="cls-4" d="M111.4376,375.7124a3.1179,3.1179,0,0,0,.32,1.7883c0.2447,0.32.5835,0.4706,1.9577,0.4706,1.713,0,2.24-.0565,3.3507-2.24a0.5009,0.5009,0,0,1,.7153.1129,11.6071,11.6071,0,0,1-.8094,3.05c-0.9977-.0376-2.8048-0.0565-4.3484-0.0565h-2.5224c-0.8659,0-1.8071.0188-2.9742,0.0565a0.5166,0.5166,0,0,1-.0565-0.6588l0.7153-.0941c0.8471-.1129.96-0.2635,0.96-2.0142v-7.0026c0-1.7506-.1129-1.92-0.96-2.033l-0.5459-.0753a0.4285,0.4285,0,0,1,.0376-0.6588q1.4683,0.0565,2.8236.0565c0.9036,0,1.8448-.0188,2.786-0.0565a0.5369,0.5369,0,0,1,0,.6588l-0.4894.0753c-0.8471.1318-.96,0.2824-0.96,2.033v6.5885Z"/><path class="cls-4" d="M134.9008,372.5688c0,4.1037-2.7483,6.57-6.7955,6.57a6.1454,6.1454,0,0,1-6.532-6.419,6.481,6.481,0,0,1,6.72-6.6073A6.2264,6.2264,0,0,1,134.9008,372.5688Zm-6.7579-5.5908c-2.3154,0-3.5578,2.1648-3.5578,5.3084,0,2.2965.8094,5.9861,3.8778,5.9861,2.466,0,3.426-2.4095,3.426-5.459C131.889,369.5945,130.4772,366.978,128.143,366.978Z"/><path class="cls-4" d="M151.9074,376.71c0,0.7906.0376,1.1671,0.3953,1.2424a0.4008,0.4008,0,0,1-.0565.4518,8.4262,8.4262,0,0,0-1.3177.2824,14.5424,14.5424,0,0,1-3.3319.4518,9.3764,9.3764,0,0,1-3.7084-.6588,5.93,5.93,0,0,1-3.7084-5.6849,6.236,6.236,0,0,1,3.3131-5.6849,9.2006,9.2006,0,0,1,4.4049-.9977,24.0138,24.0138,0,0,1,3.7272.4518c0.0565,0.5647.0753,1.8824,0.2635,3.0307a0.5042,0.5042,0,0,1-.7153.0376,3.4927,3.4927,0,0,0-3.5389-2.6542c-2.993,0-4.4425,2.4848-4.4425,5.459,0,2.6919.9224,4.2919,2.146,5.12a4.6006,4.6006,0,0,0,2.5789.7153c1.073,0,1.2989-.2071,1.2989-1.4306v-1.1859c0-1.0165-.1129-1.1294-1.0165-1.2612l-0.8283-.1129a0.427,0.427,0,0,1,0-.6588c1.3365,0.0376,2.2589.0565,3.1813,0.0565,0.9036,0,1.8259-.0188,2.466-0.0565a0.5369,0.5369,0,0,1,0,.6588l-0.433.0753c-0.5647.0941-.6777,0.2824-0.6777,1.2989V376.71Z"/><path class="cls-4" d="M161.857,376.0889c0,1.7695.1129,1.9012,0.9789,2.0518l0.5271,0.0941a0.5374,0.5374,0,0,1-.0188.6588c-1.0165-.0376-1.9389-0.0565-2.8236-0.0565-0.9036,0-1.8448.0188-2.8613,0.0565a0.5369,0.5369,0,0,1,0-.6588l0.5271-.0941c0.8659-.1506.9789-0.2824,0.9789-2.0518v-6.9273c0-1.7695-.1129-1.9012-0.9789-2.0518l-0.5271-.0941a0.5369,0.5369,0,0,1,0-.6588c1.0165,0.0376,1.9577.0565,2.8613,0.0565,0.8847,0,1.8259-.0188,2.8424-0.0565a0.5369,0.5369,0,0,1,0,.6588l-0.5271.0941c-0.8659.1506-.9789,0.2824-0.9789,2.0518v6.9273Z"/><path class="cls-4" d="M179.8948,366.6015a25.0486,25.0486,0,0,0,.2259,2.9366,0.5167,0.5167,0,0,1-.7153.1318,3.4185,3.4185,0,0,0-3.5389-2.6919c-2.0895,0-4.33,1.7883-4.33,5.5343s2.1648,5.76,4.4237,5.76a4.0729,4.0729,0,0,0,3.84-2.9177,0.538,0.538,0,0,1,.7153.1318,8.35,8.35,0,0,1-.7153,2.9554,14.0038,14.0038,0,0,1-3.8213.6965,8.6016,8.6016,0,0,1-5.0637-1.4306,5.91,5.91,0,0,1-2.3907-4.9319,6.2163,6.2163,0,0,1,2.2777-4.9884,8.24,8.24,0,0,1,5.2143-1.6754A23.0106,23.0106,0,0,1,179.8948,366.6015Z"/><path class="cls-4" d="M188.3761,374.5829c-0.4518,0-.5083.0188-0.6212,0.3765l-0.7341,2.1836a2.1956,2.1956,0,0,0-.1318.6777,0.9233,0.9233,0,0,0,.7718.32l0.5647,0.0941a0.5359,0.5359,0,0,1-.0376.6588c-0.6588-.0376-1.3365-0.0376-2.1271-0.0565-0.64,0-1.073.0565-1.9389,0.0565a0.4915,0.4915,0,0,1-.0565-0.6588l0.5083-.0565a1.2959,1.2959,0,0,0,1.1483-.9412c0.32-.753.6777-1.6565,1.1859-3.0119l1.713-4.5931a6.802,6.802,0,0,0,.6965-2.3907,3.7784,3.7784,0,0,0,1.6377-1.1294,0.3979,0.3979,0,0,1,.433.3765c0.1506,0.5459.3765,1.2424,0.8471,2.5789l2.56,7.3791c0.3953,1.1294.5647,1.5624,1.2612,1.6754l0.7153,0.1129a0.5665,0.5665,0,0,1-.0188.6588c-0.9036-.0376-1.92-0.0565-2.8989-0.0565-0.9412,0-1.6753.0188-2.5413,0.0565a0.4272,0.4272,0,0,1-.0376-0.6588l0.6024-.0941c0.433-.0753.5083-0.2071,0.5083-0.32a7.9478,7.9478,0,0,0-.3577-1.28l-0.5083-1.6189c-0.0941-.3012-0.2447-0.3388-0.9036-0.3388h-2.24Zm2.146-.9977c0.433,0,.5271-0.0565.3765-0.5459l-0.4894-1.5248c-0.2635-.8094-0.6024-1.8259-0.7718-2.2213-0.1506.433-.5271,1.4495-0.8094,2.3154l-0.4706,1.4118c-0.1694.5083-.0753,0.5647,0.3953,0.5647h1.7695Z"/><path class="cls-4" d="M204.8723,375.7124a3.1179,3.1179,0,0,0,.32,1.7883c0.2447,0.32.5835,0.4706,1.9577,0.4706,1.713,0,2.24-.0565,3.3507-2.24a0.5009,0.5009,0,0,1,.7153.1129,11.6071,11.6071,0,0,1-.8094,3.05c-0.9977-.0376-2.8048-0.0565-4.3484-0.0565h-2.5224c-0.8659,0-1.8071.0188-2.9742,0.0565a0.5166,0.5166,0,0,1-.0565-0.6588l0.7153-.0941c0.8471-.1129.96-0.2635,0.96-2.0142v-7.0026c0-1.7506-.1129-1.92-0.96-2.033l-0.5459-.0753a0.4285,0.4285,0,0,1,.0376-0.6588q1.4683,0.0565,2.8236.0565c0.9036,0,1.8448-.0188,2.786-0.0565a0.5369,0.5369,0,0,1,0,.6588l-0.4894.0753c-0.8471.1318-.96,0.2824-0.96,2.033v6.5885Z"/><path class="cls-4" d="M227.3421,379.1384a6.5363,6.5363,0,0,1-3.2-.7153,6.0938,6.0938,0,0,1-.6024-3.05,0.4645,0.4645,0,0,1,.7153-0.0565c0.3765,1.2236,1.6377,2.9554,3.2378,2.9554a1.8723,1.8723,0,0,0,2.033-1.9012c0-1.5248-1.4306-2.4283-2.56-2.993-1.3553-.6777-2.8424-1.8071-2.8424-3.6707-0.0188-2.1271,1.6377-3.5954,4.3672-3.5954a7.6361,7.6361,0,0,1,2.146.3012,4.4582,4.4582,0,0,0,.64.1506,9.1713,9.1713,0,0,1,.3388,2.6919,0.51,0.51,0,0,1-.7341.0565c-0.32-.96-1.1294-2.3342-2.4848-2.3342a1.7492,1.7492,0,0,0-1.92,1.7506,2.7572,2.7572,0,0,0,1.713,2.146l1.2424,0.6588a4.2942,4.2942,0,0,1,2.6542,3.7837C232.0858,377.6325,230.1845,379.1384,227.3421,379.1384Z"/><path class="cls-4" d="M241.2406,371.3075c0,0.5271.0188,0.5647,0.5271,0.5647h1.2989c0.9789,0,1.2047-.1318,1.393-1.0353l0.0941-.4706a0.564,0.564,0,0,1,.6965.0188c-0.0376.6024-.0565,1.28-0.0565,1.9954s0.0188,1.393.0565,1.9954a0.54,0.54,0,0,1-.6965.0188l-0.0941-.4706c-0.1882-.9036-0.4141-1.0542-1.393-1.0542h-1.2989c-0.5083,0-.5271.0188-0.5271,0.5835v2.24a3.4116,3.4116,0,0,0,.3012,1.7883c0.2447,0.3388.6024,0.4894,1.9765,0.4894,1.6377,0,2.2777-.0565,3.3131-2.1836a0.4572,0.4572,0,0,1,.6965.0941,10.6725,10.6725,0,0,1-.7906,3.0119c-0.9977-.0376-2.8048-0.0565-4.3484-0.0565h-2.4471c-0.9036,0-1.8259.0188-3.2378,0.0565a0.5367,0.5367,0,0,1,0-.6588l0.8847-.1318c0.8471-.1318.96-0.2447,0.96-1.9765v-7.0214c0-1.713-.1129-1.8259-0.96-1.9954l-0.4706-.0941a0.4733,0.4733,0,0,1,.0376-0.6588c0.8847,0.0376,1.8071.0565,2.7107,0.0565h3.9907c1.2047,0,2.2777-.0188,2.5224-0.0565,0.0188,0.3012.1506,1.6565,0.2447,2.9177a0.494,0.494,0,0,1-.6965.0753,4.3567,4.3567,0,0,0-.7153-1.4871,2.4737,2.4737,0,0,0-1.8448-.5835h-1.5059c-0.6212,0-.6212.0376-0.6212,0.7341v3.2942Z"/><path class="cls-4" d="M253.4847,369.4628c0-1.8824-.0376-2.0895-0.8283-2.2024l-0.5083-.0753a0.4285,0.4285,0,0,1,.0376-0.6588c1.4118-.0941,2.88-0.1694,4.6684-0.1694a7.9237,7.9237,0,0,1,3.69.6777A3.0833,3.0833,0,0,1,262.2,369.82a3.0363,3.0363,0,0,1-1.9954,2.8236c-0.1882.0941-.1882,0.2071-0.0941,0.4141,1.2424,2.5224,2.0142,3.9342,2.9177,4.706a2.3025,2.3025,0,0,0,1.2612.5271,0.36,0.36,0,0,1,.0753.4894,4.5349,4.5349,0,0,1-1.4871.1694,3.8454,3.8454,0,0,1-3.6519-1.9765,23.521,23.521,0,0,1-1.4683-2.9177,0.9557,0.9557,0,0,0-.9977-0.6588c-0.6588,0-.6965.0376-0.6965,0.4141v2.3154c0,1.7318.1129,1.8636,0.96,2.0142l0.5083,0.0941a0.5982,0.5982,0,0,1,0,.6588c-0.9977-.0376-1.8636-0.0565-2.7672-0.0565-0.9412,0-1.7695.0188-2.7483,0.0565a0.5367,0.5367,0,0,1,0-.6588l0.5083-.0941c0.8471-.1506.96-0.2824,0.96-2.0142v-6.6638Zm2.5789,2.3907c0,0.6588.0565,0.7153,1.1671,0.7153a1.8082,1.8082,0,0,0,1.4306-.5271,2.7372,2.7372,0,0,0,.6777-2.033,2.4881,2.4881,0,0,0-2.466-2.786c-0.7718,0-.8094.0565-0.8094,0.96v3.6707Z"/><path class="cls-4" d="M275.122,374.1688c-0.96,2.2777-1.4495,3.7648-1.8824,4.819a1.2625,1.2625,0,0,1-.6588.1506,0.779,0.779,0,0,1-.5083-0.1506c-0.2071-.5083-0.5271-1.5059-0.7906-2.146l-3.05-7.6614c-0.7153-1.8071-.8094-1.8448-1.4118-1.9954l-0.753-.1882a0.4779,0.4779,0,0,1,.0753-0.64c0.96,0.0188,1.5812.0565,2.56,0.0565,0.8659,0,1.6754-.0188,2.8236-0.0565a0.5639,0.5639,0,0,1,.0188.64l-0.5647.1129c-0.3388.0753-.4706,0.1882-0.4706,0.3577a15.5868,15.5868,0,0,0,.753,2.0707l1.6565,4.2354c0.2635,0.6965.4894,1.2612,0.6212,1.5812,0.1506-.32.4518-0.96,0.6777-1.5248l0.7153-1.7695c0.4706-1.1859,1.28-3.2942,1.5059-3.9342a2.4721,2.4721,0,0,0,.1882-0.6777c0-.1318-0.1506-0.2071-0.6024-0.32l-0.6024-.1318a0.4351,0.4351,0,0,1,.0753-0.64c0.8847,0.0376,1.6.0565,2.3154,0.0565,0.64,0,1.2047-.0188,1.7506-0.0565a0.5353,0.5353,0,0,1,.0376.64l-0.4894.0941a1.3817,1.3817,0,0,0-1.0918.6212,21.865,21.865,0,0,0-1.5248,3.2Z"/><path class="cls-4" d="M287.2908,376.0889c0,1.7695.1129,1.9012,0.9789,2.0518l0.5271,0.0941a0.5374,0.5374,0,0,1-.0188.6588c-1.0165-.0376-1.9389-0.0565-2.8236-0.0565-0.9036,0-1.8448.0188-2.8613,0.0565a0.5369,0.5369,0,0,1,0-.6588l0.5271-.0941c0.8659-.1506.9789-0.2824,0.9789-2.0518v-6.9273c0-1.7695-.1129-1.9012-0.9789-2.0518l-0.5271-.0941a0.5369,0.5369,0,0,1,0-.6588c1.0165,0.0376,1.9577.0565,2.8613,0.0565,0.8847,0,1.8259-.0188,2.8424-0.0565a0.5369,0.5369,0,0,1,0,.6588l-0.5271.0941c-0.8659.1506-.9789,0.2824-0.9789,2.0518v6.9273Z"/><path class="cls-4" d="M305.3285,366.6015a25.0486,25.0486,0,0,0,.2259,2.9366,0.5167,0.5167,0,0,1-.7153.1318A3.4185,3.4185,0,0,0,301.3,366.978c-2.0895,0-4.33,1.7883-4.33,5.5343s2.1648,5.76,4.4237,5.76a4.0729,4.0729,0,0,0,3.84-2.9177,0.538,0.538,0,0,1,.7153.1318,8.35,8.35,0,0,1-.7153,2.9554,14.0038,14.0038,0,0,1-3.8213.6965,8.6016,8.6016,0,0,1-5.0637-1.4306,5.91,5.91,0,0,1-2.3907-4.9319,6.2163,6.2163,0,0,1,2.2777-4.9884,8.24,8.24,0,0,1,5.2143-1.6754A23.0106,23.0106,0,0,1,305.3285,366.6015Z"/><path class="cls-4" d="M314.7887,371.3075c0,0.5271.0188,0.5647,0.5271,0.5647h1.2989c0.9789,0,1.2047-.1318,1.393-1.0353l0.0941-.4706a0.564,0.564,0,0,1,.6965.0188c-0.0376.6024-.0565,1.28-0.0565,1.9954s0.0188,1.393.0565,1.9954a0.54,0.54,0,0,1-.6965.0188l-0.0941-.4706c-0.1882-.9036-0.4141-1.0542-1.393-1.0542h-1.2989c-0.5083,0-.5271.0188-0.5271,0.5835v2.24a3.4116,3.4116,0,0,0,.3012,1.7883c0.2447,0.3388.6024,0.4894,1.9765,0.4894,1.6377,0,2.2777-.0565,3.3131-2.1836a0.4572,0.4572,0,0,1,.6965.0941,10.6725,10.6725,0,0,1-.7906,3.0119c-0.9977-.0376-2.8048-0.0565-4.3484-0.0565H313.49c-0.9036,0-1.8259.0188-3.2378,0.0565a0.5367,0.5367,0,0,1,0-.6588l0.8847-.1318c0.8471-.1318.96-0.2447,0.96-1.9765v-7.0214c0-1.713-.1129-1.8259-0.96-1.9954l-0.4706-.0941a0.4733,0.4733,0,0,1,.0376-0.6588c0.8847,0.0376,1.8071.0565,2.7107,0.0565h3.9907c1.2047,0,2.2777-.0188,2.5224-0.0565,0.0188,0.3012.1506,1.6565,0.2447,2.9177a0.494,0.494,0,0,1-.6965.0753,4.3567,4.3567,0,0,0-.7153-1.4871,2.4737,2.4737,0,0,0-1.8448-.5835H315.41c-0.6212,0-.6212.0376-0.6212,0.7341v3.2942Z"/><path class="cls-4" d="M329.12,379.1384a6.5363,6.5363,0,0,1-3.2-.7153,6.0938,6.0938,0,0,1-.6024-3.05,0.4645,0.4645,0,0,1,.7153-0.0565c0.3765,1.2236,1.6377,2.9554,3.2378,2.9554a1.8723,1.8723,0,0,0,2.033-1.9012c0-1.5248-1.4306-2.4283-2.56-2.993-1.3553-.6777-2.8424-1.8071-2.8424-3.6707-0.0188-2.1271,1.6377-3.5954,4.3672-3.5954a7.6361,7.6361,0,0,1,2.146.3012,4.4582,4.4582,0,0,0,.64.1506,9.1713,9.1713,0,0,1,.3388,2.6919,0.51,0.51,0,0,1-.7341.0565c-0.32-.96-1.1294-2.3342-2.4848-2.3342a1.7492,1.7492,0,0,0-1.92,1.7506,2.7572,2.7572,0,0,0,1.713,2.146l1.2424,0.6588a4.2942,4.2942,0,0,1,2.6542,3.7837C333.8638,377.6325,331.9626,379.1384,329.12,379.1384Z"/></svg>