<svg id="Layer_1" data-name="Layer 1" xmlns="http://www.w3.org/2000/svg" viewBox="0 0 576 385.2236"><defs><style>.cls-1{fill:#fff;}.cls-2{fill:#c3002f;}.cls-3{fill:#231f20;}.cls-4{fill:#e6e7e8;}.cls-5{fill:#001f5b;}.cls-6{fill:#a7a9ac;}</style></defs><title>uofa</title><path class="cls-1" d="M306.1895,381.4346V284.0781H269.3v97.3565H113.0127V281.5127h23.542l7.751-23.2031A703.6072,703.6072,0,0,0,19.5083,296.833L3.79,303.3437V184.3662l7.018-2.9072A724.7145,724.7145,0,0,1,185.9834,133.55l9.9668-29.8364H184.2363V3.79H393.8145v99.9239H379.9668l9.8955,29.8154a724.6917,724.6917,0,0,1,175.33,47.93l7.0185,2.9072V303.3437l-15.72-6.5107a703.5513,703.5513,0,0,0-125.248-38.6172l7.7314,23.2969h24.0127v99.9219H306.1895Z"/><path class="cls-2" d="M390.0254,7.5791V99.9238H374.7168l12.29,37.03A720.7423,720.7423,0,0,1,563.7422,184.96l4.6787,1.938V297.6728l-10.4795-4.3408A706.7084,706.7084,0,0,0,425.585,253.1953L436.24,285.3018h22.9571v92.3437H309.9785V285.2607l7.5918,0.0127,2.1445,0.0039-1.7041-4.9882H256.8545l-1.6143,4.9755,2.6724-.0068,7.5977-.0185v92.4062H116.8022V285.3018h22.482L149.98,253.2812A706.7208,706.7208,0,0,0,18.0581,293.332l-10.479,4.3408V186.8984l4.6787-1.938A720.6914,720.6914,0,0,1,188.834,136.9756l12.3774-37.0518H188.0259V7.5791H390.0254M397.6035,0H180.4473V107.5029H190.689l-7.56,22.6289A728.5154,728.5154,0,0,0,9.3574,177.9585l-4.6792,1.938L0,181.8345v127.18l10.479-4.34,10.48-4.34a699.6083,699.6083,0,0,1,117.6494-36.9288l-4.7827,14.3165H109.2231V385.2236H273.0894V287.8682H302.4v97.3554h164.376V277.7227H441.7109l-4.7861-14.417A699.5059,699.5059,0,0,1,555.041,300.335l10.48,4.34L576,309.0146v-127.18l-4.6787-1.938-4.6777-1.938a728.4709,728.4709,0,0,0-173.9219-47.8477l-7.5039-22.6079h12.3857V0h0Z"/><path class="cls-3" d="M382.4463,15.1577H195.605v77.187h16.1289L144.7432,292.8809H124.3809v77.1855H257.9316V292.8369l-13.1259.0332,6.5395-20.16h72.0864l6.8858,20.163-12.76-.02v77.2139H451.6191V292.8809h-20.85L364.2158,92.3447h18.23V15.1577h0ZM273.4409,207.8213l14.2124-42.5645,14.128,42.5645h-28.34Z"/><path class="cls-4" d="M326.4775,361.1465V301.7871l16.3194,0.0264L329.81,263.7891H244.8613L232.5244,301.82l16.4863-.041v59.3672H133.3013V301.8008H151.168L224.1191,83.4243H204.5254V24.0781h169.001V83.4243h-21.67L424.332,301.8008h18.3662v59.3457H326.4775ZM314.1426,216.7412L287.68,137.0176l-26.6226,79.7236h53.0855Z"/><path class="cls-5" d="M364.6055,32.999V74.5039H339.4971l78.3974,236.2178h15.8828v41.5039H335.3984V310.7217l19.88,0.0322-19.0869-55.8848H238.377l-18.1343,55.9,19.8476-.0478v41.5039H142.2217V310.7217h15.3721l78.91-236.2178H213.4458V32.999h151.16M248.6733,225.6621H326.502L287.7041,108.7788,248.6733,225.6621M382.4463,15.1577H195.605v77.187h16.1289L144.7432,292.8809H124.3809v77.1855H257.9316V292.8369l-13.1259.0332,6.5395-20.16h72.0864l6.8858,20.163-12.76-.02v77.2139H451.6191V292.8809h-20.85L364.2158,92.3447h18.23V15.1577h0ZM273.4409,207.8213l14.2124-42.5645,14.128,42.5645h-28.34Z"/><polygon class="cls-1" points="339.497 74.504 309.565 74.504 386.876 310.722 417.894 310.722 339.497 74.504"/><polygon class="cls-1" points="268.401 74.504 287.636 74.504 287.636 108.822 220.234 310.769 187.573 311.262 268.401 74.504"/><polygon class="cls-1" points="244.297 238.914 330.984 238.914 326.502 225.662 248.712 225.662 244.297 238.914"/><path class="cls-6" d="M400.041,256.9277L389.82,226.1318q-32.5092-4.69-65.2773-6.372l1.959,5.9023H248.6733l1.9566-5.8594q-32.4916,1.7051-64.7945,6.377L175.541,256.9971A713.13,713.13,0,0,1,400.041,256.9277Z"/><path class="cls-5" d="M560.8418,286.33a712.97,712.97,0,0,0-545.6841,0V191.9624a712.9743,712.9743,0,0,1,545.6841,0V286.33Z"/><path class="cls-1" d="M40.2866,210.2275q3.6966-1.3974,7.4038-2.75v27.6573q0,4.7416,1.1241,6.0254c0.75,0.8554,2.0815.9365,3.997,0.2539a6.7627,6.7627,0,0,0,3.9517-3.1q1.1022-2.09,1.1025-6.913v-27.55q3.671-1.2759,7.3526-2.5108v28.3233a31.0438,31.0438,0,0,1-.4551,6.1875,13.0577,13.0577,0,0,1-1.5215,3.8574,16.33,16.33,0,0,1-4.26,4.6953,23.4436,23.4436,0,0,1-6.2734,3.2822c-4.5566,1.625-7.7593,1.7979-9.625.459s-2.7964-4.5312-2.7964-9.5947V210.2275Z"/><path class="cls-1" d="M71.9917,240.1406V199.1074q3.8473-1.2465,7.7051-2.4482,5.2441,12.7163,10.5073,25.5156-0.1047-14.3174-.2095-28.6343,3.5559-1.048,7.1211-2.0571v41.0332q-3.8539,1.0912-7.6987,2.2266-5.3013-12.8072-10.583-25.5313,0.1047,14.3422.209,28.6846Q75.5127,238.9995,71.9917,240.1406Z"/><path class="cls-1" d="M104.0161,230.6006V189.5679q3.783-1.0292,7.5752-2.0161V228.585Q107.7989,229.5723,104.0161,230.6006Z"/><path class="cls-1" d="M124.9341,225.2539q-4.5879-19.4194-9.1655-38.7744,4.0612-1.0305,8.1313-2.01,3.0358,15.6424,6.0767,31.3111,2.7487-17.0084,5.5009-33.9961,4.03-.8994,8.0664-1.749-4.3036,21.4233-8.5981,42.9Q129.9338,224.0577,124.9341,225.2539Z"/><path class="cls-1" d="M148.29,220.0859V179.0532q10.55-2.1474,21.1469-3.9658v6.8213q-6.7785,1.1631-13.5386,2.4614v9.4854q6.2923-1.2078,12.6006-2.3v6.5014q-6.3075,1.0929-12.6006,2.3v11.2969q6.9207-1.3271,13.86-2.5156v6.9277Q159,217.9068,148.29,220.0859Z"/><path class="cls-1" d="M175.4141,215.1211V174.0884q6.8935-1.1214,13.8022-2.106c4.1758-.5932,7.1856-0.147,9.0259,1.293q2.7589,2.1628,2.7593,7.8691a12.5857,12.5857,0,0,1-1.481,6.4883,7.0152,7.0152,0,0,1-4.36,3.2734c3.66,0.4717,5.5718,3.3028,5.7334,8.45V199.89q0.1077,2.7042.2154,5.4082a12.7947,12.7947,0,0,0,.5923,3.6436,5.2576,5.2576,0,0,0,1.5083,2.2256q-4.5792.5581-9.1529,1.1767a12.4875,12.4875,0,0,1-.4843-2.372q-0.1605-1.377-.2149-3.9278-0.0541-2.1372-.1079-4.2744v-1.0927q0-3.57-1.5332-4.6924c-1.0215-.7461-3.1016-0.9014-6.2363-0.4385q-1.3162.1949-2.6319,0.3935v18.0127Q179.1293,214.5161,175.4141,215.1211Zm7.4345-24.8565q2.2156-.3354,4.4327-0.6582c2.2392-.3247,3.7944-0.9848,4.6645-1.9931s1.3042-2.6568,1.3042-4.9483q0-3.0644-1.4253-4.0947c-0.9507-.6851-2.68-0.8525-5.1885-0.4868q-1.894.2777-3.7876,0.564v11.6171Z"/><path class="cls-1" d="M206.4165,196.3691q3.8664-.4526,7.7378-0.8632v2.6377q0,3.7836.9575,5.0546,0.9573,1.273,3.3057,1.0352a5.7533,5.7533,0,0,0,3.7383-1.5889,5.2064,5.2064,0,0,0,1.2827-3.7431,5.1257,5.1257,0,0,0-.8911-3.0752,13.7209,13.7209,0,0,0-3.86-3.0244q-1.9835-1.188-3.9663-2.3653c-3.417-1.9844-5.5864-3.67-6.5122-5.0932a10.1028,10.1028,0,0,1-1.3882-5.5943,11.8122,11.8122,0,0,1,3.1-8.4546,13.0972,13.0972,0,0,1,8.5508-3.8364c3.85-.3833,6.8032.3916,8.8559,2.2915s3.08,4.8023,3.08,8.6914q0,0.5859-.0136.9072t-0.0406.5625q-3.6746.3033-7.3471,0.6455v-1.0922q0.0006-3.331-1.1065-4.6651t-3.644-1.0844a4.3358,4.3358,0,0,0-2.9273,1.3784,4.4832,4.4832,0,0,0-1.0659,3.1093c0,1.7242,1.5913,3.459,4.7759,5.24,0.0268,0.0151.0537,0.03,0.081,0.0454q2.1321,1.2144,4.2652,2.4429c3.0415,1.7085,5.1045,3.4135,6.185,5.09a14.0422,14.0422,0,0,1-1.6211,15.5249c-2.1606,2.2119-5.2495,3.4981-9.2612,3.8965-4.1738.415-7.28-.3066-9.3193-2.209q-3.0594-2.8506-3.0591-9.3994,0-.6928.1079-2.3037v-0.16Z"/><path class="cls-1" d="M237.4883,207.8418V166.8091q3.88-.28,7.7612-0.5176v41.0327Q241.3676,207.563,237.4883,207.8418Z"/><path class="cls-1" d="M258.2661,206.6514V172.3857q-4.4663.189-8.9311,0.4361v-6.7676q12.8115-.7075,25.6386-0.9468v6.7676q-4.4692.0849-8.937,0.2236v34.2657Q262.1511,206.4858,258.2661,206.6514Z"/><path class="cls-1" d="M286.9463,206.0205V188.6216q-5.4712-11.8081-10.9434-23.5318,4.3067-.0732,8.6138-0.0947,3.156,7.6977,6.312,15.4258,3.1158-7.7014,6.23-15.374,4.1835,0.0541,8.3691.1592-5.376,11.682-10.7529,23.4477v17.3989Q290.86,206.0146,286.9463,206.0205Z"/><path class="cls-1" d="M317.1377,179.4453a5.0353,5.0353,0,0,1,3.5527,1.4893,4.942,4.942,0,0,1,1.3526,3.5879,7.9758,7.9758,0,0,1-2.0948,5.5625,6.2075,6.2075,0,0,1-5.0234,2.19,5.1312,5.1312,0,0,1-3.6289-1.4229,4.928,4.928,0,0,1-1.3057-3.6059,7.9684,7.9684,0,0,1,2.1377-5.5967A6.228,6.228,0,0,1,317.1377,179.4453Zm1.58,2.9756a2.2074,2.2074,0,0,0-.4053-1.3975,1.41,1.41,0,0,0-1.1064-.5478,1.788,1.788,0,0,0-1.43.6929,7.61,7.61,0,0,0-1.25,2.3388,22.0248,22.0248,0,0,0-.9073,3.0781,12.8259,12.8259,0,0,0-.33,2.6665,2.2646,2.2646,0,0,0,.3984,1.4273,1.4543,1.4543,0,0,0,1.1553.5371,1.75,1.75,0,0,0,1.3662-.6157,6.99,6.99,0,0,0,1.2168-2.1348,19.6761,19.6761,0,0,0,.9414-3.1728A14.2932,14.2932,0,0,0,318.7178,182.4209Z"/><path class="cls-1" d="M330.1475,181.0542q1.3534,0.0813,2.706.168-0.1451.5456-.289,1.0913-1.3447-.0858-2.69-0.1665-0.7221,2.9875-1.4424,5.9756-1.7709,7.5117-3.2412,9.7221a4.2073,4.2073,0,0,1-3.8759,2.0908,2.8852,2.8852,0,0,1-1.8067-.6523,1.88,1.88,0,0,1-.6943-1.4785,1.3065,1.3065,0,0,1,.3369-0.9453,1.1152,1.1152,0,0,1,.9-0.3242,1.1365,1.1365,0,0,1,.8105.3017,1.7038,1.7038,0,0,1,.3428.9688,1.8151,1.8151,0,0,0,.2207.7207,0.5121,0.5121,0,0,0,.4258.2441q0.8524,0.0409,1.91-4.5449c0.1368-.5791.2432-1.0288,0.3155-1.35q1.2772-5.46,2.5547-10.9156-1.1661-.0643-2.335-0.1245,0.1318-.5486.2617-1.0962,1.21,0.0637,2.418.13a12.8665,12.8665,0,0,1,2.5889-5.77,4.9132,4.9132,0,0,1,4.1533-1.7495,3.8115,3.8115,0,0,1,2.0176.67,1.6662,1.6662,0,0,1,.8251,1.3491,1.3974,1.3974,0,0,1-.3779,1.062,1.5744,1.5744,0,0,1-1.7988.0684,1.67,1.67,0,0,1-.46-0.7139c-0.0263-.0654-0.0644-0.1626-0.1093-0.2915a1.2154,1.2154,0,0,0-.9063-1.0322q-1.1265-.0732-2.2393,4.5664-0.06.2467-.122,0.4932Q330.3477,180.2885,330.1475,181.0542Z"/><path class="cls-1" d="M340.7822,208.01q4.69-20.1621,9.376-40.2618,5.2,0.4637,10.3926,1.0039,4.7211,21.0074,9.4375,42.0792-4.1631-.4908-8.3311-0.9307-1.0254-5.2632-2.0508-10.5244-4.4515-.4586-8.9072-0.8574-1,5.0639-2,10.1347Q344.7426,208.3091,340.7822,208.01Zm11.1309-15.5367q3.2959,0.3018,6.5879.6353-1.6611-8.7751-3.32-17.54Q353.5473,184.0164,351.9131,192.4731Z"/><path class="cls-1" d="M374.0557,211.3232V170.29q6.9228,0.8554,13.83,1.85c4.1748,0.6026,7.1778,1.91,9.0118,3.8755q2.7495,2.9517,2.749,8.6582a10.398,10.398,0,0,1-1.4746,6.065,4.9045,4.9045,0,0,1-4.3487,2.0258c3.6514,1.5186,5.5557,4.8965,5.7159,10.09q0.0014,0.3471,0,.5332,0.1083,2.7363.2148,5.4707a14.7445,14.7445,0,0,0,.5908,3.8125,7.68,7.68,0,0,0,1.502,2.6562q-4.5586-.75-9.125-1.44a14.8155,14.8155,0,0,1-.4834-2.5107q-0.1611-1.4238-.2149-3.9893-0.0542-2.1519-.1074-4.3056v-1.0918q0-3.5713-1.5312-5.1309c-1.0205-1.0381-3.0987-1.79-6.2364-2.2246q-1.3184-.1832-2.6357-0.36v18.0127Q377.7861,211.7838,374.0557,211.3232Zm7.457-22.7246q2.2192,0.2988,4.4375.6118c2.24,0.3165,3.7939.1016,4.6631-.6586s1.3027-2.2832,1.3027-4.5752a6.183,6.183,0,0,0-1.4238-4.5015c-0.9492-.957-2.6777-1.6211-5.1875-1.9727q-1.8955-.265-3.792-0.521v11.6172Z"/><path class="cls-1" d="M405.8135,215.9922V174.96q3.8453,0.6563,7.6845,1.3545v41.0327Q409.6587,216.648,405.8135,215.9922Z"/><path class="cls-1" d="M418.6328,218.3008V211.373q7.2289-12.4833,14.4356-24.8134-6.8467-1.4488-13.7139-2.7593v-6.395q10.9423,2.0874,21.833,4.5268v6.315q-7.1,12.3047-14.2236,24.76,7.43,1.503,14.8349,3.168v6.9277Q430.2471,220.5039,418.6328,218.3008Z"/><path class="cls-1" d="M446.0762,203.5625a67.7188,67.7188,0,0,1,.61-10.29,12.2019,12.2019,0,0,1,1.9092-5.4283,7.4875,7.4875,0,0,1,4.24-2.9839,13.8822,13.8822,0,0,1,6.4825.4024,18.0626,18.0626,0,0,1,6.4707,2.8628,15.6524,15.6524,0,0,1,4.2451,5.1245,19.52,19.52,0,0,1,1.8847,6.4258,75.6328,75.6328,0,0,1,.5918,10.5527,67.2615,67.2615,0,0,1-.6054,10.2129,12.5892,12.5892,0,0,1-1.8711,5.4219,7.3883,7.3883,0,0,1-4.2451,2.8691,14.4459,14.4459,0,0,1-6.4707-.4648,18.7267,18.7267,0,0,1-6.4825-2.8008,15.0794,15.0794,0,0,1-4.24-5.01,18.5436,18.5436,0,0,1-1.9092-6.3213A73.7434,73.7434,0,0,1,446.0762,203.5625Zm7.7734,1.8467q0,10.125,1.1768,13.0371a5.9822,5.9822,0,0,0,4.3447,3.706q3.1143,0.7867,4.2607-1.4824,1.147-2.2749,1.1475-12.5049,0-10.2319-1.16-13.1445a5.9282,5.9282,0,0,0-4.3007-3.7095c-2.0957-.5283-3.53-0.01-4.3057,1.54Q453.8511,195.1782,453.85,205.4092Z"/><path class="cls-1" d="M478.6738,232.4561V191.4238q3.88,1.098,7.752,2.24,5.2617,15.9023,10.5049,31.8877-0.1055-14.38-.209-28.7618,3.5435,1.106,7.0781,2.25v41.0332q-3.8217-1.2378-7.6533-2.4287-5.2852-16.02-10.5869-31.9531,0.1039,14.4067.21,28.8125Q482.226,233.461,478.6738,232.4561Z"/><path class="cls-1" d="M507.6836,241.3428q4.519-19.0254,9.0234-37.9864,4.9981,1.7256,9.9746,3.5284,4.5235,22.1557,9.0313,44.3759-3.9786-1.5044-7.9717-2.958-0.9829-5.5137-1.9648-11.0234-4.2685-1.54-8.55-3.0215-0.961,4.8224-1.9219,9.6494Q511.5005,242.6021,507.6836,241.3428Zm10.7109-12.835q3.1641,1.1031,6.3213,2.2354-1.5907-9.1788-3.1845-18.3477Q519.9624,220.4492,518.3945,228.5078Z"/></svg>