<svg id="Layer_1" data-name="Layer 1" xmlns="http://www.w3.org/2000/svg" viewBox="0 0 646 404.4998"><defs><style>.cls-1{fill:none;}.cls-2{fill:#393c48;}.cls-3{fill:#3a3d49;}.cls-4{fill:#b5a971;}</style></defs><title>veum</title><path class="cls-1" d="M198.0895,111.8829a83.0826,83.0826,0,0,0-8.6672-.421h0A83.0809,83.0809,0,0,1,198.0895,111.8829Z" transform="translate(0 0)"/><path class="cls-1" d="M214.7925,151.3968c-0.8021,1.9722-1.7075,4.1454-2.7286,6.5435C213.085,155.5422,213.99,153.3689,214.7925,151.3968Z" transform="translate(0 0)"/><path class="cls-1" d="M216.0387,148.28q-0.3423.8732-.7216,1.8185Q215.6964,149.1534,216.0387,148.28Z" transform="translate(0 0)"/><path class="cls-1" d="M194.36,166.742q8.4508-19.1872,10.3871-25.7036a40.0643,40.0643,0,0,0,1.9365-11.0912,15.9521,15.9521,0,0,0-2.8167-9.3308,17.3754,17.3754,0,0,0-8.2745-6.1618,36.7484,36.7484,0,0,0-6.17-1.778v65.1388Z" transform="translate(0 0)"/><path class="cls-1" d="M216.7857,146.3482q1.2414-3.2737,1.8474-5.31c0.1155-.3885.22-0.7657,0.3248-1.144-0.1052.3782-.2094,0.7555-0.3249,1.144Q218.0269,143.0745,216.7857,146.3482Z" transform="translate(0 0)"/><path class="cls-1" d="M203.1069,112.6313a40.1226,40.1226,0,0,1,4.4016,1.1222A40.1226,40.1226,0,0,0,203.1069,112.6313Z" transform="translate(0 0)"/><path class="cls-1" d="M220.1729,126.16a17.0438,17.0438,0,0,1,.3525,2.4864A17.0438,17.0438,0,0,0,220.1729,126.16Z" transform="translate(0 0)"/><path class="cls-1" d="M220.57,129.9472q0-.66-0.0441-1.3011,0.044,0.6409.0441,1.3011h0Z" transform="translate(0 0)"/><path class="cls-1" d="M480.6257,313.2878c0,4.8389,3.558,9.3931,10.9584,9.3931,9.6779,0,16.5087-10.247,16.5087-19.0706v-1.7079h-3.1307C495.5694,301.9024,480.6257,303.1834,480.6257,313.2878Z" transform="translate(0 0)"/><path class="cls-1" d="M400.9125,145.651c-9.25,0-15.7969,5.55-17.7892,14.6586H414.575C414.2905,151.6283,408.3137,145.651,400.9125,145.651Z" transform="translate(0 0)"/><path class="cls-2" d="M376.5374,120.7454h2.704V104.9481H367.2868c-7.116,0-9.5349,1.85-11.8123,8.2543L336.12,169.56a143.0362,143.0362,0,0,0-3.8423,14.8008h-0.2852A143.0362,143.0362,0,0,0,328.15,169.56l-19.355-56.3577c-2.2775-6.4042-4.8393-8.2543-11.9545-8.2543H285.0273v15.7973h2.5618c2.4193,0,3.5576.7114,4.4116,3.131l30.3141,82.1169h19.6393l30.1711-82.1169C372.9793,121.4568,374.1185,120.7454,376.5374,120.7454Z" transform="translate(0 0)"/><path class="cls-2" d="M432.2228,196.7428L424.68,184.2187s-8.6817,8.1122-20.3519,8.1122c-10.9584,0-20.3511-6.689-21.7746-19.4976h50.0956s0.4274-4.5541.4274-6.689c0-19.2127-11.3858-34.44-32.1642-34.44-21.7738,0-36.86,15.6547-36.86,37.9985,0,20.6362,14.943,37.9989,38.9951,37.9989A44.1455,44.1455,0,0,0,432.2228,196.7428Zm-31.31-51.0918c7.4012,0,13.3781,5.9773,13.6625,14.6586H383.1232C385.1155,151.2013,391.662,145.651,400.9125,145.651Z" transform="translate(0 0)"/><path class="cls-2" d="M444.0894,151.9127v28.1789c0,19.7823,9.5349,27.61,25.0474,27.61,12.5241,0,21.6324-7.543,25.0482-15.0856h0.2844s-0.1422,1.5653-.1422,3.2732v1.9923c0,5.1234,3.2728,8.1122,9.5349,8.1122h16.6517V190.7656H514.82a2.8476,2.8476,0,0,1-3.1306-3.131V133.4117H493.6155v33.3022c0,12.9507-7.2582,24.4786-20.3511,24.4786-8.9661,0-11.2435-5.9777-11.2435-14.8011V142.947c0-6.5468-2.8463-9.5353-9.5349-9.5353h-17.22v15.37h5.6925A2.7867,2.7867,0,0,1,444.0894,151.9127Z" transform="translate(0 0)"/><path class="cls-2" d="M640.45,190.7656a2.8476,2.8476,0,0,1-3.1307-3.131v-28.321c0-19.0706-8.6817-27.61-23.7669-27.61-11.528,0-20.9207,7.1156-24.763,14.9434h-0.2852c-3.1306-9.82-10.2466-14.9434-21.205-14.9434-11.3857,0-20.0667,7.97-23.4825,15.0856H543.532s0.1422-1.5653.1422-3.131v-2.1349c0-5.1233-3.1307-8.1118-9.5349-8.1118H517.4876v15.37h5.6933a2.7861,2.7861,0,0,1,3.1306,3.131v54.0807h17.9322V174.1143a37.1091,37.1091,0,0,1,1.1384-9.1083c2.2767-9.25,8.3965-16.7935,17.5048-16.7935,8.6818,0,9.82,6.689,9.82,14.5164v43.2645h18.0744V174.1143a31.7019,31.7019,0,0,1,1.1384-9.25c1.9923-9.1083,8.3965-16.6513,17.3627-16.6513,8.3965,0,9.9622,6.2621,9.9622,14.5164v33.587c0,6.8312,2.8463,9.6775,9.6779,9.6775H646V190.7656h-5.55Z" transform="translate(0 0)"/><path class="cls-2" d="M439.7441,316.1341a2.8475,2.8475,0,0,1-3.1307,3.131h-22.06a2.8474,2.8474,0,0,1-3.1306-3.131V243.6946c0-6.6886-2.8463-9.6774-9.6779-9.6774H383.5286v15.7973h6.12a2.8475,2.8475,0,0,1,3.1307,3.131V325.385c0,6.8312,2.847,9.6774,9.6779,9.6774h44.5453c6.8309,0,9.6779-2.8463,9.6779-9.6774v-15.37h-16.936v6.1194Z" transform="translate(0 0)"/><path class="cls-2" d="M525.8828,316.7037V289.6631c0-16.2239-7.116-28.89-31.31-28.89-7.5426,0-26.6132,1.4231-26.6132,14.9434v7.6852h16.7939v-3.8428c0-3.985,6.4042-4.8386,9.6771-4.8386,9.25,0,13.3781,3.8424,13.3781,14.2316v0.5692h-2.2767c-11.8124,0-43.1226,1.85-43.1226,24.6208,0,14.5164,11.8123,22.6286,24.7631,22.6286,16.3665,0,21.9168-12.8085,21.9168-12.8085h0.2852s-0.1422,1.2805-.1422,3.1307c0,4.27,2.5611,7.97,9.25,7.97h16.2243V319.8346h-5.6932A2.8476,2.8476,0,0,1,525.8828,316.7037Zm-17.79-13.0933c0,8.8235-6.8309,19.0706-16.5087,19.0706-7.4,0-10.9584-4.5541-10.9584-9.3931,0-10.1044,14.9437-11.3854,24.3364-11.3854h3.1307V303.61Z" transform="translate(0 0)"/><path class="cls-2" d="M623.3715,269.8812L612.84,310.1568a62.3071,62.3071,0,0,0-1.4227,7.6852h-0.2844a50.3766,50.3766,0,0,0-1.5657-7.6852l-13.52-47.3916H580.1074l-13.3781,47.3916a63.7087,63.7087,0,0,0-1.7079,7.6852h-0.2844a62.3841,62.3841,0,0,0-1.4235-7.6852L552.64,269.8812c-1.4227-5.55-4.269-7.4-10.2466-7.4H530.0117v15.37h1.9923c2.1345,0,3.2728.427,3.9846,2.5619l17.3626,54.65h20.4941l12.239-41.4143c1.1383-3.8424,1.85-7.8274,1.85-7.8274h0.2844a62.86,62.86,0,0,0,1.7079,7.8274l12.3819,41.4143H622.66l17.3627-54.65c0.8539-2.1349,1.85-2.5619,3.9854-2.5619H646v-15.37H633.6181C627.6412,262.4808,624.795,264.3309,623.3715,269.8812Z" transform="translate(0 0)"/><path class="cls-3" d="M88.4286,36.958A11.3813,11.3813,0,0,1,99.81,25.5767h2.8138A11.3813,11.3813,0,0,1,114.005,36.958v67.99h14.3138v6.5137h-3.873a83.7507,83.7507,0,0,0-10.4407.5735v50.5992l25.5764,59.7372V36.958a11.3813,11.3813,0,0,1,11.3813-11.3813h2.8137A11.3813,11.3813,0,0,1,165.1577,36.958V232.23l-10.895,24.4324,6.7341,15.7285,4.1609-9.2305v0.2089l43.0881-96.627q1.5845-3.5977,2.94-6.75,0.4518-1.0508.8781-2.0519c1.0211-2.3981,1.9265-4.5713,2.7286-6.5435q0.2705-.6652.5246-1.2982,0.3793-.9453.7216-1.8185c0.2634-.672.5165-1.3238,0.747-1.9318q1.2413-3.2737,1.8473-5.31c0.1155-.3885.22-0.7658,0.3249-1.144a38.0841,38.0841,0,0,0,1.6116-9.9471q0-.66-0.0441-1.3011a17.0438,17.0438,0,0,0-.3525-2.4864,15.4185,15.4185,0,0,0-2.42-5.5433,15.1478,15.1478,0,0,0-2.4847-2.764q-0.4759-.4155-0.9932-0.8005a19.2492,19.2492,0,0,0-3.4739-2.0388q-0.6408-.2943-1.3226-0.5585-0.9465-.3739-1.97-0.7012a40.1226,40.1226,0,0,0-4.4016-1.1222q-2.3547-.4677-5.0175-0.7484a83.0809,83.0809,0,0,0-8.6672-.421h0l-0.0137,0v-6.5137h0.0137V25.5763h15.022a10.36,10.36,0,1,1,0,20.7193V71.872a35.936,35.936,0,1,0,0-71.872H49.1417a35.936,35.936,0,0,0,0,71.872V46.2956a10.36,10.36,0,0,1,0-20.7193h15.022v79.3718h24.265V36.958Zm107.164,77.4966a17.3754,17.3754,0,0,1,8.2745,6.1618,15.9521,15.9521,0,0,1,2.8167,9.3308,40.0643,40.0643,0,0,1-1.9365,11.0912q-1.9395,6.5154-10.3871,25.7036l-4.9379,11.0735V112.6767A36.7484,36.7484,0,0,1,195.5927,114.4546Z" transform="translate(0 0)"/><path class="cls-3" d="M165.1577,368.1983A11.3813,11.3813,0,0,1,153.7764,379.58h-2.8137a11.3813,11.3813,0,0,1-11.3813-11.3813V350.92l-2.2545,5.1081-8.5052-20.0163L52.6169,159.3478Q47.0714,146.4739,42.9,137.5863q-0.6953-1.4813-1.3524-2.8518-2.6284-5.4823-4.6461-9.193a43.03,43.03,0,0,0-4.09-6.5094,18.9,18.9,0,0,0-8.4585-5.3409,48.5069,48.5069,0,0,0-10.4671-2.2295v-6.5137H0v6.5137q13.9054,1.5845,18.9255,7.57,5.0176,5.987,19.8057,40.3156l25.4324,58.9595V378.9235H49.1417V404.5H204.4443V378.9235h-15.022V240.1354l-24.2646,53.8289v74.2341ZM102.6237,379.58H99.81a11.3813,11.3813,0,0,1-11.3813-11.3813V274.56l25.5764,59.2932v34.345A11.3813,11.3813,0,0,1,102.6237,379.58Z" transform="translate(0 0)"/><polygon class="cls-4" points="160.997 272.391 161.064 272.548 165.158 263.369 165.158 263.16 160.997 272.391"/><path class="cls-4" d="M165.1577,36.958a11.3813,11.3813,0,0,0-11.3813-11.3813h-2.8137A11.3813,11.3813,0,0,0,139.5814,36.958V222.3718l14.6814,34.29,10.895-24.4324V36.958Z" transform="translate(0 0)"/><path class="cls-4" d="M150.9626,379.58h2.8137a11.3813,11.3813,0,0,0,11.3813-11.3813V293.9642l-20.9984,46.583-4.578,10.3724v17.2787A11.3813,11.3813,0,0,0,150.9626,379.58Z" transform="translate(0 0)"/><path class="cls-4" d="M88.4286,274.56v93.6382A11.3813,11.3813,0,0,0,99.81,379.58h2.8138a11.3813,11.3813,0,0,0,11.3813-11.3813v-34.345Z" transform="translate(0 0)"/><path class="cls-4" d="M103.32,115.3348a8.6627,8.6627,0,0,0-4.0491,7.7465,24.5944,24.5944,0,0,0,1.4086,7.4821q1.407,4.3159,9.5065,23.15l3.8194,8.9207V112.0353Q106.7938,112.952,103.32,115.3348Z" transform="translate(0 0)"/><path class="cls-4" d="M102.6237,25.5767H99.81A11.3813,11.3813,0,0,0,88.4286,36.958v67.99H114.005V36.958A11.3813,11.3813,0,0,0,102.6237,25.5767Z" transform="translate(0 0)"/></svg>