<svg id="Layer_1" data-name="Layer 1" xmlns="http://www.w3.org/2000/svg" viewBox="0 0 721.1693 602.9164"><defs><style>.cls-1{fill:#dcddde;}.cls-2{fill:#9e1f63;}.cls-3{fill:#f0b33d;}.cls-4{fill:#231f20;}</style></defs><title>wines-steins</title><path class="cls-1" d="M716.411,234.2575a123.3922,123.3922,0,0,1,4.7009,38.197,102.6919,102.6919,0,0,1-9.1079,39.0786q-8.5256,19.1018-25.8565,36.14-17.34,17.0512-43.7795,29.3808a180.8149,180.8149,0,0,1-37.3154,14.3976A236.109,236.109,0,0,1,565.974,398.21a106.7445,106.7445,0,0,1,24.9749,34.9644q9.1052,20.274,9.109,45.5416,0,30.5628-12.34,53.1823A135.6394,135.6394,0,0,1,556.8661,570.39a127.7006,127.7006,0,0,1-41.1346,23.7994q-22.63,7.9313-42.0173,8.52-20.576,1.1853-47.5988-4.4081a166.1208,166.1208,0,0,1-51.7119-20.2729q-24.6821-14.6806-42.6051-41.1357-17.9312-26.4421-19.6852-66.99-1.7632-40.548,8.2263-70.81,9.9852-30.2591,26.4442-50.2436,16.4455-19.97,36.14-30.5585,19.6813-10.5762,37.9031-12.9282-12.9321-11.7484-15.8659-32.32a83.6182,83.6182,0,0,1,3.8193-39.96q6.7493-19.3924,23.5055-34.0828,16.7475-14.6839,43.1917-15.867,26.4437-1.169,40.548,7.3468,14.1026,8.5223,18.2169,19.0974,4.1044,10.5762-.2939,20.2729-4.4081,9.6978-15.5731,10.2856-11.1688.591-13.81-4.702a25.9056,25.9056,0,0,1-2.6438-11.7528q0-6.4587-.2939-13.81a15.6607,15.6607,0,0,0-6.17-12.0466,36.587,36.587,0,0,0-20.5679-3.5265,40.9288,40.9288,0,0,0-20.5668,8.2284q-9.4072,7.05-14.9854,20.8606-5.5918,13.8153-4.407,33.2011,1.7632,19.3924,10.2834,28.7952,8.5109,9.4072,17.923,12.9282a58.7735,58.7735,0,0,0,24.0932,3.5243v13.516a199.6256,199.6256,0,0,0-28.7941,3.5265,228.5016,228.5016,0,0,0-28.5013,7.3468,100.1981,100.1981,0,0,0-29.088,14.9832,89.6094,89.6094,0,0,0-23.7994,23.2116,120.6652,120.6652,0,0,0-15.572,31.44,202.7085,202.7085,0,0,0-8.5212,37.6092,258.1369,258.1369,0,0,0-2.0571,41.1335,130.5514,130.5514,0,0,0,8.2274,41.43,127.3751,127.3751,0,0,0,21.4495,37.6092,106.0862,106.0862,0,0,0,33.7889,27.032,100.1683,100.1683,0,0,0,44.0734,10.8711,130.961,130.961,0,0,0,48.1865-7.9324,129.3382,129.3382,0,0,0,41.1346-23.7994,136.5889,136.5889,0,0,0,28.7952-34.3788q11.1558-19.0887,11.165-39.0764,0-29.3775-10.2834-51.713-10.2888-22.3278-26.7381-34.6705-24.68,2.9453-47.3049,4.112a408.2707,408.2707,0,0,0-41.43,4.1142q-18.8128,2.9485-31.7329,9.4018a36.49,36.49,0,0,0-18.2169,19.979q-8.235,19.9866-6.4641,35.5543,1.7632,15.5753,9.4029,27.03a56.3871,56.3871,0,0,0,18.8046,17.9241,45.1168,45.1168,0,0,0,22.9178,6.463h19.98q9.3925-1.76,9.99-6.7569a12.6761,12.6761,0,0,0-2.35-9.1079c-.79-.7815-1.4694-1.4694-2.0571-2.0571s-1.2767-1.2669-2.0571-2.0571a27.4754,27.4754,0,0,1-5.2886-15.867,26.0933,26.0933,0,0,1,26.4442-26.4442,26.58,26.58,0,0,1,19.0985,7.6407,25.0945,25.0945,0,0,1,7.9335,18.8035q0,4.7118-2.9387,11.165-5.2881,15.2879-16.16,24.0932a64.7554,64.7554,0,0,1-23.5066,12.34,77.7716,77.7716,0,0,1-26.1493,2.6449,108.7168,108.7168,0,0,1-23.5055-3.8182q-19.985-7.053-32.0267-26.7381A81.1348,81.1348,0,0,1,392.0327,465.2q0-23.4968,12.9282-46.1294,12.919-22.6152,41.1346-36.14a83.0787,83.0787,0,0,1,27.032-8.2263l-.5877-.5877h2.35a1.695,1.695,0,0,1,1.1755-.5877q11.1558-2.3412,27.032-4.702,15.8659-2.3412,29.3819-3.5265,17.6291-1.7632,34.6705-3.5243,40.548-6.4619,67.8727-18.5118,27.3253-12.0357,43.4856-27.3259,16.1565-15.2716,22.3311-32.32,6.17-17.0381,4.407-32.32a67.9578,67.9578,0,0,0-8.2274-24.3871,72.0731,72.0731,0,0,0-16.16-19.6873,58.5614,58.5614,0,0,0-22.0372-11.7528,56.3984,56.3984,0,0,0-24.0932-1.7632q-26.4437,3.5265-37.9031,16.4547-11.4578,12.9337-13.221,27.62a66.5646,66.5646,0,0,0,2.6438,28.4992q4.4081,13.8153,10.8711,19.1a15.94,15.94,0,0,1,2.6449,1.7632c.973.788,2.0571,1.57,3.2315,2.351a1.7313,1.7313,0,0,1,1.1755.5856c-.394,0-.5877-.0914-.5877-.2939,0-.1916-.2014-.2917-.5877-.2917a21.0957,21.0957,0,0,1,2.0571,1.1733,3.5737,3.5737,0,0,0,2.0571.5877,4.6948,4.6948,0,0,0-1.7632-.5877,1.66,1.66,0,0,1-1.1755-.5877q10.5778,4.1208,14.1037,0,3.5265-4.1044,1.7632-9.99a9.8924,9.8924,0,0,0-.2939-2.351,12.5043,12.5043,0,0,0-.8816-2.3488,24.8718,24.8718,0,0,1-1.1755-6.4652,26.043,26.043,0,0,1,7.9335-19.0974,25.3671,25.3671,0,0,1,18.5107-7.9346,25.0922,25.0922,0,0,1,18.8046,7.9346,26.58,26.58,0,0,1,7.6385,19.0974q0,16.46-13.5149,22.9178a65.8008,65.8008,0,0,1-26.4442,10.8711,56.684,56.684,0,0,1-27.62-1.4672,46.9807,46.9807,0,0,1-22.33-15.5731q-9.4072-11.4611-11.165-32.0278-1.7632-21.1523,6.758-36.14a62.814,62.814,0,0,1,22.9178-23.5055,80.9205,80.9205,0,0,1,32.3206-10.5773,87.774,87.774,0,0,1,34.9644,2.9387,76.3582,76.3582,0,0,1,30.2635,17.04Q709.9474,215.4572,716.411,234.2575Z"/><path class="cls-1" d="M283.2394,31.0459a1092.8257,1092.8257,0,0,0-11.2139,152.6953c0,42.4678,2.8633,67.043,2.8633,67.043C302.3263,110.4951,339.5455,5.04,399.4313,5.04c16.4619,0,27.1982,5.01,35.0723,13.6L419.95,35.5791c-4.7725-7.1577-13.6-10.7363-24.8135-10.7363-53.2041,0-84.937,107.3638-117.3848,254.0947l-23.8584-3.1025c-3.5786-15.9844-5.01-38.1738-5.01-61.793,0-65.373,10.2593-143.3906,10.2593-143.3906-17.417,44.6157-35.7881,128.8364-52.9663,206.6152l-18.8486-4.2939c-6.9189-24.5742-7.873-48.6719-7.873-73.0073,0-10.7368.2383-21.4731.2383-32.4478,0-56.7837-8.5889-123.1108-70.144-123.1108-43.4229,0-71.5762,35.5493-71.5762,82.5508,0,38.6514,22.666,56.5454,45.0928,56.5454,24.813,0,42.9458-18.1328,48.1948-51.0576l22.1885,5.249c-7.6348,40.56-34.834,60.1235-69.6675,60.1235-39.8437,0-68.4741-28.3916-68.4741-72.53,0-55.8291,38.1738-94.2417,95.6729-94.2417,44.3774,0,71.8149,23.62,83.0283,58.9307,7.8735,25.0518,9.3047,54.875,9.3047,82.3125,0,14.3154-.2383,28.1533-.2383,40.3213,0,12.8838.2383,23.62,2.147,31.2549,13.1226-67.52,36.5039-173.4526,60.124-216.875Z"/><path class="cls-1" d="M361.2487,110.0181c-8.3506,37.2192-15.27,64.8955-15.27,84.4595,0,6.9189,2.624,8.1123,4.7715,8.1123,6.2031,0,14.0771-13.3613,24.5742-40.7983,1.1934,0,6.6807,1.67,6.6807,3.1016v.2383c-10.498,27.1992-18.8477,54.875-38.4121,54.875-12.8843,0-17.1787-11.9292-17.1787-28.3916,0-26.4834,10.498-64.4185,14.5537-81.5967Zm-17.417-26.0059c0-8.5894,6.2031-18.8481,16.7012-18.8481,7.8731,0,11.2139,5.7256,11.2139,12.4063,0,8.5889-6.2031,18.61-16.7012,18.61C347.4108,96.18,343.8317,90.4541,343.8317,84.0122Z"/><path class="cls-1" d="M363.3942,218.8135s2.1465-21.7114,8.8271-39.6055c4.7715-26.96,8.8281-51.0576,11.6914-69.19H404.43l-2.624,15.9854c7.6348-11.4521,17.1777-18.61,27.1992-18.61,8.3506,0,13.8379,5.4873,13.8379,16.9395,0,22.189-15.5088,50.5806-15.5088,70.1445,0,6.9189,2.625,8.1123,4.7725,8.1123,6.2031,0,14.0762-13.3613,24.5742-40.7983,1.4316,0,6.6807,1.9087,6.6807,3.34-10.498,27.1992-21.2344,54.875-40.7988,54.875-8.3506,0-16.2236-6.68-16.2236-21.2339,0-25.7676,15.5078-52.25,15.5078-69.4287,0-2.6245-1.1924-4.772-3.8174-4.772-5.9648,0-16.4619,11.2134-24.3359,44.8545l-9.543,49.3872Z"/><path class="cls-1" d="M524.9117,161.7915c1.4316,0,6.6807,1.9087,6.6807,3.34-11.93,31.2549-23.8584,56.0679-47.24,56.0679-20.7568,0-29.3457-19.0869-29.3457-41.5137,0-32.4482,17.8936-72.0532,44.6152-72.0532,11.93,0,17.8945,8.5889,17.8945,19.564,0,16.9395-14.3154,39.8438-42.4688,44.377v3.5791c0,14.3149,4.0557,25.7671,15.0313,25.7671C504.1549,200.9194,515.8463,186.127,524.9117,161.7915Zm-49.1484.7153c17.8936-8.8276,25.7676-25.29,25.7676-34.1177,0-3.5786-1.4316-5.9644-3.8174-5.9644C487.9313,122.4248,478.6266,142.7046,475.7633,162.5068Z"/><path class="cls-1" d="M532.3063,194.4775c3.1015,5.249,5.9639,7.1577,10.4971,7.1577,5.9648,0,9.3057-4.2944,9.3057-12.8838,0-14.7925-6.9189-29.1074-12.168-46.0469-2.625,7.873-5.7266,15.27-8.3506,22.4268,0,0-6.6807-1.1929-6.6807-3.1016v-.2383c3.1016-8.1123,7.6348-18.8486,12.168-30.3008a100.31,100.31,0,0,1-2.8633-22.9043,102.0193,102.0193,0,0,1,5.4873-31.7319l16.2246,3.1016a297.614,297.614,0,0,1-7.1582,34.834c.7158,20.041,24.0977,44.854,24.0977,71.5757v.9546c4.5332-7.3965,8.3506-16.2241,11.9287-25.5288,1.4316,0,6.6807,1.9087,6.6807,3.34-10.9746,28.63-24.3359,56.0679-50.1025,56.0679-11.2139,0-20.28-6.4419-23.62-16.2236Z"/><path class="cls-1" d="M27.4513,342.3428c20.2031-5.7217,43.624-1.4307,60.9663,7.6875l15.376-11.084v43.2656c-13.0518-16.8057-42.73-28.7842-58.4634-25.9238-8.7607,1.9668-9.2969,11.2637.1787,13.23,18.5938,3.9336,40.9424,5.1846,55.0664,18.7725,13.7666,13.7666,11.4424,39.5117-4.8271,50.9541-19.4878,13.7666-55.0664,10.1914-75.27-1.0723L5.2819,449.2568v-48.45c12.8726,16.627,38.26,30.5723,55.6025,28.248,18.9517.1787,28.7847-24.4941,3.7549-30.3936-5.5425-1.252-11.979-1.9668-18.5942-2.8613C24.233,393.4756.9908,390.9727,5.6393,362.5459,8.5,353.9639,14.4,346.4551,27.4513,342.3428Z"/><path class="cls-1" d="M149.7423,448.1846l7.8662-14.4814v-73.66H133.83L119.17,367.73l5.3638-27.5332H218.754l5.3638,27.5332-14.6606-7.6875H185.6783v73.66l7.8667,14.4814Z"/><path class="cls-1" d="M274.712,428.3389h42.9092l14.6606-7.6875-5.3638,27.5332H238.776l7.688-14.4814V354.5l-7.688-14.3027h69.19l5.3638-2.6816,10.0122,22.3486-48.63.1787v22.1689l13.9453-11.6211c8.0454,8.582,38.6182,21.2764,53.8149,12.1582-15.5542,25.03-43.9814,24.3145-67.76,8.5811Z"/><path class="cls-1" d="M354.6285,354.5l-7.6875-14.3027h43.624L382.8766,354.5v79.2031l7.6885,14.4814H346.941l7.6875-14.4814Z"/><path class="cls-1" d="M436.5114,384v49.7031l7.6875,14.4814H407.5475l7.6885-14.4814V354.3213l-10.0127-14.124h34.1484l51.6689,69.7275V354.5l-7.8662-14.3027h36.6514L512.1383,354.5v85.2813l5.1846,8.4033H484.2467Z"/><path class="cls-1" d="M558.7994,342.3428c20.2031-5.7217,43.624-1.4307,60.9668,7.6875l15.375-11.084v43.2656c-13.0508-16.8057-42.7295-28.7842-58.4629-25.9238-8.7607,1.9668-9.2969,11.2637.1787,13.23,18.5938,3.9336,40.9424,5.1846,55.0664,18.7725,13.7666,13.7666,11.4424,39.5117-4.8271,50.9541-19.4883,13.7666-55.0664,10.1914-75.27-1.0723L536.63,449.2568v-48.45c12.873,16.627,38.2607,30.5723,55.6035,28.248,18.9512.1787,28.7842-24.4941,3.7539-30.3936-5.542-1.252-11.9785-1.9668-18.5937-2.8613-21.8115-2.3242-45.0547-4.8271-40.4062-33.2539C539.8483,353.9639,545.7477,346.4551,558.7994,342.3428Z"/><path class="cls-2" d="M278.1993,26.0059a1092.8257,1092.8257,0,0,0-11.2139,152.6953c0,42.4683,2.8633,67.043,2.8633,67.043C297.2863,105.4551,334.5055,0,394.3912,0c16.4619,0,27.1982,5.01,35.0723,13.6L414.91,30.5391c-4.7725-7.1577-13.6-10.7363-24.8135-10.7363-53.2046,0-84.937,107.3638-117.3848,254.0947l-23.8584-3.1025c-3.5786-15.9844-5.01-38.1738-5.01-61.793,0-65.373,10.2593-143.3906,10.2593-143.3906-17.417,44.6157-35.7881,128.8364-52.9663,206.6152l-18.8486-4.2939c-6.9189-24.5742-7.873-48.6719-7.873-73.0073,0-10.7368.2383-21.4731.2383-32.4478,0-56.7837-8.5889-123.1108-70.144-123.1108-43.4229,0-71.5762,35.5493-71.5762,82.5508,0,38.6514,22.666,56.5454,45.0928,56.5454,24.813,0,42.9458-18.1328,48.1948-51.0576l22.1885,5.249c-7.6348,40.56-34.834,60.1235-69.6675,60.1235-39.8437,0-68.4741-28.3916-68.4741-72.53,0-55.8291,38.1738-94.2417,95.6729-94.2417,44.3774,0,71.8149,23.62,83.0283,58.9307,7.8735,25.0518,9.3047,54.875,9.3047,82.3125,0,14.3154-.2383,28.1533-.2383,40.3213,0,12.8838.2383,23.62,2.147,31.2549,13.1226-67.52,36.5039-173.4526,60.124-216.875Z"/><path class="cls-2" d="M356.2086,104.978c-8.3506,37.2192-15.27,64.8955-15.27,84.4595,0,6.9189,2.624,8.1123,4.7715,8.1123,6.2031,0,14.0771-13.3613,24.5742-40.7983,1.1934,0,6.6807,1.67,6.6807,3.1016v.2383c-10.498,27.1992-18.8477,54.875-38.4126,54.875-12.8838,0-17.1782-11.9292-17.1782-28.3916,0-26.4834,10.498-64.4185,14.5537-81.5967Zm-17.417-26.0059c0-8.5894,6.2031-18.8481,16.7012-18.8481,7.873,0,11.2139,5.7256,11.2139,12.4063,0,8.5889-6.2031,18.61-16.7012,18.61C342.3707,91.14,338.7916,85.4141,338.7916,78.9722Z"/><path class="cls-2" d="M358.3541,213.7734s2.1465-21.7114,8.8271-39.6055c4.7715-26.96,8.8281-51.0576,11.6914-69.19H399.39l-2.624,15.9854c7.6348-11.4521,17.1777-18.61,27.1992-18.61,8.3506,0,13.8379,5.4873,13.8379,16.9395,0,22.189-15.5088,50.5806-15.5088,70.1445,0,6.9189,2.625,8.1123,4.7725,8.1123,6.2031,0,14.0762-13.3613,24.5742-40.7983,1.4316,0,6.6807,1.9087,6.6807,3.34-10.498,27.1992-21.2344,54.875-40.7988,54.875-8.3506,0-16.2236-6.68-16.2236-21.2339,0-25.7676,15.5078-52.25,15.5078-69.4287,0-2.6245-1.1924-4.772-3.8174-4.772-5.9648,0-16.4619,11.2134-24.3359,44.8545l-9.543,49.3872Z"/><path class="cls-2" d="M519.8717,156.7515c1.4316,0,6.6807,1.9087,6.6807,3.34-11.93,31.2549-23.8584,56.0679-47.24,56.0679-20.7568,0-29.3457-19.0869-29.3457-41.5137,0-32.4482,17.8936-72.0532,44.6152-72.0532,11.93,0,17.8945,8.5889,17.8945,19.564,0,16.9395-14.3154,39.8438-42.4688,44.377v3.5791c0,14.3149,4.0557,25.7671,15.0313,25.7671C499.1149,195.8794,510.8063,181.0869,519.8717,156.7515Zm-49.1484.7153c17.8936-8.8276,25.7676-25.29,25.7676-34.1177,0-3.5786-1.4316-5.9644-3.8174-5.9644C482.8912,117.3848,473.5866,137.6646,470.7233,157.4668Z"/><path class="cls-2" d="M527.2662,189.4375c3.1016,5.249,5.9639,7.1577,10.4971,7.1577,5.9648,0,9.3057-4.2944,9.3057-12.8838,0-14.7925-6.9189-29.1074-12.168-46.0469-2.625,7.873-5.7266,15.27-8.3506,22.4268,0,0-6.6807-1.1929-6.6807-3.1016v-.2383c3.1016-8.1123,7.6348-18.8486,12.168-30.3008a100.3116,100.3116,0,0,1-2.8633-22.9043,102.0193,102.0193,0,0,1,5.4873-31.7319l16.2246,3.1016a297.614,297.614,0,0,1-7.1582,34.834c.7158,20.041,24.0977,44.854,24.0977,71.5757v.9546c4.5332-7.3965,8.3506-16.2241,11.9287-25.5288,1.4316,0,6.6807,1.9087,6.6807,3.34-10.9746,28.63-24.3359,56.0679-50.1025,56.0679-11.2139,0-20.28-6.4419-23.62-16.2236Z"/><path class="cls-3" d="M22.4113,337.3027c20.2031-5.7217,43.624-1.4307,60.9663,7.6875l15.376-11.084v43.2656c-13.0518-16.8057-42.73-28.7842-58.4634-25.9238-8.7607,1.9668-9.2969,11.2637.1787,13.23,18.5938,3.9336,40.9424,5.1846,55.0664,18.7725,13.7666,13.7666,11.4424,39.5117-4.8271,50.9541-19.4878,13.7666-55.0664,10.1914-75.27-1.0723L.2418,444.2168v-48.45c12.8726,16.627,38.26,30.5723,55.6025,28.248,18.9517.1787,28.7847-24.4941,3.7549-30.3936-5.5425-1.252-11.979-1.9668-18.5942-2.8613C19.193,388.4355-4.0492,385.9326.5992,357.5059,3.46,348.9238,9.36,341.415,22.4113,337.3027Z"/><path class="cls-3" d="M144.7023,443.1445l7.8662-14.4814v-73.66H128.79L114.13,362.69l5.3638-27.5332H213.714l5.3638,27.5332-14.6606-7.6875H180.6383v73.66l7.8667,14.4814Z"/><path class="cls-3" d="M269.672,423.2988h42.9092l14.6606-7.6875-5.3638,27.5332H233.736l7.688-14.4814V349.46l-7.688-14.3027h69.19l5.3638-2.6816,10.0122,22.3486-48.63.1787v22.1689l13.9453-11.6211c8.0454,8.582,38.6182,21.2764,53.8149,12.1582-15.5542,25.03-43.9814,24.3145-67.76,8.5811Z"/><path class="cls-3" d="M349.5885,349.46l-7.6875-14.3027h43.624L377.8366,349.46v79.2031l7.6885,14.4814H341.901l7.6875-14.4814Z"/><path class="cls-3" d="M431.4713,378.96v49.7031l7.6875,14.4814H402.5074l7.6885-14.4814V349.2813l-10.0127-14.124h34.1484l51.6689,69.7275V349.46l-7.8662-14.3027h36.6514L507.0983,349.46v85.2813l5.1845,8.4033H479.2067Z"/><path class="cls-3" d="M553.7594,337.3027c20.2031-5.7217,43.624-1.4307,60.9668,7.6875l15.375-11.084v43.2656c-13.0508-16.8057-42.7295-28.7842-58.4629-25.9238-8.7607,1.9668-9.2969,11.2637.1787,13.23,18.5938,3.9336,40.9424,5.1846,55.0664,18.7725,13.7666,13.7666,11.4424,39.5117-4.8271,50.9541-19.4883,13.7666-55.0664,10.1914-75.27-1.0723l-15.1973,11.084v-48.45c12.873,16.627,38.2607,30.5723,55.6035,28.248,18.9512.1787,28.7842-24.4941,3.7539-30.3936-5.542-1.252-11.9785-1.9668-18.5937-2.8613-21.8115-2.3242-45.0547-4.8271-40.4062-33.2539C534.8082,348.9238,540.7076,341.415,553.7594,337.3027Z"/><path class="cls-4" d="M374.3082,243.8633a10.8811,10.8811,0,0,1,10.874,10.874v46.6484h-4.499V275.2119H368.0084v26.1738h-4.5V243.8633Zm6.375,10.874a6.37,6.37,0,0,0-6.375-6.375h-6.3v22.35h12.6748Z"/><path class="cls-4" d="M448.9323,301.3857h-4.499l-12.75-41.9238v41.9238h-4.499V243.8633h4.499l12.75,42.1475V243.8633h4.499Z"/><path class="cls-4" d="M490.9342,301.3857V243.7881h10.874a10.8826,10.8826,0,0,1,10.875,10.874v35.8486a10.8828,10.8828,0,0,1-10.875,10.875Zm4.5-53.0977v48.5977h6.374a6.4177,6.4177,0,0,0,6.375-6.375V254.6621a6.4175,6.4175,0,0,0-6.375-6.374Z"/></svg>