<svg id="Layer_1" data-name="Layer 1" xmlns="http://www.w3.org/2000/svg" xmlns:xlink="http://www.w3.org/1999/xlink" viewBox="0 0 108 165.6429"><defs><style>.cls-1{fill:#262262;}.cls-2{clip-path:url(#clip-path);}.cls-3{fill:#1c75bc;}</style><clipPath id="clip-path"><path class="cls-1" d="M0.0477,106.7643c0-2.1,0-4.3914-.0477-6.2527H6.6348c0.1431,0.6679.2385,2.3861,0.2862,3.15,0.8114-1.5274,2.8159-3.7235,7.16-3.7235,4.9639,0,8.1625,3.3895,8.1625,9.5945v15.7034h-6.826v-14.94c0-2.8163-.9065-4.8207-3.9613-4.8207-2.9117,0-4.5349,1.6228-4.5349,6.0142v13.7466H0.0477V106.7643Zm48.6331,6.0619c0,7.4939-4.4868,12.9825-12.3146,12.9825-7.637,0-12.1238-5.4887-12.1238-12.8394,0-7.637,4.63-13.031,12.4577-13.031C43.9555,99.9383,48.6808,105.0938,48.6808,112.8262Zm-17.517.0477c0,4.773,2.0522,7.5893,5.3455,7.5893,3.3888,0,5.2509-2.8163,5.2509-7.5416,0-5.1547-1.91-7.5893-5.3463-7.5893C33.2637,105.3323,31.1638,107.6707,31.1638,112.8739Zm19.3769-5.6325c0-2.4816,0-4.63-.0477-6.73h6.73c0.0954,0.5725.1916,3.0071,0.1916,4.3437,1.0973-2.8163,3.7227-4.8692,7.9233-4.9169v6.54c-4.9646-.1431-7.9233,1.1927-7.9233,7.971v10.7872H50.5407V107.2414Zm16.4344-6.73H70.794V93.8287h6.8252v6.6828h4.8692v5.1547H77.6192v12.2192c0,1.8614.5732,2.5777,2.6254,2.5777,0.3817,0,1.05,0,1.5274-.0477v4.6776a14.8455,14.8455,0,0,1-4.5822.4771c-4.8207,0-6.3959-2.577-6.3959-6.9206V105.6663H66.9751v-5.1547ZM91.3489,90.3923v13.0787c1.05-1.6228,3.0548-3.5326,7.0645-3.5326,4.5822,0,8.2579,2.7686,8.2579,9.4514v15.8465H99.8931V110.3916c0-3.1979-1.1457-4.9162-4.01-4.9162-3.8181,0-4.5345,2.864-4.5345,6.6344v13.1264H84.476V90.3923h6.8729Z"/></clipPath></defs><title>north-logo-color</title><path class="cls-1" d="M0.0477,106.7643c0-2.1,0-4.3914-.0477-6.2527H6.6348c0.1431,0.6679.2385,2.3861,0.2862,3.15,0.8114-1.5274,2.8159-3.7235,7.16-3.7235,4.9639,0,8.1625,3.3895,8.1625,9.5945v15.7034h-6.826v-14.94c0-2.8163-.9065-4.8207-3.9613-4.8207-2.9117,0-4.5349,1.6228-4.5349,6.0142v13.7466H0.0477V106.7643Zm48.6331,6.0619c0,7.4939-4.4868,12.9825-12.3146,12.9825-7.637,0-12.1238-5.4887-12.1238-12.8394,0-7.637,4.63-13.031,12.4577-13.031C43.9555,99.9383,48.6808,105.0938,48.6808,112.8262Zm-17.517.0477c0,4.773,2.0522,7.5893,5.3455,7.5893,3.3888,0,5.2509-2.8163,5.2509-7.5416,0-5.1547-1.91-7.5893-5.3463-7.5893C33.2637,105.3323,31.1638,107.6707,31.1638,112.8739Zm19.3769-5.6325c0-2.4816,0-4.63-.0477-6.73h6.73c0.0954,0.5725.1916,3.0071,0.1916,4.3437,1.0973-2.8163,3.7227-4.8692,7.9233-4.9169v6.54c-4.9646-.1431-7.9233,1.1927-7.9233,7.971v10.7872H50.5407V107.2414Zm16.4344-6.73H70.794V93.8287h6.8252v6.6828h4.8692v5.1547H77.6192v12.2192c0,1.8614.5732,2.5777,2.6254,2.5777,0.3817,0,1.05,0,1.5274-.0477v4.6776a14.8455,14.8455,0,0,1-4.5822.4771c-4.8207,0-6.3959-2.577-6.3959-6.9206V105.6663H66.9751v-5.1547ZM91.3489,90.3923v13.0787c1.05-1.6228,3.0548-3.5326,7.0645-3.5326,4.5822,0,8.2579,2.7686,8.2579,9.4514v15.8465H99.8931V110.3916c0-3.1979-1.1457-4.9162-4.01-4.9162-3.8181,0-4.5345,2.864-4.5345,6.6344v13.1264H84.476V90.3923h6.8729Z"/><g class="cls-2"><rect class="cls-1" y="90.3923" width="106.6714" height="35.4165"/></g><path class="cls-3" d="M82.7494,130.1157v5.6208c-5.5142,7.8476-10.923,19.1424-12.3016,29.27H62.6529c1.3786-10.2872,7.6356-22.5891,12.3547-28.6341H58.57v-6.257h24.18Z"/><path class="cls-3" d="M105.9849,136.32H91.9861c-0.2124,1.8562-.7951,5.1967-1.0607,6.6284a9.7086,9.7086,0,0,1,6.31-1.8558c6.8935,0,10.7644,4.9843,10.7644,11.6127,0,6.7342-3.7116,12.9381-13.1505,12.9381-6.8935,0-11.9306-3.5526-12.7264-9.7565h7.5832a5.0357,5.0357,0,0,0,5.3026,3.9236c3.6053,0,5.3557-2.6513,5.3557-6.4691,0-3.6588-1.3262-6.257-5.3557-6.257-3.2351,0-4.5605,1.4317-5.3557,3.5l-6.84-.9013c0.9544-4.4012,2.4392-14.7943,3.0227-19.5665h21.21Z"/><path class="cls-3" d="M80.6051,11.02L54,0,27.3949,11.02l-11.02,26.6054,11.02,26.6054L54,75.2507l26.6047-11.02,11.02-26.6054Zm-5.23,47.9812L54,67.8555,32.6246,59.0013,23.77,37.6255,32.6246,16.25l16.817-6.9656L54,28.53,58.5584,9.284,75.3754,16.25,84.23,37.6255Z"/></svg>