<?xml version="1.0" encoding="utf-8"?>
<!-- Generator: Adobe Illustrator 19.0.0, SVG Export Plug-In . SVG Version: 6.00 Build 0)  -->
<!DOCTYPE svg PUBLIC "-//W3C//DTD SVG 1.1//EN" "http://www.w3.org/Graphics/SVG/1.1/DTD/svg11.dtd">
<svg version="1.1" id="Layer_1" xmlns="http://www.w3.org/2000/svg" xmlns:xlink="http://www.w3.org/1999/xlink" x="0px" y="0px"
	 viewBox="0 0 182.11601 121.53436" style="enable-background:new 0 0 182.11601 121.53436;" xml:space="preserve">
<style type="text/css">
	.st0{fill:rgb(255, 255, 255);}
</style>
<g>
	<path class="st0" d="M97.05586,114.67538c-0.02494-0.9626-2.06723-0.7411-2.5294-0.31617
		C94.27644,115.83636,97.0172,116.13158,97.05586,114.67538L97.05586,114.67538z"/>
	<path class="st0" d="M97.05586,40.58534c0.02493,0.96298,2.06651,0.74148,2.52902,0.31618
		C99.71316,39.54541,97.11475,39.10854,97.05586,40.58534L97.05586,40.58534z"/>
	<path class="st0" d="M104.96018,96.96969c0.10733,1.02946,2.59409,0.72521,3.16174,0.31618
		C108.18806,95.90697,105.05378,95.43904,104.96018,96.96969L104.96018,96.96969z"/>
	<path class="st0" d="M109.38662,99.1829c0.06648-1.03561-1.48367-1.24808-1.26469,0
		C108.54359,99.1829,108.96493,99.1829,109.38662,99.1829L109.38662,99.1829z"/>
	<path class="st0" d="M67.0194,107.71957c0.31763-1.05512-0.43902-1.03704-1.26469-0.94852
		C65.65968,107.60358,66.19267,107.8081,67.0194,107.71957L67.0194,107.71957z"/>
	<path class="st0" d="M95.97401,105.71233C96.3039,105.47311,95.73734,106.04187,95.97401,105.71233L95.97401,105.71233
		L95.97401,105.71233z M87.92009,104.23373c-0.22476-0.25619,0.00504-0.65186,0.09827-0.88709
		c0.57561,0.00216,0.67065,0.10081,1.17942,0C89.14104,104.21385,88.6236,104.15459,87.92009,104.23373L87.92009,104.23373z
		 M86.74211,105.31702c0.41264,0.08058,0.66054,0.32267,1.07969,0.39531C87.85612,106.87186,86.18238,106.26156,86.74211,105.31702
		L86.74211,105.31702z M86.44761,107.87963c0.23272-0.31616,0.91927-0.30387,1.08113-0.19691
		C87.45178,108.01334,86.59287,107.92988,86.44761,107.87963L86.44761,107.87963z M85.17101,108.2746
		c-0.20849-0.35664,0.51093-0.34077,1.07933-0.39497C86.18347,108.32773,85.26242,108.13944,85.17101,108.2746L85.17101,108.2746z
		 M84.48336,102.55855c0.5113-0.48998,1.48078-0.159,0.98177,0.49178C85.19665,102.37534,84.57804,103.54718,84.48336,102.55855
		L84.48336,102.55855z M78.68925,112.11818c-0.2345-0.1796-0.05527-0.77291,0-0.98573
		C79.01628,111.30191,78.87392,111.9104,78.68925,112.11818L78.68925,112.11818z M78.29504,108.0773
		c-0.22438-0.2009-0.03432-0.81844-0.09683-1.1834C78.57906,106.91885,78.38754,107.88904,78.29504,108.0773L78.29504,108.0773z
		 M77.80506,115.27051c0.27679-0.33604-0.31688-0.15104-0.49142-0.09792c0.11202-0.2504,0.43504-0.28546,0.787-0.29592
		C78.12737,115.13428,78.06342,115.29943,77.80506,115.27051L77.80506,115.27051z M68.76974,115.46781
		c-0.26523-0.0683-0.19006,0.20416-0.29485,0.2952c-0.17309-0.02239-0.22295-0.16874-0.19659-0.39351
		c0.96371-0.07334,2.3845,0.01195,2.7498,0.39351C70.63824,115.66328,69.21058,116.03294,68.76974,115.46781L68.76974,115.46781z
		 M66.01994,115.95996c0-0.0983,0-0.19695,0-0.2945c0.27317-0.28185,1.13316,0.06504,1.27624-0.09864
		C67.41039,116.01993,66.53522,116.17423,66.01994,115.95996L66.01994,115.95996z M107.95571,101.86839
		c0.09718,0.23162,0.17309,0.48492,0.19691,0.78916c-0.49034,0.0647-0.38338-0.46902-0.59042-0.69052
		C107.59364,101.83333,107.80863,101.885,107.95571,101.86839L107.95571,101.86839z M109.13295,103.44527
		c-0.01157,0.35049,0.07263,0.79494-0.29269,0.78845C108.8699,103.90273,108.70911,103.37916,109.13295,103.44527
		L109.13295,103.44527z M98.82172,109.35789c1.21592,0.16152,3.76084,1.31819,5.50106,1.87284
		c1.42873,0.45528,2.80004,0.56189,4.12363,1.37997c0.43721-0.9684-0.03651-2.02606-0.36532-3.03094
		c-0.69125-0.75881-1.17002-1.72974-1.22387-3.12488c0.24607-0.06973,0.36712-0.26522,0.31618-0.63234
		c0.15321-0.02566,0.31147-0.04372,0.46828-0.06359c0.01374-0.27824,0.12577-0.53442,0.4123-0.73714
		c-0.05745-0.20488-0.20704-0.31799-0.29559-0.49179c-0.2038,0.15467-0.03179,0.68836-0.1962,0.88674
		c-0.72159-0.80797-1.20615-2.46507-0.39169-3.44973c0.19006,0.16911,0.21066,0.51022,0.19657,0.88673
		c0.10008-0.06396,0.10043-0.22655,0.29339-0.19621c-0.08997,0.55069,0.40363,0.51455,0.29523,1.08331
		c0.2739,0.04408-0.0759-0.53731,0.19691-0.49287c0.79243,0.25475,0.54167,1.55739,0.88421,2.26705
		c0.11528,0.11311,0.34582,0.11092,0.58827,0.09865c0.0036,0.00687,0.00649,0.01373,0.01011,0.02061
		c3.03091-0.03614,6.51244,0.46071,9.86894,0.18825c-0.77472-2.93553-6.5811-3.52054-9.80138-5.05876
		c-3.88116-1.389-7.44831-3.09164-10.74988-5.05878c-1.39838-0.07732-2.30319-0.64788-3.79408-0.63234
		c-2.98866,0.10153-5.11082,2.64067-8.22052,1.58086c0.03397-1.54763,2.6161-1.87501,1.89704-3.16174
		c-2.44736-0.12864-4.47302,0.16405-6.32346,0.63235c-1.11474,1.09847-1.66758,2.75847-2.52938,4.11024
		c-2.48604,0.35954-3.135,2.55576-5.05877,3.47791c-3.29436,1.23722-8.56704,0.49611-9.4852,4.11024
		c3.5209,1.15231,10.03371-2.80003,12.33076,0.94852c-1.07175,3.56499-5.638,3.63545-7.58816,6.32346
		c-0.05167,0.70208-0.20959,1.29793-0.43796,1.82404c-0.15935-0.05384-0.32302-0.10117-0.49685-0.13225l-0.27967-0.2027
		c-0.22908,0-0.38699,0.21824-0.61428,0.20884c-0.14452-0.00614-0.07588-0.33784-0.21571-0.35012
		c-0.1832-0.02315-0.3646,0.0643-0.52322-0.02567l-0.15465-0.06072c-0.22621-0.17848-0.27535-0.46793-0.43253-0.71147
		c-0.50912-0.7776-0.53623-1.97076-1.42007-2.25549c-0.2833-0.09251-0.55357,0.16622-0.84012,0.11744
		c-0.37472-0.07011-0.69523-0.14706-1.028-0.31654c-0.34509-0.17561-0.57093-0.45203-0.91167-0.6262
		c-0.31726-0.15972-0.70967-0.42891-0.98537-0.2103c-0.17454,0.14455,0.07444,0.42531,0.02168,0.63705
		c-0.03866,0.13982-0.26054,0.08888-0.3993,0.11092c-0.15899,0.0289-0.31869,0.09504-0.44806,0.00868
		c-0.2056-0.14311-0.01408-0.50299-0.17416-0.69596c-0.12609-0.1615-0.37506,0.14092-0.57777,0.13008
		c-0.25765-0.01626-0.01736-0.48672-0.06181-0.74399c-0.04696-0.22873-0.02997-0.43507-0.10117-0.66125
		c-0.18031-0.57923-0.79819-1.31385-1.35683-1.06776c-0.17995,0.07948-0.08672,0.38013-0.2085,0.54166
		c-0.16187,0.2121-0.70677-0.08855-0.66052-0.35052c0.04408-0.24246,0.41192-0.29014,0.47155-0.53333
		c0.12178-0.47734-0.19729-0.9496-0.55754-1.28927c-0.32015-0.31002-0.60887-0.60019-1.03128-0.76532
		c-0.41519-0.15863-0.84734,0-1.27156-0.13658c-0.28364-0.09467-0.64138-0.16947-0.70677-0.45963
		c-0.04301-0.17056,0.22113-0.29631,0.18029-0.4712c-0.09467-0.37579-0.20885-0.95212-0.60378-0.94671
		c-0.21898,0-0.23451,0.387-0.4423,0.44915c-0.17271,0.05745-0.21572-0.30967-0.40144-0.33424
		c-0.23777-0.03288-0.48962,0.05998-0.67282-0.08492c-0.50046-0.3953-0.70352-0.95647-1.12413-1.42874
		c-0.14888-0.16441-0.25764-0.33894-0.4459-0.44625c-0.15899-0.08708-0.37795,0.03179-0.50117-0.10298
		c-0.28222-0.31763-0.27137-0.75014-0.42639-1.1469c-0.1196-0.30785-0.44877-0.42204-0.61752-0.69594
		c-0.16152-0.27137,0.01987-0.64283-0.18898-0.87805l-0.41193-0.08024c-0.1832-0.28436,0.03433-0.67461-0.15465-0.95537
		c-0.09973-0.14418-0.32737-0.06974-0.46685-0.17597c-0.29702-0.23018,0.10876-0.72485-0.01987-1.08294
		c-0.08492-0.24245-0.40543-0.20668-0.66668-0.27065c0.18175,0.34363-0.61753,0.48819-0.94672,0.41592
		c-0.08274-0.11384-0.12935-0.26486-0.09828-0.49251c0.56694-0.08202,0.5196,0.42673,0.83072-0.01844
		c-0.17272-0.12538-0.24571-0.32375-0.34652-0.5131c-0.06107,0.04733-0.14851,0.06938-0.28763,0.03902
		c-0.0065-0.13767,0.04409-0.21752,0.12069-0.27172c-0.09756-0.08854-0.22584-0.13731-0.28148-0.26307
		c-0.1431-0.34472-0.08021-0.72736-0.31255-1.02005c-0.15538-0.2067-0.47336-0.12901-0.68908-0.26848
		c-0.35194-0.23631,0.17163-0.78629,0.12358-1.21519c-0.03577-0.25293-0.36676-0.31907-0.49793-0.54924
		c-0.17488-0.29449-0.24896-0.60164-0.4495-0.89034c-0.24174-0.34942-0.69269-0.51311-0.78303-0.93588l0.11889-0.30785
		c-0.06396-0.30642-0.02855-0.58213,0-0.89649c0.00216-0.02312,0.01192-0.04446,0.01987-0.06576
		c-0.85023,0.35736-1.79225,0.54417-2.78738,0.54417h-0.03107l-0.0065-0.00036c0.09178,0.3299,0.19982,0.65728,0.36639,0.98249
		c1.1675,2.28113,2.22767,4.19155,3.52054,6.3968c1.31023,2.22946,2.5106,4.13988,4.30574,5.98814
		c0.8842,0.91455,1.39623,1.94257,2.38883,2.7292c0.20053,0.16152,0.48491,0.15321,0.66125,0.35088
		c0.14272,0.15428,0.2056,0.3299,0.33712,0.48598c0.23741,0.29089,0.38519,0.59188,0.6338,0.87951
		c1.05439,1.1776,1.75359,2.42677,3.0367,3.34023c1.94293,1.39046,3.63076,2.95109,5.99862,3.25027
		c0.46469,0.06142,0.88818-0.14925,1.33588-0.01157c0.42999,0.13116,0.39819,0.74471,0.62078,1.13569
		c0.06757,0.12214,0.14706,0.22728,0.23704,0.31978c0.03831,0.00038,0.09647,0.02676,0.18211,0.10119
		c-0.01048,0.01446-0.02095,0.0242-0.03143,0.03432c0.65945,0.52142,1.70481,0.53551,2.51891,0.95538
		c0.15611,0.08313,0.3617-0.01297,0.48926,0.10663c0.34147,0.3223,0.1785,0.9832,0.5879,1.21445
		c0.57635,0.32919,1.23578-0.67787,1.85441-0.43759c0.23089,0.09142,0.21355,0.43289,0.38844,0.60201
		c0.01481,0.01482,0.02998,0.02673,0.04553,0.04082c0.06792-0.25763,0.13403-0.51779,0.13802-0.84048
		c0.13623,0.09502,0.13658,0.56947,0.0488,1.00742c0.57632,0.48637,1.19134,0.81122,1.89304,1.16026
		c0.1608,0.08456,0.36098-0.0643,0.51816,0.0271c0.33895,0.19296,0.44664,0.57379,0.74364,0.82748
		c0.47229,0.40939,1.14185,0.33423,1.7648,0.25437c0.33389-0.05457,0.62946,0.05926,0.96767,0.01119
		c0.26305-0.03468,0.4513-0.21606,0.72339-0.24858c0.37761-0.05492,0.70715,0.10696,1.08729,0.15428
		c0.52358,0.06686,0.94707,0.36462,1.47607,0.31329c0.22475-0.01626,0.38915-0.18464,0.615-0.20776
		c0.073-0.00507,0.14237-0.00652,0.21138-0.00614c0.0206,0.02168,0.04193,0.04298,0.06253,0.0654
		c0.88961-0.0047,1.76875-0.2103,2.22188-0.64896c-1.45947-4.33539,2.97418-7.24815,3.63219-10.38169
		c0.19225-0.02278,0.19765-0.1702,0.47807-0.05204c2.76859-0.36929,6.02427-0.52429,8.45863,0.27028
		C96.93697,109.58445,97.85985,109.23035,98.82172,109.35789L98.82172,109.35789z"/>
	<path class="st0" d="M142.17865,77.88295c-0.48093,0-0.94925-0.04192-1.40308-0.12142
		c-0.05493,1.3749-0.19946,2.74149-0.60092,4.1612c-1.11401,3.94006-1.44499,7.65719-3.64772,11.1011
		c-1.26614,1.96823-2.13589,3.79842-3.48767,5.71317c-0.26016,0.36315-0.52071,0.65801-0.76389,1.03814
		c-1.60146,2.4965-3.22171,4.50772-5.34098,6.58868c-0.43793,0.43398-0.62692,1.002-1.14328,1.33986
		c-0.23197,0.15392-0.54923-0.02095-0.7682,0.14634l-0.24573,0.17452l0.23597,0.09071l-0.23342,0.35737
		c-0.57092,0.68401-1.31564,0.99802-2.02387,1.53353c-2.72379,2.08025-5.37604,3.54077-8.23316,5.20835
		c-0.86179-0.81914-1.66072-1.70118-2.29053-2.75232c-0.27788-0.20271-0.56947-0.39097-0.8665-0.57381
		c0.0224,0.36641,0.03251,0.73822,0.02746,1.11655c0.03071,0.40144-0.20489,0.0524-0.39313,0.09828
		c-0.00289,0.75845,1.13642,0.37074,1.37417,0.88638c-0.51961,0.60957-1.26289-0.413-1.76624,0.09792
		c0.04118-0.2056-0.06864-0.2598-0.09828-0.39351c-0.52431,0.0318-0.38229,0.73354-0.6869,0.98538
		c-0.08382-1.62206-2.8163-2.43615-4.61758-2.75884c-2.32378-0.41843-5.55416-2.0506-7.56069-1.67481
		c-0.16007,0.02964-0.32485,0.06792-0.49397,0.1102c1.73228,0.91492,2.78016,2.53733,2.43473,5.26801
		c-1.03271,1.70731-3.96103,1.51907-3.47791,4.7426c0.18717,0.33566-0.55358,1.12122,2.21501,1.16784
		c0.61284-0.1738,1.21664-0.3877,1.86741-0.59621c0.32124-0.10551,0.67968-0.13046,0.92576-0.32303
		c0.88636-0.01122,1.99857-0.1218,2.34981-0.05676c0.85638,0.15502,1.64227,0.18756,2.50481,0.03578
		c1.09486-0.19331,1.66433-1.23579,2.69921-1.65278c0.99369-0.39857,2.41774,0.18611,2.97168-0.74181
		c0.06323-0.10226,0.09683-0.22186,0.10802-0.34436c0.10769-0.02636,0.21789-0.05674,0.31691-0.04771
		c0.58067,0.04771,1.08799-0.14164,1.63939-0.34183c0.6208-0.22474,1.24157-0.20992,1.81358-0.53911
		c0.35809-0.21175,0.29195-0.78846,0.65511-0.99838c0.12611-0.06866,0.23885,0.13442,0.38338,0.15032
		c0.27063,0.02419,0.29197-0.43253,0.50406-0.60815c0.3198-0.26558,0.68475-0.34869,1.02658-0.57851
		c0.96731-0.62874,1.51329-1.61049,2.57382-2.03506c2.19839-0.8824,3.84213-2.25333,5.53176-3.91622
		c0.70752-0.70315,1.93608-0.87698,2.14493-1.85078c0.02783-0.13876-0.1832-0.271-0.1113-0.4
		c0.09431-0.15393,0.37471,0.13226,0.52321,0.02602c0.18646-0.13153,0.48639-0.10046,0.5666-0.30823
		c0.05455-0.14381-0.18285-0.28075-0.10443-0.40507c0.13188-0.2233,0.47372-0.02746,0.73315-0.0672
		c1.05043-0.18176,1.13388-1.64626,1.71277-2.55215c0.16223-0.25403,0.46468-0.32232,0.65402-0.54671
		c0.44481-0.51816,0.62115-1.11148,1.0132-1.6647c0.1644-0.23631,0.40398-0.35194,0.58321-0.57526
		c0.59261-0.76675,0.71255-1.6806,1.31023-2.44084c0.35918-0.46469,0.87804-0.66597,1.24156-1.12955
		c0.29231-0.36823,0.61826-0.6862,0.71834-1.15233c0.0289-0.13948-0.17778-0.2692-0.11745-0.3953
		c0.12323-0.23777,0.41809-0.28112,0.55829-0.50082l0.01555-0.26305c0.45924-0.49539,0.68184-1.06703,0.93117-1.69395
		c0.08313-0.2226,0.2692-0.36495,0.31763-0.58611c0.05417-0.24644-0.07445-0.48564,0.01625-0.71834l0.16983-0.20018
		c0.21175-0.55141,0.75267-0.85567,0.91528-1.43345c0.09285-0.33784-0.18031-0.67245-0.04916-1.00127
		c0.1496-0.38591,0.8477-0.12864,1.06886-0.47228c0.13873-0.22259-0.09505-0.48817-0.05711-0.74941
		c0.02747-0.21609,0.33788-0.24896,0.43976-0.44662c0.09396-0.18862-0.24391-0.33134-0.23198-0.54057
		c0.01553-0.25151,0.54311-0.14707,0.60345-0.39567c0.06252-0.32558,0.00903-0.61392,0.0997-0.93987
		c0.09216-0.34398,0.37798-0.55573,0.44122-0.90118c0.02455-0.14635-0.14311-0.25762-0.10876-0.40651
		c0.07985-0.27461,0.32916-0.45022,0.38013-0.74218c0.0578-0.31943-0.07697-0.60127-0.07697-0.92324
		c-0.00325-0.76965,0.26846-1.4103,0.40326-2.16586c0.05997-0.32269,0.07225-0.62115,0.07768-0.92467
		c-0.11815-0.00109-0.24245-0.03362-0.35194-0.07299c0.06577-0.11962,0.2038-0.16622,0.35664-0.19801
		c0.00145-0.1254,0.00433-0.25188,0.00903-0.38303c0.01518-0.34364,0.05675-0.6674,0.10876-0.98539
		C142.79654,77.86559,142.49013,77.88295,142.17865,77.88295L142.17865,77.88295z"/>
	<path class="st0" d="M80.24955,8.3346c0.89864-0.43217,1.3879-2.12143,0.64968-2.78811
		c-0.12901-0.12177-0.31763-0.08708-0.46325-0.18175c-0.75267-0.48925-1.95737-0.17598-2.51492,0.54128
		c-0.36351,0.45747-0.77834,0.90083-0.76135,1.48764C77.1973,8.53044,79.22838,8.82674,80.24955,8.3346L80.24955,8.3346z"/>
	<path class="st0" d="M50.21814,42.4954c0.16261-0.03216,0.3187-0.08166,0.45673-0.18789
		c0.05964-0.04553,0.09143-0.10408,0.11057-0.16766c-0.06215-0.02964-0.12429-0.05927-0.18536-0.08963
		C50.47469,42.17308,50.35582,42.35555,50.21814,42.4954L50.21814,42.4954z"/>
	<path class="st0" d="M42.25239,49.53974c0.14598,0.11671,0.43866,0.08563,0.39241,0.3942c-0.1308,0-0.26089,0-0.39241,0
		C42.25239,49.8028,42.25239,49.67089,42.25239,49.53974L42.25239,49.53974z M44.61013,47.96283
		c0.69522,0.15899,1.40453,0.70895,1.17797,1.47826C45.10481,49.27163,44.15376,48.65914,44.61013,47.96283L44.61013,47.96283z
		 M45.00256,44.71041c0,0.099,0,0.19765,0,0.29667c-0.21428,0.0177-0.31293-0.08057-0.29414-0.29667
		C44.80634,44.71041,44.90426,44.71041,45.00256,44.71041L45.00256,44.71041z M45.88639,44.51349
		C45.90446,43.46739,47.0351,44.6031,45.88639,44.51349L45.88639,44.51349L45.88639,44.51349z M41.89032,50.70326
		c0.82169,0.06576,1.50282,0.26558,2.06579,0.52792c0.01842-0.02674,0.03252-0.05566,0.05275-0.0813
		c0.31762-0.41049,0.86397-0.41049,1.31781-0.64788c0.38447-0.20452,0.77977-0.45168,0.87878-0.86325
		c-0.00795,0-0.01626-0.00037-0.02421,0c0.07119-0.30172-0.10117-0.35917-0.09864-0.59081
		c0.02602-0.02493,0.05529-0.04372,0.08817-0.05925c-0.00505-0.06758-0.00361-0.13622,0.00831-0.20668
		c0.0683-0.37435,0.31184-0.64066,0.39711-1.01248c0.09178-0.39205-0.19296-0.73785-0.17163-1.14185
		c0.01445-0.29123,0.47226-0.26882,0.70424-0.44047c0.42928-0.32592,0.60922-0.79747,0.85276-1.27299
		c0.08961-0.16333,0.29124-0.23162,0.33858-0.40903c0.09756-0.3375,0.04697-0.6797,0.21319-0.98719
		c0.17742-0.33712,0.43469-0.58031,0.75087-0.78085c0.10912-0.07154,0.22656-0.11347,0.34797-0.1431
		c-0.08202-0.49648,0.28654-0.53912,0.29991-0.93839c-1.05908-1.3637-2.69379,0.04192-3.91224-0.38953
		c-0.85638,1.36478-1.65674,2.71076-2.44157,4.24322c-0.25764,0.50372-0.50299,0.99224-0.73894,1.47607
		c0.11707-0.05672,0.25077-0.09757,0.4159-0.1066c0.65764,0.70643-0.2392,1.85188-1.02079,1.39804
		c-0.33171,0.74401-0.6374,1.49559-0.90805,2.28909c0.16405,0.03577,0.33099,0.07553,0.50299,0.12431
		C41.80938,50.69025,41.83721,50.6982,41.89032,50.70326L41.89032,50.70326z"/>
	<path class="st0" d="M48.83276,38.40358c0.1626,0.19655-0.0094,0.12502,0,0.39457
		C48.45408,38.87549,48.45408,38.32661,48.83276,38.40358L48.83276,38.40358z M49.81381,39.68415
		c-0.01664,0.08457,0.03866,0.09395,0.09827,0.09974c-0.08925,0.17344-0.18175,0.34184-0.48961,0.29522
		C49.56881,39.96385,49.53701,39.6708,49.81381,39.68415L49.81381,39.68415z M52.17155,36.72767
		c0.2132-0.01589,0.04444,0.34978,0.09792,0.49395c-0.17237-0.08817-0.28619-0.23919-0.4907-0.29556
		C51.78781,36.55749,52.16251,36.91846,52.17155,36.72767L52.17155,36.72767z M52.17155,34.46206
		c0.20525-0.04263,0.26052,0.06759,0.3935,0.09792c0.08022,0.27968-0.13911,0.2562-0.09828,0.49397
		C52.11411,35.11067,52.16758,34.76126,52.17155,34.46206L52.17155,34.46206z M53.35025,35.64437
		C52.81438,33.78708,55.03989,35.22521,53.35025,35.64437L53.35025,35.64437L53.35025,35.64437z M55.02072,33.96884
		c0.25367-0.02855,0.34075,0.66703-0.09865,0.49321C54.84041,34.18383,55.06012,34.20733,55.02072,33.96884L55.02072,33.96884z
		 M56.7884,34.26513c-0.33893,0.38303-0.84301,0.60092-1.37562,0.78881C55.4865,34.4039,56.12859,34.32655,56.7884,34.26513
		L56.7884,34.26513z M58.35915,31.21037c-0.1579,0.17994-0.57996,0.28257-0.58972-0.0983
		C58.0632,30.99427,58.10367,31.08389,58.35915,31.21037L58.35915,31.21037z M60.02891,29.6331
		c0.40686,0.57129-0.08167,2.18864-0.78627,2.75956C59.41245,31.27866,59.96206,30.60546,60.02891,29.6331L60.02891,29.6331z
		 M59.93026,26.38068c0.22548,0.08274,0.26884,0.60596,0.09865,0.78879C59.80669,27.09578,59.99025,26.617,59.93026,26.38068
		L59.93026,26.38068z M60.02891,28.05622c0.29848,0.00795,0.23017,0.64426,0.09756,0.78845
		C59.90642,28.77204,60.0878,28.29253,60.02891,28.05622L60.02891,28.05622z M63.26868,28.54908
		C63.28893,28.25422,63.67774,28.64412,63.26868,28.54908L63.26868,28.54908L63.26868,28.54908z M63.95668,28.05622
		c0.39388,0.02022,0.37942,0.44733,0.29521,0.68979C63.74927,28.80925,63.67304,28.24664,63.95668,28.05622L63.95668,28.05622z
		 M65.23366,23.03069c0.53442,0.18283,0.17923,0.97271,0.19692,1.47824c0.02965,0.13298,0.24609,0.08167,0.39243,0.0983
		c-0.05674,0.32051,0.06683,0.4589,0.09865,0.69015c-0.22115,0.35989-0.82964,0.34761-1.17905,0.09901
		C64.92978,24.63069,64.90015,23.6493,65.23366,23.03069L65.23366,23.03069z M65.33193,22.43954
		c0.0871,0.06034,0.17597,0.11887,0.19731,0c0.08238-0.01879,0.09178,0.0383,0.09718,0.09792c0,0.06612,0,0.13153,0,0.19765
		c-0.09718,0-0.19585,0-0.29449,0C65.33193,22.63611,65.33193,22.53746,65.33193,22.43954L65.33193,22.43954z M71.02811,25.19874
		c-1.47751,0.38698-5.16898,0.21681-5.2051-1.67554C67.39267,24.99457,70.10995,23.74759,71.02811,25.19874L71.02811,25.19874z
		 M70.73434,22.73511c0,0.09828,0,0.19693,0,0.29559c-0.70931-0.12466-0.99475,0.5131-1.86703,0.2952
		C69.28104,22.97359,69.96975,22.93926,70.73434,22.73511L70.73434,22.73511z M64.84016,28.05622
		c-0.01663-0.21463,0.08237-0.31293,0.29557-0.29522C65.1538,27.97601,65.05553,28.07428,64.84016,28.05622L64.84016,28.05622z
		 M72.2068,24.21299c0.3151-0.19982,0.30751,0.38954,0.39278,0.09865c0.35303,0.28077-0.33279,0.70534-0.58898,0.39421
		C72.05252,24.51797,72.291,24.52772,72.2068,24.21299L72.2068,24.21299z M70.04599,6.37649
		C70.49694,6.44154,69.96686,6.9727,70.04599,6.37649L70.04599,6.37649L70.04599,6.37649z M66.41199,7.06592
		c-0.39204,0.08962-0.67136-0.62367-0.78556-0.78845C66.11209,5.71307,66.88427,6.12825,66.41199,7.06592L66.41199,7.06592z
		 M65.03709,6.869c-0.27605,0.01373-0.28294-0.24174-0.29448-0.49251C65.05009,6.3306,65.05733,6.58715,65.03709,6.869
		L65.03709,6.869z M60.61826,6.96728c-1.24698-0.58501-0.35629-1.04717,0.29448-1.87175
		C61.47861,5.4623,60.99549,6.64208,60.61826,6.96728L60.61826,6.96728z M59.63613,9.33226
		c-0.19729-0.8217,0.02277-1.46415,0.78556-1.57654c0.1626,0.24572-0.11309,0.79857,0.09792,1.18232
		C60.15574,8.99911,60.15175,9.42368,59.63613,9.33226L59.63613,9.33226z M59.73442,6.08055c0,0.22945,0,0.45999,0,0.68981
		C57.95517,7.29935,58.26954,4.84512,59.73442,6.08055L59.73442,6.08055z M75.44769,13.66835c0.13114,0,0.2634,0,0.39276,0
		c0,0.19728,0,0.39458,0,0.5915C75.42346,14.34984,75.42095,14.02391,75.44769,13.66835L75.44769,13.66835z M77.12466,15.40748
		c-0.00072,0.00903-0.00361,0.01952-0.00723,0.03506c-0.00108,0.0018-0.00181,0.00361-0.00181,0.00469
		C77.12034,15.43097,77.12394,15.41724,77.12466,15.40748L77.12466,15.40748z M80.35902,11.99317c0.09792,0,0.1955,0,0.29378,0
		c-0.00687,0.28943-0.03505,0.5561-0.39241,0.49286C80.22895,12.25767,80.27592,12.10736,80.35902,11.99317L80.35902,11.99317z
		 M81.73321,11.59895c0.12575,0.61897-0.72775,0.66883-0.98177,0.59116C80.86888,11.78287,81.18903,11.57798,81.73321,11.59895
		L81.73321,11.59895z M84.97371,20.17284c-0.48854-0.06396-0.417-0.04806-0.78447,0.09792
		c-0.05421-0.59369,0.08924-0.85348-0.09866-1.57581C85.02792,18.56415,85.32818,19.59398,84.97371,20.17284L84.97371,20.17284z
		 M100.6877,21.74901c0.66017,0.09431,0.9814,0.52719,0.98248,1.28168C101.19141,23.14416,100.57929,22.21622,100.6877,21.74901
		L100.6877,21.74901z M118.85771,24.11434c0.29993,0.24572-0.16874,0.54708-0.49106,0.49288
		C118.23983,24.15156,118.75221,24.33657,118.85771,24.11434L118.85771,24.11434z M120.2319,29.82932
		c0.40505,0.15608,0.24751,0.65222,0.09829,0.98573C119.77698,30.77315,119.91391,30.01071,120.2319,29.82932L120.2319,29.82932z
		 M120.72369,23.72013c0.06504,0,0.13117,0,0.19657,0c0,0.06576,0,0.13153,0,0.19728c-0.0654,0-0.13153,0-0.19657,0
		C120.72369,23.85166,120.72369,23.78588,120.72369,23.72013L120.72369,23.72013z M123.17899,29.92795
		c0.83398-0.75266,1.35323,0.63923,1.96388,0.39533c0.00433,0.27244,0.24752,0.60199,0.09792,0.98573
		C124.41551,31.21037,122.84837,31.4615,123.17899,29.92795L123.17899,29.92795z M130.05313,40.47368
		C130.29739,40.08851,130.19588,40.79998,130.05313,40.47368L130.05313,40.47368L130.05313,40.47368z M130.34836,39.58661
		c0.19006-0.03904,0.14272,0.44986-0.09865,0.29556C130.22153,39.72282,130.34258,39.7127,130.34836,39.58661L130.34836,39.58661z
		 M133.68752,45.99173c0.04155,0.02385,0.07153,0.03938,0.09178,0.05239c-0.04301-0.02456-0.11348-0.06432-0.1778-0.09972
		C133.62643,45.95849,133.65353,45.97365,133.68752,45.99173L133.68752,45.99173z M134.27686,46.18938
		c0.07155-0.09827,0.77435,0.00543,0.88383,0.19693c-0.06433,0.10336-0.58466,0.13299-0.88383,0
		C134.33647,46.29814,134.395,46.2107,134.27686,46.18938L134.27686,46.18938z M138.30328,51.11698
		C138.26244,51.07543,138.3676,51.18058,138.30328,51.11698L138.30328,51.11698L138.30328,51.11698z M50.01073,41.557
		c0.13117,0.05058,0.41158,0.04408,0.74436,0.03613c-0.01951-0.11526-0.03505-0.23018-0.02312-0.33784
		c0.05709-0.44083,0.61499-0.55648,0.88853-0.90157c0.17706-0.23161,0.22874-0.50188,0.30317-0.78084
		c0.20885-0.73207,0.08022-1.56498,0.63778-2.08026c0.26594-0.23668,0.67823-0.05961,0.98104-0.24245
		c0.3682-0.2121,0.39278-0.72086,0.73605-0.96405c0.50298-0.34943,1.16965-0.04084,1.71602-0.3093
		c1.22963-0.59476,2.00831-1.56823,2.98935-2.49905c-0.54128,0.4253-1.31816,0.48819-2.00037,0.68873
		c0.17162-0.61284,1.38428-1.24519,2.35775-1.08331c-0.04699,0.07481-0.10011,0.14201-0.1561,0.2038
		c1.74203-1.57616,3.48441-2.63453,5.49816-3.83924c2.04989-1.22965,3.77637-2.4958,6.08498-3.0725
		c1.45619-0.36277,2.52939-1.24409,3.98558-1.57326c0.87084-0.18284,1.56786-0.52469,2.43147-0.74799
		c0.19802-0.05419,0.38157-0.07264,0.57307-0.10696c0.12504-0.08453,0.27969-0.11634,0.42963-0.09429
		c0.53118-0.11996,1.0067-0.23523,1.54257-0.40651c3.07935-0.99695,5.91335-1.59966,9.13181-1.34202
		c2.5908,0.21281,4.9883-0.36749,7.39809,0.58067c0.01372,0.00541,0.02565,0.01228,0.03793,0.01805
		c0.07045-0.17921,0.16766-0.34038,0.26414-0.4607c0.15899,0.19981,0.271,0.53983,0.25436,0.83289
		c0.04699,0.02709,0.09793,0.05059,0.15467,0.06468c0.24317,0.05745,0.43939-0.15429,0.69234-0.17778
		c0.50912-0.04805,0.94996,0.03904,1.45365,0.12068c2.0181,0.36353,3.86961,0.40761,5.68823,1.34167
		c0.21355,0.10876,0.3252,0.35014,0.55719,0.39928l0.31979-0.14237c2.59081,0.72159,4.78956,1.49667,7.17876,2.72596
		c2.05097,1.0598,4.05966,1.65205,5.74135,3.23796c0.6786,0.64247,1.37057,1.05728,2.10264,1.63616
		c0.30605,0.23921,0.6215,0.3422,0.93984,0.54454c0.81772,0.52467,1.26868,1.27554,2.01664,1.86957l0.31111,0.11925
		c0.33135,0.26487,0.68619,0.40508,0.95827,0.73605c0.54636,0.66885,1.1274,1.15016,1.67662,1.82225
		c0.86507,1.05584,1.74602,1.94112,2.5424,2.94601c0.03685-0.02241,0.07658-0.0372,0.11671-0.04263
		c0.20631,0.09973,0.24246,0.27389,0.18971,0.44155c0.2569,0.34653,0.50369,0.70786,0.73389,1.10102
		c0.44516,0.76928,1.05655,1.26722,1.50641,2.02818c1.50824,2.56662,3.20583,4.57458,4.19987,7.38112
		c1.16966,3.31313,2.70065,6.01633,3.49777,9.40245c0.0412-0.00433,0.08203-0.01119,0.1225-0.01482
		c0.24825-0.02203,0.47443-0.03324,0.6916-0.03324c0.18755,0,0.36531,0.00795,0.53839,0.02457
		c0.10226,0.0047,0.22223,0.0112,0.37039,0.02096c0.42709,0.02963,0.8484,0.12032,1.2654,0.25945
		c-0.1879-0.37255-0.44408-0.7039-0.51239-1.13643c-0.04875-0.27137,0.07156-0.51057,0.04303-0.78953
		c-0.02856-0.26197-0.0647-0.48024-0.06686-0.74255c0-0.3393,0.05711-0.62838,0.02963-0.97094
		c-0.02963-0.35772-0.23161-0.63018-0.23486-0.99007c-0.00507-0.24065,0.37289-0.31797,0.39999-0.56116
		c0.00975-0.18139,0.02061-0.34146,0.0271-0.52358c0.00578-0.39711-0.47227-0.58031-0.59984-0.95249
		c-0.07262-0.21752,0.29958-0.35772,0.31329-0.59081c0.02023-0.22474-0.0542-0.41626-0.01372-0.63053
		c0.03612-0.20525,0.1738-0.37181,0.13838-0.57526c-0.10733-0.63234-0.63054-1.01537-0.88312-1.60038
		c-0.1908-0.45386-0.27716-0.88853-0.55791-1.28926c-0.28619-0.42891-0.37978-0.88275-0.63019-1.32469
		c-0.17595-0.30604-0.53368-0.40613-0.69701-0.71869c-0.16008-0.31654,0.36061-0.55829,0.52106-0.87517
		c0.20306-0.39458,0.10875-0.82351,0.22295-1.25567c0.05708-0.17416,0.30316-0.22583,0.33783-0.40324
		c0.03253-0.15032,0.24536-0.21175,0.22873-0.35483c-0.01337-0.17308-0.31001,0.11454-0.47227,0.07588l-0.13875-0.31907
		c-0.2045-0.03145-0.38011-0.05818-0.57018-0.13442c-0.47844-0.19187-1.14619-0.07732-1.38251-0.54345
		c-0.27498-0.56623,0.7552-0.90986,1.02296-1.47897c0.17273-0.37761-0.06143-0.83794-0.35521-1.12341
		c-0.39601-0.38555-1.03848-0.2215-1.46414-0.57489c-0.13911-0.11887-0.1478-0.32194-0.15285-0.51345
		c-0.00327-0.18285-0.0694-0.36026,0.03215-0.52215l0.31618-0.13874l-0.19548-0.16876
		c-0.12791-0.24607-0.44519-0.27786-0.60345-0.50658c-0.172-0.24283-0.0177-0.56335-0.10768-0.84915
		c-0.17705-0.56515-0.54958-0.96695-0.90804-1.39839c-0.00578,0.00794-0.00797,0.0195-0.01517,0.02601
		c-1.51584-0.33389-2.56372-0.52828-3.24161-1.67553c0.16116-0.38194,0.25693-0.64319-0.09863-0.88746
		c0.116-0.34399,0.37978-0.53803,0.39351-0.98429c0.0831,0.07949,0.19186,0.15069,0.314,0.2179
		c-0.19006-0.19333-0.38268-0.38845-0.57851-0.59117c-0.74075-0.76676-1.1068-1.67083-1.90787-2.36605
		c-0.09071-0.07805-0.18033-0.16007-0.27029-0.24246c-0.33424,0.66233-0.70679,1.28709-1.48512,1.50354
		c0.04373,0.28473,0.34798,0.30858,0.29523,0.68943c-0.51309,0.01805-0.92035-0.11599-1.2777-0.49287
		c-0.81807,0.42673-0.78122,1.71275-1.67012,2.06941c-0.53335-1.06633-0.31365-2.15901,0.19657-2.95649
		c-0.18031-0.11239-0.78085,0.12321-0.78484-0.3935c-0.09394-0.35775,0.42313-0.09974,0.48998-0.29559
		c-0.00036-0.25366-0.01157-0.52106-0.02131-0.79099c-0.16045-0.13405-0.25765-0.32448-0.45603-0.41191
		c-0.44949-0.21175-0.92178-0.14889-1.39478-0.28619c-0.81951-0.23017-0.92249-1.32034-1.57653-1.86705
		c-0.61608-0.51924-1.67516-0.75556-1.6936-1.56604c-0.00975-0.41808,0.48383-0.61249,0.65764-0.99117
		c0.35519-0.79134-0.7104-1.53245-1.43452-1.99568c-2.1041-1.36045-4.0192-2.35305-6.3065-3.37022
		c-2.09143-0.93551-4.08531-1.18991-6.25517-1.9198c-2.01447-0.67824-3.76409-1.21447-5.8566-1.58919
		c-1.12125-0.19186-2.1312-0.05998-3.22498-0.36747c-2.69416-0.75556-5.18414-0.47915-7.98707-0.44915
		c-2.23995,0.02422-4.44016-0.52936-6.37152,0.63488c-0.28872,0.17163-0.43179,0.5626-0.76387,0.59223l-0.09433-0.21897
		c-0.16583-0.23307-0.21896-0.50443-0.21896-0.79495l0.12034-0.31328c-0.09865-1.19025-0.55899-2.19587-1.23724-3.17438
		c-1.08259-1.56641-2.89217-2.14997-4.71767-2.65368c-0.36604-0.10551-0.75772-0.16007-0.97272-0.47444
		c-0.51348-0.74111-0.9926-1.51366-0.90985-2.41774c0.02204-0.29196,0.09322-0.54779,0.22765-0.80435
		c0.2504-0.50877,0.67642-0.83108,0.87949-1.35611c0.16586-0.41734-0.15754-0.81048-0.21463-1.24879
		c-0.03687-0.28726,0.06901-0.55321-0.03434-0.81626c-0.11166-0.30967-0.36026-0.49217-0.61464-0.69522
		c-0.14453-0.1149-0.22763-0.28329-0.40398-0.33496c-0.42133-0.11598-0.8177-0.01445-1.25275,0.04552
		c-1.89415,0.25764-3.63906,0.43939-5.43565-0.16693c-0.81121-0.27065-1.58772-0.26487-2.43219-0.15286
		C63.69942,0.371,61.90825,0.94229,59.8786,1.68558c-0.64429,0.23486-1.07572,0.71942-1.49161,1.24083
		c0.32447-0.03939,0.099,0.47373,0.16837,0.6898c-0.33424,0.07805-0.34581-0.34471-0.25691-0.57741
		c-0.36748,0.46612-0.7328,0.94852-1.23362,1.30047C56.1922,4.95282,55.44567,5.6885,55.1537,6.71688
		c-0.17453,0.62222-0.35772,1.17146-0.75122,1.68493c-0.49468,0.63379-1.1097,1.11835-1.2788,1.90788
		c-0.1561,0.69089,0.45061,1.30335,0.99731,1.73841c0.77795,0.60994,0.78663,1.6712,1.33334,2.49181
		c0.5973,0.89829,1.98846,0.32015,3.06635,0.3093c0.22294,0,0.41806-0.07913,0.63559-0.02638
		c0.85926,0.25042,1.13533,1.22892,1.6217,1.98558c0.39494,0.62402,1.36081,0.57923,2.07409,0.3635
		c1.33696-0.39892,2.47084-0.80976,3.7854-1.2871c0.46651-0.16621,0.81087-0.43216,1.24303-0.67534
		c0.49214-0.27318,1.00562-0.31762,1.56063-0.37182c0.54382-0.05457,1.09016-0.39061,1.54907-0.10841
		c0.32339,0.19982,0.05744,0.70173,0.02168,1.07934c-0.04301,0.5196,0.17994,1.09305,0.63668,1.32756
		c0.45455,0.23885,0.96261,0,1.45728,0.13008c0.16875,0.04011,0.34364,0.10299,0.43469,0.25331
		c0.14922,0.26486-0.29051,0.51383-0.53949,0.69088c-0.47298,0.33208-0.88239,0.62223-1.40994,0.87589
		c-0.64788,0.31002-1.47752-0.11382-2.01086,0.37001c-0.1478,0.1402-0.00725,0.41482-0.13623,0.57671
		c-0.45782,0.55176-1.4161-0.64139-2.02856-0.25802c-0.2002,0.12612,0.026,0.46831-0.08854,0.68439
		c-0.12827,0.23414-0.48636-0.11456-0.7523-0.11456c-0.63814-0.01878-1.15053,0.42604-1.59678,0.88818
		c-0.28872,0.29955-0.54021,0.56045-0.85492,0.83109c-0.146,0.11743-0.32522,0.13876-0.46362,0.26558
		c-0.23883,0.24066-0.37831,0.51528-0.63559,0.73135c-0.7346,0.61538-1.42586,1.05331-2.16407,1.66074
		c-1.14979,0.96297-2.13552,1.7825-3.29291,2.73969c-1.06269,0.87914-1.6965,1.94076-2.72234,2.86652
		c-1.48728,1.34887-2.9106,2.40761-4.07664,4.04086c-0.98067,1.39261-1.92161,2.55433-2.84447,3.91008
		c0.04805,0.12755,0.03613,0.27461-0.07227,0.42023c-0.11419-0.0159-0.17597,0.02276-0.19693,0.099
		c-0.01987-0.0054-0.03902-0.01661-0.05817-0.02601c-0.04589,0.07083-0.09251,0.1384-0.13804,0.20994
		c-0.08383,0.13044-0.16477,0.25656-0.24752,0.38483c0.1402,0.27535,0.05239,0.7505-0.40109,0.62441
		c-0.25835,0.40362-0.5113,0.80109-0.75989,1.19604C46.87249,40.30856,50.04578,39.37268,50.01073,41.557L50.01073,41.557z"/>
	<path class="st0" d="M8.07497,65.60314c0.32954,0.03035,0.27462,0.44697,0.29522,0.78844
		C7.69556,66.55816,7.85961,65.83079,8.07497,65.60314L8.07497,65.60314z M7.19041,61.76027
		c0.37037-0.1897,0.62186-0.02854,0.98285,0.19693c-0.32846,0.39351,0.14164,0.56586-0.19693,0.88601
		C7.53838,62.65966,7.40901,62.16497,7.19041,61.76027L7.19041,61.76027z M3.85126,64.4201
		C3.97447,63.22696,5.18135,64.4371,3.85126,64.4201L3.85126,64.4201L3.85126,64.4201z M3.55748,64.02661
		C3.57664,63.73139,3.96544,64.12056,3.55748,64.02661L3.55748,64.02661L3.55748,64.02661z M3.26263,56.14251
		c-0.04156-0.20597,0.06684-0.2616,0.09828-0.39386c0.29522-0.10008,0.17416,0.21935,0.19657,0.39386
		C3.4592,56.14251,3.36091,56.14251,3.26263,56.14251L3.26263,56.14251z M1.7898,64.22317
		c0.0112-0.25184,0.32847-0.19476,0.58827-0.19656C2.47202,64.38252,1.9918,64.16321,1.7898,64.22317L1.7898,64.22317z
		 M18.9759,55.74864c0.27317,0.14021,0.59476,0.23091,0.3935,0.59117C18.96433,56.41497,18.7515,56.00376,18.9759,55.74864
		L18.9759,55.74864z M12.10139,70.13617c0.39097-0.03001,0.53189,0.18969,0.4907,0.59113
		C12.14149,70.818,12.08043,70.51919,12.10139,70.13617L12.10139,70.13617z M15.53882,71.90999
		c-0.02602,0.35554,0.18175,0.47478,0.19621,0.78842c-0.91202-0.12754-1.13678,0.43651-1.76768,0.59117
		C13.77006,72.49825,14.63619,71.92443,15.53882,71.90999L15.53882,71.90999z M17.79793,74.57053
		c0-0.00578,0.00217-0.01119,0.00289-0.01698c-0.00289,0.01806-0.00542,0.0372-0.00795,0.0589
		C17.79396,74.59908,17.79539,74.58535,17.79793,74.57053L17.79793,74.57053z M18.09242,73.88145
		c0.00325-0.02239,0.00506-0.04047,0.00794-0.05455c-0.00289,0.01951-0.0065,0.04228-0.00975,0.06685
		C18.09097,73.88905,18.09242,73.8858,18.09242,73.88145L18.09242,73.88145z M18.09242,73.58516
		C18.11157,73.28994,18.50073,73.67982,18.09242,73.58516L18.09242,73.58516L18.09242,73.58516z M18.39053,71.98586
		c-0.00072,0.00687-0.00253,0.01445-0.0029,0.02277c-0.0177,0.08492-0.02927,0.14418-0.03794,0.1861
		C18.36234,72.13003,18.38004,72.04006,18.39053,71.98586L18.39053,71.98586z M14.28533,73.72572
		c1.33118,0.79819,2.68657,1.64519,4.06617,2.54094c0.1449,0.14526,0.32629,0.24173,0.54418,0.29053
		c0.16947,0.04733,0.37507,0.04155,0.61681-0.01842c0.2421-0.06107,0.49612-0.24861,0.76243-0.56297
		c0.43614-0.4842,0.61102-0.8835,0.52683-1.19856c-0.08492-0.31437-0.32123-0.74944-0.7075-1.30661
		c-0.38808-0.55648-1.11402-1.24555-2.17888-2.06905c-1.06523-0.82204-2.29885-1.70552-3.70266-2.65005
		c-0.41193-0.26559-0.87769-0.56299-1.39802-0.88963c-0.5207-0.3263-1.05258-0.65836-1.59713-0.99802
		c-0.54454-0.33894-1.09523-0.67172-1.65169-0.99767c-0.55719-0.32772-1.07716-0.63596-1.561-0.92647
		c1.83417-1.17545,3.45478-2.24972,4.87557-3.22858c-0.05348-0.01411-0.08383-0.07445-0.09142-0.24753
		c0.10768-0.11455,0.35917-0.13766,0.45745-0.00613c1.08836-0.7563,2.05784-1.4555,2.89037-2.08999
		c1.98376-1.51221,3.32722-2.59552,4.02967-3.24954c0.75014-0.70138,1.1917-1.35503,1.32504-1.96027
		c0.13261-0.60489-0.03072-1.2459-0.48962-1.92416h-0.03722c-0.17416-0.27026-0.35592-0.44806-0.54526-0.54127
		c-0.41013,0.24751-0.61971,0.17234-0.6945-0.00146c-0.12755,0.04265-0.26233,0.09829-0.41193,0.17995
		c-0.39964,0.2179-0.91998,0.58754-1.56099,1.10751c-0.64138,0.51998-1.49451,1.19205-2.55938,2.01448
		c-0.75014,0.58068-1.59713,1.20398-2.54095,1.86995c-0.94382,0.66523-1.89379,1.32467-2.84989,1.97834
		c-0.95647,0.65329-1.87536,1.26505-2.75884,1.83272c-0.88384,0.56983-1.65205,1.05872-2.30571,1.47101
		c0.04842-0.8954,0.12141-1.85151,0.21825-2.86797c0.09612-1.01681,0.19332-1.9487,0.29052-2.79568
		c0.09611-0.99224,0.19295-1.98376,0.29051-2.97709c0-0.04807-0.03107-0.13877-0.09142-0.27246
		c-0.06034-0.13224-0.16296-0.25943-0.30859-0.38085c-0.14489-0.12104-0.33894-0.21787-0.58031-0.29052
		c-0.24209-0.0719-0.5449-0.0719-0.90804,0c-0.70209,0.19441-1.30083,0.45385-1.79659,0.78123
		c-0.49612,0.32593-0.79315,0.80435-0.88962,1.43381c-0.02457,0.14489-0.06035,0.45347-0.10876,0.92502
		c-0.04842,0.47265-0.10371,1.02911-0.16333,1.67049c-0.04914,0.51635-0.10153,1.07283-0.1579,1.66652
		c0.10045-0.33209,0.65113-0.21284,0.96261-0.33244c-0.07913,0.31365-0.60271,0.68076-0.96947,0.4018
		c-0.01157,0.12215-0.02277,0.24319-0.03505,0.36893c-0.07264,0.76316-0.13985,1.50138-0.19947,2.2154
		c-0.06107,0.71365-0.11527,1.38538-0.16332,2.01375c-0.04951,0.63017-0.08492,1.13857-0.10912,1.52557
		c-0.02421,0.5807-0.02421,1.3012,0,2.15974c0.0242,0.85928,0.05455,1.70663,0.09069,2.54169
		c0.03686,0.83506,0.07264,1.57327,0.10948,2.21393c0.03614,0.64174,0.06577,1.02332,0.08998,1.144
		c0.0242,0.12141,0.05492,0.28545,0.09105,0.48962c0.03686,0.20631,0.12069,0.42348,0.25439,0.65401
		c0.13261,0.2291,0.32051,0.44771,0.56224,0.65293c0.15285,0.12973,0.34906,0.24103,0.57887,0.33714
		c0.04156-0.19404,0.29595,0.03866,0.116,0.04914c0.10081,0.03721,0.20741,0.07227,0.32196,0.10442
		c0.89504,0.26595,1.54256,0.24753,1.94148-0.05491c0.4-0.3028,0.5384-0.76858,0.41807-1.39767
		c-0.0242-0.14454-0.04263-0.39856-0.05456-0.76244c-0.01264-0.36314-0.01843-0.79242-0.01843-1.28854
		c0-0.49575,0.00578-1.04609,0.01843-1.65169c0.01193-0.60487,0.01843-1.22205,0.01843-1.85152
		c0.38664,0.07227,0.82241,0.19404,1.30661,0.36315c0.48384,0.16984,1.02838,0.42313,1.63398,0.76279
		c0.91925,0.50804,1.99641,1.13173,3.23075,1.86886C11.96155,72.30384,13.14711,73.02328,14.28533,73.72572L14.28533,73.72572z"/>
	<path class="st0" d="M75.34651,67.97101c0.26594-0.32667,0.64101-0.54996,1.12557-0.6721
		c0.55573-0.14453,0.97995-0.19332,1.27046-0.14453c0.28979,0.04913,0.48384,0.18138,0.58033,0.39855
		c0.12141,0.21897,0.09647,0.44915-0.07191,0.69053c-0.1702,0.24245-0.48457,0.45998-0.94455,0.65329
		c-0.45999,0.19333-0.90118,0.28511-1.32467,0.2721c-0.42387-0.01192-0.80473-0.04192-1.14365-0.0907
		C74.91073,68.66694,75.07948,68.29766,75.34651,67.97101L75.34651,67.97101z M71.91232,72.69841
		c-0.24428-0.01479-0.02892-0.33278,0-0.3942C72.2068,72.36924,71.81874,72.5145,71.91232,72.69841L71.91232,72.69841z
		 M68.76974,72.40176c0.39314,0.16441,0.52395,0.5926,0.98177,0.6909C69.69585,73.34197,68.62015,73.00629,68.76974,72.40176
		L68.76974,72.40176z M60.91274,70.33272c-0.46577,0.13731-0.59404-0.35989-0.39313-0.59006c0.09865,0,0.19585,0,0.29449,0
		C60.92829,69.85792,60.9254,70.09064,60.91274,70.33272L60.91274,70.33272z M60.78954,67.97101
		c0.26595-0.32667,0.64066-0.54996,1.12557-0.6721c0.5561-0.14453,0.97958-0.19332,1.27011-0.14453
		c0.29052,0.04913,0.48457,0.18138,0.58104,0.39855c0.12106,0.21897,0.09648,0.44915-0.07227,0.69053
		c-0.1702,0.24245-0.48492,0.45998-0.94381,0.65329c-0.46034,0.19333-0.90227,0.28511-1.32541,0.2721
		c-0.42422-0.01192-0.80505-0.04192-1.14363-0.0907C60.3534,68.66694,60.52287,68.29766,60.78954,67.97101L60.78954,67.97101z
		 M62.97599,66.48914C63.21883,66.1054,63.11802,66.81543,62.97599,66.48914L62.97599,66.48914L62.97599,66.48914z
		 M59.43957,69.24942C59.58266,68.92204,59.68346,69.63317,59.43957,69.24942L59.43957,69.24942L59.43957,69.24942z
		 M58.85021,69.05215c-0.47878,0.09827-0.18067-0.52468,0-0.19622C58.85021,68.92097,58.85021,68.98638,58.85021,69.05215
		L58.85021,69.05215z M51.48356,74.47226c0.46974-1.08151,1.38719,0.02816,2.16153-0.39459
		C53.59956,74.74036,51.86477,74.8867,51.48356,74.47226L51.48356,74.47226z M53.54646,81.07431
		c-0.6757,0.21066-0.59767-0.75665-0.09756-0.68908C53.58475,80.51279,53.54573,80.81304,53.54646,81.07431L53.54646,81.07431z
		 M53.14825,85.05808c0.00145-0.01302,0.00434-0.02637,0.00506-0.04119c0.00181-0.00686,0.00181-0.01157,0.00325-0.01734
		C53.15331,85.01689,53.15079,85.03786,53.14825,85.05808L53.14825,85.05808z M51.38563,85.01689
		c-0.50804-0.67282-1.87355-0.48492-1.96316-1.57726c-0.69233-0.09865-1.08294,0.39676-1.57147,0.19729
		c-0.00434-0.86684,0.67642-0.48418,1.37417-0.68944c-0.19006-0.83469,0.31329-1.17977,0.86072-1.19315
		c-0.08527-0.41337-0.15537-0.86757-0.2056-1.36768c-0.06108-0.59295-0.07878-1.20399-0.05457-1.83272
		c0.02385-0.48528,0.06649-1.07137,0.12719-1.76116c0.05745-0.65729,0.12141-1.34311,0.1897-2.05531
		c-0.1084,0.04372-0.24101,0.06287-0.42638,0.03035c0.01735-0.11419-0.02168-0.17488-0.09829-0.19729
		c-0.10551-0.49938,0.37761-0.40867,0.58899-0.59042c0.17164,0.08996,0.21753,0.30678,0.1973,0.59042
		c-0.0636,0.05022-0.12683,0.10008-0.20019,0.13911c0.41554,0.61067,0.80397,1.29108,1.1646,2.04664
		c0.37507,0.78628,0.53804,1.66396,0.49035,2.63235h0.03577c-0.0488,0.94347-0.08998,1.68747-0.12647,2.23237
		c-0.03651,0.54455-0.09143,0.96262-0.1637,1.25313c-0.07262,0.28944-0.15753,0.47698-0.25401,0.56226
		c-0.09721,0.08454-0.23054,0.12647-0.39964,0.12647c-0.14491,0-0.2898-0.14526-0.43542-0.43543
		c-0.07262-0.14524-0.14091-0.31364-0.20452-0.50406c-1.14183-0.24318,0.32774,1.85151,1.66471,1.80236
		C51.99594,84.8402,51.53523,84.77298,51.38563,85.01689L51.38563,85.01689z M47.851,73.98011
		c0.16766-0.0217,0.25366,0.16728,0.29449,0c0.26017,0.23559-0.00579,0.77724-0.29449,0.78771
		C47.70719,74.4838,47.57602,74.18751,47.851,73.98011L47.851,73.98011z M42.14832,81.62101
		c-0.03685,0.54455-0.09142,0.96262-0.16441,1.25313c-0.07262,0.28944-0.15682,0.47698-0.2533,0.56226
		c-0.09793,0.08454-0.23053,0.12647-0.40001,0.12647c-0.1449,0-0.29052-0.14526-0.43542-0.43543
		c-0.14562-0.2905-0.27209-0.671-0.38085-1.14399c-0.10949-0.47083-0.1944-1.00381-0.25438-1.59678
		c-0.06071-0.59295-0.07877-1.20399-0.0542-1.83272c0.02348-0.48528,0.06612-1.07137,0.12683-1.76116
		c0.0607-0.68981,0.12646-1.41032,0.1991-2.16047c0.43614,0.62947,0.8412,1.33695,1.21664,2.12397
		c0.37543,0.78628,0.53767,1.66396,0.48998,2.63235h0.03613C42.22565,80.33212,42.18373,81.07611,42.14832,81.62101
		L42.14832,81.62101z M40.28777,82.94749c-0.13008,0-0.26088,0-0.39205,0c-0.04553-0.30894,0.08527-0.43902,0.39205-0.39493
		C40.28777,82.68372,40.28777,82.81596,40.28777,82.94749L40.28777,82.94749z M39.69915,60.97184
		c-0.07046-0.26848,0.46288,0.07044,0.39241-0.19768c0.23018,0.02531,0.05637,0.43254,0,0.49252
		C39.77648,61.35268,39.88886,61.01122,39.69915,60.97184L39.69915,60.97184z M31.15489,70.52966
		c0.35917-0.23668,0.82674,0.11563,0.88348,0.49358C31.62897,71.1985,30.96771,70.90003,31.15489,70.52966L31.15489,70.52966z
		 M29.77926,65.99735c0-0.13116,0-0.2634,0-0.39421c0.09865,0,0.19585,0,0.29449,0
		C30.1023,65.86042,30.03835,66.02808,29.77926,65.99735L29.77926,65.99735z M28.69885,70.82631
		c0.02204-0.30712,0.48926-0.16656,0.78592-0.19764c0.13478,0.42348,0.50081,0.61607,0.58898,1.08511
		C29.27736,71.75569,29.35216,70.92605,28.69885,70.82631L28.69885,70.82631z M27.98954,70.78476
		c-0.2786,0.09684-0.53334,0.15755-0.76243,0.1814c-0.23054,0.02419-0.39387,0.03612-0.48998,0.03612
		c-0.12141,0-0.29702-0.0054-0.52612-0.0177c-0.23089-0.01228-0.46034-0.06069-0.69016-0.14597
		c-0.23054-0.0842-0.43-0.23524-0.59911-0.45385c-0.16947-0.21789-0.25438-0.53191-0.25438-0.94347
		c0-0.41156,0.10912-0.76206,0.32701-1.05331c0.21789-0.29015,0.46577-0.52612,0.74436-0.7075
		c0.27823-0.1814,0.5626-0.32051,0.85312-0.41735c0.29052-0.09649,0.50805-0.14526,0.65295-0.14526c0.12141,0,0.23017,0,0.32737,0
		c0.09648,0,0.21753,0.01302,0.36315,0.03651c0.04806,0.19368,0.1019,0.37505,0.16297,0.54453
		c0.0607,0.16949,0.1149,0.33895,0.16332,0.50769c0.14526,0.3635,0.30859,0.65404,0.49034,0.87156
		c0.18139,0.21825,0.38122,0.38772,0.59874,0.5084l0.0365,0.0365c-0.14526,0.31437-0.34472,0.56298-0.5991,0.74435
		C28.53444,70.54916,28.26741,70.68791,27.98954,70.78476L27.98954,70.78476z M24.27893,66.39159
		c0.20994-0.04626,0.18826,0.14019,0.19693,0.29485C24.35481,66.64417,24.2746,66.56069,24.27893,66.39159L24.27893,66.39159z
		 M26.14562,65.60314c0.3393-0.03252,0.35954,0.51456,0.19693,0.6898C26.02963,66.20621,26.00939,65.89727,26.14562,65.60314
		L26.14562,65.60314z M27.12774,65.60314c0.30823,0.06792,0.12827,0.26305,0.09865,0.4925
		C26.97562,66.08552,26.99405,65.72889,27.12774,65.60314L27.12774,65.60314z M22.61027,68.95349
		c-0.34039-0.21752-0.91094-0.20344-1.08042-0.59116c0.4094,0.10516,0.8806-0.57922,1.27662-0.19728
		C22.85489,68.54121,22.77901,68.79414,22.61027,68.95349L22.61027,68.95349z M52.36811,56.04388
		c0.21501,0.01481,0.21103,0.24823,0.19694,0.49213C52.27273,56.55734,52.21852,56.18478,52.36811,56.04388L52.36811,56.04388z
		 M79.86761,65.89943c0.58933,0.41338,0.40831,1.53245-0.49072,1.47681C79.11096,66.81543,79.56734,66.21199,79.86761,65.89943
		L79.86761,65.89943z M86.45521,71.67439c0.50805-0.54527,0.85855-1.04718,1.05257-1.50751
		c0.19333-0.5319,0.23597-1.01573,0.1272-1.45151c-0.10876-0.43578-0.29666-0.67751-0.56261-0.72594
		c-0.53298-0.12103-0.91383-0.06647-1.14365,0.16332c-0.23017,0.22982-0.47842,0.69595-0.74436,1.39767
		c-0.04878,0.14562-0.2421,0.387-0.58032,0.7263c-0.33965,0.33858-0.80578,0.67101-1.39802,0.99803
		c-0.59405,0.32737-1.3254,0.61102-2.19659,0.85349c-0.8712,0.24208-1.86416,0.36277-2.9771,0.36277
		c-0.50804,0-0.96152-0.09106-1.3608-0.27209c-0.39928-0.18139-0.73243-0.40505-0.99802-0.67173
		c0.55574,0,1.25746-0.09647,2.10518-0.29052c0.58102-0.12032,1.13678-0.30894,1.66975-0.5626
		c0.53189-0.25439,1.0038-0.56839,1.41573-0.94418c0.41157-0.37508,0.73823-0.79856,0.98068-1.27048
		c0.24138-0.47227,0.36243-0.98646,0.36243-1.54292c0-0.55683-0.15791-1.01682-0.4719-1.37997
		c-0.31473-0.36241-0.70789-0.6533-1.17942-0.87047c-0.47192-0.21824-0.97454-0.37507-1.5068-0.47299
		c-0.53225-0.09576-1.01682-0.14489-1.45222-0.14489c-0.43506,0-1.0161,0.0672-1.74275,0.19981
		c-0.72559,0.13333-1.45152,0.38086-2.1778,0.74435c-0.72667,0.36315-1.38539,0.85963-1.97834,1.48838
		c-0.59405,0.63017-0.96225,1.44029-1.10715,2.43253c-0.03902,0.27427-0.05962,0.5395-0.06432,0.79965
		c-0.09755,0.13911-0.25654,0.31943-0.47987,0.54382c-0.33892,0.33858-0.80506,0.67101-1.39801,0.99803
		c-0.03687,0.02023-0.07877,0.03867-0.11671,0.05889c0.11491,0.09068-0.00543,0.41734,0.04155,0.57635
		c-0.15211-0.07987-0.2009-0.26199-0.1973-0.49722c-0.54201,0.26884-1.17868,0.50805-1.92413,0.71548
		c-0.87047,0.24208-1.86379,0.36277-2.97636,0.36277c-0.50805,0-0.96188-0.09106-1.36153-0.27209
		c-0.39965-0.18139-0.73172-0.40505-0.99767-0.67173c0.55574,0,1.25782-0.09647,2.10481-0.29052
		c0.58104-0.12032,1.1375-0.30894,1.67047-0.5626c0.5319-0.25439,1.00381-0.56839,1.41537-0.94418
		c0.36135-0.32919,0.65332-0.69811,0.88384-1.10174c-0.7057-1.05944-1.39803-2.13335-2.15395-3.14474
		c1.075,0.30172,1.75069,1.83886,2.15649,3.14077c0.03107-0.05492,0.06503-0.1084,0.09396-0.16477
		c0.24137-0.47227,0.3635-0.98646,0.3635-1.54292c0-0.55683-0.15826-1.01682-0.47227-1.37997
		c-0.31474-0.36241-0.70787-0.6533-1.17978-0.87047c-0.47192-0.21824-0.97455-0.37507-1.50715-0.47299
		c-0.53225-0.09576-1.0161-0.14489-1.45152-0.14489c-0.43576,0-1.01645,0.0672-1.74237,0.19981
		c-0.72631,0.13333-1.4526,0.38086-2.1789,0.74435c-0.4972,0.24897-0.96081,0.56515-1.39585,0.93877
		c0.48996,0.08529,0.9608,0.20995,1.22567,0.44048c-0.36967,0.31689-1.08113,0.2262-1.72505,0.02854
		c-0.0271,0.02746-0.05602,0.0524-0.08275,0.08059c-0.59333,0.63017-0.96226,1.44029-1.10751,2.43253
		c-0.04119,0.29088-0.06287,0.57453-0.06505,0.8495c-0.09032,0.2403-0.23703,0.53732-0.44299,0.89289
		c-0.26667,0.46071-0.79892,0.91998-1.5975,1.37924c-0.36314,0.19439-0.66594,0.31544-0.90768,0.3635
		c-0.24211,0.04841-0.45999,0.04841-0.65331,0c-0.06575-0.10696-0.13839-0.2038-0.20994-0.30173
		c-0.26738,0.11707-0.11851,0.65367-0.47697,0.68041c-0.09322-0.50262-0.013-0.83073,0.19585-1.02947
		c-0.05421-0.06107-0.10516-0.12718-0.16224-0.18427c-0.38772-0.36351-0.77544-0.62874-1.16208-0.79857
		c0.04842-0.4112,0.07263-0.76279,0.07263-1.05259c0-0.29087,0-0.52068,0-0.69016c-0.0242-0.2905-0.03613-0.53188-0.03613-0.72593
		c0-0.19331,0-0.37507,0-0.54417c0-0.1702,0.00541-0.34471,0.0177-0.52682c0.00831-0.12215,0.02024-0.26379,0.03361-0.41376
		c-0.10516,0.12177-0.1814,0.27355-0.13659,0.54491c-0.99478-0.34941-1.30046-1.38899-2.26055-1.77309
		c-0.04625-0.37689,0.02927-0.62982,0.19729-0.78881c0.52973,0.29088,1.15232,0.48745,1.27662,1.18302
		c0.37363-0.26704,0.67716-0.28076,1.04681-0.11707c0.01842-0.09503,0.03794-0.1944,0.06034-0.30569
		c0.01807-0.08347,0.03722-0.17416,0.05637-0.26343c-0.69738-0.15789-1.36442-0.43614-1.75251-0.69484
		c0.62006,0.01011,1.23941,0.08743,1.85947,0.19476c0.07154-0.33424,0.14995-0.69487,0.23703-1.08764
		c0.15647-0.71293,0.32015-1.46993,0.48999-2.26886c0.16874-0.79893,0.33206-1.5545,0.49034-2.26888
		c0.15646-0.71363,0.28364-1.33044,0.38085-1.85151c0.09612-0.51995,0.15646-0.86468,0.18103-1.03452
		c0.04842-0.48383-0.04806-0.89504-0.29016-1.23433c-0.24173-0.33822-0.66595-0.53189-1.27083-0.58103
		c-0.29016-0.02385-0.56225-0.07264-0.81662-0.14491c-0.25367-0.07298-0.47807-0.11454-0.67174-0.12755
		c-0.19368-0.01193-0.35701,0.03687-0.48962,0.14563c-0.13333,0.10876-0.22439,0.33279-0.27281,0.67209
		c-0.03613,0.16189-0.09864,0.55323-0.18826,1.17148c0.02349,0.04444,0.04698,0.0896,0.06685,0.13876
		c-0.02963,0.00216-0.05782,0.00034-0.08709,0c-0.02529,0.17706-0.05203,0.36604-0.08202,0.57669
		c-0.1449,1.04102-0.32629,2.31185-0.54453,3.81179c-0.07769,0.53732-0.15575,1.09956-0.23343,1.67228
		c0.17127-0.12141,0.44191-0.21501,0.84878-0.24679c-0.0177,1.34129-0.66162,1.35466-0.9543,1.02476
		c-0.10443,0.79097-0.20922,1.61303-0.31401,2.46975c-0.1008,0.82314-0.19764,1.63795-0.29051,2.44411
		c-0.01192,0.00832-0.0253,0.01482-0.03614,0.0235c-0.26667,0.20595-0.5084,0.69665-0.72665,1.47065
		c-0.07191,0.2663-0.2421,0.62945-0.50769,1.08909c-0.26703,0.46071-0.79892,0.91998-1.59713,1.37924
		c-0.36351,0.19439-0.66667,0.31544-0.90805,0.3635c-0.2421,0.04841-0.45999,0.04841-0.65331,0
		c-0.19368-0.31509-0.41229-0.59259-0.65367-0.83506c-0.38735-0.36351-0.77471-0.62874-1.16171-0.79857
		c0.04878-0.4112,0.07263-0.76279,0.07263-1.05259c0-0.29087,0-0.52068,0-0.69016c-0.02385-0.2905-0.03614-0.53188-0.03614-0.72593
		c0-0.19331,0-0.37507,0-0.54417c0-0.1702,0.00578-0.34471,0.01807-0.52682c0.00289-0.04699,0.00795-0.10046,0.0112-0.15104
		c-0.02638-0.08349-0.01048-0.20959-0.02168-0.30859c0.01987-0.00544,0.03215-0.00326,0.04878-0.00544
		c0.00542-0.05636,0.01012-0.10984,0.0159-0.17054c0-0.16946,0.05456-0.5142,0.16333-1.03488
		c0.10949-0.51997,0.24173-1.13714,0.39928-1.85114c0.15755-0.71293,0.32051-1.46993,0.49034-2.26886
		c0.16911-0.79893,0.33243-1.5545,0.49035-2.26888c0.11671-0.53151,0.2168-1.00848,0.30099-1.43308
		c-0.52358,0.14851-1.04897,0.27644-1.41754-0.23088c-0.38916,0.13261-0.63089,0.83795-1.17905,0.49359
		c-0.03143-0.45856,0.67969-0.172,0.88456-0.39424c0.03432-0.19801-0.0206-0.30894-0.19693-0.29667
		c0.69377-0.25979,1.39983-0.50659,2.12359-0.7364c0.02096-0.12034,0.03722-0.22186,0.04698-0.28836
		c0.04806-0.48383-0.04914-0.89504-0.29015-1.23433c-0.24283-0.33822-0.66632-0.53189-1.27084-0.58103
		c-0.29052-0.02385-0.56297-0.07264-0.81664-0.14491c-0.25402-0.07298-0.4784-0.11454-0.67173-0.12755
		c-0.19368-0.01193-0.35773,0.03687-0.49034,0.14563c-0.13333,0.10876-0.22439,0.33279-0.27209,0.67209
		c-0.04914,0.21717-0.1449,0.84735-0.29052,1.88693c-0.03541,0.25583-0.07335,0.52538-0.1131,0.80831
		c0.0925-0.00143,0.18537-0.00215,0.27715-0.00578c-0.04733,0.31039,0.30172,0.22367,0.19621,0.59116
		c-0.18501-0.0253-0.37037-0.01987-0.55719,0.00216c-0.10335,0.72631-0.21934,1.52956-0.34797,2.41594
		c-0.21753,1.50137-0.43542,3.14005-0.65295,4.92001c-0.0271,0.22151-0.05347,0.4412-0.08022,0.66197
		c-0.2038,0.17816-0.41771,0.37074-0.64536,0.58972c-0.19512,0.19368-0.43614,0.33315-0.72665,0.41734
		c-0.29052,0.08562-0.59911,0.13333-0.92575,0.14563c-0.32666,0.01264-0.64174-0.00578-0.94418-0.05494
		c-0.30245-0.04805-0.53876-0.10912-0.70751-0.18104c-0.26631-0.1214-0.47191-0.24786-0.61753-0.38156
		c-0.1449-0.13298-0.27859-0.25945-0.39928-0.38086c-0.09684-0.24173-0.26631-0.49577-0.50768-0.76279
		c-0.02746-0.03252-0.05998-0.06432-0.09069-0.09647c-0.02168-0.00146-0.04047,0.0007-0.06395-0.00217
		c0.00433-0.01699,0.01011-0.03325,0.01589-0.04951c-0.42313-0.42963-1.07679-0.84011-1.96678-1.23108
		c-0.29052-0.12068-0.6533-0.24788-1.08981-0.38158c-0.43541-0.13261-0.95611-0.1991-1.56098-0.1991
		c-0.99261,0-1.91186,0.16368-2.75885,0.49033c-0.84733,0.32594-1.5852,0.74944-2.21429,1.27048
		c-0.62945,0.52033-1.12522,1.10136-1.48872,1.74239c-0.36279,0.64137-0.54454,1.26505-0.54454,1.87029
		c0,0.62946,0.09684,1.23325,0.29052,1.81392c0.19368,0.58105,0.50841,1.0956,0.94382,1.5433
		c0.43577,0.44843,1.01067,0.81122,1.72468,1.08908c0.71365,0.27859,1.57942,0.41808,2.59587,0.41808
		c0.9189,0,1.77274-0.10913,2.55902-0.32775c0.78664-0.21715,1.48872-0.50153,2.10553-0.85275
		c0.61681-0.3505,1.12558-0.74979,1.52449-1.19713c0.40001-0.44843,0.6721-0.90226,0.81699-1.36263
		c0.67751,0.02493,1.30661-0.0177,1.88764-0.12647c0.58176-0.10876,1.07644-0.22366,1.48837-0.3447
		c0.34219-0.09792,0.65511-0.22296,0.94129-0.37617c-0.05456,0.49179-0.1084,0.97996-0.16043,1.46524
		c-0.08455,0.78953-0.15935,1.54906-0.22512,2.28295c0.2851-0.15646,0.38808,0.34436,0.61536,0.44482
		c-0.02349,0.14128-0.29305,0.03469-0.29522,0.19765c0.14706,0.23342,0.29305,0.21752,0.39278,0.29485
		c0.12936,0.22583-0.22403,0.64824-0.58934,0.69016c0.00541-0.6963,0.15934-1.09847-0.13623-1.49632
		c-0.07047,0.79532-0.13081,1.5574-0.17923,2.28693c-0.0972,1.43922-0.10949,2.57129-0.03686,3.39407
		c0.16875,2.46868,0.62259,4.24179,1.36118,5.31858c0.73821,1.07607,1.86993,1.62747,3.39443,1.65205
		c0.75014,0,1.37346-0.18754,1.86958-0.56296c0.38772-0.29414,0.70787-0.63742,0.96261-1.02695
		c-0.98755,0.69343-3.17185,0.59116-4.09291,0.58503c0.37471-0.51095,1.35756-0.41049,2.06326-0.5908
		c-0.04335-0.60165,0.17958-0.9366,0.29377-1.37997c0.40759-0.01409,0.10262,0.68584,0.19693,0.98502
		c0.52322,0.31004,1.19893,0.09035,1.79623-0.05709c0.24353-0.49756,0.40831-1.02405,0.48672-1.58269
		c0.08419-0.60559,0.07805-1.12557-0.01843-1.56062c-0.04914-0.29125-0.10262-0.64175-0.16332-1.0533
		c-0.06071-0.41158-0.13333-0.87157-0.21825-1.37925c-0.08492-0.50876-0.19368-1.04102-0.32593-1.59713
		c-0.13369-0.55683-0.2851-1.11401-0.4542-1.6701c0.28004-0.05675,0.55321-0.13804,0.82241-0.24066
		c0.19549-0.43614,0.48961-0.88168,0.52936-1.40417c0.19511,0.29088,0.19296,0.71761,0.07913,1.12738
		c0.10443-0.05565,0.20885-0.11021,0.31184-0.17273c0.07515-0.04517,0.14091-0.08996,0.21247-0.13477
		c0.02565-0.05203,0.05528-0.1178,0.08492-0.22728c0.09792-0.01627,0.16224,0.0018,0.20705,0.0383
		c0.1402-0.09503,0.2739-0.19043,0.39856-0.28546c-0.05347,0.628-0.10117,1.24012-0.14056,1.82549
		c-0.09684,1.43922-0.10877,2.57129-0.03686,3.39407c0.16946,2.46868,0.62331,4.24179,1.36117,5.31858
		c0.73858,1.07607,1.86994,1.62747,3.39516,1.65205c0.74978,0,1.37309-0.18754,1.86958-0.56296
		c0.49539-0.37545,0.88311-0.82856,1.16135-1.36118c0.27823-0.53297,0.45998-1.10138,0.54489-1.70627
		c0.08457-0.60559,0.07769-1.12557-0.01842-1.56062c-0.04878-0.29125-0.10298-0.64175-0.16332-1.0533
		c-0.06072-0.41158-0.13371-0.87157-0.21754-1.37925c-0.08565-0.50876-0.19476-1.04102-0.32701-1.59713
		c-0.13334-0.55683-0.28437-1.11401-0.45385-1.6701c0.60489-0.12178,1.18555-0.35123,1.74275-0.69018
		c0.60451-0.36241,1.09522-0.72592,1.46993-1.08871c0.12141-0.11743,0.23017-0.23415,0.33387-0.34977
		c0.07879,0.08202,0.16043,0.16225,0.24681,0.24064c0.59369,0.53299,1.37382,0.94997,2.34184,1.25241
		c0.96769,0.30281,2.15395,0.45349,3.55776,0.45349c1.3796,0,2.63201-0.15718,3.75759-0.47156
		c1.08691-0.30388,2.02351-0.68294,2.81773-1.13424c-0.00397-0.13153,0.07843-0.3104,0.11492-0.34869
		c0.14491-0.00578,0.24823,0.03072,0.33967,0.07913c0.33278-0.21138,0.63705-0.42892,0.91309-0.65404
		c0.19478,0.29487,0.43218,0.56985,0.71474,0.82349c0.59296,0.53299,1.37346,0.94997,2.34148,1.25241
		c0.96805,0.30281,2.15396,0.45349,3.55776,0.45349c1.37924,0,2.63165-0.15718,3.75758-0.47156
		c0.43182-0.12032,0.83255-0.25618,1.21809-0.40035c-0.66379-0.46722-1.23182-1.03056-1.6459-1.67409
		c1.21518,0.03033,2.33894,0.36566,3.28421,0.91959c0.0152-0.00903,0.03253-0.01624,0.04807-0.02528
		C85.28735,72.72733,85.94644,72.21892,86.45521,71.67439L86.45521,71.67439z"/>
	<path class="st0" d="M119.83948,65.50341c-0.40254-0.16659-1.05908,0.32592-1.37455-0.19622
		c0.21899-0.33749,0.9854-0.12717,1.27628-0.39313C120.06496,64.9697,119.88247,65.28589,119.83948,65.50341L119.83948,65.50341z
		 M115.51785,65.60314c-0.2869-0.26305,0.41735-0.36496,0.78519-0.29595C116.36195,65.79538,115.56555,65.48643,115.51785,65.60314
		L115.51785,65.60314z M115.322,54.76292c0.49213,1.02042,1.08439,3.24448,0.19585,4.2378
		C115.41161,57.71978,114.80276,56.02579,115.322,54.76292L115.322,54.76292z M114.83021,74.47226
		c-0.08708-0.07625-0.22113-0.10661-0.3917-0.09903c-0.04479-0.37144,0.19333-0.46215,0.29341-0.68906
		C115.21503,73.63213,115.02534,74.36095,114.83021,74.47226L114.83021,74.47226z M113.75089,73.48724
		c-0.77977,0.05564-0.59225-1.39369,0.1944-1.18302C114.18451,72.74901,113.82606,73.06951,113.75089,73.48724L113.75089,73.48724z
		 M113.02784,71.63824c-0.21788,0.25367-0.54526,0.44735-0.97996,0.58067c-0.43542,0.13261-1.01644,0.07879-1.74237-0.16403
		c-0.89613-0.29017-1.6947-0.60416-2.3957-0.94347c-0.70316-0.33858-1.29578-0.66596-1.77888-0.98067
		c-0.48529-0.314-0.86685-0.58032-1.14401-0.7982c-0.27858-0.21717-0.43036-0.35016-0.45385-0.39929
		c-0.04913-0.04878-0.13295-0.12718-0.25437-0.23631c-0.12105-0.10877-0.19946-0.24139-0.2356-0.39928
		c-0.03576-0.15755,0.01772-0.32665,0.16297-0.50805c0.14526-0.18176,0.47155-0.36856,0.98068-0.56262
		c0.43504-0.1691,0.97994-0.32085,1.63289-0.4542c0.65404-0.1326,1.3554-0.25402,2.10553-0.36279
		c0.74979-0.10876,1.53066-0.19368,2.34187-0.25473c0.7982-0.05926,1.57797-0.08889,2.34148-0.08961
		c-0.0242,0.58104-0.03541,1.13786-0.03541,1.6694c0,0.53223,0,1.00452,0,1.41609c0,0.48383-0.01373,0.93154-0.03721,1.34274
		C113.4152,71.00228,113.24573,71.38351,113.02784,71.63824L113.02784,71.63824z M122.2854,63.778
		c0.04769-0.26594-0.06106-0.50841-0.32737-0.72629c-0.2663-0.21752-0.56875-0.38628-0.90697-0.50806
		c-0.41195-0.14525-0.87156-0.27787-1.3796-0.39891l-1.52486-0.10949c0.073-1.01645,0.12683-1.88149,0.16404-2.59515
		c0.03577-0.71401,0.08998-1.38574,0.16298-2.01555c0.07225-0.62873,0.1691-1.26326,0.29051-1.90536
		c0.1207-0.64137,0.30207-1.39801,0.54419-2.26921c0.04842-0.19332,0.11454-0.36279,0.19946-0.50877
		c0.0849-0.14454,0.1337-0.28294,0.14561-0.41698c0.01193-0.13261-0.01806-0.27209-0.0907-0.417
		c-0.07262-0.1456-0.23053-0.31437-0.47192-0.5084c-0.24282-0.19368-0.51453-0.39278-0.81734-0.59874
		c-0.3028-0.20633-0.60489-0.32737-0.90733-0.36351c-0.3028-0.03649-0.5991,0.04842-0.88926,0.25367
		c-0.0542,0.03793-0.1066,0.08635-0.15827,0.13839c0.0318,0.32919-0.17778,0.57453-0.44878,0.69702
		c-0.05384,0.11672-0.10587,0.24317-0.15573,0.38157c-0.10587,0.29523-0.21644,0.62261-0.33243,0.97852
		c-0.01698,0.50407,0.16765,1.09993-0.15792,1.48258c-0.10116-0.04011-0.18462-0.09938-0.23882-0.18753
		c-0.11671,0.39782-0.23091,0.79928-0.34039,1.2047c0.08926,0.4253,0.12429,0.82602-0.20598,1.05257
		c-0.01263-0.04263-0.02095-0.0831-0.03179-0.12466c-0.03541,0.14094-0.07334,0.27933-0.10803,0.42207
		c-0.21789,0.89539-0.38737,1.7543-0.50806,2.57744c-0.12212,0.82277-0.17019,1.50064-0.14561,2.03254l0.03615,0.68979
		c-0.62947,0.02458-1.28277,0.06108-1.95956,0.10949c-0.67787,0.04842-1.39261,0.10877-2.14202,0.18139
		c-1.66976,0.19404-3.17728,0.44772-4.52073,0.76171c-1.34238,0.31511-2.40147,0.5937-3.17583,0.83578
		c0.07263-1.13784,0.15755-2.22658,0.25437-3.26796c0.09576-1.03994,0.18141-1.9722,0.25368-2.79497
		c0.09647-0.96769,0.1933-1.86344,0.29014-2.6862c0.09685-0.31437,0.12106-0.60525,0.073-0.87157
		c-0.04915-0.24172-0.14453-0.47805-0.29052-0.70785c-0.14489-0.22983-0.38734-0.40508-0.72556-0.52647
		c-0.36353-0.09648-0.65367-0.18719-0.87157-0.27209c-0.21824-0.08491-0.39892-0.15141-0.54417-0.19983
		c-0.14563-0.04842-0.27282-0.06612-0.38194-0.05419c-0.10838,0.01192-0.22366,0.05419-0.34508,0.12645
		c-0.21789,0.12178-0.4777,0.38773-0.77977,0.79892c-0.30352,0.41231-0.53876,1.19822-0.7086,2.35992
		c-0.04879,0.24212-0.10876,0.66632-0.18066,1.27049c-0.07263,0.60561-0.15211,1.30661-0.23669,2.10552
		c-0.08455,0.79892-0.16368,1.63976-0.2356,2.52288c-0.07262,0.88384-0.12177,1.73697-0.14525,2.55903
		c-0.04879,1.13858-0.06144,2.22729-0.03649,3.26723c0.02422,1.04173,0.04878,1.96099,0.07298,2.75956
		c0.02386,0.94418,0.05964,1.81575,0.10876,2.6143c-0.04913,0.19368-0.05528,0.38086-0.0195,0.56188
		c0.03721,0.18176,0.13876,0.38194,0.30678,0.59984c0.16839,0.21752,0.44444,0.43541,0.82819,0.65257
		c0.38374,0.21898,0.74979,0.387,1.0974,0.50804c0.34795,0.12179,0.65908,0.15791,0.93513,0.10986
		c0.27607-0.04915,0.49792-0.19403,0.66632-0.43578c0.16766-0.2421,0.2634-0.61717,0.28834-1.12522
		c0.03543-0.24137,0.05386-0.66558,0.05386-1.27084c0-0.60559,0.01807-1.33081,0.05457-2.17852
		c0.43577,0.48529,0.89503,0.95141,1.3796,1.39838c0.48383,0.44772,0.94308,0.85315,1.37888,1.21556
		c0.43577,0.36314,0.81699,0.6721,1.14399,0.92612c0.32703,0.25401,0.56334,0.42928,0.70787,0.52647
		c0.26595,0.16838,0.68365,0.39892,1.2524,0.68945c0.56841,0.29051,1.19823,0.57452,1.88801,0.85311
		c0.68981,0.27859,1.37274,0.5084,2.05134,0.68945c0.6768,0.18174,1.25784,0.24786,1.74274,0.20019
		c0.45856-0.04879,0.93047-0.15792,1.41537-0.32738c0.23597-0.08239,0.46543-0.19369,0.68692-0.33064
		c-0.05347-0.30063,0.2215-0.27208,0.30389-0.43613c0.06576,0.02782,0.08203,0.09576,0.0712,0.17163
		c0.10116-0.08057,0.20162-0.16514,0.29918-0.25727c0.42313-0.39965,0.78664-0.93225,1.08908-1.59822
		c0.30244-0.66451,0.51418-1.51799,0.63559-2.55901c0.04807-0.55575,0.07265-1.31853,0.07265-2.28657
		c0-0.96803,0.02384-1.99678,0.07227-3.0862c0.33893,0,0.64137-0.00578,0.90804-0.01807
		c0.26595-0.01192,0.49576-0.02999,0.68945-0.0542c0.21789-0.02457,0.39927-0.04842,0.54491-0.07335
		c0.38626-0.16911,0.73821-0.37471,1.05258-0.61646c0.26595-0.19331,0.52611-0.42312,0.78014-0.68944
		C122.08592,64.41975,122.23698,64.11729,122.2854,63.778L122.2854,63.778z"/>
	<path class="st0" d="M159.40413,71.36543c-0.35089,0.04915-0.72052,0.04915-1.10751,0
		c-0.38698-0.04805-0.76208-0.12069-1.12521-0.21751c-0.14598-0.04842-0.27859-0.0907-0.39963-0.12756
		c-0.12106-0.03578-0.24284-0.06577-0.36314-0.09107l0.07368-0.14453c0.26489-0.31435,0.47664-0.76279,0.63525-1.34346
		c0.15645-0.58067,0.29558-1.19784,0.41696-1.85186c0.41122,0.14561,0.82243,0.30352,1.23473,0.47225
		c0.41084,0.16949,0.77977,0.35738,1.1068,0.56297c0.32664,0.20598,0.58067,0.42964,0.76242,0.67175
		c0.18103,0.24208,0.2356,0.52033,0.1637,0.83434v0.03613c-0.073,0.36349-0.23631,0.64211-0.49074,0.8354
		C160.05708,71.19633,159.75464,71.31738,159.40413,71.36543L159.40413,71.36543z M155.98079,64.61633
		c0.1597-0.02637,0.16985,0.09431,0.2952,0.09973C156.3143,64.90612,155.82756,64.85986,155.98079,64.61633L155.98079,64.61633z
		 M155.88252,71.41711c0.15248,0.14381,0.20705,0.3841,0.19655,0.6898C155.70654,72.0809,155.76543,71.69244,155.88252,71.41711
		L155.88252,71.41711z M154.70526,68.65792c-0.03107-0.55502,0.9066-0.14056,1.17726-0.3946
		c0.11382,0.11708,0.11163,0.34907,0.09827,0.59261C155.37299,68.75186,154.89133,69.12403,154.70526,68.65792L154.70526,68.65792z
		 M152.15094,71.81241c0.01698-0.28004,0.17957-0.41119,0.1969-0.69125C152.76955,71.14176,152.46457,71.89733,152.15094,71.81241
		L152.15094,71.81241z M137.5177,69.05215c-0.44876,0.07045-0.87804-0.22984-0.59006-0.59152
		c0.49034,0.39567,0.26559-0.01229,0.78557,0.09792C137.79776,68.87363,137.55927,68.86424,137.5177,69.05215L137.5177,69.05215z
		 M130.07156,70.36741c-0.25403,0.18175-0.52106,0.3205-0.79855,0.41735c-0.27861,0.09684-0.53262,0.15755-0.76244,0.1814
		c-0.23053,0.02419-0.39349,0.03612-0.48961,0.03612c-0.12177,0-0.29739-0.0054-0.52684-0.0177
		c-0.2309-0.01228-0.45999-0.06069-0.6898-0.14597c-0.23054-0.0842-0.43036-0.23524-0.59911-0.45385
		c-0.16984-0.21789-0.25403-0.53191-0.25403-0.94347c0-0.41156,0.10877-0.76206,0.32665-1.05331
		c0.21717-0.29015,0.46577-0.52612,0.744-0.7075c0.2775-0.1814,0.5626-0.32051,0.85384-0.41735
		c0.28944-0.09649,0.50806-0.14526,0.6526-0.14526c0.12068,0,0.22945,0,0.32664,0c0.09648,0,0.21825,0.01302,0.36314,0.03651
		c0.04807,0.19368,0.10298,0.37505,0.1637,0.54453c0.05997,0.16949,0.11453,0.33895,0.16295,0.50769
		c0.14563,0.3635,0.30896,0.65404,0.49034,0.87156c0.1814,0.21825,0.38086,0.38772,0.59947,0.5084l0.03542,0.0365
		C130.52577,69.93742,130.32594,70.18604,130.07156,70.36741L130.07156,70.36741z M128.48204,72.20556
		C128.72449,69.7954,130.27934,72.74829,128.48204,72.20556L128.48204,72.20556L128.48204,72.20556z M125.33945,70.92532
		C125.82365,72.56616,123.63355,71.13056,125.33945,70.92532L125.33945,70.92532L125.33945,70.92532z M160.72917,74.26917
		c0.1449,0,0.43614-0.05382,0.87119-0.1626c0.43616-0.10947,0.89-0.30859,1.36154-0.59873
		c0.47189-0.29125,0.89503-0.70173,1.27046-1.23506c0.37544-0.5319,0.56224-1.23362,0.56224-2.1059l0.03648,0.03721
		c0-0.58103-0.12717-1.1075-0.38081-1.57942c-0.25403-0.47192-0.57491-0.90118-0.96156-1.2889
		c-0.3877-0.38663-0.81155-0.72629-1.27118-1.01682c-0.45966-0.28979-0.90154-0.5449-1.32468-0.76242
		c-0.42384-0.21716-0.79317-0.38626-1.10751-0.50803c-0.31471-0.12068-0.50877-0.20525-0.58102-0.25367
		c-0.26703-0.14597-0.45387-0.32086-0.56261-0.52683c-0.10878-0.20451-0.18753-0.38084-0.23561-0.52611
		c-0.02492-0.07264-0.06686-0.17597-0.12753-0.30896c-0.06035-0.13296-0.15718-0.27209-0.29053-0.41769
		c-0.13297-0.14455-0.28983-0.26523-0.47191-0.36243c-0.18106-0.09684-0.40508-0.14563-0.67101-0.14563
		c-0.26706,0-0.50299,0.07878-0.70859,0.23669c-0.20561,0.15681-0.39314,0.33857-0.56226,0.54417
		c-0.16946,0.2056-0.2963,0.41663-0.38121,0.63559c-0.08456,0.21719-0.12718,0.39893-0.12718,0.5442
		c0,0.19367,0.00577,0.45999,0.0177,0.79783c0.01189,0.34003,0.15103,0.67897,0.41808,1.01754
		c-0.07263,0.31438-0.14563,0.56225-0.21791,0.74364c-0.07227,0.18176-0.15102,0.36314-0.23593,0.5449
		c-0.08493,0.18139-0.18791,0.38734-0.30859,0.6168c-0.1214,0.23055-0.26669,0.53913-0.43578,0.92685
		c-0.08817,0.19151-0.15971,0.37543-0.2244,0.5543c-0.09756,0.17308-0.23451,0.35736-0.41051,0.55212
		c-0.2298,0.25438-0.58716,0.48998-1.07063,0.7075c-0.79892,0.36353-1.39806,0.44266-1.79695,0.23669
		c-0.39963-0.20525-0.73244-0.5019-0.99803-0.88926c-0.12215-0.19403-0.1944-0.47227-0.21823-0.83542
		c-0.02422-0.36314-0.02422-0.74435,0-1.14364c0.02383-0.39964,0.06577-0.79171,0.12682-1.17979
		c0.05998-0.38663,0.11455-0.70135,0.16371-0.94382c0.07262-0.48455-0.06036-0.90842-0.39966-1.27084
		c-0.33966-0.36279-0.66631-0.58067-0.98032-0.65293c-0.29053-0.07265-0.63559-0.07265-1.03416,0
		c-0.39964,0.07226-0.67209,0.16946-0.81735,0.29015c-0.0719,0.07264-0.14453,0.22403-0.21753,0.45311
		c-0.07298,0.23091-0.13332,0.49686-0.18178,0.79966c-0.04839,0.30207-0.09065,0.60453-0.1268,0.90659
		c-0.03648,0.30353-0.0672,0.53912-0.0907,0.70823c-0.12177,1.01718-0.43542,1.83996-0.9442,2.46906
		c-0.50729,0.62909-1.0652,0.95683-1.66974,0.98031c-0.2905,0-0.55142-0.05999-0.78087-0.18175
		c-0.2298-0.12068-0.41734-0.27209-0.56226-0.45385c-0.14561-0.18176-0.26051-0.36314-0.34433-0.54454
		c-0.08636-0.18175-0.12756-0.34471-0.12756-0.48961c0-0.31401,0.0412-0.68982,0.12756-1.12595
		c0.08382-0.43577,0.1868-1.10065,0.30786-1.9964c0.04803-0.43613,0.00615-0.76821-0.1272-0.99873
		c-0.13261-0.22982-0.29668-0.39244-0.49033-0.49036c-0.19333-0.09575-0.38087-0.15031-0.56227-0.16296
		c-0.1814-0.01192-0.30858-0.01807-0.38121-0.01807c-0.14453-0.02348-0.35086-0.02348-0.61679,0
		c-0.26668,0.02458-0.56912,0.13334-0.90807,0.32703c-0.16946,0.12103-0.30823,0.37542-0.41808,0.76242
		c-0.1084,0.38734-0.19366,0.84084-0.2533,1.36081c-0.00723,0.0589-0.01085,0.12106-0.0177,0.18066
		c-0.16586,0.12902-0.35881,0.22657-0.58139,0.29125c-0.29016,0.08562-0.59911,0.13333-0.92613,0.14563
		c-0.32629,0.01264-0.64101-0.00578-0.94347-0.05494c-0.30315-0.04805-0.53839-0.10912-0.70714-0.18104
		c-0.26775-0.1214-0.47334-0.24786-0.61826-0.38156c-0.14561-0.13298-0.27823-0.25945-0.39891-0.38086
		c-0.09685-0.24173-0.26668-0.49577-0.50877-0.76279c-0.41191-0.48311-1.1133-0.94347-2.10518-1.37923
		c-0.29086-0.12068-0.65402-0.24788-1.08907-0.38158c-0.43541-0.13261-0.95648-0.1991-1.56099-0.1991
		c-0.99261,0-1.91186,0.16368-2.7592,0.49033c-0.84698,0.32594-1.58521,0.74944-2.21502,1.27048
		c-0.62982,0.52033-1.12449,1.10136-1.48801,1.74239c-0.36279,0.64137-0.5449,1.26505-0.5449,1.87029
		c0,0.62946,0.09684,1.23325,0.29052,1.81392c0.19368,0.58105,0.50877,1.0956,0.9442,1.5433
		c0.43576,0.44843,1.01102,0.81122,1.72466,1.08908c0.71329,0.27859,1.57906,0.41808,2.59515,0.41808
		c0.91927,0,1.77275-0.10913,2.55939-0.32775c0.7859-0.21715,1.48907-0.50153,2.1059-0.85275
		c0.61717-0.3505,1.12521-0.74979,1.52487-1.19713c0.39963-0.44843,0.67134-0.90226,0.81625-1.36263
		c0.67824,0.02493,1.30733-0.0177,1.88835-0.12647c0.58032-0.10876,1.07645-0.22366,1.48911-0.3447
		c0.12646-0.03615,0.24535-0.0806,0.3653-0.12395c-0.00179,0.12936-0.00288,0.25584-0.00288,0.37761
		c0,0.46035,0.09612,0.93262,0.29053,1.41611c0.19333,0.48347,0.46541,0.92539,0.8159,1.32503
		c0.35121,0.39928,0.77507,0.72086,1.27156,0.96262c0.49539,0.241,1.05801,0.36279,1.68782,0.36279
		c0.62907,0,1.20436-0.10876,1.72395-0.32738c0.52032-0.21752,0.96262-0.4589,1.32541-0.72557
		c0.43576-0.31436,0.82242-0.67788,1.16173-1.0898c0.31398,0.38808,0.69014,0.71436,1.12483,0.98103
		c0.36351,0.26595,0.81772,0.49612,1.36189,0.68945c0.54527,0.19404,1.1675,0.29015,1.86993,0.29015
		c0.96768,0,1.80817-0.16332,2.5229-0.48998c0.56982-0.26088,1.05617-0.55428,1.46413-0.87733
		c0.04515,0.04626,0.09325,0.09179,0.1507,0.13334c0.60487,0.50876,1.2282,0.87734,1.86993,1.1068
		c0.64102,0.23052,1.2282,0.38228,1.76117,0.4542c0.53154,0.07262,0.99768,0.09648,1.39767,0.07262
		C160.31143,74.28181,160.58391,74.26917,160.72917,74.26917L160.72917,74.26917z"/>
	<path class="st0" d="M169.76884,67.97101c0.26558-0.32667,0.64066-0.54996,1.1252-0.6721
		c0.55647-0.14453,0.97997-0.19332,1.27049-0.14453c0.29015,0.04913,0.48418,0.18138,0.58067,0.39855
		c0.12103,0.21897,0.09647,0.44915-0.07263,0.69053c-0.16949,0.24245-0.48421,0.45998-0.94347,0.65329
		c-0.46034,0.19333-0.90227,0.28511-1.32544,0.2721c-0.42348-0.01192-0.80467-0.04192-1.14288-0.0907
		C169.33307,68.66694,169.50215,68.29766,169.76884,67.97101L169.76884,67.97101z M170.12294,67.17966
		c0.24609,0.15826-0.00253,0.64428-0.39133,0.49287C169.74246,67.38853,170.15005,67.5009,170.12294,67.17966L170.12294,67.17966z
		 M181.49506,67.98943c-0.53333-0.12103-0.91455-0.06647-1.14436,0.16332c-0.22981,0.22982-0.47769,0.69595-0.74364,1.39767
		c-0.04953,0.14562-0.24211,0.387-0.58142,0.7263c-0.33891,0.33858-0.80432,0.67101-1.39728,0.99803
		c-0.59369,0.32737-1.32539,0.61102-2.19658,0.85349c-0.87088,0.24208-1.86417,0.36277-2.9771,0.36277
		c-0.50769,0-0.96188-0.09106-1.36119-0.27209c-0.39926-0.18139-0.73209-0.40505-0.998-0.67173
		c0.55573,0,1.25746-0.09647,2.10481-0.29052c0.58102-0.12032,1.13748-0.30894,1.67047-0.5626
		c0.53188-0.25439,1.0045-0.56839,1.41611-0.94418c0.41083-0.37508,0.73857-0.79856,0.97993-1.27048
		c0.24101-0.47227,0.36351-0.98646,0.36351-1.54292c0-0.55683-0.1579-1.01682-0.47226-1.37997
		c-0.31436-0.36241-0.7079-0.6533-1.18016-0.87047c-0.47189-0.21824-0.97382-0.37507-1.50681-0.47299
		c-0.53221-0.09576-1.01642-0.14489-1.45111-0.14489c-0.43652,0-1.01718,0.0672-1.74277,0.19981
		c-0.72664,0.13333-1.45221,0.38086-2.17815,0.74435c-0.72668,0.36315-1.38611,0.85963-1.97908,1.48838
		c-0.59332,0.63017-0.96152,1.44029-1.10712,2.43253c-0.0412,0.28619-0.05566,0.56261-0.06001,0.83398
		c0.05602-0.10516,0.17056-0.15176,0.35883-0.1243c0.04263,0.29486-0.07913,0.42384-0.35808,0.3953
		c0.0148,0.4318,0.07332,0.84518,0.18645,1.23652c0.20486,0.714,0.60452,1.33694,1.19853,1.86956
		c0.5919,0.53299,1.37276,0.94997,2.34081,1.25241c0.96729,0.30281,2.15359,0.45349,3.55775,0.45349
		c1.37924,0,2.632-0.15718,3.75723-0.47156c1.12628-0.31401,2.09361-0.70822,2.90408-1.18013
		c0.46939-0.27282,0.88168-0.55937,1.24953-0.85711c-0.18866-0.26884,0.01877-0.73496,0.58282-0.62763
		c0.00616,0.02493,0.01518,0.0531,0.02242,0.08129c0.04047-0.04082,0.08563-0.07985,0.12357-0.12068
		c0.12503-0.13442,0.24031-0.2656,0.34583-0.39423c-0.06903-0.01772-0.1236-0.06828-0.09866-0.159
		c0.02673-0.09503,0.17525-0.08816,0.25186-0.04155c0.24353-0.31979,0.43289-0.62512,0.55392-0.91273
		c0.19368-0.5319,0.2363-1.01573,0.12791-1.45151C181.94781,68.27959,181.76028,68.03786,181.49506,67.98943L181.49506,67.98943z"/>
</g>
</svg>
