<svg id="Layer_5" data-name="Layer 5" xmlns="http://www.w3.org/2000/svg" viewBox="0 0 224.7186 151.4073"><defs><style>.cls-1{fill:#a97c50;}.cls-2{fill:#603913;}</style></defs><title>koffee-logo-color</title><path class="cls-1" d="M119.76,142.9434c-0.03-1.1879-2.5507-.9145-3.121-0.39C116.3308,144.3761,119.7127,144.74,119.76,142.9434Z"/><path class="cls-1" d="M119.76,51.5211c0.0308,1.1885,2.55.915,3.1207,0.39C123.0393,50.2379,119.8328,49.6988,119.76,51.5211Z"/><path class="cls-1" d="M129.5135,121.0958c0.1328,1.27,3.2011.895,3.9013,0.39C133.4969,119.7848,129.6292,119.2071,129.5135,121.0958Z"/><path class="cls-1" d="M134.9754,123.8267c0.0825-1.2773-1.83-1.5405-1.5606,0h1.5606Z"/><path class="cls-1" d="M82.6971,134.36c0.392-1.3022-.5415-1.28-1.5606-1.17C81.0193,134.2174,81.677,134.47,82.6971,134.36Z"/><path class="cls-1" d="M121.9392,136.3819c1.5,0.1992,4.6407,1.627,6.7881,2.3111,1.7632,0.562,3.4551.6933,5.0884,1.7026,0.54-1.1948-.0454-2.5-0.4507-3.74a5.77,5.77,0,0,1-1.5107-3.856,0.6,0.6,0,0,0,.39-0.78c0.1895-.0312.3843-0.0542,0.5781-0.0786a1.1266,1.1266,0,0,1,.5088-0.9092,3.19,3.19,0,0,0-.3647-0.6069c-0.2515.1909-.04,0.8491-0.2422,1.0937-0.89-.9965-1.4883-3.041-0.4834-4.2563a1.4213,1.4213,0,0,1,.2422,1.0942c0.124-.0791.1245-0.28,0.3623-0.2426-0.1108.68,0.4985,0.6352,0.3643,1.3369,0.3383,0.0547-.0938-0.6626.2426-0.6079,0.9785,0.3144.669,1.9218,1.0913,2.7973a1.0322,1.0322,0,0,0,.7261.1216l0.0127,0.0259c3.74-.0449,8.0357.5679,12.1773,0.2319-0.9561-3.6225-8.1207-4.3442-12.0943-6.2422a75.5814,75.5814,0,0,1-13.2646-6.2422c-1.7251-.0952-2.8418-0.7993-4.6817-0.78-3.6875.1255-6.3061,3.2588-10.1435,1.9507,0.042-1.9092,3.2285-2.3135,2.3408-3.9014a25.4672,25.4672,0,0,0-7.8027.78c-1.3755,1.3554-2.0577,3.4043-3.1211,5.0717-3.0674.4434-3.8682,3.1534-6.2422,4.2915-4.065,1.5269-10.5708.6123-11.7041,5.0718,4.3447,1.4219,12.3813-3.4551,15.2153,1.17-1.3223,4.399-6.957,4.4864-9.3633,7.8028a6.8362,6.8362,0,0,1-.54,2.2505,4.1914,4.1914,0,0,0-.6133-0.1626L85.1,142.83c-0.2827,0-.4771.2695-0.7578,0.2578-0.1782-.0073-0.0938-0.4165-0.2661-0.4321a1.6863,1.6863,0,0,1-.646-0.0318l-0.19-.0752a3.0885,3.0885,0,0,1-.5337-0.8774c-0.6284-.96-0.6621-2.4317-1.7524-2.7832a6.8821,6.8821,0,0,0-1.0366.145,4.4609,4.4609,0,0,1-1.2686-.3906c-0.4258-.2168-0.7046-0.5576-1.125-0.773a1.2323,1.2323,0,0,0-1.2158-.2593,1.4169,1.4169,0,0,0,.0269.7862,0.53,0.53,0,0,1-.4927.1367,0.7454,0.7454,0,0,1-.5527.0112c-0.254-.1767-0.0176-0.6211-0.2149-0.8594-0.1558-.1992-0.4629.1744-0.7134,0.1607-0.3178-.02-0.021-0.6006-0.0761-0.918a7.5032,7.5032,0,0,0-.125-0.8159c-0.2222-.7148-0.9849-1.6216-1.6739-1.3174a1.6553,1.6553,0,0,0-.2573.6685c-0.2.2612-.8721-0.1094-0.8154-0.4326,0.0547-.3.5083-0.3584,0.582-0.6582a1.7446,1.7446,0,0,0-.688-1.5909,3.8557,3.8557,0,0,0-1.2724-.9443c-0.5122-.1958-1.0455,0-1.5689-0.1689a1.0956,1.0956,0,0,1-.8725-0.5669c-0.0528-.21.2734-0.3658,0.2226-0.5811-0.1167-.4639-0.2578-1.1753-0.7446-1.1684a3.1436,3.1436,0,0,0-.5459.5542,2.0555,2.0555,0,0,1-.4956-0.4126,1.6339,1.6339,0,0,1-.83-0.1045,12.3781,12.3781,0,0,1-1.3872-1.7632,2.4129,2.4129,0,0,0-.55-0.5508,2.0081,2.0081,0,0,1-.6182-0.127,4.23,4.23,0,0,1-.5263-1.4155,6.0386,6.0386,0,0,0-.7618-0.8584,6.1923,6.1923,0,0,0-.2333-1.0835l-0.5084-.0991c-0.226-.3511.0425-0.8325-0.1909-1.1787a2.0762,2.0762,0,0,0-.5757-0.2173c-0.3667-.2842.1343-0.8945-0.0244-1.3359A0.9643,0.9643,0,0,0,59,120.4254c0.2241,0.4238-.7622.6025-1.1685,0.5132a0.7938,0.7938,0,0,1-.1211-0.6079c0.7-.1011.6411,0.5268,1.0249-0.023a1.6693,1.6693,0,0,1-.4272-0.6328,0.4076,0.4076,0,0,1-.3555.0483,0.3545,0.3545,0,0,1,.1489-0.3354,1.1053,1.1053,0,0,1-.3471-0.3247,4.6929,4.6929,0,0,0-.3853-1.2588,2.6929,2.6929,0,0,0-.8506-0.3316c-0.434-.291.2119-0.97,0.1524-1.499a2.6325,2.6325,0,0,0-.6143-0.6777c-0.2158-.3633-0.3071-0.7422-0.5547-1.0986a3.7821,3.7821,0,0,1-.9658-1.1548l0.1465-.38a3.5886,3.5886,0,0,1,0-1.106,0.3117,0.3117,0,0,1,.0244-0.0815,8.85,8.85,0,0,1-3.4394.6719H51.23l-0.0083-.0005a6.323,6.323,0,0,0,.4521,1.2119c1.44,2.8149,2.7486,5.1719,4.3443,7.8935a36.4288,36.4288,0,0,0,5.3129,7.3887c1.0909,1.1284,1.7227,2.397,2.9473,3.3677a5.29,5.29,0,0,1,.8159.4331c0.1763,0.19.2539,0.4072,0.4165,0.6,0.293,0.3594.4751,0.7305,0.7818,1.0855,1.3008,1.4531,2.164,2.9941,3.747,4.1215,2.3975,1.7154,4.48,3.6416,7.4019,4.01a9.7543,9.7543,0,0,1,1.6484-.0142c0.5308,0.1621.4917,0.919,0.7661,1.4014a1.83,1.83,0,0,0,.2925.3945,0.4054,0.4054,0,0,1,.2246.125,0.3328,0.3328,0,0,1-.0385.0425c0.8134,0.6436,2.1035.6607,3.1079,1.1787a2.46,2.46,0,0,1,.6035.1319c0.4219,0.3974.2207,1.2128,0.7256,1.4985,0.7114,0.4058,1.5249-.8364,2.2886-0.54a2.3819,2.3819,0,0,1,.479.7431c0.018,0.0176.0371,0.0327,0.0561,0.05a4.05,4.05,0,0,0,.17-1.0371,1.6983,1.6983,0,0,1,.06,1.2432,11.1324,11.1324,0,0,0,2.3359,1.4316c0.1983,0.1045.4453-.08,0.64,0.0332a7.206,7.206,0,0,1,.9174,1.021,2.6989,2.6989,0,0,0,2.1778.314c0.4116-.0674.7768,0.0737,1.1938,0.0141,0.3247-.0429.5572-0.2666,0.8926-0.3071a4.9472,4.9472,0,0,1,1.3418.1909,8.0427,8.0427,0,0,0,1.8213.3863c0.2773-.02.48-0.2276,0.7588-0.2564,0.09-.0058.1758-0.0078,0.2612-0.0073,0.0254,0.0268.0513,0.0532,0.0767,0.0806a4.18,4.18,0,0,0,2.7417-.8008c-1.8008-5.35,3.67-8.9439,4.4819-12.81a0.6617,0.6617,0,0,1,.59-0.0644c3.4165-.4556,7.4336-0.6465,10.4375.3335A7.7864,7.7864,0,0,1,121.9392,136.3819Zm12.7237-7.2959c-0.0142.4326,0.0893,0.981-.3614,0.9732C134.3382,129.65,134.1394,129.0045,134.6629,129.086Zm-1.4531-1.9453a3.0568,3.0568,0,0,1,.2426.9732c-0.6045.08-.4721-0.5787-0.728-0.8516C132.763,127.0973,133.0286,127.1612,133.21,127.1407ZM81.4637,144.5289v-0.3638c0.3374-.3476,1.3984.08,1.5752-0.1216C83.18,144.6026,82.1,144.7931,81.4637,144.5289Zm3.3935-.6074c-0.3271-.0845-0.2348.2519-0.3638,0.3642-0.2138-.0278-0.2753-0.2085-0.2431-0.4858,1.1894-.09,2.9424.0146,3.3935,0.4858C87.1629,144.1627,85.4012,144.6183,84.8572,143.9215Zm11.1489-.2437c0.3413-.4145-0.3911-0.186-0.6064-0.1211a1,1,0,0,1,.9707-0.3647C96.4036,143.51,96.325,143.714,96.0062,143.6778Zm0.6045-8.876c-0.2768-.248-0.0424-1.01-0.12-1.46C96.9612,133.3726,96.7249,134.5694,96.6106,134.8018Zm0.4864,4.9859a1.4437,1.4437,0,0,1,0-1.2163A0.8985,0.8985,0,0,1,97.097,139.7877Zm7.1494-11.7954c0.6313-.605,1.8271-0.1963,1.2119.6069C105.1267,127.7657,104.3636,129.2115,104.2464,127.9923Zm0.8491,7.0527c-0.2578-.4394.63-0.42,1.3315-0.4868C106.3445,135.1109,105.2078,134.8785,105.0955,135.045Zm1.5747-.4868a1.3142,1.3142,0,0,1,1.334-.2432C107.91,134.7232,106.8494,134.62,106.67,134.5582Zm0.3638-3.1621c0.5088,0.0991.8149,0.3979,1.332,0.4873C108.4085,133.3141,106.3432,132.5616,107.034,131.3961Zm1.4531-1.3369a1.1027,1.1027,0,0,1,.1216-1.0948,5.5668,5.5668,0,0,0,1.4551,0C109.9939,130.0348,109.3553,129.9615,108.4872,130.0592Zm9.9385,1.8242c0.4067-.2949-0.2925.4072,0,0h0Z"/><path class="cls-1" d="M175.4388,97.544a10.062,10.062,0,0,1-1.7315-.1494,21.6649,21.6649,0,0,1-.7412,5.1343c-1.375,4.8618-1.7832,9.4487-4.501,13.6978-1.5625,2.4287-2.6357,4.6875-4.3037,7.05-0.3213.4482-.6426,0.812-0.9424,1.2812a44.7332,44.7332,0,0,1-6.5908,8.13,10.4553,10.4553,0,0,1-1.4106,1.6528c-0.2857.1905-.6778-0.0254-0.9478,0.1812l-0.3032.2153,0.291,0.1118-0.2876.4409a13.22,13.22,0,0,1-2.4976,1.8926,93.1714,93.1714,0,0,1-10.1586,6.4263,16.213,16.213,0,0,1-2.8272-3.396c-0.3423-.25-0.7021-0.4824-1.0688-0.7085,0.0273,0.4526.04,0.9111,0.0341,1.3779,0.0376,0.4956-.2529.065-0.4853,0.1216-0.0039.9356,1.4023,0.4575,1.6958,1.0938-0.6416.7519-1.5586-.51-2.18,0.1206a0.7985,0.7985,0,0,0-.1211-0.4854c-0.6475.0391-.4717,0.9048-0.8476,1.2163-0.1036-2.0019-3.4756-3.0063-5.6978-3.4048-2.8677-.5161-6.8535-2.53-9.33-2.0664-0.1968.0366-.4,0.084-0.6089,0.1358,2.1377,1.1294,3.43,3.1308,3.0039,6.5005-1.2739,2.1069-4.8872,1.8745-4.2915,5.852,0.2315,0.4146-.6826,1.3838,2.7334,1.4414,0.7564-.2148,1.501-0.4785,2.3047-0.7363a3.7076,3.7076,0,0,0,1.1421-.398c1.0933-.0141,2.4663-0.15,2.8994-0.07a8.4733,8.4733,0,0,0,3.09.044c1.351-.2383,2.0542-1.5249,3.331-2.0391,1.2261-.4922,2.9834.23,3.667-0.916a0.9726,0.9726,0,0,0,.1333-0.4243,1.2509,1.2509,0,0,1,.3906-0.0591,4.6959,4.6959,0,0,0,2.023-.4214,12.9485,12.9485,0,0,0,2.2383-.6655c0.4414-.2612.36-0.9727,0.8081-1.232a0.9722,0.9722,0,0,1,.4731.1856c0.334,0.03.36-.5337,0.6216-0.7505a13.6582,13.6582,0,0,1,1.2671-.7134c1.1933-.7763,1.8677-1.9873,3.1758-2.5112a20.52,20.52,0,0,0,6.8261-4.833c0.8731-.8672,2.3887-1.082,2.6465-2.2837a1.7738,1.7738,0,0,1-.1372-0.4932c0.1162-.19.4624,0.1631,0.646,0.0323a1.4733,1.4733,0,0,0,.6987-0.3809,3.9591,3.9591,0,0,1-.1289-0.5,1.1771,1.1771,0,0,1,.9043-0.0825c1.2969-.2241,1.3994-2.0318,2.1138-3.1494a7.4172,7.4172,0,0,1,.8071-0.6743c0.5489-.6392.7661-1.3716,1.25-2.0542,0.2027-.2916.4986-0.4346,0.72-0.71,0.7309-.9458.8789-2.0733,1.6167-3.0117,0.4433-.5733,1.0835-0.8218,1.5322-1.3941a3.5784,3.5784,0,0,0,.8862-1.4214,2.6491,2.6491,0,0,1-.145-0.4882c0.1523-.293.5156-0.3462,0.689-0.6177l0.0195-.3242a6.2652,6.2652,0,0,0,1.1484-2.0909,6.1049,6.1049,0,0,0,.3921-0.7231,5.73,5.73,0,0,1,.02-0.8862l0.209-.2471c0.2612-.6807.9287-1.0557,1.1294-1.7686a11.0053,11.0053,0,0,1-.06-1.2358c0.1845-.4761,1.0459-0.1587,1.3188-0.5825a2.4065,2.4065,0,0,0-.07-0.9248,2.4447,2.4447,0,0,1,.5425-0.5508,2.1108,2.1108,0,0,0-.2867-0.667c0.02-.31.6709-0.1816,0.7452-0.4888,0.0771-.4013.0107-0.7573,0.123-1.16,0.1138-.4243.4663-0.6856,0.544-1.1118,0.0307-.1807-0.1763-0.3179-0.1343-0.5015a8.532,8.532,0,0,0,.47-0.916,6.2035,6.2035,0,0,0-.0952-1.1387,14.4873,14.4873,0,0,1,.4976-2.6728,6.7844,6.7844,0,0,0,.0957-1.1412,1.3567,1.3567,0,0,1-.4341-0.09,0.6,0.6,0,0,1,.44-0.2441c0.0015-.1548.0049-0.3111,0.0107-0.4727a10.2907,10.2907,0,0,1,.1338-1.2158A10.84,10.84,0,0,1,175.4388,97.544Z"/><path class="cls-1" d="M99.2942,2.1075A1.2044,1.2044,0,0,0,100.5193.9342a0.8844,0.8844,0,0,0-.0034-0.5528,1.28,1.28,0,0,0-1.7-.1147A1.23,1.23,0,0,0,99.2942,2.1075Z"/><path class="cls-1" d="M99.0223,11.7262c1.1088-.5332,1.7124-2.6182.8017-3.4405a3.2427,3.2427,0,0,0-.5718-0.2241,2.5114,2.5114,0,0,0-3.103.6675A2.9782,2.9782,0,0,0,95.21,10.565C95.2562,11.9679,97.7625,12.3331,99.0223,11.7262Z"/><path class="cls-1" d="M61.9656,53.878a1.3069,1.3069,0,0,0,.5635-0.2314,0.3941,0.3941,0,0,0,.1367-0.2071c-0.0767-.0366-0.1538-0.0732-0.229-0.1108C62.282,53.4806,62.1355,53.7057,61.9656,53.878Z"/><path class="cls-1" d="M51.69,64.0059a7.39,7.39,0,0,1,2.5489.6514c0.0229-.0327.04-0.0683,0.0654-0.1a4.159,4.159,0,0,1,1.626-.8,1.8716,1.8716,0,0,0,1.084-1.0649c-0.01,0-.02-0.0005-0.03,0a1.8654,1.8654,0,0,0-.1216-0.729,0.4017,0.4017,0,0,1,.1089-0.0733,1.02,1.02,0,0,1,.01-0.2549c0.0845-.4619.3848-0.7905,0.49-1.249a8.1354,8.1354,0,0,0-.212-1.4092c0.0176-.3593.5826-0.3315,0.8687-0.5434a4.119,4.119,0,0,0,1.0522-1.5708,2.8093,2.8093,0,0,0,.418-0.5049,5.738,5.738,0,0,1,.2632-1.2178,2.5192,2.5192,0,0,1,.9263-0.9638A1.3492,1.3492,0,0,1,61.2182,54c-0.1016-.6128.3535-0.6655,0.37-1.1582-1.3072-1.6826-3.3242.0517-4.8277-.48-1.0566,1.6841-2.0444,3.3447-3.0127,5.2359-0.3178.6215-.6206,1.2241-0.9116,1.8212a1.3053,1.3053,0,0,1,.5127-0.1313A1.0944,1.0944,0,0,1,52.09,61.0123c-0.41.918-.7866,1.8452-1.1206,2.8242,0.2027,0.0444.4087,0.0933,0.6206,0.1538A0.591,0.591,0,0,0,51.69,64.0059ZM56.62,56.3683c0.0225-1.2906,1.4175.1108,0,0h0Zm-1.09.2431v0.3662a0.2942,0.2942,0,0,1-.3633-0.3662H55.53Zm-0.4844,4.0132a1.5883,1.5883,0,0,1,1.4536,1.8242C55.6561,62.2393,54.4828,61.484,55.0458,60.6246ZM52.1366,62.57c0.18,0.144.541,0.1055,0.4839,0.4863H52.1366V62.57Z"/><path class="cls-1" d="M61.71,52.72a3.2286,3.2286,0,0,0,.9184.0444,1.5079,1.5079,0,0,1-.0283-0.417c0.07-.5439.7588-0.6865,1.0962-1.1123a2.586,2.586,0,0,0,.374-0.9633c0.2578-.9034.0991-1.9312,0.7871-2.5669a6.8792,6.8792,0,0,1,1.21-.2993c0.4546-.2618.4843-0.89,0.9082-1.19,0.6206-.4312,1.4433-0.05,2.1176-0.3818a15.0732,15.0732,0,0,0,3.6885-3.0835,7.1823,7.1823,0,0,1-2.4682.85c0.2114-.7564,1.708-1.5367,2.9091-1.337a1.8554,1.8554,0,0,1-.1923.2515,40.2611,40.2611,0,0,1,6.7841-4.7373c2.5293-1.5176,4.66-3.08,7.5083-3.7915,1.7969-.4477,3.1211-1.5352,4.918-1.9414,1.0747-.2256,1.9346-0.6475,3-0.9229,0.2441-.0668.4707-0.0893,0.707-0.1318a0.7541,0.7541,0,0,1,.53-0.1167c0.6553-.1474,1.2422-0.29,1.9033-0.5015A28.0726,28.0726,0,0,1,109.65,28.7169c3.1968,0.2627,6.1548-.4536,9.1289.7163,0.0166,0.0068.0312,0.0151,0.0464,0.0225a2.2372,2.2372,0,0,1,.3266-0.5684,1.639,1.639,0,0,1,.313,1.0273,0.7442,0.7442,0,0,0,.1914.08,2.788,2.788,0,0,0,.854-0.2192,6.7715,6.7715,0,0,1,1.794.1484c2.49,0.4487,4.7744.5029,7.019,1.6558a3.2653,3.2653,0,0,0,.687.4927l0.3951-.1753a44.5212,44.5212,0,0,1,8.8579,3.3632c2.5307,1.3077,5.0092,2.0386,7.0844,3.9956,0.8374,0.7925,1.6914,1.3047,2.5948,2.0191a12.7813,12.7813,0,0,0,1.16.6714,31.7945,31.7945,0,0,1,2.4888,2.3071l0.3833,0.1475a6.7943,6.7943,0,0,1,1.1826.9077c0.6738,0.8257,1.3911,1.4194,2.0689,2.2485,1.0678,1.3032,2.1543,2.3955,3.1367,3.6353a0.3834,0.3834,0,0,1,.1445-0.0523,0.4188,0.4188,0,0,1,.2339.5449,15.0418,15.0418,0,0,1,.9058,1.3584c0.5493,0.9493,1.3032,1.5635,1.8589,2.5025,1.8608,3.167,3.9555,5.645,5.1821,9.1079,1.4433,4.0884,3.3325,7.4238,4.3159,11.6025,0.0508-.0058.1016-0.0141,0.1519-0.0185,0.3056-.0274.5849-0.041,0.853-0.041,0.2309,0,.4507.01,0.6636,0.03,0.1264,0.0054.2744,0.0137,0.4575,0.0259a6.3046,6.3046,0,0,1,1.5615.32,4.7963,4.7963,0,0,1-.6323-1.4028c-0.06-.335.0884-0.63,0.0532-0.9741a8.7715,8.7715,0,0,1-.0825-0.916c0-.419.07-0.7754,0.0366-1.1983-0.0366-.4414-0.2856-0.7773-0.29-1.2217a7.8783,7.8783,0,0,1,.4927-0.6923c0.0122-.2237.0264-0.4214,0.0337-0.646,0.0073-.49-0.5825-0.7163-0.74-1.1753a2.6549,2.6549,0,0,1,.3862-0.729c0.0249-.2774-0.0669-0.5137-0.0171-0.7784a2.0682,2.0682,0,0,0,.1709-0.7094,9.2207,9.2207,0,0,0-1.0893-1.9751,7.9213,7.9213,0,0,0-.688-1.5908c-0.3536-.5293-0.4693-1.0889-0.7784-1.6343-0.2172-.378-0.6586-0.5015-0.86-0.8867-0.1973-.3912.4453-0.69,0.6431-1.08a7.1222,7.1222,0,0,0,.2753-1.5493,5.881,5.881,0,0,0,.4166-0.4976,1.9316,1.9316,0,0,0,.2827-0.438c-0.0166-.2134-0.3828.1411-0.5826,0.0938l-0.1718-.3941a3.0355,3.0355,0,0,1-.7036-0.1655c-0.59-.2368-1.4141-0.0957-1.7056-0.6709-0.3389-.6987.9316-1.1226,1.2622-1.8247a1.3161,1.3161,0,0,0-.438-1.3862c-0.4888-.4761-1.2812-0.2735-1.8071-0.7095a0.8278,0.8278,0,0,1-.1885-0.6338,1.0894,1.0894,0,0,1,.04-0.644l0.39-.1714-0.2417-.208a7.6371,7.6371,0,0,0-.7446-0.625,3.5117,3.5117,0,0,1-.1329-1.0479,5.1286,5.1286,0,0,0-1.12-1.7256,0.2316,0.2316,0,0,1-.0185.0323c-1.8706-.4122-3.1636-0.6524-4-2.0679,0.1987-.4712.3174-0.7935-0.1216-1.0947a3.51,3.51,0,0,0,.4853-1.2149,1.8734,1.8734,0,0,0,.3872.2691c-0.2343-.2388-0.4716-0.48-0.7133-0.73-0.9146-.9463-1.3658-2.0616-2.3545-2.9195-0.1118-.0967-0.2227-0.1977-0.3335-0.2993a3.0652,3.0652,0,0,1-1.8325,1.8555,1.8536,1.8536,0,0,1,.3642.8506,1.9162,1.9162,0,0,1-1.5766-.6084c-1.0093.5268-.9639,2.1137-2.0606,2.5537a3.6481,3.6481,0,0,1,.2422-3.6485c-0.2227-.1381-0.9634.1524-0.9683-0.4853-0.1157-.4414.522-0.1231,0.6045-0.3648-0.0005-.3129-0.0141-0.6425-0.0263-0.976a2.6343,2.6343,0,0,0-.5625-0.5083,10.7581,10.7581,0,0,0-1.7212-.3531c-1.0113-.2841-1.1382-1.6294-1.9453-2.3037-0.76-.6406-2.0669-0.9321-2.09-1.9326-0.0122-.5156.5972-0.7554,0.812-1.2231,0.4375-.9761-0.8769-1.8907-1.77-2.4624a54.1378,54.1378,0,0,0-7.7822-4.1587c-2.58-1.1543-5.04-1.4683-7.7183-2.3687a48.3956,48.3956,0,0,0-7.2265-1.9609,36.7555,36.7555,0,0,1-3.979-.4536c-3.3247-.9322-6.3975-0.5913-9.856-0.5542-2.7637.03-5.479-.6533-7.8618,0.7837a2.8042,2.8042,0,0,1-.9429.73l-0.1162-.27a1.6373,1.6373,0,0,1-.27-0.9809l0.1484-.3868a7.8813,7.8813,0,0,0-1.5268-3.917c-1.336-1.9326-3.5689-2.6528-5.8213-3.2744a1.9525,1.9525,0,0,1-1.2-.5854,4.6008,4.6008,0,0,1-1.1226-2.9834,2.46,2.46,0,0,1,.2808-0.9922c0.3091-.6279.8345-1.0254,1.0854-1.6733a3.0981,3.0981,0,0,0-.2651-1.5411,4.1073,4.1073,0,0,0-.042-1.0073,2.04,2.04,0,0,0-.7588-0.8579A1.6512,1.6512,0,0,0,92.4876,1.87a3.7255,3.7255,0,0,0-1.5459.0562,14.238,14.238,0,0,1-6.707-.2061,6.4564,6.4564,0,0,0-3.001-.1889A34.3858,34.3858,0,0,0,73.886,3.5216a4.3092,4.3092,0,0,0-1.84,1.5312c0.4-.0488.1221,0.5845,0.2075,0.8511C71.8412,6,71.8265,5.4786,71.9363,5.1915A7.5989,7.5989,0,0,1,70.4139,6.796,5.5344,5.5344,0,0,0,68.0559,9.73a5.793,5.793,0,0,1-.9272,2.08,6.158,6.158,0,0,0-1.5781,2.354c-0.1924.8525,0.5561,1.6084,1.2309,2.145,0.96,0.7524.9707,2.062,1.645,3.0747,0.7374,1.1084,2.4537.395,3.7837,0.3818a3.1937,3.1937,0,0,1,.7842-0.0327c1.0606,0.3091,1.4014,1.5166,2.0015,2.45,0.4873,0.77,1.6787.7149,2.5591,0.4483,1.6494-.4922,3.0488-0.9991,4.6709-1.5879a9.7954,9.7954,0,0,0,1.5337-.8335,4.7093,4.7093,0,0,1,1.9257-.459c0.6709-.0669,1.3453-0.4819,1.9117-0.1338,0.3989,0.2466.0708,0.8662,0.0268,1.332a1.6867,1.6867,0,0,0,.7852,1.6382c0.561,0.2949,1.188,0,1.7983.1607a0.8055,0.8055,0,0,1,.5366.3125c0.1841,0.3266-.3584.6337-0.6655,0.8525a11.9317,11.9317,0,0,1-1.74,1.0806c-0.8.3828-1.8238-.14-2.482,0.4565a6.2717,6.2717,0,0,0-.1679.7119c-0.5645.6807-1.7471-.7915-2.503-0.3183-0.247.1552,0.0323,0.5776-.1093,0.8442-0.1583.2891-.6-0.1411-0.9283-0.1411a2.7893,2.7893,0,0,0-1.97,1.0957c-0.3559.37-.6665,0.6919-1.0552,1.0259-0.18.1445-.4008,0.1709-0.5717,0.3276-0.295.2969-.4668,0.6357-0.7842,0.9024-0.9068.7592-1.7593,1.2993-2.67,2.0493-1.419,1.188-2.6353,2.1992-4.063,3.38-1.3115,1.085-2.0938,2.3951-3.3594,3.5371a31.7286,31.7286,0,0,0-5.03,4.9864c-1.21,1.7182-2.3711,3.1518-3.51,4.8247a0.5277,0.5277,0,0,1-.0894.5185,0.1877,0.1877,0,0,0-.2432.1221,0.4414,0.4414,0,0,1-.0717-0.0322c-0.0567.0874-.1138,0.1709-0.17,0.2593-0.1031.1606-.2032,0.3164-0.3052,0.4746,0.1728,0.34.0644,0.9262-.4946,0.7705q-0.4791.747-.938,1.476C57.8372,51.18,61.7527,50.025,61.71,52.72ZM170.657,64.5167c-0.0508-.0513.0791,0.0786,0,0h0Zm-4.9682-6.0806a1.2847,1.2847,0,0,1,1.09.2432,1.3644,1.3644,0,0,1-1.09,0C165.7625,58.57,165.8343,58.4625,165.6888,58.4361Zm-0.7276-.2436c0.0513,0.0293.0884,0.0488,0.1133,0.0644-0.0527-.03-0.14-0.0791-0.2192-0.123C164.886,58.1515,164.92,58.17,164.9612,58.1925Zm-4.12-7.9038c0.2344-.0479.1758,0.5551-0.1216,0.3652A0.9357,0.9357,0,0,1,160.8412,50.2887Zm-0.3643,1.0947c0.3013-.4751.1758,0.4028,0,0h0Zm-8.4824-13.0127c1.0293-.9287,1.67.7886,2.4234,0.4878a2.485,2.485,0,0,1,.1206,1.2163C153.52,39.9532,151.5867,40.2628,151.9944,38.3707Zm-3.03-7.66h0.2427v0.2432h-0.2427V30.711Zm-0.6064,7.5381c0.5,0.1924.3052,0.8047,0.1211,1.2163C147.7967,39.4137,147.9656,38.4727,148.3582,38.2491Zm-1.6963-7.0517c0.3706,0.3032-.208.6748-0.6055,0.6079C145.9,31.2433,146.532,31.4713,146.6619,31.1974Zm-22.42-2.919a1.3711,1.3711,0,0,1,1.2119,1.5816C124.8632,30,124.1077,28.8551,124.242,28.2784Zm-19.39-1.9448a1.1919,1.1919,0,0,0-.9682.1211,8.1723,8.1723,0,0,0-.1216-1.9448A1.1686,1.1686,0,0,1,104.8518,26.3336Zm-3.9985-10.58c0.1548,0.7637-.8984.8252-1.2119,0.7295A1.05,1.05,0,0,1,100.8533,15.754Zm-1.6958.4863H99.52c-0.0083.357-.043,0.6865-0.4844,0.6084A0.7916,0.7916,0,0,1,99.1575,16.24Zm-3.9907,4.2134a0.4076,0.4076,0,0,1-.0093.043l-0.0024.0058A0.3022,0.3022,0,0,0,95.1668,20.4537Zm-2.07-2.146h0.4848v0.73C93.0672,19.1485,93.0642,18.7462,93.097,18.3077ZM73.7083,8.9449V9.796C71.5125,10.4488,71.9,7.42,73.7083,8.9449Zm-0.1216,4.0122c-0.2436-1.0141.0278-1.8066,0.9692-1.9453,0.2007,0.3032-.1391.9854,0.1211,1.459C74.2278,12.546,74.2229,13.07,73.5867,12.9571Zm1.2119-2.9184c-1.539-.7217-0.4394-1.292.3633-2.31C75.86,8.1817,75.264,9.6373,74.7986,10.0387Zm5.4527-.1211C79.91,9.9347,79.9022,9.6192,79.888,9.31,80.2674,9.2535,80.2762,9.57,80.2513,9.9176Zm1.6962,0.2431c-0.4838.11-.8281-0.77-0.9692-0.9731C81.5774,8.4913,82.5306,9.0035,81.9475,10.1607Zm4.4844-.851c0.5562,0.08-.0976.7358,0,0h0Zm2.666,22.0092c0.3892-.2465.38,0.4805,0.4849,0.1216,0.4355,0.3467-.4106.8706-0.7271,0.4868C88.908,31.6954,89.2019,31.7071,89.0979,31.3189Zm-9.09,4.7422a0.2951,0.2951,0,0,1,.3647-0.3642A0.2951,0.2951,0,0,1,80.0082,36.0611Zm7.2729-6.5659V29.86c-0.875-.1539-1.227.6333-2.3037,0.3642A6.37,6.37,0,0,1,87.281,29.4952Zm0.3628,3.04c-1.8232.4776-6.3784,0.2676-6.4228-2.0673C83.158,32.2833,86.511,30.7447,87.6438,32.5352ZM80.615,29.13c0.1074,0.0747.2168,0.1469,0.2432,0,0.102-.023.1138,0.0473,0.12,0.1211v0.2436H80.615V29.13Zm-0.1211.7295c0.6592,0.2255.2212,1.2,0.2427,1.8242,0.0366,0.164.3037,0.1006,0.4844,0.1211a2,2,0,0,0,.1216.8515,1.0733,1.0733,0,0,1-1.4546.1221A13.8814,13.8814,0,0,1,80.4939,29.86Zm-1.5761,6.2011c0.4863,0.0249.4682,0.5518,0.3647,0.8511A0.4716,0.4716,0,0,1,78.9178,36.0611Zm-0.8487.6079c0.0249-.3637.5044,0.1177,0,0h0Zm-3.9975-.6079c0.3681,0.01.2837,0.7949,0.12,0.9732C73.92,36.9444,74.1438,36.3526,74.0716,36.0611ZM73.95,33.9937a0.7348,0.7348,0,0,1,.1216.9732C73.7972,34.8761,74.0237,34.2852,73.95,33.9937Zm0.1216,4.0132c0.5019,0.7051-.1011,2.7007-0.97,3.4053C73.3108,40.0377,73.989,39.2066,74.0716,38.0069ZM72.011,39.9532c-0.1948.2222-.7153,0.3486-0.7275-0.1216A0.6521,0.6521,0,0,1,72.011,39.9532Zm-1.9385,3.77a3.9479,3.9479,0,0,1-1.6972.9732C68.4662,43.8936,69.2586,43.7984,70.0725,43.7227Zm-2.1811-.3657c0.3135-.0351.4209,0.8233-0.1216,0.6084A2.1334,2.1334,0,0,1,67.8914,43.357ZM65.83,45.4244c-0.6612-2.2915,2.0849-.5171,0,0h0Zm-1.4546-1.459a0.7819,0.7819,0,0,1,.4858.1211,2.2257,2.2257,0,0,1-.1216.6094C64.305,44.7657,64.3709,44.3351,64.3758,43.9654Zm0,2.7959c0.2632-.02.0551,0.4317,0.1211,0.6094a3.1061,3.1061,0,0,0-.6055-0.3648C63.9026,46.5514,64.365,46.9967,64.3758,46.7613Zm-2.9092,3.648c-0.02.1045,0.0478,0.1157,0.1216,0.123a0.5134,0.5134,0,0,1-.6045.3643C61.1643,50.7545,61.1253,50.3927,61.4666,50.4093Zm-1.21-1.58c0.2007,0.2422-.0117.1543,0,0.4868A0.26,0.26,0,1,1,60.2562,48.8292Z"/><path class="cls-2" d="M17.6268,92.4142q2.4639,1.4772,5.0176,3.1352a1.3379,1.3379,0,0,0,.6714.3589,1.4977,1.4977,0,0,0,.7612-0.023,1.962,1.962,0,0,0,.941-0.6943,1.7544,1.7544,0,0,0,.65-1.479A5.922,5.922,0,0,0,24.7948,92.1a13.3176,13.3176,0,0,0-2.6885-2.5532q-1.9716-1.5213-4.5693-3.27-0.7617-.4915-1.7246-1.0977-0.9639-.6042-1.9707-1.2314t-2.0381-1.2315q-1.0312-.6057-1.9263-1.1426,3.3948-2.176,6.0161-3.9843c-0.0659-.0171-0.1035-0.0914-0.1127-0.3052a0.4062,0.4062,0,0,1,.5644-0.0073c1.3433-.9336,2.5391-1.7964,3.5664-2.58q3.6725-2.7987,4.9722-4.0093a5.0565,5.0565,0,0,0,1.6352-2.419,3.0319,3.0319,0,0,0-.6045-2.3745H25.869a1.7876,1.7876,0,0,0-.6728-0.6674c-0.5064.3051-.7647,0.2124-0.857-0.002a3.1059,3.1059,0,0,0-.5083.2217,13.8663,13.8663,0,0,0-1.9262,1.3667q-1.1872.9631-3.1582,2.4858-1.3879,1.0745-3.1353,2.3076-1.7468,1.2312-3.5166,2.441T8.69,76.3092q-1.6355,1.0546-2.8447,1.8149,0.0894-1.6568.269-3.539,0.178-1.8816.3584-3.4493,0.178-1.8369.3584-3.6738a1.0581,1.0581,0,0,0-.1128-0.3359,1.3614,1.3614,0,0,0-.38-0.47,2.0178,2.0178,0,0,0-.7163-0.3584,2.3647,2.3647,0,0,0-1.1206,0,7.7566,7.7566,0,0,0-2.2168.9638A2.4592,2.4592,0,0,0,1.1869,69.03q-0.0454.2688-.1343,1.1416-0.09.8752-.2016,2.0615C0.79,72.87.726,73.5572,0.6561,74.29c0.1241-.41.8038-0.2627,1.188-0.41a0.84,0.84,0,0,1-1.1963.4956c-0.0141.1509-.0283,0.3-0.0434,0.4556Q0.47,76.2428.3583,77.5641T0.1566,80.0494Q0.0658,81.2153.0223,81.9312q-0.0447,1.0752,0,2.6656t0.1118,3.1357q0.0681,1.5462.1347,2.7324T0.38,91.8766c0.03,0.1494.0678,0.3515,0.1123,0.604a2.4906,2.4906,0,0,0,.3139.8066,3.1193,3.1193,0,0,0,.6939.8062,2.7283,2.7283,0,0,0,.7143.4155c0.0513-.2393.3653,0.0478,0.1431,0.0605,0.1245,0.0464.2559,0.0894,0.397,0.1289a2.7174,2.7174,0,0,0,2.396-.0674,1.6059,1.6059,0,0,0,.5156-1.7246,8.2466,8.2466,0,0,1-.0674-0.9409q-0.0227-.6723-0.0224-1.59T5.599,88.3375q0.022-1.12.023-2.2847a11.285,11.285,0,0,1,1.6123.4478A13.0092,13.0092,0,0,1,9.25,87.442q1.7015,0.94,3.9868,2.3061Q15.5209,91.1156,17.6268,92.4142Zm5.0655-2.1465c-0.0005.0083-.003,0.0175-0.0034,0.0278-0.022.105-.0362,0.1782-0.0469,0.23C22.6581,90.4454,22.68,90.3346,22.6923,90.2677Zm-0.3677,1.9731c0.0234-.3638.5039,0.1167,0,0h0Zm0,0.3657c0.0039-.0278.0063-0.05,0.01-0.0673-0.0035.0239-.0078,0.0522-0.0118,0.0825Zm-0.3633.8506a0.181,0.181,0,0,1,.0034-0.0215c-0.0034.0225-.0068,0.0464-0.01,0.0728A0.4941,0.4941,0,0,1,21.9613,93.4571Zm-2.7876-3.2832a5.4687,5.4687,0,0,0,.2422.9727c-1.1255-.1573-1.4028.5385-2.1811,0.73C16.9911,90.9,18.06,90.192,19.1736,90.1739ZM14.932,87.985c0.4824-.0367.6568,0.2343,0.6055,0.7294C14.9818,88.8263,14.9061,88.4581,14.932,87.985Zm8.4829-17.7535c0.3369,0.1734.7339,0.2852,0.4854,0.73A0.4564,0.4564,0,0,1,23.4149,70.2315ZM2.2083,80.6886c0.0137-.31.4053-0.24,0.7256-0.2422C3.05,80.8853,2.4574,80.6148,2.2083,80.6886Zm1.8174-9.9707a0.78,0.78,0,0,1,.1211-0.4864c0.3642-.123.2148,0.271,0.2426,0.4864H4.0258Zm0.3637,9.7285c0.024-.3643.5035,0.1162,0,0h0Zm0.3623,0.4853c0.1524-1.4721,1.6416.0215,0,0h0ZM8.8725,77.65a1.1014,1.1014,0,0,1,1.2124.2432c-0.4048.4853,0.1748,0.6977-.2427,1.0932A2.4643,2.4643,0,0,1,8.8725,77.65Zm1.0913,4.7417c0.4067,0.0376.3388,0.5517,0.3642,0.9726C9.4955,83.57,9.6981,82.6725,9.9637,82.3917Z"/><path class="cls-2" d="M106.68,89.8829a6.63,6.63,0,0,0,1.2988-1.86,3.0386,3.0386,0,0,0,.1572-1.791,1.0209,1.0209,0,0,0-.6943-0.896,1.4639,1.4639,0,0,0-1.4111.2017,5.239,5.239,0,0,0-.9185,1.7246,3.1591,3.1591,0,0,1-.7163.896A7.7417,7.7417,0,0,1,102.67,89.39a12.6818,12.6818,0,0,1-2.71,1.0528,13.7483,13.7483,0,0,1-3.6738.4477,4.0207,4.0207,0,0,1-1.6792-.3359,4.1156,4.1156,0,0,1-1.2314-.8286,12.0915,12.0915,0,0,0,2.5976-.3584,9.0758,9.0758,0,0,0,2.0606-.6944,7.1468,7.1468,0,0,0,1.7466-1.165,5.52,5.52,0,0,0,1.21-1.5679,4.1189,4.1189,0,0,0,.4473-1.9033,2.511,2.511,0,0,0-.5826-1.7031A4.2583,4.2583,0,0,0,99.4,81.26a7.74,7.74,0,0,0-1.8594-.5835,10.2036,10.2036,0,0,0-1.7915-.1788,12.66,12.66,0,0,0-2.15.2466,10.0721,10.0721,0,0,0-2.6875.9185A8.67,8.67,0,0,0,88.4705,83.5a5.376,5.376,0,0,0-1.3662,3.001,7.9843,7.9843,0,0,0-.08.9868,5.522,5.522,0,0,1-.5923.6709A7.707,7.707,0,0,1,84.7078,89.39c-0.0454.0249-.0977,0.0474-0.144,0.0728a1.8992,1.8992,0,0,1,.0512.7109,0.6227,0.6227,0,0,1-.2436-0.6138,13.3991,13.3991,0,0,1-2.374.8829,13.7393,13.7393,0,0,1-3.6729.4477,4.0228,4.0228,0,0,1-1.68-.3359,4.1156,4.1156,0,0,1-1.2314-.8286,12.08,12.08,0,0,0,2.5971-.3584,9.0772,9.0772,0,0,0,2.0616-.6944,7.1444,7.1444,0,0,0,1.7465-1.165,5.5526,5.5526,0,0,0,1.09-1.3594c-0.8706-1.3071-1.7251-2.6323-2.6577-3.88,1.3266,0.3721,2.16,2.2691,2.6606,3.8755,0.0386-.0678.0806-0.1338,0.1162-0.2036a4.12,4.12,0,0,0,.4483-1.9033,2.511,2.511,0,0,0-.5826-1.7031A4.2583,4.2583,0,0,0,81.4383,81.26a7.7519,7.7519,0,0,0-1.86-.5835,10.2028,10.2028,0,0,0-1.791-.1788,12.65,12.65,0,0,0-2.15.2466,10.0634,10.0634,0,0,0-2.688.9185,8.445,8.445,0,0,0-1.7226,1.1582,3.3063,3.3063,0,0,1,1.5122.5434,2.4491,2.4491,0,0,1-2.1285.0352c-0.0336.0342-.0688,0.0649-0.102,0.1a5.3832,5.3832,0,0,0-1.3667,3.001,8.0666,8.0666,0,0,0-.0806,1.0488,7.6809,7.6809,0,0,1-.5464,1.1016,5.2392,5.2392,0,0,1-1.9712,1.7021,4.3077,4.3077,0,0,1-1.12.4483,1.8369,1.8369,0,0,1-.8061,0c-0.0811-.1319-0.1709-0.2515-0.2588-0.3726-0.33.1445-.1465,0.8066-0.5884,0.84a1.3255,1.3255,0,0,1,.2417-1.2705c-0.0674-.0756-0.13-0.1567-0.2007-0.2275a5.1607,5.1607,0,0,0-1.4336-.9854,11.4029,11.4029,0,0,0,.0894-1.2988V86.6349c-0.03-.3584-0.0444-0.6563-0.0444-0.8956V85.0675c0-.2095.0068-0.4253,0.0219-0.65,0.01-.15.0249-0.3252,0.0415-0.51a0.7425,0.7425,0,0,0-.1689.6724c-1.2271-.4312-1.6045-1.7144-2.7891-2.188a1.0836,1.0836,0,0,1,.2432-0.9732c0.6538,0.3589,1.4219.6011,1.5757,1.46a1.1649,1.1649,0,0,1,1.2915-.1445c0.0224-.1172.0469-0.2393,0.0747-0.377,0.022-.103.0459-0.2148,0.0693-0.3252a7.0163,7.0163,0,0,1-2.1626-.8574,14.9248,14.9248,0,0,1,2.2945.24c0.0883-.4122.185-0.8575,0.2924-1.3418q0.29-1.32.6045-2.8,0.3127-1.4789.605-2.8,0.29-1.32.47-2.2846,0.1781-.9624.2237-1.2764a2.1627,2.1627,0,0,0-.3584-1.5229,2.0114,2.0114,0,0,0-1.5679-.7168,5.2715,5.2715,0,0,1-1.0078-.1792,4.0367,4.0367,0,0,0-.8286-0.1573,0.8366,0.8366,0,0,0-.6045.18,1.3024,1.3024,0,0,0-.3365.8291c-0.0444.2-.122,0.6826-0.2324,1.4458a1.7328,1.7328,0,0,1,.0825.1709c-0.0366.003-.0712,0.0005-0.1074,0-0.0312.2188-.0644,0.4517-0.1011,0.7119Q59.78,73.6,59.3758,76.3766c-0.0962.663-.1924,1.3564-0.2881,2.0634a2.0864,2.0864,0,0,1,1.0469-.3047c-0.0215,1.6553-.8164,1.6714-1.1773,1.2647q-0.1933,1.4641-.3877,3.0474-0.1867,1.5241-.3584,3.0156c-0.0146.0107-.0312,0.0185-0.0444,0.0293a3.6372,3.6372,0,0,0-.8965,1.8149,6.1955,6.1955,0,0,1-.627,1.3438,5.241,5.241,0,0,1-1.9707,1.7021,4.3213,4.3213,0,0,1-1.12.4483,1.8369,1.8369,0,0,1-.8061,0,5.6576,5.6576,0,0,0-.8067-1.0308,5.1535,5.1535,0,0,0-1.4336-.9854,11.3025,11.3025,0,0,0,.09-1.2988V86.6349c-0.03-.3584-0.0445-0.6563-0.0445-0.8956V85.0675c0-.2095.0069-0.4253,0.022-0.65,0.0034-.0576.01-0.1241,0.0142-0.1861a2.3992,2.3992,0,0,1-.0269-0.3808,0.3105,0.3105,0,0,1,.06-0.0069c0.0068-.07.0122-0.1352,0.02-0.21a8.0015,8.0015,0,0,1,.2017-1.2769q0.2021-.9624.4927-2.2841,0.2914-1.32.6049-2.8t0.605-2.8q0.2162-.9835.3716-1.768a1.4171,1.4171,0,0,1-1.749-.2852c-0.48.1636-.7788,1.0342-1.4551,0.6094-0.0391-.5659.8389-0.2124,1.0913-0.4868,0.0425-.2442-0.0254-0.3809-0.2427-0.3657,0.856-.3208,1.7271-0.6255,2.62-0.9087,0.0259-.1485.0464-0.274,0.0581-0.356a2.17,2.17,0,0,0-.3583-1.5229,2.013,2.013,0,0,0-1.5679-.7168,5.2645,5.2645,0,0,1-1.0078-.1792,4.0428,4.0428,0,0,0-.8286-0.1573,0.8379,0.8379,0,0,0-.605.18,1.3,1.3,0,0,0-.336.8291q-0.0907.4021-.3584,2.3286-0.0659.4733-.14,0.9976c0.1142-.002.229-0.0029,0.3423-0.0073-0.0586.3828,0.372,0.2759,0.2417,0.73a2.7,2.7,0,0,0-.6875.0024c-0.1275.896-.2705,1.8877-0.4292,2.9815q-0.4029,2.7788-.8057,6.0708c-0.0337.2734-.0659,0.5444-0.0991,0.8168-0.2515.22-.5151,0.4576-0.7964,0.7276a2.0551,2.0551,0,0,1-.8965.5151,4.6235,4.6235,0,0,1-1.1421.18,5.8828,5.8828,0,0,1-1.165-.0679,3.8225,3.8225,0,0,1-.8731-0.2231,2.93,2.93,0,0,1-.7622-0.4707c-0.1787-.1641-0.3437-0.3208-0.4926-0.47a3.2486,3.2486,0,0,0-.6265-0.9409c-0.0342-.0406-0.0742-0.08-0.1118-0.12-0.0269-.0014-0.05.001-0.0791-0.0024a0.6214,0.6214,0,0,1,.02-0.061,7.85,7.85,0,0,0-2.4272-1.5191q-0.5376-.2233-1.3448-0.4707a6.6579,6.6579,0,0,0-1.9262-.2461,9.3835,9.3835,0,0,0-3.4039.605A9.7074,9.7074,0,0,0,27.84,82.2677a7.7526,7.7526,0,0,0-1.8369,2.15,4.68,4.68,0,0,0-.6719,2.3076A7.0206,7.0206,0,0,0,25.69,88.964a4.9382,4.9382,0,0,0,1.1646,1.9043,5.8974,5.8974,0,0,0,2.1279,1.3437,8.8254,8.8254,0,0,0,3.2031.5156,11.7643,11.7643,0,0,0,3.1578-.4038,11.3352,11.3352,0,0,0,2.5981-1.0527,7.3608,7.3608,0,0,0,1.8813-1.4771A4.6571,4.6571,0,0,0,40.83,88.1129a10.5432,10.5432,0,0,0,2.3291-.1563c0.7177-.1342,1.3286-0.2758,1.8369-0.4253a5.92,5.92,0,0,0,1.1616-.4643q-0.1018.91-.1982,1.8081-0.1568,1.4611-.2779,2.8174c0.3516-.1934.479,0.4243,0.7593,0.5483a1.76,1.76,0,0,0-.3643.2442,1.0115,1.0115,0,0,0,.4849.3637,0.788,0.788,0,0,1-.7275.8516c0.0068-.8594.1967-1.3555-0.168-1.8467q-0.13,1.4723-.2212,2.8223a28.5663,28.5663,0,0,0-.0454,4.188q0.312,4.5695,1.68,6.5629a4.8348,4.8348,0,0,0,4.1885,2.0386,3.7182,3.7182,0,0,0,2.3071-.6948,5.0593,5.0593,0,0,0,1.1875-1.2671c-1.2183.8555-3.9136,0.729-5.05,0.7217,0.4624-.63,1.6753-0.5064,2.5459-0.729a4.4131,4.4131,0,0,1,.3623-1.7027c0.5034-.0175.127,0.8462,0.2432,1.2154a3.0244,3.0244,0,0,0,2.2163-.07,6.46,6.46,0,0,0,.6006-1.9527,5.49,5.49,0,0,0-.023-1.9262q-0.09-.5391-0.2012-1.2994t-0.269-1.7021q-0.1575-.9418-0.4028-1.9707-0.2469-1.0312-.56-2.061a6.3364,6.3364,0,0,0,1.0146-.2969,5.2968,5.2968,0,0,0,.6534-1.7324,1.728,1.728,0,0,1,.0976,1.3911c0.1289-.0689.2578-0.1358,0.3848-0.2134,0.0928-.0557.1738-0.1108,0.2622-0.1665a1.4233,1.4233,0,0,0,.105-0.28,0.3032,0.3032,0,0,1,.2554.0474c0.1728-.1172.3378-0.2349,0.4916-0.3521-0.0659.7749-.125,1.53-0.1733,2.2525a28.6943,28.6943,0,0,0-.0454,4.188q0.3135,4.5695,1.68,6.5629a4.8357,4.8357,0,0,0,4.189,2.0386,3.7194,3.7194,0,0,0,2.3071-.6948,4.9965,4.9965,0,0,0,1.4331-1.68,6.4582,6.4582,0,0,0,.6723-2.105,5.4878,5.4878,0,0,0-.0229-1.9262q-0.09-.5391-0.2012-1.2994-0.1128-.7617-0.2685-1.7021-0.159-.9418-0.4038-1.9707-0.2462-1.0312-.56-2.061a6.6194,6.6194,0,0,0,2.15-.8516,10.01,10.01,0,0,0,1.814-1.3433c0.15-.145.2841-0.2885,0.4121-0.4316,0.0971,0.1011.1977,0.2,0.3047,0.2969a7.69,7.69,0,0,0,2.89,1.5454,14.8678,14.8678,0,0,0,4.39.5595,17.2259,17.2259,0,0,0,4.6363-.5815,15.4486,15.4486,0,0,0,3.477-1.3994,0.8192,0.8192,0,0,1,.1416-0.4307,0.773,0.773,0,0,1,.419.0977,11.6372,11.6372,0,0,0,1.1269-.8071,5.2363,5.2363,0,0,0,.8823,1.0161,7.6812,7.6812,0,0,0,2.8892,1.5454,14.8687,14.8687,0,0,0,4.39.5595,17.2321,17.2321,0,0,0,4.6367-.5815c0.5327-.1484,1.0273-0.3164,1.5029-0.4941a7.5886,7.5886,0,0,1-2.0308-2.066A8.4219,8.4219,0,0,1,104.18,91.795c0.0185-.0107.04-0.02,0.0591-0.0312A10.61,10.61,0,0,0,106.68,89.8829Zm-8.1284-7.1255a0.9994,0.9994,0,0,1-.6055,1.8223A1.7593,1.7593,0,0,1,98.5512,82.7574ZM64.6184,70.5963c0.2657,0.018.26,0.3061,0.2432,0.6069A0.3542,0.3542,0,0,1,64.6184,70.5963ZM27.8993,86.526c-0.42-.2686-1.124-0.2515-1.333-0.73,0.5049,0.13,1.0864-.7144,1.5752-0.2432A1.0751,1.0751,0,0,1,27.8993,86.526Zm5.5742-4.1343c0.38,0.0835.1582,0.3242,0.1216,0.6079C33.286,82.9869,33.3085,82.5465,33.4735,82.3917Zm-1.2119,0c0.419-.04.4439,0.6348,0.2432,0.8511C32.1185,83.1358,32.0936,82.755,32.2616,82.3917Zm-2.3032.9726c0.2593-.0571.2324,0.1734,0.2432,0.3643A0.3354,0.3354,0,0,1,29.9584,83.3643Zm4.5786,5.4209a4.2169,4.2169,0,0,1-.9409.2242q-0.4263.0447-.6045,0.0444c-0.15,0-.3662-0.0068-0.6494-0.022a2.8576,2.8576,0,0,1-.8511-0.18,1.6432,1.6432,0,0,1-.7393-0.56,1.8635,1.8635,0,0,1-.3139-1.1646,2.107,2.107,0,0,1,.4033-1.2993,3.6127,3.6127,0,0,1,.9185-0.873,4.5709,4.5709,0,0,1,1.0527-.5152,2.8563,2.8563,0,0,1,.8057-0.1792h0.4038a2.9,2.9,0,0,1,.4482.045,6.9434,6.9434,0,0,0,.2012.6718c0.0747,0.209.1416,0.4185,0.2016,0.6265a3.982,3.982,0,0,0,.605,1.0757,2.6162,2.6162,0,0,0,.7388.6274l0.0449,0.0449a2.2653,2.2653,0,0,1-.7392.918A3.86,3.86,0,0,1,34.537,88.7852Zm0.8755,0.0518c0.0268-.3789.6035-0.2056,0.97-0.2441a10.0589,10.0589,0,0,1,.7266,1.3388C36.1264,89.9835,36.2186,88.96,35.4125,88.837Zm1.333-5.959V82.3917h0.3633C37.1439,82.7091,37.0653,82.9156,36.7455,82.878Zm1.6973,5.5928a0.7736,0.7736,0,0,1,1.09.6089C39.0277,89.296,38.2118,88.9278,38.4427,88.4708Zm10.5429-11.794c-0.0864-.331.5713,0.087,0.4844-0.2441,0.2842,0.0317.07,0.5342,0,.6079C49.0814,77.1471,49.22,76.7257,48.9857,76.6768Zm0.7266,27.1167H49.2284a0.3707,0.3707,0,0,1,.4839-0.4873v0.4873Zm2.2954-1.6367a9.38,9.38,0,0,1-.2021,1.5459,1.44,1.44,0,0,1-.313.6939,0.7275,0.7275,0,0,1-.4937.1562,0.7658,0.7658,0,0,1-.5371-0.5371,6.4267,6.4267,0,0,1-.47-1.4116,15.7739,15.7739,0,0,1-.3135-1.97,16.078,16.078,0,0,1-.0674-2.2617q0.044-.8981.1568-2.1734t0.2461-2.6655a18.8708,18.8708,0,0,1,1.5009,2.6206,6.6628,6.6628,0,0,1,.6045,3.248h0.0445Q52.0733,101.148,52.0077,102.1568Zm7.0371-9.4287c0.207-.0264.313,0.207,0.3633,0a0.6277,0.6277,0,0,1-.3633.9722A0.7045,0.7045,0,0,1,59.0447,92.7281Zm4.3613,13.6187c-0.6264-.83-2.3115-0.5982-2.4223-1.9458-0.854-.1221-1.336.4892-1.939,0.2431-0.0054-1.07.8345-.5971,1.6953-0.8506a1.0688,1.0688,0,0,1,1.0625-1.4721,16.504,16.504,0,0,1-.2539-1.6875,16.0931,16.0931,0,0,1-.0674-2.2617q0.0439-.8981.1573-2.1734,0.1062-1.2158.2339-2.5356a0.93,0.93,0,0,1-.5259.0371,0.1865,0.1865,0,0,0-.1216-0.2432c-0.13-.6167.4658-0.5049,0.727-0.729a0.7,0.7,0,0,1,.2432.729,1.6652,1.6652,0,0,1-.2471.1714,19.1021,19.1021,0,0,1,1.437,2.5254,6.6629,6.6629,0,0,1,.605,3.248h0.0445q-0.09,1.7462-.1563,2.7549a9.4321,9.4321,0,0,1-.2017,1.5459,1.4383,1.4383,0,0,1-.3134.6939,0.7261,0.7261,0,0,1-.4932.1562,0.7671,0.7671,0,0,1-.5376-0.5371,4.8045,4.8045,0,0,1-.2519-0.6225c-1.4092-.3.4043,2.2846,2.0537,2.2241C64.16,106.129,63.5906,106.046,63.406,106.3468Zm2.1753,0.0508c0.0015-.0162.0049-0.0323,0.0059-0.0508l0.0044-.0215C65.5872,106.3468,65.5843,106.3731,65.5813,106.3976Zm0.4912-4.9151c-0.8339.26-.7373-0.9341-0.1206-0.8506A1.3209,1.3209,0,0,1,66.0725,101.4825Zm-2.5454-8.147c0.58-1.3344,1.7115.0347,2.667-.4868C66.138,93.6666,63.9974,93.8473,63.5272,93.3355Zm9.09-6.6879c-0.5908.1215-.2232-0.6475,0-0.2422v0.2422Zm0.727,0.2431c0.1768-.4038.3013,0.4741,0,0h0Zm4.3638-3.4057c0.3-.4737.1753,0.4028,0,0h0ZM75.01,85.3136a2.5165,2.5165,0,0,1,1.3887-.8291,4.0687,4.0687,0,0,1,1.5674-.1787,0.8762,0.8762,0,0,1,.7168.4921,0.7567,0.7567,0,0,1-.0894.8516,2.6424,2.6424,0,0,1-1.1645.8066,3.9087,3.9087,0,0,1-1.6353.3355,12.462,12.462,0,0,1-1.4111-.1118A2.9284,2.9284,0,0,1,75.01,85.3136Zm0.1519,2.914A0.4477,0.4477,0,0,1,74.677,87.5H75.04A1.025,1.025,0,0,1,75.1619,88.2276Zm9.6953,2.5533a6.5026,6.5026,0,0,0,1.211.852C86,91.941,84.6726,91.5269,84.8572,90.7809Zm3.8775,0.3657c-0.3013-.0181-0.0357-0.4107,0-0.4864C89.0979,90.74,88.6194,90.92,88.7347,91.1466Zm4.2373-5.833a2.5208,2.5208,0,0,1,1.3891-.8291,4.07,4.07,0,0,1,1.5679-.1787,0.8753,0.8753,0,0,1,.7158.4921,0.7564,0.7564,0,0,1-.0889.8516,2.6384,2.6384,0,0,1-1.165.8066,3.905,3.905,0,0,1-1.6348.3355A12.4716,12.4716,0,0,1,92.345,86.68,2.9327,2.9327,0,0,1,92.972,85.3136Z"/><path class="cls-2" d="M150.8919,80.14a0.9182,0.9182,0,0,0-.4038-0.896,3.7572,3.7572,0,0,0-1.12-.6269,16.7991,16.7991,0,0,0-1.7021-.4927l-1.8814-.1348q0.1349-1.8815.2022-3.2026,0.0658-1.3212.2012-2.4868,0.1339-1.1638.3584-2.3511t0.6714-2.8a2.4034,2.4034,0,0,1,.2465-0.6274,1.2419,1.2419,0,0,0,.1792-0.5147,0.9454,0.9454,0,0,0-.1118-0.5146,2.1452,2.1452,0,0,0-.582-0.6275q-0.449-.358-1.0083-0.7387a2.5252,2.5252,0,0,0-1.12-.4483,1.5406,1.5406,0,0,0-1.0972.313,1.52,1.52,0,0,0-.1948.17,0.8565,0.8565,0,0,1-.5542.86c-0.0664.1445-.13,0.3-0.1919,0.4712-0.1309.3642-.2676,0.7681-0.41,1.2075a2.9305,2.9305,0,0,1-.1953,1.8291,0.5834,0.5834,0,0,1-.2949-0.2314q-0.2162.7368-.4194,1.4868a1.15,1.15,0,0,1-.2544,1.2988c-0.0157-.0527-0.0254-0.1025-0.0391-0.1538-0.0439.1738-.09,0.3447-0.1333,0.52q-0.4035,1.6575-.627,3.1807a13.5,13.5,0,0,0-.18,2.5078l0.0449,0.8515q-1.1653.0455-2.4185,0.1348t-2.643.2236a50.0384,50.0384,0,0,0-5.5782.9405q-2.4843.5829-3.9189,1.0307,0.1347-2.1057.314-4.0322,0.1772-1.9248.3129-3.4487,0.1788-1.7916.3584-3.315a2.2727,2.2727,0,0,0,.09-1.0752,2.5877,2.5877,0,0,0-.3584-0.8735,1.6811,1.6811,0,0,0-.8955-0.6494,10.4362,10.4362,0,0,1-1.0757-.3359c-0.269-.1045-0.4922-0.1866-0.6714-0.2466a1.1261,1.1261,0,0,0-.4712-0.0669,1.069,1.069,0,0,0-.4258.1562,3.5372,3.5372,0,0,0-.9624.9859,7.0422,7.0422,0,0,0-.874,2.9116q-0.09.4482-.2231,1.5679-0.1349,1.12-.292,2.5981t-0.2906,3.1133q-0.1347,1.6355-.18,3.1577-0.0894,2.1072-.0445,4.0317,0.0447,1.9278.09,3.4048,0.044,1.7476.1342,3.2256a1.56,1.56,0,0,0-.0239.6939,1.87,1.87,0,0,0,.3784.74,3.4112,3.4112,0,0,0,1.022.8052,8.2,8.2,0,0,0,1.354.6269,2.3062,2.3062,0,0,0,1.1538.1353,1.234,1.234,0,0,0,.8223-0.5376,2.7054,2.7054,0,0,0,.3555-1.3887,12.354,12.354,0,0,0,.0669-1.5679q0-1.12.0673-2.6884,0.8064,0.8979,1.7022,1.7255,0.8958,0.8292,1.7016,1.5,0.8064,0.6724,1.4117,1.1426t0.8735,0.6494q0.4914,0.312,1.5454.8511,1.0518,0.5376,2.3291,1.0527a21.8329,21.8329,0,0,0,2.5313.8511,6.1359,6.1359,0,0,0,2.15.2466,7.7857,7.7857,0,0,0,1.7465-.4038,4.3207,4.3207,0,0,0,.8477-0.4082c-0.0659-.3711.2734-0.3355,0.375-0.5381a0.18,0.18,0,0,1,.0879.2119c0.125-.1.2485-0.2036,0.3691-0.3179a6.19,6.19,0,0,0,1.3438-1.9716,10.72,10.72,0,0,0,.7842-3.1577q0.0892-1.0292.09-2.8218t0.0893-3.8081q0.627,0,1.12-.022t0.851-.0669q0.4029-.0455.6719-0.09a6.1737,6.1737,0,0,0,1.2988-.7608,7.0777,7.0777,0,0,0,.9629-0.851A2.0033,2.0033,0,0,0,150.8919,80.14Zm-11.4234,9.6988a2.5192,2.5192,0,0,1-1.2089.7163,3.6479,3.6479,0,0,1-2.15-.2017,23.3873,23.3873,0,0,1-2.9561-1.1645,19.896,19.896,0,0,1-2.1948-1.21q-0.8979-.5815-1.4116-0.9849a3.0973,3.0973,0,0,1-.56-0.4931c-0.06-.06-0.1641-0.1568-0.314-0.2915a0.9257,0.9257,0,0,1-.29-0.4927,0.74,0.74,0,0,1,.2012-0.627,2.99,2.99,0,0,1,1.21-.6938,12.6089,12.6089,0,0,1,2.0152-.5605q1.21-.2454,2.5981-0.4478t2.89-.314q1.4772-.11,2.8891-0.1108-0.0445,1.0752-.0439,2.06V86.77c0,0.5972-.0166,1.15-0.0459,1.6572A3.3583,3.3583,0,0,1,139.4685,89.8385Zm0.8921,2.2817c-0.9624.0684-.73-1.72,0.24-1.46C140.8958,91.2091,140.4539,91.6046,140.3606,92.12Zm1.3321,1.2153a0.6758,0.6758,0,0,0-.4834-0.122,1.2529,1.2529,0,0,1,.3618-0.85C142.1673,92.2989,141.9334,93.1983,141.6927,93.3355Zm0.6069-24.32c0.6069,1.2593,1.3379,4.0039.2417,5.2295C142.41,72.6642,141.659,70.5738,142.3,69.0152Zm0.2417,13.3765c-0.354-.3242.5146-0.45,0.9687-0.3652C143.5828,82.629,142.6,82.2476,142.5413,82.3917Zm5.3325-.1231c-0.4966-.2055-1.3071.4024-1.6963-0.2421,0.27-.4165,1.2158-0.1568,1.5747-0.4854C148.1522,81.61,147.927,82,147.8738,82.2686Z"/><path class="cls-2" d="M198.3289,93.0851a5.6393,5.6393,0,0,0,1.0752-.2007,6.0363,6.0363,0,0,0,1.68-.7388,5.4057,5.4057,0,0,0,1.5674-1.5239,4.4158,4.4158,0,0,0,.6948-2.5987l0.0449,0.0459A4.0438,4.0438,0,0,0,202.92,86.12a6.8027,6.8027,0,0,0-1.1865-1.59,9.0773,9.0773,0,0,0-1.5684-1.2549q-0.8511-.5369-1.6347-0.9409a14.6835,14.6835,0,0,0-1.3663-.627,4.83,4.83,0,0,1-.7168-0.313,1.6367,1.6367,0,0,1-.6943-0.65,4.324,4.324,0,0,1-.291-0.6494c-0.0308-.0893-0.0825-0.2168-0.1567-0.3808a2.0336,2.0336,0,0,0-.3589-0.5157,2.1615,2.1615,0,0,0-.5826-0.4472,1.7424,1.7424,0,0,0-.8276-0.18,1.3988,1.3988,0,0,0-.8745.292,4.1818,4.1818,0,0,0-.6938.6714,2.8567,2.8567,0,0,0-.47.7841,1.9285,1.9285,0,0,0-.1572.6719q0,0.3582.022,0.9849a2.1546,2.1546,0,0,0,.5156,1.2549,6.5092,6.5092,0,0,1-.2685.9179q-0.1341.3362-.2911,0.6724t-0.3808.7612q-0.2249.4263-.5376,1.1431c-0.1089.2368-.1973,0.4634-0.2769,0.6841a3.9064,3.9064,0,0,1-.5068.6816,3.9585,3.9585,0,0,1-1.3213.8731,2.6639,2.6639,0,0,1-2.2173.2915,3.3154,3.3154,0,0,1-1.2314-1.0972,2.2245,2.2245,0,0,1-.2691-1.0308,10.994,10.994,0,0,1,0-1.4111c0.0293-.4932.0816-0.9771,0.1563-1.4556s0.1416-.8657.2021-1.1645a1.8,1.8,0,0,0-.4931-1.5679,2.5239,2.5239,0,0,0-1.2095-.8061,3.0358,3.0358,0,0,0-1.2764,0,2.3125,2.3125,0,0,0-1.0083.3579,1.4909,1.4909,0,0,0-.2685.5595,6.9271,6.9271,0,0,0-.2242.9864q-0.09.5595-.1562,1.1191c-0.0449.374-.083,0.665-0.1123,0.8735a5.843,5.843,0,0,1-1.165,3.0469,2.8129,2.8129,0,0,1-2.0606,1.21,2.0291,2.0291,0,0,1-.9634-0.2241,2.1521,2.1521,0,0,1-.6938-0.56,3.3134,3.3134,0,0,1-.4253-0.6719,1.4382,1.4382,0,0,1-.1568-0.6045,7.3665,7.3665,0,0,1,.1568-1.3891q0.156-.8072.38-2.4634a2.0394,2.0394,0,0,0-.1568-1.2324,1.478,1.478,0,0,0-.605-0.605,1.86,1.86,0,0,0-.6943-0.2012q-0.3354-.0219-0.47-0.0219a3.2355,3.2355,0,0,0-.7612,0,2.8389,2.8389,0,0,0-1.12.4028,1.7192,1.7192,0,0,0-.5156.9409,10.8982,10.8982,0,0,0-.313,1.68c-0.0088.0723-.0136,0.1494-0.0215,0.2227a2.1153,2.1153,0,0,1-.7177.3593,4.6172,4.6172,0,0,1-1.1426.18,5.8764,5.8764,0,0,1-1.1641-.0679,3.8129,3.8129,0,0,1-.873-0.2231,2.9084,2.9084,0,0,1-.7627-0.4707q-0.2688-.2461-0.4922-0.47a3.2413,3.2413,0,0,0-.6274-0.9409,7.2309,7.2309,0,0,0-2.5982-1.7022q-0.5376-.2233-1.3437-0.4707a6.6605,6.6605,0,0,0-1.9263-.2461,9.3876,9.3876,0,0,0-3.4043.605,9.73,9.73,0,0,0-2.7329,1.5679,7.7388,7.7388,0,0,0-1.8364,2.15,4.68,4.68,0,0,0-.6724,2.3076,7.0317,7.0317,0,0,0,.3584,2.2388,4.9452,4.9452,0,0,0,1.165,1.9043,5.9057,5.9057,0,0,0,2.128,1.3437,8.8259,8.8259,0,0,0,3.2026.5156,11.7721,11.7721,0,0,0,3.1582-.4038,11.3537,11.3537,0,0,0,2.5981-1.0527A7.3818,7.3818,0,0,0,164.8,89.794a4.6679,4.6679,0,0,0,1.0073-1.6811,10.5456,10.5456,0,0,0,2.33-.1563q1.0745-.2013,1.8374-0.4253c0.1563-.0449.3032-0.1,0.4512-0.1533-0.0025.16-.0039,0.3159-0.0039,0.4663a4.6712,4.6712,0,0,0,.3589,1.7476,5.6313,5.6313,0,0,0,1.0068,1.6348,4.95,4.95,0,0,0,1.5688,1.1875,4.6949,4.6949,0,0,0,2.0826.4482,5.4417,5.4417,0,0,0,2.1274-.4043,7.9538,7.9538,0,0,0,1.6353-.895,7.6341,7.6341,0,0,0,1.4335-1.3452,5.3928,5.3928,0,0,0,1.3882,1.21,6.544,6.544,0,0,0,1.68.8511,6.8614,6.8614,0,0,0,2.3071.3584,7.423,7.423,0,0,0,3.1133-.605,8.7849,8.7849,0,0,0,1.8067-1.0825,1.3891,1.3891,0,0,0,.186.1645,7.547,7.547,0,0,0,2.3076,1.3658,10.7567,10.7567,0,0,0,2.1729.56,8.9294,8.9294,0,0,0,1.7241.09Q198.06,93.0858,198.3289,93.0851ZM154.66,88.9586c0.5977,2.0249-2.1049.2534,0,0h0Zm3.878,1.58c0.2988-2.9742,2.2177.67,0,0h0Zm1.9609-2.2686a3.8692,3.8692,0,0,1-.9853.5151,4.2152,4.2152,0,0,1-.94.2242q-0.4269.0447-.6045,0.0444c-0.15,0-.3667-0.0068-0.65-0.022a2.8576,2.8576,0,0,1-.851-0.18,1.6471,1.6471,0,0,1-.74-0.56,1.863,1.863,0,0,1-.313-1.1646,2.1068,2.1068,0,0,1,.4029-1.2993,3.6058,3.6058,0,0,1,.9184-0.873A4.5389,4.5389,0,0,1,157.79,84.44a2.8507,2.8507,0,0,1,.8057-0.1792h0.4028a2.8943,2.8943,0,0,1,.4483.045,6.9418,6.9418,0,0,0,.2016.6718c0.0738,0.209.1416,0.4185,0.2012,0.6265a3.9929,3.9929,0,0,0,.6055,1.0757,2.6039,2.6039,0,0,0,.7392.6274l0.044,0.0449A2.2556,2.2556,0,0,1,160.4993,88.27Zm9.1885-1.6225c-0.5542.0869-1.0835-.2837-0.728-0.73,0.6049,0.4883.3276-.0152,0.9692,0.1206C170.033,86.4268,169.739,86.4156,169.6878,86.6476Zm18.0561,3.4057c0.021-.3452.2217-0.5073,0.2432-0.8525C188.5072,89.2262,188.1312,90.1583,187.7439,90.0533Zm3.1514-3.8921c-0.0376-.685,1.1191-0.1733,1.4531-0.4868a1.031,1.031,0,0,1,.1211.731C191.72,86.2769,191.1258,86.7364,190.8953,86.1612Zm1.4531,3.4043a1.0866,1.0866,0,0,1,.2427.8516C192.1316,90.3849,192.2039,89.9054,192.3484,89.5655Zm0.1211-8.3916a0.9948,0.9948,0,0,1,.3648.1231C192.8816,81.5318,192.281,81.4747,192.47,81.1739Zm4.2246,8.3281a5.157,5.157,0,0,1-1.3667,0,10.2271,10.2271,0,0,1-1.3882-.2685q-0.27-.0894-0.4931-0.1572c-0.15-.0445-0.2993-0.0816-0.4483-0.1123l0.09-.1788a4.3293,4.3293,0,0,0,.7842-1.6577q0.29-1.0745.5146-2.2846,0.7609,0.27,1.5229.5825a9.06,9.06,0,0,1,1.3667.6948,3.4605,3.4605,0,0,1,.94.8286,1.1892,1.1892,0,0,1,.2016,1.03V88.023a1.64,1.64,0,0,1-.6044,1.0308A2.3326,2.3326,0,0,1,196.6942,89.502Z"/><path class="cls-2" d="M223.9524,85.336a1.4649,1.4649,0,0,0-1.4116.2017,5.2489,5.2489,0,0,0-.9184,1.7246,3.1661,3.1661,0,0,1-.7168.896,7.7056,7.7056,0,0,1-1.7247,1.2319,12.67,12.67,0,0,1-2.71,1.0528,13.7447,13.7447,0,0,1-3.6734.4477,4.0207,4.0207,0,0,1-1.68-.3359,4.11,4.11,0,0,1-1.2315-.8286,12.0915,12.0915,0,0,0,2.5972-.3584,9.0667,9.0667,0,0,0,2.06-.6944,7.13,7.13,0,0,0,1.7476-1.165,5.5182,5.5182,0,0,0,1.2095-1.5679,4.1207,4.1207,0,0,0,.4482-1.9033,2.511,2.511,0,0,0-.5825-1.7031,4.2569,4.2569,0,0,0-1.4561-1.0742,7.7382,7.7382,0,0,0-1.8594-.5835,10.2028,10.2028,0,0,0-1.791-.1788,12.6441,12.6441,0,0,0-2.15.2466,10.0555,10.0555,0,0,0-2.6875.9185A8.6774,8.6774,0,0,0,204.9807,83.5a5.39,5.39,0,0,0-1.3662,3.001,8.0142,8.0142,0,0,0-.0737,1.0293,0.3833,0.3833,0,0,1,.4429-0.1533,0.3624,0.3624,0,0,1-.4419.4877,6.24,6.24,0,0,0,.23,1.5259,4.8636,4.8636,0,0,0,1.479,2.3067,7.6722,7.6722,0,0,0,2.8891,1.5454,14.86,14.86,0,0,0,4.39.5595,17.2283,17.2283,0,0,0,4.6362-.5815,15.2755,15.2755,0,0,0,3.5835-1.4565,12.2378,12.2378,0,0,0,1.5415-1.0572c-0.2324-.332.0235-0.9072,0.7188-0.7749,0.0083,0.0313.019,0.0655,0.0288,0.1,0.0493-.05.105-0.0981,0.1523-0.1489q0.2307-.2483.4268-0.4863a0.1483,0.1483,0,0,1-.1226-0.1958c0.0332-.1177.2168-0.1089,0.3115-0.0513a5.3447,5.3447,0,0,0,.6836-1.1265,3.0508,3.0508,0,0,0,.1573-1.791A1.0237,1.0237,0,0,0,223.9524,85.336ZM209.92,84.337c0.3047,0.1953-.0029.7954-0.4829,0.6079C209.4505,84.5948,209.9534,84.7335,209.92,84.337Zm-0.4365.9766a2.5162,2.5162,0,0,1,1.3882-.8291,4.0714,4.0714,0,0,1,1.5678-.1787,0.8762,0.8762,0,0,1,.7168.4921,0.7557,0.7557,0,0,1-.09.8516,2.6354,2.6354,0,0,1-1.1641.8066,3.9087,3.9087,0,0,1-1.6357.3355,12.4527,12.4527,0,0,1-1.41-.1118A2.923,2.923,0,0,1,209.4832,85.3136Z"/></svg>