<svg id="Layer_1" data-name="Layer 1" xmlns="http://www.w3.org/2000/svg" viewBox="0 0 57.5639 11.159"><defs><style>.cls-1{fill:#231f20;}.cls-2{fill:#ed1c24;}</style></defs><title>logo</title><path class="cls-1" d="M3.0589,7.6943A1.6392,1.6392,0,0,0,4.9162,9.0365c.952,0,1.3891-.3434,1.3891-.9677,0-.7022-.4683-.9676-2.1694-1.3733C.9676,5.9306.3277,4.7757.3277,3.3243.3277,1.5139,1.6543,0,4.6509,0,7.7566,0,9.0364,1.5919,9.1768,3.2774H6.1335C6.0554,2.7,5.7589,2.1225,4.6353,2.1225c-.718,0-1.1549.2653-1.1549.8428,0,.593.39.8115,2.0444,1.2174,3.3087.8272,3.98,2.0288,3.98,3.5583,0,2.0133-1.5606,3.418-4.7132,3.418C1.81,11.159.234,9.77,0,7.6943Z"/><path class="cls-1" d="M12.5338,10.9561,9.943.2029h3.3087A72.5589,72.5589,0,0,1,14.36,7.8035h.0467c.4371-2.3254,1.0926-5.0878,1.6387-7.6006h2.8094c.4682,2.1849,1.186,5.1659,1.5606,7.4758h.0469c.2653-2.2319.9832-5.8214,1.2485-7.4758h3.0278L22.0073,10.9561H18.7922C18.324,8.7243,17.7,6.18,17.2939,4.1046h-.0312c-.3746,2.0289-1.0457,4.7757-1.5139,6.8515Z"/><path class="cls-1" d="M29.0789.2029V10.9561H25.9106V.2029Z"/><path class="cls-1" d="M33.59,7.6943a1.6392,1.6392,0,0,0,1.8573,1.3422c.952,0,1.3891-.3434,1.3891-.9677,0-.7022-.4683-.9676-2.1694-1.3733-3.1682-.7648-3.8081-1.92-3.8081-3.3712C30.8587,1.5139,32.1853,0,35.1818,0c3.1058,0,4.3855,1.5919,4.5259,3.2774H36.6645C36.5864,2.7,36.29,2.1225,35.1662,2.1225c-.718,0-1.1549.2653-1.1549.8428,0,.593.39.8115,2.0444,1.2174,3.3087.8272,3.98,2.0288,3.98,3.5583,0,2.0133-1.5606,3.418-4.7132,3.418-2.9809,0-4.5573-1.3891-4.7913-3.4647Z"/><path class="cls-1" d="M43.6889,2.544H40.6143V.2029h9.2705V2.544H46.8415v8.4121H43.6889Z"/><path class="cls-2" d="M54.4424,1.2642V4.4793h3.1215V6.6641H54.4424V9.8948H52.2107V6.6641H49.0268V4.4793h3.1839V1.2642Z"/></svg>